<svg width="17" height="16" viewBox="0 0 17 16" fill="none" xmlns="http://www.w3.org/2000/svg">
<path d="M14.9 13.6996C14.9559 13.7739 14.99 13.8623 14.9984 13.9548C15.0068 14.0474 14.9893 14.1405 14.9478 14.2237C14.9062 14.3068 14.8423 14.3768 14.7632 14.4256C14.6841 14.4745 14.593 14.5003 14.5 14.5002H2.5C2.40714 14.5002 2.31612 14.4744 2.23713 14.4255C2.15815 14.3767 2.09431 14.3069 2.05279 14.2238C2.01126 14.1408 1.99368 14.0478 2.00202 13.9553C2.01036 13.8628 2.04429 13.7745 2.1 13.7002C2.54274 13.1066 3.13314 12.6393 3.8125 12.3446C3.44011 12.0047 3.17918 11.5602 3.06397 11.0694C2.94875 10.5785 2.98463 10.0643 3.16689 9.59426C3.34916 9.12419 3.66929 8.72021 4.08527 8.43535C4.50125 8.15048 4.99364 7.99805 5.49781 7.99805C6.00198 7.99805 6.49437 8.15048 6.91035 8.43535C7.32633 8.72021 7.64647 9.12419 7.82873 9.59426C8.01099 10.0643 8.04687 10.5785 7.93166 11.0694C7.81644 11.5602 7.55551 12.0047 7.18313 12.3446C7.67326 12.5564 8.11866 12.8595 8.49563 13.2377C8.87259 12.8595 9.31799 12.5564 9.80812 12.3446C9.43574 12.0047 9.17481 11.5602 9.05959 11.0694C8.94438 10.5785 8.98026 10.0643 9.16252 9.59426C9.34478 9.12419 9.66492 8.72021 10.0809 8.43535C10.4969 8.15048 10.9893 7.99805 11.4934 7.99805C11.9976 7.99805 12.49 8.15048 12.906 8.43535C13.322 8.72021 13.6421 9.12419 13.8244 9.59426C14.0066 10.0643 14.0425 10.5785 13.9273 11.0694C13.8121 11.5602 13.5511 12.0047 13.1788 12.3446C13.8613 12.6377 14.4548 13.105 14.9 13.6996ZM2.2 7.90022C2.25253 7.93961 2.3123 7.96828 2.37591 7.98457C2.43952 8.00087 2.50571 8.00448 2.57071 7.99519C2.63571 7.9859 2.69825 7.96391 2.75475 7.93045C2.81125 7.897 2.8606 7.85274 2.9 7.80022C3.20273 7.39658 3.59528 7.06897 4.04656 6.84333C4.49784 6.61769 4.99545 6.50022 5.5 6.50022C6.00455 6.50022 6.50216 6.61769 6.95344 6.84333C7.40472 7.06897 7.79727 7.39658 8.1 7.80022C8.14657 7.86231 8.20697 7.91271 8.27639 7.94743C8.34582 7.98214 8.42238 8.00022 8.5 8.00022C8.57762 8.00022 8.65418 7.98214 8.72361 7.94743C8.79303 7.91271 8.85343 7.86231 8.9 7.80022C9.20273 7.39658 9.59528 7.06897 10.0466 6.84333C10.4978 6.61769 10.9955 6.50022 11.5 6.50022C12.0045 6.50022 12.5022 6.61769 12.9534 6.84333C13.4047 7.06897 13.7973 7.39658 14.1 7.80022C14.1394 7.85274 14.1888 7.89699 14.2454 7.93043C14.3019 7.96387 14.3645 7.98584 14.4295 7.9951C14.4945 8.00435 14.5608 8.00071 14.6244 7.98438C14.688 7.96805 14.7478 7.93934 14.8003 7.8999C14.8528 7.86046 14.8971 7.81107 14.9305 7.75453C14.964 7.69799 14.9859 7.63542 14.9952 7.57039C15.0045 7.50536 15.0008 7.43915 14.9845 7.37552C14.9681 7.3119 14.9394 7.25212 14.9 7.19959C14.4572 6.60617 13.8668 6.13902 13.1875 5.84459C13.5599 5.50472 13.8208 5.06019 13.936 4.56936C14.0512 4.07853 14.0154 3.56434 13.8331 3.09427C13.6508 2.62419 13.3307 2.22021 12.9147 1.93535C12.4987 1.65048 12.0064 1.49805 11.5022 1.49805C10.998 1.49805 10.5056 1.65048 10.0896 1.93535C9.67367 2.22021 9.35353 2.62419 9.17127 3.09427C8.98901 3.56434 8.95313 4.07853 9.06834 4.56936C9.18356 5.06019 9.44449 5.50472 9.81688 5.84459C9.32674 6.05645 8.88134 6.35954 8.50438 6.73772C8.12742 6.35954 7.68201 6.05645 7.19187 5.84459C7.56426 5.50472 7.82519 5.06019 7.94041 4.56936C8.05562 4.07853 8.01974 3.56434 7.83748 3.09427C7.65522 2.62419 7.33508 2.22021 6.9191 1.93535C6.50312 1.65048 6.01073 1.49805 5.50656 1.49805C5.00239 1.49805 4.51 1.65048 4.09402 1.93535C3.67804 2.22021 3.35791 2.62419 3.17564 3.09427C2.99338 3.56434 2.9575 4.07853 3.07272 4.56936C3.18793 5.06019 3.44886 5.50472 3.82125 5.84459C3.1387 6.13796 2.54516 6.60543 2.1 7.20021C2.0606 7.25274 2.03194 7.31252 2.01564 7.37612C1.99935 7.43973 1.99574 7.50592 2.00503 7.57093C2.01431 7.63593 2.03631 7.69846 2.06976 7.75496C2.10322 7.81146 2.14747 7.86082 2.2 7.90022Z" fill="#18181B"/>
</svg>
