<svg width="130" height="28" viewBox="0 0 130 28" fill="none" xmlns="http://www.w3.org/2000/svg">
<g clip-path="url(#clip0_1689_41297)">
<path d="M51.8419 16.1162L49.6178 10.093C49.5196 9.83252 49.1598 9.83252 49.0944 10.093L46.8375 16.1162C46.7721 16.3116 46.903 16.5069 47.0992 16.5069H51.613C51.7765 16.5069 51.9401 16.3116 51.8419 16.1162ZM52.8886 19.5023H45.7909C45.66 19.5023 45.5619 19.5674 45.5292 19.6976L44.1227 23.4418C44.09 23.5395 43.9592 23.6372 43.8611 23.6372H40.7865C40.5902 23.6372 40.4594 23.4418 40.5248 23.2465L47.6225 5.63252C47.6553 5.53484 47.7861 5.46973 47.8842 5.46973H50.828C50.9588 5.46973 51.0569 5.53484 51.0896 5.63252L58.1873 23.2465C58.2528 23.4418 58.1219 23.6372 57.9257 23.6372H54.8511C54.7203 23.6372 54.6221 23.5721 54.5894 23.4418L53.183 19.6976C53.1176 19.6 53.0194 19.5023 52.8886 19.5023ZM59.6265 11.6558H62.2759C62.4394 11.6558 62.5703 11.786 62.5703 11.9488V23.3767C62.5703 23.5395 62.4394 23.6697 62.2759 23.6697H59.6265C59.463 23.6697 59.3321 23.5395 59.3321 23.3767V11.9162C59.3321 11.786 59.463 11.6558 59.6265 11.6558ZM72.1538 14.4232C72.1538 14.586 72.023 14.7162 71.8594 14.7162H71.794C70.4857 14.7162 69.5372 15.0418 68.9157 15.6604C68.2942 16.279 67.9999 17.3209 67.9999 18.7534V23.3767C67.9999 23.5395 67.869 23.6697 67.7055 23.6697H65.0888C64.9253 23.6697 64.7944 23.5395 64.7944 23.3767V11.9162C64.7944 11.7534 64.9253 11.6232 65.0888 11.6232H67.6728C67.8363 11.6232 67.9672 11.7534 67.9672 11.9162V14.1628H68.0326C68.3597 13.2186 68.8503 12.5023 69.5044 12.0139C70.1913 11.5255 71.009 11.2651 72.023 11.2651H72.1538V14.4232ZM79.3824 14.3255C79.2188 14.3255 79.088 14.4558 79.088 14.6186V19.3721C79.088 19.8604 79.1861 20.2186 79.3824 20.4139C79.5786 20.6093 79.9057 20.7395 80.3636 20.7395H80.6253C80.7888 20.7395 80.9197 20.8697 80.9197 21.0325V23.4093C80.9197 23.5721 80.7888 23.7023 80.6253 23.7023H79.5132C78.3357 23.7023 77.4526 23.4093 76.8311 22.8232C76.2097 22.2372 75.8826 21.3255 75.8826 20.1534V14.6186C75.8826 14.4558 75.7517 14.3255 75.5882 14.3255H73.9528C73.7892 14.3255 73.6584 14.1953 73.6584 14.0325V11.9162C73.6584 11.7534 73.7892 11.6232 73.9528 11.6232H75.5882C75.7517 11.6232 75.8826 11.493 75.8826 11.3302V7.09763C75.8826 6.93484 76.0134 6.80461 76.177 6.80461H78.8263C78.9899 6.80461 79.1207 6.93484 79.1207 7.09763V11.3302C79.1207 11.493 79.2515 11.6232 79.4151 11.6232H81.3122C81.4757 11.6232 81.6065 11.7534 81.6065 11.9162V14.0325C81.6065 14.1953 81.4757 14.3255 81.3122 14.3255H79.3824ZM91.4518 20.0883C92.0405 19.4697 92.3349 18.6558 92.3349 17.6465C92.3349 16.6372 92.0405 15.8232 91.4518 15.2046C90.863 14.586 90.078 14.2604 89.0968 14.2604C88.1155 14.2604 87.3305 14.586 86.7418 15.2046C86.153 15.8232 85.8586 16.6372 85.8586 17.6465C85.8586 18.6558 86.153 19.4697 86.7418 20.0883C87.3305 20.7069 88.1155 21.0325 89.0968 21.0325C90.0453 21.0325 90.8303 20.7069 91.4518 20.0883ZM85.368 23.279C84.4849 22.7907 83.798 22.0418 83.2747 21.0976C82.7513 20.1534 82.4897 18.9814 82.4897 17.6465C82.4897 16.3116 82.7513 15.1721 83.2747 14.1953C83.798 13.2511 84.4849 12.5023 85.368 12.0139C86.2511 11.5255 87.2324 11.2651 88.279 11.2651C89.2276 11.2651 90.0126 11.4604 90.6995 11.8186C91.3536 12.1767 91.9097 12.6976 92.3022 13.3488H92.3676V11.9488C92.3676 11.786 92.4984 11.6558 92.662 11.6558H95.2786C95.4422 11.6558 95.573 11.786 95.573 11.9488V23.3767C95.573 23.5395 95.4422 23.6697 95.2786 23.6697H92.662C92.4984 23.6697 92.3676 23.5395 92.3676 23.3767V21.9767H92.3022C91.9097 22.6279 91.3536 23.1488 90.6995 23.5069C90.0453 23.8651 89.2276 24.0604 88.279 24.0604C87.1997 24.0279 86.2511 23.7674 85.368 23.279ZM106.367 20.0883C106.956 19.4697 107.25 18.6558 107.25 17.6465C107.25 16.6372 106.956 15.8232 106.367 15.2046C105.778 14.586 104.993 14.2604 104.012 14.2604C103.031 14.2604 102.246 14.586 101.657 15.2046C101.068 15.8232 100.741 16.6372 100.741 17.6465C100.741 18.6558 101.035 19.4697 101.657 20.0883C102.246 20.7069 103.031 21.0325 104.012 21.0325C104.993 21.0325 105.778 20.7069 106.367 20.0883ZM102.409 23.4744C101.755 23.1162 101.199 22.5953 100.806 21.9441H100.741V23.3441C100.741 23.5069 100.61 23.6372 100.447 23.6372H97.7972C97.6336 23.6372 97.5028 23.5069 97.5028 23.3441V5.76275C97.5028 5.59996 97.6336 5.46973 97.7972 5.46973H100.447C100.61 5.46973 100.741 5.59996 100.741 5.76275V13.3488H100.806C101.199 12.6976 101.755 12.1767 102.409 11.8186C103.063 11.4604 103.881 11.2651 104.829 11.2651C105.876 11.2651 106.857 11.5255 107.741 12.0139C108.624 12.5023 109.311 13.2511 109.834 14.1953C110.357 15.1395 110.619 16.3116 110.619 17.6465C110.619 18.9814 110.357 20.1209 109.834 21.0976C109.311 22.0418 108.624 22.7907 107.741 23.279C106.857 23.7674 105.876 24.0279 104.829 24.0279C103.881 24.0279 103.096 23.8325 102.409 23.4744ZM115.067 23.6372H112.418C112.254 23.6372 112.123 23.5069 112.123 23.3441V5.76275C112.123 5.59996 112.254 5.46973 112.418 5.46973H115.067C115.231 5.46973 115.362 5.59996 115.362 5.76275V23.3767C115.329 23.5069 115.231 23.6372 115.067 23.6372ZM121.282 14.4232C120.857 14.7488 120.562 15.2372 120.399 15.8883C120.366 16.0511 120.497 16.2465 120.693 16.2465H125.697C125.861 16.2465 126.025 16.0837 125.992 15.9209C125.894 15.3023 125.632 14.8465 125.207 14.4558C124.716 14.0325 124.062 13.8046 123.277 13.8046C122.459 13.8372 121.805 14.0325 121.282 14.4232ZM127.693 12.9255C128.707 14.0325 129.23 15.6279 129.23 17.6465V17.9721C129.23 18.1348 129.099 18.2651 128.936 18.2651H120.562C120.399 18.2651 120.235 18.4279 120.268 18.5907C120.399 19.3395 120.726 19.9581 121.282 20.3814C121.903 20.9023 122.688 21.1628 123.604 21.1628C124.814 21.1628 125.926 20.7069 126.973 19.7628C127.104 19.6325 127.3 19.6651 127.398 19.8279L128.674 21.6511C128.772 21.7814 128.739 21.9441 128.641 22.0418C128.02 22.5953 127.333 23.0511 126.548 23.4093C125.697 23.8 124.716 24.0279 123.604 24.0279C122.296 24.0279 121.151 23.7674 120.202 23.2465C119.221 22.7255 118.469 21.9767 117.946 21C117.422 20.0558 117.128 18.9162 117.128 17.679C117.128 16.4093 117.389 15.3023 117.913 14.3255C118.436 13.3488 119.156 12.6 120.104 12.079C121.053 11.5581 122.132 11.2651 123.375 11.2651C125.24 11.2651 126.679 11.8186 127.693 12.9255ZM62.8974 7.42321C62.8974 8.49763 62.0142 9.3767 60.9349 9.3767C59.8555 9.3767 58.9724 8.49763 58.9724 7.42321C58.9724 6.3488 59.8555 5.46973 60.9349 5.46973C62.0142 5.46973 62.8974 6.3488 62.8974 7.42321Z" fill="#333333"/>
<path d="M15.0112 0.357978L2.48391 5.50216C1.79703 5.79519 1.79703 6.77193 2.48391 7.06496L15.0766 12.0464C16.1887 12.4696 17.3989 12.4696 18.511 12.0464L31.1037 7.06496C31.7906 6.77193 31.8233 5.79519 31.1037 5.50216L18.5764 0.357978C17.4316 -0.130394 16.156 -0.130394 15.0112 0.357978Z" fill="#FCB400"/>
<path d="M17.9258 14.7488V27.1534C17.9258 27.7395 18.5145 28.1627 19.0706 27.9348L33.1025 22.5302C33.4295 22.3999 33.6258 22.1069 33.6258 21.7488V9.34414C33.6258 8.75809 33.037 8.33483 32.481 8.56274L18.4491 13.9674C18.122 14.0976 17.9258 14.3906 17.9258 14.7488Z" fill="#18BFFF"/>
<path d="M0 9.37673V21.0325C0 21.6511 0.719584 22.0418 1.27563 21.7814L10.0415 17.5814L10.4667 17.386L0.261667 8.82324C0.130833 8.95347 0 9.14882 0 9.37673Z" fill="#F82B60"/>
<path d="M14.588 13.8693L1.24297 8.59488C0.981303 8.4972 0.686928 8.52976 0.490677 8.65999C0.425261 8.69255 0.327135 8.75767 0.261719 8.82279L10.4667 17.3856L14.6207 15.3995C15.3076 15.0739 15.2422 14.1298 14.588 13.8693Z" fill="#BA1E45"/>
</g>
<defs>
<clipPath id="clip0_1689_41297">
<rect width="129.231" height="28" fill="white"/>
</clipPath>
</defs>
</svg>
