<svg width="5" height="10" viewBox="0 0 5 10" fill="none" xmlns="http://www.w3.org/2000/svg">
<path d="M4.83081 8.88499C4.93914 9.00748 5 9.17361 5 9.34684C5 9.52007 4.93914 9.6862 4.83081 9.80869C4.72248 9.93118 4.57556 10 4.42236 10C4.26915 10 4.12223 9.93118 4.0139 9.80869L0.169603 5.46185C0.115845 5.40128 0.0731905 5.3293 0.0440861 5.25004C0.0149817 5.17079 0 5.08582 0 5C0 4.91418 0.0149817 4.82921 0.0440861 4.74996C0.0731905 4.6707 0.115845 4.59872 0.169603 4.53815L4.0139 0.191305C4.12223 0.0688145 4.26915 -2.5813e-09 4.42236 0C4.57556 2.5813e-09 4.72248 0.0688147 4.83081 0.191305C4.93914 0.313796 5 0.479929 5 0.653157C5 0.826385 4.93914 0.992518 4.83081 1.11501L1.39545 4.99946L4.83081 8.88499Z" fill="white"/>
</svg>
