<svg width="5" height="10" viewBox="0 0 5 10" fill="none" xmlns="http://www.w3.org/2000/svg">
<g clip-path="url(#clip0_442_330)">
<path d="M0.169188 8.88499C0.0608586 9.00748 -1.05518e-07 9.17361 -1.04376e-07 9.34684C-1.03235e-07 9.52007 0.0608586 9.6862 0.169188 9.80869C0.277517 9.93118 0.424443 10 0.577644 10C0.730845 10 0.877771 9.93118 0.986101 9.80869L4.8304 5.46185C4.88416 5.40128 4.92681 5.3293 4.95591 5.25004C4.98502 5.17079 5 5.08582 5 5C5 4.91418 4.98502 4.82921 4.95591 4.74996C4.92681 4.6707 4.88416 4.59872 4.8304 4.53815L0.986101 0.191305C0.877771 0.0688145 0.730845 -2.5813e-09 0.577644 0C0.424443 2.5813e-09 0.277517 0.0688147 0.169188 0.191305C0.0608586 0.313796 -1.02093e-07 0.479929 -1.04376e-07 0.653157C-1.06659e-07 0.826385 0.0608586 0.992518 0.169188 1.11501L3.60455 4.99946L0.169188 8.88499Z" fill="white"/>
</g>
<defs>
<clipPath id="clip0_442_330">
<rect width="5" height="10" fill="white"/>
</clipPath>
</defs>
</svg>
