<svg width="151" height="32" viewBox="0 0 151 32" fill="none" xmlns="http://www.w3.org/2000/svg">
<path d="M25.1855 10.9176C23.0554 12.2353 21.7398 14.4941 21.7398 17.0039C21.7398 19.8275 23.4313 22.4 26 23.4667C25.4988 25.098 24.747 26.6039 23.8072 27.9843C22.4289 29.9294 20.988 31.9373 18.8578 31.9373C16.7277 31.9373 16.1012 30.6824 13.5952 30.6824C11.1518 30.6824 10.2747 32 8.26988 32C6.26506 32 4.88675 30.1804 3.32048 27.9216C1.25301 24.7843 0.0626506 21.1451 0 17.3176C0 11.1059 4.00964 7.78039 8.01928 7.78039C10.1494 7.78039 11.9036 9.16078 13.2193 9.16078C14.4723 9.16078 16.4771 7.71765 18.8578 7.71765C21.3639 7.6549 23.7446 8.84706 25.1855 10.9176ZM17.7301 5.08235C18.7952 3.82745 19.359 2.25882 19.4217 0.627451C19.4217 0.439216 19.4217 0.188235 19.359 0C17.5422 0.188235 15.8506 1.06667 14.6602 2.44706C13.5952 3.63922 12.9687 5.1451 12.906 6.77647C12.906 6.96471 12.906 7.15294 12.9687 7.34118C13.094 7.34118 13.2819 7.40392 13.4072 7.40392C15.0988 7.27843 16.6651 6.4 17.7301 5.08235Z" fill="#18181B" fill-opacity="0.8"/>
<path d="M43.94 17L43.25 15.1H40.24L39.55 17H38.24L41.17 9.2H42.35L45.28 17H43.94ZM42.41 12.78L41.74 10.82L41.08 12.78L40.64 13.99H42.85L42.41 12.78ZM47.5595 12.91H49.3795C50.0995 12.91 50.6695 12.46 50.6695 11.61C50.6695 10.76 50.0995 10.31 49.3795 10.31H47.5595V12.91ZM47.5595 14.02V17H46.3595V9.2H49.4695C50.8595 9.2 51.8895 10.14 51.8895 11.61C51.8895 13.09 50.8595 14.02 49.4695 14.02H47.5595ZM54.2295 12.91H56.0495C56.7695 12.91 57.3395 12.46 57.3395 11.61C57.3395 10.76 56.7695 10.31 56.0495 10.31H54.2295V12.91ZM54.2295 14.02V17H53.0295V9.2H56.1395C57.5295 9.2 58.5595 10.14 58.5595 11.61C58.5595 13.09 57.5295 14.02 56.1395 14.02H54.2295ZM60.8994 9.2V15.89H64.8194V17H59.6994V9.2H60.8994ZM65.9005 9.2H71.4205V10.31H67.1005V12.44H71.0205V13.56H67.1005V15.89H71.6205V17H65.9005V9.2ZM76.5244 12.91H78.3444C79.0644 12.91 79.6344 12.46 79.6344 11.61C79.6344 10.76 79.0644 10.31 78.3444 10.31H76.5244V12.91ZM76.5244 14.02V17H75.3244V9.2H78.4344C79.8244 9.2 80.8544 10.14 80.8544 11.61C80.8544 13.09 79.8244 14.02 78.4344 14.02H76.5244ZM83.1943 13.9V17H81.9943V9.2H85.3343C86.6543 9.2 87.6843 10.11 87.6843 11.55C87.6843 12.74 86.9843 13.56 86.0043 13.82L87.9443 17H86.5243L84.6643 13.9H83.1943ZM83.1943 12.79H85.2343C85.8843 12.79 86.4643 12.37 86.4643 11.55C86.4643 10.73 85.8843 10.31 85.2343 10.31H83.1943V12.79ZM89.7991 13.1C89.7991 14.96 90.9891 16.02 92.6191 16.02C94.2491 16.02 95.4391 14.96 95.4391 13.1C95.4391 11.24 94.2491 10.18 92.6191 10.18C90.9891 10.18 89.7991 11.24 89.7991 13.1ZM96.6591 13.1C96.6591 15.59 94.9391 17.13 92.6191 17.13C90.2991 17.13 88.5791 15.59 88.5791 13.1C88.5791 10.61 90.2991 9.07 92.6191 9.07C94.9391 9.07 96.6591 10.61 96.6591 13.1ZM104.919 13.1C104.919 15.61 103.319 17 100.879 17H98.0392V9.2H100.879C103.319 9.2 104.919 10.59 104.919 13.1ZM99.2392 15.89H100.799C102.579 15.89 103.699 14.94 103.699 13.1C103.699 11.26 102.579 10.31 100.799 10.31H99.2392V15.89ZM109.381 17.13C107.411 17.13 106.191 15.81 106.191 13.94V9.2H107.391V14.03C107.391 15.17 108.151 16.02 109.381 16.02C110.611 16.02 111.371 15.17 111.371 14.03V9.2H112.571V13.94C112.571 15.81 111.351 17.13 109.381 17.13ZM113.843 13.1C113.843 10.67 115.513 9.07 117.773 9.07C120.023 9.07 121.353 10.5 121.533 12.1H120.323C120.163 11.2 119.393 10.18 117.873 10.18C116.283 10.18 115.063 11.27 115.063 13.1C115.063 14.93 116.283 16.02 117.873 16.02C119.393 16.02 120.163 15 120.323 14.1H121.533C121.353 15.7 120.023 17.13 117.773 17.13C115.513 17.13 113.843 15.53 113.843 13.1ZM125.542 10.31V17H124.342V10.31H121.892V9.2H127.992V10.31H125.542ZM40.04 25.91H41.86C42.58 25.91 43.15 25.46 43.15 24.61C43.15 23.76 42.58 23.31 41.86 23.31H40.04V25.91ZM40.04 27.02V30H38.84V22.2H41.95C43.34 22.2 44.37 23.14 44.37 24.61C44.37 26.09 43.34 27.02 41.95 27.02H40.04ZM46.7099 26.9V30H45.5099V22.2H48.8499C50.1699 22.2 51.1999 23.11 51.1999 24.55C51.1999 25.74 50.4999 26.56 49.5199 26.82L51.4599 30H50.0399L48.1799 26.9H46.7099ZM46.7099 25.79H48.7499C49.3999 25.79 49.9799 25.37 49.9799 24.55C49.9799 23.73 49.3999 23.31 48.7499 23.31H46.7099V25.79ZM53.3147 26.1C53.3147 27.96 54.5047 29.02 56.1347 29.02C57.7647 29.02 58.9547 27.96 58.9547 26.1C58.9547 24.24 57.7647 23.18 56.1347 23.18C54.5047 23.18 53.3147 24.24 53.3147 26.1ZM60.1747 26.1C60.1747 28.59 58.4547 30.13 56.1347 30.13C53.8147 30.13 52.0947 28.59 52.0947 26.1C52.0947 23.61 53.8147 22.07 56.1347 22.07C58.4547 22.07 60.1747 23.61 60.1747 26.1ZM62.7548 26.56V30H61.5548V22.2H66.8748V23.31H62.7548V25.44H66.4748V26.56H62.7548ZM68.0978 22.2H73.6178V23.31H69.2978V25.44H73.2178V26.56H69.2978V28.89H73.8178V30H68.0978V22.2ZM77.7772 23.11C76.8272 23.11 76.3772 23.67 76.3772 24.24C76.3772 24.88 76.7972 25.31 78.0672 25.41C79.8772 25.56 80.8072 26.25 80.8072 27.72C80.8072 29.12 79.6272 30.13 77.8372 30.13C75.9372 30.13 74.7372 29.1 74.8672 27.08H76.0272C75.9572 28.36 76.5472 29.09 77.8672 29.09C78.9872 29.09 79.5772 28.51 79.5772 27.82C79.5772 27.06 79.1272 26.64 77.7072 26.52C76.1172 26.38 75.1472 25.77 75.1472 24.33C75.1472 23.11 76.1672 22.07 77.8072 22.07C79.7372 22.07 80.5672 23.32 80.4972 24.8H79.3372C79.3772 23.83 78.9372 23.11 77.7772 23.11ZM84.7108 23.11C83.7608 23.11 83.3108 23.67 83.3108 24.24C83.3108 24.88 83.7308 25.31 85.0008 25.41C86.8108 25.56 87.7408 26.25 87.7408 27.72C87.7408 29.12 86.5608 30.13 84.7708 30.13C82.8708 30.13 81.6708 29.1 81.8008 27.08H82.9608C82.8908 28.36 83.4808 29.09 84.8008 29.09C85.9208 29.09 86.5108 28.51 86.5108 27.82C86.5108 27.06 86.0608 26.64 84.6408 26.52C83.0508 26.38 82.0808 25.77 82.0808 24.33C82.0808 23.11 83.1008 22.07 84.7408 22.07C86.6708 22.07 87.5008 23.32 87.4308 24.8H86.2708C86.3108 23.83 85.8708 23.11 84.7108 23.11ZM90.3944 22.2V30H89.1944V22.2H90.3944ZM93.1096 26.1C93.1096 27.96 94.2996 29.02 95.9296 29.02C97.5596 29.02 98.7496 27.96 98.7496 26.1C98.7496 24.24 97.5596 23.18 95.9296 23.18C94.2996 23.18 93.1096 24.24 93.1096 26.1ZM99.9696 26.1C99.9696 28.59 98.2496 30.13 95.9296 30.13C93.6096 30.13 91.8896 28.59 91.8896 26.1C91.8896 23.61 93.6096 22.07 95.9296 22.07C98.2496 22.07 99.9696 23.61 99.9696 26.1ZM102.44 22.2L106.54 27.92L106.51 25.8V22.2H107.67V30H106.58L102.48 24.28L102.51 26.4V30H101.35V22.2H102.44ZM114.448 30L113.758 28.1H110.748L110.058 30H108.748L111.678 22.2H112.858L115.788 30H114.448ZM112.918 25.78L112.248 23.82L111.588 25.78L111.148 26.99H113.358L112.918 25.78ZM118.067 22.2V28.89H121.987V30H116.867V22.2H118.067ZM124.933 30V29.21C125.213 29.07 126.993 28.09 128.143 26.95C128.903 26.19 129.313 25.42 129.313 24.62C129.313 23.71 128.723 23.15 127.773 23.15C126.863 23.15 126.253 23.62 126.223 24.64H125.073C125.133 23.11 125.973 22.07 127.773 22.07C129.403 22.07 130.493 23.05 130.493 24.56C130.493 25.73 129.923 26.55 128.943 27.47C128.103 28.27 127.013 28.88 126.863 28.94L130.643 28.93V30H124.933ZM132.707 26.1C132.707 28.03 133.217 29.05 134.297 29.05C135.377 29.05 135.887 28.03 135.887 26.1C135.887 24.17 135.377 23.15 134.297 23.15C133.217 23.15 132.707 24.17 132.707 26.1ZM137.067 26.1C137.067 28.58 136.197 30.13 134.297 30.13C132.397 30.13 131.527 28.58 131.527 26.1C131.527 23.62 132.397 22.07 134.297 22.07C136.197 22.07 137.067 23.62 137.067 26.1ZM143.351 28.93V30H138.171V28.93H140.231V23.79C140.231 23.79 139.391 24.65 138.071 24.95V23.86C139.521 23.47 140.541 22.07 140.541 22.07H141.411V28.93H143.351ZM147.305 30.13C145.515 30.13 144.615 29.12 144.515 27.56H145.675C145.715 28.63 146.395 29.05 147.305 29.05C148.295 29.05 148.925 28.4 148.925 27.45C148.925 26.51 148.295 25.83 147.355 25.83C146.585 25.83 146.095 26.15 145.755 26.67L144.715 26.29L144.935 22.2H149.735L149.805 23.27H146.035L145.915 25.44C146.275 25.06 146.835 24.78 147.595 24.78C149.115 24.78 150.105 26 150.105 27.46C150.105 28.94 149.105 30.13 147.305 30.13Z" fill="#18181B" fill-opacity="0.8"/>
</svg>
