<svg width="320" height="79" viewBox="0 0 320 79" fill="none" xmlns="http://www.w3.org/2000/svg">
<g clip-path="url(#clip0_572_28338)">
<path d="M319.9 37.2642L304.724 40.4194L306.038 37.0675C306.253 36.5155 306.357 35.9266 306.342 35.3348C306.328 34.743 306.196 34.1602 305.954 33.6202C305.712 33.0802 305.365 32.5938 304.933 32.1892C304.501 31.7846 303.993 31.4698 303.438 31.2632C271.675 19.3119 230.459 10.6859 186.51 6.80675C139.059 2.6161 93.9367 4.42376 59.4371 11.9181C42.7124 15.5434 29.4238 20.3031 19.912 26.0821C10.2117 31.9734 4.9567 38.6399 4.30408 45.8913C3.3981 55.8963 11.4429 66.4624 27.587 76.5315C27.6642 76.5811 27.7304 76.646 27.7814 76.7223C27.8324 76.7985 27.8673 76.8844 27.8837 76.9747C27.9 77.065 27.8977 77.1577 27.8767 77.2471C27.8558 77.3365 27.8167 77.4208 27.7618 77.4946V77.4946C27.6597 77.6274 27.5119 77.7176 27.3471 77.7479C27.1822 77.7781 27.0121 77.7462 26.8698 77.6583C10.2686 67.3017 2.01059 56.3008 2.96319 45.7631C3.73408 37.2372 10.4226 29.544 22.3697 23.1022C31.5947 18.128 43.9523 13.9021 59.1329 10.6071C93.7633 3.08985 139.011 1.27815 186.595 5.48122C230.729 9.37739 272.123 18.0498 304.024 30.0697C305.124 30.48 306.342 30.4412 307.415 29.9615C308.488 29.4818 309.33 28.5998 309.758 27.5063L310.879 24.6709L319.9 37.2642Z" fill="black"/>
</g>
<defs>
<clipPath id="clip0_572_28338">
<rect width="320" height="79" fill="white" transform="matrix(-1 0 0 1 320 0)"/>
</clipPath>
</defs>
</svg>
