<svg width="246" height="32" viewBox="0 0 246 32" fill="none" xmlns="http://www.w3.org/2000/svg">
<g clip-path="url(#clip0_1742_15188)">
<path d="M24.1716 23.1149L24.1571 23.069L33.3101 14.6897V10.6523H18.6257V14.6897H27.3967L27.4111 14.7284L18.3477 23.1149V27.1524H33.4575V23.1149H24.1716Z" fill="#18181B"/>
<path d="M42.4737 10.2676C40.7799 10.2676 39.3995 10.523 38.3324 11.034C37.3386 11.4792 36.5013 12.2128 35.9293 13.1397C35.3823 14.0726 35.0387 15.1107 34.9213 16.1858L39.3768 16.812C39.5381 15.8627 39.8605 15.1898 40.3439 14.7933C40.8936 14.3786 41.5709 14.1691 42.2586 14.201C43.1628 14.201 43.8188 14.4427 44.2266 14.9262C44.6303 15.4098 44.8358 16.0794 44.8358 16.9618V17.4018H40.5518C38.3711 17.4018 36.8046 17.8853 35.8521 18.8524C34.8995 19.8194 34.4241 21.0959 34.4258 22.6818C34.4258 24.3064 34.9012 25.5153 35.8521 26.3081C36.8029 27.1012 37.9989 27.4952 39.4398 27.4903C41.2271 27.4903 42.602 26.8755 43.5641 25.6458C44.1323 24.89 44.5381 24.025 44.7559 23.1049H44.918L45.5321 27.1421H49.5695V16.9183C49.5695 14.8054 49.0126 13.1687 47.8989 12.0083C46.7851 10.8478 44.9768 10.2676 42.4737 10.2676ZM43.8857 22.8704C43.245 23.4047 42.4062 23.6706 41.3618 23.6706C40.501 23.6706 39.9031 23.5199 39.5679 23.2185C39.4046 23.0759 39.2745 22.8991 39.1872 22.7006C39.0999 22.5022 39.0573 22.2869 39.0627 22.0702C39.053 21.8658 39.0853 21.6615 39.1572 21.4699C39.229 21.2783 39.3392 21.1034 39.4808 20.9557C39.634 20.812 39.8148 20.7009 40.0122 20.629C40.2096 20.5571 40.4194 20.5259 40.6292 20.5374H44.843V20.8154C44.8517 21.2084 44.7697 21.5981 44.6038 21.9544C44.4376 22.3107 44.192 22.6241 43.8857 22.8704Z" fill="#18181B"/>
<path d="M73.9808 10.6523H69.2109V27.1546H73.9808V10.6523Z" fill="#18181B"/>
<path d="M102.139 10.6523C100.792 10.6523 99.7299 11.1278 98.9531 12.0787C98.3954 12.7621 97.9715 13.7718 97.6814 15.1079H97.5412L96.9175 10.6523H92.8438V27.1524H97.6138V18.6908C97.6138 17.6238 97.8636 16.8059 98.3632 16.2369C98.8627 15.668 99.7847 15.3835 101.129 15.3835H102.94V10.6523H102.139Z" fill="#18181B"/>
<path d="M88.1168 11.1914C87.0032 10.529 85.5987 10.1986 83.903 10.2002C81.2342 10.2002 79.1453 10.9601 77.6368 12.48C76.1281 13.9998 75.3739 16.095 75.3739 18.7657C75.3354 20.3803 75.6879 21.9802 76.4013 23.4292C77.0544 24.7203 78.0714 25.7919 79.3267 26.5115C80.5902 27.2418 82.0931 27.6076 83.8353 27.6091C85.3424 27.6091 86.6011 27.377 87.6116 26.913C88.5617 26.4961 89.389 25.8426 90.0147 25.0151C90.6105 24.2027 91.0529 23.2884 91.3201 22.3171L87.2103 21.1663C87.0374 21.7979 86.7043 22.3742 86.2433 22.8393C85.779 23.3034 85.0014 23.5355 83.9102 23.5355C82.613 23.5355 81.6459 23.164 81.0091 22.421C80.5476 21.8843 80.2575 21.118 80.1292 20.1243H91.3831C91.4291 19.6602 91.4532 19.2709 91.4532 18.9566V17.9292C91.4803 16.5489 91.1952 15.1803 90.6191 13.9257C90.0799 12.7828 89.2076 11.8297 88.1168 11.1914ZM83.7653 14.1336C85.6994 14.1336 86.7961 15.0853 87.0555 16.9887H80.2138C80.3225 16.3536 80.5856 15.755 80.9803 15.2457C81.6072 14.5027 82.5356 14.132 83.7653 14.1336Z" fill="#18181B"/>
<path d="M71.6448 4.00155C71.286 3.98934 70.9283 4.0494 70.5932 4.17814C70.258 4.30689 69.9523 4.50169 69.6939 4.75098C69.4392 5.00266 69.2395 5.30455 69.1075 5.63749C68.9756 5.97042 68.9142 6.32713 68.9276 6.68501C68.9146 7.04521 68.9762 7.40418 69.1081 7.73954C69.2403 8.07493 69.44 8.37949 69.6949 8.63423C69.95 8.88896 70.2547 9.08842 70.5901 9.22017C70.9257 9.35191 71.2847 9.4131 71.6448 9.39992C72.0026 9.41345 72.3596 9.35228 72.6925 9.22033C73.0255 9.0884 73.3273 8.88855 73.5789 8.63355C73.8284 8.37591 74.0232 8.07048 74.1514 7.73561C74.2799 7.40074 74.3392 7.04339 74.3258 6.68501C74.3423 6.32876 74.2844 5.97297 74.1555 5.64038C74.0269 5.30779 73.8303 5.00571 73.5783 4.75341C73.3261 4.50112 73.0242 4.30416 72.6917 4.17512C72.3592 4.04607 72.0035 3.98779 71.6473 4.00397L71.6448 4.00155Z" fill="#18181B"/>
<path d="M61.7918 10.2002C60.1674 10.2002 58.8619 10.7103 57.8755 11.7305C57.1452 12.4864 56.6095 13.6146 56.2677 15.1151H56.1154L55.4918 10.6595H51.418V31.8955H56.1878V23.1487H56.362C56.5076 23.7319 56.7116 24.2989 56.9712 24.841C57.3748 25.724 58.0365 26.4641 58.8691 26.9636C59.7323 27.4347 60.7047 27.6692 61.6878 27.643C63.6849 27.643 65.2055 26.8654 66.2499 25.31C67.2942 23.7547 67.8165 21.5845 67.8165 18.7995C67.8165 16.1096 67.3113 14.0039 66.3006 12.4824C65.2901 10.9609 63.7872 10.2002 61.7918 10.2002ZM62.2754 22.1575C61.7193 22.9634 60.849 23.3663 59.6644 23.3663C59.176 23.3888 58.6891 23.2947 58.2444 23.0916C57.7995 22.8886 57.4096 22.5824 57.1067 22.1986C56.4893 21.4234 56.1815 20.3621 56.1831 19.0147V18.7004C56.1831 17.332 56.4909 16.2844 57.1067 15.5575C57.7223 14.8307 58.5749 14.4712 59.6644 14.4793C60.87 14.4793 61.7459 14.8621 62.2923 15.6276C62.8387 16.3932 63.1119 17.461 63.1119 18.8309C63.1152 20.2476 62.8378 21.3565 62.2801 22.1575H62.2754Z" fill="#18181B"/>
<path d="M16.5024 23.1147H0V27.157H16.5024V23.1147Z" fill="#FF4F00"/>
</g>
<path d="M175.422 16.4651V26.0673C175.422 26.3779 175.164 26.6367 174.855 26.6367H170.724C170.414 26.6367 170.156 26.3779 170.156 26.0673V10.9005C170.156 10.5899 170.414 10.3311 170.724 10.3311H174.855C175.164 10.3311 175.422 10.5899 175.422 10.9005V12.0911C176.455 10.797 177.927 9.96875 179.966 9.96875C181.876 9.96875 183.554 10.7452 184.561 12.2205C185.8 10.7452 187.555 9.96875 189.698 9.96875C193.338 9.96875 195.842 12.1169 195.842 16.2322V26.0673C195.842 26.3779 195.584 26.6367 195.274 26.6367H191.144C190.834 26.6367 190.576 26.3779 190.576 26.0673V17.3451C190.576 15.5592 189.569 14.6793 188.201 14.6793C187.065 14.6793 186.161 15.4039 185.619 16.4651V26.0673C185.619 26.3779 185.361 26.6367 185.051 26.6367H180.921C180.611 26.6367 180.353 26.3779 180.353 26.0673V17.3451C180.353 15.5592 179.346 14.6793 177.978 14.6793C176.816 14.6793 175.939 15.4039 175.422 16.4651Z" fill="#18181B"/>
<path d="M202.764 26.9736C199.718 26.9736 197.137 24.9549 197.137 21.8232C197.137 18.9503 199.021 17.6303 202.532 16.6985L207.024 15.5339C206.895 14.4468 206.043 13.9292 204.675 13.9292C203.461 13.9292 202.584 14.3951 202.196 15.3268C202.093 15.5856 201.809 15.7409 201.551 15.6633L197.989 14.8092C197.653 14.7315 197.472 14.3692 197.576 14.0586C198.608 11.2892 201.422 9.83984 204.855 9.83984C209.476 9.83984 212.135 12.0139 212.135 15.8703V26.0678C212.135 26.3784 211.877 26.6372 211.567 26.6372H207.669C207.359 26.6372 207.101 26.4042 207.101 26.0937L207.075 25.2396L207.05 25.2654C205.707 26.4042 204.417 26.9736 202.764 26.9736ZM204.081 22.8843C204.752 22.8843 205.294 22.6773 206.069 22.2373L206.972 21.6937L206.998 19.0538L204.649 19.7008C203.048 20.1667 202.351 20.5549 202.351 21.4608C202.351 22.4702 203.229 22.8843 204.081 22.8843Z" fill="#18181B"/>
<path d="M220.551 18.9503L218.951 20.4256V26.0937C218.951 26.4043 218.692 26.6631 218.383 26.6631H214.33C214.02 26.6631 213.762 26.4043 213.762 26.0937V5.5694C213.762 5.25882 214.02 5 214.33 5H218.383C218.692 5 218.951 5.25882 218.951 5.5694V14.8351L223.675 10.487C223.778 10.3834 223.907 10.3317 224.062 10.3317H229.044C229.56 10.3317 229.793 10.9787 229.431 11.3152L224.578 15.741L230.103 25.7832C230.309 26.1714 230.025 26.6114 229.612 26.6114H224.888C224.681 26.6114 224.475 26.482 224.397 26.3008L220.551 18.9503Z" fill="#18181B"/>
<path d="M237.687 27.0005C233.169 27.0005 229.039 24.1535 229.039 18.4336C229.039 13.0243 233.015 9.89258 237.351 9.89258C241.688 9.89258 245.148 13.0502 245.277 18.0454C245.302 18.563 245.302 18.9512 245.302 19.2101C245.302 19.5206 245.044 19.7795 244.735 19.7795H234.254C234.409 21.7465 235.983 22.9629 237.971 22.9629C239.391 22.9629 240.527 22.3676 241.353 21.3065C241.533 21.0736 241.869 21.0218 242.101 21.1771L244.735 22.937C244.993 23.1182 245.07 23.4806 244.889 23.7394C243.47 25.8099 241.146 27.0005 237.687 27.0005ZM234.357 16.5701H240.036C240.01 14.7066 238.642 13.9043 237.197 13.9043C235.88 13.9043 234.512 14.6807 234.357 16.5701Z" fill="#18181B"/>
<mask id="mask0_1742_15188" style="mask-type:luminance" maskUnits="userSpaceOnUse" x="157" y="10" width="6" height="17">
<path d="M157.779 10.3594H161.858C162.167 10.3594 162.426 10.6182 162.426 10.9288V26.0438C162.426 26.3544 162.167 26.6132 161.858 26.6132H157.779C157.469 26.6132 157.211 26.3544 157.211 26.0438V10.9288C157.211 10.6182 157.469 10.3594 157.779 10.3594Z" fill="white"/>
</mask>
<g mask="url(#mask0_1742_15188)">
<path d="M151.969 12.3007L161.804 8.65137L167.69 24.6464L157.855 28.2957L151.969 12.3007Z" fill="url(#paint0_linear_1742_15188)"/>
</g>
<mask id="mask1_1742_15188" style="mask-type:luminance" maskUnits="userSpaceOnUse" x="139" y="10" width="12" height="17">
<path d="M145.818 10.565L139.055 24.0494C138.926 24.3341 139.029 24.6706 139.313 24.8L142.953 26.6376C143.237 26.767 143.573 26.6635 143.702 26.3788L150.465 12.8685C150.594 12.5838 150.491 12.2473 150.207 12.1179L146.567 10.2803C146.49 10.2285 146.412 10.2285 146.309 10.2285C146.128 10.2544 145.922 10.3579 145.818 10.565Z" fill="white"/>
</mask>
<g mask="url(#mask1_1742_15188)">
<path d="M132.902 12.8411L148.778 5.98242L156.626 24.1774L140.75 31.062L132.902 12.8411Z" fill="url(#paint1_linear_1742_15188)"/>
</g>
<mask id="mask2_1742_15188" style="mask-type:luminance" maskUnits="userSpaceOnUse" x="148" y="10" width="9" height="17">
<path d="M151.525 10.6163L148.634 25.3172C148.582 25.6278 148.763 25.9125 149.073 25.9901L153.074 26.7925C153.384 26.8442 153.668 26.663 153.745 26.3525L156.636 11.6515C156.688 11.341 156.507 11.0563 156.198 10.9786L152.196 10.1763C152.17 10.1763 152.119 10.1763 152.093 10.1763C151.809 10.1504 151.577 10.3316 151.525 10.6163Z" fill="white"/>
</mask>
<g mask="url(#mask2_1742_15188)">
<path d="M143.16 12.1436L155.732 7.51074L162.082 24.8516L149.536 29.4845L143.16 12.1436Z" fill="url(#paint2_linear_1742_15188)"/>
</g>
<path d="M121.44 27.2H119.08L123.34 7.2H125.7L121.44 27.2Z" fill="#3F3F46"/>
<defs>
<linearGradient id="paint0_linear_1742_15188" x1="152.139" y1="21.3249" x2="163.162" y2="17.2712" gradientUnits="userSpaceOnUse">
<stop stop-color="#B02DE9"/>
<stop offset="0.02" stop-color="#B02DE9"/>
<stop offset="0.8" stop-color="#6D00CC"/>
<stop offset="1" stop-color="#6D00CC"/>
</linearGradient>
<linearGradient id="paint1_linear_1742_15188" x1="142.538" y1="19.4847" x2="154.389" y2="14.3744" gradientUnits="userSpaceOnUse">
<stop stop-color="#FF00FF"/>
<stop offset="0.17" stop-color="#E90CF9"/>
<stop offset="0.54" stop-color="#C023ED"/>
<stop offset="0.73" stop-color="#B02DE9"/>
<stop offset="1" stop-color="#B02DE9"/>
</linearGradient>
<linearGradient id="paint2_linear_1742_15188" x1="139.809" y1="23.2377" x2="164.098" y2="14.3194" gradientUnits="userSpaceOnUse">
<stop stop-color="#FF00FF"/>
<stop offset="0.02" stop-color="#FF00FF"/>
<stop offset="0.09" stop-color="#E90CF9"/>
<stop offset="0.23" stop-color="#C023ED"/>
<stop offset="0.3" stop-color="#B02DE9"/>
<stop offset="0.42" stop-color="#A42BE3"/>
<stop offset="0.63" stop-color="#8626D5"/>
<stop offset="0.85" stop-color="#6021C3"/>
<stop offset="1" stop-color="#6021C3"/>
</linearGradient>
<clipPath id="clip0_1742_15188">
<rect width="102.941" height="28" fill="white" transform="translate(0 4)"/>
</clipPath>
</defs>
</svg>
