<svg width="16" height="18" viewBox="0 0 16 18" fill="none" xmlns="http://www.w3.org/2000/svg">
<path d="M12.2789 8.50238C12.4147 8.85558 12.4996 9.22575 12.5319 9.60272V9.61122C12.5361 9.66132 12.5404 9.71225 12.5429 9.76319C12.5497 9.86593 12.554 9.96781 12.554 10.0722C12.554 12.6024 10.4976 14.5823 7.9607 14.5823C5.42379 14.5823 3.36744 12.6024 3.36744 10.0722C3.36744 9.47452 3.48375 8.8836 3.71129 8.33088L0.83562 7.38335C0.52827 8.26889 0.375444 9.20029 0.383085 10.1376L0.383085 10.1529C0.383085 12.1889 1.14212 14.0644 2.50991 15.4322C3.90402 16.8254 5.84576 17.5913 7.97599 17.5879C10.1071 17.5845 12.0539 16.8119 13.4497 15.4118C14.82 14.0372 15.5748 12.1558 15.5748 10.1138V10.1003C15.5833 9.17141 15.433 8.24852 15.1299 7.37062L12.2093 8.33257C12.2339 8.38861 12.256 8.44465 12.278 8.50153L12.2789 8.50238Z" fill="#040308"/>
<path d="M4.34096 0.683446C4.32143 0.685993 4.30275 0.695338 4.29001 0.709771C4.27728 0.724205 4.26964 0.743733 4.26964 0.763261V2.22189L3.23467 1.19033C3.22023 1.17589 3.20155 1.16825 3.18203 1.16655C3.1625 1.1657 3.14297 1.17164 3.12684 1.18438C3.06061 1.23702 2.99694 1.2939 2.9375 1.35333C2.87807 1.41277 2.82119 1.4756 2.7677 1.54183C2.75496 1.55711 2.74902 1.57748 2.74987 1.59701C2.75072 1.61653 2.75921 1.63606 2.77364 1.64965L3.80776 2.68122H2.34488C2.32535 2.68122 2.30582 2.68801 2.29054 2.7016C2.27526 2.71433 2.26592 2.73301 2.26337 2.75254C2.24554 2.92065 2.24554 3.08961 2.26337 3.25772C2.26592 3.27725 2.27526 3.29592 2.29054 3.30866C2.30582 3.32139 2.3245 3.32903 2.34488 3.32903H3.80776L2.77364 4.36061C2.75921 4.37505 2.75072 4.39372 2.74987 4.41325C2.74902 4.43278 2.75496 4.45316 2.7677 4.46844C2.82119 4.53382 2.87722 4.59664 2.9375 4.65692C2.99779 4.71636 3.06061 4.77324 3.12684 4.82588C3.14212 4.83862 3.16165 4.84456 3.18203 4.84371C3.20155 4.84286 3.22108 4.83437 3.23467 4.81994L4.26964 3.78836V5.247C4.26964 5.26652 4.27643 5.28605 4.29001 5.30049C4.3036 5.31492 4.32143 5.32511 4.34096 5.32681C4.50991 5.34549 4.67972 5.34549 4.84783 5.32681C4.86736 5.32426 4.88603 5.31492 4.89877 5.30049C4.91151 5.28605 4.91915 5.26652 4.91915 5.247V3.78836L5.95327 4.81994C5.9677 4.83353 5.98638 4.84201 6.00676 4.84286C6.02629 4.84371 6.04666 4.83777 6.06194 4.82503C6.12817 4.77239 6.19185 4.71551 6.25128 4.65607C6.31156 4.59579 6.3676 4.53297 6.42109 4.46674C6.43382 4.45146 6.43976 4.43193 6.43892 4.41155C6.43807 4.39202 6.42958 4.37335 6.41514 4.35891L5.38102 3.32734H6.8439C6.86343 3.32734 6.88296 3.31969 6.89739 3.30696C6.91183 3.29422 6.92202 3.27555 6.92456 3.25602C6.9339 3.17197 6.93815 3.08791 6.93815 3.00386C6.93815 2.91896 6.9339 2.83405 6.92456 2.75C6.92202 2.73047 6.91268 2.71263 6.89739 2.69905C6.88211 2.68546 6.86343 2.67867 6.8439 2.67867H5.38272L6.41684 1.64711C6.43127 1.63267 6.43976 1.61399 6.44061 1.59447C6.44146 1.57409 6.43552 1.55456 6.42278 1.53928C6.3175 1.40853 6.19779 1.28881 6.06619 1.18438C6.05091 1.17164 6.03053 1.1657 6.011 1.16655C5.99148 1.1674 5.97195 1.17589 5.95751 1.18948L4.92339 2.22105V0.762411C4.92339 0.742883 4.9166 0.723355 4.90302 0.708922C4.89028 0.694488 4.8716 0.684295 4.85207 0.682597C4.68227 0.663918 4.51161 0.663077 4.3418 0.680907L4.34096 0.683446Z" fill="#040308"/>
<path d="M14.0162 3.09257C14.0162 1.87251 13.0245 0.883389 11.8011 0.883389C10.5776 0.883389 9.58594 1.87251 9.58594 3.09257C9.58594 4.31263 10.5776 5.30176 11.8011 5.30176C13.0245 5.30176 14.0162 4.31263 14.0162 3.09257Z" fill="#040308"/>
</svg>
