<svg width="209" height="32" viewBox="0 0 209 32" fill="none" xmlns="http://www.w3.org/2000/svg">
<g clip-path="url(#clip0_1054_38187)">
<path fill-rule="evenodd" clip-rule="evenodd" d="M178.103 0H172.805V5.29796H178.103V0ZM76.482 24.1221C75.7729 26.9422 72.7571 27.5535 70.2861 27.5535C67.6235 27.5535 65.8535 26.9001 64.8767 25.5552C64.0277 24.387 63.8701 22.8003 63.847 21.4962H81.5585C81.5585 16.8136 80.4202 12.8157 78.5142 10.5987C76.6409 8.42107 73.8738 7.31665 70.2875 7.31665C62.8717 7.31665 58.9512 11.8376 58.9512 20.3918C58.9512 22.4172 59.2826 25.3297 60.8652 27.6989C62.748 30.5204 65.9187 31.9508 70.2875 31.9508C73.147 31.9508 75.6669 31.2336 77.5769 29.8778C79.5222 28.4976 80.7299 26.5116 81.0872 24.1221H76.4834H76.482ZM70.2861 11.646C74.1645 11.646 75.9481 13.3957 76.3991 17.6708H63.9476C64.4162 13.4501 66.3221 11.646 70.2861 11.646ZM109.398 10.5596C111.399 8.43359 114.293 7.35498 117.996 7.35498C121.699 7.35498 124.593 8.43223 126.594 10.5596C128.592 12.6828 129.605 15.7502 129.605 19.6775C129.605 23.6048 128.592 26.6722 126.594 28.7954C124.593 30.9214 121.699 32 117.996 32C114.293 32 111.399 30.9228 109.398 28.7954C107.4 26.6722 106.387 23.6048 106.387 19.6775C106.387 15.7502 107.4 12.6828 109.398 10.5596ZM123.115 25.7566C124.542 24.159 124.841 21.5685 124.841 19.6761C124.841 17.7838 124.541 15.1919 123.115 13.5957C122.031 12.3826 120.308 11.6287 117.996 11.6287C115.684 11.6287 113.961 12.3826 112.877 13.5957C111.45 15.1933 111.151 17.7838 111.151 19.6761C111.151 21.5685 111.451 24.1604 112.877 25.7566C113.961 26.971 115.684 27.8622 117.996 27.8622C120.308 27.8622 122.031 26.9697 123.115 25.7566ZM17.4887 31.6006V25.7263C15.7263 28.8771 12.1707 31.9999 8.2526 31.9999C5.56286 31.9999 3.46677 31.261 2.02545 29.802C0.699603 28.4612 0 26.5403 0 24.2473C0 22.3957 0.725414 20.9435 2.13549 19.619C5.69599 16.2677 12.3021 16.3954 17.4792 16.6861V16.6834C17.4575 15.3263 17.3732 11.3066 11.6134 11.3066L11.5405 11.3066C10.3406 11.3046 6.15534 11.2978 5.14853 15.0764H0.968576C1.90998 10.459 5.81689 7.39974 11.8267 7.39974C18.4586 7.39974 22.121 9.74578 22.121 20.5822V31.6006H17.4887ZM17.2075 20.2833C14.1632 26.0581 11.089 28.1664 8.37078 28.1759C5.71773 28.1854 4.01966 27.0212 4.01966 24.5516C4.01966 21.6974 6.54231 20.8321 8.63432 20.4463C11.0863 19.9939 15.4483 19.941 17.2075 20.2819V20.2833ZM48.7219 27.4938L44.8856 11.3418C44.5636 9.72795 42.5477 8.72949 40.8659 8.72949H40.4095C38.8337 8.72949 36.9346 9.52011 36.4904 11.2562L32.5549 27.5101L28.0055 7.94702H23.4805L28.5271 29.2054C28.8912 30.6957 30.2741 31.7349 31.892 31.7349H33.3292C34.9472 31.7349 36.3314 30.6943 36.6955 29.2054L40.6377 13.3346L44.5813 29.2054C44.944 30.6957 46.3269 31.7349 47.9462 31.7349H49.4785C51.0964 31.7349 52.4793 30.6943 52.8434 29.2041L57.8887 7.94702H53.2659L48.7219 27.4938ZM150.995 12.4924C152.196 9.60701 155.823 7.67529 159.02 7.67529V7.67665C164.916 7.67665 168.573 11.4803 168.573 17.8501V31.6004H163.125V18.437C163.125 14.5722 162.094 12.5345 158.737 12.5345C156.912 12.5345 153.111 13.6104 153.111 18.1028V31.6004H147.663V18.437C147.663 14.1116 146.757 12.2628 143.054 12.2628C141.171 12.2628 137.808 13.6104 137.808 18.1028V31.6004H132.496V7.94698H137.264V10.888C138.558 8.80824 140.874 7.67529 143.623 7.67529C148.717 7.67529 150.065 10.0363 150.995 12.4924ZM172.805 31.6005H178.103V7.94712H172.805V31.6005ZM89.3301 14.1147C89.3301 15.2612 89.7553 16.6727 94.1363 17.4307V17.4321C101.111 18.4862 104.087 20.763 104.087 25.0407C104.087 28.229 101.581 31.9512 94.5153 31.9512C91.5023 31.9512 88.9117 31.0505 87.0261 29.347C85.3471 27.8297 84.3296 25.7322 84.1367 23.4092H88.9687C89.3016 26.2647 91.3026 27.7753 94.5167 27.7753C97.3178 27.7753 99.1368 26.7714 99.1368 25.1386C99.1368 23.0302 98.1845 22.2858 93.9801 21.5196C86.7028 20.1014 84.6298 17.7363 84.6298 13.9829C84.6298 12.1164 85.2941 10.5257 86.8251 9.38051C88.4743 8.14703 90.9412 7.35913 93.957 7.35913C97.4373 7.35913 100.051 8.42823 101.725 10.2689C102.794 11.4454 103.451 12.9519 103.678 14.7518H98.8556C98.573 11.9208 96.807 11.3679 93.957 11.3679C91.1069 11.3679 89.3301 12.471 89.3301 14.1147ZM194.569 26.7518C195.172 26.7001 195.765 26.5643 196.33 26.3469L196.331 26.3456C196.422 26.3103 196.512 26.2749 196.601 26.2356L198.141 30.9086C196.736 31.3936 195.259 31.634 193.773 31.6205H193.751C190.484 31.6205 187.474 30.4128 185.275 28.2203C183.035 25.987 181.798 22.872 181.793 19.4623C181.788 16.054 183.013 12.9472 185.242 10.7166C187.431 8.52813 190.431 7.31367 193.689 7.31367H193.713C195.213 7.30144 196.703 7.54596 198.12 8.03772L196.604 12.6388C195.72 12.2747 194.774 12.0886 193.818 12.0886C189.77 12.0886 186.602 15.3788 186.602 19.4379C186.602 23.4969 189.77 26.7871 193.818 26.7871C193.985 26.7871 194.148 26.7803 194.312 26.7694C194.394 26.7653 194.475 26.7586 194.556 26.7518H194.569ZM208.733 13.3222C208.729 13.2909 208.714 13.261 208.691 13.2407C208.668 13.2203 208.636 13.2081 208.605 13.2081H206.271L207.922 11.5521C207.945 11.529 207.957 11.4991 207.96 11.4679C207.961 11.4366 207.952 11.4054 207.931 11.3796C207.847 11.2736 207.756 11.1717 207.661 11.0767C207.566 10.9816 207.465 10.8905 207.36 10.805C207.335 10.7846 207.302 10.7751 207.271 10.7764C207.24 10.7778 207.209 10.7914 207.187 10.8145L205.536 12.4691V10.1285C205.536 10.0972 205.526 10.066 205.504 10.0415C205.484 10.0171 205.454 10.0021 205.422 9.99804C205.153 9.96952 204.883 9.96952 204.614 9.99804C204.583 10.0021 204.553 10.0171 204.533 10.0415C204.512 10.066 204.5 10.0959 204.5 10.1285V12.4691L202.849 10.8145C202.826 10.7914 202.796 10.7778 202.765 10.7764C202.734 10.7751 202.701 10.7846 202.677 10.805C202.572 10.8905 202.472 10.9802 202.375 11.0767C202.28 11.1731 202.189 11.2736 202.105 11.3796C202.085 11.404 202.075 11.4353 202.077 11.4679C202.078 11.4991 202.091 11.5304 202.115 11.5521L203.765 13.2081H201.431C201.4 13.2081 201.369 13.2189 201.346 13.2407C201.323 13.2624 201.306 13.2909 201.304 13.3222C201.274 13.5925 201.274 13.8642 201.304 14.1332C201.308 14.1644 201.323 14.1943 201.346 14.2147C201.369 14.2351 201.4 14.2473 201.431 14.2473H203.765L202.115 15.9019C202.093 15.925 202.079 15.9549 202.078 15.9875C202.077 16.0187 202.086 16.0513 202.106 16.0758C202.191 16.1817 202.282 16.2836 202.377 16.3787C202.473 16.4751 202.574 16.5648 202.68 16.6504C202.704 16.6708 202.735 16.6803 202.768 16.6789C202.799 16.6776 202.829 16.664 202.852 16.6409L204.503 14.9863V17.3269C204.503 17.3581 204.515 17.3894 204.535 17.4125C204.556 17.4356 204.586 17.4519 204.617 17.4559C204.751 17.4709 204.886 17.4777 205.02 17.4777C205.156 17.4777 205.292 17.4709 205.426 17.4559C205.458 17.4519 205.486 17.4369 205.508 17.4125C205.53 17.388 205.541 17.3581 205.541 17.3269V14.989L207.191 16.6436C207.214 16.6667 207.244 16.6803 207.275 16.6816C207.308 16.683 207.339 16.6735 207.364 16.6531C207.573 16.4847 207.764 16.2931 207.931 16.0826C207.952 16.0581 207.961 16.0255 207.96 15.9943C207.959 15.963 207.945 15.9318 207.923 15.9087L206.273 14.2541H208.607C208.638 14.2541 208.669 14.2432 208.692 14.2215C208.715 14.2011 208.732 14.1712 208.734 14.14C208.764 13.8683 208.766 13.5952 208.737 13.3235L208.733 13.3222ZM208.659 25.2669C208.659 27.2244 207.077 28.8111 205.125 28.8111C203.172 28.8111 201.59 27.2244 201.59 25.2669C201.59 23.3093 203.172 21.7227 205.125 21.7227C207.077 21.7227 208.659 23.3093 208.659 25.2669Z" fill="url(#paint0_linear_1054_38187)"/>
</g>
<defs>
<linearGradient id="paint0_linear_1054_38187" x1="0" y1="0" x2="131.045" y2="-71.9485" gradientUnits="userSpaceOnUse">
<stop offset="0.46875" stop-color="white"/>
<stop offset="1" stop-color="#A8A3AF"/>
</linearGradient>
<clipPath id="clip0_1054_38187">
<rect width="208.758" height="32" fill="white"/>
</clipPath>
</defs>
</svg>
