<svg width="131" height="20" viewBox="0 0 131 20" fill="none" xmlns="http://www.w3.org/2000/svg">
<g clip-path="url(#clip0_2673_10660)">
<path d="M7.3916 4.625C11.5366 4.625 13.8252 6.09152 13.8252 12.8643V19.75H10.9307V16.0781C9.82936 18.0475 7.6072 19.9998 5.1582 20C3.47712 20 2.16645 19.5378 1.26562 18.626C0.437143 17.788 0 16.5873 0 15.1543C6.32167e-05 13.9972 0.453727 13.0895 1.33496 12.2617C3.56033 10.1674 7.68925 10.247 10.9248 10.4287V10.4268C10.9112 9.57825 10.8578 7.0666 7.25879 7.06641C6.57617 7.06641 3.86049 7.01075 3.21777 9.42285H0.605469C1.19384 6.53701 3.63552 4.62503 7.3916 4.625ZM73.748 4.59668C76.0624 4.59669 77.8705 5.27016 79.1211 6.59961C80.3699 7.92657 81.0038 9.84349 81.0039 12.2979C81.0039 14.7524 80.37 16.67 79.1211 17.9971C77.8705 19.3256 76.0623 20 73.748 20C71.4336 20 69.6246 19.3267 68.374 17.9971C67.1252 16.67 66.4922 14.7523 66.4922 12.2979C66.4923 9.84366 67.1253 7.92656 68.374 6.59961C69.6246 5.27087 71.4336 4.59668 73.748 4.59668ZM43.9287 4.57324C46.1699 4.57324 47.8995 5.26332 49.0703 6.62402C50.2615 8.00964 50.9736 10.5089 50.9736 13.4355H39.9033C39.9178 14.2506 40.0163 15.2425 40.5469 15.9727C41.1573 16.8131 42.2638 17.2216 43.9277 17.2217C45.4721 17.2217 47.3576 16.8388 47.8008 15.0762H50.6787C50.4554 16.5696 49.7002 17.8112 48.4844 18.6738C47.2907 19.5211 45.7158 19.9697 43.9287 19.9697C41.1985 19.9697 39.2168 19.0757 38.04 17.3125C37.0509 15.8318 36.8438 14.011 36.8438 12.7451C36.8438 7.39888 39.294 4.57333 43.9287 4.57324ZM58.7236 4.59961C60.8988 4.59962 62.5321 5.26754 63.5781 6.41797C64.2463 7.15323 64.657 8.09476 64.7988 9.21973H61.7852C61.6086 7.45035 60.5049 7.1045 58.7236 7.10449C56.9424 7.10449 55.8321 7.794 55.832 8.82129C55.832 9.53787 56.0978 10.4198 58.8359 10.8936V10.8945C63.1947 11.5534 65.0547 12.9768 65.0547 15.6504C65.0546 17.643 63.4879 19.9688 59.0723 19.9688C57.1892 19.9687 55.57 19.4064 54.3916 18.3418C53.3423 17.3935 52.7066 16.0825 52.5859 14.6309H55.6055C55.8136 16.4153 57.0647 17.3593 59.0732 17.3594C60.8239 17.3594 61.9609 16.7315 61.9609 15.7109C61.9608 14.3935 61.3656 13.928 58.7383 13.4492C54.1902 12.5629 52.8946 11.085 52.8945 8.73926C52.8945 7.57269 53.3097 6.57804 54.2666 5.8623C55.2973 5.09154 56.839 4.59961 58.7236 4.59961ZM20.3438 17.1943L22.8027 7.03516C23.0805 5.95028 24.2681 5.45605 25.2529 5.45605H25.5381C26.5891 5.45617 27.8485 6.08043 28.0498 7.08887L30.4473 17.1836L33.2881 4.96777H36.1768L33.0234 18.2529C32.7959 19.1842 31.932 19.8349 30.9209 19.835H29.9629C28.9509 19.8349 28.0871 19.1852 27.8604 18.2539L25.3955 8.33496L22.9316 18.2539C22.7041 19.1844 21.8383 19.835 20.8271 19.835H19.9287C18.9177 19.8348 18.0537 19.1851 17.8262 18.2539L14.6719 4.96777H17.5L20.3438 17.1943ZM121.075 4.57129C122.012 4.56365 122.944 4.71713 123.829 5.02441L122.882 7.89941C122.329 7.67195 121.738 7.55566 121.141 7.55566C118.611 7.55568 116.631 9.61251 116.631 12.1494C116.631 14.6862 118.611 16.7422 121.141 16.7422C121.245 16.7422 121.347 16.7382 121.449 16.7314C121.5 16.7289 121.552 16.7249 121.602 16.7207H121.61C121.987 16.6884 122.358 16.6036 122.711 16.4678V16.4668C122.768 16.4448 122.824 16.422 122.88 16.3975L123.842 19.3184C122.964 19.6214 122.041 19.7722 121.112 19.7637H121.099C119.057 19.7636 117.175 19.0079 115.801 17.6377C114.401 16.2419 113.628 14.2949 113.625 12.1641C113.622 10.0341 114.387 8.09226 115.78 6.69824C117.148 5.33055 119.024 4.57139 121.06 4.57129H121.075ZM99.3896 4.79785C103.074 4.79785 105.36 7.17514 105.36 11.1562V19.75H101.956V11.5225C101.956 9.10725 101.311 7.83398 99.2129 7.83398C98.0716 7.83413 95.6963 8.50701 95.6963 11.3145V19.75H92.292V11.5225C92.2919 8.81946 91.7255 7.66406 89.4111 7.66406C88.2344 7.66408 86.1318 8.50674 86.1318 11.3145V19.75H82.8125V4.9668H85.793V6.80469C86.6012 5.50507 88.0484 4.79697 89.7666 4.79688C92.9505 4.79688 93.7934 6.27257 94.375 7.80762C95.1255 6.00437 97.392 4.79696 99.3896 4.79688V4.79785ZM111.312 19.75H108V4.9668H111.312V19.75ZM128.201 13.5771C129.421 13.5771 130.41 14.5685 130.41 15.792C130.41 17.0154 129.421 18.0068 128.201 18.0068C126.981 18.0067 125.992 17.0153 125.992 15.792C125.992 14.5686 126.981 13.5773 128.201 13.5771ZM10.7549 12.6758C9.65539 12.4627 6.92899 12.4966 5.39648 12.7793C4.08898 13.0204 2.5127 13.5609 2.5127 15.3447C2.5127 16.8882 3.57346 17.6162 5.23145 17.6104C6.93036 17.6044 8.8522 16.286 10.7549 12.6768V12.6758ZM73.748 7.26758C72.303 7.26758 71.2264 7.7389 70.5488 8.49707C69.6565 9.49553 69.4697 11.1151 69.4697 12.2979C69.4698 13.4805 69.6575 15.1002 70.5488 16.0977C71.2264 16.8567 72.303 17.4141 73.748 17.4141C75.1931 17.4141 76.2697 16.8558 76.9473 16.0977C77.8394 15.0993 78.0263 13.4805 78.0264 12.2979C78.0264 11.1152 77.8387 9.49468 76.9473 8.49707C76.2697 7.73889 75.1931 7.26758 73.748 7.26758ZM43.9277 7.2793C41.4505 7.2794 40.2597 8.4071 39.9668 11.0449H47.749C47.4671 8.37302 46.3517 7.2793 43.9277 7.2793ZM128.385 6.24902C128.404 6.25157 128.424 6.26108 128.437 6.27637C128.45 6.29154 128.456 6.3108 128.456 6.33008V7.79297L129.488 6.75879C129.502 6.74449 129.522 6.7362 129.541 6.73535C129.56 6.73458 129.581 6.74035 129.596 6.75293C129.662 6.80639 129.725 6.86345 129.784 6.92285C129.844 6.98228 129.9 7.04609 129.953 7.1123C129.966 7.12833 129.971 7.14759 129.971 7.16699C129.969 7.18648 129.962 7.20531 129.947 7.21973L128.916 8.25488H130.374C130.394 8.25488 130.413 8.2627 130.428 8.27539C130.442 8.28809 130.452 8.3067 130.454 8.32617L130.457 8.32715C130.475 8.49695 130.474 8.66809 130.455 8.83789C130.453 8.85725 130.443 8.87604 130.429 8.88867C130.414 8.90214 130.394 8.90918 130.375 8.90918H128.917L129.948 9.94238C129.962 9.95675 129.97 9.97666 129.971 9.99609C129.972 10.0156 129.966 10.0365 129.953 10.0518C129.849 10.1832 129.729 10.303 129.599 10.4082C129.583 10.4209 129.563 10.4266 129.543 10.4258C129.524 10.4249 129.505 10.4167 129.49 10.4023L128.459 9.36816V10.8291C128.459 10.8486 128.452 10.8675 128.438 10.8828C128.425 10.898 128.407 10.9076 128.388 10.9102C128.304 10.9195 128.219 10.9238 128.134 10.9238C128.05 10.9238 127.966 10.9195 127.882 10.9102C127.862 10.9076 127.844 10.8971 127.831 10.8828C127.818 10.8684 127.811 10.8486 127.811 10.8291V9.36621L126.778 10.4004C126.764 10.4146 126.746 10.4229 126.727 10.4238C126.706 10.4247 126.686 10.419 126.671 10.4062C126.605 10.3528 126.542 10.2966 126.481 10.2363C126.422 10.177 126.365 10.113 126.312 10.0469C126.3 10.0316 126.294 10.0116 126.295 9.99219C126.296 9.97186 126.304 9.9529 126.317 9.93848L127.35 8.9043H125.891C125.871 8.90428 125.851 8.89651 125.837 8.88379C125.823 8.87106 125.813 8.85239 125.811 8.83301C125.792 8.66497 125.792 8.49506 125.811 8.32617C125.812 8.30676 125.823 8.28893 125.837 8.27539C125.851 8.26182 125.871 8.2549 125.891 8.25488H127.35L126.317 7.21973C126.303 7.20616 126.295 7.18637 126.294 7.16699C126.293 7.14685 126.299 7.12746 126.312 7.1123C126.364 7.04613 126.421 6.98309 126.48 6.92285C126.541 6.86261 126.604 6.80639 126.669 6.75293C126.684 6.74019 126.705 6.7345 126.725 6.73535C126.744 6.73624 126.763 6.7444 126.777 6.75879L127.809 7.79297V6.33008C127.809 6.30987 127.817 6.29157 127.829 6.27637C127.842 6.26112 127.86 6.2516 127.88 6.24902C128.048 6.23121 128.217 6.23123 128.385 6.24902ZM111.312 3.31152H108V0H111.312V3.31152Z" fill="#18181B"/>
</g>
<defs>
<clipPath id="clip0_2673_10660">
<rect width="130.474" height="20" fill="white"/>
</clipPath>
</defs>
</svg>
