<svg width="332" height="108" viewBox="0 0 332 108" fill="none" xmlns="http://www.w3.org/2000/svg">
<path d="M77.7019 49.7634C78.584 52.027 79.1373 54.4015 79.3457 56.8169V56.8716C79.3734 57.1903 79.4012 57.5182 79.4197 57.8461C79.466 58.5018 79.4938 59.1575 79.4938 59.8269C79.4938 76.0424 66.1311 88.7335 49.643 88.7335C33.155 88.7335 19.7876 76.0424 19.7876 59.8269C19.7835 55.9985 20.5433 52.2066 22.024 48.666L3.33658 42.5914C1.33956 48.2681 0.345152 54.2392 0.396417 60.2459L0.396417 60.346C0.396417 73.3968 5.32756 85.4139 14.2221 94.1842C23.2834 103.114 35.9007 108.023 49.7495 108C63.5984 107.977 76.2527 103.027 85.3232 94.0521C94.2317 85.2408 99.1351 73.1828 99.1351 60.0956V60.0091C99.1917 54.0577 98.213 48.1408 96.2412 42.514L77.2574 48.6796C77.4195 49.0393 77.563 49.3991 77.7019 49.7634Z" fill="url(#paint0_linear_358_2480)"/>
<path d="M24.8019 0.0835712C24.6739 0.0981601 24.5558 0.158754 24.4703 0.253725C24.3848 0.348687 24.3381 0.471328 24.3389 0.598135V9.94683L17.6113 3.3349C17.5199 3.24495 17.3979 3.19143 17.2688 3.1847C17.1397 3.17797 17.0126 3.21853 16.9121 3.29849C16.4816 3.63717 16.0704 3.99893 15.6805 4.38221C15.2922 4.76541 14.9243 5.1682 14.5785 5.58893C14.4975 5.68908 14.4569 5.81511 14.4646 5.94286C14.4723 6.07061 14.5277 6.19107 14.6202 6.28111L21.3432 12.893L11.8328 12.893C11.7034 12.8921 11.578 12.9379 11.4807 13.0219C11.3834 13.1058 11.3209 13.222 11.305 13.3484C11.1892 14.4246 11.1892 15.5098 11.305 16.5861C11.3209 16.7124 11.3834 16.8286 11.4807 16.9126C11.578 16.9965 11.7034 17.0424 11.8328 17.0414L21.3386 17.0414L14.6155 23.6534C14.5231 23.7434 14.4677 23.8638 14.46 23.9916C14.4523 24.1193 14.4928 24.2454 14.5739 24.3455C14.9197 24.7662 15.2875 25.169 15.6759 25.5522C16.0658 25.9355 16.477 26.2973 16.9075 26.636C17.008 26.716 17.1351 26.7565 17.2642 26.7497C17.3933 26.743 17.5153 26.6895 17.6066 26.5996L24.3343 19.9876V29.3363C24.3334 29.4631 24.3802 29.5858 24.4657 29.6807C24.5511 29.7757 24.6692 29.8363 24.7973 29.8509C25.8929 29.9693 26.9984 29.9693 28.094 29.8509C28.2221 29.8363 28.3402 29.7757 28.4256 29.6807C28.5111 29.5858 28.5579 29.4631 28.557 29.3363V19.9876L35.28 26.5996C35.3727 26.6889 35.4953 26.742 35.6249 26.7487C35.7545 26.7554 35.8821 26.7153 35.9838 26.636C36.4143 26.2973 36.8255 25.9355 37.2155 25.5522C37.6049 25.1685 37.9728 24.7641 38.3174 24.341C38.3981 24.2415 38.4385 24.1162 38.4308 23.9893C38.4231 23.8623 38.3679 23.7426 38.2758 23.6533L31.5527 17.0414H41.0585C41.1872 17.0413 41.3113 16.9949 41.4077 16.9111C41.504 16.8272 41.5659 16.7116 41.5817 16.5861C41.641 16.0492 41.6704 15.5095 41.6697 14.9695C41.6704 14.4264 41.641 13.8838 41.5817 13.3438C41.5659 13.2183 41.504 13.1027 41.4077 13.0188C41.3113 12.935 41.1872 12.8886 41.0585 12.8885H31.562L38.285 6.27655C38.3778 6.18645 38.433 6.06554 38.4398 5.93753C38.4467 5.8095 38.4047 5.68356 38.3221 5.58438C37.6383 4.74366 36.8618 3.98005 36.007 3.30755C35.9053 3.22823 35.7777 3.18816 35.6481 3.19488C35.5185 3.20158 35.3958 3.25463 35.3032 3.34401L28.5802 9.95594V0.607257C28.581 0.480451 28.5342 0.3578 28.4488 0.262838C28.3633 0.167877 28.2452 0.107274 28.1171 0.0926847C27.0156 -0.0277632 25.9041 -0.0308308 24.8019 0.0835712Z" fill="url(#paint1_linear_358_2480)"/>
<path d="M73.309 0.364772C81.2593 0.364771 87.7042 6.70323 87.7042 14.5221C87.7042 22.341 81.2593 28.6795 73.309 28.6795C65.3587 28.6795 58.9138 22.341 58.9138 14.5221C58.9138 6.70323 65.3587 0.364772 73.309 0.364772Z" fill="url(#paint2_linear_358_2480)"/>
<path d="M168.237 72.5L161.109 62.5023L153.935 72.5H149.445L158.841 59.7714L150.047 47.9686H154.49L161.109 57.3646L167.682 47.9686H172.171L163.331 59.7714L172.773 72.5H168.237Z" fill="black"/>
<g clip-path="url(#clip0_358_2480)">
<path d="M277.062 24.1346L288.206 10.5131C288.206 10.5131 307.295 10.9181 326.316 19.7606C321.446 27.1249 311.78 30.7294 311.78 30.7294C311.129 24.2595 306.596 22.68 292.182 22.68L277.065 108.003L261.844 22.6631C247.534 22.6631 243.001 24.246 242.35 30.7125C242.35 30.7125 232.68 27.1451 227.814 19.7775C246.832 10.935 265.924 10.53 265.924 10.53L277.068 24.1346H277.051H277.062ZM277.062 6.59137C292.425 6.44963 310.022 8.964 328.038 16.8379C330.447 12.4774 331.062 10.5638 331.062 10.5638C311.375 2.75738 292.934 0.070875 277.062 0C261.189 0.070875 242.748 2.74388 223.062 10.5638C223.062 10.5638 223.939 12.9364 226.086 16.8581C244.105 8.94712 261.699 6.453 277.062 6.5745V6.59137Z" fill="url(#paint3_linear_358_2480)"/>
</g>
<defs>
<linearGradient id="paint0_linear_358_2480" x1="10.5" y1="54" x2="90" y2="39" gradientUnits="userSpaceOnUse">
<stop stop-color="#76777D"/>
<stop offset="1" stop-color="#414141"/>
</linearGradient>
<linearGradient id="paint1_linear_358_2480" x1="10.5" y1="54" x2="90" y2="39" gradientUnits="userSpaceOnUse">
<stop stop-color="#76777D"/>
<stop offset="1" stop-color="#414141"/>
</linearGradient>
<linearGradient id="paint2_linear_358_2480" x1="10.5" y1="54" x2="90" y2="39" gradientUnits="userSpaceOnUse">
<stop stop-color="#76777D"/>
<stop offset="1" stop-color="#414141"/>
</linearGradient>
<linearGradient id="paint3_linear_358_2480" x1="277.062" y1="0" x2="277.062" y2="108.003" gradientUnits="userSpaceOnUse">
<stop stop-color="#76777D"/>
<stop offset="1" stop-color="#333336"/>
</linearGradient>
<clipPath id="clip0_358_2480">
<rect width="108" height="108" fill="white" transform="translate(223.062)"/>
</clipPath>
</defs>
</svg>
