<svg width="76" height="110" viewBox="0 0 76 110" fill="none" xmlns="http://www.w3.org/2000/svg">
<path d="M37.8586 25.8025C48.9038 25.8025 57.8668 29.786 64.7474 37.7531C71.6281 45.5391 75.0684 55.5885 75.0684 67.9012C75.0684 80.214 71.6281 90.3539 64.7474 98.321C57.8668 106.107 48.9038 110 37.8586 110C31.5211 110 25.8174 108.642 20.7474 105.926C15.6775 103.21 11.6034 99.4074 8.52522 94.5185L7.4388 108.642H0.105469V0H8.79683V41.284C12.0561 36.3951 16.2207 32.5926 21.2907 29.8765C26.3606 27.1605 31.8832 25.8025 37.8586 25.8025ZM37.0437 102.395C45.7351 102.395 52.7063 99.2263 57.9573 92.8889C63.3894 86.5514 66.1055 78.2222 66.1055 67.9012C66.1055 57.5802 63.3894 49.251 57.9573 42.9136C52.7063 36.5761 45.7351 33.4074 37.0437 33.4074C28.1713 33.4074 21.1096 36.5761 15.8586 42.9136C10.6075 49.251 7.98201 57.5802 7.98201 67.9012C7.98201 78.2222 10.6075 86.5514 15.8586 92.8889C21.1096 99.2263 28.1713 102.395 37.0437 102.395Z" fill="#040308"/>
</svg>
