<svg width="780" height="223" viewBox="0 0 780 223" fill="none" xmlns="http://www.w3.org/2000/svg">
<path fill-rule="evenodd" clip-rule="evenodd" d="M165.294 167.25L187.647 223H220L128.235 0H91.7647L0 223H31.7647L54.1176 167.25H165.294ZM109.412 28.7553L154.118 140.255H64.7059L109.412 28.7553Z" fill="url(#paint0_linear)"/>
<path d="M313.668 43.7433C317.991 48.3296 323.698 50.6228 330.789 50.6228C335.804 50.6228 340.128 49.3681 343.759 46.8586C347.391 44.2625 349.942 40.6713 351.412 36.085L343.759 33.3591C341.857 40.1088 337.49 43.4837 330.659 43.4837C326.076 43.4837 322.444 41.8828 319.764 38.681C317.083 35.3927 315.743 30.9362 315.743 25.3114C315.743 19.7732 317.083 15.3599 319.764 12.0716C322.531 8.78327 326.163 7.13912 330.659 7.13912C337.49 7.13912 341.857 10.514 343.759 17.2637L351.412 14.5378C350.028 9.86496 347.521 6.27377 343.889 3.76426C340.257 1.25475 335.891 0 330.789 0C326.206 0 322.142 1.08168 318.596 3.24505C315.051 5.32189 312.284 8.30733 310.295 12.2014C308.307 16.0089 307.312 20.3789 307.312 25.3114C307.312 33.013 309.431 39.157 313.668 43.7433Z" fill="url(#paint1_linear)"/>
<path fill-rule="evenodd" clip-rule="evenodd" d="M227.987 49.9738L223.577 38.5512H199.971L195.561 49.9738H187L206.845 0.64901H216.832L236.677 49.9738H227.987ZM220.723 31.2823L211.774 8.17753L202.824 31.2823H220.723Z" fill="url(#paint2_linear)"/>
<path fill-rule="evenodd" clip-rule="evenodd" d="M284.576 24.7922C286.824 25.8306 288.554 27.3882 289.764 29.4651C291.061 31.4554 291.71 33.7918 291.71 36.4744C291.71 40.6281 290.283 43.9164 287.43 46.3393C284.663 48.7623 280.815 49.9738 275.886 49.9738H253.317V0.64901H275.497C280.166 0.64901 283.884 1.8605 286.651 4.28347C289.418 6.61991 290.802 9.77842 290.802 13.759C290.802 16.182 290.24 18.3454 289.116 20.2491C288.078 22.1529 286.565 23.6672 284.576 24.7922ZM261.229 7.65832V21.2875H274.2C279.907 21.2875 282.76 18.9944 282.76 14.408C282.76 9.90823 279.907 7.65832 274.2 7.65832H261.229ZM274.329 42.9645C280.469 42.9645 283.538 40.4983 283.538 35.5658C283.538 30.6333 280.469 28.1671 274.329 28.1671H261.229V42.9645H274.329Z" fill="url(#paint3_linear)"/>
<path fill-rule="evenodd" clip-rule="evenodd" d="M387.637 0.64901C395.333 0.64901 401.3 2.85565 405.537 7.26892C409.86 11.6822 412.022 17.6964 412.022 25.3114C412.022 32.6669 409.817 38.6378 405.407 43.2241C401.083 47.7239 395.16 49.9738 387.637 49.9738H369.608V0.64901H387.637ZM387.637 42.8347C392.653 42.8347 396.544 41.2771 399.311 38.1618C402.164 35.0466 403.591 30.7631 403.591 25.3114C403.591 19.8597 402.164 15.5763 399.311 12.461C396.544 9.34575 392.653 7.78813 387.637 7.78813H377.78V42.8347H387.637Z" fill="url(#paint4_linear)"/>
<path d="M466.017 42.7049H439.557V28.1671H459.532V21.1577H439.557V7.91793H465.368V0.64901H431.386V49.9738H466.017V42.7049Z" fill="url(#paint5_linear)"/>
<path d="M518.456 8.04773H492.515V21.4173H512.619V28.5565H492.515V49.9738H484.343V0.64901H518.456V8.04773Z" fill="url(#paint6_linear)"/>
<path d="M576.212 49.9738V24.922H555.848V31.2823H568.819C568.041 35.2629 566.268 38.2916 563.501 40.3685C560.734 42.4453 557.578 43.4837 554.032 43.4837C549.45 43.4837 545.775 41.8828 543.008 38.681C540.327 35.3927 538.987 30.9362 538.987 25.3114C538.987 19.7732 540.413 15.3599 543.267 12.0716C546.12 8.78327 549.925 7.13912 554.681 7.13912C557.967 7.13912 560.734 7.91793 562.982 9.47555C565.23 10.9466 566.917 13.1533 568.041 16.0955L575.564 13.2398C573.921 8.99961 571.283 5.75456 567.651 3.50466C564.02 1.16822 559.74 0 554.811 0C547.547 0 541.667 2.33644 537.171 7.00931C532.761 11.6822 530.556 17.8262 530.556 25.4412C530.556 33.0563 532.631 39.157 536.782 43.7433C541.019 48.3296 546.596 50.6228 553.514 50.6228C560.431 50.6228 565.749 47.9402 569.467 42.5751L570.116 49.9738H576.212Z" fill="url(#paint7_linear)"/>
<path d="M629.688 0.64901H637.86V49.9738H629.688V28.4267H605.044V49.9738H596.873V0.64901H605.044V20.8981H629.688V0.64901Z" fill="url(#paint8_linear)"/>
<path d="M669.156 0.64901H660.985V49.9738H669.156V0.64901Z" fill="url(#paint9_linear)"/>
<path d="M698.637 50.6228C695.265 50.6228 692.325 49.7142 689.817 47.897C687.396 46.0797 685.71 43.527 684.759 40.2386L691.633 37.5128C692.498 41.5799 694.876 43.6135 698.767 43.6135C700.929 43.6135 702.615 42.9212 703.825 41.5367C705.036 40.0656 705.641 38.032 705.641 35.436V0.64901H712.813V35.3062C712.813 39.979 712.429 43.7 709.662 46.4692C706.981 49.2383 703.306 50.6228 698.637 50.6228Z" fill="url(#paint10_linear)"/>
<path d="M744.461 33.6187L751.854 26.3498L768.975 49.9738H778.962L757.561 20.6385L777.795 0.64901H767.548L744.461 24.1432V0.64901H736.289V49.9738H744.461V33.6187Z" fill="url(#paint11_linear)"/>
<path fill-rule="evenodd" clip-rule="evenodd" d="M299.572 129.413V136.162C299.053 136.335 298.145 136.422 296.848 136.422C294.427 136.422 292.611 135.946 291.4 134.994C290.276 134.042 289.584 132.441 289.325 130.191C287.941 132.182 286.039 133.783 283.618 134.994C281.197 136.206 278.559 136.811 275.706 136.811C271.901 136.811 268.831 135.773 266.497 133.696C264.162 131.533 262.995 128.764 262.995 125.389C262.995 121.149 264.508 118.163 267.534 116.432C270.647 114.615 274.711 113.317 279.727 112.538C283.012 112.106 285.261 111.63 286.471 111.111C287.768 110.591 288.417 109.639 288.417 108.255C288.417 106.697 287.639 105.443 286.082 104.491C284.612 103.539 282.667 103.063 280.245 103.063C278.084 103.063 275.965 103.539 273.89 104.491C271.901 105.356 270.128 106.611 268.572 108.255L263.773 103.193C268.442 98.7794 274.063 96.5728 280.635 96.5728C285.304 96.5728 288.979 97.741 291.659 100.077C294.34 102.327 295.68 105.443 295.68 109.423V126.946C295.68 128.591 296.502 129.413 298.145 129.413H299.572ZM277.003 130.451C280.029 130.451 282.623 129.542 284.785 127.725C287.033 125.908 288.157 123.788 288.157 121.365V116.303C287.552 116.735 286.558 117.125 285.174 117.471C283.877 117.73 282.364 117.99 280.635 118.25C277.349 118.769 274.841 119.461 273.112 120.327C271.469 121.105 270.647 122.62 270.647 124.87C270.647 126.687 271.209 128.071 272.333 129.023C273.458 129.975 275.014 130.451 277.003 130.451Z" fill="url(#paint12_linear)"/>
<path fill-rule="evenodd" clip-rule="evenodd" d="M350.546 102.154C347.433 98.4333 343.325 96.5728 338.224 96.5728C332.949 96.5728 328.669 98.6063 325.383 102.673V84.2416H317.601V136.162H324.345L324.864 130.191C326.334 132.355 328.193 133.999 330.441 135.124C332.776 136.249 335.37 136.811 338.224 136.811C343.239 136.811 347.303 134.951 350.416 131.23C353.615 127.509 355.215 122.663 355.215 116.692C355.215 110.635 353.659 105.789 350.546 102.154ZM344.32 126.557C342.331 128.98 339.607 130.191 336.148 130.191C332.69 130.191 329.923 128.98 327.847 126.557C325.858 124.048 324.864 120.759 324.864 116.692C324.864 112.625 325.858 109.38 327.847 106.957C329.923 104.447 332.69 103.193 336.148 103.193C339.607 103.193 342.331 104.447 344.32 106.957C346.309 109.38 347.303 112.625 347.303 116.692C347.303 120.759 346.309 124.048 344.32 126.557Z" fill="url(#paint13_linear)"/>
<path d="M390.495 136.811C384.701 136.811 379.989 134.951 376.357 131.23C372.812 127.509 371.039 122.663 371.039 116.692C371.039 110.721 372.812 105.875 376.357 102.154C379.989 98.4333 384.701 96.5728 390.495 96.5728C394.732 96.5728 398.407 97.6112 401.52 99.688C404.633 101.765 406.751 104.62 407.875 108.255L400.482 110.591C399.618 108.255 398.32 106.438 396.591 105.14C394.862 103.842 392.83 103.193 390.495 103.193C386.95 103.193 384.139 104.447 382.064 106.957C379.989 109.38 378.951 112.625 378.951 116.692C378.951 120.759 379.989 124.048 382.064 126.557C384.139 128.98 386.95 130.191 390.495 130.191C392.83 130.191 394.862 129.542 396.591 128.244C398.32 126.946 399.618 125.129 400.482 122.793L407.875 125.129C406.751 128.764 404.633 131.619 401.52 133.696C398.407 135.773 394.732 136.811 390.495 136.811Z" fill="url(#paint14_linear)"/>
<path fill-rule="evenodd" clip-rule="evenodd" d="M459.628 136.162V84.2416H451.846V102.414C450.376 100.51 448.516 99.0823 446.268 98.1304C444.106 97.092 441.685 96.5728 439.005 96.5728C433.989 96.5728 429.882 98.4333 426.683 102.154C423.57 105.875 422.013 110.721 422.013 116.692C422.013 122.75 423.57 127.639 426.683 131.36C429.796 134.994 433.903 136.811 439.005 136.811C441.772 136.811 444.279 136.249 446.528 135.124C448.862 133.912 450.808 132.225 452.364 130.062L452.883 136.162H459.628ZM449.251 126.557C447.263 128.98 444.539 130.191 441.08 130.191C437.621 130.191 434.897 128.98 432.909 126.557C430.92 124.048 429.925 120.759 429.925 116.692C429.925 112.625 430.92 109.38 432.909 106.957C434.897 104.447 437.621 103.193 441.08 103.193C444.539 103.193 447.263 104.447 449.251 106.957C451.327 109.38 452.364 112.625 452.364 116.692C452.364 120.759 451.327 124.048 449.251 126.557Z" fill="url(#paint15_linear)"/>
<path fill-rule="evenodd" clip-rule="evenodd" d="M486.088 119.158C486.52 122.62 487.774 125.346 489.849 127.336C492.011 129.24 494.778 130.191 498.15 130.191C503.252 130.191 507.1 128.504 509.694 125.129L515.012 129.802C513.283 131.879 510.991 133.566 508.138 134.864C505.371 136.162 502.042 136.811 498.15 136.811C491.924 136.811 487.039 134.951 483.494 131.23C480.035 127.509 478.305 122.663 478.305 116.692C478.305 110.721 480.078 105.875 483.623 102.154C487.169 98.4333 491.795 96.5728 497.502 96.5728C503.209 96.5728 507.749 98.39 511.121 102.024C514.58 105.659 516.309 110.548 516.309 116.692C516.309 117.73 516.223 118.553 516.05 119.158H486.088ZM497.502 103.063C494.475 103.063 491.968 103.971 489.979 105.789C488.077 107.606 486.823 110.072 486.217 113.187H508.397C507.878 109.986 506.668 107.519 504.765 105.789C502.863 103.971 500.442 103.063 497.502 103.063Z" fill="url(#paint16_linear)"/>
<path d="M546.141 91.2509C547.006 90.3855 548.13 89.9529 549.514 89.9529C552.194 89.9529 554.615 90.7749 556.777 92.4191L560.409 86.578C557.21 84.4146 553.664 83.3329 549.773 83.3329C545.882 83.3329 542.812 84.3281 540.564 86.3184C538.316 88.3087 537.192 91.0345 537.192 94.4959V97.2218H529.15V103.842H537.192V136.162H544.974V103.842H556.129V97.2218H544.974V94.6257C544.974 93.1546 545.363 92.0297 546.141 91.2509Z" fill="url(#paint17_linear)"/>
<path fill-rule="evenodd" clip-rule="evenodd" d="M605.935 97.2218L605.806 132.139C605.806 137.417 604.12 141.657 600.747 144.859C597.375 148.147 592.749 149.792 586.869 149.792C580.038 149.792 574.763 147.931 571.045 144.21L575.195 138.758C576.752 140.316 578.438 141.441 580.254 142.133C582.07 142.826 584.231 143.172 586.739 143.172C590.803 143.172 593.786 142.133 595.689 140.056C597.591 138.066 598.542 135.384 598.542 132.009V128.244C595.256 132.398 590.846 134.475 585.312 134.475C580.211 134.475 576.103 132.744 572.99 129.283C569.877 125.821 568.321 121.235 568.321 115.524C568.321 109.899 569.877 105.356 572.99 101.895C576.19 98.3467 580.297 96.5728 585.312 96.5728C588.166 96.5728 590.717 97.1352 592.965 98.2602C595.213 99.2986 597.115 100.813 598.672 102.803L599.191 97.2218H605.935ZM587.388 128.115C590.846 128.115 593.57 126.99 595.559 124.74C597.634 122.49 598.672 119.461 598.672 115.654C598.672 111.846 597.634 108.817 595.559 106.568C593.57 104.318 590.846 103.193 587.388 103.193C584.015 103.193 581.291 104.318 579.216 106.568C577.227 108.817 576.233 111.846 576.233 115.654C576.233 119.461 577.227 122.49 579.216 124.74C581.291 126.99 584.015 128.115 587.388 128.115Z" fill="url(#paint18_linear)"/>
<path d="M658.596 100.726C656.002 97.9573 652.586 96.5728 648.349 96.5728C645.669 96.5728 643.204 97.1352 640.956 98.2602C638.708 99.2986 636.805 100.77 635.249 102.673V84.2416H627.467V136.162H635.249V113.836C635.249 110.808 636.286 108.298 638.362 106.308C640.524 104.231 643.118 103.193 646.144 103.193C648.825 103.193 650.9 104.101 652.37 105.919C653.926 107.736 654.705 110.289 654.705 113.577V136.162H662.487V111.5C662.487 107 661.19 103.409 658.596 100.726Z" fill="url(#paint19_linear)"/>
<path d="M684.018 97.2218H691.8V136.162H684.018V97.2218Z" fill="url(#paint20_linear)"/>
<path d="M683.629 83.982H692.19V91.7701H683.629V83.982Z" fill="url(#paint21_linear)"/>
<path d="M707.884 149.143C709.44 149.316 710.737 149.402 711.775 149.402C718.952 149.402 722.541 145.724 722.541 138.369V97.2218H714.758V138.239C714.758 140.922 713.461 142.263 710.867 142.263C709.57 142.263 708.576 142.22 707.884 142.133V149.143Z" fill="url(#paint22_linear)"/>
<path d="M722.93 83.982H714.369V91.7701H722.93V83.982Z" fill="url(#paint23_linear)"/>
<path d="M770.531 136.162L757.431 118.12L751.854 123.442V136.162H744.072V84.2416H751.854V114.615L769.364 97.2218H779.222L763.009 112.798L780 136.162H770.531Z" fill="url(#paint24_linear)"/>
<path d="M348.86 181.463V187.564H360.403V222.351H368.186V173.026H362.479C362.133 176.314 361.182 178.564 359.625 179.776C358.069 180.901 355.172 181.463 350.935 181.463H348.86Z" fill="url(#paint25_linear)"/>
<path d="M423.699 215.342V222.351H388.42V217.289L405.67 201.972C408.87 199.03 411.161 196.434 412.545 194.184C414.015 191.847 414.75 189.554 414.75 187.304C414.75 184.881 413.928 182.891 412.285 181.334C410.729 179.776 408.697 178.997 406.189 178.997C403.163 178.997 400.742 179.949 398.926 181.853C397.11 183.67 396.072 186.353 395.813 189.9L388.549 188.473C388.895 183.54 390.711 179.646 393.997 176.79C397.283 173.848 401.477 172.377 406.578 172.377C411.334 172.377 415.182 173.718 418.122 176.401C421.062 178.997 422.532 182.415 422.532 186.655C422.532 190.03 421.451 193.275 419.29 196.391C417.214 199.506 413.712 203.184 408.783 207.424L399.704 215.342H423.699Z" fill="url(#paint26_linear)"/>
<path d="M468.578 196.261C465.897 193.492 462.395 192.107 458.071 192.107L471.172 178.737V173.026H438.486V180.036H461.314L446.917 194.833L450.678 198.987C452.321 198.035 454.137 197.559 456.126 197.559C458.806 197.559 460.925 198.381 462.481 200.025C464.124 201.669 464.946 203.876 464.946 206.645C464.946 209.674 463.951 212.053 461.963 213.784C460.06 215.515 457.423 216.38 454.051 216.38C448.603 216.38 444.712 213.827 442.377 208.722L436.411 212.226C437.881 215.688 440.172 218.37 443.285 220.274C446.484 222.091 450.246 223 454.569 223C459.844 223 464.168 221.442 467.54 218.327C470.999 215.212 472.728 211.318 472.728 206.645C472.728 202.405 471.345 198.943 468.578 196.261Z" fill="url(#paint27_linear)"/>
<path fill-rule="evenodd" clip-rule="evenodd" d="M526.945 203.53V210.15H519.163V222.351H511.64V210.15H487.385V203.919L509.694 173.026H519.163V203.53H526.945ZM495.427 203.53H511.64V181.074L495.427 203.53Z" fill="url(#paint28_linear)"/>
<path d="M570.137 194.184C567.024 190.982 563.046 189.381 558.204 189.381C554.313 189.381 551.2 190.42 548.865 192.497L549.903 180.165H571.434V173.026H543.807L541.602 198.727L547.438 200.674C549.427 197.299 552.583 195.612 556.907 195.612C560.02 195.612 562.527 196.564 564.43 198.467C566.332 200.371 567.283 202.881 567.283 205.996C567.283 209.111 566.246 211.621 564.17 213.524C562.095 215.428 559.414 216.38 556.129 216.38C553.707 216.38 551.459 215.774 549.384 214.563C547.309 213.351 545.709 211.75 544.585 209.76L539.267 213.914C540.823 216.77 543.072 219.019 546.012 220.664C549.038 222.221 552.454 223 556.258 223C561.792 223 566.289 221.442 569.748 218.327C573.206 215.125 574.936 211.015 574.936 205.996C574.936 201.237 573.336 197.299 570.137 194.184Z" fill="url(#paint29_linear)"/>
<path fill-rule="evenodd" clip-rule="evenodd" d="M612.291 190.809C617.133 190.809 621.111 192.237 624.224 195.093C627.337 197.862 628.893 201.626 628.893 206.385C628.893 211.231 627.121 215.212 623.575 218.327C620.117 221.442 615.923 223 610.994 223C604.595 223 599.753 220.664 596.467 215.991C593.181 211.318 591.538 205.433 591.538 198.338C591.538 190.896 593.268 184.708 596.726 179.776C600.185 174.843 605.287 172.377 612.032 172.377C615.231 172.377 618.171 172.983 620.852 174.194C623.532 175.319 625.737 177.007 627.467 179.257L622.278 184.059C619.944 180.685 616.571 178.997 612.161 178.997C607.405 178.997 603.947 180.814 601.785 184.449C599.623 187.997 598.586 192.367 598.672 197.559C600.142 195.395 602.044 193.751 604.379 192.626C606.714 191.415 609.351 190.809 612.291 190.809ZM610.994 216.51C613.934 216.51 616.398 215.601 618.387 213.784C620.376 211.967 621.37 209.63 621.37 206.775C621.37 203.746 620.419 201.366 618.517 199.636C616.615 197.818 614.193 196.91 611.253 196.91C608.227 196.91 605.719 197.818 603.73 199.636C601.742 201.366 600.747 203.659 600.747 206.515C600.747 209.544 601.698 211.967 603.601 213.784C605.503 215.601 607.968 216.51 610.994 216.51Z" fill="url(#paint30_linear)"/>
<path d="M676.106 178.867V173.026H640.437V180.165H667.416C662.573 185.098 658.553 191.372 655.353 198.987C652.24 206.602 650.684 214.39 650.684 222.351H658.726C658.726 213.698 660.282 205.563 663.395 197.948C666.508 190.247 670.745 183.886 676.106 178.867Z" fill="url(#paint31_linear)"/>
<path fill-rule="evenodd" clip-rule="evenodd" d="M715.666 197.169C718.433 198.294 720.552 199.895 722.022 201.972C723.578 204.049 724.356 206.472 724.356 209.241C724.356 213.395 722.714 216.726 719.428 219.236C716.142 221.745 711.732 223 706.198 223C700.664 223 696.254 221.745 692.968 219.236C689.682 216.726 688.039 213.395 688.039 209.241C688.039 206.472 688.774 204.049 690.244 201.972C691.8 199.895 693.962 198.294 696.729 197.169C694.481 196.131 692.708 194.66 691.411 192.756C690.114 190.766 689.466 188.559 689.466 186.136C689.466 181.983 690.979 178.651 694.005 176.141C697.032 173.632 701.096 172.377 706.198 172.377C711.299 172.377 715.364 173.632 718.39 176.141C721.416 178.651 722.93 181.983 722.93 186.136C722.93 188.559 722.281 190.766 720.984 192.756C719.687 194.66 717.914 196.131 715.666 197.169ZM706.198 178.478C703.344 178.478 701.053 179.213 699.323 180.685C697.68 182.156 696.859 184.103 696.859 186.526C696.859 188.949 697.68 190.896 699.323 192.367C701.053 193.838 703.344 194.573 706.198 194.573C709.051 194.573 711.299 193.838 712.942 192.367C714.672 190.896 715.536 188.949 715.536 186.526C715.536 184.103 714.672 182.156 712.942 180.685C711.299 179.213 709.051 178.478 706.198 178.478ZM706.198 216.899C709.397 216.899 711.948 216.164 713.85 214.693C715.753 213.135 716.704 211.101 716.704 208.592C716.704 206.169 715.753 204.222 713.85 202.751C711.948 201.28 709.397 200.544 706.198 200.544C702.998 200.544 700.447 201.28 698.545 202.751C696.643 204.222 695.692 206.169 695.692 208.592C695.692 211.101 696.643 213.135 698.545 214.693C700.447 216.164 702.998 216.899 706.198 216.899Z" fill="url(#paint32_linear)"/>
<path fill-rule="evenodd" clip-rule="evenodd" d="M771.31 179.386C768.024 174.714 763.182 172.377 756.783 172.377C751.854 172.377 747.617 173.935 744.072 177.05C740.613 180.165 738.883 184.146 738.883 188.992C738.883 193.751 740.44 197.559 743.553 200.414C746.666 203.184 750.643 204.568 755.486 204.568C758.426 204.568 761.063 204.006 763.398 202.881C765.732 201.669 767.635 199.982 769.105 197.818C769.191 203.01 768.154 207.424 765.992 211.058C763.83 214.606 760.371 216.38 755.615 216.38C751.205 216.38 747.833 214.693 745.498 211.318L740.31 216.12C742.04 218.37 744.245 220.101 746.925 221.313C749.606 222.438 752.546 223 755.745 223C762.49 223 767.591 220.534 771.05 215.601C774.509 210.669 776.239 204.482 776.239 197.04C776.239 189.944 774.596 184.059 771.31 179.386ZM764.046 195.871C762.057 197.602 759.55 198.467 756.523 198.467C753.583 198.467 751.162 197.602 749.26 195.871C747.357 194.054 746.406 191.631 746.406 188.602C746.406 185.747 747.401 183.41 749.39 181.593C751.378 179.776 753.843 178.867 756.783 178.867C759.809 178.867 762.274 179.776 764.176 181.593C766.078 183.41 767.029 185.833 767.029 188.862C767.029 191.718 766.035 194.054 764.046 195.871Z" fill="url(#paint33_linear)"/>
<defs>
<linearGradient id="paint0_linear" x1="-8.52136e-06" y1="24" x2="780" y2="150.5" gradientUnits="userSpaceOnUse">
<stop stop-color="#FF8383"/>
<stop offset="0.373626" stop-color="#FF6666"/>
<stop offset="1" stop-color="#FF8383" stop-opacity="0.08"/>
</linearGradient>
<linearGradient id="paint1_linear" x1="-8.52136e-06" y1="24" x2="780" y2="150.5" gradientUnits="userSpaceOnUse">
<stop stop-color="#FF8383"/>
<stop offset="0.373626" stop-color="#FF6666"/>
<stop offset="1" stop-color="#FF8383" stop-opacity="0.08"/>
</linearGradient>
<linearGradient id="paint2_linear" x1="-8.52136e-06" y1="24" x2="780" y2="150.5" gradientUnits="userSpaceOnUse">
<stop stop-color="#FF8383"/>
<stop offset="0.373626" stop-color="#FF6666"/>
<stop offset="1" stop-color="#FF8383" stop-opacity="0.08"/>
</linearGradient>
<linearGradient id="paint3_linear" x1="-8.52136e-06" y1="24" x2="780" y2="150.5" gradientUnits="userSpaceOnUse">
<stop stop-color="#FF8383"/>
<stop offset="0.373626" stop-color="#FF6666"/>
<stop offset="1" stop-color="#FF8383" stop-opacity="0.08"/>
</linearGradient>
<linearGradient id="paint4_linear" x1="-8.52136e-06" y1="24" x2="780" y2="150.5" gradientUnits="userSpaceOnUse">
<stop stop-color="#FF8383"/>
<stop offset="0.373626" stop-color="#FF6666"/>
<stop offset="1" stop-color="#FF8383" stop-opacity="0.08"/>
</linearGradient>
<linearGradient id="paint5_linear" x1="-8.52136e-06" y1="24" x2="780" y2="150.5" gradientUnits="userSpaceOnUse">
<stop stop-color="#FF8383"/>
<stop offset="0.373626" stop-color="#FF6666"/>
<stop offset="1" stop-color="#FF8383" stop-opacity="0.08"/>
</linearGradient>
<linearGradient id="paint6_linear" x1="-8.52136e-06" y1="24" x2="780" y2="150.5" gradientUnits="userSpaceOnUse">
<stop stop-color="#FF8383"/>
<stop offset="0.373626" stop-color="#FF6666"/>
<stop offset="1" stop-color="#FF8383" stop-opacity="0.08"/>
</linearGradient>
<linearGradient id="paint7_linear" x1="-8.52136e-06" y1="24" x2="780" y2="150.5" gradientUnits="userSpaceOnUse">
<stop stop-color="#FF8383"/>
<stop offset="0.373626" stop-color="#FF6666"/>
<stop offset="1" stop-color="#FF8383" stop-opacity="0.08"/>
</linearGradient>
<linearGradient id="paint8_linear" x1="-8.52136e-06" y1="24" x2="780" y2="150.5" gradientUnits="userSpaceOnUse">
<stop stop-color="#FF8383"/>
<stop offset="0.373626" stop-color="#FF6666"/>
<stop offset="1" stop-color="#FF8383" stop-opacity="0.08"/>
</linearGradient>
<linearGradient id="paint9_linear" x1="-8.52136e-06" y1="24" x2="780" y2="150.5" gradientUnits="userSpaceOnUse">
<stop stop-color="#FF8383"/>
<stop offset="0.373626" stop-color="#FF6666"/>
<stop offset="1" stop-color="#FF8383" stop-opacity="0.08"/>
</linearGradient>
<linearGradient id="paint10_linear" x1="-8.52136e-06" y1="24" x2="780" y2="150.5" gradientUnits="userSpaceOnUse">
<stop stop-color="#FF8383"/>
<stop offset="0.373626" stop-color="#FF6666"/>
<stop offset="1" stop-color="#FF8383" stop-opacity="0.08"/>
</linearGradient>
<linearGradient id="paint11_linear" x1="-8.52136e-06" y1="24" x2="780" y2="150.5" gradientUnits="userSpaceOnUse">
<stop stop-color="#FF8383"/>
<stop offset="0.373626" stop-color="#FF6666"/>
<stop offset="1" stop-color="#FF8383" stop-opacity="0.08"/>
</linearGradient>
<linearGradient id="paint12_linear" x1="-8.52136e-06" y1="24" x2="780" y2="150.5" gradientUnits="userSpaceOnUse">
<stop stop-color="#FF8383"/>
<stop offset="0.373626" stop-color="#FF6666"/>
<stop offset="1" stop-color="#FF8383" stop-opacity="0.08"/>
</linearGradient>
<linearGradient id="paint13_linear" x1="-8.52136e-06" y1="24" x2="780" y2="150.5" gradientUnits="userSpaceOnUse">
<stop stop-color="#FF8383"/>
<stop offset="0.373626" stop-color="#FF6666"/>
<stop offset="1" stop-color="#FF8383" stop-opacity="0.08"/>
</linearGradient>
<linearGradient id="paint14_linear" x1="-8.52136e-06" y1="24" x2="780" y2="150.5" gradientUnits="userSpaceOnUse">
<stop stop-color="#FF8383"/>
<stop offset="0.373626" stop-color="#FF6666"/>
<stop offset="1" stop-color="#FF8383" stop-opacity="0.08"/>
</linearGradient>
<linearGradient id="paint15_linear" x1="-8.52136e-06" y1="24" x2="780" y2="150.5" gradientUnits="userSpaceOnUse">
<stop stop-color="#FF8383"/>
<stop offset="0.373626" stop-color="#FF6666"/>
<stop offset="1" stop-color="#FF8383" stop-opacity="0.08"/>
</linearGradient>
<linearGradient id="paint16_linear" x1="-8.52136e-06" y1="24" x2="780" y2="150.5" gradientUnits="userSpaceOnUse">
<stop stop-color="#FF8383"/>
<stop offset="0.373626" stop-color="#FF6666"/>
<stop offset="1" stop-color="#FF8383" stop-opacity="0.08"/>
</linearGradient>
<linearGradient id="paint17_linear" x1="-8.52136e-06" y1="24" x2="780" y2="150.5" gradientUnits="userSpaceOnUse">
<stop stop-color="#FF8383"/>
<stop offset="0.373626" stop-color="#FF6666"/>
<stop offset="1" stop-color="#FF8383" stop-opacity="0.08"/>
</linearGradient>
<linearGradient id="paint18_linear" x1="-8.52136e-06" y1="24" x2="780" y2="150.5" gradientUnits="userSpaceOnUse">
<stop stop-color="#FF8383"/>
<stop offset="0.373626" stop-color="#FF6666"/>
<stop offset="1" stop-color="#FF8383" stop-opacity="0.08"/>
</linearGradient>
<linearGradient id="paint19_linear" x1="-8.52136e-06" y1="24" x2="780" y2="150.5" gradientUnits="userSpaceOnUse">
<stop stop-color="#FF8383"/>
<stop offset="0.373626" stop-color="#FF6666"/>
<stop offset="1" stop-color="#FF8383" stop-opacity="0.08"/>
</linearGradient>
<linearGradient id="paint20_linear" x1="-8.52136e-06" y1="24" x2="780" y2="150.5" gradientUnits="userSpaceOnUse">
<stop stop-color="#FF8383"/>
<stop offset="0.373626" stop-color="#FF6666"/>
<stop offset="1" stop-color="#FF8383" stop-opacity="0.08"/>
</linearGradient>
<linearGradient id="paint21_linear" x1="-8.52136e-06" y1="24" x2="780" y2="150.5" gradientUnits="userSpaceOnUse">
<stop stop-color="#FF8383"/>
<stop offset="0.373626" stop-color="#FF6666"/>
<stop offset="1" stop-color="#FF8383" stop-opacity="0.08"/>
</linearGradient>
<linearGradient id="paint22_linear" x1="-8.52136e-06" y1="24" x2="780" y2="150.5" gradientUnits="userSpaceOnUse">
<stop stop-color="#FF8383"/>
<stop offset="0.373626" stop-color="#FF6666"/>
<stop offset="1" stop-color="#FF8383" stop-opacity="0.08"/>
</linearGradient>
<linearGradient id="paint23_linear" x1="-8.52136e-06" y1="24" x2="780" y2="150.5" gradientUnits="userSpaceOnUse">
<stop stop-color="#FF8383"/>
<stop offset="0.373626" stop-color="#FF6666"/>
<stop offset="1" stop-color="#FF8383" stop-opacity="0.08"/>
</linearGradient>
<linearGradient id="paint24_linear" x1="-8.52136e-06" y1="24" x2="780" y2="150.5" gradientUnits="userSpaceOnUse">
<stop stop-color="#FF8383"/>
<stop offset="0.373626" stop-color="#FF6666"/>
<stop offset="1" stop-color="#FF8383" stop-opacity="0.08"/>
</linearGradient>
<linearGradient id="paint25_linear" x1="-8.52136e-06" y1="24" x2="780" y2="150.5" gradientUnits="userSpaceOnUse">
<stop stop-color="#FF8383"/>
<stop offset="0.373626" stop-color="#FF6666"/>
<stop offset="1" stop-color="#FF8383" stop-opacity="0.08"/>
</linearGradient>
<linearGradient id="paint26_linear" x1="-8.52136e-06" y1="24" x2="780" y2="150.5" gradientUnits="userSpaceOnUse">
<stop stop-color="#FF8383"/>
<stop offset="0.373626" stop-color="#FF6666"/>
<stop offset="1" stop-color="#FF8383" stop-opacity="0.08"/>
</linearGradient>
<linearGradient id="paint27_linear" x1="-8.52136e-06" y1="24" x2="780" y2="150.5" gradientUnits="userSpaceOnUse">
<stop stop-color="#FF8383"/>
<stop offset="0.373626" stop-color="#FF6666"/>
<stop offset="1" stop-color="#FF8383" stop-opacity="0.08"/>
</linearGradient>
<linearGradient id="paint28_linear" x1="-8.52136e-06" y1="24" x2="780" y2="150.5" gradientUnits="userSpaceOnUse">
<stop stop-color="#FF8383"/>
<stop offset="0.373626" stop-color="#FF6666"/>
<stop offset="1" stop-color="#FF8383" stop-opacity="0.08"/>
</linearGradient>
<linearGradient id="paint29_linear" x1="-8.52136e-06" y1="24" x2="780" y2="150.5" gradientUnits="userSpaceOnUse">
<stop stop-color="#FF8383"/>
<stop offset="0.373626" stop-color="#FF6666"/>
<stop offset="1" stop-color="#FF8383" stop-opacity="0.08"/>
</linearGradient>
<linearGradient id="paint30_linear" x1="-8.52136e-06" y1="24" x2="780" y2="150.5" gradientUnits="userSpaceOnUse">
<stop stop-color="#FF8383"/>
<stop offset="0.373626" stop-color="#FF6666"/>
<stop offset="1" stop-color="#FF8383" stop-opacity="0.08"/>
</linearGradient>
<linearGradient id="paint31_linear" x1="-8.52136e-06" y1="24" x2="780" y2="150.5" gradientUnits="userSpaceOnUse">
<stop stop-color="#FF8383"/>
<stop offset="0.373626" stop-color="#FF6666"/>
<stop offset="1" stop-color="#FF8383" stop-opacity="0.08"/>
</linearGradient>
<linearGradient id="paint32_linear" x1="-8.52136e-06" y1="24" x2="780" y2="150.5" gradientUnits="userSpaceOnUse">
<stop stop-color="#FF8383"/>
<stop offset="0.373626" stop-color="#FF6666"/>
<stop offset="1" stop-color="#FF8383" stop-opacity="0.08"/>
</linearGradient>
<linearGradient id="paint33_linear" x1="-8.52136e-06" y1="24" x2="780" y2="150.5" gradientUnits="userSpaceOnUse">
<stop stop-color="#FF8383"/>
<stop offset="0.373626" stop-color="#FF6666"/>
<stop offset="1" stop-color="#FF8383" stop-opacity="0.08"/>
</linearGradient>
</defs>
</svg>
