<svg width="780" height="360" viewBox="0 0 780 360" fill="none" xmlns="http://www.w3.org/2000/svg">
<g clip-path="url(#clip0)">
<rect width="780" height="360" fill="url(#paint0_linear)"/>
<g filter="url(#filter0_f)">
<path fill-rule="evenodd" clip-rule="evenodd" d="M353 73C353 69.6863 350.314 67 347 67H79C75.6863 67 73 69.6863 73 73V307C73 310.314 75.6863 313 79 313H347C350.314 313 353 310.314 353 307V73Z" fill="url(#paint1_linear)" fill-opacity="0.48"/>
</g>
<path fill-rule="evenodd" clip-rule="evenodd" d="M56 58C56 54.6863 58.6863 52 62 52H364C367.314 52 370 54.6863 370 58V302C370 305.314 367.314 308 364 308H62C58.6863 308 56 305.314 56 302V58Z" fill="url(#paint2_linear)"/>
<path d="M187.074 170L185.902 166.875H179.184L178.012 170H174.887L180.746 155.156H184.418L190.277 170H187.074ZM180.16 164.258H184.926L182.543 157.812L180.16 164.258ZM197.152 170.195C195.382 170.195 193.936 169.648 192.816 168.555C191.723 167.435 191.176 165.964 191.176 164.141C191.176 162.318 191.723 160.859 192.816 159.766C193.936 158.646 195.382 158.086 197.152 158.086C198.48 158.086 199.613 158.398 200.551 159.023C201.514 159.648 202.165 160.508 202.504 161.602L199.809 162.422C199.6 161.797 199.262 161.315 198.793 160.977C198.324 160.612 197.764 160.43 197.113 160.43C196.176 160.43 195.434 160.768 194.887 161.445C194.34 162.096 194.066 162.995 194.066 164.141C194.066 165.286 194.34 166.198 194.887 166.875C195.434 167.526 196.176 167.852 197.113 167.852C197.764 167.852 198.324 167.682 198.793 167.344C199.262 166.979 199.613 166.484 199.848 165.859L202.504 166.68C202.165 167.773 201.514 168.633 200.551 169.258C199.613 169.883 198.48 170.195 197.152 170.195ZM209.652 170.195C207.882 170.195 206.436 169.648 205.316 168.555C204.223 167.435 203.676 165.964 203.676 164.141C203.676 162.318 204.223 160.859 205.316 159.766C206.436 158.646 207.882 158.086 209.652 158.086C210.98 158.086 212.113 158.398 213.051 159.023C214.014 159.648 214.665 160.508 215.004 161.602L212.309 162.422C212.1 161.797 211.762 161.315 211.293 160.977C210.824 160.612 210.264 160.43 209.613 160.43C208.676 160.43 207.934 160.768 207.387 161.445C206.84 162.096 206.566 162.995 206.566 164.141C206.566 165.286 206.84 166.198 207.387 166.875C207.934 167.526 208.676 167.852 209.613 167.852C210.264 167.852 210.824 167.682 211.293 167.344C211.762 166.979 212.113 166.484 212.348 165.859L215.004 166.68C214.665 167.773 214.014 168.633 213.051 169.258C212.113 169.883 210.98 170.195 209.652 170.195ZM218.988 165.039C219.118 165.924 219.47 166.615 220.043 167.109C220.616 167.604 221.358 167.852 222.27 167.852C223.676 167.852 224.783 167.383 225.59 166.445L227.348 168.125C226.15 169.505 224.457 170.195 222.27 170.195C220.316 170.195 218.806 169.635 217.738 168.516C216.697 167.396 216.176 165.938 216.176 164.141C216.176 162.344 216.71 160.885 217.777 159.766C218.871 158.646 220.303 158.086 222.074 158.086C223.819 158.086 225.212 158.646 226.254 159.766C227.296 160.859 227.816 162.318 227.816 164.141C227.816 164.479 227.777 164.779 227.699 165.039H218.988ZM222.074 160.352C221.267 160.352 220.59 160.586 220.043 161.055C219.522 161.497 219.184 162.135 219.027 162.969H224.965C224.809 162.135 224.47 161.497 223.949 161.055C223.454 160.586 222.829 160.352 222.074 160.352ZM236.957 158.086C238.207 158.086 239.223 158.503 240.004 159.336C240.811 160.169 241.215 161.25 241.215 162.578V170H238.402V163.242C238.402 162.357 238.194 161.667 237.777 161.172C237.387 160.677 236.827 160.43 236.098 160.43C235.264 160.43 234.561 160.703 233.988 161.25C233.415 161.771 233.129 162.448 233.129 163.281V170H230.316V158.281H232.816L232.973 160C233.415 159.401 233.975 158.932 234.652 158.594C235.355 158.255 236.124 158.086 236.957 158.086ZM248.051 160.625V166.172C248.051 166.693 248.181 167.07 248.441 167.305C248.702 167.513 249.092 167.617 249.613 167.617C250.316 167.617 250.941 167.552 251.488 167.422V169.922C250.759 170.13 249.926 170.234 248.988 170.234C247.79 170.234 246.866 169.948 246.215 169.375C245.564 168.776 245.238 167.917 245.238 166.797V160.625H242.895V158.281H245.238L245.551 155.156H248.051V158.281H251.488V160.625H248.051ZM143.625 190.688H141.594V193.438H143.625V195H141.594V198H140.219V195H137.344V198H135.969V195H133.938V193.438H135.969V190.688H133.938V189.125H135.969V186.125H137.344V189.125H140.219V186.125H141.594V189.125H143.625V190.688ZM140.219 193.438V190.688H137.344V193.438H140.219ZM154.344 187.594H147.906V191.188H152.938V192.625H147.906V198H146.281V186.125H154.344V187.594ZM164.594 187.594H158.156V191.188H163.188V192.625H158.156V198H156.531V186.125H164.594V187.594ZM172.094 192C172.781 192.25 173.312 192.625 173.688 193.125C174.062 193.604 174.25 194.188 174.25 194.875C174.25 195.854 173.854 196.646 173.062 197.25C172.292 197.854 171.26 198.156 169.969 198.156C168.677 198.156 167.635 197.854 166.844 197.25C166.073 196.646 165.688 195.854 165.688 194.875C165.688 194.188 165.875 193.604 166.25 193.125C166.625 192.625 167.156 192.25 167.844 192C167.26 191.75 166.812 191.396 166.5 190.938C166.188 190.458 166.031 189.906 166.031 189.281C166.031 188.281 166.385 187.479 167.094 186.875C167.802 186.271 168.76 185.969 169.969 185.969C171.177 185.969 172.135 186.271 172.844 186.875C173.552 187.479 173.906 188.281 173.906 189.281C173.906 189.906 173.75 190.458 173.438 190.938C173.125 191.396 172.677 191.75 172.094 192ZM169.969 187.219C169.24 187.219 168.656 187.417 168.219 187.812C167.781 188.188 167.562 188.698 167.562 189.344C167.562 189.99 167.781 190.5 168.219 190.875C168.656 191.25 169.24 191.438 169.969 191.438C170.698 191.438 171.281 191.25 171.719 190.875C172.156 190.5 172.375 189.99 172.375 189.344C172.375 188.698 172.156 188.188 171.719 187.812C171.281 187.417 170.698 187.219 169.969 187.219ZM169.969 196.906C170.802 196.906 171.469 196.719 171.969 196.344C172.469 195.948 172.719 195.427 172.719 194.781C172.719 194.135 172.469 193.625 171.969 193.25C171.469 192.875 170.802 192.688 169.969 192.688C169.135 192.688 168.469 192.875 167.969 193.25C167.469 193.625 167.219 194.135 167.219 194.781C167.219 195.427 167.469 195.948 167.969 196.344C168.469 196.719 169.135 196.906 169.969 196.906ZM180.312 190.719C181.312 190.719 182.135 191.052 182.781 191.719C183.448 192.365 183.781 193.198 183.781 194.219C183.781 195.344 183.365 196.281 182.531 197.031C181.719 197.781 180.698 198.156 179.469 198.156C178.469 198.156 177.594 197.938 176.844 197.5C176.094 197.062 175.542 196.448 175.188 195.656L176.406 194.906C176.99 196.156 177.969 196.781 179.344 196.781C180.24 196.781 180.938 196.552 181.438 196.094C181.938 195.635 182.188 195.01 182.188 194.219C182.188 193.51 181.979 192.948 181.562 192.531C181.146 192.094 180.604 191.875 179.938 191.875C179.396 191.875 178.938 192 178.562 192.25L177.719 191.375L181.344 187.562H175.688V186.125H183.438V187.25L180.094 190.719H180.312ZM191.75 192C192.438 192.25 192.969 192.625 193.344 193.125C193.719 193.604 193.906 194.188 193.906 194.875C193.906 195.854 193.51 196.646 192.719 197.25C191.948 197.854 190.917 198.156 189.625 198.156C188.333 198.156 187.292 197.854 186.5 197.25C185.729 196.646 185.344 195.854 185.344 194.875C185.344 194.188 185.531 193.604 185.906 193.125C186.281 192.625 186.812 192.25 187.5 192C186.917 191.75 186.469 191.396 186.156 190.938C185.844 190.458 185.688 189.906 185.688 189.281C185.688 188.281 186.042 187.479 186.75 186.875C187.458 186.271 188.417 185.969 189.625 185.969C190.833 185.969 191.792 186.271 192.5 186.875C193.208 187.479 193.562 188.281 193.562 189.281C193.562 189.906 193.406 190.458 193.094 190.938C192.781 191.396 192.333 191.75 191.75 192ZM189.625 187.219C188.896 187.219 188.312 187.417 187.875 187.812C187.438 188.188 187.219 188.698 187.219 189.344C187.219 189.99 187.438 190.5 187.875 190.875C188.312 191.25 188.896 191.438 189.625 191.438C190.354 191.438 190.938 191.25 191.375 190.875C191.812 190.5 192.031 189.99 192.031 189.344C192.031 188.698 191.812 188.188 191.375 187.812C190.938 187.417 190.354 187.219 189.625 187.219ZM189.625 196.906C190.458 196.906 191.125 196.719 191.625 196.344C192.125 195.948 192.375 195.427 192.375 194.781C192.375 194.135 192.125 193.625 191.625 193.25C191.125 192.875 190.458 192.688 189.625 192.688C188.792 192.688 188.125 192.875 187.625 193.25C187.125 193.625 186.875 194.135 186.875 194.781C186.875 195.427 187.125 195.948 187.625 196.344C188.125 196.719 188.792 196.906 189.625 196.906ZM199.969 190.719C200.969 190.719 201.792 191.052 202.438 191.719C203.104 192.365 203.438 193.198 203.438 194.219C203.438 195.344 203.021 196.281 202.188 197.031C201.375 197.781 200.354 198.156 199.125 198.156C198.125 198.156 197.25 197.938 196.5 197.5C195.75 197.062 195.198 196.448 194.844 195.656L196.062 194.906C196.646 196.156 197.625 196.781 199 196.781C199.896 196.781 200.594 196.552 201.094 196.094C201.594 195.635 201.844 195.01 201.844 194.219C201.844 193.51 201.635 192.948 201.219 192.531C200.802 192.094 200.26 191.875 199.594 191.875C199.052 191.875 198.594 192 198.219 192.25L197.375 191.375L201 187.562H195.344V186.125H203.094V187.25L199.75 190.719H199.969ZM210.312 191.906H215.625V193.469H210.312V191.906ZM232.188 190.688H230.156V193.438H232.188V195H230.156V198H228.781V195H225.906V198H224.531V195H222.5V193.438H224.531V190.688H222.5V189.125H224.531V186.125H225.906V189.125H228.781V186.125H230.156V189.125H232.188V190.688ZM228.781 193.438V190.688H225.906V193.438H228.781ZM242.906 187.594H236.469V191.188H241.5V192.625H236.469V198H234.844V186.125H242.906V187.594ZM253.156 187.594H246.719V191.188H251.75V192.625H246.719V198H245.094V186.125H253.156V187.594ZM259.25 190.438C260.396 190.438 261.344 190.781 262.094 191.469C262.865 192.135 263.25 193.042 263.25 194.188C263.25 194.938 263.052 195.615 262.656 196.219C262.281 196.823 261.76 197.302 261.094 197.656C260.448 197.99 259.75 198.156 259 198.156C257.458 198.156 256.302 197.594 255.531 196.469C254.781 195.323 254.406 193.906 254.406 192.219C254.406 190.448 254.802 188.969 255.594 187.781C256.406 186.573 257.635 185.969 259.281 185.969C260.01 185.969 260.698 186.115 261.344 186.406C261.99 186.677 262.521 187.083 262.938 187.625L261.875 188.625C261.25 187.75 260.385 187.312 259.281 187.312C258.052 187.312 257.167 187.781 256.625 188.719C256.083 189.635 255.823 190.75 255.844 192.062V192.25C256.177 191.667 256.646 191.219 257.25 190.906C257.854 190.594 258.521 190.438 259.25 190.438ZM259 196.812C259.75 196.812 260.396 196.583 260.938 196.125C261.479 195.646 261.75 195.031 261.75 194.281C261.75 193.51 261.5 192.896 261 192.438C260.5 191.979 259.865 191.75 259.094 191.75C258.323 191.75 257.667 191.979 257.125 192.438C256.604 192.896 256.344 193.49 256.344 194.219C256.344 194.99 256.583 195.615 257.062 196.094C257.562 196.573 258.208 196.812 259 196.812ZM273.5 193.625V194.969H271.531V198H269.969V194.969H264.125V193.75L269.656 186.125H271.531V193.625H273.5ZM265.781 193.625H269.969V187.844L265.781 193.625ZM279.438 190.438C280.583 190.438 281.531 190.781 282.281 191.469C283.052 192.135 283.438 193.042 283.438 194.188C283.438 194.938 283.24 195.615 282.844 196.219C282.469 196.823 281.948 197.302 281.281 197.656C280.635 197.99 279.938 198.156 279.188 198.156C277.646 198.156 276.49 197.594 275.719 196.469C274.969 195.323 274.594 193.906 274.594 192.219C274.594 190.448 274.99 188.969 275.781 187.781C276.594 186.573 277.823 185.969 279.469 185.969C280.198 185.969 280.885 186.115 281.531 186.406C282.177 186.677 282.708 187.083 283.125 187.625L282.062 188.625C281.438 187.75 280.573 187.312 279.469 187.312C278.24 187.312 277.354 187.781 276.812 188.719C276.271 189.635 276.01 190.75 276.031 192.062V192.25C276.365 191.667 276.833 191.219 277.438 190.906C278.042 190.594 278.708 190.438 279.438 190.438ZM279.188 196.812C279.938 196.812 280.583 196.583 281.125 196.125C281.667 195.646 281.938 195.031 281.938 194.281C281.938 193.51 281.688 192.896 281.188 192.438C280.688 191.979 280.052 191.75 279.281 191.75C278.51 191.75 277.854 191.979 277.312 192.438C276.792 192.896 276.531 193.49 276.531 194.219C276.531 194.99 276.771 195.615 277.25 196.094C277.75 196.573 278.396 196.812 279.188 196.812ZM293.688 193.625V194.969H291.719V198H290.156V194.969H284.312V193.75L289.844 186.125H291.719V193.625H293.688ZM285.969 193.625H290.156V187.844L285.969 193.625Z" fill="white"/>
<path fill-rule="evenodd" clip-rule="evenodd" d="M410 58C410 54.6863 412.686 52 416 52H718C721.314 52 724 54.6863 724 58V154C724 157.314 721.314 160 718 160H416C412.686 160 410 157.314 410 154V58Z" fill="#231633"/>
<path d="M529.744 85.1562C531.463 85.1562 532.804 85.5729 533.767 86.4062C534.757 87.2396 535.252 88.3854 535.252 89.8438C535.252 91.3021 534.757 92.4479 533.767 93.2812C532.804 94.1146 531.463 94.5312 529.744 94.5312H526.463V100H523.455V85.1562H529.744ZM529.392 92.1094C531.267 92.1094 532.205 91.3802 532.205 89.9219C532.205 88.4375 531.267 87.6953 529.392 87.6953H526.463V92.1094H529.392ZM544.275 88.125C544.509 88.125 544.835 88.151 545.252 88.2031L545.213 90.8594C544.64 90.7812 544.067 90.7422 543.494 90.7422C542.582 90.7422 541.84 90.9896 541.267 91.4844C540.72 91.9792 540.447 92.6693 540.447 93.5547V100H537.634V88.2812H540.134L540.291 90.1172C540.733 89.4922 541.293 89.0104 541.97 88.6719C542.647 88.3073 543.416 88.125 544.275 88.125ZM547.556 88.2812H550.369V100H547.556V88.2812ZM547.439 84.2188H550.486V86.7188H547.439V84.2188ZM568.22 88.0859C569.444 88.0859 570.434 88.5026 571.189 89.3359C571.944 90.1432 572.322 91.224 572.322 92.5781V100H569.509V93.2422C569.509 92.3307 569.327 91.6406 568.963 91.1719C568.598 90.6771 568.064 90.4297 567.361 90.4297C566.528 90.4297 565.851 90.7031 565.33 91.25C564.809 91.7708 564.548 92.4479 564.548 93.2812V100H561.736V93.2422C561.736 92.3307 561.554 91.6406 561.189 91.1719C560.825 90.6771 560.291 90.4297 559.588 90.4297C558.754 90.4297 558.077 90.7031 557.556 91.25C557.035 91.7708 556.775 92.4479 556.775 93.2812V100H553.963V88.2812H556.463L556.619 89.9219C557.035 89.349 557.569 88.9062 558.22 88.5938C558.897 88.2552 559.653 88.0859 560.486 88.0859C561.319 88.0859 562.048 88.2812 562.673 88.6719C563.298 89.0625 563.767 89.6094 564.08 90.3125C564.496 89.6094 565.056 89.0625 565.759 88.6719C566.489 88.2812 567.309 88.0859 568.22 88.0859ZM585.916 97.5781V100C585.655 100.052 585.317 100.078 584.9 100.078C584.171 100.078 583.611 99.9349 583.22 99.6484C582.856 99.362 582.621 98.9062 582.517 98.2812C582.075 98.8802 581.489 99.349 580.759 99.6875C580.056 100.026 579.275 100.195 578.416 100.195C577.27 100.195 576.345 99.8828 575.642 99.2578C574.939 98.6328 574.588 97.7995 574.588 96.7578C574.588 95.4297 575.056 94.5052 575.994 93.9844C576.931 93.4635 578.142 93.112 579.627 92.9297C580.512 92.8255 581.15 92.6953 581.541 92.5391C581.931 92.3828 582.127 92.1224 582.127 91.7578C582.127 91.3411 581.918 91.0156 581.502 90.7812C581.111 90.5208 580.564 90.3906 579.861 90.3906C578.611 90.3906 577.504 90.8724 576.541 91.8359L574.861 90.0781C576.267 88.75 577.986 88.0859 580.017 88.0859C581.502 88.0859 582.66 88.4375 583.494 89.1406C584.327 89.8177 584.744 90.7682 584.744 91.9922V96.875C584.744 97.3438 584.978 97.5781 585.447 97.5781H585.916ZM579.002 97.9688C579.835 97.9688 580.551 97.7214 581.15 97.2266C581.749 96.7318 582.048 96.1458 582.048 95.4688V94.2578C581.71 94.4401 581.007 94.6224 579.939 94.8047C579.054 94.9609 578.39 95.1432 577.947 95.3516C577.53 95.5599 577.322 95.9505 577.322 96.5234C577.322 96.9661 577.465 97.3177 577.752 97.5781C578.064 97.8385 578.481 97.9688 579.002 97.9688ZM594.978 88.125C595.213 88.125 595.538 88.151 595.955 88.2031L595.916 90.8594C595.343 90.7812 594.77 90.7422 594.197 90.7422C593.285 90.7422 592.543 90.9896 591.97 91.4844C591.423 91.9792 591.15 92.6693 591.15 93.5547V100H588.338V88.2812H590.838L590.994 90.1172C591.436 89.4922 591.996 89.0104 592.673 88.6719C593.351 88.3073 594.119 88.125 594.978 88.125ZM609.314 88.2812L605.134 100.156C604.223 102.786 602.765 104.102 600.759 104.102C599.509 104.102 598.585 103.75 597.986 103.047C597.413 102.37 597.101 101.523 597.048 100.508L599.627 100.039C599.653 100.56 599.757 100.951 599.939 101.211C600.121 101.497 600.421 101.641 600.838 101.641C601.306 101.641 601.736 101.315 602.127 100.664L596.658 88.2812H599.744L603.494 97.5391L606.384 88.2812H609.314ZM542.701 120.688H540.67V123.438H542.701V125H540.67V128H539.295V125H536.42V128H535.045V125H533.013V123.438H535.045V120.688H533.013V119.125H535.045V116.125H536.42V119.125H539.295V116.125H540.67V119.125H542.701V120.688ZM539.295 123.438V120.688H536.42V123.438H539.295ZM552.263 126.531V128H543.951V127L548.045 123.25C548.857 122.5 549.44 121.833 549.795 121.25C550.17 120.667 550.357 120.083 550.357 119.5C550.357 118.854 550.149 118.333 549.732 117.938C549.336 117.542 548.805 117.344 548.138 117.344C547.347 117.344 546.711 117.583 546.232 118.062C545.774 118.521 545.513 119.188 545.451 120.062L543.982 119.75C544.086 118.583 544.513 117.667 545.263 117C546.034 116.312 547.013 115.969 548.201 115.969C549.305 115.969 550.201 116.292 550.888 116.938C551.597 117.562 551.951 118.385 551.951 119.406C551.951 120.156 551.701 120.917 551.201 121.688C550.701 122.438 549.888 123.312 548.763 124.312L546.295 126.531H552.263ZM558.17 120.719C559.17 120.719 559.992 121.052 560.638 121.719C561.305 122.365 561.638 123.198 561.638 124.219C561.638 125.344 561.222 126.281 560.388 127.031C559.576 127.781 558.555 128.156 557.326 128.156C556.326 128.156 555.451 127.938 554.701 127.5C553.951 127.062 553.399 126.448 553.045 125.656L554.263 124.906C554.847 126.156 555.826 126.781 557.201 126.781C558.097 126.781 558.795 126.552 559.295 126.094C559.795 125.635 560.045 125.01 560.045 124.219C560.045 123.51 559.836 122.948 559.42 122.531C559.003 122.094 558.461 121.875 557.795 121.875C557.253 121.875 556.795 122 556.42 122.25L555.576 121.375L559.201 117.562H553.545V116.125H561.295V117.25L557.951 120.719H558.17ZM562.888 119.344V118.125H563.357C564.399 118.125 565.107 117.99 565.482 117.719C565.857 117.448 566.086 116.917 566.17 116.125H567.263V128H565.701V119.344H562.888ZM575.232 120.438C576.378 120.438 577.326 120.781 578.076 121.469C578.847 122.135 579.232 123.042 579.232 124.188C579.232 124.938 579.034 125.615 578.638 126.219C578.263 126.823 577.742 127.302 577.076 127.656C576.43 127.99 575.732 128.156 574.982 128.156C573.44 128.156 572.284 127.594 571.513 126.469C570.763 125.323 570.388 123.906 570.388 122.219C570.388 120.448 570.784 118.969 571.576 117.781C572.388 116.573 573.617 115.969 575.263 115.969C575.992 115.969 576.68 116.115 577.326 116.406C577.972 116.677 578.503 117.083 578.92 117.625L577.857 118.625C577.232 117.75 576.367 117.312 575.263 117.312C574.034 117.312 573.149 117.781 572.607 118.719C572.065 119.635 571.805 120.75 571.826 122.062V122.25C572.159 121.667 572.628 121.219 573.232 120.906C573.836 120.594 574.503 120.438 575.232 120.438ZM574.982 126.812C575.732 126.812 576.378 126.583 576.92 126.125C577.461 125.646 577.732 125.031 577.732 124.281C577.732 123.51 577.482 122.896 576.982 122.438C576.482 121.979 575.847 121.75 575.076 121.75C574.305 121.75 573.649 121.979 573.107 122.438C572.586 122.896 572.326 123.49 572.326 124.219C572.326 124.99 572.565 125.615 573.045 126.094C573.545 126.573 574.19 126.812 574.982 126.812ZM584.92 120.719C585.92 120.719 586.742 121.052 587.388 121.719C588.055 122.365 588.388 123.198 588.388 124.219C588.388 125.344 587.972 126.281 587.138 127.031C586.326 127.781 585.305 128.156 584.076 128.156C583.076 128.156 582.201 127.938 581.451 127.5C580.701 127.062 580.149 126.448 579.795 125.656L581.013 124.906C581.597 126.156 582.576 126.781 583.951 126.781C584.847 126.781 585.545 126.552 586.045 126.094C586.545 125.635 586.795 125.01 586.795 124.219C586.795 123.51 586.586 122.948 586.17 122.531C585.753 122.094 585.211 121.875 584.545 121.875C584.003 121.875 583.545 122 583.17 122.25L582.326 121.375L585.951 117.562H580.295V116.125H588.045V117.25L584.701 120.719H584.92ZM594.451 120.719C595.451 120.719 596.274 121.052 596.92 121.719C597.586 122.365 597.92 123.198 597.92 124.219C597.92 125.344 597.503 126.281 596.67 127.031C595.857 127.781 594.836 128.156 593.607 128.156C592.607 128.156 591.732 127.938 590.982 127.5C590.232 127.062 589.68 126.448 589.326 125.656L590.545 124.906C591.128 126.156 592.107 126.781 593.482 126.781C594.378 126.781 595.076 126.552 595.576 126.094C596.076 125.635 596.326 125.01 596.326 124.219C596.326 123.51 596.117 122.948 595.701 122.531C595.284 122.094 594.742 121.875 594.076 121.875C593.534 121.875 593.076 122 592.701 122.25L591.857 121.375L595.482 117.562H589.826V116.125H597.576V117.25L594.232 120.719H594.451Z" fill="white"/>
<g filter="url(#filter1_i)">
<path fill-rule="evenodd" clip-rule="evenodd" d="M410 206C410 202.686 412.686 200 416 200H718C721.314 200 724 202.686 724 206V302C724 305.314 721.314 308 718 308H416C412.686 308 410 305.314 410 302V206Z" fill="#F6F9FF"/>
</g>
<path fill-rule="evenodd" clip-rule="evenodd" d="M410 206C410 202.686 412.686 200 416 200H718C721.314 200 724 202.686 724 206V302C724 305.314 721.314 308 718 308H416C412.686 308 410 305.314 410 302V206Z" stroke="url(#paint3_linear)" stroke-opacity="0.5" stroke-width="1.5"/>
<path d="M514.48 248.195C513.282 248.195 512.136 248.013 511.043 247.648C509.949 247.258 509.011 246.724 508.23 246.047L509.91 243.781C511.186 245.005 512.748 245.617 514.597 245.617C515.509 245.617 516.212 245.474 516.707 245.188C517.228 244.875 517.488 244.445 517.488 243.898C517.488 243.43 517.267 243.078 516.824 242.844C516.407 242.609 515.6 242.323 514.402 241.984C513.23 241.646 512.267 241.32 511.511 241.008C510.782 240.669 510.144 240.201 509.597 239.602C509.077 239.003 508.816 238.234 508.816 237.297C508.816 235.943 509.337 234.888 510.379 234.133C511.42 233.352 512.84 232.961 514.636 232.961C516.72 232.961 518.569 233.56 520.183 234.758L518.543 236.984C517.397 236.047 516.043 235.578 514.48 235.578C513.673 235.578 513.022 235.721 512.527 236.008C512.032 236.294 511.785 236.672 511.785 237.141C511.785 237.609 512.032 237.987 512.527 238.273C513.048 238.56 513.894 238.859 515.066 239.172C516.811 239.641 518.152 240.188 519.09 240.812C520.053 241.438 520.535 242.388 520.535 243.664C520.535 245.096 520.001 246.216 518.933 247.023C517.866 247.805 516.381 248.195 514.48 248.195ZM524.91 243.039C525.04 243.924 525.392 244.615 525.965 245.109C526.538 245.604 527.28 245.852 528.191 245.852C529.597 245.852 530.704 245.383 531.511 244.445L533.269 246.125C532.071 247.505 530.379 248.195 528.191 248.195C526.238 248.195 524.728 247.635 523.66 246.516C522.618 245.396 522.097 243.938 522.097 242.141C522.097 240.344 522.631 238.885 523.699 237.766C524.793 236.646 526.225 236.086 527.996 236.086C529.741 236.086 531.134 236.646 532.176 237.766C533.217 238.859 533.738 240.318 533.738 242.141C533.738 242.479 533.699 242.779 533.621 243.039H524.91ZM527.996 238.352C527.189 238.352 526.511 238.586 525.965 239.055C525.444 239.497 525.105 240.135 524.949 240.969H530.886C530.73 240.135 530.392 239.497 529.871 239.055C529.376 238.586 528.751 238.352 527.996 238.352ZM541.394 248.195C539.623 248.195 538.178 247.648 537.058 246.555C535.965 245.435 535.418 243.964 535.418 242.141C535.418 240.318 535.965 238.859 537.058 237.766C538.178 236.646 539.623 236.086 541.394 236.086C542.722 236.086 543.855 236.398 544.793 237.023C545.756 237.648 546.407 238.508 546.746 239.602L544.051 240.422C543.842 239.797 543.504 239.315 543.035 238.977C542.566 238.612 542.006 238.43 541.355 238.43C540.418 238.43 539.676 238.768 539.129 239.445C538.582 240.096 538.308 240.995 538.308 242.141C538.308 243.286 538.582 244.198 539.129 244.875C539.676 245.526 540.418 245.852 541.355 245.852C542.006 245.852 542.566 245.682 543.035 245.344C543.504 244.979 543.855 244.484 544.09 243.859L546.746 244.68C546.407 245.773 545.756 246.633 544.793 247.258C543.855 247.883 542.722 248.195 541.394 248.195ZM553.972 248.195C552.149 248.195 550.678 247.648 549.558 246.555C548.465 245.435 547.918 243.964 547.918 242.141C547.918 240.318 548.478 238.859 549.597 237.766C550.717 236.646 552.176 236.086 553.972 236.086C555.821 236.086 557.293 236.633 558.386 237.727C559.48 238.82 560.027 240.292 560.027 242.141C560.027 243.964 559.467 245.435 558.347 246.555C557.228 247.648 555.769 248.195 553.972 248.195ZM553.972 245.852C554.962 245.852 555.73 245.526 556.277 244.875C556.85 244.198 557.136 243.286 557.136 242.141C557.136 240.995 556.85 240.096 556.277 239.445C555.73 238.768 554.962 238.43 553.972 238.43C552.983 238.43 552.202 238.768 551.629 239.445C551.082 240.096 550.808 240.995 550.808 242.141C550.808 243.286 551.082 244.198 551.629 244.875C552.202 245.526 552.983 245.852 553.972 245.852ZM569.207 236.086C570.457 236.086 571.472 236.503 572.254 237.336C573.061 238.169 573.465 239.25 573.465 240.578V248H570.652V241.242C570.652 240.357 570.444 239.667 570.027 239.172C569.636 238.677 569.077 238.43 568.347 238.43C567.514 238.43 566.811 238.703 566.238 239.25C565.665 239.771 565.379 240.448 565.379 241.281V248H562.566V236.281H565.066L565.222 238C565.665 237.401 566.225 236.932 566.902 236.594C567.605 236.255 568.373 236.086 569.207 236.086ZM587.41 232.375V248H584.91L584.754 246.242C584.311 246.867 583.751 247.349 583.074 247.688C582.397 248.026 581.655 248.195 580.847 248.195C579.311 248.195 578.087 247.648 577.176 246.555C576.264 245.435 575.808 243.964 575.808 242.141C575.808 240.344 576.277 238.885 577.215 237.766C578.152 236.646 579.363 236.086 580.847 236.086C582.436 236.086 583.686 236.646 584.597 237.766V232.375H587.41ZM581.707 245.852C582.644 245.852 583.373 245.526 583.894 244.875C584.441 244.198 584.715 243.286 584.715 242.141C584.715 240.995 584.441 240.096 583.894 239.445C583.373 238.768 582.644 238.43 581.707 238.43C580.769 238.43 580.027 238.768 579.48 239.445C578.933 240.096 578.66 240.995 578.66 242.141C578.66 243.286 578.933 244.198 579.48 244.875C580.027 245.526 580.769 245.852 581.707 245.852ZM601.16 245.578V248C600.899 248.052 600.561 248.078 600.144 248.078C599.415 248.078 598.855 247.935 598.465 247.648C598.1 247.362 597.866 246.906 597.761 246.281C597.319 246.88 596.733 247.349 596.004 247.688C595.301 248.026 594.519 248.195 593.66 248.195C592.514 248.195 591.59 247.883 590.886 247.258C590.183 246.633 589.832 245.799 589.832 244.758C589.832 243.43 590.301 242.505 591.238 241.984C592.176 241.464 593.386 241.112 594.871 240.93C595.756 240.826 596.394 240.695 596.785 240.539C597.176 240.383 597.371 240.122 597.371 239.758C597.371 239.341 597.163 239.016 596.746 238.781C596.355 238.521 595.808 238.391 595.105 238.391C593.855 238.391 592.748 238.872 591.785 239.836L590.105 238.078C591.511 236.75 593.23 236.086 595.261 236.086C596.746 236.086 597.905 236.438 598.738 237.141C599.571 237.818 599.988 238.768 599.988 239.992V244.875C599.988 245.344 600.222 245.578 600.691 245.578H601.16ZM594.246 245.969C595.079 245.969 595.795 245.721 596.394 245.227C596.993 244.732 597.293 244.146 597.293 243.469V242.258C596.954 242.44 596.251 242.622 595.183 242.805C594.298 242.961 593.634 243.143 593.191 243.352C592.774 243.56 592.566 243.951 592.566 244.523C592.566 244.966 592.709 245.318 592.996 245.578C593.308 245.839 593.725 245.969 594.246 245.969ZM610.222 236.125C610.457 236.125 610.782 236.151 611.199 236.203L611.16 238.859C610.587 238.781 610.014 238.742 609.441 238.742C608.53 238.742 607.788 238.99 607.215 239.484C606.668 239.979 606.394 240.669 606.394 241.555V248H603.582V236.281H606.082L606.238 238.117C606.681 237.492 607.241 237.01 607.918 236.672C608.595 236.307 609.363 236.125 610.222 236.125ZM624.558 236.281L620.379 248.156C619.467 250.786 618.009 252.102 616.004 252.102C614.754 252.102 613.829 251.75 613.23 251.047C612.657 250.37 612.345 249.523 612.293 248.508L614.871 248.039C614.897 248.56 615.001 248.951 615.183 249.211C615.366 249.497 615.665 249.641 616.082 249.641C616.551 249.641 616.98 249.315 617.371 248.664L611.902 236.281H614.988L618.738 245.539L621.629 236.281H624.558ZM540.375 268.688H538.344V271.438H540.375V273H538.344V276H536.969V273H534.094V276H532.719V273H530.687V271.438H532.719V268.688H530.687V267.125H532.719V264.125H534.094V267.125H536.969V264.125H538.344V267.125H540.375V268.688ZM536.969 271.438V268.688H534.094V271.438H536.969ZM551.094 265.594H544.656V269.188H549.687V270.625H544.656V276H543.031V264.125H551.094V265.594ZM557.187 268.438C558.333 268.438 559.281 268.781 560.031 269.469C560.802 270.135 561.187 271.042 561.187 272.188C561.187 272.938 560.989 273.615 560.594 274.219C560.219 274.823 559.698 275.302 559.031 275.656C558.385 275.99 557.687 276.156 556.937 276.156C555.396 276.156 554.239 275.594 553.469 274.469C552.719 273.323 552.344 271.906 552.344 270.219C552.344 268.448 552.739 266.969 553.531 265.781C554.344 264.573 555.573 263.969 557.219 263.969C557.948 263.969 558.635 264.115 559.281 264.406C559.927 264.677 560.458 265.083 560.875 265.625L559.812 266.625C559.187 265.75 558.323 265.312 557.219 265.312C555.989 265.312 555.104 265.781 554.562 266.719C554.021 267.635 553.76 268.75 553.781 270.062V270.25C554.114 269.667 554.583 269.219 555.187 268.906C555.791 268.594 556.458 268.438 557.187 268.438ZM556.937 274.812C557.687 274.812 558.333 274.583 558.875 274.125C559.416 273.646 559.687 273.031 559.687 272.281C559.687 271.51 559.437 270.896 558.937 270.438C558.437 269.979 557.802 269.75 557.031 269.75C556.26 269.75 555.604 269.979 555.062 270.438C554.541 270.896 554.281 271.49 554.281 272.219C554.281 272.99 554.521 273.615 555 274.094C555.5 274.573 556.146 274.812 556.937 274.812ZM571.531 265.594H565.094V269.188H570.125V270.625H565.094V276H563.469V264.125H571.531V265.594ZM576.5 263.969C578.041 263.969 579.187 264.542 579.937 265.688C580.708 266.812 581.094 268.219 581.094 269.906C581.094 271.677 580.687 273.167 579.875 274.375C579.083 275.562 577.864 276.156 576.219 276.156C575.489 276.156 574.802 276.021 574.156 275.75C573.51 275.458 572.979 275.042 572.562 274.5L573.625 273.5C574.25 274.375 575.114 274.812 576.219 274.812C577.448 274.812 578.333 274.354 578.875 273.438C579.416 272.5 579.677 271.375 579.656 270.062V269.875C579.323 270.458 578.854 270.906 578.25 271.219C577.646 271.531 576.979 271.688 576.25 271.688C575.104 271.688 574.146 271.354 573.375 270.688C572.625 270 572.25 269.083 572.25 267.938C572.25 267.188 572.437 266.51 572.812 265.906C573.208 265.302 573.729 264.833 574.375 264.5C575.041 264.146 575.75 263.969 576.5 263.969ZM576.406 270.375C577.177 270.375 577.823 270.146 578.344 269.688C578.885 269.229 579.156 268.635 579.156 267.906C579.156 267.135 578.906 266.51 578.406 266.031C577.927 265.552 577.291 265.312 576.5 265.312C575.75 265.312 575.104 265.552 574.562 266.031C574.021 266.49 573.75 267.094 573.75 267.844C573.75 268.615 574 269.229 574.5 269.688C575 270.146 575.635 270.375 576.406 270.375ZM591.969 265.594H585.531V269.188H590.562V270.625H585.531V276H583.906V264.125H591.969V265.594ZM602.219 265.594H595.781V269.188H600.812V270.625H595.781V276H594.156V264.125H602.219V265.594Z" fill="#222236" fill-opacity="0.3"/>
</g>
<defs>
<filter id="filter0_f" x="31" y="25" width="364" height="330" filterUnits="userSpaceOnUse" color-interpolation-filters="sRGB">
<feFlood flood-opacity="0" result="BackgroundImageFix"/>
<feBlend mode="normal" in="SourceGraphic" in2="BackgroundImageFix" result="shape"/>
<feGaussianBlur stdDeviation="21" result="effect1_foregroundBlur"/>
</filter>
<filter id="filter1_i" x="409.25" y="199.25" width="316.5" height="109.5" filterUnits="userSpaceOnUse" color-interpolation-filters="sRGB">
<feFlood flood-opacity="0" result="BackgroundImageFix"/>
<feBlend mode="normal" in="SourceGraphic" in2="BackgroundImageFix" result="shape"/>
<feColorMatrix in="SourceAlpha" type="matrix" values="0 0 0 0 0 0 0 0 0 0 0 0 0 0 0 0 0 0 127 0" result="hardAlpha"/>
<feOffset dx="1"/>
<feGaussianBlur stdDeviation="16.5"/>
<feComposite in2="hardAlpha" operator="arithmetic" k2="-1" k3="1"/>
<feColorMatrix type="matrix" values="0 0 0 0 0.137255 0 0 0 0 0.0862745 0 0 0 0 0.2 0 0 0 0.06 0"/>
<feBlend mode="normal" in2="shape" result="effect1_innerShadow"/>
</filter>
<linearGradient id="paint0_linear" x1="8.49997" y1="6.50004" x2="780" y2="360" gradientUnits="userSpaceOnUse">
<stop stop-color="white"/>
<stop offset="0.564808" stop-color="#F6F9FF"/>
</linearGradient>
<linearGradient id="paint1_linear" x1="353" y1="143.875" x2="69.2048" y2="155.247" gradientUnits="userSpaceOnUse">
<stop stop-color="#FF8383"/>
<stop offset="1" stop-color="#FF6464"/>
</linearGradient>
<linearGradient id="paint2_linear" x1="56" y1="132" x2="374.174" y2="145.739" gradientUnits="userSpaceOnUse">
<stop stop-color="#FF8383"/>
<stop offset="1" stop-color="#FF6464"/>
</linearGradient>
<linearGradient id="paint3_linear" x1="567" y1="200" x2="567" y2="308" gradientUnits="userSpaceOnUse">
<stop stop-color="#C3C5CF" stop-opacity="0.2"/>
<stop offset="1" stop-color="#C3C5CF" stop-opacity="0.08"/>
</linearGradient>
<clipPath id="clip0">
<rect width="780" height="360" fill="white"/>
</clipPath>
</defs>
</svg>
