<svg width="570" height="160" viewBox="0 0 570 160" fill="none" xmlns="http://www.w3.org/2000/svg">
<path fill-rule="evenodd" clip-rule="evenodd" d="M139.389 146.691C139.389 145.037 139.013 143.232 138.263 141.278L82.8676 9.09229C81.8167 6.23505 80.0903 4.05452 77.6883 2.55071C75.4365 0.896506 72.9595 0.0694054 70.2573 0.0694054C67.2548 -0.231353 64.5526 0.445361 62.1507 2.09955C59.7487 3.75375 57.9472 6.08467 56.7463 9.09229L0.675551 143.984C0.225184 145.488 0 146.917 0 148.27C0 151.879 0.975796 154.737 2.92739 156.842C5.0291 158.947 8.03155 160 11.9347 160C14.4868 160 16.8137 159.248 18.9154 157.744C21.1673 156.09 22.8186 153.834 23.8695 150.977L35.579 123.457H102.684L114.393 150.752C115.594 153.609 117.246 155.865 119.347 157.519C121.599 159.173 124.076 160 126.778 160C130.081 160 133.008 158.797 135.561 156.391C138.113 153.834 139.389 150.601 139.389 146.691ZM68.9062 44.7327L91.6497 97.5165H46.613L68.9062 44.7327ZM425.675 17.6443C425.188 17.1248 424.571 16.8651 423.825 16.8651H416.769C416.023 16.8651 415.392 17.1104 414.876 17.601C414.388 18.0916 414.144 18.712 414.144 19.4624C414.144 20.2127 414.388 20.8331 414.876 21.3237C415.392 21.8143 416.023 22.0596 416.769 22.0596H420.813V27.687C420.125 27.9179 419.322 28.1055 418.404 28.2498C417.486 28.3941 416.625 28.4662 415.822 28.4662C413.986 28.4662 412.294 28.0045 410.745 27.081C409.196 26.1287 407.963 24.8589 407.045 23.2717C406.155 21.6845 405.711 19.953 405.711 18.0772C405.711 16.2014 406.155 14.4698 407.045 12.8826C407.963 11.2954 409.196 10.0401 410.745 9.11658C412.294 8.16425 413.986 7.68809 415.822 7.68809C417.486 7.68809 419.092 8.01996 420.641 8.68371C421.158 8.91458 421.631 9.03001 422.061 9.03001C422.75 9.03001 423.323 8.77028 423.782 8.25083C424.27 7.70252 424.514 7.06763 424.514 6.34616C424.514 5.91329 424.399 5.50927 424.169 5.13411C423.969 4.75895 423.653 4.45593 423.223 4.22506C421.129 3.07072 418.662 2.49355 415.822 2.49355C412.982 2.49355 410.358 3.20059 407.948 4.61466C405.539 5.99986 403.631 7.8901 402.226 10.2854C400.82 12.6518 400.117 15.249 400.117 18.0772C400.117 20.9053 400.82 23.517 402.226 25.9122C403.631 28.2786 405.539 30.1689 407.948 31.583C410.358 32.9682 412.982 33.6608 415.822 33.6608C419.178 33.6608 422.262 32.7806 425.073 31.0202C425.962 30.4719 426.407 29.6927 426.407 28.6827V19.5057C426.407 18.7553 426.163 18.1349 425.675 17.6443ZM269.286 6.60589C269.286 5.59584 268.842 4.85995 267.952 4.39822C265.772 3.27273 263.406 2.70999 260.853 2.70999C257.898 2.70999 255.245 3.37374 252.893 4.70123C250.541 5.99986 248.691 7.81795 247.342 10.1555C246.023 12.493 245.363 15.1336 245.363 18.0772C245.363 21.3959 246.066 24.224 247.472 26.5616C248.877 28.8991 250.756 30.6739 253.108 31.886C255.46 33.0692 258.042 33.6608 260.853 33.6608C263.377 33.6608 265.758 33.098 267.995 31.9725C268.426 31.7705 268.756 31.4819 268.985 31.1068C269.215 30.7316 269.329 30.3132 269.329 29.8514C269.329 29.2166 269.114 28.625 268.684 28.0766C268.168 27.4417 267.536 27.1243 266.791 27.1243C266.389 27.1243 265.93 27.2397 265.414 27.4706C264.123 28.1344 262.603 28.4662 260.853 28.4662C257.898 28.4662 255.503 27.586 253.667 25.8257C251.86 24.0653 250.957 21.4825 250.957 18.0772C250.957 16.0859 251.358 14.3256 252.161 12.796C252.965 11.2377 254.112 10.0401 255.604 9.20316C257.095 8.3374 258.845 7.90453 260.853 7.90453C262.488 7.90453 264.008 8.2364 265.414 8.90015C265.901 9.15987 266.389 9.28974 266.877 9.28974C267.594 9.28974 268.182 8.98672 268.641 8.38069C269.071 7.80352 269.286 7.21192 269.286 6.60589ZM190.698 29.8514C190.841 30.2266 190.913 30.5729 190.913 30.8903C190.913 31.6407 190.669 32.2611 190.182 32.7517C189.694 33.2135 189.135 33.4443 188.503 33.4443C187.987 33.4443 187.514 33.2856 187.084 32.9682C186.682 32.6507 186.366 32.2178 186.137 31.6695L183.9 26.4317H171.078L168.84 31.7128C168.639 32.2611 168.324 32.694 167.894 33.0114C167.492 33.3 167.047 33.4443 166.56 33.4443C165.814 33.4443 165.24 33.2423 164.839 32.8383C164.466 32.4343 164.279 31.886 164.279 31.1934C164.279 30.9336 164.322 30.6595 164.408 30.3709L175.122 4.48479C175.352 3.90762 175.696 3.46031 176.155 3.14287C176.614 2.82543 177.13 2.69556 177.704 2.75328C178.22 2.75328 178.693 2.912 179.124 3.22945C179.583 3.51803 179.912 3.93648 180.113 4.48479L190.698 29.8514ZM181.791 21.4536L177.446 11.3243L173.186 21.4536H181.791ZM224.687 16.4322C226.207 17.0383 227.441 17.9617 228.387 19.2026C229.362 20.4436 229.85 22.0452 229.85 24.0076C229.85 27.4418 228.875 29.837 226.924 31.1934C224.974 32.5497 222.65 33.2279 219.954 33.2279H209.24C208.494 33.2279 207.863 32.9826 207.347 32.492C206.859 31.9725 206.615 31.3377 206.615 30.5873V5.56698C206.615 4.81666 206.859 4.19621 207.347 3.70561C207.863 3.18616 208.494 2.92643 209.24 2.92643H220.083C225.533 2.92643 228.258 5.49484 228.258 10.6317C228.258 11.9303 227.942 13.0846 227.311 14.0947C226.709 15.0759 225.834 15.8551 224.687 16.4322ZM222.665 11.584C222.665 10.4008 222.363 9.5206 221.761 8.94343C221.187 8.3374 220.37 8.03439 219.308 8.03439H212.209V14.7873H219.437C220.298 14.7873 221.044 14.4987 221.675 13.9215C222.335 13.3444 222.665 12.5652 222.665 11.584ZM219.954 28.2498C221.302 28.2498 222.349 27.8891 223.095 27.1676C223.869 26.4461 224.257 25.3928 224.257 24.0076C224.257 22.3049 223.812 21.1939 222.923 20.6744C222.033 20.155 220.943 19.8952 219.653 19.8952H212.209V28.2498H219.954ZM298.812 2.92643C301.509 2.92643 303.818 3.6046 305.74 4.96096C307.69 6.28845 309.168 8.10654 310.172 10.4152C311.204 12.695 311.721 15.249 311.721 18.0772C311.721 20.9053 311.204 23.4737 310.172 25.7824C309.168 28.0622 307.69 29.8803 305.74 31.2366C303.818 32.5641 301.509 33.2279 298.812 33.2279H288.529C287.783 33.2279 287.152 32.9826 286.636 32.492C286.148 31.9725 285.904 31.3377 285.904 30.5873V5.56698C285.904 4.81666 286.148 4.19621 286.636 3.70561C287.152 3.18616 287.783 2.92643 288.529 2.92643H298.812ZM298.382 28.2498C300.964 28.2498 302.9 27.2975 304.191 25.3928C305.482 23.4593 306.127 21.0207 306.127 18.0772C306.127 15.1336 305.467 12.7095 304.148 10.8048C302.857 8.87129 300.935 7.90453 298.382 7.90453H291.283V28.2498H298.382ZM347.61 29.029C347.122 28.5095 346.506 28.2498 345.76 28.2498H334.1V20.2415H343.824C344.598 20.2415 345.229 20.0251 345.717 19.5922C346.204 19.1305 346.448 18.5389 346.448 17.8174C346.448 17.0671 346.19 16.4611 345.674 15.9993C345.186 15.5087 344.569 15.2635 343.824 15.2635H334.1V7.90453H345.76C346.534 7.90453 347.165 7.68809 347.653 7.25521C348.141 6.79347 348.385 6.20187 348.385 5.48041C348.385 4.73009 348.126 4.12406 347.61 3.66232C347.122 3.17173 346.506 2.92643 345.76 2.92643H331.346C330.6 2.92643 329.969 3.18616 329.453 3.70561C328.965 4.19621 328.721 4.81666 328.721 5.56698V30.5873C328.721 31.3377 328.965 31.9725 329.453 32.492C329.969 32.9826 330.6 33.2279 331.346 33.2279H345.76C346.506 33.2279 347.122 32.997 347.61 32.5353C348.126 32.0735 348.385 31.4819 348.385 30.7605C348.385 30.0967 348.126 29.5196 347.61 29.029ZM370.782 7.90453V15.5232H380.076C380.821 15.5232 381.438 15.7685 381.926 16.2591C382.442 16.7208 382.7 17.3268 382.7 18.0772C382.7 18.712 382.442 19.2748 381.926 19.7654C381.438 20.256 380.821 20.5013 380.076 20.5013H370.782V30.5873C370.782 31.3377 370.509 31.9725 369.964 32.492C369.448 32.9826 368.831 33.2279 368.114 33.2279C367.311 33.2279 366.651 32.9826 366.135 32.492C365.647 32.0014 365.403 31.3665 365.403 30.5873V5.56698C365.403 4.81666 365.647 4.19621 366.135 3.70561C366.651 3.18616 367.282 2.92643 368.028 2.92643H382.012C382.758 2.92643 383.374 3.17173 383.862 3.66232C384.378 4.12406 384.636 4.73009 384.636 5.48041C384.636 6.1153 384.378 6.67804 383.862 7.16863C383.374 7.65923 382.758 7.90453 382.012 7.90453H370.782ZM465.456 2.92643C466.26 2.92643 466.905 3.17173 467.393 3.66232C467.88 4.15292 468.124 4.78781 468.124 5.56698V30.5873C468.124 31.3377 467.866 31.9725 467.35 32.492C466.833 32.9826 466.174 33.2279 465.37 33.2279C464.653 33.2279 464.037 32.9826 463.52 32.492C463.004 31.9725 462.746 31.3377 462.746 30.5873V20.5013H449.02V30.5873C449.02 31.3377 448.748 31.9725 448.203 32.492C447.658 32.9826 447.027 33.2279 446.309 33.2279C445.535 33.2279 444.89 32.9826 444.373 32.492C443.886 31.9725 443.642 31.3377 443.642 30.5873V5.56698C443.642 4.81666 443.9 4.19621 444.416 3.70561C444.933 3.18616 445.592 2.92643 446.396 2.92643C447.113 2.92643 447.729 3.18616 448.246 3.70561C448.762 4.19621 449.02 4.81666 449.02 5.56698V15.5232H462.746V5.56698C462.746 4.81666 463.018 4.19621 463.563 3.70561C464.108 3.18616 464.739 2.92643 465.456 2.92643ZM491.188 32.492C491.733 31.9725 492.005 31.3377 492.005 30.5873V5.56698C492.005 4.81666 491.747 4.19621 491.231 3.70561C490.714 3.18616 490.098 2.92643 489.38 2.92643C488.577 2.92643 487.918 3.18616 487.401 3.70561C486.885 4.19621 486.627 4.81666 486.627 5.56698V30.5873C486.627 31.3377 486.871 31.9725 487.358 32.492C487.875 32.9826 488.52 33.2279 489.294 33.2279C490.012 33.2279 490.643 32.9826 491.188 32.492ZM517.549 33.6608C515.914 33.6608 514.393 33.3289 512.988 32.6651C511.582 31.9725 510.435 31.0202 509.546 29.8082C509.201 29.2887 509.029 28.7837 509.029 28.2931C509.029 27.6005 509.302 27.0089 509.847 26.5183C510.392 25.9988 510.951 25.7391 511.525 25.7391C512.271 25.7391 513.074 26.172 513.934 27.0377C514.479 27.5572 515.039 27.9323 515.612 28.1632C516.186 28.3652 516.832 28.4662 517.549 28.4662C518.38 28.4662 519.169 28.2498 519.915 27.8169C520.69 27.384 521.306 26.8069 521.765 26.0854C522.224 25.3351 522.454 24.5559 522.454 23.7479V5.56698C522.454 4.81666 522.726 4.19621 523.271 3.70561C523.816 3.18616 524.447 2.92643 525.164 2.92643C525.968 2.92643 526.613 3.17173 527.101 3.66232C527.588 4.15292 527.832 4.78781 527.832 5.56698V23.7479C527.832 25.4794 527.373 27.1099 526.455 28.6394C525.537 30.1689 524.29 31.3954 522.712 32.3188C521.134 33.2135 519.413 33.6608 517.549 33.6608ZM569.828 29.5917C569.713 29.2454 569.57 28.9568 569.397 28.726L559.802 15.9561L569.182 6.95219C569.699 6.43274 569.957 5.87 569.957 5.26397C569.957 4.65794 569.727 4.08077 569.268 3.53246C568.809 2.98415 568.25 2.70999 567.59 2.70999C566.845 2.70999 566.142 3.04186 565.482 3.70561L551.713 17.3413V5.56698C551.713 4.78781 551.47 4.15292 550.982 3.66232C550.494 3.17173 549.863 2.92643 549.089 2.92643C548.286 2.92643 547.626 3.18616 547.109 3.70561C546.593 4.19621 546.335 4.81666 546.335 5.56698V30.5873C546.335 31.3377 546.579 31.9725 547.066 32.492C547.583 32.9826 548.228 33.2279 549.003 33.2279C549.806 33.2279 550.451 32.9826 550.939 32.492C551.455 32.0014 551.713 31.3665 551.713 30.5873V23.7911L555.801 19.852L565.138 32.2323C565.367 32.5497 565.654 32.795 565.998 32.9682C566.343 33.1413 566.701 33.2279 567.074 33.2279C567.849 33.2279 568.523 32.9682 569.096 32.4487C569.699 31.9293 570 31.2799 570 30.5008C570 30.2122 569.942 29.9092 569.828 29.5917ZM265.355 70.8916C263.747 69.873 261.952 69.3638 259.971 69.3638C258.621 69.3638 257.329 69.6891 256.094 70.3399C254.859 70.9623 253.897 71.698 253.208 72.5468V63.6767C253.208 62.9411 252.964 62.3328 252.476 61.8518C251.988 61.3425 251.37 61.0879 250.624 61.0879C249.877 61.0879 249.26 61.3425 248.772 61.8518C248.283 62.3328 248.039 62.9411 248.039 63.6767V90.3293C248.039 91.0933 248.283 91.7157 248.772 92.1967C249.26 92.6777 249.877 92.9182 250.624 92.9182C251.37 92.9182 251.988 92.6777 252.476 92.1967C252.964 91.6874 253.208 91.065 253.208 90.3293V90.0747C254.012 90.8669 255.017 91.546 256.223 92.1118C257.458 92.6494 258.765 92.9182 260.143 92.9182C262.067 92.9182 263.819 92.4231 265.398 91.4328C267.006 90.4142 268.269 89.0137 269.188 87.2312C270.107 85.4204 270.567 83.3833 270.567 81.1198C270.567 78.8563 270.093 76.8333 269.145 75.0508C268.226 73.2683 266.963 71.8819 265.355 70.8916ZM263.847 86.2126C262.67 87.5707 261.162 88.2498 259.325 88.2498C257.458 88.2498 255.936 87.5707 254.759 86.2126C253.581 84.8545 252.993 83.1569 252.993 81.1198C252.993 79.0826 253.581 77.3991 254.759 76.0694C255.936 74.7113 257.458 74.0322 259.325 74.0322C261.191 74.0322 262.699 74.7113 263.847 76.0694C265.025 77.3991 265.613 79.0826 265.613 81.1198C265.613 83.1569 265.025 84.8545 263.847 86.2126ZM229.633 70.0852C229.145 69.6043 228.528 69.3638 227.781 69.3638C227.035 69.3638 226.417 69.6184 225.929 70.1277C225.441 70.6087 225.197 71.217 225.197 71.9526V71.9951C224.364 71.2311 223.345 70.6087 222.139 70.1277C220.933 69.6184 219.64 69.3638 218.262 69.3638C216.338 69.3638 214.572 69.873 212.964 70.8916C211.385 71.8819 210.136 73.2824 209.217 75.0932C208.298 76.8757 207.838 78.8987 207.838 81.1622C207.838 83.4257 208.298 85.4487 209.217 87.2312C210.164 89.0137 211.442 90.4142 213.05 91.4328C214.658 92.4231 216.453 92.9182 218.434 92.9182C219.784 92.9182 221.062 92.6353 222.268 92.0694C223.503 91.4752 224.479 90.7679 225.197 89.9474C225.226 90.683 225.47 91.2913 225.929 91.7723C226.417 92.2533 227.035 92.4938 227.781 92.4938C228.528 92.4938 229.145 92.2533 229.633 91.7723C230.122 91.263 230.366 90.6406 230.366 89.9049V71.9526C230.366 71.1887 230.122 70.5662 229.633 70.0852ZM223.646 86.2551C222.469 87.5849 220.947 88.2498 219.08 88.2498C217.214 88.2498 215.692 87.5849 214.515 86.2551C213.366 84.897 212.792 83.1993 212.792 81.1622C212.792 79.1251 213.38 77.4274 214.558 76.0694C215.735 74.7113 217.243 74.0322 219.08 74.0322C220.947 74.0322 222.469 74.7113 223.646 76.0694C224.824 77.4274 225.412 79.1251 225.412 81.1622C225.412 83.1993 224.824 84.897 223.646 86.2551ZM296.984 69.3638C299.425 69.3638 301.392 69.7457 302.885 70.5097C304.378 71.2453 305.125 72.2356 305.125 73.4805C305.125 74.1029 304.938 74.6547 304.565 75.1357C304.192 75.5884 303.704 75.8147 303.101 75.8147C302.641 75.8147 302.268 75.7581 301.981 75.6449C301.694 75.5035 301.406 75.3337 301.119 75.1357C300.861 74.9093 300.602 74.7254 300.344 74.5839C300.057 74.4425 299.626 74.3151 299.052 74.202C298.506 74.0888 298.061 74.0322 297.717 74.0322C295.563 74.0322 293.869 74.6971 292.634 76.0269C291.428 77.3284 290.825 79.0402 290.825 81.1622C290.825 83.1993 291.442 84.897 292.677 86.2551C293.912 87.5849 295.491 88.2498 297.415 88.2498C298.822 88.2498 299.87 88.08 300.559 87.7405C300.732 87.6556 300.961 87.5141 301.249 87.3161C301.564 87.0897 301.852 86.92 302.11 86.8068C302.368 86.6936 302.684 86.637 303.058 86.637C303.775 86.637 304.335 86.8634 304.737 87.3161C305.168 87.7688 305.384 88.3488 305.384 89.0561C305.384 89.7352 304.982 90.3718 304.177 90.966C303.373 91.5601 302.311 92.0411 300.99 92.4089C299.669 92.7485 298.262 92.9182 296.769 92.9182C294.558 92.9182 292.605 92.4089 290.911 91.3904C289.245 90.3718 287.953 88.9712 287.034 87.1888C286.115 85.378 285.656 83.3691 285.656 81.1622C285.656 78.8704 286.13 76.8333 287.077 75.0508C288.054 73.2683 289.403 71.8819 291.126 70.8916C292.849 69.873 294.802 69.3638 296.984 69.3638ZM341.691 61.8094C341.203 61.3284 340.585 61.0879 339.839 61.0879C339.092 61.0879 338.475 61.3425 337.987 61.8518C337.498 62.3328 337.254 62.9411 337.254 63.6767V71.9951C336.422 71.2311 335.402 70.6087 334.196 70.1277C332.99 69.6184 331.698 69.3638 330.32 69.3638C328.396 69.3638 326.63 69.873 325.022 70.8916C323.442 71.8819 322.193 73.2824 321.274 75.0932C320.355 76.8757 319.896 78.8987 319.896 81.1622C319.896 83.4257 320.355 85.4487 321.274 87.2312C322.222 89.0137 323.5 90.4142 325.108 91.4328C326.716 92.4231 328.51 92.9182 330.492 92.9182C331.841 92.9182 333.119 92.6353 334.325 92.0694C335.56 91.4752 336.536 90.7679 337.254 89.9474C337.283 90.683 337.527 91.2913 337.987 91.7723C338.475 92.2533 339.092 92.4938 339.839 92.4938C340.585 92.4938 341.203 92.2533 341.691 91.7723C342.179 91.263 342.423 90.6406 342.423 89.9049V63.6767C342.423 62.9128 342.179 62.2903 341.691 61.8094ZM335.704 86.2551C334.526 87.5849 333.004 88.2498 331.138 88.2498C329.271 88.2498 327.749 87.5849 326.572 86.2551C325.424 84.897 324.849 83.1993 324.849 81.1622C324.849 79.1251 325.438 77.4274 326.615 76.0694C327.793 74.7113 329.3 74.0322 331.138 74.0322C333.004 74.0322 334.526 74.7113 335.704 76.0694C336.881 77.4274 337.47 79.1251 337.47 81.1622C337.47 83.1993 336.881 84.897 335.704 86.2551ZM380.772 80.6105C380.743 81.2895 380.47 81.8413 379.954 82.2657C379.437 82.6901 378.834 82.9023 378.144 82.9023H363.93C364.275 84.5716 365.065 85.8872 366.299 86.8492C367.534 87.7829 368.927 88.2498 370.477 88.2498C371.655 88.2498 372.574 88.1507 373.234 87.9527C373.895 87.7263 374.411 87.5 374.785 87.2736C375.187 87.019 375.46 86.8492 375.603 86.7643C376.12 86.5097 376.608 86.3824 377.068 86.3824C377.671 86.3824 378.188 86.5946 378.618 87.019C379.049 87.4434 379.264 87.9385 379.264 88.5044C379.264 89.2683 378.862 89.9615 378.058 90.584C377.254 91.2347 376.177 91.7865 374.828 92.2392C373.478 92.6919 372.114 92.9182 370.736 92.9182C368.324 92.9182 366.213 92.4231 364.404 91.4328C362.624 90.4425 361.245 89.0844 360.269 87.3585C359.293 85.6043 358.805 83.6379 358.805 81.4593C358.805 79.026 359.322 76.8899 360.355 75.0508C361.389 73.2117 362.753 71.8112 364.447 70.8492C366.141 69.8589 367.951 69.3638 369.874 69.3638C371.77 69.3638 373.55 69.873 375.215 70.8916C376.91 71.9102 378.259 73.2824 379.264 75.0083C380.269 76.7342 380.772 78.6016 380.772 80.6105ZM369.874 74.0322C366.543 74.0322 364.576 75.5742 363.973 78.6582H375.259V78.3611C375.144 77.1728 374.555 76.1542 373.493 75.3054C372.43 74.4566 371.224 74.0322 369.874 74.0322ZM406.157 66.4354C406.559 65.8695 407.248 65.5866 408.225 65.5866C408.684 65.5866 409.258 65.6714 409.948 65.8412C410.12 65.8695 410.278 65.8978 410.421 65.9261C410.594 65.9544 410.752 65.9685 410.895 65.9685C411.47 65.9685 411.958 65.7563 412.36 65.3319C412.762 64.9075 412.963 64.3558 412.963 63.6767C412.963 62.7996 412.561 62.1489 411.757 61.7245C410.981 61.3001 410.062 61.0879 409 61.0879C406.215 61.0879 404.075 61.7528 402.582 63.0826C401.118 64.4124 400.385 66.1383 400.385 68.2603V70.2126H398.059C397.37 70.2126 396.796 70.4389 396.336 70.8916C395.877 71.316 395.647 71.8677 395.647 72.5468C395.647 73.2258 395.877 73.7917 396.336 74.2444C396.796 74.6688 397.37 74.881 398.059 74.881H400.385V89.9049C400.385 90.6406 400.629 91.263 401.118 91.7723C401.606 92.2533 402.223 92.4938 402.97 92.4938C403.716 92.4938 404.334 92.2533 404.822 91.7723C405.31 91.263 405.554 90.6406 405.554 89.9049V74.881H409.474C410.163 74.881 410.737 74.6688 411.197 74.2444C411.656 73.7917 411.886 73.2258 411.886 72.5468C411.886 71.8677 411.656 71.316 411.197 70.8916C410.737 70.4389 410.163 70.2126 409.474 70.2126H405.554V68.2179C405.554 67.5671 405.755 66.9729 406.157 66.4354ZM446.27 69.3638C447.016 69.3638 447.634 69.6043 448.122 70.0852C448.61 70.5662 448.854 71.1887 448.854 71.9526V90.8386C448.854 94.2905 447.763 96.8369 445.581 98.4779C443.427 100.147 440.685 100.982 437.354 100.982C436.492 100.982 435.3 100.84 433.778 100.557C432.285 100.275 431.223 99.9916 430.591 99.7087C429.184 99.1145 428.48 98.294 428.48 97.2471C428.48 97.0491 428.524 96.8227 428.61 96.5681C428.782 95.9456 429.069 95.4646 429.471 95.1251C429.902 94.8139 430.361 94.6583 430.85 94.6583C431.137 94.6583 431.409 94.7007 431.668 94.7856C431.783 94.8139 432.486 95.0685 433.778 95.5495C435.099 96.0588 436.291 96.3134 437.354 96.3134C439.478 96.3134 441.058 95.889 442.092 95.0402C443.154 94.2197 443.685 93.0455 443.685 91.5177V89.4805C443.054 90.3576 442.092 91.1499 440.799 91.8572C439.536 92.5645 438.172 92.9182 436.707 92.9182C434.697 92.9182 432.86 92.4231 431.194 91.4328C429.557 90.4142 428.265 89.0137 427.318 87.2312C426.37 85.4487 425.896 83.4257 425.896 81.1622C425.896 78.8987 426.356 76.8757 427.274 75.0932C428.222 73.2824 429.5 71.8819 431.108 70.8916C432.745 69.873 434.554 69.3638 436.535 69.3638C438 69.3638 439.364 69.6608 440.627 70.255C441.891 70.8492 442.91 71.5707 443.685 72.4195V71.9526C443.685 71.217 443.929 70.6087 444.418 70.1277C444.906 69.6184 445.523 69.3638 446.27 69.3638ZM437.354 88.2498C439.277 88.2498 440.842 87.5849 442.049 86.2551C443.283 84.897 443.901 83.1993 443.901 81.1622C443.901 79.1251 443.283 77.4274 442.049 76.0694C440.842 74.7113 439.277 74.0322 437.354 74.0322C435.43 74.0322 433.865 74.7113 432.659 76.0694C431.453 77.4274 430.85 79.1251 430.85 81.1622C430.85 83.1993 431.453 84.897 432.659 86.2551C433.865 87.5849 435.43 88.2498 437.354 88.2498ZM484.522 71.9526C483.431 70.2267 481.464 69.3638 478.621 69.3638C477.157 69.3638 475.822 69.7316 474.616 70.4672C473.438 71.1745 472.462 72.0375 471.687 73.0561V63.6767C471.687 62.9411 471.442 62.3328 470.954 61.8518C470.466 61.3425 469.849 61.0879 469.102 61.0879C468.356 61.0879 467.738 61.3425 467.25 61.8518C466.762 62.3328 466.518 62.9411 466.518 63.6767V89.9049C466.518 90.6406 466.762 91.263 467.25 91.7723C467.738 92.2533 468.356 92.4938 469.102 92.4938C469.849 92.4938 470.466 92.2533 470.954 91.7723C471.442 91.263 471.687 90.6406 471.687 89.9049V79.0402C471.687 77.5972 472.132 76.4089 473.022 75.4752C473.941 74.5132 475.204 74.0322 476.812 74.0322C478.363 74.0322 479.44 74.4849 480.043 75.3903C480.674 76.2674 480.99 77.484 480.99 79.0402V89.9049C480.99 90.6406 481.234 91.263 481.723 91.7723C482.211 92.2533 482.828 92.4938 483.575 92.4938C484.321 92.4938 484.939 92.2533 485.427 91.7723C485.915 91.263 486.159 90.6406 486.159 89.9049V79.0402C486.159 76.0128 485.613 73.6502 484.522 71.9526ZM508.695 89.9049C508.695 90.6406 508.451 91.263 507.963 91.7723C507.475 92.2533 506.858 92.4938 506.111 92.4938C505.364 92.4938 504.747 92.2533 504.259 91.7723C503.771 91.263 503.527 90.6406 503.527 89.9049V72.377C503.527 71.6414 503.771 71.0331 504.259 70.5521C504.747 70.0428 505.364 69.7882 506.111 69.7882C506.858 69.7882 507.475 70.0428 507.963 70.5521C508.451 71.0331 508.695 71.6414 508.695 72.377V89.9049ZM506.068 67.0295C505.092 67.0295 504.402 66.8739 504 66.5627C503.598 66.2515 503.397 65.6997 503.397 64.9075V64.1011C503.397 63.3089 503.613 62.7572 504.044 62.446C504.474 62.1347 505.163 61.9791 506.111 61.9791C507.116 61.9791 507.82 62.1347 508.222 62.446C508.624 62.7572 508.825 63.3089 508.825 64.1011V64.9075C508.825 65.728 508.609 66.2939 508.179 66.6051C507.777 66.8881 507.073 67.0295 506.068 67.0295ZM523.108 100.133C523.567 100.586 524.142 100.812 524.831 100.812C526.152 100.812 527.343 100.487 528.406 99.836C529.497 99.1852 530.344 98.2657 530.947 97.0774C531.579 95.889 531.895 94.5027 531.895 92.9182V72.377C531.895 71.6414 531.651 71.0331 531.162 70.5521C530.674 70.0428 530.057 69.7882 529.31 69.7882C528.564 69.7882 527.946 70.0428 527.458 70.5521C526.97 71.0331 526.726 71.6414 526.726 72.377V91.4328C526.726 92.6211 526.597 93.5407 526.338 94.1914C526.109 94.8705 525.534 95.3515 524.615 95.6344C523.151 96.0588 522.419 96.8369 522.419 97.9686V98.4355C522.419 99.1145 522.648 99.6804 523.108 100.133ZM527.157 66.5627C527.559 66.8739 528.248 67.0295 529.224 67.0295C530.229 67.0295 530.933 66.8881 531.335 66.6051C531.765 66.2939 531.981 65.728 531.981 64.9075V64.1011C531.981 63.3089 531.78 62.7572 531.378 62.446C530.976 62.1347 530.272 61.9791 529.267 61.9791C528.32 61.9791 527.63 62.1347 527.2 62.446C526.769 62.7572 526.554 63.3089 526.554 64.1011V64.9075C526.554 65.6997 526.755 66.2515 527.157 66.5627ZM569.182 88.0376C569.727 88.6034 570 89.24 570 89.9474C570 90.6547 569.713 91.2489 569.138 91.7299C568.593 92.2109 568.004 92.4514 567.372 92.4514C566.626 92.4514 565.994 92.1684 565.477 91.6026L557.724 83.5389L555.614 85.4487V89.9049C555.614 90.6406 555.369 91.263 554.881 91.7723C554.393 92.2533 553.776 92.4938 553.029 92.4938C552.283 92.4938 551.665 92.2533 551.177 91.7723C550.689 91.263 550.445 90.6406 550.445 89.9049V63.6767C550.445 62.9411 550.689 62.3328 551.177 61.8518C551.665 61.3425 552.283 61.0879 553.029 61.0879C553.776 61.0879 554.393 61.3425 554.881 61.8518C555.369 62.3328 555.614 62.9411 555.614 63.6767V79.3797L564.831 70.5945C565.377 70.057 566.008 69.7882 566.726 69.7882C567.358 69.7882 567.918 70.057 568.406 70.5945C568.923 71.1038 569.182 71.6273 569.182 72.1648C569.182 72.8439 568.837 73.4805 568.148 74.0746L561.644 79.9739L569.182 88.0376ZM565.192 130.09C563.646 128.969 561.886 128.409 559.911 128.409C558.079 128.409 556.405 128.855 554.888 129.745C553.371 130.636 552.155 131.858 551.239 133.41C550.351 134.933 549.908 136.6 549.908 138.41C549.908 140.192 550.366 141.859 551.282 143.411C552.198 144.934 553.371 146.155 554.802 147.075C556.262 147.966 557.736 148.411 559.224 148.411C561.056 148.411 562.687 147.793 564.118 146.558C563.403 148.397 562.272 149.978 560.727 151.3C559.21 152.621 557.55 153.541 555.747 154.058C555.06 154.26 554.501 154.604 554.072 155.093C553.672 155.553 553.471 156.099 553.471 156.731C553.471 157.565 553.714 158.182 554.201 158.585C554.688 158.958 555.303 159.145 556.047 159.145C556.362 159.145 556.691 159.102 557.034 159.016C560.355 158.068 562.973 156.472 564.891 154.231C566.837 151.989 568.168 149.618 568.884 147.118C569.628 144.589 570 142.276 570 140.178C570 138.137 569.585 136.226 568.755 134.444C567.925 132.634 566.737 131.182 565.192 130.09ZM563.345 142.161C562.43 143.166 561.285 143.669 559.911 143.669C558.566 143.669 557.421 143.166 556.476 142.161C555.532 141.155 555.06 139.905 555.06 138.41C555.06 136.916 555.532 135.666 556.476 134.66C557.421 133.654 558.566 133.151 559.911 133.151C561.285 133.151 562.43 133.654 563.345 134.66C564.29 135.666 564.762 136.916 564.762 138.41C564.762 139.905 564.29 141.155 563.345 142.161ZM309.374 154.403C310.061 154.403 310.633 154.633 311.091 155.093C311.549 155.553 311.778 156.128 311.778 156.817C311.778 157.478 311.549 158.039 311.091 158.499C310.633 158.93 310.061 159.145 309.374 159.145H294.777C294.033 159.145 293.446 158.915 293.017 158.455C292.587 157.996 292.373 157.407 292.373 156.688C292.373 155.97 292.63 155.337 293.146 154.791L302.505 144.747C303.564 143.598 304.394 142.448 304.995 141.298C305.624 140.12 305.939 139.042 305.939 138.065C305.939 136.772 305.481 135.651 304.565 134.703C303.649 133.754 302.591 133.28 301.388 133.28C300.558 133.28 299.714 133.568 298.855 134.142C298.025 134.688 297.267 135.421 296.58 136.341C296.065 137.031 295.407 137.376 294.605 137.376C293.976 137.376 293.389 137.131 292.845 136.643C292.33 136.154 292.072 135.608 292.072 135.005C292.072 134.574 292.215 134.142 292.502 133.711C292.788 133.252 293.217 132.734 293.789 132.159C294.877 131.067 296.136 130.191 297.567 129.53C298.999 128.869 300.372 128.538 301.689 128.538C303.578 128.538 305.238 128.941 306.669 129.745C308.1 130.55 309.202 131.657 309.975 133.065C310.748 134.473 311.134 136.068 311.134 137.85C311.134 139.603 310.662 141.413 309.717 143.281C308.801 145.121 307.556 146.888 305.982 148.584L300.53 154.403H309.374ZM272.258 128.969C272.973 128.969 273.574 129.228 274.061 129.745C274.548 130.234 274.791 130.852 274.791 131.599V156.516C274.791 157.263 274.519 157.895 273.975 158.412C273.431 158.901 272.759 159.145 271.957 159.145C271.156 159.145 270.498 158.901 269.982 158.412C269.467 157.895 269.21 157.263 269.21 156.516V136.082L266.548 137.72C266.119 137.979 265.661 138.108 265.174 138.108C264.459 138.108 263.843 137.835 263.328 137.289C262.841 136.743 262.598 136.14 262.598 135.479C262.598 135.019 262.713 134.588 262.942 134.186C263.199 133.783 263.528 133.467 263.929 133.237L270.412 129.357C270.898 129.099 271.514 128.969 272.258 128.969ZM341.976 141.385C340.774 140.522 339.386 140.063 337.812 140.005L343.565 133.625C344.252 132.935 344.595 132.246 344.595 131.556C344.595 130.78 344.366 130.162 343.908 129.702C343.45 129.214 342.792 128.969 341.934 128.969H328.796C328.109 128.969 327.537 129.199 327.079 129.659C326.621 130.09 326.392 130.636 326.392 131.297C326.392 131.987 326.621 132.562 327.079 133.022C327.537 133.481 328.109 133.711 328.796 133.711H337.297L330.642 140.997C330.299 141.37 330.056 141.715 329.913 142.031C329.77 142.347 329.698 142.707 329.698 143.109C329.698 143.77 329.884 144.33 330.256 144.79C330.628 145.221 331.129 145.437 331.759 145.437C332.245 145.437 332.861 145.322 333.605 145.092C333.691 145.063 333.948 144.991 334.378 144.876C334.807 144.761 335.308 144.704 335.88 144.704C337.197 144.704 338.313 145.135 339.229 145.997C340.173 146.859 340.646 148.066 340.646 149.618C340.646 150.71 340.388 151.687 339.873 152.55C339.386 153.383 338.742 154.03 337.941 154.49C337.139 154.921 336.295 155.136 335.408 155.136C333.92 155.136 332.56 154.662 331.329 153.714C330.671 153.282 330.056 153.067 329.483 153.067C328.796 153.067 328.21 153.354 327.723 153.929C327.237 154.504 326.993 155.136 326.993 155.826C326.993 156.803 327.523 157.579 328.582 158.154C329.354 158.585 330.256 158.93 331.286 159.188C332.317 159.447 333.347 159.576 334.378 159.576C336.667 159.576 338.671 159.16 340.388 158.326C342.105 157.493 343.436 156.3 344.381 154.748C345.325 153.168 345.797 151.328 345.797 149.23C345.797 147.65 345.468 146.17 344.81 144.79C344.152 143.382 343.207 142.247 341.976 141.385ZM384.124 146.213C384.811 146.213 385.383 146.443 385.841 146.902C386.299 147.362 386.528 147.937 386.528 148.627C386.528 149.288 386.299 149.848 385.841 150.308C385.383 150.739 384.811 150.955 384.124 150.955H382.321V156.516C382.321 157.263 382.063 157.895 381.548 158.412C381.062 158.901 380.446 159.145 379.702 159.145C378.987 159.145 378.386 158.901 377.899 158.412C377.412 157.895 377.169 157.263 377.169 156.516V150.955H366.007C365.377 150.955 364.79 150.71 364.247 150.222C363.703 149.705 363.431 149.101 363.431 148.411C363.431 147.779 363.646 147.204 364.075 146.687L377.641 130.004C378.185 129.314 378.901 128.969 379.788 128.969C380.504 128.969 381.105 129.228 381.591 129.745C382.078 130.234 382.321 130.852 382.321 131.599V146.213H384.124ZM377.169 146.213V137.591L370.214 146.213H377.169ZM418.911 140.221C417.394 139.33 415.691 138.884 413.802 138.884C413.058 138.884 412.271 138.985 411.441 139.186C410.611 139.387 409.924 139.646 409.38 139.962L410.196 133.711H420.843C421.53 133.711 422.102 133.496 422.56 133.065C423.018 132.605 423.247 132.045 423.247 131.384C423.247 130.694 423.018 130.119 422.56 129.659C422.102 129.199 421.53 128.969 420.843 128.969H408.436C407.777 128.969 407.205 129.171 406.718 129.573C406.26 129.947 405.974 130.435 405.86 131.039L404.529 141.729C404.5 141.844 404.486 142.046 404.486 142.333C404.486 143.166 404.715 143.885 405.173 144.488C405.659 145.092 406.461 145.394 407.577 145.394C407.892 145.394 408.192 145.336 408.479 145.221C408.793 145.106 409.208 144.92 409.724 144.661C410.439 144.316 411.054 144.057 411.57 143.885C412.085 143.712 412.672 143.626 413.33 143.626C414.79 143.626 416.049 144.115 417.108 145.092C418.167 146.069 418.696 147.334 418.696 148.885C418.696 149.949 418.382 150.94 417.752 151.86C417.151 152.78 416.335 153.512 415.305 154.058C414.274 154.604 413.172 154.878 411.999 154.878C411.083 154.878 410.024 154.504 408.822 153.757C408.049 153.211 407.405 152.938 406.89 152.938C406.175 152.938 405.588 153.153 405.13 153.584C404.701 153.987 404.486 154.446 404.486 154.964C404.486 155.424 404.6 155.912 404.829 156.429C405.058 156.947 405.345 157.349 405.688 157.636C406.432 158.24 407.391 158.714 408.564 159.059C409.767 159.404 410.926 159.576 412.042 159.576C414.131 159.576 416.077 159.102 417.881 158.154C419.684 157.177 421.129 155.869 422.217 154.231C423.304 152.593 423.848 150.811 423.848 148.885C423.848 147.017 423.405 145.322 422.517 143.799C421.659 142.276 420.457 141.083 418.911 140.221ZM451.384 139.574C452.872 139.574 454.332 140.034 455.763 140.954C457.222 141.844 458.41 143.066 459.326 144.618C460.242 146.141 460.7 147.793 460.7 149.575C460.7 151.386 460.242 153.067 459.326 154.619C458.439 156.142 457.237 157.349 455.72 158.24C454.203 159.131 452.528 159.576 450.697 159.576C448.722 159.576 446.962 159.03 445.416 157.938C443.87 156.817 442.683 155.366 441.853 153.584C441.023 151.774 440.608 149.848 440.608 147.808C440.608 145.71 440.965 143.411 441.681 140.91C442.425 138.381 443.756 135.996 445.674 133.754C447.62 131.513 450.253 129.918 453.573 128.969C453.917 128.883 454.246 128.84 454.561 128.84C455.305 128.84 455.92 129.041 456.407 129.444C456.893 129.817 457.136 130.421 457.136 131.254C457.136 131.886 456.922 132.447 456.492 132.935C456.092 133.395 455.548 133.726 454.861 133.927C453.058 134.444 451.384 135.364 449.838 136.686C448.321 138.008 447.205 139.588 446.489 141.428C447.92 140.192 449.552 139.574 451.384 139.574ZM450.697 154.834C452.042 154.834 453.187 154.331 454.131 153.326C455.076 152.32 455.548 151.07 455.548 149.575C455.548 148.081 455.076 146.831 454.131 145.825C453.187 144.819 452.042 144.316 450.697 144.316C449.323 144.316 448.164 144.819 447.219 145.825C446.303 146.831 445.845 148.081 445.845 149.575C445.845 151.07 446.303 152.32 447.219 153.326C448.164 154.331 449.323 154.834 450.697 154.834ZM496.296 129.702C495.752 129.214 495.108 128.969 494.364 128.969H479.423C478.737 128.969 478.164 129.199 477.706 129.659C477.248 130.09 477.019 130.636 477.019 131.297C477.019 131.987 477.248 132.562 477.706 133.022C478.164 133.481 478.737 133.711 479.423 133.711H490.843L480.84 155.697C480.668 156.07 480.583 156.458 480.583 156.86C480.583 157.55 480.84 158.139 481.355 158.628C481.899 159.116 482.529 159.361 483.244 159.361C483.76 159.361 484.232 159.217 484.661 158.93C485.09 158.642 485.405 158.24 485.606 157.723L496.897 132.677C497.068 132.274 497.154 131.886 497.154 131.513C497.154 130.766 496.868 130.162 496.296 129.702ZM529.293 143.411C530.639 144.215 531.683 145.221 532.427 146.428C533.2 147.607 533.587 148.842 533.587 150.136C533.587 151.774 533.129 153.282 532.213 154.662C531.326 156.041 530.109 157.133 528.564 157.938C527.047 158.743 525.372 159.145 523.541 159.145C521.709 159.145 520.02 158.743 518.475 157.938C516.958 157.133 515.741 156.041 514.825 154.662C513.938 153.282 513.495 151.774 513.495 150.136C513.495 147.377 514.883 145.135 517.659 143.411C516.657 142.836 515.827 142.06 515.169 141.083C514.539 140.106 514.224 138.956 514.224 137.634C514.224 136.054 514.639 134.602 515.469 133.28C516.299 131.958 517.416 130.909 518.818 130.133C520.249 129.357 521.823 128.969 523.541 128.969C525.258 128.969 526.818 129.357 528.22 130.133C529.651 130.909 530.767 131.958 531.569 133.28C532.399 134.602 532.814 136.054 532.814 137.634C532.814 139.071 532.47 140.264 531.784 141.212C531.125 142.132 530.295 142.865 529.293 143.411ZM523.541 133.711C522.339 133.711 521.337 134.099 520.535 134.875C519.763 135.623 519.376 136.571 519.376 137.72C519.376 138.899 519.763 139.876 520.535 140.652C521.337 141.399 522.339 141.773 523.541 141.773C524.714 141.773 525.687 141.385 526.46 140.609C527.261 139.833 527.662 138.87 527.662 137.72C527.662 136.571 527.261 135.623 526.46 134.875C525.687 134.099 524.714 133.711 523.541 133.711ZM523.541 154.403C524.914 154.403 526.074 153.987 527.018 153.153C527.963 152.291 528.435 151.256 528.435 150.049C528.435 148.814 527.963 147.779 527.018 146.946C526.074 146.083 524.914 145.652 523.541 145.652C522.167 145.652 521.008 146.083 520.063 146.946C519.119 147.779 518.646 148.814 518.646 150.049C518.646 151.256 519.119 152.291 520.063 153.153C521.008 153.987 522.167 154.403 523.541 154.403Z" fill="url(#paint0_linear)"/>
<defs>
<linearGradient id="paint0_linear" x1="570" y1="-8.51465" x2="298.622" y2="372.802" gradientUnits="userSpaceOnUse">
<stop stop-color="#FFA22E"/>
<stop offset="1" stop-color="#FB781F"/>
</linearGradient>
</defs>
</svg>
