<svg width="498" height="116" viewBox="0 0 498 116" fill="none" xmlns="http://www.w3.org/2000/svg">
<path d="M492 -9.7478e-08C495.314 -4.36423e-08 498 2.68629 498 6L498 102C498 105.314 495.314 108 492 108L10.9472 108C10.5149 108 10.0942 108.14 9.74819 108.399L1.59945 114.503C0.940149 114.996 -3.63581e-05 114.526 -3.63221e-05 113.702L-3.16143e-05 5.99999C-3.14695e-05 2.68628 2.68625 -8.04703e-06 5.99997 -7.9932e-06L492 -9.7478e-08Z" fill="white"/>
<path d="M33.4688 32.1562C32.5104 32.1562 31.5938 32.0104 30.7188 31.7188C29.8438 31.4062 29.0938 30.9792 28.4688 30.4375L29.8125 28.625C30.8333 29.6042 32.0833 30.0938 33.5625 30.0938C34.2917 30.0938 34.8542 29.9792 35.25 29.75C35.6667 29.5 35.875 29.1562 35.875 28.7188C35.875 28.3438 35.6979 28.0625 35.3438 27.875C35.0104 27.6875 34.3646 27.4583 33.4062 27.1875C32.4688 26.9167 31.6979 26.6562 31.0938 26.4062C30.5104 26.1354 30 25.7604 29.5625 25.2812C29.1458 24.8021 28.9375 24.1875 28.9375 23.4375C28.9375 22.3542 29.3542 21.5104 30.1875 20.9062C31.0208 20.2812 32.1562 19.9688 33.5938 19.9688C35.2604 19.9688 36.7396 20.4479 38.0312 21.4062L36.7188 23.1875C35.8021 22.4375 34.7188 22.0625 33.4688 22.0625C32.8229 22.0625 32.3021 22.1771 31.9062 22.4062C31.5104 22.6354 31.3125 22.9375 31.3125 23.3125C31.3125 23.6875 31.5104 23.9896 31.9062 24.2188C32.3229 24.4479 33 24.6875 33.9375 24.9375C35.3333 25.3125 36.4062 25.75 37.1562 26.25C37.9271 26.75 38.3125 27.5104 38.3125 28.5312C38.3125 29.6771 37.8854 30.5729 37.0312 31.2188C36.1771 31.8438 34.9896 32.1562 33.4688 32.1562ZM48.5312 30.0625V32C48.3229 32.0417 48.0521 32.0625 47.7188 32.0625C47.1354 32.0625 46.6875 31.9479 46.375 31.7188C46.0833 31.4896 45.8958 31.125 45.8125 30.625C45.4583 31.1042 44.9896 31.4792 44.4062 31.75C43.8438 32.0208 43.2188 32.1562 42.5312 32.1562C41.6146 32.1562 40.875 31.9062 40.3125 31.4062C39.75 30.9062 39.4688 30.2396 39.4688 29.4062C39.4688 28.3438 39.8438 27.6042 40.5938 27.1875C41.3438 26.7708 42.3125 26.4896 43.5 26.3438C44.2083 26.2604 44.7188 26.1562 45.0312 26.0312C45.3438 25.9062 45.5 25.6979 45.5 25.4062C45.5 25.0729 45.3333 24.8125 45 24.625C44.6875 24.4167 44.25 24.3125 43.6875 24.3125C42.6875 24.3125 41.8021 24.6979 41.0312 25.4688L39.6875 24.0625C40.8125 23 42.1875 22.4688 43.8125 22.4688C45 22.4688 45.9271 22.75 46.5938 23.3125C47.2604 23.8542 47.5938 24.6146 47.5938 25.5938V29.5C47.5938 29.875 47.7812 30.0625 48.1562 30.0625H48.5312ZM43 30.375C43.6667 30.375 44.2396 30.1771 44.7188 29.7812C45.1979 29.3854 45.4375 28.9167 45.4375 28.375V27.4062C45.1667 27.5521 44.6042 27.6979 43.75 27.8438C43.0417 27.9688 42.5104 28.1146 42.1562 28.2812C41.8229 28.4479 41.6562 28.7604 41.6562 29.2188C41.6562 29.5729 41.7708 29.8542 42 30.0625C42.25 30.2708 42.5833 30.375 43 30.375ZM55.7812 22.4688C56.7812 22.4688 57.5938 22.8021 58.2188 23.4688C58.8646 24.1354 59.1875 25 59.1875 26.0625V32H56.9375V26.5938C56.9375 25.8854 56.7708 25.3333 56.4375 24.9375C56.125 24.5417 55.6771 24.3438 55.0938 24.3438C54.4271 24.3438 53.8646 24.5625 53.4062 25C52.9479 25.4167 52.7188 25.9583 52.7188 26.625V32H50.4688V22.625H52.4688L52.5938 24C52.9479 23.5208 53.3958 23.1458 53.9375 22.875C54.5 22.6042 55.1146 22.4688 55.7812 22.4688ZM70.3438 19.5V32H68.3438L68.2188 30.5938C67.8646 31.0938 67.4167 31.4792 66.875 31.75C66.3333 32.0208 65.7396 32.1562 65.0938 32.1562C63.8646 32.1562 62.8854 31.7188 62.1562 30.8438C61.4271 29.9479 61.0625 28.7708 61.0625 27.3125C61.0625 25.875 61.4375 24.7083 62.1875 23.8125C62.9375 22.9167 63.9062 22.4688 65.0938 22.4688C66.3646 22.4688 67.3646 22.9167 68.0938 23.8125V19.5H70.3438ZM65.7812 30.2812C66.5312 30.2812 67.1146 30.0208 67.5312 29.5C67.9688 28.9583 68.1875 28.2292 68.1875 27.3125C68.1875 26.3958 67.9688 25.6771 67.5312 25.1562C67.1146 24.6146 66.5312 24.3438 65.7812 24.3438C65.0312 24.3438 64.4375 24.6146 64 25.1562C63.5625 25.6771 63.3438 26.3958 63.3438 27.3125C63.3438 28.2292 63.5625 28.9583 64 29.5C64.4375 30.0208 65.0312 30.2812 65.7812 30.2812ZM74.625 28.0312C74.7292 28.7396 75.0104 29.2917 75.4688 29.6875C75.9271 30.0833 76.5208 30.2812 77.25 30.2812C78.375 30.2812 79.2604 29.9062 79.9062 29.1562L81.3125 30.5C80.3542 31.6042 79 32.1562 77.25 32.1562C75.6875 32.1562 74.4792 31.7083 73.625 30.8125C72.7917 29.9167 72.375 28.75 72.375 27.3125C72.375 25.875 72.8021 24.7083 73.6562 23.8125C74.5312 22.9167 75.6771 22.4688 77.0938 22.4688C78.4896 22.4688 79.6042 22.9167 80.4375 23.8125C81.2708 24.6875 81.6875 25.8542 81.6875 27.3125C81.6875 27.5833 81.6562 27.8229 81.5938 28.0312H74.625ZM77.0938 24.2812C76.4479 24.2812 75.9062 24.4688 75.4688 24.8438C75.0521 25.1979 74.7812 25.7083 74.6562 26.375H79.4062C79.2812 25.7083 79.0104 25.1979 78.5938 24.8438C78.1979 24.4688 77.6979 24.2812 77.0938 24.2812ZM89 22.5C89.1875 22.5 89.4479 22.5208 89.7812 22.5625L89.75 24.6875C89.2917 24.625 88.8333 24.5938 88.375 24.5938C87.6458 24.5938 87.0521 24.7917 86.5938 25.1875C86.1562 25.5833 85.9375 26.1354 85.9375 26.8438V32H83.6875V22.625H85.6875L85.8125 24.0938C86.1667 23.5938 86.6146 23.2083 87.1562 22.9375C87.6979 22.6458 88.3125 22.5 89 22.5Z" fill="#3F56BA"/>
<path d="M38.625 47.125H28.3125V48.625H32.6562V59H34.2812V48.625H38.625V47.125ZM45.3125 49.4688C43.9375 49.4688 42.7812 50.0625 42.0625 51V46.5H40.5V59H42.0625V53.5938C42.0625 51.9688 43.3438 50.8438 44.9375 50.8438C46.3438 50.8438 47.1875 51.8125 47.1875 53.5312V59H48.75V53.0625C48.75 50.9062 47.3438 49.4688 45.3125 49.4688ZM52.5938 54.8125H60C60.0312 54.6562 60.0312 54.5 60.0312 54.3125C60.0312 51.375 58.2812 49.4688 55.5938 49.4688C52.9062 49.4688 51 51.4375 51 54.3125C51 57.0938 52.7188 59.1562 55.75 59.1562C57.7812 59.1562 59.0625 58.375 59.75 57.4688L58.625 56.5C58.125 57.2188 57.25 57.7812 55.7188 57.7812C53.9375 57.7812 52.7812 56.625 52.5938 54.8125ZM55.5938 50.8125C57.125 50.8125 58.1875 51.875 58.4062 53.5625H52.625C52.875 51.875 53.9688 50.8125 55.5938 50.8125ZM68.7812 49.625L65.9688 57.8438L62.5312 49.625H60.8125L65.2188 59.6875C64.8438 60.4375 64.4375 60.8438 63.8438 60.8438C62.9375 60.8438 62.75 60.125 62.7812 59.4062L61.375 59.6562C61.3438 61.0938 62.1562 62.2812 63.8438 62.2812C65.3438 62.2812 66.2812 60.9688 66.8125 59.5L70.4062 49.625H68.7812ZM77.1562 59H78.7188V46.5H77.1562V59ZM85.8125 59.1562C88.5625 59.1562 90.5 57.1875 90.5 54.3125C90.5 51.375 88.6562 49.4688 85.8125 49.4688C83.0625 49.4688 81.125 51.4375 81.125 54.3125C81.125 57.25 82.9688 59.1562 85.8125 59.1562ZM85.8125 57.7812C83.9375 57.7812 82.7188 56.4062 82.7188 54.3125C82.7188 52.2188 83.9375 50.8438 85.8125 50.8438C87.6875 50.8438 88.9062 52.2188 88.9062 54.3125C88.9062 56.4062 87.6875 57.7812 85.8125 57.7812ZM96.875 59.1562C99.625 59.1562 101.562 57.1875 101.562 54.3125C101.562 51.375 99.7188 49.4688 96.875 49.4688C94.125 49.4688 92.1875 51.4375 92.1875 54.3125C92.1875 57.25 94.0312 59.1562 96.875 59.1562ZM96.875 57.7812C95 57.7812 93.7812 56.4062 93.7812 54.3125C93.7812 52.2188 95 50.8438 96.875 50.8438C98.75 50.8438 99.9688 52.2188 99.9688 54.3125C99.9688 56.4062 98.75 57.7812 96.875 57.7812ZM110.344 59H112.281L108.062 53.4062L112.094 49.625H110.094L105.531 53.9688V46.5H103.969V59H105.531V55.7812L106.938 54.4688L110.344 59ZM125.719 49.625L125.594 51.0625C124.875 50.0625 123.719 49.4688 122.281 49.4688C119.875 49.4688 118.125 51.3438 118.125 54.0625C118.125 56.8438 119.781 58.6562 122.281 58.6562C123.625 58.6562 124.781 58.0625 125.531 57.0938V58.0938C125.531 59.625 124.781 60.9062 122.562 60.9062C121.375 60.9062 120.531 60.625 119.781 59.8125L118.844 60.9062C119.688 61.7812 120.906 62.2812 122.562 62.2812C125.312 62.2812 127 60.5625 127 58.1562L127.031 49.625H125.719ZM122.656 57.3125C120.875 57.3125 119.719 56.0312 119.719 54.0625C119.719 52.125 120.875 50.8438 122.656 50.8438C124.438 50.8438 125.594 52.125 125.594 54.0625C125.594 56.0312 124.438 57.3125 122.656 57.3125ZM134.125 59.1562C136.875 59.1562 138.812 57.1875 138.812 54.3125C138.812 51.375 136.969 49.4688 134.125 49.4688C131.375 49.4688 129.438 51.4375 129.438 54.3125C129.438 57.25 131.281 59.1562 134.125 59.1562ZM134.125 57.7812C132.25 57.7812 131.031 56.4062 131.031 54.3125C131.031 52.2188 132.25 50.8438 134.125 50.8438C136 50.8438 137.219 52.2188 137.219 54.3125C137.219 56.4062 136 57.7812 134.125 57.7812ZM145.188 59.1562C147.938 59.1562 149.875 57.1875 149.875 54.3125C149.875 51.375 148.031 49.4688 145.188 49.4688C142.438 49.4688 140.5 51.4375 140.5 54.3125C140.5 57.25 142.344 59.1562 145.188 59.1562ZM145.188 57.7812C143.312 57.7812 142.094 56.4062 142.094 54.3125C142.094 52.2188 143.312 50.8438 145.188 50.8438C147.062 50.8438 148.281 52.2188 148.281 54.3125C148.281 56.4062 147.062 57.7812 145.188 57.7812ZM158.906 46.5V50.9688C158.188 50 157.062 49.4688 155.719 49.4688C153.312 49.4688 151.562 51.4375 151.562 54.3125C151.562 57.25 153.219 59.1562 155.719 59.1562C157.094 59.1562 158.281 58.5312 159.031 57.4375L159.156 59H160.469V46.5H158.906ZM156.094 57.7812C154.312 57.7812 153.156 56.4062 153.156 54.3125C153.156 52.2188 154.312 50.8438 156.094 50.8438C157.875 50.8438 159.031 52.2188 159.031 54.3125C159.031 56.4062 157.875 57.7812 156.094 57.7812ZM163.281 61.1875H163.594C164.719 61.1875 165.469 60.5 165.469 59V56.8125H163.281V59H164.375V59.1875C164.375 59.8125 164.156 60.125 163.594 60.125H163.281V61.1875ZM174.156 54.8125H181.562C181.594 54.6562 181.594 54.5 181.594 54.3125C181.594 51.375 179.844 49.4688 177.156 49.4688C174.469 49.4688 172.562 51.4375 172.562 54.3125C172.562 57.0938 174.281 59.1562 177.312 59.1562C179.344 59.1562 180.625 58.375 181.312 57.4688L180.188 56.5C179.688 57.2188 178.812 57.7812 177.281 57.7812C175.5 57.7812 174.344 56.625 174.156 54.8125ZM177.156 50.8125C178.688 50.8125 179.75 51.875 179.969 53.5625H174.188C174.438 51.875 175.531 50.8125 177.156 50.8125ZM191.469 59L187.875 54.1875L191.312 49.625H189.5L186.906 53.0938L184.344 49.625H182.438L185.875 54.2188L182.219 59H184.062L186.844 55.2812L189.562 59H191.469ZM200.562 57.625C200.125 57.625 199.938 57.4375 199.938 57V52.5312C199.938 50.625 198.594 49.4688 196.438 49.4688C194.844 49.4688 193.5 50.0625 192.469 51.0938L193.438 52.0938C194.219 51.2812 195.281 50.8125 196.375 50.8125C197.625 50.8125 198.469 51.3438 198.469 52.1875C198.469 52.9688 197.875 53.0625 196.281 53.3125C194.438 53.5938 192.25 54.125 192.25 56.375C192.25 58.0312 193.5 59.1562 195.312 59.1562C196.719 59.1562 197.969 58.5 198.656 57.5312C198.75 58.6562 199.219 59.0625 200.375 59.0625C200.594 59.0625 200.844 59.0312 200.906 59V57.625H200.562ZM195.5 57.8438C194.438 57.8438 193.812 57.3125 193.812 56.3438C193.812 54.9688 195.188 54.75 196.5 54.5312C197.531 54.375 198.094 54.2812 198.438 54.0312V55.4688C198.438 56.75 197.062 57.8438 195.5 57.8438ZM206.844 59.1562C208.781 59.1562 210.406 58.125 210.938 56.3438L209.5 55.875C209.062 57.0625 208.094 57.7812 206.844 57.7812C204.969 57.7812 203.812 56.4062 203.812 54.3125C203.812 52.2188 204.969 50.8438 206.844 50.8438C208.094 50.8438 209.031 51.5625 209.469 52.75L210.938 52.2812C210.438 50.5 208.812 49.4688 206.844 49.4688C204.125 49.4688 202.219 51.4375 202.219 54.3125C202.219 57.1875 204.125 59.1562 206.844 59.1562ZM218.375 50.9688V49.625H215.406V47.125H214.094L213.844 49.625H212V50.9688H213.844V56.625C213.844 58.25 214.781 59.1562 216.562 59.1562C217.156 59.1562 217.75 59.0938 218.375 58.9375V57.4688C217.688 57.6562 217.281 57.6875 216.812 57.6875C215.844 57.6875 215.406 57.4062 215.406 56.3438V50.9688H218.375ZM220.75 59H222.312V46.5H220.75V59ZM232.094 49.625L229.281 57.8438L225.844 49.625H224.125L228.531 59.6875C228.156 60.4375 227.75 60.8438 227.156 60.8438C226.25 60.8438 226.062 60.125 226.094 59.4062L224.688 59.6562C224.656 61.0938 225.469 62.2812 227.156 62.2812C228.656 62.2812 229.594 60.9688 230.125 59.5L233.719 49.625H232.094ZM251.531 49.625L249.312 57.125L247.031 49.625H245.438L243.188 57.0938L240.969 49.625H239.375L242.312 59H244L246.219 51.6562L248.438 59H250.125L253.062 49.625H251.531ZM259.906 49.4688C258.531 49.4688 257.375 50.0625 256.656 51V46.5H255.094V59H256.656V53.5938C256.656 51.9688 257.938 50.8438 259.531 50.8438C260.938 50.8438 261.781 51.8125 261.781 53.5312V59H263.344V53.0625C263.344 50.9062 261.938 49.4688 259.906 49.4688ZM273.688 57.625C273.25 57.625 273.062 57.4375 273.062 57V52.5312C273.062 50.625 271.719 49.4688 269.562 49.4688C267.969 49.4688 266.625 50.0625 265.594 51.0938L266.562 52.0938C267.344 51.2812 268.406 50.8125 269.5 50.8125C270.75 50.8125 271.594 51.3438 271.594 52.1875C271.594 52.9688 271 53.0625 269.406 53.3125C267.562 53.5938 265.375 54.125 265.375 56.375C265.375 58.0312 266.625 59.1562 268.438 59.1562C269.844 59.1562 271.094 58.5 271.781 57.5312C271.875 58.6562 272.344 59.0625 273.5 59.0625C273.719 59.0625 273.969 59.0312 274.031 59V57.625H273.688ZM268.625 57.8438C267.562 57.8438 266.938 57.3125 266.938 56.3438C266.938 54.9688 268.312 54.75 269.625 54.5312C270.656 54.375 271.219 54.2812 271.562 54.0312V55.4688C271.562 56.75 270.188 57.8438 268.625 57.8438ZM281.281 50.9688V49.625H278.312V47.125H277L276.75 49.625H274.906V50.9688H276.75V56.625C276.75 58.25 277.688 59.1562 279.469 59.1562C280.062 59.1562 280.656 59.0938 281.281 58.9375V57.4688C280.594 57.6562 280.188 57.6875 279.719 57.6875C278.75 57.6875 278.312 57.4062 278.312 56.3438V50.9688H281.281ZM288.969 59H290.594V47.125H288.969V59ZM303.875 49.4688C302.406 49.4688 301.156 50.125 300.469 51.1875L300.344 49.625H299.031V59H300.594V53.5938C300.594 51.9688 301.875 50.8438 303.5 50.8438C304.906 50.8438 305.75 51.8125 305.75 53.5312V59H307.312V53.0625C307.312 50.9062 305.906 49.4688 303.875 49.4688ZM311.156 54.8125H318.562C318.594 54.6562 318.594 54.5 318.594 54.3125C318.594 51.375 316.844 49.4688 314.156 49.4688C311.469 49.4688 309.562 51.4375 309.562 54.3125C309.562 57.0938 311.281 59.1562 314.312 59.1562C316.344 59.1562 317.625 58.375 318.312 57.4688L317.188 56.5C316.688 57.2188 315.812 57.7812 314.281 57.7812C312.5 57.7812 311.344 56.625 311.156 54.8125ZM314.156 50.8125C315.688 50.8125 316.75 51.875 316.969 53.5625H311.188C311.438 51.875 312.531 50.8125 314.156 50.8125ZM321.812 54.8125H329.219C329.25 54.6562 329.25 54.5 329.25 54.3125C329.25 51.375 327.5 49.4688 324.812 49.4688C322.125 49.4688 320.219 51.4375 320.219 54.3125C320.219 57.0938 321.938 59.1562 324.969 59.1562C327 59.1562 328.281 58.375 328.969 57.4688L327.844 56.5C327.344 57.2188 326.469 57.7812 324.938 57.7812C323.156 57.7812 322 56.625 321.812 54.8125ZM324.812 50.8125C326.344 50.8125 327.406 51.875 327.625 53.5625H321.844C322.094 51.875 323.188 50.8125 324.812 50.8125ZM338.219 46.5V50.9688C337.5 50 336.375 49.4688 335.031 49.4688C332.625 49.4688 330.875 51.4375 330.875 54.3125C330.875 57.25 332.531 59.1562 335.031 59.1562C336.406 59.1562 337.594 58.5312 338.344 57.4375L338.469 59H339.781V46.5H338.219ZM335.406 57.7812C333.625 57.7812 332.469 56.4062 332.469 54.3125C332.469 52.2188 333.625 50.8438 335.406 50.8438C337.188 50.8438 338.344 52.2188 338.344 54.3125C338.344 56.4062 337.188 57.7812 335.406 57.7812ZM342.594 59H344.781V56.8125H342.594V59ZM361.656 47.125H351.344V48.625H355.688V59H357.312V48.625H361.656V47.125ZM368.344 49.4688C366.969 49.4688 365.812 50.0625 365.094 51V46.5H363.531V59H365.094V53.5938C365.094 51.9688 366.375 50.8438 367.969 50.8438C369.375 50.8438 370.219 51.8125 370.219 53.5312V59H371.781V53.0625C371.781 50.9062 370.375 49.4688 368.344 49.4688ZM382.125 57.625C381.688 57.625 381.5 57.4375 381.5 57V52.5312C381.5 50.625 380.156 49.4688 378 49.4688C376.406 49.4688 375.062 50.0625 374.031 51.0938L375 52.0938C375.781 51.2812 376.844 50.8125 377.938 50.8125C379.188 50.8125 380.031 51.3438 380.031 52.1875C380.031 52.9688 379.438 53.0625 377.844 53.3125C376 53.5938 373.812 54.125 373.812 56.375C373.812 58.0312 375.062 59.1562 376.875 59.1562C378.281 59.1562 379.531 58.5 380.219 57.5312C380.312 58.6562 380.781 59.0625 381.938 59.0625C382.156 59.0625 382.406 59.0312 382.469 59V57.625H382.125ZM377.062 57.8438C376 57.8438 375.375 57.3125 375.375 56.3438C375.375 54.9688 376.75 54.75 378.062 54.5312C379.094 54.375 379.656 54.2812 380 54.0312V55.4688C380 56.75 378.625 57.8438 377.062 57.8438ZM389.5 49.4688C388.031 49.4688 386.781 50.125 386.094 51.1875L385.969 49.625H384.656V59H386.219V53.5938C386.219 51.9688 387.5 50.8438 389.125 50.8438C390.531 50.8438 391.375 51.8125 391.375 53.5312V59H392.938V53.0625C392.938 50.9062 391.531 49.4688 389.5 49.4688ZM402.281 59H404.219L400 53.4062L404.031 49.625H402.031L397.469 53.9688V46.5H395.906V59H397.469V55.7812L398.875 54.4688L402.281 59ZM417.438 49.625L414.625 57.8438L411.188 49.625H409.469L413.875 59.6875C413.5 60.4375 413.094 60.8438 412.5 60.8438C411.594 60.8438 411.406 60.125 411.438 59.4062L410.031 59.6562C410 61.0938 410.812 62.2812 412.5 62.2812C414 62.2812 414.938 60.9688 415.469 59.5L419.062 49.625H417.438ZM424.531 59.1562C427.281 59.1562 429.219 57.1875 429.219 54.3125C429.219 51.375 427.375 49.4688 424.531 49.4688C421.781 49.4688 419.844 51.4375 419.844 54.3125C419.844 57.25 421.688 59.1562 424.531 59.1562ZM424.531 57.7812C422.656 57.7812 421.438 56.4062 421.438 54.3125C421.438 52.2188 422.656 50.8438 424.531 50.8438C426.406 50.8438 427.625 52.2188 427.625 54.3125C427.625 56.4062 426.406 57.7812 424.531 57.7812ZM438.188 49.625V55.0312C438.188 56.6562 436.906 57.7812 435.281 57.7812C433.875 57.7812 433.031 56.8125 433.031 55.0938V49.625H431.469V55.5625C431.469 57.7188 432.875 59.1562 434.906 59.1562C436.375 59.1562 437.625 58.5 438.312 57.4375L438.438 59H439.75V49.625H438.188ZM33.2188 73.7188C33.9375 73.7188 34.4688 73.9062 34.9688 74.3125L35.7188 73.0938C35 72.5938 34.1875 72.3438 33.3125 72.3438C31.5312 72.3438 30.4375 73.2812 30.4375 74.8125V75.625H28.4688V76.9688H30.4375V85H32V76.9688H34.7188V75.625H32V74.875C32 74.1562 32.4375 73.7188 33.2188 73.7188ZM40.1562 85.1562C42.9062 85.1562 44.8438 83.1875 44.8438 80.3125C44.8438 77.375 43 75.4688 40.1562 75.4688C37.4062 75.4688 35.4688 77.4375 35.4688 80.3125C35.4688 83.25 37.3125 85.1562 40.1562 85.1562ZM40.1562 83.7812C38.2812 83.7812 37.0625 82.4062 37.0625 80.3125C37.0625 78.2188 38.2812 76.8438 40.1562 76.8438C42.0312 76.8438 43.25 78.2188 43.25 80.3125C43.25 82.4062 42.0312 83.7812 40.1562 83.7812ZM52.0625 75.4688C50.625 75.4688 49.375 76.125 48.6875 77.1875L48.5625 75.625H47.25V85H48.8125V79.6875C48.8125 78.125 50.0625 77.0312 51.625 77.0312C52.0312 77.0312 52.375 77.0312 52.7188 77.0625V75.5312C52.5 75.5 52.2812 75.4688 52.0625 75.4688ZM66.25 75.625L63.4375 83.8438L60 75.625H58.2812L62.6875 85.6875C62.3125 86.4375 61.9062 86.8438 61.3125 86.8438C60.4062 86.8438 60.2188 86.125 60.25 85.4062L58.8438 85.6562C58.8125 87.0938 59.625 88.2812 61.3125 88.2812C62.8125 88.2812 63.75 86.9688 64.2812 85.5L67.875 75.625H66.25ZM73.3438 85.1562C76.0938 85.1562 78.0312 83.1875 78.0312 80.3125C78.0312 77.375 76.1875 75.4688 73.3438 75.4688C70.5938 75.4688 68.6562 77.4375 68.6562 80.3125C68.6562 83.25 70.5 85.1562 73.3438 85.1562ZM73.3438 83.7812C71.4688 83.7812 70.25 82.4062 70.25 80.3125C70.25 78.2188 71.4688 76.8438 73.3438 76.8438C75.2188 76.8438 76.4375 78.2188 76.4375 80.3125C76.4375 82.4062 75.2188 83.7812 73.3438 83.7812ZM87 75.625V81.0312C87 82.6562 85.7188 83.7812 84.0938 83.7812C82.6875 83.7812 81.8438 82.8125 81.8438 81.0938V75.625H80.2812V81.5625C80.2812 83.7188 81.6875 85.1562 83.7188 85.1562C85.1875 85.1562 86.4375 84.5 87.125 83.4375L87.25 85H88.5625V75.625H87ZM96.5 75.4688C95.0625 75.4688 93.8125 76.125 93.125 77.1875L93 75.625H91.6875V85H93.25V79.6875C93.25 78.125 94.5 77.0312 96.0625 77.0312C96.4688 77.0312 96.8125 77.0312 97.1562 77.0625V75.5312C96.9375 75.5 96.7188 75.4688 96.5 75.4688ZM109.281 76.9688V75.625H106.312V73.125H105L104.75 75.625H102.906V76.9688H104.75V82.625C104.75 84.25 105.688 85.1562 107.469 85.1562C108.062 85.1562 108.656 85.0938 109.281 84.9375V83.4688C108.594 83.6562 108.188 83.6875 107.719 83.6875C106.75 83.6875 106.312 83.4062 106.312 82.3438V76.9688H109.281ZM111.719 74.25H113.469V72.5H111.719V74.25ZM111.812 85H113.375V75.625H111.812V85ZM127.75 75.4688C126.219 75.4688 124.969 76.1875 124.312 77.3438C123.812 76.1875 122.781 75.4688 121.344 75.4688C119.906 75.4688 118.75 76.0938 118.094 77.125L117.969 75.625H116.656V85H118.219V79.5938C118.219 77.9688 119.375 76.8438 120.969 76.8438C122.375 76.8438 123.094 77.8125 123.094 79.5312V85H124.656V79.5938C124.656 77.9688 125.812 76.8438 127.406 76.8438C128.812 76.8438 129.531 77.8125 129.531 79.5312V85H131.094V79.0625C131.094 76.9062 129.781 75.4688 127.75 75.4688ZM134.938 80.8125H142.344C142.375 80.6562 142.375 80.5 142.375 80.3125C142.375 77.375 140.625 75.4688 137.938 75.4688C135.25 75.4688 133.344 77.4375 133.344 80.3125C133.344 83.0938 135.062 85.1562 138.094 85.1562C140.125 85.1562 141.406 84.375 142.094 83.4688L140.969 82.5C140.469 83.2188 139.594 83.7812 138.062 83.7812C136.281 83.7812 135.125 82.625 134.938 80.8125ZM137.938 76.8125C139.469 76.8125 140.531 77.875 140.75 79.5625H134.969C135.219 77.875 136.312 76.8125 137.938 76.8125ZM145.25 81.25H146.438L146.781 73.125H144.906L145.25 81.25ZM144.75 85H146.938V82.8125H144.75V85ZM157.031 83.5V73.125H155.406V85H163.531V83.5H157.031ZM168.906 85.1562C171.656 85.1562 173.594 83.1875 173.594 80.3125C173.594 77.375 171.75 75.4688 168.906 75.4688C166.156 75.4688 164.219 77.4375 164.219 80.3125C164.219 83.25 166.062 85.1562 168.906 85.1562ZM168.906 83.7812C167.031 83.7812 165.812 82.4062 165.812 80.3125C165.812 78.2188 167.031 76.8438 168.906 76.8438C170.781 76.8438 172 78.2188 172 80.3125C172 82.4062 170.781 83.7812 168.906 83.7812ZM179.969 85.1562C182.719 85.1562 184.656 83.1875 184.656 80.3125C184.656 77.375 182.812 75.4688 179.969 75.4688C177.219 75.4688 175.281 77.4375 175.281 80.3125C175.281 83.25 177.125 85.1562 179.969 85.1562ZM179.969 83.7812C178.094 83.7812 176.875 82.4062 176.875 80.3125C176.875 78.2188 178.094 76.8438 179.969 76.8438C181.844 76.8438 183.062 78.2188 183.062 80.3125C183.062 82.4062 181.844 83.7812 179.969 83.7812ZM193.438 85H195.375L191.156 79.4062L195.188 75.625H193.188L188.625 79.9688V72.5H187.062V85H188.625V81.7812L190.031 80.4688L193.438 85ZM199.75 85.1562C201.969 85.1562 203.406 84.0625 203.406 82.375C203.406 80.9688 202.5 80.2188 200 79.5312C198.312 79.0938 197.75 78.7188 197.75 78.0625C197.75 77.3125 198.531 76.8438 199.719 76.8438C200.719 76.8438 201.594 77.1875 202.281 77.8438L203.219 76.625C202.25 75.875 201.031 75.4688 199.781 75.4688C197.656 75.4688 196.219 76.5625 196.219 78.1875C196.219 79.5938 197.125 80.3438 199.562 80.9688C201.344 81.4062 201.906 81.7812 201.906 82.5C201.906 83.3125 201.125 83.7812 199.781 83.7812C198.531 83.7812 197.5 83.375 196.719 82.5938L195.812 83.6875C196.844 84.6562 198.156 85.1562 199.75 85.1562ZM215.562 75.4688C214.125 75.4688 212.875 76.125 212.188 77.1875L212.062 75.625H210.75V85H212.312V79.6875C212.312 78.125 213.562 77.0312 215.125 77.0312C215.531 77.0312 215.875 77.0312 216.219 77.0625V75.5312C216 75.5 215.781 75.4688 215.562 75.4688ZM218.5 80.8125H225.906C225.938 80.6562 225.938 80.5 225.938 80.3125C225.938 77.375 224.188 75.4688 221.5 75.4688C218.812 75.4688 216.906 77.4375 216.906 80.3125C216.906 83.0938 218.625 85.1562 221.656 85.1562C223.688 85.1562 224.969 84.375 225.656 83.4688L224.531 82.5C224.031 83.2188 223.156 83.7812 221.625 83.7812C219.844 83.7812 218.688 82.625 218.5 80.8125ZM221.5 76.8125C223.031 76.8125 224.094 77.875 224.312 79.5625H218.531C218.781 77.875 219.875 76.8125 221.5 76.8125ZM235.438 83.625C235 83.625 234.812 83.4375 234.812 83V78.5312C234.812 76.625 233.469 75.4688 231.312 75.4688C229.719 75.4688 228.375 76.0625 227.344 77.0938L228.312 78.0938C229.094 77.2812 230.156 76.8125 231.25 76.8125C232.5 76.8125 233.344 77.3438 233.344 78.1875C233.344 78.9688 232.75 79.0625 231.156 79.3125C229.312 79.5938 227.125 80.125 227.125 82.375C227.125 84.0312 228.375 85.1562 230.188 85.1562C231.594 85.1562 232.844 84.5 233.531 83.5312C233.625 84.6562 234.094 85.0625 235.25 85.0625C235.469 85.0625 235.719 85.0312 235.781 85V83.625H235.438ZM230.375 83.8438C229.312 83.8438 228.688 83.3125 228.688 82.3438C228.688 80.9688 230.062 80.75 231.375 80.5312C232.406 80.375 232.969 80.2812 233.312 80.0312V81.4688C233.312 82.75 231.938 83.8438 230.375 83.8438ZM237.969 85H239.531V72.5H237.969V85ZM242.656 85H244.219V72.5H242.656V85ZM254 75.625L251.188 83.8438L247.75 75.625H246.031L250.438 85.6875C250.062 86.4375 249.656 86.8438 249.062 86.8438C248.156 86.8438 247.969 86.125 248 85.4062L246.594 85.6562C246.562 87.0938 247.375 88.2812 249.062 88.2812C250.562 88.2812 251.5 86.9688 252.031 85.5L255.625 75.625H254ZM269.25 75.625L269.125 77.0625C268.406 76.0625 267.25 75.4688 265.812 75.4688C263.406 75.4688 261.656 77.3438 261.656 80.0625C261.656 82.8438 263.312 84.6562 265.812 84.6562C267.156 84.6562 268.312 84.0625 269.062 83.0938V84.0938C269.062 85.625 268.312 86.9062 266.094 86.9062C264.906 86.9062 264.062 86.625 263.312 85.8125L262.375 86.9062C263.219 87.7812 264.438 88.2812 266.094 88.2812C268.844 88.2812 270.531 86.5625 270.531 84.1562L270.562 75.625H269.25ZM266.188 83.3125C264.406 83.3125 263.25 82.0312 263.25 80.0625C263.25 78.125 264.406 76.8438 266.188 76.8438C267.969 76.8438 269.125 78.125 269.125 80.0625C269.125 82.0312 267.969 83.3125 266.188 83.3125ZM278.5 75.4688C277.062 75.4688 275.812 76.125 275.125 77.1875L275 75.625H273.688V85H275.25V79.6875C275.25 78.125 276.5 77.0312 278.062 77.0312C278.469 77.0312 278.812 77.0312 279.156 77.0625V75.5312C278.938 75.5 278.719 75.4688 278.5 75.4688ZM281.438 80.8125H288.844C288.875 80.6562 288.875 80.5 288.875 80.3125C288.875 77.375 287.125 75.4688 284.438 75.4688C281.75 75.4688 279.844 77.4375 279.844 80.3125C279.844 83.0938 281.562 85.1562 284.594 85.1562C286.625 85.1562 287.906 84.375 288.594 83.4688L287.469 82.5C286.969 83.2188 286.094 83.7812 284.562 83.7812C282.781 83.7812 281.625 82.625 281.438 80.8125ZM284.438 76.8125C285.969 76.8125 287.031 77.875 287.25 79.5625H281.469C281.719 77.875 282.812 76.8125 284.438 76.8125ZM298.375 83.625C297.938 83.625 297.75 83.4375 297.75 83V78.5312C297.75 76.625 296.406 75.4688 294.25 75.4688C292.656 75.4688 291.312 76.0625 290.281 77.0938L291.25 78.0938C292.031 77.2812 293.094 76.8125 294.188 76.8125C295.438 76.8125 296.281 77.3438 296.281 78.1875C296.281 78.9688 295.688 79.0625 294.094 79.3125C292.25 79.5938 290.062 80.125 290.062 82.375C290.062 84.0312 291.312 85.1562 293.125 85.1562C294.531 85.1562 295.781 84.5 296.469 83.5312C296.562 84.6562 297.031 85.0625 298.188 85.0625C298.406 85.0625 298.656 85.0312 298.719 85V83.625H298.375ZM293.312 83.8438C292.25 83.8438 291.625 83.3125 291.625 82.3438C291.625 80.9688 293 80.75 294.312 80.5312C295.344 80.375 295.906 80.2812 296.25 80.0312V81.4688C296.25 82.75 294.875 83.8438 293.312 83.8438ZM305.969 76.9688V75.625H303V73.125H301.688L301.438 75.625H299.594V76.9688H301.438V82.625C301.438 84.25 302.375 85.1562 304.156 85.1562C304.75 85.1562 305.344 85.0938 305.969 84.9375V83.4688C305.281 83.6562 304.875 83.6875 304.406 83.6875C303.438 83.6875 303 83.4062 303 82.3438V76.9688H305.969ZM308.031 87.1875H308.344C309.469 87.1875 310.219 86.5 310.219 85V82.8125H308.031V85H309.125V85.1875C309.125 85.8125 308.906 86.125 308.344 86.125H308.031V87.1875ZM321.938 85.1562C323.875 85.1562 325.5 84.125 326.031 82.3438L324.594 81.875C324.156 83.0625 323.188 83.7812 321.938 83.7812C320.062 83.7812 318.906 82.4062 318.906 80.3125C318.906 78.2188 320.062 76.8438 321.938 76.8438C323.188 76.8438 324.125 77.5625 324.562 78.75L326.031 78.2812C325.531 76.5 323.906 75.4688 321.938 75.4688C319.219 75.4688 317.312 77.4375 317.312 80.3125C317.312 83.1875 319.219 85.1562 321.938 85.1562ZM335.438 83.625C335 83.625 334.812 83.4375 334.812 83V78.5312C334.812 76.625 333.469 75.4688 331.312 75.4688C329.719 75.4688 328.375 76.0625 327.344 77.0938L328.312 78.0938C329.094 77.2812 330.156 76.8125 331.25 76.8125C332.5 76.8125 333.344 77.3438 333.344 78.1875C333.344 78.9688 332.75 79.0625 331.156 79.3125C329.312 79.5938 327.125 80.125 327.125 82.375C327.125 84.0312 328.375 85.1562 330.188 85.1562C331.594 85.1562 332.844 84.5 333.531 83.5312C333.625 84.6562 334.094 85.0625 335.25 85.0625C335.469 85.0625 335.719 85.0312 335.781 85V83.625H335.438ZM330.375 83.8438C329.312 83.8438 328.688 83.3125 328.688 82.3438C328.688 80.9688 330.062 80.75 331.375 80.5312C332.406 80.375 332.969 80.2812 333.312 80.0312V81.4688C333.312 82.75 331.938 83.8438 330.375 83.8438ZM342.812 75.4688C341.344 75.4688 340.094 76.125 339.406 77.1875L339.281 75.625H337.969V85H339.531V79.5938C339.531 77.9688 340.812 76.8438 342.438 76.8438C343.844 76.8438 344.688 77.8125 344.688 79.5312V85H346.25V79.0625C346.25 76.9062 344.844 75.4688 342.812 75.4688ZM354.531 85H356.156V73.125H354.531V85ZM371.469 75.625L371.344 77.0625C370.625 76.0625 369.469 75.4688 368.031 75.4688C365.625 75.4688 363.875 77.3438 363.875 80.0625C363.875 82.8438 365.531 84.6562 368.031 84.6562C369.375 84.6562 370.531 84.0625 371.281 83.0938V84.0938C371.281 85.625 370.531 86.9062 368.312 86.9062C367.125 86.9062 366.281 86.625 365.531 85.8125L364.594 86.9062C365.438 87.7812 366.656 88.2812 368.312 88.2812C371.062 88.2812 372.75 86.5625 372.75 84.1562L372.781 75.625H371.469ZM368.406 83.3125C366.625 83.3125 365.469 82.0312 365.469 80.0625C365.469 78.125 366.625 76.8438 368.406 76.8438C370.188 76.8438 371.344 78.125 371.344 80.0625C371.344 82.0312 370.188 83.3125 368.406 83.3125ZM376.781 80.8125H384.188C384.219 80.6562 384.219 80.5 384.219 80.3125C384.219 77.375 382.469 75.4688 379.781 75.4688C377.094 75.4688 375.188 77.4375 375.188 80.3125C375.188 83.0938 376.906 85.1562 379.938 85.1562C381.969 85.1562 383.25 84.375 383.938 83.4688L382.812 82.5C382.312 83.2188 381.438 83.7812 379.906 83.7812C378.125 83.7812 376.969 82.625 376.781 80.8125ZM379.781 76.8125C381.312 76.8125 382.375 77.875 382.594 79.5625H376.812C377.062 77.875 378.156 76.8125 379.781 76.8125ZM391.5 76.9688V75.625H388.531V73.125H387.219L386.969 75.625H385.125V76.9688H386.969V82.625C386.969 84.25 387.906 85.1562 389.688 85.1562C390.281 85.1562 390.875 85.0938 391.5 84.9375V83.4688C390.812 83.6562 390.406 83.6875 389.938 83.6875C388.969 83.6875 388.531 83.4062 388.531 82.3438V76.9688H391.5ZM402.219 77.0312C401.25 77.0312 400.469 77.3125 399.875 77.875L400.156 74.5625H405.406V73.125H398.906L398.375 79.3125L399.594 79.6875C400.094 78.8125 400.969 78.3438 402.031 78.3438C403.656 78.3438 404.719 79.4375 404.719 81.0625C404.719 82.6875 403.562 83.7812 401.844 83.7812C400.594 83.7812 399.469 83.0938 398.938 82.1562L397.812 82.9688C398.531 84.2812 400 85.1562 401.844 85.1562C404.469 85.1562 406.281 83.4688 406.281 81.0625C406.281 78.7188 404.562 77.0312 402.219 77.0312ZM424.719 75.4688C423.188 75.4688 421.938 76.1875 421.281 77.3438C420.781 76.1875 419.75 75.4688 418.312 75.4688C416.875 75.4688 415.719 76.0938 415.062 77.125L414.938 75.625H413.625V85H415.188V79.5938C415.188 77.9688 416.344 76.8438 417.938 76.8438C419.344 76.8438 420.062 77.8125 420.062 79.5312V85H421.625V79.5938C421.625 77.9688 422.781 76.8438 424.375 76.8438C425.781 76.8438 426.5 77.8125 426.5 79.5312V85H428.062V79.0625C428.062 76.9062 426.75 75.4688 424.719 75.4688ZM435 85.1562C437.75 85.1562 439.688 83.1875 439.688 80.3125C439.688 77.375 437.844 75.4688 435 75.4688C432.25 75.4688 430.312 77.4375 430.312 80.3125C430.312 83.25 432.156 85.1562 435 85.1562ZM435 83.7812C433.125 83.7812 431.906 82.4062 431.906 80.3125C431.906 78.2188 433.125 76.8438 435 76.8438C436.875 76.8438 438.094 78.2188 438.094 80.3125C438.094 82.4062 436.875 83.7812 435 83.7812ZM446.906 75.4688C445.469 75.4688 444.219 76.125 443.531 77.1875L443.406 75.625H442.094V85H443.656V79.6875C443.656 78.125 444.906 77.0312 446.469 77.0312C446.875 77.0312 447.219 77.0312 447.562 77.0625V75.5312C447.344 75.5 447.125 75.4688 446.906 75.4688ZM449.844 80.8125H457.25C457.281 80.6562 457.281 80.5 457.281 80.3125C457.281 77.375 455.531 75.4688 452.844 75.4688C450.156 75.4688 448.25 77.4375 448.25 80.3125C448.25 83.0938 449.969 85.1562 453 85.1562C455.031 85.1562 456.312 84.375 457 83.4688L455.875 82.5C455.375 83.2188 454.5 83.7812 452.969 83.7812C451.188 83.7812 450.031 82.625 449.844 80.8125ZM452.844 76.8125C454.375 76.8125 455.438 77.875 455.656 79.5625H449.875C450.125 77.875 451.219 76.8125 452.844 76.8125ZM462.031 81.5625H463.281V81.4062C463.281 80.9062 463.656 80.4375 464.594 79.7188C466.062 78.625 466.656 77.6562 466.656 76.375C466.656 74.3438 465.156 72.9688 462.906 72.9688C460.562 72.9688 458.906 74.4688 458.688 76.75L460.156 77.0625C460.281 75.4062 461.312 74.3438 462.844 74.3438C464.219 74.3438 465.062 75.125 465.062 76.4688C465.062 77.3125 464.719 77.8438 463.531 78.8125C462.25 79.8438 461.969 80.375 462.031 81.5625ZM461.625 85H463.812V82.8125H461.625V85Z" fill="#2F343B"/>
</svg>
