<svg width="78" height="24" viewBox="0 0 78 24" fill="none" xmlns="http://www.w3.org/2000/svg">
<g clip-path="url(#clip0_440_284)">
<path d="M54.237 1.84292C54.237 1.84292 52.8057 2.41389 51.1412 4.25244C49.4766 6.09098 48.5071 8.15841 49.2246 8.70823C49.5002 8.91721 50.1357 8.95702 51.2889 7.91211C52.3531 6.98615 53.1885 5.82539 53.7293 4.52113C54.474 2.70124 54.237 1.86531 54.237 1.84541M63.3468 5.15056C61.4973 4.20019 60.1455 3.03586 58.7391 2.31562C57.3973 1.62523 56.5296 1.33664 55.4447 1.48218C55.2934 1.50921 55.1441 1.54662 54.9979 1.59413C54.9979 1.59413 55.5565 3.50607 53.3333 6.71793C51.0816 9.97456 49.0384 9.95217 48.4575 9.05778C47.8492 8.11363 48.635 6.18925 49.947 4.47634C51.3211 2.68507 53.7342 1.1998 53.7342 1.1998C53.7342 1.1998 52.9646 0.72835 51.0754 1.80187C49.232 2.84429 46.0593 5.33218 43.1149 9.52799C40.1706 13.7238 39.5872 16.0326 39.1651 17.85C38.7431 19.6674 39.1266 21.6141 41.1375 21.6141C43.1484 21.6141 45.4895 18.5403 46.1499 17.4718C47.3775 15.4815 48.1782 12.4289 46.5074 12.8481C45.6844 13.0546 45.0178 13.9676 44.597 14.8471C44.3314 15.412 44.1282 16.0043 43.9913 16.6135C43.4075 16.8546 42.8591 17.1743 42.3615 17.5639C41.8078 17.9748 41.2904 18.4326 40.8148 18.9322C40.8148 18.9322 40.8222 17.4793 41.9779 15.1282C43.1335 12.7772 45.2549 11.7036 46.4565 11.6029C47.5389 11.5158 48.9478 12.4363 47.7537 15.8323C46.5595 19.2282 43.0367 23.3569 39.3364 23.4079C35.9216 23.4552 33.6873 19.0877 38.4402 11.466C43.7008 3.04581 49.8713 0.462147 51.8748 0.174796C53.8782 -0.112554 54.5299 0.773132 54.5299 0.773132C55.7359 0.277304 57.0384 0.0620923 58.3394 0.143698C60.786 0.309142 62.6778 2.04444 65.1753 3.2635C64.5261 3.88547 63.9067 4.53854 63.3481 5.15056M74.3385 2.31562C72.6429 3.40531 70.2969 4.393 68.0427 4.18153C67.4717 4.7724 66.861 5.45657 66.249 6.20294C70.1579 6.97791 73.5826 4.55098 75.4036 2.48479C76.0674 1.74193 76.6377 0.920164 77.1017 0.0379629C76.2726 0.903306 75.3448 1.66779 74.3373 2.31562M69.1325 13.3519C69.1621 13.3002 69.1863 13.2456 69.2045 13.1889C69.1929 13.0992 69.151 13.0162 69.0857 12.9537C69.0204 12.8912 68.9358 12.8531 68.8458 12.8456C68.4734 12.8282 67.9657 12.8991 66.6338 14.3769C65.5289 15.5973 64.5779 16.9492 63.8024 18.4023C63.0402 19.798 62.7312 20.8379 63.1693 21.1066C63.3117 21.1805 63.4768 21.1974 63.6311 21.1539C63.9278 21.083 64.2642 20.8043 64.7756 20.211C65.0152 19.9323 65.2808 19.538 65.5986 19.1014C66.4799 17.8997 68.6944 14.1169 69.1325 13.3519ZM55.297 14.959C55.5192 14.3769 55.8022 13.2337 55.2139 12.7846C54.582 12.3082 52.9708 13.4265 52.9621 14.5734C52.951 15.7477 54.0967 16.2789 54.371 16.3535C54.5274 16.3958 54.582 16.3896 54.6578 16.2639C54.9008 15.8443 55.1144 15.4083 55.297 14.959ZM54.0781 17.0949C53.6788 16.9101 53.3063 16.672 52.9708 16.3871C52.6344 16.1043 52.3532 15.7614 52.1416 15.3758C52.1193 15.3384 52.097 15.367 52.0721 15.4006C52.0473 15.4342 51.948 15.525 51.089 16.7864C50.23 18.0477 48.9105 20.6613 50.1047 21.1066C50.8693 21.3915 52.1416 20.0492 52.8355 19.1598C53.3083 18.539 53.7368 17.8856 54.1178 17.2044C54.1538 17.1285 54.1178 17.1111 54.0793 17.0949M67.6244 20.1139C67.3004 20.6339 66.9305 21.6315 67.9967 21.0108C69.3014 20.2557 71.1596 17.4307 71.1596 17.4307H72.0024C71.2355 18.6125 70.3816 19.7351 69.4478 20.7894C68.1258 22.2572 66.5134 23.5907 65.3776 23.4589C64.0507 23.3034 64.4665 21.5581 64.4665 21.5581C64.4665 21.5581 62.5686 23.5833 61.2553 23.4377C59.4814 23.2412 60.0226 21.0444 60.0226 21.0444C60.0226 21.0444 58.0167 23.5111 56.65 23.4353C54.5076 23.3109 55.0463 20.6986 55.6421 18.8588C55.9611 17.8748 56.2565 17.1023 56.2565 17.1023C56.2565 17.1023 56.0443 17.1583 55.5875 17.2267C55.3492 17.2603 54.9147 17.2852 54.9147 17.2852C54.9147 17.2852 54.0222 18.8625 53.3085 19.8104C52.5947 20.7583 49.561 24.0261 47.776 23.3718C46.1251 22.7673 46.6712 20.2346 47.632 18.2219C49.0347 15.2874 52.9795 11.0717 55.2548 11.629C57.6133 12.2025 55.3082 16.5152 55.3082 16.5152C55.3082 16.5152 55.3082 16.5314 55.333 16.5426C55.3802 16.56 55.5031 16.5737 55.7873 16.5177C56.0819 16.4575 56.3706 16.3713 56.65 16.2602C56.65 16.2602 59.0209 11.2844 61.6401 8.02904C64.2592 4.77365 69.4838 -0.832796 71.5344 0.5231C72.031 0.856476 71.8075 2.00463 71.1323 3.39785C70.8281 3.49685 70.519 3.57989 70.2063 3.64664C70.6581 2.82439 70.9572 2.13152 71.0466 1.64762C71.3557 -0.0341858 67.4369 3.51353 64.6366 7.32497C62.9498 9.62272 61.4512 12.0534 60.1555 14.5933C60.6613 14.2841 61.1442 13.9387 61.6003 13.5596C62.8494 12.5217 64.0365 11.411 65.1554 10.2333C66.2328 9.12793 67.2434 7.95903 68.1817 6.73285C68.4798 6.71841 68.7769 6.68768 69.0717 6.6408C68.0487 8.0323 66.9331 9.35305 65.7326 10.594C64.6155 11.726 63.4064 12.9439 62.3563 13.8283C61.4183 14.6277 60.4289 15.3644 59.3945 16.0338C59.3945 16.0338 56.9455 20.9834 58.2774 21.3006C59.0606 21.4897 60.6073 19.1026 60.6073 19.1026C60.6073 19.1026 62.6257 16.0164 63.8421 14.6244C65.5017 12.7336 66.9305 11.639 68.358 11.6191C69.1896 11.6041 69.6799 12.4898 69.6799 12.4898L70.071 11.8828H72.4791C72.4791 11.8828 67.9819 19.5305 67.6219 20.1065M74.3373 2.31562C72.6417 3.40531 70.2956 4.393 68.0414 4.18153C67.4704 4.7724 66.8597 5.45657 66.2478 6.20294C70.1566 6.97791 73.5814 4.55098 75.4023 2.48479C76.0666 1.74199 76.6373 0.92023 77.1017 0.0379629C76.2726 0.903306 75.3448 1.66779 74.3373 2.31562ZM40.5181 6.06735H38.2279L36.9333 8.16339H39.2235L40.5181 6.06735ZM29.6741 13.3257C30.6486 11.9873 33.3372 7.29636 33.3372 7.29636C33.3259 7.20676 33.2842 7.12377 33.2191 7.06128C33.154 6.99879 33.0695 6.96058 32.9797 6.95303C32.6073 6.93562 31.9867 7.06125 30.7541 8.60747C29.5215 10.1537 28.5644 11.3839 27.8668 12.664C27.1022 14.0609 26.7683 15.0461 27.2077 15.3136C27.3503 15.3852 27.5141 15.402 27.6682 15.3608C27.9537 15.2887 28.3273 15.0013 28.84 14.4105C29.0808 14.1343 29.3539 13.7624 29.6741 13.3257ZM17.3853 6.98164C16.7522 6.50272 15.1423 7.62352 15.1336 8.76794C15.1236 9.94347 16.5822 10.303 16.7709 10.3117C16.8264 10.3163 16.882 10.3046 16.931 10.2781C16.9646 10.2584 16.9915 10.2289 17.0079 10.1935C17.1794 9.8558 17.3335 9.50953 17.4697 9.15605C17.6919 8.57389 17.9737 7.43071 17.3853 6.98164ZM16.4307 11.0282C15.9942 10.8915 15.577 10.6992 15.1894 10.456C14.8138 10.2106 14.5084 9.87149 14.3032 9.47201C14.2808 9.43469 14.256 9.4633 14.2336 9.49689C14.2113 9.53048 14.0822 9.69219 13.2207 10.9585C12.3593 12.2249 11.0832 14.8147 12.2786 15.2601C13.0408 15.5499 14.328 14.1965 15.0268 13.3108C15.5498 12.6148 16.033 11.8897 16.4742 11.1389C16.5027 11.063 16.4742 11.0456 16.432 11.0319M35.1359 11.8081H35.975C35.975 11.8081 31.7707 17.9034 29.3961 17.6198C28.0704 17.4643 28.4639 15.8248 28.4639 15.8248C28.4639 15.8248 26.6019 18.0092 24.8914 17.5663C23.3398 17.167 24.3415 14.5809 24.3415 14.5809C24.1653 14.6518 20.8076 18.4446 18.4478 17.5352C15.9789 16.5799 17.2612 13.4041 17.7304 12.4488C18.1288 11.6439 18.5695 10.8603 18.5695 10.8603C18.5695 10.8603 18.1909 10.9672 17.9488 11.022C17.7068 11.0767 17.3567 11.1464 17.3567 11.1464C17.3567 11.1464 16.1887 13.0483 15.4749 13.9975C14.7612 14.9466 11.7275 18.2082 9.93999 17.5589C8.15252 16.9095 8.59566 14.403 9.59987 12.4127C11.2285 9.18466 15.0926 5.21773 17.4201 5.8198C19.7711 6.42062 17.8247 10.242 17.8247 10.242C17.8247 10.242 18.2927 10.303 19.4136 9.5367C21.0273 8.43332 23.1573 5.46528 25.4637 5.81358C26.551 5.97778 27.5639 7.09111 26.1787 9.20581C25.7368 9.885 24.9957 10.492 24.4284 9.89122C24.0747 9.51804 24.3837 8.8376 24.7549 8.37237C24.8993 8.18272 25.0881 8.03157 25.3046 7.93222C25.521 7.83287 25.7585 7.78837 25.9962 7.80264C25.9962 7.80264 26.3773 6.93188 25.4078 6.94432C24.6233 6.95925 22.6372 8.79158 21.5163 10.6426C20.4885 12.3418 18.9307 15.2364 20.4947 15.8671C21.9284 16.4468 24.6568 13.2013 25.9205 11.5009C27.1841 9.80041 30.0639 5.94668 32.4795 5.79243C33.3112 5.7377 33.8064 6.49775 33.8064 6.49775L34.0857 6.05491H36.5013C36.5013 6.05491 31.9519 13.6628 31.5969 14.2388C31.3176 14.6891 30.9465 15.7017 31.9693 15.1344C32.9921 14.5672 35.1359 11.8081 35.1359 11.8081ZM33.8213 23.9988C32.0427 22.765 29.913 22.1421 27.7514 22.2237C27.1663 22.2396 26.5932 22.3936 26.0786 22.6731C25.5641 22.9525 25.1225 23.3496 24.7896 23.8321C23.8686 22.2212 22.0476 21.2322 19.2323 21.2546C14.683 21.3069 10.1709 23.4091 6.59593 23.4066C3.16995 23.4066 0.671215 21.2484 0.751899 17.4158C0.902096 10.6898 6.57359 4.63308 10.8064 1.90761C13.2468 0.341484 15.2875 -0.123749 16.6219 0.0267674C17.5951 0.13499 18.7656 1.262 18.027 2.92266C16.9422 5.34959 15.4439 5.15056 15.4998 3.98996C15.5308 3.23489 16.0323 2.75971 16.4096 2.49723C16.6492 2.33179 17.0725 2.28452 17.2934 2.27954C17.5082 2.09793 17.6658 0.7694 15.928 1.20602C14.1902 1.64265 12.08 3.35929 10.0765 5.57723C8.07308 7.79518 4.95369 11.9873 4.18285 16.3896C3.82287 18.4309 4.05872 22.154 8.88861 22.1117C12.9849 22.0781 19.0226 19.375 24.5712 19.431C26.7248 19.4522 28.5992 20.0343 30.0602 20.9374C31.4951 21.8231 33.2156 23.1168 33.8263 24" fill="#A1A1AA"/>
</g>
<defs>
<clipPath id="clip0_440_284">
<rect width="77" height="24" fill="white" transform="translate(0.75)"/>
</clipPath>
</defs>
</svg>
