<svg width="20" height="20" viewBox="0 0 20 20" fill="none" xmlns="http://www.w3.org/2000/svg">
<path d="M5.00938 11.547C5.0115 11.5893 5.00499 11.6317 4.99024 11.6714C4.97548 11.7111 4.9528 11.7474 4.92357 11.7781C4.89434 11.8088 4.85916 11.8333 4.82019 11.8499C4.78122 11.8666 4.73927 11.8752 4.69688 11.8751H1.25001C1.10894 11.8753 0.971953 11.8278 0.861316 11.7403C0.750679 11.6528 0.672902 11.5304 0.640634 11.3931C0.620541 11.2991 0.621467 11.2018 0.643346 11.1082C0.665225 11.0146 0.707517 10.927 0.767196 10.8517C1.31861 10.1204 2.05024 9.54464 2.89063 9.18059C2.52167 8.84418 2.23869 8.42427 2.06538 7.95601C1.89208 7.48775 1.8335 6.98478 1.89455 6.48922C1.9556 5.99367 2.13451 5.51996 2.41629 5.10776C2.69807 4.69557 3.07451 4.35689 3.51409 4.1201C3.95368 3.88332 4.4436 3.7553 4.94283 3.74679C5.44206 3.73828 5.93606 3.84952 6.38346 4.07118C6.83085 4.29285 7.21863 4.61849 7.51429 5.02084C7.80996 5.42319 8.00491 5.89053 8.08282 6.38371C8.09288 6.45003 8.081 6.51783 8.04899 6.57678C8.01698 6.63572 7.96658 6.6826 7.90548 6.71028C7.0386 7.11104 6.30443 7.7514 5.78962 8.5558C5.27481 9.36021 5.00083 10.2951 5.00001 11.2501C5.00001 11.3501 5.00001 11.4486 5.00938 11.547ZM19.2281 10.8509C18.678 10.1205 17.948 9.54502 17.1094 9.18059C17.4783 8.84418 17.7613 8.42427 17.9346 7.95601C18.1079 7.48775 18.1665 6.98478 18.1055 6.48922C18.0444 5.99367 17.8655 5.51996 17.5837 5.10776C17.302 4.69557 16.9255 4.35689 16.4859 4.1201C16.0463 3.88332 15.5564 3.7553 15.0572 3.74679C14.558 3.73828 14.064 3.84952 13.6166 4.07118C13.1692 4.29285 12.7814 4.61849 12.4857 5.02084C12.1901 5.42319 11.9951 5.89053 11.9172 6.38371C11.9071 6.45003 11.919 6.51783 11.951 6.57678C11.983 6.63572 12.0334 6.6826 12.0945 6.71028C12.9614 7.11104 13.6956 7.7514 14.2104 8.5558C14.7252 9.36021 14.9992 10.2951 15 11.2501C15 11.3501 15 11.4486 14.9906 11.547C14.9885 11.5893 14.995 11.6317 15.0098 11.6714C15.0245 11.7111 15.0472 11.7474 15.0764 11.7781C15.1057 11.8088 15.1409 11.8333 15.1798 11.8499C15.2188 11.8666 15.2607 11.8752 15.3031 11.8751H18.75C18.8911 11.8753 19.0281 11.8278 19.1387 11.7403C19.2493 11.6528 19.3271 11.5304 19.3594 11.3931C19.3796 11.2989 19.3787 11.2014 19.3566 11.1077C19.3346 11.0139 19.2921 10.9262 19.232 10.8509H19.2281ZM12.275 14.2243C12.8973 13.7477 13.3546 13.0881 13.5827 12.3382C13.8108 11.5883 13.7981 10.7857 13.5465 10.0434C13.2949 9.30104 12.817 8.65618 12.1799 8.19947C11.5429 7.74275 10.7788 7.49713 9.99493 7.49713C9.21109 7.49713 8.44696 7.74275 7.80993 8.19947C7.1729 8.65618 6.69499 9.30104 6.44338 10.0434C6.19177 10.7857 6.17911 11.5883 6.40717 12.3382C6.63523 13.0881 7.09255 13.7477 7.71485 14.2243C6.61058 14.7028 5.6885 15.5222 5.0836 16.5626C5.02874 16.6576 4.99986 16.7654 4.99987 16.8752C4.99987 16.9849 5.02877 17.0927 5.08364 17.1877C5.13851 17.2827 5.21743 17.3616 5.31246 17.4164C5.40749 17.4713 5.51529 17.5001 5.62501 17.5001H14.375C14.4847 17.5001 14.5925 17.4713 14.6876 17.4164C14.7826 17.3616 14.8615 17.2827 14.9164 17.1877C14.9713 17.0927 15.0001 16.9849 15.0001 16.8752C15.0002 16.7654 14.9713 16.6576 14.9164 16.5626C14.3102 15.5215 13.3864 14.7021 12.2805 14.2243H12.275Z" fill="white"/>
</svg>
