<svg width="115" height="32" viewBox="0 0 115 32" fill="none" xmlns="http://www.w3.org/2000/svg">
<g clip-path="url(#clip0_3987_24072)">
<path d="M0 26.0216V6.36414H14.0764V9.17326H16.8932V11.9838H19.7114V20.4125H16.8932V23.223H14.0764V26.0321H0V26.0216ZM5.63505 23.2125H11.2688V20.402H14.087V11.9733H11.2688V9.16273H5.63505V23.2125Z" fill="#18181B" fill-opacity="0.8"/>
<path d="M20.8384 26.0216V23.2125H26.4721V14.7929H23.6552V11.9838H32.0965V23.2125H37.7316V26.0216H20.8384ZM26.4615 9.17326V6.36414H32.0965V9.17326H26.4615Z" fill="#18181B" fill-opacity="0.8"/>
<path d="M42.4578 26.0216V23.2125H39.6409V6.36414H45.276V11.9838H56.5342V14.7929H59.3524V23.2125H56.5342V26.0216H42.4578ZM45.276 23.2125H53.7173V14.7929H45.276V23.2125Z" fill="#18181B" fill-opacity="0.8"/>
<path d="M62.1689 26.0214V23.2123H76.2454V20.4018H64.9871V17.5926H62.1689V14.7822H64.9871V11.973H79.0635V14.7822H67.8039V17.5926H79.0635V20.4018H81.8804V23.2123H79.0635V26.0214H62.1689Z" fill="#18181B" fill-opacity="0.8"/>
<path d="M86.6086 31.6411V28.8319H97.8769V26.0214H86.6086V23.2123H83.79V11.973H89.4252V23.2123H97.8667V11.973H103.502V28.8214H100.683V31.6305H86.6086V31.6411Z" fill="#18181B" fill-opacity="0.8"/>
<path d="M106.548 11.5983V8.78775H108.666V5.97863H106.548V3.16948H108.666V0.359009H112.893V8.78775H115V11.5983H106.548Z" fill="#18181B" fill-opacity="0.4"/>
</g>
<defs>
<clipPath id="clip0_3987_24072">
<rect width="115" height="32" fill="white"/>
</clipPath>
</defs>
</svg>
