<svg width="66" height="24" viewBox="0 0 66 24" fill="none" xmlns="http://www.w3.org/2000/svg">
<g clip-path="url(#clip0_7765_4637)">
<path d="M26.9427 5.6349C26.9427 5.6349 27.1987 5.30618 27.412 5.0505C27.796 4.6122 28.4786 3.99128 29.0332 3.58951C29.2038 3.47993 29.3745 3.33383 29.3745 3.33383C29.3745 3.33383 29.0758 3.37036 28.9052 3.40688C28.5212 3.47993 27.9239 3.80866 27.6253 4.02781C27.156 4.39305 26.6014 4.94093 26.8574 5.4888C26.9 5.52532 26.9427 5.6349 26.9427 5.6349ZM29.6304 6.25582C30.3984 6.2193 31.1236 6.03667 31.7636 5.70795C32.4035 5.37922 33.3847 4.79483 33.2994 4.06433C33.2568 3.84518 33.0861 3.66256 32.8728 3.58951C32.5742 3.47993 32.4462 3.51646 32.0622 3.58951C31.8062 3.66256 31.6782 3.69908 31.4223 3.80866C30.6543 4.1739 29.5878 4.97745 29.0332 5.59837C28.9052 5.74447 28.7772 5.9271 28.6492 6.03667C28.5639 6.10972 28.5212 6.18277 28.5212 6.18277C28.5639 6.25582 29.3318 6.25582 29.6304 6.25582ZM27.668 7.46114C27.5826 7.53419 27.4973 7.71681 27.412 7.82639C27.3693 7.89944 27.284 7.97249 27.2413 8.00901C27.028 8.11859 26.8574 8.15511 26.6867 8.00901C26.4308 7.78986 26.2601 7.49766 26.2601 7.16894V6.76717C26.2174 6.58454 26.0041 6.3654 25.8761 6.18277C25.7482 5.96362 25.6202 5.59837 25.6202 5.3427C25.5775 4.57568 26.0468 3.88171 26.6441 3.33383C27.2413 2.78596 28.0519 2.31114 28.9052 2.01894C29.7158 1.72674 30.9103 1.50759 31.8062 1.79979C32.1049 1.87284 32.4888 2.09199 32.7021 2.31114C32.7448 2.34766 32.7875 2.42071 32.8301 2.42071C32.8728 2.45724 32.9581 2.45724 33.0434 2.45724C33.3421 2.49376 33.726 2.67639 33.8967 2.82249C34.238 3.07816 34.4086 3.29731 34.494 3.66256C34.6646 4.35653 34.1953 5.12355 33.6834 5.59837C32.7875 6.40192 31.8489 6.94979 30.697 7.35157C30.1851 7.53419 29.3745 7.68029 28.8199 7.64376C28.6492 7.64376 28.4359 7.60724 28.2652 7.57071C28.1799 7.57071 27.8386 7.49766 27.796 7.46114C27.7533 7.49766 27.7106 7.46114 27.668 7.46114ZM28.7345 8.99518C28.7772 8.99518 28.8199 9.03171 28.8625 9.03171C29.2891 9.17781 29.4598 9.50653 29.5451 9.83525C29.8011 10.6753 29.8864 12.5016 29.9291 13.1955C29.9717 13.7434 29.9717 14.2548 30.0144 14.8026C30.0571 15.2409 30.0571 15.8619 29.9717 16.2636C29.9291 16.4097 29.8011 16.5924 29.6304 16.7019C29.4171 16.8115 28.9905 16.8115 28.7345 16.775C28.1373 16.6654 27.9239 16.3367 27.8386 15.8253C27.6253 14.62 27.7533 12.2459 27.8386 11.2232C27.8813 10.8945 28.0093 9.83525 28.2226 9.39696C28.3079 9.28738 28.4786 8.95866 28.7345 8.99518ZM10.2617 10.8214C10.2617 10.8214 9.36578 10.8579 8.7685 10.931C8.00058 11.004 6.55005 11.2232 5.6968 11.4789C5.44083 11.5519 4.92888 11.7345 4.88622 11.9537C4.84355 12.1728 5.0142 12.3555 5.18485 12.5381C5.31284 12.6477 5.91012 13.159 6.08077 13.2686C6.80603 13.7799 8.25655 14.5835 9.32311 14.9487C9.70707 15.0948 10.3043 15.2775 10.3043 15.2775C10.3043 15.2775 10.2617 13.7799 10.2617 12.3189C10.219 11.5884 10.2617 10.8214 10.2617 10.8214ZM26.5161 11.4058C26.5587 11.8076 26.4308 12.5746 26.4308 12.6477C26.3881 12.8668 26.1748 13.4147 26.1748 13.4512C26.0041 13.7799 25.8335 14.0356 25.6628 14.2913C25.3642 14.7296 24.6816 15.4601 24.255 15.7523C22.7191 16.8845 20.3727 17.542 18.3249 17.7246C16.9597 17.8707 15.3812 17.8342 13.888 17.615C13.376 17.542 12.6508 17.3959 12.6508 17.3959C12.6508 17.3959 12.6508 17.6516 12.6081 17.8342C12.6081 17.9072 12.5228 18.1264 12.4801 18.1994C12.3948 18.3821 12.1815 18.4916 11.9682 18.5282C11.6695 18.5647 11.3282 18.6012 11.0723 18.4916C10.603 18.309 10.4323 17.9438 10.347 17.542C10.2617 17.2133 10.219 16.5924 10.219 16.5924C10.219 16.5924 9.87772 16.4462 9.57909 16.3367C8.68318 15.9714 7.82993 15.4966 7.10466 15.0218C6.89135 14.8757 6.0381 14.2548 5.82479 14.1087C5.27018 13.6704 4.80089 13.2321 4.41693 12.6477C4.11829 12.2094 4.03297 11.8076 4.24628 11.3328C4.54492 10.6753 5.65414 10.2005 6.3794 9.9083C6.93401 9.68916 8.64051 9.21433 9.32311 9.14128C9.66441 9.10476 10.1764 9.03171 10.219 8.99518C10.219 8.99518 10.2617 8.99518 10.2617 8.95866C10.2617 8.92213 10.3043 8.30121 10.3043 8.04554C10.3043 7.82639 10.5177 6.29235 10.5603 5.96362C10.603 5.781 10.731 5.12355 10.9016 4.94093C10.9869 4.83135 11.2003 4.83135 11.3282 4.9044C12.1388 5.3427 12.3948 6.84022 12.4375 7.60724C12.4801 8.08206 12.4801 8.77603 12.4801 8.77603C12.4801 8.77603 13.4187 8.73951 13.9733 8.77603C14.5279 8.77603 15.1252 8.84908 15.7225 8.95866C16.4477 9.06823 17.8983 9.32391 18.7089 9.68915C19.3915 9.98135 20.0314 10.4927 20.2447 11.004C20.4154 11.4789 20.4154 11.8076 20.1167 12.2459C19.7754 12.7207 19.1781 13.086 18.5382 13.1225C18.3676 13.1225 17.6423 13.0494 17.429 12.9033C17.3437 12.8303 17.3437 12.7572 17.429 12.6842C17.4716 12.6477 17.7703 12.5016 17.9836 12.4285C18.0689 12.392 18.1542 12.3189 18.2396 12.2824C18.4102 12.1728 18.5382 12.0267 18.5382 11.8806C18.4955 11.6615 18.2822 11.5519 18.0263 11.4789C16.917 11.1136 14.6559 10.7849 13.5467 10.7119C13.1201 10.6753 12.5228 10.6753 12.5228 10.6753L12.6508 15.8253C12.6508 15.8253 13.1627 15.8984 13.5467 15.9714C13.76 16.008 14.7412 16.081 14.9972 16.081C16.9597 16.1175 19.0928 15.9714 20.8846 15.2409C21.6526 14.9122 22.3778 14.547 22.9324 13.9991C23.6577 13.3051 24.0417 12.3189 23.9137 11.3328C23.7857 10.237 22.8898 8.92213 22.1645 8.11859C20.2447 6.03667 17.0024 4.28348 14.1013 3.29731C11.1576 2.27461 8.25655 1.65369 5.14219 1.58064C4.3316 1.54412 2.58244 1.58064 1.68653 1.79979C1.55854 1.83632 1.43056 1.87284 1.30257 1.87284C1.21724 1.87284 1.04659 1.94589 1.00393 1.98241C0.961269 1.98241 0.961269 2.01894 0.961269 2.01894C0.961269 2.01894 1.00393 2.05546 1.04659 2.05546C1.13192 2.09199 1.51588 2.12851 1.72919 2.12851C1.89984 2.16504 2.11316 2.23809 2.15582 2.34766C2.24114 2.45724 2.24114 2.53029 2.15582 2.63986C1.94251 2.85901 1.21724 2.82249 0.875944 2.78596C0.534645 2.74944 0.10802 2.63986 0.0226953 2.38419C-0.0626297 2.09199 0.10802 1.79979 0.27867 1.50759C0.662632 0.959719 1.17458 0.667521 1.94251 0.484897C3.00907 0.229223 4.41693 0.0465987 5.44083 0.0100739C7.7446 -0.0629758 9.96305 0.265748 12.2242 0.850145C13.504 1.17887 15.2105 1.72674 16.4477 2.23809C17.3437 2.60334 18.7515 3.26078 19.5194 3.73561C19.7754 3.88171 21.2259 4.79483 21.4393 4.94093C21.9085 5.26965 22.5058 5.74447 22.9751 6.10972C23.8284 6.84022 24.8949 7.97249 25.4069 8.84908C25.5348 9.06823 25.6202 9.28738 25.7908 9.50653C25.8335 9.57958 26.0895 10.0909 26.1321 10.237C26.1748 10.3831 26.2174 10.6023 26.2174 10.6023C26.4308 10.8214 26.5161 11.2597 26.5161 11.4058ZM36.5418 11.8076H36.6271C37.3523 11.8806 38.0349 11.9902 38.5896 12.2094C39.1015 12.392 39.3575 12.6477 39.6561 13.0494C40.0401 13.7069 40.0827 14.5835 39.7414 15.2775C39.4855 15.7888 38.8882 16.1906 38.3336 16.4462C37.779 16.6654 37.2244 16.775 36.5844 16.848C35.4752 16.9576 34.238 16.775 33.2568 16.3367C32.6595 16.081 31.9342 15.6427 31.5503 15.0948C31.2943 14.6931 31.2943 14.1452 31.6356 13.7799C32.1475 13.159 33.2994 13.0494 34.11 13.0494C34.7499 13.086 35.9018 13.2321 36.5418 13.4147C36.7124 13.4512 37.3523 13.6704 37.4377 13.7799C37.523 13.853 37.5657 13.926 37.523 14.0356C37.395 14.4009 36.3284 14.5835 36.0298 14.62C35.2192 14.7296 34.7926 14.4739 33.8967 14.1452C33.6834 14.0721 33.3847 13.9991 33.1288 13.9626C32.7021 13.926 32.2329 14.0356 32.1475 14.4009C32.1049 14.5835 32.3608 14.8026 32.5742 14.8757C33.0434 15.0583 33.4701 15.1314 33.9394 15.1314C35.3472 15.1679 36.9684 14.9487 38.1203 14.2548C38.2909 14.1452 38.4189 13.9991 38.4189 13.853C38.4189 13.8165 38.3762 13.6338 38.2909 13.5973H38.2483C38.2056 13.5973 38.1629 13.5243 38.1203 13.4877C38.035 13.4147 37.6936 13.2686 37.651 13.2686C36.8831 12.9764 35.4325 12.8668 34.6646 12.7938C33.8967 12.7207 32.6595 12.6477 32.3608 12.6111C32.0622 12.5746 31.7209 12.5381 31.4649 12.4285C31.209 12.3189 30.953 12.0998 30.8677 11.8441C30.7397 11.3693 30.9103 10.8214 31.209 10.4562C31.9769 9.50653 33.8114 9.14128 35.1766 8.99518C36.4991 8.84908 38.6322 8.84908 39.9121 9.43348C40.1254 9.50653 40.2107 9.61611 40.1681 9.79873C40.0827 10.1275 39.7841 10.3466 39.4001 10.4562C39.0162 10.5658 38.2056 10.6023 37.8643 10.6023C36.2858 10.6753 34.4086 10.6388 32.9155 10.9675C32.7875 11.004 32.6168 11.0406 32.5315 11.1136C32.3182 11.3328 32.9581 11.4058 33.0861 11.4058H33.1714L36.5418 11.8076ZM41.4053 16.775C40.7653 16.5924 40.6374 15.7158 40.5947 15.2775C40.5094 13.853 40.936 11.8441 41.4906 10.4927C41.6613 10.0909 41.8746 9.47001 42.3865 9.50653C42.7278 9.54306 42.9838 9.7622 43.1544 9.98135C43.6664 10.5658 44.3063 11.3693 44.733 11.9537C45.2022 12.5746 45.6715 13.2321 46.1408 13.7799C46.1835 13.853 46.2688 13.926 46.3115 13.9626C46.3968 14.0356 46.4821 14.0356 46.4821 13.9626C46.4821 13.926 46.4821 13.2321 46.4395 13.086C46.3968 12.8668 46.3968 12.6842 46.3541 12.465C46.2688 11.8806 46.0555 11.0771 45.8848 10.5292C45.7142 9.9083 45.4582 9.28738 45.2876 8.66646C45.2449 8.48384 45.2022 8.26469 45.2022 8.08206C45.2022 7.82639 45.4156 7.68029 45.7142 7.75334C46.3541 7.93596 47.2074 9.14128 47.4634 9.54306C47.5487 9.68916 47.89 10.3831 47.9753 10.6023C48.2313 11.2962 48.4019 11.9172 48.4873 12.6842C48.5726 13.4147 48.4873 14.4739 48.146 15.1679C48.018 15.4236 47.762 15.7888 47.506 15.9714C47.1647 16.2636 46.4395 16.4828 45.9702 16.2271C45.4582 15.9714 44.5623 14.6931 44.4343 14.4739C43.9224 13.7069 43.0691 12.2459 42.9411 12.0998C42.8985 12.0633 42.8558 12.0267 42.8131 12.0267C42.7705 12.0267 42.7278 12.0998 42.7278 12.1728C42.6425 12.6111 42.5998 14.5835 42.5998 14.6565C42.5998 14.9853 42.5572 15.8253 42.4718 16.2271C42.3865 16.4828 42.3439 16.7019 42.0452 16.8115C41.7892 16.8845 41.6613 16.848 41.4053 16.775ZM50.0658 16.6654C49.9804 16.6289 49.8951 16.5193 49.8098 16.4462C49.8098 16.4462 49.5538 16.1541 49.5112 16.0445C49.4685 15.9714 49.4258 15.8984 49.4258 15.8619C49.2125 15.387 49.2125 14.9487 49.3405 14.4739C49.4685 13.9991 49.5538 13.9991 49.8098 13.3782C49.8098 13.3416 49.8525 13.3051 49.8525 13.2686C49.8525 13.1955 49.6818 12.6111 49.6818 12.4285C49.6818 12.1363 49.9378 11.9537 50.3644 11.9172H50.4497C50.6204 11.8806 50.7484 11.5884 50.8337 11.3693C50.9617 11.0406 51.175 10.5658 51.175 10.5658C51.175 10.5658 50.6204 10.4562 50.3217 10.3831C49.9804 10.2736 49.7671 10.1275 49.5965 9.87178C49.4258 9.57958 49.5538 9.39696 49.8951 9.32391C50.0231 9.28738 51.0897 9.10476 51.431 9.06823C51.8576 9.03171 52.2416 8.95866 52.6255 8.92213C52.9668 8.88561 54.5453 8.73951 55.0573 8.73951C55.8252 8.77603 56.3372 9.03171 56.7638 9.57958C57.0197 9.87178 57.1477 10.237 56.8064 10.4197C56.2518 10.7119 54.46 10.7484 54.1187 10.7484H52.8815L52.4975 11.8076H54.5027C54.6733 11.8076 54.844 11.8076 54.9719 11.8441C55.3559 11.9172 55.4839 12.1728 55.4839 12.5016C55.4839 12.9033 55.3986 13.1225 55.0146 13.159C54.8013 13.1955 52.5828 13.1955 52.2842 13.2321C52.1136 13.2686 51.9002 13.2686 51.9002 13.2686C51.9002 13.2686 51.7296 13.6338 51.6016 13.9991C51.4736 14.3643 51.3456 14.7661 51.3456 14.7661H51.5589C51.7296 14.7661 51.8576 14.7661 51.9856 14.7296C52.6682 14.62 53.6921 14.5104 54.5027 14.4009C54.9293 14.3278 55.1853 14.3278 55.3986 14.5835C55.6119 14.8026 55.6972 14.9853 55.7399 15.2775C55.7399 15.5331 55.5266 15.7158 55.2279 15.8984C54.3747 16.4828 52.8388 17.1037 51.7296 17.2133C51.2177 17.2498 51.0897 17.2133 50.6204 17.1037C50.535 17.0672 50.2364 16.9576 50.2364 16.9576C50.3217 16.8115 50.1511 16.7019 50.0658 16.6654ZM64.1444 11.3693C63.5898 11.7711 62.8218 12.6111 62.4805 13.0494C62.0113 13.6338 61.5846 14.2913 61.158 14.8026C61.0727 14.9122 60.774 15.314 60.8167 15.3505C60.8167 15.387 61.1153 15.387 61.414 15.314C62.0113 15.2409 62.8218 14.8757 63.2911 14.547C63.9737 14.0721 64.443 13.4512 64.6563 12.7207C64.7417 12.392 64.7843 11.698 64.5283 11.3693C64.4004 11.3328 64.2297 11.2962 64.1444 11.3693ZM59.5795 17.3959C59.5795 17.3959 59.4088 17.8707 59.2809 18.1994C59.0675 18.8204 58.5556 20.464 58.4276 21.0119C58.257 21.7789 57.745 23.7877 57.745 23.8243C57.7023 23.8973 57.7024 23.8973 57.617 23.9338C57.4037 24.0434 57.3184 24.0069 57.0624 23.8973C56.7211 23.7512 56.4651 23.6051 56.2092 23.3129C55.7399 22.765 55.8252 21.7424 55.9532 21.158C56.2945 19.0395 56.6358 18.1264 57.5744 16.0445V15.9714C57.2757 15.4236 57.1051 14.8026 57.1051 14.2913C57.1051 12.6477 58.2143 11.0406 59.4515 9.72568C59.5368 9.61611 60.1341 8.99518 60.4327 9.03171C60.6887 9.03171 60.774 9.32391 60.7314 9.54306C60.6034 10.3101 59.9635 11.0771 59.5368 11.698C59.0675 12.4285 58.9396 12.7207 58.7262 13.3782C58.6836 13.4877 58.5983 13.9626 58.5983 14.0356C58.5983 14.2182 58.6409 14.4374 58.6409 14.4374C58.6409 14.4374 59.4088 13.4877 59.9208 12.9399C60.2194 12.6111 60.3901 12.4285 60.6461 12.1728C60.902 11.9537 61.7979 11.1136 62.0539 10.931C62.6085 10.4927 62.8645 10.3101 63.4618 10.0179C63.9311 9.79873 64.3577 9.7622 64.827 10.0179C65.5522 10.4197 65.8935 11.2962 65.9789 11.9902C66.0642 12.8303 65.8935 13.7799 65.4242 14.5104C64.9123 15.387 64.187 16.008 63.2485 16.5193C62.2672 17.0672 61.1153 17.4689 60.0061 17.4324C59.7501 17.3959 59.5795 17.3959 59.5795 17.3959Z" fill="white"/>
</g>
<defs>
<clipPath id="clip0_7765_4637">
<rect width="66" height="24" fill="white"/>
</clipPath>
</defs>
</svg>
