<svg width="13" height="12" viewBox="0 0 13 12" fill="none" xmlns="http://www.w3.org/2000/svg">
<path d="M10.8269 4.98649L6.91513 8.83041C6.86062 8.88417 6.79585 8.92682 6.72452 8.95592C6.6532 8.98502 6.57674 9 6.49951 9C6.42228 9 6.34582 8.98502 6.2745 8.95592C6.20318 8.92682 6.1384 8.88417 6.08389 8.83041L2.17216 4.98649C2.06193 4.87817 2 4.73126 2 4.57807C2 4.42488 2.06193 4.27797 2.17216 4.16965C2.28239 4.06133 2.43189 4.00048 2.58778 4.00048C2.74367 4.00048 2.89317 4.06133 3.0034 4.16965L6.5 7.60564L9.9966 4.16917C10.1068 4.06085 10.2563 4 10.4122 4C10.5681 4 10.7176 4.06085 10.8278 4.16917C10.9381 4.27749 11 4.4244 11 4.57759C11 4.73078 10.9381 4.87769 10.8278 4.98601L10.8269 4.98649Z" fill="black"/>
</svg>
