<svg width="40" height="40" viewBox="0 0 40 40" fill="none" xmlns="http://www.w3.org/2000/svg">
<rect width="40" height="40" rx="20" fill="#A1A1AA"/>
<path d="M10.757 23.427V20.398H7.728V19.462H10.757V16.433H11.693V19.462H14.722V20.398H11.693V23.427H10.757ZM22.8911 24.064V25H16.3391V24.064H19.1731V16.251C19.1731 16.251 18.0941 17.564 16.2091 18.058V17.096C18.1591 16.563 19.4331 14.717 19.4331 14.717H20.2001V24.064H22.8911ZM25.7172 18.006C25.7172 19.436 26.6142 20.372 28.0572 20.372C29.5002 20.372 30.4102 19.436 30.4102 18.006C30.4102 16.589 29.5002 15.653 28.0572 15.653C26.6142 15.653 25.7172 16.589 25.7172 18.006ZM27.8882 25.143C25.8212 25.143 24.6642 23.869 24.5862 21.828H25.5742C25.6262 23.492 26.5102 24.207 27.8882 24.207C29.6042 24.207 30.6442 22.868 30.6442 19.748C30.6442 19.644 30.6442 19.553 30.6312 19.397C30.2802 20.554 29.3052 21.308 27.9272 21.308C25.9382 21.308 24.6642 19.891 24.6642 18.006C24.6642 16.134 25.9122 14.717 28.0442 14.717C30.3582 14.717 31.6712 16.485 31.6712 19.852C31.6712 23.323 30.2022 25.143 27.8882 25.143Z" fill="#3F3F46"/>
</svg>
