<svg width="16" height="16" viewBox="0 0 16 16" fill="none" xmlns="http://www.w3.org/2000/svg">
<path d="M9.40063 14.8433C12.5903 14.1935 14.9905 11.3723 14.9905 7.99072C14.9904 4.12863 11.8594 0.997559 7.99731 0.997559C4.13519 0.997559 1.00427 4.12863 1.00415 7.99072C1.00415 11.4811 3.56144 14.3742 6.90454 14.8989V10.0132H5.12915V7.99072H6.90454V6.45068C6.90454 4.80756 7.82225 3.85349 9.25317 3.74072L9.54614 3.72998C9.73741 3.72998 9.93092 3.73768 10.1135 3.75049C10.6613 3.7889 11.1116 3.86572 11.1116 3.86572V5.5874H10.2297C10.121 5.5874 10.0215 5.59596 9.93091 5.61182C9.88577 5.61972 9.84289 5.62966 9.802 5.64111C9.43282 5.74446 9.2334 5.98705 9.14575 6.27588C9.12631 6.34002 9.11283 6.40648 9.10376 6.47412C9.09469 6.5416 9.0901 6.61026 9.09009 6.6792V7.99072H11.0295L10.719 10.0122V10.0132H9.09009V14.8989L9.40063 14.8433Z" fill="#71717A"/>
</svg>
