<svg width="16" height="16" viewBox="0 0 16 16" fill="none" xmlns="http://www.w3.org/2000/svg">
<path d="M9.25 15.9023C13.0745 15.3022 16 11.9921 16 7.99902C15.9998 3.58088 12.4182 -0.000976562 8 -0.000976562C3.58182 -0.000976562 0.000168189 3.58088 0 7.99902C0 11.9921 2.92548 15.3022 6.75 15.9023V10.3125H4.71875V7.99902H6.75V6.2373C6.75 4.23239 7.94424 3.12412 9.77148 3.12402C10.643 3.12402 11.5546 3.27893 11.5625 3.28027V5.25H10.5537C10.0567 5.25 9.73099 5.40439 9.5293 5.6377C9.47888 5.69607 9.43599 5.75908 9.40039 5.82617C9.29361 6.02712 9.25004 6.26194 9.25 6.49902V7.99902H11.4688L11.1143 10.3125H9.25V15.9023Z" fill="white"/>
</svg>
