<svg width="89" height="22" viewBox="0 0 89 22" fill="none" xmlns="http://www.w3.org/2000/svg">
<g clip-path="url(#clip0_2703_4250)">
<path d="M32.8965 7.77362H28.7405V5.74396C28.7584 3.39504 29.3836 2.52241 30.0712 2.07455C30.7803 1.6106 31.8604 1.56839 32.8965 1.57787C33.0002 1.57789 33.1028 1.55746 33.1986 1.51776C33.2943 1.47805 33.3813 1.41985 33.4545 1.34648C33.5277 1.27311 33.5857 1.18601 33.6252 1.09019C33.6646 0.99436 33.6848 0.891683 33.6846 0.788039C33.6846 0.684546 33.6642 0.582062 33.6246 0.486442C33.5851 0.390822 33.527 0.30394 33.4538 0.230759C33.3806 0.157578 33.2938 0.0995325 33.1981 0.0599381C33.1025 0.0203437 33 -2.34769e-05 32.8965 2.0308e-08C31.8653 0.00840625 30.4729 -0.0352346 29.2275 0.741C27.9608 1.53333 27.1461 3.13874 27.1626 5.74414V7.7738H25.5386C25.102 7.7738 24.748 8.12793 24.748 8.56184C24.7483 8.77131 24.8317 8.97212 24.98 9.12014C25.1282 9.26816 25.3291 9.35131 25.5386 9.35131H27.1626V21.1778C27.1627 21.3872 27.2459 21.5881 27.3939 21.7363C27.5419 21.8845 27.7426 21.9679 27.9521 21.9683C28.1616 21.968 28.3623 21.8845 28.5104 21.7363C28.6585 21.5881 28.7417 21.3873 28.7419 21.1778C28.7415 13.6152 28.7401 13.094 28.7401 9.35131H32.8962C33.1056 9.35107 33.3064 9.26785 33.4545 9.11988C33.6027 8.97191 33.6862 8.77124 33.6867 8.56184C33.6871 8.12775 33.3319 7.77362 32.8965 7.77362ZM51.482 20.3917V20.3881C50.1517 20.4 49.0789 20.32 48.4701 19.8618C47.8675 19.4334 47.3324 18.4969 47.3254 16.1103C47.3243 12.7156 47.3236 11.1459 47.3236 9.37241H51.4813C51.9172 9.37241 52.2708 9.01845 52.2708 8.58294C52.2708 8.14743 51.9168 7.79526 51.4813 7.79526H47.3236C47.3236 6.22365 47.3254 4.19507 47.3254 0.78947C47.3251 0.579991 47.2417 0.379189 47.0935 0.231165C46.9452 0.0831417 46.7443 -1.72697e-07 46.5348 2.0308e-08C46.4313 7.0005e-05 46.3289 0.0205615 46.2333 0.0603005C46.1377 0.10004 46.0509 0.158245 45.9779 0.231582C45.9049 0.30492 45.847 0.391948 45.8077 0.48768C45.7683 0.583412 45.7482 0.685967 45.7486 0.78947V7.79526H44.1224C43.9133 7.79526 43.7127 7.87834 43.5648 8.02623C43.4169 8.17411 43.3339 8.37469 43.3339 8.58383C43.3339 8.79298 43.4169 8.99356 43.5648 9.14144C43.7127 9.28933 43.9133 9.37241 44.1224 9.37241H45.7486V16.1103C45.7395 18.6792 46.3485 20.2764 47.5508 21.1442C48.75 21.9801 50.1515 21.9571 51.4818 21.9682C51.5855 21.968 51.6881 21.9475 51.7839 21.9077C51.8796 21.8679 51.9665 21.8096 52.0398 21.7362C52.113 21.6628 52.171 21.5757 52.2105 21.4798C52.2501 21.384 52.2704 21.2813 52.2702 21.1776C52.2702 21.0742 52.2497 20.9719 52.2101 20.8764C52.1704 20.7809 52.1123 20.6942 52.0391 20.6212C51.9659 20.5482 51.879 20.4904 51.7834 20.451C51.6878 20.4116 51.5854 20.3915 51.482 20.3917ZM87.7674 20.3933V20.3896C86.0645 20.4012 85.0204 20.2154 84.5172 19.7489C83.9986 19.3204 83.6072 18.3281 83.6101 16.1435V9.37223H87.7667C88.2044 9.37223 88.5551 9.01828 88.5551 8.58276C88.5551 8.14725 88.2044 7.79508 87.7667 7.79508H83.6099V0.787861C83.6101 0.684438 83.5899 0.581992 83.5504 0.486397C83.511 0.390802 83.453 0.30394 83.3799 0.230792C83.3068 0.157645 83.22 0.0996517 83.1244 0.060139C83.0288 0.0206263 82.9264 0.000371573 82.8229 0.000536588C82.7193 0.000301479 82.6167 0.0204849 82.5209 0.0599332C82.4251 0.0993815 82.3381 0.157321 82.2647 0.23044C82.1913 0.30356 82.133 0.390424 82.0932 0.48607C82.0535 0.581716 82.0329 0.684266 82.0328 0.787861V7.79508H80.4077C80.3041 7.79489 80.2014 7.81512 80.1056 7.85461C80.0098 7.89409 79.9228 7.95207 79.8494 8.02522C79.776 8.09836 79.7178 8.18525 79.678 8.28092C79.6382 8.37658 79.6176 8.47915 79.6175 8.58276C79.6176 8.79222 79.7009 8.99305 79.8491 9.1411C79.9973 9.28914 80.1982 9.37228 80.4077 9.37223H82.0328V16.1435C82.0376 18.4501 82.3946 19.9752 83.4852 20.9408C84.5915 21.8732 86.0196 21.9556 87.7672 21.9678C87.9761 21.9676 88.1764 21.8845 88.3241 21.7367C88.4718 21.589 88.5548 21.3887 88.5549 21.1798C88.555 21.0764 88.5347 20.974 88.4951 20.8785C88.4555 20.783 88.3975 20.6962 88.3244 20.6231C88.2512 20.5501 88.1643 20.4922 88.0688 20.4527C87.9732 20.4133 87.8708 20.3931 87.7674 20.3933ZM37.6786 21.1776V8.56273C37.6786 8.12775 38.0326 7.77362 38.4659 7.77362C38.6752 7.77376 38.876 7.85692 39.024 8.00486C39.1721 8.15279 39.2554 8.35342 39.2558 8.56273V21.1776C39.2558 21.6119 38.9016 21.9682 38.4659 21.9682C38.0326 21.9682 37.6786 21.6119 37.6786 21.1776ZM74.299 21.1776V8.56273C74.299 8.12775 74.649 7.77362 75.0844 7.77362C75.1881 7.77355 75.2908 7.7939 75.3866 7.83352C75.4824 7.87314 75.5695 7.93124 75.6429 8.00452C75.7163 8.0778 75.7745 8.16481 75.8142 8.26058C75.854 8.35636 75.8745 8.45903 75.8746 8.56273V21.1776C75.8744 21.3872 75.7911 21.5881 75.6429 21.7363C75.4948 21.8845 75.2939 21.9679 75.0844 21.9682C74.649 21.9682 74.299 21.6119 74.299 21.1776ZM63.3679 7.72085C61.1182 7.72229 59.1127 8.76466 57.8047 10.3905V0.78947C57.8047 0.580279 57.7216 0.379657 57.5737 0.231736C57.4258 0.0838162 57.2252 0.000715444 57.016 0.000715444C56.8068 0.000715444 56.6062 0.0838162 56.4583 0.231736C56.3103 0.379657 56.2272 0.580279 56.2272 0.78947V15.3369C56.2272 15.3927 56.2478 15.4421 56.2598 15.4952C56.5808 19.1412 59.6371 22 63.3682 22C67.3108 22 70.5057 18.8058 70.5057 14.8622C70.5053 10.9183 67.3104 7.72264 63.3679 7.72085ZM63.3679 20.4225C60.2948 20.4166 57.8087 17.9346 57.8047 14.8622C57.8087 11.7877 60.2951 9.3048 63.3679 9.29944C66.4396 9.30462 68.923 11.7873 68.9278 14.8622C68.9226 17.9344 66.4394 20.4164 63.3679 20.4225ZM37.3526 4.60805C37.0577 4.31161 36.8918 3.9108 36.8908 3.4927C36.8908 3.07704 37.0585 2.67103 37.3526 2.37735C37.6483 2.08228 38.0489 1.91626 38.4667 1.91555C38.8818 1.91555 39.288 2.08331 39.5815 2.37735C39.8767 2.67359 40.0428 3.0745 40.0436 3.4927C40.0426 3.91086 39.8765 4.3117 39.5815 4.60805C39.285 4.90258 38.8846 5.06871 38.4667 5.07057C38.0489 5.06881 37.6487 4.90265 37.3526 4.60805ZM73.9703 4.60805C73.6752 4.31173 73.509 3.9109 73.5078 3.4927C73.5087 3.07445 73.675 2.67353 73.9703 2.37735C74.2669 2.08232 74.668 1.91634 75.0863 1.91555C75.5008 1.91555 75.906 2.08331 76.2008 2.37735C76.4949 2.67422 76.6605 3.07481 76.6619 3.4927C76.6604 3.91055 76.4948 4.31109 76.2008 4.60805C75.906 4.90083 75.5008 5.07057 75.0863 5.07057C74.668 5.06879 74.2672 4.90267 73.9703 4.60805Z" fill="#18181B" fill-opacity="0.8"/>
<path d="M7.90785 19.6109C7.66937 19.3714 7.53548 19.0472 7.53547 18.7093C7.53547 18.3739 7.66926 18.0463 7.90785 17.8091C8.14754 17.5708 8.47149 17.4366 8.80947 17.4356C9.14482 17.4356 9.4732 17.5718 9.71072 17.8091C9.94883 18.0483 10.0828 18.3718 10.0835 18.7093C10.0828 19.0472 9.94888 19.3712 9.71072 19.6109C9.47098 19.849 9.14732 19.9833 8.80947 19.9851C8.47152 19.9832 8.14778 19.8489 7.90785 19.6109ZM7.90785 12.087C7.67023 11.8469 7.53649 11.5231 7.53547 11.1853C7.53547 10.8493 7.67069 10.5213 7.90785 10.2837C8.14737 10.0459 8.47089 9.91204 8.80839 9.911C9.14482 9.911 9.47177 10.0469 9.71072 10.2837C9.94893 10.5234 10.0829 10.8474 10.0835 11.1853C10.0825 11.5232 9.94857 11.847 9.71072 12.087C9.47034 12.3245 9.14633 12.4582 8.80839 12.4593C8.47098 12.4582 8.14753 12.3245 7.90785 12.087ZM7.90821 4.56284C7.67116 4.32287 7.53749 3.99962 7.53583 3.66231C7.53583 3.32552 7.6723 2.9975 7.90821 2.75926C8.14797 2.5221 8.47151 2.38895 8.80875 2.38867C9.14623 2.3888 9.47005 2.52196 9.71 2.75926C9.9486 2.99932 10.0828 3.32385 10.0835 3.66231C10.0823 3.99993 9.94812 4.32349 9.71 4.56284C9.47023 4.80064 9.14644 4.93442 8.80875 4.93522C8.47357 4.93522 8.14519 4.79929 7.90821 4.56284ZM7.87476 8.28913C7.64566 8.04163 7.52426 7.71326 7.53726 7.37625C7.54971 7.03792 7.69601 6.71838 7.94398 6.48787C8.19286 6.25964 8.52176 6.13887 8.85919 6.1518C9.196 6.16478 9.51393 6.31079 9.74327 6.5578C9.97078 6.80552 10.0969 7.13658 10.0829 7.47444C10.0682 7.81172 9.92144 8.12968 9.67423 8.3596C9.42574 8.58794 9.09757 8.70964 8.76028 8.69853C8.4227 8.68405 8.10447 8.53693 7.87476 8.28913ZM7.90821 15.8488C7.67067 15.6087 7.53683 15.285 7.53547 14.9472C7.53547 14.6112 7.67194 14.2835 7.90821 14.046C8.1478 13.8078 8.47165 13.6737 8.80947 13.6729C9.14482 13.6729 9.4732 13.8088 9.71 14.046C9.94841 14.2854 10.0826 14.6093 10.0835 14.9472C10.0835 15.2829 9.94753 15.6106 9.71 15.8488C9.47011 16.086 9.1468 16.2197 8.80947 16.2212C8.47189 16.2198 8.14833 16.0861 7.90821 15.8488ZM11.6703 12.087C11.4327 11.8468 11.2988 11.5231 11.2972 11.1853C11.2972 10.8493 11.4338 10.5213 11.6703 10.2837C11.91 10.0459 12.2338 9.91197 12.5715 9.911C12.9093 9.91237 13.233 10.0462 13.4731 10.2837C13.7113 10.5235 13.8454 10.8474 13.8462 11.1853C13.8449 11.5232 13.711 11.847 13.4731 12.087C13.2329 12.3242 12.9092 12.4579 12.5715 12.4593C12.2339 12.4583 11.9101 12.3246 11.6703 12.087ZM11.6703 8.32436C11.4328 8.085 11.2991 7.76173 11.2982 7.42454C11.2982 7.0874 11.4338 6.76081 11.6703 6.52185C11.9107 6.28523 12.2342 6.1522 12.5715 6.15127C12.9069 6.15127 13.2349 6.28612 13.4731 6.52185C13.7113 6.76204 13.8453 7.08631 13.8462 7.42454C13.8462 7.75918 13.7103 8.08792 13.4731 8.32436C13.2333 8.56266 12.9096 8.69728 12.5715 8.69925C12.2336 8.6972 11.91 8.56259 11.6703 8.32436ZM11.6703 15.8488C11.4323 15.609 11.2982 15.2851 11.2972 14.9472C11.2972 14.6112 11.4331 14.2835 11.6703 14.046C11.9099 13.8079 12.2337 13.6738 12.5715 13.6729C12.9079 13.6729 13.2356 13.8088 13.4731 14.046C13.7113 14.2856 13.8454 14.6094 13.8462 14.9472C13.8462 15.2829 13.7103 15.6106 13.4731 15.8488C13.2329 16.0861 12.9092 16.2198 12.5715 16.2212C12.234 16.2198 11.9104 16.0861 11.6703 15.8488ZM15.4321 12.087C15.1945 11.8469 15.0608 11.5231 15.0598 11.1853C15.0598 10.8493 15.195 10.5213 15.4321 10.2837C15.6719 10.0459 15.9957 9.91202 16.3334 9.911C16.6691 9.911 16.9975 10.0469 17.235 10.2837C17.4724 10.5238 17.6058 10.8477 17.6063 11.1853C17.6054 11.5229 17.4721 11.8466 17.235 12.087C16.995 12.3246 16.6712 12.4583 16.3334 12.4593C15.9958 12.4583 15.6721 12.3245 15.4321 12.087ZM4.14526 12.087C3.90773 11.8468 3.7739 11.5231 3.77252 11.1853C3.77352 10.8475 3.90741 10.5236 4.14526 10.2837C4.38571 10.0455 4.71035 9.91157 5.04884 9.911C5.38223 9.911 5.71025 10.0469 5.94848 10.2837C6.18614 10.5238 6.32 10.8476 6.32122 11.1853C6.31958 11.523 6.18578 11.8467 5.94848 12.087C5.70889 12.324 5.3859 12.4577 5.04884 12.4593C4.71042 12.4587 4.38584 12.325 4.14526 12.087ZM4.14669 8.32436C4.02826 8.20631 3.93425 8.06608 3.87002 7.91169C3.80579 7.75729 3.7726 7.59176 3.77234 7.42454C3.77234 7.0874 3.90756 6.76081 4.14669 6.52185C4.38631 6.2846 4.70984 6.15144 5.04705 6.15127C5.38205 6.15127 5.71007 6.28612 5.94795 6.52185C6.18582 6.76222 6.31979 7.08638 6.32104 7.42454C6.31975 7.76186 6.18573 8.0851 5.94795 8.32436C5.70843 8.56263 5.38489 8.69726 5.04705 8.69925C4.70923 8.69793 4.38562 8.56319 4.14669 8.32436ZM4.14526 15.8488C3.90813 15.6086 3.77496 15.2848 3.77449 14.9472C3.77449 14.6112 3.90863 14.2835 4.14526 14.046C4.38515 13.8076 4.70941 13.6735 5.04759 13.6729C5.38294 13.6729 5.71186 13.8088 5.94884 14.046C6.18725 14.2854 6.32146 14.6093 6.32229 14.9472C6.32229 15.2829 6.18636 15.6106 5.94884 15.8488C5.70865 16.086 5.38513 16.2197 5.04759 16.2212C4.70964 16.2201 4.38564 16.0864 4.14526 15.8488ZM0.384455 12.087C0.146308 11.8472 0.0123641 11.5232 0.0117188 11.1853C0.0119366 10.8474 0.145945 10.5232 0.384455 10.2837C0.624288 10.046 0.948007 9.9121 1.28571 9.911C1.62333 9.91198 1.94698 10.0459 2.18661 10.2837C2.42433 10.5237 2.55803 10.8476 2.55881 11.1853C2.55761 11.523 2.42397 11.8468 2.18661 12.087C1.94686 12.3246 1.62326 12.4583 1.28571 12.4593C0.948085 12.4582 0.624422 12.3245 0.384455 12.087Z" fill="#18181B" fill-opacity="0.8"/>
</g>
<defs>
<clipPath id="clip0_2703_4250">
<rect width="88.5668" height="22" fill="white"/>
</clipPath>
</defs>
</svg>
