<svg width="157" height="157" viewBox="0 0 157 157" fill="none" xmlns="http://www.w3.org/2000/svg">
<path d="M66.683 5.3536C66.5502 4.32262 67.285 3.37044 68.316 3.23766C69.347 3.10487 70.2992 3.83975 70.432 4.87074C70.5648 5.90172 69.8299 6.8539 68.7989 6.98669C67.7679 7.11948 66.8157 6.38459 66.683 5.3536Z" fill="#18181B"/>
<path d="M83.3264 4.31398L82.9551 8.21284L82.3279 8.1531L83.1044 0L88.4144 0.505742L88.3597 1.08064L83.6768 0.634632L83.3802 3.74954L87.6449 4.15572L87.5911 4.72017L83.3264 4.31398Z" fill="#18181B"/>
<path d="M90.2795 4.98127C89.8039 7.17737 91.0089 8.85642 92.9587 9.27865C94.9085 9.70087 96.7001 8.67072 97.1757 6.47462C97.6512 4.27852 96.4463 2.59947 94.4965 2.17724C92.5467 1.75501 90.7551 2.78517 90.2795 4.98127ZM97.8119 6.6124C97.2697 9.11636 95.1352 10.3408 92.8365 9.84306C90.5378 9.34528 89.101 7.34745 89.6433 4.84349C90.1855 2.33953 92.32 1.11504 94.6187 1.61282C96.9174 2.11061 98.3542 4.10844 97.8119 6.6124Z" fill="#18181B"/>
<path d="M101.425 12.2298C99.3751 11.5072 98.8509 9.74144 99.4444 8.05799L101.117 3.31461L101.721 3.52756L100.02 8.35016C99.5701 9.6276 99.937 11.0818 101.62 11.6753C103.304 12.2688 104.502 11.3661 104.952 10.0887L106.652 5.2661L107.256 5.47905L105.584 10.2224C104.991 11.9059 103.475 12.9525 101.425 12.2298Z" fill="#18181B"/>
<path d="M110.498 6.9046L111.584 15.5324L112.746 13.1203L114.778 9.02931L115.323 9.30015L111.681 16.6356L111.069 16.3321L109.984 7.7043L108.822 10.1164L106.79 14.2074L106.245 13.9365L109.887 6.60107L110.498 6.9046Z" fill="#18181B"/>
<path d="M121.392 17.9224C119.728 20.4851 117.515 20.2875 115.481 18.9666L113.42 17.6285L117.88 10.7596L119.941 12.0977C121.975 13.4187 123.056 15.3598 121.392 17.9224ZM114.263 17.4873L115.778 18.4708C117.565 19.6316 119.428 19.7518 120.846 17.5679C122.264 15.3839 121.397 13.7314 119.609 12.5706L118.094 11.5871L114.263 17.4873Z" fill="#18181B"/>
<path d="M125.746 16.0733L130.014 19.6126L129.645 20.0571L125.863 16.92L123.865 19.3284L127.324 22.1974L126.962 22.6338L123.503 19.7648L121.371 22.3349L125.315 25.6061L124.947 26.0506L120.518 22.3772L125.746 16.0733Z" fill="#18181B"/>
<path d="M129.193 25.2109L126.652 27.689L126.212 27.238L132.075 21.5194L134.341 23.842C135.14 24.6614 135.591 26.0109 134.373 27.1986C133.358 28.1884 132.247 28.0112 131.452 27.4518L130.398 31.53L129.871 30.9888L130.923 26.9849L129.193 25.2109ZM129.606 24.8077L131.483 26.732C132.011 27.2731 133.009 27.6494 133.933 26.7476C134.858 25.8459 134.506 24.8391 133.978 24.2979L132.102 22.3736L129.606 24.8077Z" fill="#18181B"/>
<path d="M138.742 29.5347C138.055 28.6726 137.068 28.4792 136.329 29.0683C135.59 29.6574 135.62 30.4528 136.423 31.679C137.455 33.2599 137.434 34.4454 136.342 35.316C135.299 36.1473 133.701 35.8102 132.686 34.5376C131.508 33.0598 131.722 31.358 133.21 30.293L133.576 30.7527C132.312 31.6935 132.148 32.9527 133.129 34.1842C133.961 35.2268 135.118 35.4993 135.931 34.8513C136.809 34.1509 136.761 33.3161 135.832 31.8814C134.941 30.5107 134.982 29.3497 135.918 28.6035C136.912 27.8115 138.289 28.0565 139.185 29.1812C140.259 30.5277 140.086 31.995 138.728 32.9701L138.362 32.5103C139.458 31.73 139.6 30.6102 138.742 29.5347Z" fill="#18181B"/>
<path d="M142.082 33.0983L142.428 33.586L140.064 34.7907L139.717 34.3029L142.082 33.0983Z" fill="#18181B"/>
<path d="M145.779 39.954C145.238 38.9933 144.294 38.6449 143.471 39.1086C142.647 39.5723 142.55 40.3622 143.147 41.7009C143.914 43.4262 143.703 44.5931 142.487 45.2783C141.325 45.9327 139.801 45.3448 139.002 43.9267C138.075 42.2799 138.558 40.6341 140.196 39.82L140.485 40.3323C139.086 41.0594 138.723 42.2762 139.496 43.6485C140.15 44.8104 141.249 45.2641 142.155 44.754C143.134 44.2027 143.22 43.371 142.532 41.8064C141.87 40.3111 142.096 39.1716 143.139 38.5842C144.246 37.9608 145.567 38.4223 146.273 39.6758C147.118 41.1762 146.713 42.5972 145.217 43.3432L144.928 42.8308C146.135 42.2354 146.453 41.1525 145.779 39.954Z" fill="#18181B"/>
<path d="M149.055 46.7544L142.112 49.8774L141.854 49.3029L148.796 46.1798L147.676 43.6901L148.203 43.4532L150.702 49.0071L150.175 49.244L149.055 46.7544Z" fill="#18181B"/>
<path d="M147.378 52.0195C145.239 52.7071 144.388 54.5907 144.999 56.49C145.609 58.3893 147.398 59.4246 149.537 58.737C151.676 58.0494 152.527 56.1658 151.916 54.2665C151.306 52.3672 149.517 51.3319 147.378 52.0195ZM149.736 59.3568C147.297 60.1408 145.169 58.9059 144.449 56.6667C143.729 54.4276 144.74 52.1837 147.179 51.3997C149.618 50.6157 151.746 51.8506 152.466 54.0898C153.186 56.3289 152.175 58.5727 149.736 59.3568Z" fill="#18181B"/>
<path d="M149.832 62.1645L146.348 62.8377L146.228 62.2192L154.269 60.6655L154.885 63.8511C155.102 64.9748 154.737 66.3501 153.067 66.6728C151.675 66.9417 150.844 66.1826 150.487 65.2783L147.366 68.1058L147.222 67.3635L150.302 64.5975L149.832 62.1645ZM150.399 62.0549L150.909 64.6941C151.053 65.4364 151.679 66.2992 152.947 66.0542C154.215 65.8092 154.475 64.7751 154.332 64.0328L153.822 61.3936L150.399 62.0549Z" fill="#18181B"/>
<path d="M155.528 67.4943L155.595 68.2368L153.068 70.1409L151.567 71.2672L153.245 72.1069L156.072 73.5284L156.139 74.2709L151.009 71.6337L147.705 71.9315L147.648 71.3041L150.953 71.0062L155.528 67.4943Z" fill="#18181B"/>
<path d="M151.127 86.1097C152.156 86.2537 152.881 87.2138 152.737 88.2433C152.593 89.2727 151.633 89.9972 150.603 89.8532C149.574 89.7092 148.849 88.7491 148.993 87.7196C149.137 86.6901 150.097 85.9657 151.127 86.1097Z" fill="#18181B"/>
<path d="M147.757 102.44L144.094 101.054L144.317 100.465L151.977 103.364L150.088 108.352L149.548 108.148L151.213 103.749L148.287 102.641L146.771 106.648L146.24 106.447L147.757 102.44Z" fill="#18181B"/>
<path d="M144.697 108.966L141.522 107.381L141.804 106.817L149.131 110.476L147.681 113.379C147.169 114.403 146.043 115.272 144.521 114.512C143.253 113.879 143.055 112.771 143.322 111.836L139.125 112.181L139.462 111.504L143.59 111.183L144.697 108.966ZM145.214 109.224L144.013 111.629C143.675 112.305 143.647 113.371 144.803 113.948C145.958 114.525 146.794 113.863 147.131 113.187L148.332 110.782L145.214 109.224Z" fill="#18181B"/>
<path d="M141.741 115.691C139.865 114.455 137.864 114.972 136.766 116.638C135.668 118.304 135.982 120.346 137.858 121.583C139.734 122.819 141.735 122.302 142.833 120.636C143.931 118.971 143.617 116.928 141.741 115.691ZM137.5 122.126C135.36 120.716 134.989 118.284 136.284 116.32C137.578 114.356 139.96 113.738 142.099 115.148C144.238 116.558 144.609 118.99 143.315 120.954C142.021 122.918 139.639 123.536 137.5 122.126Z" fill="#18181B"/>
<path d="M130.782 123.774L137.994 126.265L136.086 124.65L132.65 121.641L133.058 121.175L139.22 126.57L138.708 127.155L133.088 125.221L131.167 124.53L132.106 126.343L134.765 131.658L134.253 132.242L128.091 126.847L128.5 126.381L131.936 129.39L133.788 131.068L130.367 124.248L130.782 123.774Z" fill="#18181B"/>
<path d="M127.191 133.318C125.781 131.568 123.717 131.451 122.164 132.703C120.611 133.955 120.287 135.996 121.697 137.746C123.107 139.495 125.171 139.612 126.724 138.36C128.277 137.108 128.601 135.067 127.191 133.318ZM121.19 138.154C119.582 136.16 119.97 133.73 121.802 132.254C123.633 130.778 126.09 130.915 127.698 132.909C129.305 134.904 128.917 137.334 127.086 138.81C125.255 140.286 122.798 140.149 121.19 138.154Z" fill="#18181B"/>
<path d="M114.549 137.437C116.399 136.296 118.102 136.998 119.039 138.517L121.679 142.798L121.133 143.134L118.45 138.782C117.739 137.629 116.377 137 114.858 137.937C113.338 138.874 113.288 140.373 113.999 141.526L116.682 145.879L116.137 146.215L113.498 141.933C112.561 140.414 112.699 138.577 114.549 137.437Z" fill="#18181B"/>
<path d="M111.13 143.602L109.626 140.387L110.196 140.12L113.667 147.538L110.728 148.913C109.692 149.398 108.269 149.38 107.548 147.839C106.947 146.556 107.48 145.564 108.27 144.998L104.766 142.661L105.451 142.341L108.885 144.652L111.13 143.602ZM111.374 144.125L108.94 145.264C108.255 145.584 107.571 146.403 108.119 147.572C108.666 148.742 109.732 148.742 110.417 148.421L112.852 147.282L111.374 144.125Z" fill="#18181B"/>
<path d="M101.937 148.052C101.313 145.893 99.4554 144.987 97.5389 145.541C95.6224 146.096 94.5347 147.853 95.1588 150.011C95.7828 152.17 97.6405 153.076 99.557 152.522C101.473 151.967 102.561 150.21 101.937 148.052ZM94.5334 150.192C93.8218 147.731 95.1191 145.64 97.3785 144.987C99.638 144.333 101.851 145.41 102.563 147.871C103.274 150.332 101.977 152.423 99.7174 153.076C97.4579 153.73 95.2449 152.653 94.5334 150.192Z" fill="#18181B"/>
<path d="M84.2449 147.531L84.7964 147.457L87.409 152.433L88.378 154.347L88.8033 152.244L90.0093 146.751L90.5504 146.678L94.0735 154.466L93.4284 154.553L91.2629 149.75L90.3909 147.77L89.9429 149.939L88.8085 155.178L88.1738 155.264L85.6872 150.515L84.6889 148.542L84.3643 150.683L83.5539 155.89L82.9192 155.976L84.2449 147.531Z" fill="#18181B"/>
<path d="M79.8716 156.06L75.1256 148.774L75.1339 151.451L75.0943 156.019L74.4853 156.013L74.5563 147.824L75.2388 147.83L79.9848 155.116L79.9765 152.438L80.0161 147.871L80.6251 147.876L80.5541 156.066L79.8716 156.06Z" fill="#18181B"/>
<path d="M68.894 151.349L66.4629 150.993C65.5694 150.863 64.6029 151.231 64.4145 152.519C64.226 153.807 65.0466 154.437 65.9401 154.567L68.3712 154.923L68.894 151.349ZM68.9776 150.778L69.473 147.391L70.0964 147.482L68.911 155.586L65.95 155.152C64.6513 154.962 63.5404 154.142 63.7911 152.428C64.0403 150.724 65.3413 150.246 66.6399 150.436L68.9776 150.778Z" fill="#18181B"/>
<path d="M58.5751 145.163L58.8861 147.9L62.3222 148.745L63.8669 146.465L64.5399 146.63L59.576 153.844L58.9439 153.688L57.892 144.995L58.5751 145.163ZM59.189 150.537L59.448 153.001L60.8306 150.941L61.9803 149.256L58.9623 148.513L59.189 150.537Z" fill="#18181B"/>
<path d="M53.1899 152.094L55.7803 144.324L56.3779 144.524L53.7875 152.293L53.1899 152.094Z" fill="#18181B"/>
<path d="M49.9041 150.835L48.2882 142.291L47.2768 144.77L45.502 148.979L44.9409 148.742L48.1233 141.196L48.7521 141.461L50.368 150.005L51.3794 147.526L53.1542 143.317L53.7154 143.554L50.533 151.1L49.9041 150.835Z" fill="#18181B"/>
<path d="M38.0057 144.373L41.9014 137.833L42.4426 138.156L38.5469 144.696L40.8923 146.093L40.5968 146.589L35.3647 143.472L35.6602 142.976L38.0057 144.373Z" fill="#18181B"/>
<path d="M36.3633 139.104C37.7181 137.312 37.3308 135.282 35.7393 134.079C34.1477 132.876 32.089 133.057 30.7342 134.85C29.3793 136.642 29.7666 138.672 31.3582 139.875C32.9497 141.078 35.0084 140.897 36.3633 139.104ZM30.2148 134.457C31.7596 132.413 34.2111 132.2 36.0875 133.618C37.9638 135.036 38.4274 137.453 36.8826 139.497C35.3378 141.541 32.8863 141.754 31.01 140.336C29.1336 138.918 28.67 136.501 30.2148 134.457Z" fill="#18181B"/>
<path d="M20.0244 130.223L19.589 129.767L25.5088 124.108L25.9441 124.563L23.1133 127.27L26.364 130.67L29.1949 127.963L29.6302 128.419L23.7105 134.078L23.2751 133.623L25.9542 131.061L22.7034 127.661L20.0244 130.223Z" fill="#18181B"/>
<path d="M17.7065 127.571L14.3313 123.173L14.7895 122.821L17.7811 126.72L20.2634 124.815L17.5275 121.25L17.9773 120.904L20.7132 124.47L23.3621 122.437L20.2426 118.372L20.7008 118.02L24.2038 122.585L17.7065 127.571Z" fill="#18181B"/>
<path d="M12.4282 120.353L18.9045 116.352L16.5426 112.528L17.0339 112.225L19.727 116.584L12.7594 120.889L12.4282 120.353Z" fill="#18181B"/>
<path d="M12.5885 112.314L11.4997 110.111C11.0995 109.302 10.2475 108.716 9.08031 109.293C7.91316 109.87 7.86154 110.902 8.26173 111.712L9.35062 113.914L12.5885 112.314ZM13.1062 112.058L16.1747 110.541L16.4539 111.106L9.11213 114.735L7.78592 112.053C7.20425 110.876 7.24804 109.496 8.80111 108.728C10.3448 107.965 11.4776 108.763 12.0592 109.94L13.1062 112.058Z" fill="#18181B"/>
<path d="M5.54523 107.167L13.1342 104.087L13.3711 104.671L5.78211 107.751L5.54523 107.167Z" fill="#18181B"/>
<path d="M4.36769 103.857L9.80793 97.0732L7.26672 97.9171L2.91538 99.3056L2.73025 98.7254L10.5327 96.2357L10.7401 96.8859L5.29988 103.67L7.8411 102.826L12.1924 101.437L12.3776 102.018L4.57516 104.507L4.36769 103.857Z" fill="#18181B"/>
<path d="M5.03018 87.6323L8.70723 86.96L8.8092 87.5178L6.74345 87.8955C7.93738 88.1789 9.20231 89.0257 9.51012 90.7093C9.91047 92.899 8.58633 94.8809 6.07644 95.3398C3.56654 95.7987 1.63434 94.4548 1.2 92.0792C0.816646 89.9824 1.90179 88.5032 3.24141 87.9487L3.35849 88.5891C2.3043 89.07 1.45082 90.2401 1.76241 91.9443C2.13255 93.9688 3.77998 95.0979 5.95936 94.6994C8.13873 94.301 9.2744 92.631 8.9326 90.7615C8.59268 88.9023 6.97858 88.2474 5.7399 88.3031L6.21389 90.8956L5.64581 90.9995L5.03018 87.6323Z" fill="#18181B"/>
<path d="M2.6063 79.3585L2.58556 78.7393L5.56589 78.6395L5.52756 77.4956L6.09424 77.4766L6.13257 78.6205L8.14744 78.553L8.16818 79.1722L6.15331 79.2397L6.28656 83.2169L5.8668 83.231C4.25847 81.6355 2.34979 80.7959 0.0200402 80.5588L0 79.9606C2.34024 80.1974 4.40739 81.0631 5.71485 82.4586L5.58663 79.2586L2.6063 79.3585Z" fill="#18181B"/>
<path d="M9.49225 76.4152L9.11445 76.4028C8.96375 75.8726 8.62501 75.6303 8.19611 75.5743C8.1882 75.8156 7.98261 75.998 7.75174 75.9904C7.51037 75.9825 7.32766 75.7874 7.33558 75.546C7.34349 75.3047 7.5711 75.0915 7.89643 75.1022C8.65202 75.127 9.32004 75.5796 9.49225 76.4152Z" fill="#18181B"/>
<path d="M4.23105 72.5843C6.41444 72.8049 7.91636 72.2495 8.05884 70.8392C8.20132 69.4289 6.84082 68.5843 4.65743 68.3638C2.47405 68.1432 0.972121 68.6985 0.829641 70.1088C0.687161 71.5192 2.04766 72.3637 4.23105 72.5843ZM4.7197 67.7474C7.17471 67.9954 8.80978 69.0471 8.62297 70.8962C8.43616 72.7453 6.62379 73.4487 4.16878 73.2006C1.71378 72.9526 0.078706 71.9009 0.265513 70.0519C0.45232 68.2028 2.2647 67.4994 4.7197 67.7474Z" fill="#18181B"/>
<path d="M5.0978 65.423C7.25002 65.8517 8.79824 65.4428 9.07516 64.0526C9.35208 62.6624 8.07873 61.6914 5.92651 61.2627C3.7743 60.834 2.22608 61.2429 1.94916 62.6331C1.67224 64.0233 2.94559 64.9943 5.0978 65.423ZM6.04754 60.6552C8.46749 61.1372 9.99431 62.3407 9.63123 64.1634C9.26816 65.9861 7.39673 66.5126 4.97678 66.0305C2.55682 65.5485 1.03001 64.345 1.39308 62.5223C1.75616 60.6997 3.62758 60.1731 6.04754 60.6552Z" fill="#18181B"/>
<path d="M6.65953 58.3586C8.75737 59.0027 10.339 58.7524 10.755 57.3974C11.1711 56.0423 10.0024 54.9476 7.90458 54.3035C5.80674 53.6594 4.22511 53.9097 3.80906 55.2647C3.39302 56.6198 4.56168 57.7145 6.65953 58.3586ZM8.08641 53.7112C10.4452 54.4355 11.8426 55.7871 11.2971 57.5638C10.7516 59.3404 8.83652 59.6751 6.4777 58.9508C4.11887 58.2266 2.72155 56.875 3.26704 55.0983C3.81252 53.3217 5.72759 52.987 8.08641 53.7112Z" fill="#18181B"/>
<path d="M12.207 50.8751L9.86914 49.9066L8.90066 52.2444L8.39623 52.0354L9.36471 49.6976L7.02687 48.7291L7.23584 48.2247L9.57368 49.1932L10.5422 46.8553L11.0466 47.0643L10.0781 49.4021L12.4159 50.3706L12.207 50.8751Z" fill="#18181B"/>
<path d="M18.1349 41.9907L16.4276 44.8846L9.37365 40.7232L11.0115 37.9468C11.6998 36.7802 12.8673 36.3717 14.0248 37.0546C14.9563 37.6041 15.0211 38.5689 14.9417 39.0341C15.4279 38.5407 16.3702 38.1213 17.4011 38.7295C18.613 39.4444 18.9352 40.6341 18.1349 41.9907ZM16.2503 44.0485L17.6642 41.652C18.1337 40.8562 18.0652 39.8771 17.0704 39.2902C16.0665 38.698 15.1618 39.3224 14.7883 39.9554L13.3745 42.352L16.2503 44.0485ZM11.573 38.1317L10.1912 40.474L12.8861 42.0639L14.2306 39.7849C14.6734 39.0343 14.5388 38.1259 13.7068 37.635C12.8748 37.1442 12.0104 37.3901 11.573 38.1317Z" fill="#18181B"/>
<path d="M22.2316 36.1649C20.9277 37.9038 19.086 37.8746 17.6579 36.8037L13.634 33.7863L14.0183 33.2739L18.1094 36.3417C19.193 37.1543 20.6903 37.2402 21.7612 35.8122C22.8321 34.3841 22.3301 32.9708 21.2464 32.1582L17.1553 29.0905L17.5396 28.578L21.5635 31.5954C22.9916 32.6663 23.5356 34.426 22.2316 36.1649Z" fill="#18181B"/>
<path d="M21.226 25.0805C20.4746 25.8873 20.4286 26.8919 21.1202 27.536C21.8118 28.18 22.594 28.0333 23.6886 27.0583C25.1001 25.8045 26.276 25.6512 27.2979 26.603C28.2738 27.5118 28.1758 29.1423 27.0666 30.3333C25.7785 31.7164 24.0637 31.7551 22.7911 30.4408L23.1919 30.0105C24.3087 31.1223 25.5783 31.0994 26.6517 29.9469C27.5605 28.971 27.6595 27.7862 26.8988 27.0778C26.0766 26.3121 25.258 26.4824 23.9758 27.6127C22.7514 28.6963 21.597 28.8266 20.7211 28.0108C19.7913 27.1449 19.8307 25.7468 20.8111 24.6941C21.9846 23.4339 23.4615 23.3888 24.626 24.5881L24.2252 25.0184C23.2918 24.0486 22.1634 24.0739 21.226 25.0805Z" fill="#18181B"/>
<path d="M25.0511 20.5363L30.6248 26.5371L30.1632 26.9659L24.5895 20.965L25.0511 20.5363Z" fill="#18181B"/>
<path d="M27.7344 18.2564L36.0054 20.9411L34.316 18.8636L31.4763 15.2861L31.9533 14.9075L37.0452 21.3222L36.5107 21.7465L28.2397 19.0618L29.929 21.1394L32.7687 24.7168L32.2917 25.0955L27.1998 18.6807L27.7344 18.2564Z" fill="#18181B"/>
<path d="M34.3253 13.2297L39.0204 10.2815L39.3275 10.7706L35.166 13.3838L36.8299 16.0337L40.6358 13.6438L40.9373 14.124L37.1314 16.5138L38.907 19.3416L43.2465 16.6168L43.5536 17.1058L38.6806 20.1657L34.3253 13.2297Z" fill="#18181B"/>
<path d="M43.7758 8.29464C42.7857 8.77961 42.3837 9.70141 42.7994 10.5501C43.2151 11.3987 43.9981 11.5413 45.3689 11.0219C47.1353 10.3554 48.2882 10.6325 48.9025 11.8867C49.4891 13.0842 48.8148 14.572 47.3532 15.2879C45.6559 16.1193 44.0405 15.5426 43.3217 13.8603L43.8498 13.6016C44.4954 15.0391 45.6894 15.4715 47.1038 14.7787C48.3014 14.1921 48.8173 13.121 48.36 12.1875C47.8658 11.1785 47.0404 11.045 45.4389 11.6423C43.9081 12.2168 42.7834 11.9258 42.2569 10.8509C41.698 9.70989 42.2345 8.41821 43.5264 7.78544C45.0728 7.02796 46.4682 7.51367 47.1272 9.04992L46.5991 9.30857C46.0739 8.06925 45.0111 7.68958 43.7758 8.29464Z" fill="#18181B"/>
<path d="M50.7492 5.27469C49.7173 5.66285 49.2291 6.54203 49.5618 7.42653C49.8945 8.31102 50.6603 8.52776 52.0745 8.14167C53.8965 7.64702 55.0176 8.03299 55.5093 9.34008C55.9788 10.5882 55.1655 12.0048 53.6422 12.5778C51.8732 13.2432 50.3203 12.5148 49.7655 10.7715L50.3159 10.5645C50.8212 12.0571 51.9684 12.6016 53.4425 12.0471C54.6907 11.5776 55.3065 10.5606 54.9406 9.58767C54.545 8.53611 53.7362 8.32432 52.0849 8.76596C50.5062 9.19154 49.4145 8.79448 48.993 7.67412C48.5457 6.48497 49.2032 5.25045 50.5496 4.74399C52.1613 4.13772 53.5039 4.75451 54.0131 6.34669L53.4628 6.55371C53.0584 5.26988 52.0366 4.79041 50.7492 5.27469Z" fill="#18181B"/>
</svg>
