<svg width="124" height="28" viewBox="0 0 124 28" fill="none" xmlns="http://www.w3.org/2000/svg">
<g clip-path="url(#clip0_1689_41211)">
<path d="M35.1094 22.7311V4.06445H46.4621V7.67736H39.4104V12.6953H46.4621V16.258H39.4104V22.7311H35.1094Z" fill="#0055FE"/>
<path d="M49.3125 22.7311V9.88517H53.3635V12.5447C53.5635 11.6414 54.0136 10.8888 54.6638 10.387C55.3139 9.88517 56.0641 9.63428 56.8643 9.63428C57.2644 9.63428 57.6645 9.68446 57.9145 9.73464V13.5483C57.4144 13.4981 57.0143 13.4479 56.7143 13.4479C54.4637 13.4479 53.3635 14.9031 53.3635 17.7131V22.6809H49.3125V22.7311Z" fill="#0055FE"/>
<path d="M64.9155 23.0323C63.0651 23.0323 61.5647 22.3799 60.5144 21.1255C59.4142 19.871 58.9141 18.2151 58.9141 16.2581C58.9141 14.3011 59.4642 12.6954 60.5645 11.3907C61.6647 10.1362 63.1651 9.48389 64.9655 9.48389C65.8657 9.48389 66.6659 9.6846 67.3661 10.086C68.0662 10.4875 68.6164 10.9893 68.9665 11.6918V9.83514H73.0174V22.681H68.9665V20.8746C68.6164 21.5269 68.0662 22.0287 67.3161 22.4301C66.6159 22.8817 65.8157 23.0323 64.9155 23.0323ZM66.0658 19.6703C67.016 19.6703 67.8162 19.3692 68.3163 18.7169C68.8164 18.0645 69.1165 17.2617 69.1165 16.3083C69.1165 15.3549 68.8664 14.552 68.3163 13.8997C67.7662 13.2473 67.016 12.9463 66.0658 12.9463C65.1656 12.9463 64.4154 13.2473 63.8652 13.8997C63.3151 14.5018 63.015 15.3549 63.015 16.3083C63.015 17.3118 63.3151 18.1147 63.8652 18.767C64.4154 19.3692 65.1656 19.6703 66.0658 19.6703Z" fill="#0055FE"/>
<path d="M76.3711 22.7313V9.88543H80.4221V11.7421C80.7221 11.0897 81.1722 10.5378 81.8224 10.1363C82.4726 9.7349 83.2227 9.53418 84.0729 9.53418C86.0734 9.53418 87.4237 10.337 88.0739 11.8926C88.424 11.1901 88.9741 10.5879 89.6743 10.1865C90.4244 9.7349 91.2246 9.53418 92.1248 9.53418C95.1756 9.53418 96.6759 11.2905 96.6759 14.7528V22.7313H92.575V15.5055C92.575 13.7994 91.9248 12.9965 90.6745 12.9965C89.2242 12.9965 88.524 14.0503 88.524 16.1578V22.7815H84.523V15.4553C84.523 13.7994 83.8729 12.9464 82.6226 12.9464C81.9224 12.9464 81.3723 13.1973 81.0222 13.6489C80.6721 14.1005 80.4721 14.9535 80.4721 16.1077V22.7313H76.3711Z" fill="#0055FE"/>
<path d="M112.577 15.6059C112.577 16.1578 112.527 16.7098 112.477 17.4123H103.024C103.074 18.2654 103.324 18.9177 103.875 19.3693C104.425 19.8209 105.125 20.0718 106.025 20.0718C107.275 20.0718 108.076 19.6704 108.426 18.8675H112.427C112.227 20.122 111.526 21.1758 110.376 21.9284C109.176 22.7313 107.776 23.1327 106.075 23.1327C103.875 23.1327 102.174 22.5306 100.924 21.3263C99.6736 20.122 99.0234 18.4661 99.0234 16.3084C99.0234 14.2008 99.6736 12.5449 100.924 11.3406C102.174 10.1363 103.875 9.53418 105.925 9.53418C107.926 9.53418 109.526 10.0862 110.776 11.2403C111.927 12.3442 112.577 13.7994 112.577 15.6059ZM102.974 14.8532H108.526C108.526 14.0001 108.276 13.3478 107.826 12.8962C107.375 12.4446 106.725 12.1937 105.825 12.1937C104.975 12.1937 104.275 12.4446 103.775 12.9464C103.274 13.4482 103.024 14.1005 102.974 14.8532Z" fill="#0055FE"/>
<path d="M114.879 22.7311V9.88517H118.93V12.5447C119.13 11.6414 119.58 10.8888 120.23 10.387C120.88 9.88517 121.631 9.63428 122.431 9.63428C122.831 9.63428 123.231 9.68446 123.481 9.73464V13.5483C122.981 13.4981 122.581 13.4479 122.281 13.4479C120.03 13.4479 118.93 14.9031 118.93 17.7131V22.6809H114.879V22.7311Z" fill="#0055FE"/>
<path d="M18.6044 0V9.33333H9.30221L0 0H18.6044ZM0 9.33333H9.30221L18.6044 18.6667H9.30221V28L0 18.6667V9.33333Z" fill="#0055FE"/>
</g>
<defs>
<clipPath id="clip0_1689_41211">
<rect width="123.529" height="28" fill="white"/>
</clipPath>
</defs>
</svg>
