<svg width="16" height="16" viewBox="0 0 16 16" fill="none" xmlns="http://www.w3.org/2000/svg">
<g clip-path="url(#clip0_10006_15178)">
<path d="M6.17937 10.2862L11.4986 6.35072C11.7594 6.15779 12.1321 6.23304 12.2564 6.53274C12.9103 8.11322 12.6181 10.0126 11.317 11.3166C10.0159 12.6207 8.20548 12.9067 6.55075 12.2553L4.74309 13.0942C7.3358 14.8703 10.4842 14.4311 12.4516 12.4579C14.0121 10.8938 14.4955 8.76182 14.0435 6.83926L14.0476 6.84335C13.3923 4.01899 14.2088 2.89007 15.8812 0.581591C15.9208 0.526856 15.9604 0.47212 16 0.416016L13.7991 2.62186V2.61502L6.17802 10.2876" fill="#18181B"/>
<path d="M5.08169 11.2427C3.22076 9.46107 3.5416 6.70376 5.12945 5.11372C6.30359 3.93689 8.22732 3.45658 9.90663 4.16267L11.7102 3.32795C11.3853 3.09259 10.9688 2.83944 10.491 2.66155C8.3311 1.77072 5.7452 2.21408 3.98942 3.97247C2.30054 5.66516 1.76944 8.26785 2.68146 10.4888C3.36275 12.1486 2.24593 13.3227 1.12092 14.5077C0.722244 14.9278 0.32221 15.3479 0 15.7926L5.08029 11.2441" fill="#18181B"/>
</g>
<defs>
<clipPath id="clip0_10006_15178">
<rect width="16" height="16" fill="white"/>
</clipPath>
</defs>
</svg>
