<svg width="410" height="270" viewBox="0 0 410 270" fill="none" xmlns="http://www.w3.org/2000/svg">
<rect x="10.3203" y="56.1025" width="389.579" height="212.602" stroke="#454558" stroke-width="0.994444" stroke-linecap="round" stroke-linejoin="round" stroke-dasharray="3.98 3.98"/>
<path d="M339.397 56.1032L10.3214 268.705" stroke="#454558" stroke-width="0.994444" stroke-linecap="round" stroke-linejoin="round" stroke-dasharray="3.98 3.98"/>
<path d="M399.122 56.1016L72.2986 268.704" stroke="#454558" stroke-width="0.994444" stroke-linecap="round" stroke-linejoin="round" stroke-dasharray="3.98 3.98"/>
<path d="M261.187 56.1025L10.5901 218.913" stroke="#454558" stroke-width="0.994444" stroke-linecap="round" stroke-linejoin="round" stroke-dasharray="3.98 3.98"/>
<path d="M399.9 104.825L149.035 268.706" stroke="#454558" stroke-width="0.994444" stroke-linecap="round" stroke-linejoin="round" stroke-dasharray="3.98 3.98"/>
<line x1="0.497222" y1="-0.497222" x2="249.245" y2="-0.497222" transform="matrix(0.524702 0.851286 -0.851057 0.525074 174.418 56.1025)" stroke="#454558" stroke-width="0.994444" stroke-linecap="round" stroke-linejoin="round" stroke-dasharray="3.98 3.98"/>
<path d="M126.356 56.3251L260.331 268.598" stroke="#454558" stroke-width="0.994444" stroke-linecap="round" stroke-linejoin="round" stroke-dasharray="3.98 3.98"/>
<path d="M293.878 55.2332C291.231 55.2332 288.584 55.2332 285.937 55.2332C268.584 56.7183 251.526 62.6587 237.114 72.4604L199.468 96.2219L197.997 94.1428L146.528 10.0863C140.351 -0.0123926 127.41 -2.98259 117.705 3.25482C107.705 9.49223 104.764 22.5611 110.94 32.6598L125.058 56.1243C120.94 55.8273 116.528 55.8273 112.411 56.1243C57.1177 57.9064 12.7068 102.459 10.0598 158.002C7.70689 217.109 53.2943 267.008 111.823 269.384C113.293 269.384 114.47 269.384 115.94 269.384C118.587 269.384 121.234 269.384 123.881 269.384C141.234 267.899 157.998 261.959 172.41 252.454L285.349 180.873C295.348 174.635 298.29 161.566 291.819 151.468C285.643 141.369 272.702 138.399 262.702 144.933L150.057 216.218C141.234 222.158 131.234 225.722 120.646 226.911C118.881 226.911 117.411 226.911 115.646 226.911C80.3526 226.911 51.8237 198.1 51.8237 162.16C51.8237 161.269 51.8237 160.675 51.8237 159.784C54.1766 126.221 80.6467 99.4892 113.881 97.707C132.704 97.113 150.939 104.836 163.586 119.092L124.469 144.042C114.47 150.279 111.528 163.348 117.999 173.447C124.175 183.546 137.116 186.516 147.116 179.981L260.055 108.103C268.878 102.162 278.878 98.5981 289.466 97.707C290.937 97.707 292.701 97.707 294.172 97.707C329.465 97.707 357.994 126.518 357.994 161.863C357.994 162.754 357.994 163.645 357.994 164.833C356.23 198.1 330.054 224.534 297.113 226.614C289.466 226.911 281.819 226.02 274.761 223.643C263.584 220.079 251.82 226.019 248.291 237.306C244.761 248.593 250.643 260.474 261.82 264.038H262.114C272.408 267.305 283.29 269.087 294.172 269.087H299.172C353.877 266.117 397.699 221.861 400.052 166.319C402.405 107.212 356.818 57.3124 298.29 54.9362C296.819 55.2332 295.348 55.2332 293.878 55.2332Z" fill="#040308" fill-opacity="0.1"/>
<ellipse cx="116.569" cy="162.403" rx="106.249" ry="106.301" stroke="#040308" stroke-width="1.98889"/>
<ellipse cx="293.651" cy="162.403" rx="106.249" ry="106.301" stroke="#040308" stroke-width="1.98889"/>
<ellipse cx="293.336" cy="162.234" rx="64.6794" ry="64.711" stroke="#040308" stroke-width="1.98889"/>
<ellipse cx="116.571" cy="162.403" rx="64.9299" ry="64.9617" stroke="#040308" stroke-width="1.98889"/>
<path d="M155.714 162.552C155.714 173.663 146.711 182.67 135.606 182.67C124.501 182.67 115.498 173.663 115.498 162.552C115.498 151.441 124.501 142.434 135.606 142.434C146.711 142.434 155.714 151.441 155.714 162.552Z" stroke="#040308" stroke-width="1.98889"/>
<path d="M294.722 161.962C294.722 173.074 285.719 182.08 274.614 182.08C263.509 182.08 254.506 173.074 254.506 161.962C254.506 150.851 263.509 141.844 274.614 141.844C285.719 141.844 294.722 150.851 294.722 161.962Z" stroke="#040308" stroke-width="1.98889"/>
<path d="M288.163 243.602C288.163 254.778 279.107 263.837 267.938 263.837C256.769 263.837 247.713 254.778 247.713 243.602C247.713 232.426 256.769 223.367 267.938 223.367C279.107 223.367 288.163 232.426 288.163 243.602Z" stroke="#040308" stroke-width="1.98889"/>
</svg>
