<svg width="28" height="28" viewBox="0 0 28 28" fill="none" xmlns="http://www.w3.org/2000/svg">
<path d="M27.8141 11.8028L25.0229 6.21811C24.9201 6.01256 24.7777 5.82927 24.6041 5.67873C24.4304 5.52818 24.2288 5.41331 24.0107 5.34069C23.7927 5.26807 23.5624 5.23912 23.3332 5.25549C23.1039 5.27185 22.8801 5.33322 22.6746 5.43608L19.9544 6.79561L14.2243 5.27967C14.0773 5.24141 13.9229 5.24141 13.7759 5.27967L8.0457 6.79561L5.32554 5.43608C5.12001 5.33322 4.89622 5.27185 4.66697 5.25549C4.43772 5.23912 4.20748 5.26807 3.98942 5.34069C3.77136 5.41331 3.56973 5.52818 3.39607 5.67873C3.2224 5.82927 3.08009 6.01256 2.97726 6.21811L0.186012 11.8017C0.0831511 12.0072 0.0217855 12.231 0.00541912 12.4603C-0.0109472 12.6895 0.0180063 12.9198 0.0906263 13.1378C0.163246 13.3559 0.27811 13.5575 0.428659 13.7312C0.579207 13.9048 0.762491 14.0472 0.968043 14.15L3.92117 15.6276L9.99039 19.9622C10.0798 20.0258 10.1803 20.0722 10.2868 20.0989L17.2868 21.8489C17.4334 21.8857 17.587 21.8838 17.7327 21.8436C17.8784 21.8033 18.0111 21.726 18.118 21.6192L22.493 17.2442L24.1424 15.5948L27.0321 14.15C27.447 13.9423 27.7624 13.5784 27.909 13.1383C28.0557 12.6981 28.0215 12.2178 27.8141 11.8028ZM21.8105 15.4526L18.0469 12.4383C17.8783 12.3032 17.6658 12.2354 17.4501 12.2477C17.2344 12.26 17.031 12.3516 16.8788 12.505C14.9309 14.4672 12.7598 14.2189 11.3751 13.3439L16.1045 8.75014H19.5837L22.5598 14.7012L21.8105 15.4526ZM17.231 20.0311L10.8741 18.4419L5.49289 14.5984L8.55539 8.47342L14.0001 7.03077L15.0719 7.31405L10.1501 12.0915L10.1413 12.1014C9.95605 12.2867 9.81474 12.5112 9.72783 12.7584C9.64092 13.0055 9.61063 13.2691 9.63918 13.5295C9.66774 13.79 9.75441 14.0407 9.89281 14.2632C10.0312 14.4857 10.2178 14.6743 10.4388 14.815C12.6876 16.2511 15.4012 16.0181 17.5384 14.2681L20.5626 16.6973L17.231 20.0311ZM14.4179 23.8373C14.3706 24.0264 14.2615 24.1944 14.108 24.3144C13.9544 24.4345 13.7652 24.4999 13.5702 24.5001C13.4983 24.5 13.4267 24.4912 13.3569 24.4739L8.79492 23.3331C8.68832 23.3068 8.58772 23.2604 8.49851 23.1964L5.61648 21.138C5.43927 20.9988 5.32256 20.7967 5.29066 20.5737C5.25875 20.3506 5.3141 20.1239 5.44519 19.9406C5.57628 19.7574 5.773 19.6318 5.99438 19.59C6.21577 19.5481 6.44476 19.5933 6.63367 19.7161L9.38007 21.6783L13.7813 22.7764C14.0064 22.8327 14.1999 22.9761 14.3193 23.1751C14.4387 23.374 14.4741 23.6122 14.4179 23.8373Z" fill="#18181B"/>
</svg>
