<svg width="16" height="20" viewBox="0 0 16 20" fill="none" xmlns="http://www.w3.org/2000/svg">
<path d="M8 5.5C6.71442 5.5 5.45772 5.88122 4.3888 6.59545C3.31988 7.30968 2.48676 8.32484 1.99479 9.51256C1.50282 10.7003 1.37409 12.0072 1.6249 13.2681C1.8757 14.529 2.49477 15.6872 3.40381 16.5962C4.31285 17.5052 5.47104 18.1243 6.73192 18.3751C7.99279 18.6259 9.29973 18.4972 10.4874 18.0052C11.6752 17.5132 12.6903 16.6801 13.4046 15.6112C14.1188 14.5423 14.5 13.2856 14.5 12C14.4982 10.2767 13.8128 8.62441 12.5942 7.40582C11.3756 6.18722 9.72335 5.50182 8 5.5ZM7.75 8.5C7.89834 8.5 8.04334 8.54399 8.16668 8.6264C8.29002 8.70881 8.38615 8.82594 8.44291 8.96299C8.49968 9.10003 8.51453 9.25083 8.48559 9.39632C8.45665 9.5418 8.38522 9.67544 8.28033 9.78033C8.17544 9.88522 8.04181 9.95665 7.89632 9.98559C7.75083 10.0145 7.60003 9.99968 7.46299 9.94291C7.32595 9.88614 7.20881 9.79001 7.1264 9.66668C7.04399 9.54334 7 9.39834 7 9.25C7 9.05109 7.07902 8.86032 7.21967 8.71967C7.36032 8.57902 7.55109 8.5 7.75 8.5ZM8.5 15.5C8.23479 15.5 7.98043 15.3946 7.7929 15.2071C7.60536 15.0196 7.5 14.7652 7.5 14.5V12C7.36739 12 7.24022 11.9473 7.14645 11.8536C7.05268 11.7598 7 11.6326 7 11.5C7 11.3674 7.05268 11.2402 7.14645 11.1464C7.24022 11.0527 7.36739 11 7.5 11C7.76522 11 8.01957 11.1054 8.20711 11.2929C8.39465 11.4804 8.5 11.7348 8.5 12V14.5C8.63261 14.5 8.75979 14.5527 8.85356 14.6464C8.94732 14.7402 9 14.8674 9 15C9 15.1326 8.94732 15.2598 8.85356 15.3536C8.75979 15.4473 8.63261 15.5 8.5 15.5Z" fill="#A1A1AA"/>
</svg>
