<svg width="16" height="16" viewBox="0 0 16 16" fill="none" xmlns="http://www.w3.org/2000/svg">
<path d="M11.2308 1H4.76923C3.7699 1.00107 2.8118 1.39853 2.10516 2.10516C1.39853 2.8118 1.00107 3.7699 1 4.76923V11.2308C1.00107 12.2301 1.39853 13.1882 2.10516 13.8948C2.8118 14.6015 3.7699 14.9989 4.76923 15H11.2308C12.2301 14.9989 13.1882 14.6015 13.8948 13.8948C14.6015 13.1882 14.9989 12.2301 15 11.2308V4.76923C14.9989 3.7699 14.6015 2.8118 13.8948 2.10516C13.1882 1.39853 12.2301 1.00107 11.2308 1ZM8 11.2308C7.36101 11.2308 6.73638 11.0413 6.20508 10.6863C5.67378 10.3313 5.25969 9.82671 5.01516 9.23636C4.77063 8.64602 4.70665 7.99642 4.83131 7.36971C4.95597 6.743 5.26367 6.16733 5.7155 5.7155C6.16733 5.26367 6.743 4.95597 7.36971 4.83131C7.99642 4.70665 8.64602 4.77063 9.23636 5.01516C9.82671 5.25969 10.3313 5.67378 10.6863 6.20508C11.0413 6.73638 11.2308 7.36101 11.2308 8C11.2299 8.85658 10.8892 9.67782 10.2835 10.2835C9.67782 10.8892 8.85658 11.2299 8 11.2308ZM12.0385 4.76923C11.8787 4.76923 11.7226 4.72186 11.5897 4.63311C11.4569 4.54436 11.3534 4.41822 11.2923 4.27063C11.2311 4.12304 11.2151 3.96064 11.2463 3.80397C11.2775 3.64729 11.3544 3.50337 11.4673 3.39041C11.5803 3.27746 11.7242 3.20053 11.8809 3.16937C12.0376 3.1382 12.2 3.1542 12.3476 3.21533C12.4951 3.27646 12.6213 3.37998 12.71 3.51281C12.7988 3.64563 12.8462 3.80179 12.8462 3.96154C12.8462 4.17575 12.7611 4.38119 12.6096 4.53266C12.4581 4.68414 12.2527 4.76923 12.0385 4.76923ZM10.1538 8C10.1538 8.42599 10.0275 8.84241 9.79086 9.19661C9.55419 9.55081 9.2178 9.82688 8.82424 9.98989C8.43068 10.1529 7.99761 10.1956 7.57981 10.1125C7.162 10.0294 6.77822 9.82422 6.477 9.523C6.17578 9.22178 5.97065 8.838 5.88754 8.42019C5.80443 8.00239 5.84709 7.56932 6.01011 7.17576C6.17313 6.7822 6.44919 6.44581 6.80339 6.20914C7.15759 5.97248 7.57401 5.84615 8 5.84615C8.57124 5.84615 9.11907 6.07308 9.523 6.477C9.92692 6.88093 10.1538 7.42876 10.1538 8Z" fill="#71717A"/>
</svg>
