<svg width="171" height="43" viewBox="0 0 171 43" fill="none" xmlns="http://www.w3.org/2000/svg">
<path fill-rule="evenodd" clip-rule="evenodd" d="M18.6072 30.6708C18.7626 30.196 18.7924 29.7081 18.6998 29.2071C18.6072 28.7028 18.4287 28.2083 18.1675 27.7203C17.9063 27.2324 17.6683 26.8034 17.4534 26.4399L12.2362 17.0153C10.7583 18.4791 9.82599 20.0346 9.44247 21.6818C9.05565 23.329 9.01928 24.8681 9.32676 26.3024C9.63423 27.7367 10.2029 28.9713 11.0361 30.0061C11.8659 31.0442 12.7586 31.6827 13.7141 31.9283H0C0.370293 31.8366 0.6943 31.6303 0.97202 31.3094C1.24643 30.9885 1.48448 30.625 1.68616 30.2124C1.88453 29.7998 2.03992 29.3577 2.14902 28.8861C2.25482 28.4146 2.30772 27.9954 2.30772 27.6287V4.29968C2.30772 3.93619 2.25482 3.51703 2.14902 3.0422C2.03992 2.57064 1.88453 2.12856 1.68616 1.71594C1.48448 1.30661 1.24643 0.939839 0.97202 0.618918C0.6943 0.297998 0.370293 0.0916916 0 0H13.7141C13.3438 0.0916916 13.0132 0.297998 12.7222 0.618918C12.428 0.939839 12.1833 1.30661 11.9816 1.71594C11.7799 2.12856 11.6279 2.57064 11.5188 3.0422C11.413 3.51703 11.3601 3.93619 11.3601 4.29968V16.4226L11.8461 16.1508C14.7291 14.2253 17.6319 12.1786 19.8504 9.81755C20.0378 9.61758 20.2361 9.42261 20.4359 9.22618L20.4359 9.22615L20.4359 9.22611L20.436 9.22608L20.436 9.22605L20.4361 9.22601C21.1064 8.56689 21.7934 7.89138 22.1448 6.95546C23.1334 4.33898 21.5729 1.80109 19.566 1.1396H29.7094L19.5495 12.3162L30.4731 31.9283H17.4534C18.0683 31.5616 18.4518 31.1424 18.6072 30.6708ZM32.4008 31.9285C32.9198 31.6272 33.3563 31.1327 33.7067 30.4516C34.0605 29.7705 34.2357 29.0075 34.2357 28.1593V13.3609C34.2357 12.4244 34.1134 11.681 33.8687 11.1374C33.6241 10.5938 33.1976 10.0175 32.5859 9.41164L43.2649 8.45871L43.2186 28.1593C43.2186 29.0075 43.3938 29.7705 43.7476 30.4516C44.0981 31.1327 44.5312 31.6239 45.0536 31.9285H32.4041H32.4008ZM39.4793 1.37225C39.8595 1.52944 40.1901 1.7423 40.4712 2.02064C40.7522 2.29899 40.9704 2.62646 41.1258 3.00306C41.2845 3.37965 41.3605 3.77916 41.3605 4.2016C41.3605 4.62403 41.2812 5.017 41.1258 5.38376C40.9704 5.75053 40.7522 6.07145 40.4712 6.3498C40.1901 6.62815 39.8628 6.84428 39.4793 6.99819C39.0991 7.15538 38.6958 7.23069 38.2693 7.23069C37.4196 7.23069 36.6955 6.93597 36.1004 6.3498C35.5053 5.76035 35.211 5.04647 35.211 4.2016C35.211 3.77916 35.2904 3.37965 35.4458 3.00306C35.6045 2.62646 35.8194 2.29899 36.1004 2.02064C36.3814 1.7423 36.7054 1.52617 37.0757 1.37225C37.446 1.21507 37.8428 1.13975 38.2693 1.13975C38.6958 1.13975 39.0991 1.21834 39.4793 1.37225ZM59.4906 8.77961C58.2971 9.26426 57.2424 9.96178 56.3266 10.8689L56.3233 10.8721V8.46524L45.7369 9.41818C46.1667 9.84389 46.5469 10.322 46.8841 10.8492C47.218 11.3764 47.3867 12.0216 47.3867 12.778V28.1658C47.3867 29.014 47.2114 29.777 46.8577 30.4581C46.5072 31.1393 46.0708 31.6337 45.5517 31.935H58.2012C57.6821 31.6305 57.2391 31.1393 56.8721 30.4581C56.5084 29.777 56.3233 29.014 56.3233 28.1658V14.4121C56.3233 13.5967 56.5283 12.8468 56.9415 12.1656C57.3548 11.4845 57.8739 10.9704 58.5021 10.6233C59.1236 10.2729 59.8047 10.1288 60.5387 10.191C61.2727 10.2532 61.9504 10.5905 62.5786 11.2127C63.2068 11.8316 63.7258 12.7846 64.1391 14.0715C64.5524 15.3585 64.7574 17.045 64.7574 19.1342V28.1658C64.7574 28.2543 64.7408 28.454 64.7111 28.7553C64.6813 29.0598 64.6053 29.407 64.483 29.7999C64.3606 30.1929 64.1689 30.5858 63.911 30.9788C63.6498 31.3718 63.306 31.6894 62.8795 31.9317H75.5289C75.0396 31.6599 74.6297 31.2146 74.2924 30.5924C73.9552 29.9702 73.7568 29.2661 73.6973 28.4802L73.7436 19.1309C73.7436 16.7699 73.4527 14.8476 72.8741 13.3642C72.2955 11.884 71.4227 10.7313 70.2622 9.91593C69.2538 9.18567 68.1297 8.65844 66.8932 8.32442C65.6567 7.99368 64.4102 7.86597 63.1572 7.94128C61.9041 8.0166 60.6808 8.29495 59.4906 8.77961ZM80.7371 23.1686C81.114 25.1072 81.6728 26.6202 82.4101 27.7074C83.1507 28.7978 83.921 29.5608 84.7277 29.9997C85.5344 30.4385 86.318 30.6022 87.0751 30.4974C87.8289 30.3926 88.4141 30.1044 88.8274 29.6362C89.2406 29.1679 89.4026 28.5784 89.3167 27.8645C89.2307 27.1539 88.7745 26.404 87.9512 25.6181C87.4388 25.104 86.7742 24.6488 85.9675 24.2558C85.1608 23.8629 84.3111 23.4601 83.4184 23.0507C82.5225 22.6414 81.6331 22.2255 80.7404 21.8031C79.8478 21.3774 79.0477 20.8862 78.3434 20.3262C77.6392 19.7662 77.064 19.1244 76.6176 18.3974C76.1713 17.6704 75.9465 16.8255 75.9465 15.8562C75.9465 14.7363 76.1944 13.6851 76.6937 12.7027C77.1896 11.7203 77.9203 10.8656 78.8824 10.1386C80.8066 8.71737 83.2796 8.00349 86.3014 8.00349C88.5001 8.00349 90.3912 8.38335 91.9683 9.13981C93.5817 9.95521 94.8545 11.0784 95.7836 12.4964C93.6379 13.7473 91.4855 14.9688 89.3134 16.1706C89.4159 14.0748 88.7282 11.4386 86.7676 10.2991C86.1163 9.91919 85.4617 9.79147 84.8104 9.91264C84.159 10.0338 83.6664 10.3351 83.3424 10.8197C83.0151 11.3044 82.9291 11.9102 83.0845 12.6339C83.2399 13.3609 83.7987 14.1468 84.7608 14.995C85.6865 15.7809 86.7445 16.426 87.9281 16.9238C89.1117 17.4215 90.2887 17.9455 91.4591 18.4891C92.6262 19.0327 93.6908 19.668 94.6529 20.395C95.615 21.1219 96.3357 22.1207 96.8151 23.3913C97.2284 24.4818 97.1424 25.6607 96.5605 26.9313C95.9753 28.2018 94.9637 29.3513 93.5189 30.3795C92.6229 31.0148 91.5847 31.5158 90.4011 31.8761C89.2175 32.2395 87.9876 32.459 86.718 32.5343C85.4451 32.6096 84.1822 32.5506 82.9291 32.3509C81.6761 32.1544 80.5321 31.8302 79.5039 31.375C77.7186 30.5596 76.3597 29.4069 75.4307 27.9235L80.7404 23.1588L80.7371 23.1686ZM115.737 8.55385C113.982 8.49163 112.435 8.79618 111.102 9.46094L111.105 9.46422C109.77 10.129 108.546 11.0361 107.436 12.1855L107.482 0.701119L97.2426 1.65406C97.8278 2.25988 98.2377 2.83622 98.4725 3.37982C98.7072 3.92342 98.8262 4.67988 98.8262 5.64919V28.1628C98.8262 29.0109 98.6576 29.7739 98.3204 30.4551C97.9832 31.1362 97.5633 31.6307 97.0673 31.9319H109.194C108.695 31.6274 108.279 31.1362 107.941 30.4551C107.604 29.7739 107.436 29.0109 107.436 28.1628V20.4017C107.436 19.6453 107.462 18.7676 107.521 17.7689C107.581 16.7701 107.743 15.8106 108.004 14.8871C108.269 13.9637 108.679 13.1777 109.237 12.5261C109.793 11.8744 110.57 11.5044 111.565 11.4127C112.355 11.3504 113.073 11.7598 113.717 12.6374C114.362 13.5183 114.914 14.6579 115.367 16.066C115.823 17.4741 116.157 19.0231 116.379 20.7194C116.6 22.4124 116.699 24.0268 116.686 25.5528C116.673 27.0821 116.511 28.4378 116.204 29.6167L115.595 31.9319H127.693C127.018 31.5062 126.519 30.7825 126.198 29.751C125.874 28.726 125.656 27.5897 125.537 26.3486C125.418 25.1107 125.345 23.8696 125.315 22.6285C125.286 21.3874 125.213 20.3428 125.094 19.4946C124.889 18.0439 124.591 16.6653 124.195 15.3652C123.798 14.0619 123.242 12.9125 122.525 11.9137C121.808 10.9116 120.898 10.1192 119.801 9.52971C118.703 8.94027 117.347 8.61607 115.737 8.55385ZM128.779 31.9285C129.299 31.6272 129.735 31.1328 130.085 30.4516C130.439 29.7705 130.614 29.0075 130.614 28.1593V13.361C130.614 12.4244 130.492 11.681 130.247 11.1374C130.003 10.5938 129.576 10.0175 128.965 9.41166L139.644 8.45873L139.597 28.1593C139.597 29.0075 139.773 29.7705 140.126 30.4516C140.477 31.1328 140.91 31.624 141.432 31.9285H128.783H128.779ZM136.007 1.26094C136.387 1.41485 136.714 1.63098 136.992 1.90605C137.27 2.18113 137.488 2.5086 137.643 2.88191C137.799 3.2585 137.878 3.65474 137.878 4.0739C137.878 4.49307 137.802 4.88603 137.643 5.24952C137.488 5.61301 137.27 5.93393 136.992 6.20901C136.714 6.48408 136.387 6.70021 136.007 6.85412C135.627 7.00804 135.227 7.08663 134.803 7.08663C133.957 7.08663 133.24 6.79518 132.648 6.20901C132.056 5.62284 131.762 4.91223 131.762 4.0739C131.762 3.65474 131.838 3.2585 131.996 2.88191C132.152 2.5086 132.37 2.18113 132.648 1.90605C132.925 1.63098 133.249 1.41485 133.616 1.26094C133.983 1.10703 134.38 1.02843 134.803 1.02843C135.227 1.02843 135.627 1.10375 136.007 1.26094ZM141.802 42.5911C141.8 42.5922 141.798 42.5933 141.797 42.5944V42.5911H141.802ZM141.802 42.5911H154.446C153.927 42.2898 153.491 41.7986 153.14 41.1175C152.79 40.4363 152.614 39.6701 152.614 38.8252V30.609C153.593 31.5783 154.694 32.2823 155.914 32.7211C157.134 33.16 158.417 33.3794 159.762 33.3794C161.72 33.3794 163.422 33.0453 164.874 32.3806C166.325 31.7158 167.515 30.8218 168.448 29.7019C169.377 28.5852 170.058 27.3048 170.484 25.8672C170.914 24.4329 171.076 22.9429 170.967 21.3972C170.861 19.8549 170.507 18.3256 169.912 16.8127C169.317 15.2997 168.451 13.9244 167.324 12.6833C166.163 11.4127 164.864 10.4728 163.429 9.86701C161.991 9.26119 160.434 8.95992 158.754 8.95992C157.594 8.95992 156.499 9.13348 155.478 9.4806C154.453 9.83099 153.514 10.3811 152.657 11.1376V9.32341L141.982 10.2763C142.593 10.8822 143.02 11.4585 143.264 12.0021C143.509 12.5457 143.631 13.2891 143.631 14.2256V38.8285C143.631 39.6733 143.453 40.4396 143.102 41.1208C142.753 41.7962 142.319 42.2895 141.802 42.5911ZM152.657 23.624V15.0017C152.657 12.7913 153.451 11.6877 155.041 11.6877C155.497 11.6877 156.003 11.7762 156.552 11.9595C157.957 12.3853 159.124 13.1417 160.057 14.2289C160.989 15.3194 161.716 16.5605 162.235 17.9522C162.754 19.3407 163.069 20.7947 163.174 22.3076C163.283 23.8205 163.188 25.2123 162.9 26.4828C162.609 27.7534 162.136 28.821 161.478 29.6822C160.824 30.5435 159.99 31.0052 158.982 31.0674C158.037 31.1296 157.164 30.9299 156.37 30.478C155.573 30.0228 154.902 29.4333 154.353 28.7064C153.805 27.9827 153.381 27.164 153.094 26.2569C152.803 25.3465 152.657 24.4689 152.657 23.624Z" fill="#15273B"/>
</svg>
