<svg width="20" height="20" viewBox="0 0 20 20" fill="none" xmlns="http://www.w3.org/2000/svg">
<path d="M17.1877 13.2101L10.0002 17.4015L2.81275 13.2101C2.67044 13.1393 2.50648 13.1253 2.35423 13.1711C2.20199 13.2169 2.07292 13.3189 1.99327 13.4565C1.91363 13.5941 1.88941 13.7569 1.92554 13.9117C1.96167 14.0665 2.05543 14.2017 2.18775 14.2898L9.68775 18.6648C9.78331 18.7206 9.89196 18.7499 10.0026 18.7499C10.1132 18.7499 10.2219 18.7206 10.3174 18.6648L17.8174 14.2898C17.8895 14.2491 17.9527 14.1944 18.0034 14.129C18.0542 14.0636 18.0914 13.9888 18.113 13.9089C18.1346 13.829 18.1401 13.7456 18.1292 13.6636C18.1183 13.5815 18.0913 13.5025 18.0496 13.431C18.0079 13.3595 17.9524 13.297 17.8863 13.2471C17.8203 13.1972 17.745 13.161 17.6648 13.1404C17.5846 13.1199 17.5012 13.1155 17.4193 13.1274C17.3374 13.1394 17.2587 13.1675 17.1877 13.2101Z" fill="#18181B"/>
<path d="M17.1877 9.46013L10.0002 13.6515L2.81275 9.46013C2.67044 9.38928 2.50648 9.37532 2.35423 9.42109C2.20199 9.46686 2.07292 9.56892 1.99327 9.7065C1.91363 9.84409 1.88941 10.0069 1.92554 10.1617C1.96167 10.3165 2.05543 10.4517 2.18775 10.5398L9.68775 14.9148C9.78331 14.9706 9.89196 14.9999 10.0026 14.9999C10.1132 14.9999 10.2219 14.9706 10.3174 14.9148L17.8174 10.5398C17.8895 10.4991 17.9527 10.4444 18.0034 10.379C18.0542 10.3136 18.0914 10.2388 18.113 10.1589C18.1346 10.079 18.1401 9.99563 18.1292 9.91358C18.1183 9.83154 18.0913 9.75247 18.0496 9.68098C18.0079 9.60948 17.9524 9.54698 17.8863 9.4971C17.8203 9.44722 17.745 9.41096 17.6648 9.39041C17.5846 9.36987 17.5012 9.36545 17.4193 9.37742C17.3374 9.38939 17.2587 9.4175 17.1877 9.46013Z" fill="#18181B"/>
<path d="M2.18798 6.7899L9.68798 11.1649C9.78355 11.2206 9.89219 11.25 10.0028 11.25C10.1135 11.25 10.2221 11.2206 10.3177 11.1649L17.8177 6.7899C17.912 6.73486 17.9903 6.65605 18.0447 6.56133C18.0991 6.46661 18.1277 6.35929 18.1277 6.25006C18.1277 6.14083 18.0991 6.03351 18.0447 5.93879C17.9903 5.84407 17.912 5.76526 17.8177 5.71022L10.3177 1.33522C10.2221 1.27949 10.1135 1.25012 10.0028 1.25012C9.89219 1.25012 9.78355 1.27949 9.68798 1.33522L2.18798 5.71022C2.09363 5.76526 2.01536 5.84407 1.96096 5.93879C1.90656 6.03351 1.87793 6.14083 1.87793 6.25006C1.87793 6.35929 1.90656 6.46661 1.96096 6.56133C2.01536 6.65605 2.09363 6.73486 2.18798 6.7899Z" fill="#18181B"/>
</svg>
