<svg width="28" height="28" viewBox="0 0 28 28" fill="none" xmlns="http://www.w3.org/2000/svg">
<path d="M23.3897 13.7222L11.1397 26.8472C11.0098 26.9857 10.8385 27.0783 10.6515 27.1109C10.4644 27.1435 10.2718 27.1144 10.1028 27.0279C9.93377 26.9415 9.79743 26.8024 9.71436 26.6317C9.63129 26.461 9.606 26.2679 9.64231 26.0815L11.2457 18.0611L4.94247 15.6942C4.8071 15.6436 4.68638 15.5602 4.59109 15.4515C4.49581 15.3428 4.42893 15.2122 4.39643 15.0714C4.36393 14.9306 4.36682 14.7839 4.40485 14.6444C4.44288 14.505 4.51485 14.3772 4.61434 14.2723L16.8643 1.14732C16.9942 1.00878 17.1655 0.916219 17.3525 0.88361C17.5396 0.851 17.7321 0.880109 17.9012 0.966543C18.0702 1.05298 18.2066 1.19205 18.2896 1.36276C18.3727 1.53348 18.398 1.72659 18.3617 1.91294L16.7539 9.94216L23.0572 12.3058C23.1915 12.3567 23.3113 12.44 23.4058 12.5483C23.5004 12.6565 23.5668 12.7864 23.5992 12.9264C23.6317 13.0664 23.6291 13.2122 23.5918 13.351C23.5545 13.4898 23.4836 13.6173 23.3853 13.7222H23.3897Z" fill="#136DF5"/>
</svg>
