<svg width="16" height="16" viewBox="0 0 16 16" fill="none" xmlns="http://www.w3.org/2000/svg">
<path d="M12 1C13.6569 1 15 2.34315 15 4V12C15 13.6569 13.6569 15 12 15H4C2.34315 15 1 13.6569 1 12V4C1 2.34315 2.34315 1 4 1H12ZM3.26465 6.38379V12.9902H5.33887V6.38379H3.26465ZM10.6191 6.21973C10.2253 6.20527 9.83472 6.29657 9.48926 6.48438C9.14371 6.67229 8.85626 6.95015 8.65723 7.28711H8.62891V6.38379H6.64062V12.9902H8.71191V9.72168C8.71197 8.86009 8.87726 8.02541 9.95605 8.02539C11.0197 8.02539 11.0332 9.0123 11.0332 9.77832V12.9902H13.1055L13.1064 9.36621C13.1064 7.58722 12.7188 6.21973 10.6191 6.21973ZM4.06738 3.12305C3.83433 3.16907 3.62016 3.2828 3.45215 3.44922C3.28412 3.6157 3.16939 3.82774 3.12305 4.05859C3.07671 4.28946 3.1014 4.52864 3.19238 4.74609C3.28339 4.96352 3.43713 5.14951 3.63477 5.28027C3.83248 5.41103 4.06497 5.48148 4.30273 5.48145C4.46054 5.48142 4.6169 5.45042 4.7627 5.39062C4.90854 5.33078 5.04073 5.24239 5.15234 5.13184C5.26393 5.02131 5.3527 4.89048 5.41309 4.74609C5.47348 4.60166 5.50491 4.44636 5.50488 4.29004C5.50475 4.05477 5.43381 3.82451 5.30176 3.62891C5.16965 3.43336 4.98223 3.28044 4.7627 3.19043C4.543 3.10037 4.30058 3.07707 4.06738 3.12305Z" fill="#71717A"/>
</svg>
