<svg width="485" height="116" viewBox="0 0 485 116" fill="none" xmlns="http://www.w3.org/2000/svg">
<path d="M50.9079 55.4185C48.7049 57.666 46.0848 59.6764 42.053 59.6558C34.289 59.6146 32.8559 54.4597 34.3317 52.6659C35.5723 51.1606 37.7111 51.5421 38.9517 52.1401C40.1922 52.738 42.1172 53.2741 44.0956 51.8411C46.0741 50.408 49.6139 42.8717 54.1376 40.6654C58.6612 38.4488 67.2274 37.2013 72.5531 42.6345C77.7933 47.9853 76.51 57.9547 71.6869 65.1715C67.2808 71.7594 51.8811 86.3372 40.3526 91.2137C38.3528 92.0591 36.1926 91.822 34.4815 90.5023C26.4928 84.3165 13.1784 68.2438 6.89021 54.4907C-0.232185 38.8921 3.95997 32.0259 8.65476 27.9845C13.3496 23.9431 19.5522 21.3554 26.2576 24.4277C32.9629 27.4999 42.8765 38.1705 44.7266 44.315C46.566 50.4596 41.6252 51.3462 37.6042 49.573C33.5831 47.7997 30.6636 43.2325 26.7174 43.0366C22.6108 42.8304 17.7556 49.1296 21.0922 58.7898C24.1508 67.6561 32.2998 81.5123 37.3903 86.6568C37.9571 87.2239 38.8554 87.3373 39.5612 86.9455C41.9247 85.6053 47.475 81.9659 53.143 74.5945C59.9766 65.6973 61.6984 56.965 59.7628 54.5113C57.8592 52.0988 55.1856 51.0472 50.9079 55.4185ZM56.7256 24.2833C53.1644 24.2833 50.2662 27.0669 50.2662 30.5104C50.2662 33.9538 53.1537 36.7374 56.7256 36.7374C60.2975 36.7374 63.1849 33.9538 63.1849 30.5104C63.1849 27.0669 60.2868 24.2833 56.7256 24.2833ZM33.7543 7.92188C29.5086 7.92188 26.0651 11.2416 26.0651 15.3345C26.0651 19.4275 29.5086 22.7472 33.7543 22.7472C37.9999 22.7472 41.4434 19.4275 41.4434 15.3345C41.4434 11.2416 37.9999 7.92188 33.7543 7.92188Z" fill="#FF7070"/>
<path d="M90.3047 29.7993H98.0153V76.6465H90.3047V29.7993ZM105.084 36.7996C105.084 35.6037 105.544 34.5624 106.464 33.6654C107.383 32.7788 108.549 32.3355 109.971 32.3355C111.383 32.3355 112.57 32.7582 113.543 33.6036C114.506 34.449 114.987 35.5109 114.987 36.7996C114.987 38.078 114.506 39.1399 113.543 39.9853C112.581 40.8307 111.394 41.2534 109.971 41.2534C108.56 41.2534 107.394 40.81 106.464 39.9234C105.544 39.0368 105.084 37.9955 105.084 36.7996ZM106.186 46.9031H113.896V76.6465H106.186V46.9031ZM117.746 46.9031H126.163L134.397 67.7183H134.526L142.814 46.9031H150.717L138.568 76.6465H130.344L117.746 46.9031ZM160.62 64.3676C160.876 66.5945 161.775 68.3369 163.315 69.574C164.855 70.8112 166.726 71.4298 168.908 71.4298C170.833 71.4298 172.448 71.0483 173.763 70.2854C175.068 69.5225 176.212 68.5637 177.206 67.409L182.735 71.4401C180.939 73.5845 178.918 75.1206 176.693 76.0279C174.469 76.9351 172.127 77.3887 169.688 77.3887C167.378 77.3887 165.186 77.0176 163.133 76.2753C161.079 75.533 159.294 74.4814 157.796 73.1205C156.299 71.7597 155.112 70.1101 154.224 68.1925C153.348 66.2749 152.909 64.1305 152.909 61.7799C152.909 59.4293 153.348 57.2849 154.224 55.3673C155.101 53.4497 156.288 51.8001 157.796 50.4393C159.294 49.0784 161.079 48.0268 163.133 47.2742C165.186 46.5319 167.378 46.1608 169.688 46.1608C171.827 46.1608 173.795 46.5216 175.57 47.2433C177.346 47.965 178.864 49.0062 180.137 50.3671C181.399 51.728 182.383 53.4188 183.088 55.4188C183.794 57.4189 184.147 59.7283 184.147 62.3263V64.3676H160.62ZM176.426 58.8004C176.383 56.6148 175.677 54.8827 174.308 53.625C172.939 52.3672 171.036 51.7383 168.587 51.7383C166.277 51.7383 164.438 52.3775 163.09 53.6559C161.743 54.9343 160.919 56.6457 160.62 58.8004H176.426ZM190.959 36.6759C190.959 35.8923 191.237 35.2325 191.793 34.6964C192.35 34.1603 193.034 33.8923 193.847 33.8923C194.66 33.8923 195.344 34.1603 195.9 34.6964C196.456 35.2325 196.734 35.8923 196.734 36.6759C196.734 37.4594 196.456 38.1192 195.9 38.6553C195.344 39.1914 194.66 39.4595 193.847 39.4595C193.034 39.4595 192.35 39.1914 191.793 38.6553C191.237 38.1192 190.959 37.4594 190.959 36.6759ZM191.922 48.0165H195.782V76.6465H191.922V48.0165ZM205.867 56.0683C205.867 55.5322 205.846 54.8827 205.803 54.1198C205.76 53.3569 205.728 52.5837 205.707 51.8001C205.685 51.0166 205.653 50.2846 205.611 49.6042C205.568 48.9238 205.546 48.398 205.546 48.0268H209.407C209.45 49.099 209.482 50.13 209.503 51.13C209.525 52.1197 209.578 52.7589 209.664 53.0476H209.856C210.626 51.4805 211.909 50.13 213.717 48.9856C215.513 47.8515 217.609 47.2845 220.016 47.2845C222.326 47.2845 224.219 47.635 225.673 48.3361C227.127 49.0372 228.272 49.9547 229.106 51.0888C229.94 52.2228 230.518 53.5322 230.838 55.0271C231.159 56.5117 231.32 58.0478 231.32 59.6149V76.6568H227.459V59.7901C227.459 58.6355 227.352 57.5117 227.138 56.4086C226.924 55.3157 226.55 54.3363 226.015 53.4703C225.48 52.6043 224.732 51.9136 223.769 51.3981C222.807 50.8826 221.556 50.6248 220.005 50.6248C218.593 50.6248 217.246 50.862 215.984 51.3362C214.722 51.8105 213.631 52.5321 212.701 53.5012C211.77 54.4704 211.054 55.6869 210.519 57.1612C209.984 58.6252 209.717 60.3572 209.717 62.3366V76.6465H205.856V56.0683H205.867ZM261.071 55.8209C260.173 54.9137 259.232 54.192 258.248 53.6559C257.264 53.1198 256.259 52.8517 255.221 52.8517C253.81 52.8517 252.548 53.0992 251.425 53.594C250.313 54.0889 249.361 54.7487 248.569 55.5735C247.778 56.3983 247.179 57.3468 246.773 58.419C246.366 59.4912 246.163 60.6046 246.163 61.7696C246.163 62.9243 246.366 64.0377 246.773 65.1202C247.179 66.1924 247.778 67.1409 248.569 67.9657C249.361 68.7905 250.313 69.4503 251.425 69.9452C252.537 70.44 253.799 70.6875 255.221 70.6875C256.419 70.6875 257.531 70.4503 258.569 69.9761C259.595 69.5019 260.472 68.8111 261.199 67.9039L266.343 73.2339C265.573 73.9762 264.686 74.6154 263.68 75.1515C262.675 75.6876 261.659 76.1207 260.633 76.4506C259.606 76.7805 258.622 77.0176 257.681 77.1619C256.74 77.3063 255.927 77.3784 255.243 77.3784C252.933 77.3784 250.74 77.0073 248.687 76.265C246.634 75.5227 244.848 74.4711 243.351 73.1102C241.853 71.7494 240.666 70.0998 239.779 68.1822C238.902 66.2646 238.463 64.1202 238.463 61.7696C238.463 59.419 238.902 57.2746 239.779 55.357C240.656 53.4394 241.843 51.7898 243.351 50.429C244.848 49.0681 246.634 48.0165 248.687 47.2639C250.74 46.5216 252.933 46.1505 255.243 46.1505C257.21 46.1505 259.2 46.5113 261.189 47.233C263.178 47.9546 264.921 49.099 266.429 50.6764L261.071 55.8209ZM289.422 72.5535H289.229C288.117 74.2443 286.705 75.4815 284.984 76.2444C283.272 77.0073 281.38 77.3887 279.326 77.3887C277.915 77.3887 276.535 77.2032 275.177 76.832C273.829 76.4609 272.632 75.9042 271.573 75.1619C270.525 74.4196 269.68 73.4917 269.038 72.3782C268.397 71.2648 268.076 69.9658 268.076 68.4709C268.076 66.8626 268.375 65.4914 268.974 64.347C269.573 63.213 270.375 62.2645 271.38 61.5015C272.386 60.7386 273.551 60.1304 274.888 59.6767C276.214 59.2231 277.594 58.8829 279.037 58.6561C280.47 58.4293 281.914 58.2849 283.379 58.2231C284.834 58.1612 286.203 58.1303 287.497 58.1303H289.422V57.3055C289.422 55.4498 288.759 54.0477 287.432 53.1198C286.106 52.1919 284.406 51.728 282.353 51.728C280.727 51.728 279.209 52.0063 277.786 52.5631C276.375 53.1198 275.155 53.8724 274.118 54.8209L270.065 50.9135C271.776 49.2227 273.787 48.0062 276.075 47.2536C278.364 46.5113 280.738 46.1401 283.176 46.1401C285.358 46.1401 287.208 46.3773 288.705 46.8515C290.202 47.3258 291.443 47.934 292.427 48.6763C293.411 49.4186 294.17 50.2743 294.705 51.2434C295.239 52.2125 295.624 53.192 295.86 54.1817C296.095 55.1714 296.234 56.1302 296.277 57.0684C296.319 57.9963 296.341 58.8107 296.341 59.5118V76.6155H289.4V72.5535H289.422ZM288.972 63.3161H287.368C286.299 63.3161 285.101 63.3573 283.764 63.4398C282.438 63.5222 281.187 63.7181 280 64.0274C278.824 64.3367 277.829 64.7903 277.016 65.3883C276.203 65.9863 275.797 66.8213 275.797 67.8935C275.797 68.5946 275.958 69.1822 276.278 69.6565C276.599 70.1307 277.016 70.5328 277.53 70.8627C278.043 71.1926 278.62 71.4298 279.262 71.5741C279.904 71.7184 280.545 71.7906 281.187 71.7906C283.839 71.7906 285.807 71.1823 287.069 69.9658C288.331 68.7492 288.962 67.0791 288.962 64.9759V63.3161H288.972ZM303.816 46.9031H311.527V51.6146H311.655C312.511 49.8826 313.73 48.5423 315.323 47.5835C316.906 46.635 318.735 46.1608 320.788 46.1608C321.259 46.1608 321.718 46.202 322.168 46.2845C322.617 46.367 323.077 46.47 323.547 46.5938V53.7796C322.905 53.6147 322.274 53.4806 321.654 53.3775C321.034 53.2744 320.424 53.2229 319.825 53.2229C318.029 53.2229 316.585 53.5425 315.484 54.1817C314.393 54.8209 313.559 55.5529 312.981 56.3776C312.404 57.2024 312.019 58.0272 311.826 58.852C311.634 59.6767 311.537 60.2953 311.537 60.7077V76.6361H303.827V46.9031H303.816ZM332.99 64.3676C333.247 66.5945 334.145 68.3369 335.685 69.574C337.225 70.8112 339.097 71.4298 341.278 71.4298C343.203 71.4298 344.818 71.0483 346.133 70.2854C347.438 69.5225 348.582 68.5637 349.577 67.409L355.106 71.4401C353.309 73.5845 351.288 75.1206 349.064 76.0279C346.839 76.9351 344.497 77.3887 342.059 77.3887C339.749 77.3887 337.557 77.0176 335.503 76.2753C333.45 75.533 331.664 74.4814 330.167 73.1205C328.67 71.7597 327.483 70.1101 326.595 68.1925C325.718 66.2749 325.28 64.1305 325.28 61.7799C325.28 59.4293 325.718 57.2849 326.595 55.3673C327.472 53.4497 328.659 51.8001 330.167 50.4393C331.664 49.0784 333.45 48.0268 335.503 47.2742C337.557 46.5319 339.749 46.1608 342.059 46.1608C344.198 46.1608 346.166 46.5216 347.941 47.2433C349.716 47.965 351.235 49.0062 352.507 50.3671C353.769 51.728 354.753 53.4188 355.459 55.4188C356.165 57.4189 356.518 59.7283 356.518 62.3263V64.3676H332.99ZM348.807 58.8004C348.764 56.6148 348.058 54.8827 346.69 53.625C345.321 52.3672 343.417 51.7383 340.968 51.7383C338.658 51.7383 336.819 52.3775 335.471 53.6559C334.124 54.9343 333.3 56.6457 333.001 58.8004H348.807ZM368.153 81.6569C368.153 83.1415 368.035 84.4818 367.8 85.688C367.565 86.884 367.126 87.9149 366.485 88.7912C365.843 89.6573 364.977 90.3274 363.886 90.8016C362.795 91.2759 361.394 91.513 359.672 91.513C358.646 91.513 357.619 91.3274 356.592 90.9563L357.17 87.6675C358.068 87.9974 358.881 88.1624 359.608 88.1624C360.635 88.1624 361.458 87.9871 362.079 87.6366C362.699 87.286 363.169 86.8324 363.49 86.2757C363.811 85.719 364.025 85.0695 364.132 84.3272C364.239 83.5849 364.292 82.8013 364.292 81.9766V48.0165H368.153V81.6569ZM363.33 36.6759C363.33 35.8923 363.608 35.2325 364.164 34.6964C364.72 34.1603 365.405 33.8923 366.217 33.8923C367.03 33.8923 367.715 34.1603 368.271 34.6964C368.827 35.2325 369.105 35.8923 369.105 36.6759C369.105 37.4594 368.827 38.1192 368.271 38.6553C367.715 39.1914 367.03 39.4595 366.217 39.4595C365.405 39.4595 364.72 39.1914 364.164 38.6553C363.608 38.1192 363.33 37.4594 363.33 36.6759ZM375.735 62.3263C375.735 60.1407 376.12 58.12 376.89 56.2849C377.66 54.4497 378.73 52.8517 380.109 51.5115C381.478 50.1712 383.125 49.1299 385.061 48.3876C386.986 47.6454 389.092 47.2742 391.36 47.2742C393.627 47.2742 395.723 47.6454 397.626 48.3876C399.53 49.1299 401.188 50.1712 402.578 51.5115C403.968 52.8517 405.048 54.4497 405.818 56.2849C406.588 58.12 406.973 60.1407 406.973 62.3263C406.973 64.512 406.588 66.5327 405.818 68.3678C405.048 70.2029 403.968 71.8009 402.578 73.1412C401.188 74.4814 399.53 75.5227 397.626 76.265C395.723 77.0073 393.627 77.3784 391.36 77.3784C389.092 77.3784 386.986 77.0073 385.061 76.265C383.136 75.5227 381.489 74.4814 380.109 73.1412C378.74 71.8009 377.671 70.2132 376.89 68.3678C376.12 66.5327 375.735 64.5223 375.735 62.3263ZM379.596 62.3263C379.596 63.9346 379.863 65.4502 380.398 66.8832C380.933 68.3059 381.713 69.5431 382.74 70.605C383.767 71.6566 385.007 72.4917 386.472 73.1102C387.927 73.7288 389.552 74.0381 391.36 74.0381C393.156 74.0381 394.782 73.7288 396.247 73.1102C397.701 72.4917 398.942 71.6566 399.968 70.605C400.995 69.5534 401.776 68.3162 402.311 66.8832C402.845 65.4605 403.113 63.9449 403.113 62.3263C403.113 60.718 402.845 59.2025 402.311 57.7694C401.776 56.3467 400.995 55.1096 399.968 54.0477C398.942 52.9961 397.701 52.161 396.247 51.5424C394.792 50.9238 393.156 50.6145 391.36 50.6145C389.563 50.6145 387.927 50.9238 386.472 51.5424C385.018 52.161 383.777 52.9961 382.74 54.0477C381.713 55.0992 380.933 56.3364 380.398 57.7694C379.853 59.2025 379.596 60.718 379.596 62.3263ZM413.978 29.7993H417.839V53.0373H417.967C418.566 52.0476 419.314 51.1919 420.213 50.4702C421.111 49.7485 422.084 49.1506 423.132 48.6763C424.18 48.2021 425.282 47.8515 426.448 47.6247C427.603 47.3979 428.736 47.2845 429.859 47.2845C432.126 47.2845 434.222 47.6557 436.126 48.398C438.029 49.1403 439.687 50.1815 441.077 51.5218C442.468 52.862 443.548 54.46 444.318 56.2952C445.088 58.1303 445.473 60.151 445.473 62.3366C445.473 64.5223 445.088 66.543 444.318 68.3781C443.548 70.2132 442.468 71.8112 441.077 73.1515C439.687 74.4917 438.029 75.533 436.126 76.2753C434.222 77.0176 432.126 77.3887 429.859 77.3887C428.747 77.3887 427.613 77.2753 426.448 77.0485C425.293 76.8217 424.191 76.4712 423.132 75.9969C422.084 75.5227 421.111 74.9247 420.213 74.2031C419.314 73.4814 418.566 72.6257 417.967 71.636H417.839V76.6568H413.978V29.7993ZM417.443 62.3263C417.443 63.9346 417.764 65.4502 418.405 66.8832C419.047 68.3059 419.924 69.5431 421.036 70.605C422.148 71.6566 423.453 72.4917 424.961 73.1102C426.458 73.7288 428.084 74.0381 429.848 74.0381C431.645 74.0381 433.271 73.7288 434.736 73.1102C436.19 72.4917 437.431 71.6566 438.468 70.605C439.505 69.5534 440.275 68.3162 440.81 66.8832C441.345 65.4605 441.612 63.9449 441.612 62.3263C441.612 60.718 441.345 59.2025 440.81 57.7694C440.275 56.3467 439.495 55.1096 438.468 54.0477C437.441 52.9961 436.201 52.161 434.736 51.5424C433.281 50.9238 431.656 50.6145 429.848 50.6145C428.094 50.6145 426.458 50.9238 424.961 51.5424C423.464 52.161 422.159 52.9961 421.036 54.0477C419.924 55.0992 419.047 56.3364 418.405 57.7694C417.764 59.2025 417.443 60.718 417.443 62.3263ZM453.119 69.3266C453.932 70.8524 455.13 72.0174 456.723 72.8216C458.306 73.6257 459.974 74.0278 461.739 74.0278C462.551 74.0278 463.364 73.9041 464.177 73.6566C464.99 73.4092 465.717 73.0587 466.359 72.6051C467 72.1514 467.524 71.605 467.931 70.9658C468.337 70.3266 468.54 69.5946 468.54 68.7699C468.54 67.4502 468.102 66.4605 467.225 65.8007C466.348 65.1409 465.268 64.6254 463.984 64.2542C462.701 63.8831 461.29 63.5635 459.739 63.2954C458.199 63.0274 456.787 62.615 455.493 62.0583C454.21 61.5015 453.13 60.7283 452.253 59.7386C451.376 58.7489 450.937 57.3467 450.937 55.5219C450.937 54.1198 451.237 52.9033 451.836 51.862C452.435 50.831 453.215 49.9753 454.178 49.2949C455.14 48.6145 456.22 48.1093 457.418 47.7794C458.616 47.4495 459.835 47.2845 461.086 47.2845C463.525 47.2845 465.642 47.7175 467.417 48.5835C469.193 49.4495 470.583 50.8104 471.567 52.6765L468.091 54.6559C467.364 53.3363 466.455 52.3362 465.364 51.6558C464.273 50.9754 462.851 50.6352 461.086 50.6352C460.402 50.6352 459.685 50.7383 458.937 50.9444C458.188 51.1506 457.514 51.4393 456.916 51.8105C456.317 52.1816 455.814 52.6558 455.408 53.2332C455.001 53.8105 454.798 54.4704 454.798 55.2127C454.798 56.4911 455.237 57.4395 456.113 58.0581C456.99 58.6767 458.071 59.1613 459.354 59.5118C460.637 59.8623 462.049 60.1613 463.599 60.4087C465.139 60.6562 466.551 61.0582 467.845 61.615C469.128 62.1717 470.209 62.9758 471.086 64.0274C471.962 65.079 472.401 66.5739 472.401 68.5224C472.401 70.007 472.112 71.306 471.535 72.3989C470.957 73.4917 470.166 74.4093 469.161 75.1515C468.155 75.8938 467.011 76.4506 465.728 76.8217C464.444 77.1929 463.097 77.3784 461.675 77.3784C459.108 77.3784 456.755 76.9042 454.638 75.9557C452.52 75.0072 450.873 73.5432 449.718 71.5535L453.119 69.3266Z" fill="#FF7070"/>
</svg>
