<svg width="341" height="77" viewBox="0 0 341 77" fill="none" xmlns="http://www.w3.org/2000/svg">
<path d="M111.977 7.10059L92.2344 60.0551H99.7244L104.036 48.1761H127.866L132.178 60.0551H139.668L119.924 7.10059H111.983H111.977ZM106.456 41.6003L115.915 15.4996L125.446 41.6003H106.456Z" fill="white"/>
<path d="M173.028 28.7688C169.777 23.7772 165.009 21.2788 158.807 21.2788C153.436 21.2788 148.818 23.1695 145.115 27.0288C141.406 30.8101 139.516 35.4277 139.516 40.9491C139.516 46.4705 141.406 51.0881 145.115 54.9422C148.824 58.8015 153.436 60.6922 158.807 60.6922C164.936 60.6922 169.699 58.1938 173.028 53.1243V58.495C173.028 65.6838 168.26 70.0676 160.396 70.0676C154.267 70.0676 150.107 67.9484 148.065 63.7152L142.315 66.9667C145.416 72.9452 151.774 76.1968 160.246 76.1968C165.538 76.1968 170.078 74.6073 173.865 71.5064C177.646 68.4055 179.537 64.0943 179.537 58.495V22.2605H173.028V28.7688ZM169.169 50.5583C166.598 53.1295 163.419 54.4176 159.56 54.4176C155.701 54.4176 152.522 53.1295 149.951 50.5583C147.38 47.9872 146.091 44.8084 146.091 40.9491C146.091 37.0899 147.38 33.9889 149.951 31.4178C152.522 28.8467 155.701 27.5586 159.56 27.5586C163.419 27.5586 166.598 28.8467 169.169 31.4178C171.74 33.9889 173.028 37.1678 173.028 40.9491C173.028 44.7305 171.74 47.9872 169.169 50.5583Z" fill="white"/>
<path d="M204.493 21.284C198.67 21.284 193.902 23.1747 190.193 26.956C186.485 30.7374 184.672 35.5056 184.672 41.1777C184.672 46.8497 186.563 51.6907 190.271 55.4772C194.053 59.1859 198.971 61.0765 204.95 61.0765C212.362 61.0765 217.889 58.199 221.592 52.5269L215.993 49.3481C213.723 53.0567 210.092 54.8695 205.101 54.8695C197.912 54.8695 192.692 50.9375 191.409 44.2007H223.109C223.259 43.219 223.337 42.2321 223.337 41.2504C223.337 35.729 221.597 31.0387 218.039 27.1794C214.559 23.2474 210.019 21.2788 204.498 21.2788L204.493 21.284ZM191.404 38.4559C192.536 31.797 197.455 27.4858 204.493 27.4858C210.544 27.4858 215.536 31.2672 216.673 38.4559H191.404Z" fill="white"/>
<path d="M247.042 21.2791C241.521 21.2791 237.433 23.3983 234.784 27.7094V22.2608H228.203V60.0899H234.784V40.0404C234.784 31.5687 239.173 27.5588 245.754 27.5588C251.582 27.5588 255.135 31.1116 255.135 37.2407V60.0899H261.716V36.8668C261.716 27.2575 255.893 21.2842 247.037 21.2842L247.042 21.2791Z" fill="white"/>
<path d="M285.87 54.5682C282.089 54.5682 278.91 53.2801 276.339 50.709C273.841 48.1379 272.558 44.959 272.558 41.1777C272.558 37.3963 273.846 34.1396 276.339 31.5685C278.91 28.9973 282.089 27.7092 285.87 27.7092C290.94 27.7092 295.173 30.3582 297.069 34.3681L302.59 31.1893C299.64 25.1381 293.36 21.2788 285.87 21.2788C280.198 21.2788 275.43 23.1695 271.649 27.0288C267.867 30.8101 265.977 35.5004 265.977 41.1777C265.977 46.8549 267.867 51.54 271.649 55.3993C275.43 59.1807 280.198 61.0713 285.87 61.0713C293.21 61.0713 299.64 57.2121 302.892 51.2388L297.292 47.9872C295.173 51.9971 290.94 54.5682 285.87 54.5682Z" fill="white"/>
<path d="M333.182 22.2217L322.289 51.8752L309.429 22.2217H302.391L318.882 59.895L318.202 61.3338C316.01 66.8552 312.602 69.4263 307.99 69.0523V75.1814C315.553 75.7112 321.531 70.943 324.783 62.3934L340.215 22.2217H333.176H333.182Z" fill="white"/>
<path d="M36.889 0C16.5486 0 0 16.5538 0 36.8942C0 47.0176 4.01509 56.4554 11.3129 63.4779L13.9048 65.9711L25.6956 54.1804C25.6956 54.1804 25.7215 54.196 25.7319 54.2012L31.1079 48.8252C31.1079 48.8252 31.0819 48.8148 31.0715 48.8044L36.889 42.9869L42.7065 48.8044C40.9508 49.6718 38.9718 50.1549 36.889 50.1549C36.8267 50.1549 36.7643 50.1549 36.6968 50.1549L30.4067 56.4502C32.448 57.1307 34.6243 57.4995 36.889 57.4995C41.0131 57.4995 44.8568 56.2788 48.0824 54.1856L59.868 65.9763L62.4599 63.4831C69.7525 56.4606 73.778 47.0228 73.778 36.8994C73.7832 16.5538 57.2293 0 36.889 0ZM36.889 32.6038L25.6228 43.87C24.3555 41.8442 23.6283 39.4497 23.6283 36.8942C23.6283 29.5808 29.5756 23.6283 36.8942 23.6283C44.2128 23.6283 50.1601 29.5756 50.1601 36.8942C50.1601 39.4549 49.4329 41.8494 48.1655 43.8751L36.8994 32.6038H36.889ZM59.8212 55.5413L53.4376 49.1524C55.9879 45.7295 57.4942 41.4858 57.4942 36.8942C57.4942 25.5345 48.2538 16.2889 36.889 16.2889C25.5241 16.2889 16.2889 25.5345 16.2889 36.8942C16.2889 41.4858 17.7952 45.7243 20.3456 49.1524L13.9567 55.5413C9.66635 50.2899 7.33936 43.792 7.33936 36.8942C7.33936 20.5949 20.5949 7.33936 36.889 7.33936C53.1831 7.33936 66.4386 20.6001 66.4386 36.8942C66.4386 43.792 64.1116 50.2899 59.8212 55.5413Z" fill="white"/>
</svg>
