<svg width="555" height="156" viewBox="0 0 555 156" fill="none" xmlns="http://www.w3.org/2000/svg">
<path fill-rule="evenodd" clip-rule="evenodd" d="M181.342 33.6325H175.911L172.886 24.6914H160.282L157.257 33.6325H151.917L163.857 0.550226H169.402L181.342 33.6325ZM166.652 6.05248H166.515L161.588 20.5647H171.579L166.652 6.05248Z" fill="#91A2FF"/>
<path fill-rule="evenodd" clip-rule="evenodd" d="M219.062 24.2787C219.062 30.1019 214.822 33.6325 207.787 33.6325H194.519V0.550226H207.718C213.585 0.550226 217.435 3.80573 217.435 8.80361C217.435 12.3113 214.845 15.4522 211.545 16.0024V16.1858C216.037 16.6902 219.062 19.8769 219.062 24.2787ZM206.481 4.7457H199.652V14.6268H205.404C209.849 14.6268 212.301 12.7927 212.301 9.51432C212.301 6.44222 210.193 4.7457 206.481 4.7457ZM199.652 18.5472V29.4371H206.733C211.362 29.4371 213.814 27.5342 213.814 23.9577C213.814 20.3813 211.293 18.5472 206.435 18.5472H199.652Z" fill="#91A2FF"/>
<path d="M261.021 23.3387C259.761 30.1707 254.582 34.1828 246.974 34.1828C237.693 34.1828 231.826 27.6259 231.826 17.0799C231.826 6.60271 237.738 0 246.974 0C254.467 0 260.127 4.60814 260.998 11.5089H255.911C254.994 7.26756 251.465 4.49351 246.974 4.49351C240.97 4.49351 237.074 9.42261 237.074 17.0799C237.074 24.806 240.924 29.6893 246.996 29.6893C251.603 29.6893 254.88 27.3279 255.911 23.3387H261.021Z" fill="#91A2FF"/>
<path fill-rule="evenodd" clip-rule="evenodd" d="M275.183 33.6325V0.550226H286.848C296.679 0.550226 302.499 6.60271 302.499 17.0341C302.499 27.4884 296.702 33.6325 286.848 33.6325H275.183ZM286.366 4.97496H280.317V29.1849H286.366C293.379 29.1849 297.252 24.8977 297.252 17.0799C297.252 9.28506 293.356 4.97496 286.366 4.97496Z" fill="#91A2FF"/>
<path d="M322.07 29.1849H337.928V33.6325H316.937V0.550226H337.928V4.97496H322.07V14.6498H337.08V18.914H322.07V29.1849Z" fill="#91A2FF"/>
<path d="M357.865 19.7852V33.6325H352.732V0.550226H373.379V4.97496H357.865V15.4522H372.073V19.7852H357.865Z" fill="#91A2FF"/>
<path d="M415.866 16.5068V19.8769C415.866 28.841 410.572 34.1828 401.612 34.1828C392.147 34.1828 386.189 27.5571 386.189 16.9424C386.189 6.511 392.124 0 401.543 0C408.899 0 414.468 4.35595 415.613 10.9587H410.343C409.105 6.85489 405.874 4.49351 401.566 4.49351C395.241 4.49351 391.437 9.12457 391.437 16.8965C391.437 24.806 395.356 29.6893 401.658 29.6893C407.02 29.6893 410.732 26.2503 410.801 21.2295V20.6564H402.253V16.5068H415.866Z" fill="#91A2FF"/>
<path d="M457.665 0.550226V33.6325H452.531V18.9828H435.551V33.6325H430.417V0.550226H435.551V14.5351H452.531V0.550226H457.665Z" fill="#91A2FF"/>
<path d="M478.404 0.550226V33.6325H473.271V0.550226H478.404Z" fill="#91A2FF"/>
<path d="M501.87 34.3662C495.912 34.3662 491.855 30.6521 491.855 25.1499H496.897C496.966 27.901 498.96 29.781 501.824 29.781C505.193 29.781 507.026 27.7635 507.026 23.9807V0.550226H512.159V24.0036C512.159 30.5604 508.309 34.3662 501.87 34.3662Z" fill="#91A2FF"/>
<path d="M532.99 22.6051V33.6325H527.857V0.550226H532.99V16.3004H533.196L547.015 0.550226H553.11L540.002 15.2L554.21 33.6325H547.84L536.382 18.7306L532.99 22.6051Z" fill="#91A2FF"/>
<path fill-rule="evenodd" clip-rule="evenodd" d="M137.314 155.746H111.968L97.8519 114.02H39.0338L24.9175 155.746H0L55.7168 1.36167H81.5968L137.314 155.746ZM68.7637 27.0389H68.1221L45.1295 94.7625H91.7562L68.7637 27.0389Z" fill="#91A2FF"/>
<path fill-rule="evenodd" clip-rule="evenodd" d="M211.872 93.9452C215.034 93.9452 218.082 92.2486 219.48 89.5663H219.595V93.5325H224.338V76.9111C224.338 72.0737 220.603 68.9787 214.759 68.9787C208.801 68.9787 205.089 72.1883 204.814 76.5443H209.489C209.924 74.3892 211.712 73.0137 214.576 73.0137C217.601 73.0137 219.411 74.6185 219.411 77.3008V79.1579L212.812 79.5476C207.082 79.8686 203.851 82.4592 203.851 86.6776C203.851 91.0106 207.151 93.9452 211.872 93.9452ZM213.247 90.0248C210.589 90.0248 208.847 88.6493 208.847 86.5401C208.847 84.4767 210.52 83.1699 213.476 82.9636L219.411 82.5968V84.4996C219.411 87.6405 216.707 90.0248 213.247 90.0248Z" fill="#91A2FF"/>
<path fill-rule="evenodd" clip-rule="evenodd" d="M253.394 93.9452C259.513 93.9452 263.454 89.1307 263.454 81.4734C263.454 73.839 259.49 69.0245 253.417 69.0245C250.003 69.0245 247.253 70.7211 245.809 73.5181H245.694V60.4502H240.744V93.5325H245.557V89.4287H245.648C247.138 92.2257 249.865 93.9452 253.394 93.9452ZM252.065 73.1971C255.961 73.1971 258.367 76.4067 258.367 81.4734C258.367 86.5859 255.961 89.7497 252.065 89.7497C248.307 89.7497 245.671 86.4942 245.671 81.4734C245.671 76.4984 248.307 73.1971 252.065 73.1971Z" fill="#91A2FF"/>
<path d="M299.431 77.7135C298.995 72.9678 295.214 68.9787 289.004 68.9787C282.152 68.9787 277.661 73.8161 277.661 81.4734C277.661 89.2683 282.152 93.991 289.05 93.991C294.848 93.991 298.95 90.5063 299.477 85.3708H294.71C294.137 88.1678 292.144 89.8414 289.096 89.8414C285.246 89.8414 282.702 86.7693 282.702 81.4734C282.702 76.2921 285.223 73.1054 289.05 73.1054C292.281 73.1054 294.206 75.1458 294.71 77.7135H299.431Z" fill="#91A2FF"/>
<path fill-rule="evenodd" clip-rule="evenodd" d="M323.445 93.9452C326.951 93.9452 329.701 92.1799 331.122 89.4287H331.214V93.5325H336.026V60.4502H331.053V73.4263H330.962C329.61 70.7669 326.86 69.0245 323.399 69.0245C317.349 69.0245 313.316 73.8619 313.316 81.4734C313.316 89.0848 317.349 93.9452 323.445 93.9452ZM324.751 73.1971C328.555 73.1971 331.099 76.4755 331.099 81.4734C331.099 86.5171 328.555 89.7497 324.751 89.7497C320.833 89.7497 318.381 86.563 318.381 81.4734C318.381 76.4067 320.833 73.1971 324.751 73.1971Z" fill="#91A2FF"/>
<path fill-rule="evenodd" clip-rule="evenodd" d="M368.496 86.4483C367.832 88.5575 365.747 89.979 362.928 89.979C358.963 89.979 356.443 87.2049 356.443 83.0094V82.7114H373.469V81.0149C373.469 73.7015 369.299 68.9787 362.607 68.9787C355.801 68.9787 351.447 74.0224 351.447 81.588C351.447 89.1995 355.732 93.991 362.813 93.991C368.336 93.991 372.507 90.8502 373.194 86.4483H368.496ZM362.607 72.9678C366.067 72.9678 368.405 75.5585 368.519 79.2496H356.465C356.718 75.6043 359.147 72.9678 362.607 72.9678Z" fill="#91A2FF"/>
<path d="M390.173 93.5325H395.146V73.3346H399.958V69.4601H395.077V67.1905C395.077 65.0583 396.086 63.9808 398.24 63.9808C398.904 63.9808 399.569 64.0267 400.05 64.1184V60.4502C399.409 60.3356 398.286 60.2209 397.277 60.2209C392.373 60.2209 390.173 62.4218 390.173 67.0987V69.4601H386.85V73.3346H390.173V93.5325Z" fill="#91A2FF"/>
<path fill-rule="evenodd" clip-rule="evenodd" d="M425.577 102.611C432.452 102.611 436.898 98.8513 436.898 93.0969V69.4143H432.085V73.541H431.993C430.527 70.744 427.731 69.0245 424.317 69.0245C418.129 69.0245 414.188 73.7932 414.188 81.3817C414.188 88.9014 418.152 93.6242 424.202 93.6242C427.639 93.6242 430.481 91.9048 431.833 89.2912H431.925V93.2574C431.925 96.5587 429.633 98.7596 425.76 98.7596C422.942 98.7596 420.742 97.4299 420.031 95.4124H415.058C415.677 99.585 419.894 102.611 425.577 102.611ZM425.531 89.5204C421.727 89.5204 419.252 86.4483 419.252 81.4046C419.252 76.3838 421.727 73.1971 425.531 73.1971C429.404 73.1971 431.948 76.4526 431.948 81.4046C431.948 86.3796 429.404 89.5204 425.531 89.5204Z" fill="#91A2FF"/>
<path d="M453.395 93.5325H458.345V79.5935C458.345 75.7877 460.591 73.2659 464.258 73.2659C467.741 73.2659 469.528 75.398 469.528 78.9515V93.5325H474.501V77.9886C474.501 72.5322 471.339 69.0016 466.045 69.0016C462.378 69.0016 459.743 70.6294 458.414 73.4493H458.299V60.4502H453.395V93.5325Z" fill="#91A2FF"/>
<path d="M493.336 65.5169C494.917 65.5169 496.178 64.233 496.178 62.674C496.178 61.0921 494.917 59.8312 493.336 59.8312C491.755 59.8312 490.472 61.0921 490.472 62.674C490.472 64.233 491.755 65.5169 493.336 65.5169Z" fill="#91A2FF"/>
<path d="M514.899 65.5169C516.503 65.5169 517.74 64.233 517.74 62.674C517.74 61.0921 516.503 59.8312 514.899 59.8312C513.317 59.8312 512.034 61.0921 512.034 62.674C512.034 64.233 513.317 65.5169 514.899 65.5169Z" fill="#91A2FF"/>
<path d="M517.396 69.4143H512.447V94.6559C512.447 97.086 511.53 98.0031 509.078 98.0031C509.032 98.0031 508.877 97.9974 508.723 97.9916C508.568 97.9859 508.413 97.9802 508.367 97.9802V101.878C508.505 101.923 509.284 101.923 509.513 101.923C514.853 101.923 517.396 99.585 517.396 94.6788V69.4143Z" fill="#91A2FF"/>
<path d="M539.05 79.7539H539.005V60.4502H534.055V93.5325H539.005V84.8665L541.067 82.826L549.248 93.5325H555L544.619 79.7998L554.61 69.4143H548.79L539.05 79.7539Z" fill="#91A2FF"/>
<path d="M258.207 155.412H253.607V129.752H253.502L245.582 135.216V130.76L253.565 125.086H258.207V155.412Z" fill="#91A2FF"/>
<path d="M490.861 93.5325H495.811V69.4143H490.861V93.5325Z" fill="#91A2FF"/>
<path d="M280.262 134.018H275.809C275.809 128.512 280.262 124.519 286.354 124.519C292.299 124.519 296.311 128.323 296.311 133.093C296.311 136.582 294.673 138.998 289.253 144.42L282.363 151.335V151.44H296.794V155.412H276.061V152.175L286.753 141.394C290.744 137.317 291.669 135.762 291.669 133.387C291.669 130.592 289.568 128.407 286.354 128.407C282.888 128.407 280.262 130.781 280.262 134.018Z" fill="#91A2FF"/>
<path d="M321.685 141.604H318.009V137.948H321.559C325.025 137.948 327.378 135.909 327.378 133.072C327.378 130.235 325.55 128.386 321.979 128.386C318.618 128.386 316.181 130.172 315.95 133.198H311.539C311.917 127.902 316.055 124.519 321.979 124.519C328.155 124.519 331.957 127.902 331.957 132.421C331.957 136.224 329.29 138.767 325.571 139.545V139.65C330.025 140.049 333.008 142.76 333.008 147.005C333.008 152.343 328.344 155.979 322.021 155.979C315.53 155.979 311.182 152.385 310.888 147.173H315.404C315.635 150.137 318.219 152.049 322.021 152.049C325.718 152.049 328.197 149.948 328.218 147.005C328.239 143.538 325.739 141.604 321.685 141.604Z" fill="#91A2FF"/>
<path fill-rule="evenodd" clip-rule="evenodd" d="M366.868 155.412H362.352V149.38H347.185V145.282C349.79 140.406 353.256 134.963 360.062 125.086H366.868V145.429H371.049V149.38H366.868V155.412ZM362.31 128.743C357.058 136.266 353.97 141.058 351.555 145.366V145.492H362.394V128.743H362.31Z" fill="#91A2FF"/>
<path d="M407.052 145.471C407.052 151.671 402.473 155.979 395.919 155.979C389.869 155.979 385.457 152.28 385.184 146.984H389.68C390.016 149.99 392.579 152.049 395.961 152.049C399.805 152.049 402.452 149.38 402.452 145.597C402.452 141.857 399.784 139.188 396.003 139.188C393.293 139.188 391.129 140.343 389.848 142.571H385.731L387.222 125.086H405.288V129.058H391.024L390.1 138.662H390.205C391.57 136.624 394.091 135.468 397.074 135.468C402.872 135.468 407.052 139.671 407.052 145.471Z" fill="#91A2FF"/>
<path fill-rule="evenodd" clip-rule="evenodd" d="M443.812 145.492C443.812 151.587 439.148 156 432.741 156C426.565 156 420.831 151.65 420.831 140.659C420.831 130.508 425.326 124.498 432.909 124.498C438.329 124.498 442.509 127.671 443.413 132.442H438.686C437.867 129.92 435.766 128.449 432.867 128.449C428.057 128.449 425.41 132.862 425.347 140.406H425.431C426.649 137.653 429.716 135.51 433.834 135.51C439.631 135.51 443.812 139.755 443.812 145.492ZM426.271 145.555C426.271 149.17 429.086 152.028 432.678 152.028C436.27 152.028 439.127 149.212 439.127 145.66C439.127 141.983 436.459 139.335 432.741 139.335C429.023 139.335 426.271 141.962 426.271 145.555Z" fill="#91A2FF"/>
<path d="M464.88 155.412H459.943L473.408 129.163V129.058H457.422V125.086H478.051V129.163L464.88 155.412Z" fill="#91A2FF"/>
<path fill-rule="evenodd" clip-rule="evenodd" d="M515.083 147.215C515.083 152.364 510.315 155.979 503.614 155.979C496.892 155.979 492.144 152.343 492.144 147.215C492.144 143.349 494.875 140.301 498.866 139.44V139.335C495.442 138.368 493.237 135.783 493.237 132.568C493.237 127.923 497.606 124.519 503.614 124.519C509.643 124.519 513.949 127.902 513.949 132.589C513.949 135.762 511.785 138.326 508.361 139.335V139.44C512.352 140.322 515.083 143.37 515.083 147.215ZM497.921 133.009C497.921 135.783 500.253 137.758 503.614 137.758C506.933 137.758 509.307 135.783 509.307 133.009C509.307 130.214 506.954 128.259 503.614 128.259C500.253 128.259 497.921 130.214 497.921 133.009ZM496.997 146.879C496.997 149.969 499.749 152.196 503.614 152.196C507.479 152.196 510.21 149.969 510.21 146.879C510.21 143.748 507.479 141.541 503.614 141.541C499.749 141.541 496.997 143.769 496.997 146.879Z" fill="#91A2FF"/>
<path fill-rule="evenodd" clip-rule="evenodd" d="M551.99 139.818C551.99 149.969 547.495 155.979 539.911 155.979C534.429 155.979 530.185 152.848 529.324 148.14H534.05C534.828 150.704 537.012 152.07 539.953 152.07C544.89 152.07 547.411 147.531 547.453 140.049H547.369C546.15 143.012 542.957 144.988 539.05 144.988C533.336 144.988 528.988 140.827 528.988 135.005C528.988 128.911 533.651 124.498 540.058 124.498C545.919 124.498 551.99 128.491 551.99 139.818ZM533.651 134.837C533.651 138.515 536.382 141.163 540.058 141.163C543.776 141.163 546.549 138.536 546.549 134.942C546.549 131.328 543.734 128.512 540.121 128.512C536.508 128.512 533.651 131.307 533.651 134.837Z" fill="#91A2FF"/>
</svg>
