<svg width="203" height="196" viewBox="0 0 203 196" fill="none" xmlns="http://www.w3.org/2000/svg">
<path d="M159.515 111.791C200.968 64.3697 162.841 -5.58369 90.9116 10.5902C92.68 4.79786 94.4597 -0.00285523 101.843 2.33782e-06C132.952 -0.00285523 170.054 2.60896 185.316 35.2367C185.856 36.3895 185.605 37.5178 185.28 38.9831C184.804 41.1246 184.168 43.986 185.606 48.6959C188.229 55.8569 192.012 60.3462 200.383 64.3582C203.44 65.8213 201.595 69.379 199.568 71.1792L193.034 76.983C192.571 79.6805 193.122 81.6437 195.135 84.0012C194.027 86.6558 190.472 87.5923 188.578 88.0913L188.576 88.0917C188.228 88.1834 187.936 88.2603 187.726 88.3304C188.038 88.5519 188.431 88.7687 188.854 89.0021C190.091 89.684 191.586 90.5087 192.08 92.0138C192.572 93.1581 191.108 94.201 189.744 95.1728C189.06 95.6594 188.402 96.1282 188.027 96.583C187.717 99.4001 188.054 102.171 188.359 104.675C189.043 110.293 189.563 114.561 182.225 114.966C179.931 115.093 176.44 114.399 172.56 113.627C168.325 112.785 163.626 111.851 159.515 111.791Z" fill="url(#paint0_linear)"/>
<path d="M52.1154 103.326C56.2028 90.287 65.5017 77.4994 81.8711 66.0119C49.3735 111.244 99.9323 196.003 99.9323 196C70.3015 178.597 40.631 139.966 52.1154 103.326Z" fill="url(#paint1_linear)"/>
<path d="M145.422 118.707C170.451 94.0895 174.056 66.4225 160.846 42.699C146.449 16.8465 113.054 4.24462 66.7363 18.5896C61.9207 20.0808 61.4241 21.3428 59.9352 25.1259C59.618 25.9319 59.2557 26.8524 58.7971 27.9139C57.9146 30.2568 55.3004 32.0885 52.5879 33.9892C50.2749 35.6099 47.8904 37.2807 46.4469 39.3613C42.9832 44.3564 44.1161 46.9388 45.183 49.3709C45.9295 51.0724 46.6436 52.7003 45.7288 55.0294C44.6668 56.2364 43.6739 57.3842 42.7281 58.4776C32.9735 69.754 28.2268 75.2412 4.31261 80.2532C-4.56896 82.1134 2.35691 89.2174 6.53514 92.7579C10.6594 96.2556 15.6183 99.7304 20.7956 96.5928C30.2654 90.8578 35.3382 87.1033 40.082 83.5923C43.746 80.8805 47.2137 78.3139 52.3594 75.0924C52.3594 75.0924 52.3611 75.0913 52.3644 75.089L52.3668 75.0874C53.3136 74.4468 145.376 12.1593 145.422 118.707Z" fill="url(#paint2_linear)"/>
<path d="M132.26 89.0574C132.26 103.379 120.727 114.99 106.5 114.99C92.2741 114.99 80.7413 103.379 80.7413 89.0574C80.7413 74.7353 92.2741 63.1249 106.5 63.1249C120.727 63.1249 132.26 74.7353 132.26 89.0574Z" fill="url(#paint3_linear)"/>
<defs>
<linearGradient id="paint0_linear" x1="143" y1="-11" x2="22.5" y2="162.5" gradientUnits="userSpaceOnUse">
<stop stop-color="#91A2FF"/>
<stop offset="1" stop-color="#B2C3FA"/>
</linearGradient>
<linearGradient id="paint1_linear" x1="143" y1="-11" x2="22.5" y2="162.5" gradientUnits="userSpaceOnUse">
<stop stop-color="#91A2FF"/>
<stop offset="1" stop-color="#B2C3FA"/>
</linearGradient>
<linearGradient id="paint2_linear" x1="143" y1="-11" x2="22.5" y2="162.5" gradientUnits="userSpaceOnUse">
<stop stop-color="#91A2FF"/>
<stop offset="1" stop-color="#B2C3FA"/>
</linearGradient>
<linearGradient id="paint3_linear" x1="143" y1="-11" x2="22.5" y2="162.5" gradientUnits="userSpaceOnUse">
<stop stop-color="#91A2FF"/>
<stop offset="1" stop-color="#B2C3FA"/>
</linearGradient>
</defs>
</svg>
