<svg width="359" height="183" viewBox="0 0 359 183" fill="none" xmlns="http://www.w3.org/2000/svg">
<path d="M182.04 82.2262C182.04 83.3019 181.173 84.1681 180.097 84.1681C179.022 84.1681 178.155 83.3019 178.155 82.2262C178.155 81.1505 178.992 80.2844 180.097 80.2844C181.203 80.3142 182.04 81.1807 182.04 82.2262ZM174.032 86.1404V86.6185C174.032 86.6185 173.107 85.4228 171.135 85.4228C167.878 85.4228 165.338 87.9028 165.338 91.3385C165.338 94.7447 167.848 97.2542 171.135 97.2542C173.136 97.2542 174.032 96.0293 174.032 96.0293V96.537C174.032 96.7761 174.212 96.9548 174.451 96.9548H176.871V85.7207H174.451C174.212 85.7216 174.032 85.9311 174.032 86.1404ZM174.032 93.3404C173.585 93.9979 172.688 94.5656 171.613 94.5656C169.701 94.5656 168.236 93.3705 168.236 91.3385C168.236 89.3068 169.701 88.1118 171.613 88.1118C172.659 88.1118 173.615 88.7093 174.032 89.3367V93.3404ZM178.663 85.7216H181.531V96.9557H178.663V85.7216ZM221.507 85.4226C219.535 85.4226 218.609 86.6182 218.609 86.6182V80.3142H215.741V96.9557H218.161C218.4 96.9557 218.579 96.7465 218.579 96.5373V96.0296C218.579 96.0296 219.506 97.2545 221.477 97.2545C224.734 97.2545 227.273 94.7456 227.273 91.3394C227.273 87.9333 224.734 85.4226 221.507 85.4226ZM221.029 94.5354C219.923 94.5354 219.057 93.9684 218.609 93.3105V89.3068C219.057 88.7093 220.013 88.0819 221.029 88.0819C222.941 88.0819 224.405 89.277 224.405 91.3087C224.405 93.3404 222.942 94.5354 221.029 94.5354ZM214.247 90.2933V96.9856H211.379V90.6216C211.379 88.7696 210.781 88.0222 209.169 88.0222C208.303 88.0222 207.406 88.4705 206.838 89.1281V96.956H203.97V85.7219H206.24C206.479 85.7219 206.658 85.9311 206.658 86.1404V86.6185C207.495 85.7518 208.6 85.4228 209.706 85.4228C210.961 85.4228 212.006 85.7819 212.843 86.4988C213.858 87.3355 214.247 88.4108 214.247 90.2933ZM197.008 85.4226C195.036 85.4226 194.11 86.6182 194.11 86.6182V80.3142H191.242V96.9557H193.662C193.901 96.9557 194.08 96.7465 194.08 96.5373V96.0296C194.08 96.0296 195.006 97.2545 196.978 97.2545C200.235 97.2545 202.774 94.7456 202.774 91.3394C202.804 87.933 200.265 85.4226 197.008 85.4226ZM196.53 94.5354C195.424 94.5354 194.558 93.9684 194.11 93.3105V89.3068C194.558 88.7093 195.514 88.0819 196.53 88.0819C198.442 88.0819 199.906 89.277 199.906 91.3087C199.906 93.3404 198.442 94.5354 196.53 94.5354ZM188.762 85.4226C189.628 85.4226 190.076 85.5724 190.076 85.5724V88.2312C190.076 88.2312 187.686 87.4244 186.193 89.1278V96.9853H183.324V85.7216H185.744C185.983 85.7216 186.162 85.9308 186.162 86.1401V86.6182C186.701 85.9905 187.866 85.4226 188.762 85.4226ZM158.975 95.9398C158.826 95.5813 158.676 95.193 158.527 94.8641C158.287 94.3265 158.048 93.8182 157.84 93.3404L157.81 93.3105C155.748 88.8287 153.538 84.2878 151.207 79.8065L151.117 79.6268C150.872 79.162 150.633 78.6938 150.401 78.2226C150.102 77.6844 149.803 77.1173 149.325 76.5792C148.369 75.3841 146.995 74.7266 145.531 74.7266C144.037 74.7266 142.692 75.3841 141.707 76.5192C141.259 77.0567 140.93 77.6244 140.631 78.1626C140.398 78.6335 140.159 79.1017 139.915 79.5669L139.825 79.7465C137.524 84.2278 135.283 88.769 133.222 93.2505L133.192 93.3099C132.983 93.7887 132.743 94.2964 132.504 94.8336C132.355 95.1625 132.206 95.521 132.057 95.9093C131.668 97.0145 131.548 98.0604 131.698 99.1364C132.027 101.377 133.52 103.259 135.582 104.096C136.359 104.425 137.166 104.574 138.002 104.574C138.241 104.574 138.54 104.544 138.779 104.514C139.765 104.395 140.781 104.066 141.767 103.499C142.992 102.811 144.157 101.826 145.472 100.392C146.786 101.826 147.981 102.811 149.176 103.499C150.163 104.066 151.178 104.395 152.164 104.514C152.403 104.545 152.702 104.574 152.941 104.574C153.778 104.574 154.614 104.425 155.361 104.096C157.453 103.259 158.916 101.347 159.245 99.1364C159.483 98.0908 159.363 97.0456 158.975 95.9398ZM145.501 97.4933C143.887 95.4616 142.841 93.5496 142.483 91.9367C142.334 91.2493 142.304 90.6518 142.394 90.1139C142.453 89.6358 142.633 89.2173 142.872 88.8588C143.439 88.0527 144.395 87.5444 145.501 87.5444C146.607 87.5444 147.593 88.0225 148.131 88.8588C148.37 89.2173 148.549 89.6361 148.609 90.1139C148.698 90.6521 148.668 91.2791 148.519 91.9367C148.159 93.5198 147.114 95.4321 145.501 97.4933ZM157.421 98.8976C157.212 100.451 156.166 101.796 154.703 102.394C153.986 102.692 153.208 102.782 152.432 102.692C151.685 102.602 150.938 102.363 150.162 101.915C149.086 101.317 148.011 100.392 146.755 99.017C148.727 96.5973 149.922 94.3859 150.371 92.4145C150.58 91.4881 150.61 90.6518 150.52 89.8745C150.401 89.1278 150.131 88.4404 149.713 87.8428C148.787 86.4979 147.233 85.7216 145.5 85.7216C143.768 85.7216 142.214 86.5284 141.288 87.8428C140.87 88.4404 140.601 89.1278 140.481 89.8745C140.362 90.6518 140.391 91.5179 140.631 92.4145C141.079 94.3859 142.303 96.6268 144.245 99.0468C143.02 100.421 141.915 101.348 140.839 101.945C140.062 102.394 139.316 102.633 138.569 102.722C137.763 102.812 136.985 102.692 136.298 102.423C134.835 101.826 133.789 100.481 133.58 98.9274C133.49 98.1807 133.55 97.4339 133.849 96.5973C133.938 96.2982 134.088 95.9998 134.237 95.6413C134.446 95.1631 134.685 94.6548 134.924 94.1471L134.954 94.0877C137.015 89.6358 139.226 85.0945 141.527 80.673L141.616 80.4933C141.856 80.0456 142.095 79.5675 142.334 79.1192C142.573 78.641 142.841 78.1927 143.17 77.8041C143.798 77.0878 144.634 76.6989 145.56 76.6989C146.487 76.6989 147.323 77.0878 147.951 77.8041C148.279 78.1936 148.548 78.6419 148.787 79.1192C149.027 79.5675 149.266 80.0456 149.504 80.4933L149.594 80.673C151.859 85.1129 154.041 89.5952 156.137 94.1176V94.1474C156.376 94.6262 156.585 95.1634 156.824 95.6422C156.974 96 157.123 96.2985 157.213 96.5976C157.451 97.3736 157.541 98.121 157.421 98.8976Z" fill="#40403F" fill-opacity="0.85"/>
<path d="M-4.55726 85.5047C-8.62829 85.5047 -11.8092 88.5939 -11.8092 92.7295C-11.8092 96.8652 -8.70868 99.928 -4.55726 99.928C-0.405867 99.928 2.7486 96.8123 2.7486 92.7031C2.7486 88.6204 -0.351942 85.5047 -4.55726 85.5047ZM-4.5298 96.9475C-6.84812 96.9475 -8.54694 95.1477 -8.54694 92.7306C-8.54694 90.286 -6.87558 88.4872 -4.55726 88.4872C-2.2115 88.4872 -0.513687 90.3135 -0.513687 92.7306C-0.513687 95.1477 -2.2115 96.9475 -4.5298 96.9475ZM3.6377 88.6478H5.65985V99.6605H8.89471V85.7731H3.6377V88.6478ZM-19.9503 88.4861C-18.2515 88.4861 -16.9036 89.5335 -16.392 91.0913H-12.9679C-13.5884 87.7611 -16.338 85.5047 -19.9228 85.5047C-23.9939 85.5047 -27.1748 88.5939 -27.1748 92.7306C-27.1748 96.8672 -24.0742 99.929 -19.9228 99.929C-16.4184 99.929 -13.6149 97.6726 -12.9944 94.3148H-16.392C-16.8772 95.8727 -18.2251 96.9475 -19.9238 96.9475C-22.2696 96.9475 -23.9135 95.1477 -23.9135 92.7306C-23.9125 90.286 -22.2951 88.4861 -19.9503 88.4861ZM65.1019 91.3873L62.7297 91.0385C61.5977 90.8778 60.7888 90.5016 60.7888 89.6149C60.7888 88.6478 61.8407 88.1648 63.2689 88.1648C64.8326 88.1648 65.8303 88.8359 66.0459 89.9372H69.1731C68.8222 87.1439 66.6655 85.5057 63.3502 85.5057C59.9261 85.5057 57.6619 87.2517 57.6619 89.7227C57.6619 92.0859 59.1448 93.4566 62.1366 93.8857L64.5088 94.2345C65.6686 94.3952 66.3155 94.8528 66.3155 95.712C66.3155 96.8133 65.1835 97.2699 63.6199 97.2699C61.7053 97.2699 60.6271 96.491 60.4654 95.3094H57.2843C57.5815 98.0224 59.7106 99.929 63.5923 99.929C67.1244 99.929 69.469 98.3173 69.469 95.5503C69.469 93.0794 67.7712 91.79 65.1019 91.3873ZM7.27728 80.0522C6.09119 80.0522 5.20131 80.9115 5.20131 82.0931C5.20131 83.2747 6.09025 84.1339 7.27728 84.1339C8.46337 84.1339 9.35357 83.2747 9.35357 82.0931C9.35357 80.9115 8.46337 80.0522 7.27728 80.0522ZM54.7504 90.528C54.7504 87.5201 52.9175 85.5057 49.0355 85.5057C45.3693 85.5057 43.3205 87.3594 42.9158 90.2067H46.124C46.2858 89.1054 47.1484 88.1923 48.9817 88.1923C50.6266 88.1923 51.4352 88.9173 51.4352 89.804C51.4352 90.9592 49.952 91.2541 48.119 91.4422C45.6389 91.7106 42.5658 92.5699 42.5658 95.7934C42.5658 98.2918 44.4262 99.9026 47.3918 99.9026C49.7099 99.9026 51.1656 98.9355 51.8941 97.4041C52.002 98.7738 53.0264 99.6605 54.4555 99.6605H56.3425V96.7869H54.7514V90.528H54.7504ZM51.5694 94.02C51.5694 95.8737 49.952 97.2434 47.9836 97.2434C46.7703 97.2434 45.7459 96.733 45.7459 95.6591C45.7459 94.2894 47.3905 93.9132 48.9004 93.7525C50.3561 93.6183 51.1646 93.2959 51.5694 92.6777V94.02ZM34.3973 85.5047C32.5906 85.5047 31.0811 86.2572 30.0029 87.5191V79.918H26.7681V99.6605H29.9488V97.8343C31.027 99.1501 32.5644 99.929 34.3973 99.929C38.279 99.929 41.218 96.8672 41.218 92.7306C41.218 88.5939 38.2252 85.5047 34.3973 85.5047ZM33.9122 96.9475C31.5938 96.9475 29.895 95.1477 29.895 92.7306C29.895 90.3135 31.6204 88.4872 33.9384 88.4872C36.2843 88.4872 37.928 90.287 37.928 92.7306C37.928 95.1477 36.2302 96.9475 33.9122 96.9475ZM19.0306 85.5047C16.9281 85.5047 15.5527 86.3639 14.7442 87.573V85.7731H11.5356V99.6595H14.7704V92.1123C14.7704 89.9901 16.1182 88.4861 18.1132 88.4861C19.9737 88.4861 21.1322 89.802 21.1322 91.7096V99.6605H24.3671V91.4686C24.3684 87.9757 22.5626 85.5047 19.0306 85.5047ZM84.8895 92.274C84.8895 88.299 81.978 85.5057 78.0688 85.5057C73.9175 85.5057 70.8709 88.6214 70.8709 92.7306C70.8709 97.0553 74.133 99.929 78.1229 99.929C81.4929 99.929 84.1347 97.941 84.8082 95.1212H81.4379C80.9527 96.3567 79.7666 97.0553 78.1758 97.0553C76.0995 97.0553 74.5359 95.7659 74.1859 93.5095H84.8885V92.274H84.8895ZM74.3751 91.1992C74.8881 89.2651 76.3435 88.3255 78.015 88.3255C79.848 88.3255 81.2499 89.3728 81.5733 91.1992H74.3751Z" fill="#40403F"/>
<g clip-path="url(#clip0_332_16425)">
<path d="M295.193 86.6398C295.193 85.9808 295.734 85.7271 296.63 85.7271C297.914 85.7271 299.537 86.116 300.821 86.8089V82.837C299.418 82.2793 298.033 82.0596 296.63 82.0596C293.199 82.0596 290.917 83.8512 290.917 86.8428C290.917 91.5074 297.339 90.7639 297.339 92.7752C297.339 93.5525 296.664 93.8061 295.717 93.8061C294.314 93.8061 292.523 93.2314 291.103 92.454V96.4765C292.675 97.1526 294.263 97.4398 295.717 97.4398C299.232 97.4398 301.649 95.6991 301.649 92.6737C301.632 87.6371 295.193 88.5328 295.193 86.6398ZM306.618 78.6793L302.494 79.5581L302.478 93.0962C302.478 95.5977 304.354 97.4398 306.855 97.4398C308.241 97.4398 309.255 97.1863 309.813 96.8821V93.4511C309.272 93.6709 306.601 94.4483 306.601 91.9469V85.9469H309.813V82.3469H306.601L306.618 78.6793ZM315.069 83.5976L314.799 82.3469H311.148V97.1356H315.373V87.1132C316.37 85.8118 318.061 86.0484 318.585 86.2342V82.3469C318.044 82.1441 316.066 81.7722 315.069 83.5976ZM319.616 82.3469H323.858V97.1356H319.616V82.3469ZM319.616 81.0624L323.858 80.1497V76.7188L319.616 77.6146V81.0624ZM332.68 82.0596C331.024 82.0596 329.959 82.837 329.368 83.378L329.148 82.33H325.43V102.037L329.655 101.141L329.672 96.3582C330.28 96.7976 331.176 97.423 332.663 97.423C335.689 97.423 338.444 94.9891 338.444 89.6315C338.427 84.73 335.638 82.0596 332.68 82.0596ZM331.666 93.7046C330.669 93.7046 330.077 93.3498 329.672 92.9103L329.655 86.6398C330.094 86.1497 330.703 85.8118 331.666 85.8118C333.204 85.8118 334.269 87.5356 334.269 89.7497C334.269 92.0145 333.221 93.7046 331.666 93.7046ZM351.762 89.8004C351.762 85.4737 349.666 82.0596 345.661 82.0596C341.638 82.0596 339.204 85.4738 339.204 89.7667C339.204 94.8539 342.078 97.423 346.201 97.423C348.213 97.423 349.734 96.9666 350.883 96.3244V92.9441C349.734 93.5188 348.416 93.8737 346.742 93.8737C345.103 93.8737 343.649 93.299 343.463 91.3047H351.728C351.728 91.0848 351.762 90.206 351.762 89.8004ZM343.413 88.1948C343.413 86.285 344.579 85.4905 345.644 85.4905C346.675 85.4905 347.773 86.285 347.773 88.1948H343.413Z" fill="#40403F" fill-opacity="0.85"/>
</g>
<g clip-path="url(#clip1_332_16425)">
<path d="M73.9094 33.5744L72.3673 33.4327C71.3563 33.3445 70.9491 32.9899 70.9491 32.3691C70.9491 31.6422 71.5692 31.1637 72.7745 31.1637C73.9094 31.1637 74.4768 31.6592 74.5651 32.4573H78.1818C77.9511 30.1001 76.2852 28.4334 72.8814 28.4334C69.3358 28.4334 67.385 30.2418 67.385 32.6346C67.385 34.8687 68.6082 36.0919 71.6404 36.3404L73.1655 36.4642C74.3522 36.5532 74.778 36.9604 74.778 37.6695C74.778 38.4142 74.1579 38.9639 72.8814 38.9639C71.6931 38.9639 70.9847 38.4321 70.8609 37.493H67.0483C67.385 40.0631 69.1934 41.7647 72.8636 41.7647C76.4269 41.7647 78.3947 39.9393 78.3947 37.4745C78.3947 35.0816 77.0826 33.8585 73.9094 33.5744ZM61.4289 28.4334C59.1599 28.4334 57.8121 29.6209 57.1743 32.0501H56.9436V28.6463H53.3624V41.5526H57.1743V34.0358C57.1743 32.3156 58.0606 31.3766 59.6561 31.3766C61.2338 31.3766 62.0141 32.352 62.0141 34.018V41.5526H65.8252V33.3445C65.8252 30.2239 64.1948 28.4334 61.4289 28.4334ZM49.6574 23.6113C48.3631 23.6113 47.3877 24.4629 47.3877 25.7564C47.3877 27.0508 48.3453 27.9016 49.6396 27.9016C50.934 27.9016 51.8908 27.05 51.8908 25.7564C51.8908 24.4799 50.934 23.6113 49.6574 23.6113ZM51.5541 28.6463H47.7422V41.5526H51.5541V28.6463ZM84.3865 25.9159H81.958C81.8868 27.9906 81.0004 28.894 79.0148 29.0535V31.6778H80.5754V37.3506C80.5754 40.2048 82.2058 41.7647 85.4501 41.7647C86.0602 41.7647 86.6678 41.6873 87.2585 41.5348V38.4669C86.9541 38.5174 86.6458 38.541 86.3373 38.5373C84.9717 38.5373 84.3865 38.0233 84.3865 36.5873V31.6778H87.7377V28.6463H84.3865V25.9159ZM144.84 31.6778V28.6463H141.489V25.9159H139.096C139.042 27.3519 138.617 28.1849 137.678 28.6463V37.3506C137.678 40.2048 139.309 41.7647 142.553 41.7647C143.163 41.7647 143.771 41.6873 144.361 41.5348V38.4669C144.057 38.5174 143.748 38.541 143.439 38.5373C142.074 38.5373 141.489 38.0233 141.489 36.5873V31.6778H144.84ZM132.359 32.2452H132.129V28.6455H128.601V41.5526H132.413V34.5676C132.413 32.6346 133.281 31.8194 135.267 31.8194C135.604 31.8194 135.976 31.855 136.49 31.9433V28.6107C136.143 28.4888 135.777 28.4288 135.409 28.4334C133.866 28.4334 132.802 29.3198 132.359 32.2452ZM108.018 38.5033C106.228 38.5033 104.933 37.315 104.933 35.0104C104.933 32.9543 106.139 31.6778 107.983 31.6778C109.56 31.6778 110.465 32.5641 110.731 33.9824H114.595C114.223 30.6668 111.848 28.4334 108.036 28.4334C103.852 28.4334 101.105 31.2698 101.105 35.1528C101.105 39.1768 103.746 41.7647 107.983 41.7647C111.83 41.7647 114.33 39.6203 114.684 36.1445H110.819C110.607 37.5635 109.632 38.5033 108.018 38.5033ZM94.3503 28.4334C91.0347 28.4334 89.032 30.0645 88.6767 32.9891H92.3291C92.4529 31.9789 93.1094 31.4471 94.2613 31.4471C95.431 31.4471 95.9628 31.9789 95.9628 32.7414C95.9628 33.3793 95.5556 33.7168 94.5098 33.9111L92.7719 34.2308C89.7055 34.7975 88.535 36.0562 88.535 38.0597C88.535 40.3465 90.1483 41.7833 92.3825 41.7833C94.2079 41.7833 95.3962 40.9317 95.9458 38.8044H96.1757V41.5526H99.7754V33.1316C99.7754 30.2061 98.0197 28.4334 94.3503 28.4334ZM93.9245 39.1768C92.8965 39.1768 92.3113 38.6271 92.3113 37.8112C92.3113 37.1377 92.7192 36.6771 93.7295 36.4464L94.4386 36.2869C95.0501 36.1453 95.5247 35.9564 95.9636 35.5771V36.9426C95.9636 38.5203 95.1299 39.1768 93.9245 39.1768ZM121.439 28.4334C118.123 28.4334 116.12 30.0645 115.766 32.9891H119.417C119.542 31.9789 120.198 31.4471 121.35 31.4471C122.52 31.4471 123.052 31.9789 123.052 32.7414C123.052 33.3793 122.644 33.7168 121.598 33.9111L119.861 34.2308C116.794 34.7975 115.623 36.0562 115.623 38.0597C115.623 40.3465 117.237 41.7833 119.471 41.7833C121.297 41.7833 122.485 40.9317 123.034 38.8044H123.265V41.5526H126.864V33.1316C126.864 30.2061 125.108 28.4334 121.439 28.4334ZM121.013 39.1768C119.985 39.1768 119.4 38.6271 119.4 37.8112C119.4 37.1377 119.808 36.6771 120.818 36.4464L121.527 36.2869C122.139 36.1453 122.614 35.9564 123.052 35.5771V36.9426C123.052 38.5203 122.219 39.1768 121.013 39.1768Z" fill="#40403F"/>
<path d="M41.3262 26.7003C40.5428 26.7003 39.9839 27.0417 39.4683 27.7833L37.982 29.9176V23.8252H34.4365V29.9176L32.9501 27.7833C32.4353 27.0417 31.8764 26.7003 31.0922 26.7003C29.9093 26.7003 29.1221 27.5735 29.1182 28.6496C29.1151 29.5708 29.5494 30.1715 30.4652 30.7614L36.2092 34.4617L41.9533 30.7614C42.8691 30.1715 43.3033 29.5708 43.3002 28.6496C43.2972 27.5735 42.5091 26.7003 41.3262 26.7003Z" fill="#40403F"/>
<path d="M36.2096 35.3477C39.6235 35.3477 42.4219 37.8961 42.4142 41.5531H30.0049C29.9979 37.8976 32.7956 35.3477 36.2096 35.3477Z" fill="#40403F"/>
</g>
<g clip-path="url(#clip2_332_16425)">
<path d="M230.757 29.1362V36.4163H232.572C233.035 36.4094 233.493 36.3097 233.917 36.1231C234.341 35.9364 234.723 35.6666 235.041 35.3296C235.693 34.6388 236.05 33.7204 236.036 32.7702C236.05 32.2983 235.97 31.8282 235.802 31.3871C235.633 30.9459 235.379 30.5424 235.055 30.1997C234.735 29.8623 234.35 29.5937 233.924 29.4107C233.497 29.2276 233.037 29.1339 232.572 29.1352H230.758L230.757 29.1362ZM232.572 26.8536C235.955 26.8536 238.515 29.475 238.515 32.7702C238.515 36.0655 235.955 38.7017 232.572 38.7017H228.569C228.531 38.7012 228.493 38.6932 228.458 38.6782C228.423 38.6631 228.391 38.6413 228.364 38.614C228.338 38.5866 228.317 38.5543 228.303 38.5189C228.288 38.4834 228.281 38.4455 228.282 38.4073V27.1599C228.282 26.997 228.41 26.8647 228.569 26.8647L232.572 26.8536ZM247.235 36.6699C248.772 36.6746 250.159 35.7295 250.751 34.2753C251.04 33.5648 251.118 32.7855 250.974 32.0319C250.829 31.2783 250.47 30.5827 249.938 30.0294C249.416 29.4852 248.741 29.1123 248.002 28.9599C247.263 28.8076 246.495 28.8829 245.8 29.176C244.38 29.7758 243.453 31.1948 243.45 32.7702C243.45 34.9177 245.141 36.6597 247.235 36.6699ZM247.236 26.5851C250.797 26.5851 253.519 29.3916 253.519 32.7702C253.519 36.1488 250.797 38.9553 247.235 38.9553C243.674 38.9553 240.975 36.1627 240.975 32.7702C240.975 29.3778 243.698 26.5851 247.236 26.5851ZM262.169 36.6699C264.264 36.6644 265.959 34.9205 265.957 32.773C265.954 30.6237 264.256 28.8835 262.162 28.8825C260.066 28.8825 258.367 30.6218 258.364 32.7702C258.364 33.8051 258.765 34.7974 259.479 35.5286C259.828 35.889 260.246 36.1757 260.708 36.3717C261.17 36.5677 261.667 36.6691 262.169 36.6699ZM262.168 26.5851C265.718 26.5851 268.441 29.3778 268.441 32.7702C268.441 36.1627 265.707 38.9553 262.168 38.9553C258.631 38.9553 255.885 36.1627 255.885 32.7702C255.885 29.3778 258.608 26.5851 262.168 26.5851ZM276.743 29.1362H274.184V32.2695H276.743C276.946 32.2784 277.148 32.2458 277.337 32.1737C277.526 32.1016 277.698 31.9915 277.843 31.8501C278.139 31.5632 278.308 31.1652 278.312 30.7468C278.319 30.5345 278.283 30.3229 278.207 30.1247C278.131 29.9266 278.015 29.7458 277.867 29.5934C277.722 29.4435 277.547 29.3255 277.353 29.2473C277.16 29.169 276.952 29.1321 276.743 29.139V29.1362ZM271.708 27.1599C271.708 26.997 271.838 26.8647 271.996 26.8647H276.815C279.112 26.8647 280.775 28.591 280.775 30.7588C280.792 32.225 279.992 33.5718 278.713 34.2281L280.936 38.2574C280.966 38.3037 280.984 38.3576 280.986 38.4132C280.988 38.4687 280.974 38.5237 280.947 38.5721C280.92 38.6197 280.88 38.6586 280.832 38.6842C280.784 38.7098 280.729 38.721 280.675 38.7165H278.724C278.67 38.7173 278.617 38.7027 278.571 38.6746C278.525 38.6464 278.487 38.6057 278.463 38.5573L276.321 34.5697H274.175V38.3981C274.175 38.4363 274.169 38.4743 274.154 38.5099C274.14 38.5454 274.119 38.5779 274.093 38.6053C274.066 38.6327 274.034 38.6546 273.999 38.6697C273.964 38.6849 273.926 38.6929 273.888 38.6934H272.009C271.971 38.6929 271.933 38.6849 271.898 38.6697C271.863 38.6546 271.831 38.6327 271.804 38.6053C271.777 38.5779 271.756 38.5454 271.742 38.5099C271.728 38.4743 271.721 38.4363 271.722 38.3981L271.709 27.1609L271.708 27.1599ZM287.228 29.1917V36.4728H289.042C289.506 36.4665 289.963 36.3674 290.387 36.1814C290.811 35.9954 291.194 35.7262 291.512 35.3898C292.165 34.6997 292.523 33.7821 292.509 32.8322C292.524 32.3597 292.445 31.8889 292.277 31.4469C292.109 31.005 291.855 30.6006 291.531 30.2571C291.211 29.9191 290.825 29.6502 290.397 29.4671C289.969 29.284 289.509 29.1906 289.043 29.1926L287.228 29.1917ZM289.042 26.9063C292.426 26.9063 294.985 29.5305 294.985 32.8322C294.985 36.134 292.426 38.7582 289.042 38.7582H285.051C285.013 38.7577 284.975 38.7497 284.94 38.7345C284.905 38.7194 284.873 38.6975 284.846 38.6701C284.82 38.6427 284.799 38.6102 284.785 38.5747C284.77 38.5391 284.764 38.5011 284.764 38.4629V27.2164C284.764 27.0526 284.893 26.9202 285.051 26.9202L289.042 26.9063ZM302.535 29.8017L301.13 33.6949H303.936L302.535 29.8017ZM300.306 35.8952L299.387 38.4869C299.369 38.5479 299.331 38.601 299.279 38.6379C299.227 38.6748 299.164 38.6933 299.1 38.6906H297.107C297.056 38.6953 297.005 38.6863 296.959 38.6645C296.912 38.6427 296.873 38.6088 296.845 38.5666C296.815 38.5238 296.798 38.4742 296.793 38.4227C296.789 38.3711 296.798 38.3193 296.82 38.2722L301.128 27.0359C301.148 26.9767 301.187 26.9256 301.238 26.8905C301.29 26.8554 301.352 26.8382 301.414 26.8415H303.645C303.708 26.838 303.77 26.8551 303.822 26.8902C303.874 26.9253 303.913 26.9765 303.933 27.0359L308.241 38.2722C308.262 38.3194 308.271 38.3712 308.267 38.4228C308.262 38.4743 308.244 38.5239 308.215 38.5666C308.186 38.6087 308.147 38.6423 308.101 38.664C308.055 38.6856 308.004 38.6945 307.953 38.6897H305.96C305.897 38.6924 305.834 38.6739 305.782 38.637C305.73 38.6001 305.692 38.547 305.673 38.486L304.754 35.8942H300.306V35.8952ZM310.552 30.0544C310.552 28.1939 312.12 26.5851 314.596 26.5851C315.93 26.5553 317.221 27.0541 318.188 27.9726C318.217 28.0005 318.241 28.0341 318.257 28.0713C318.273 28.1086 318.281 28.1487 318.281 28.1892C318.281 28.2298 318.273 28.2699 318.257 28.3072C318.241 28.3444 318.217 28.378 318.188 28.4058L317.084 29.5305C317.057 29.5578 317.026 29.5795 316.991 29.5944C316.956 29.6092 316.918 29.6169 316.88 29.6169C316.842 29.6169 316.804 29.6092 316.769 29.5944C316.734 29.5795 316.703 29.5578 316.676 29.5305C316.156 29.043 315.473 28.7668 314.76 28.7557C313.77 28.7557 313.038 29.3454 313.038 30.0257C313.038 32.225 318.89 30.956 318.89 35.188C318.888 37.3327 317.308 38.9553 314.514 38.9553C313.738 38.9633 312.969 38.8151 312.252 38.5197C311.534 38.2242 310.884 37.7875 310.339 37.2355C310.309 37.2076 310.286 37.1741 310.27 37.1368C310.253 37.0996 310.245 37.0594 310.245 37.0189C310.245 36.9783 310.253 36.9382 310.27 36.901C310.286 36.8637 310.309 36.8301 310.339 36.8023L311.407 35.7063C311.433 35.6777 311.466 35.6548 311.501 35.6392C311.537 35.6236 311.576 35.6155 311.615 35.6155C311.654 35.6155 311.693 35.6236 311.729 35.6392C311.764 35.6548 311.797 35.6777 311.823 35.7063C312.496 36.3727 313.401 36.7512 314.347 36.7616C315.585 36.7616 316.401 36.084 316.401 35.2352C316.401 33.035 310.551 34.3049 310.551 30.072M329.504 27.1451V31.5919H324.55V27.1451C324.55 27.107 324.543 27.0691 324.529 27.0336C324.515 26.9982 324.494 26.9659 324.467 26.9385C324.441 26.9112 324.409 26.8894 324.374 26.8743C324.339 26.8593 324.301 26.8513 324.263 26.8508H322.384C322.346 26.8513 322.308 26.8593 322.273 26.8743C322.238 26.8894 322.206 26.9112 322.179 26.9385C322.153 26.9659 322.132 26.9982 322.118 27.0336C322.103 27.0691 322.096 27.107 322.097 27.1451V38.3796C322.097 38.5425 322.226 38.6749 322.384 38.6749H324.263C324.42 38.6749 324.55 38.5425 324.55 38.3796V33.8625H329.5V38.3796C329.5 38.5425 329.63 38.6749 329.787 38.6749H331.666C331.824 38.6749 331.953 38.5425 331.953 38.3796V27.1451C331.954 27.107 331.947 27.0691 331.932 27.0336C331.918 26.9982 331.897 26.9659 331.871 26.9385C331.844 26.9112 331.812 26.8894 331.777 26.8743C331.742 26.8593 331.704 26.8513 331.666 26.8508H329.787C329.711 26.8527 329.638 26.8847 329.585 26.9398C329.532 26.9949 329.503 27.0687 329.504 27.1451ZM217.734 28.3503C216.431 25.9344 213.881 24.4302 211.108 24.4395H190.125C189.984 24.4401 189.845 24.4823 189.727 24.561C189.609 24.6397 189.517 24.7513 189.462 24.8819C189.408 25.0118 189.394 25.1548 189.422 25.2926C189.45 25.4305 189.518 25.5569 189.618 25.6558L194.189 30.1914C194.592 30.5931 195.142 30.8181 195.714 30.8181H210.506C211.56 30.8069 212.422 31.6419 212.433 32.6814C212.444 33.7208 211.599 34.5724 210.545 34.5826H200.347C200.205 34.5827 200.067 34.6245 199.948 34.7028C199.83 34.7812 199.738 34.8926 199.682 35.0232C199.628 35.1532 199.613 35.2965 199.641 35.4347C199.669 35.573 199.737 35.6998 199.837 35.7989L204.411 40.3382C204.817 40.7397 205.365 40.9646 205.936 40.964H210.548C216.549 40.964 221.087 34.6326 217.734 28.3475" fill="#40403F"/>
</g>
<path d="M22.8975 141.094H28.4756C32.0318 141.094 34.9695 143.152 34.9695 147.85V148.837C34.9695 153.571 32.2221 155.7 28.5826 155.7H22.8975V141.094ZM26.0136 143.747V153.036H28.4042C30.4261 153.036 31.782 151.715 31.782 148.778V148.005C31.782 145.067 30.3548 143.747 28.2972 143.747H26.0136ZM36.6227 143.889H39.1204L39.5248 146.637C40.0005 144.769 41.2137 143.77 43.414 143.77H44.1871V146.922H42.9026C40.3692 146.922 39.7508 147.802 39.7508 150.3V155.735H36.6703V143.889H36.6227ZM44.8056 150.05V149.717C44.8056 145.757 47.3389 143.592 50.7881 143.592C54.3086 143.592 56.7706 145.757 56.7706 149.717V150.05C56.7706 153.939 54.38 156.033 50.7881 156.033C46.9702 155.997 44.8056 153.951 44.8056 150.05ZM53.6188 150.015V149.717C53.6188 147.517 52.5127 146.197 50.7524 146.197C49.0278 146.197 47.886 147.41 47.886 149.717V150.015C47.886 152.143 48.9921 153.357 50.7524 153.357C52.5127 153.321 53.6188 152.143 53.6188 150.015ZM58.3881 143.889H60.9572L61.2545 146.125C61.873 144.627 63.1932 143.592 65.1437 143.592C68.1528 143.592 70.1391 145.757 70.1391 149.765V150.098C70.1391 153.987 67.9387 156.045 65.1437 156.045C63.2764 156.045 61.9919 155.2 61.3615 153.844V159.827H58.3525L58.3881 143.889ZM67.011 150.015V149.753C67.011 147.398 65.7979 146.232 64.1803 146.232C62.4558 146.232 61.314 147.553 61.314 149.753V149.979C61.314 152.072 62.4201 153.392 64.1447 153.392C65.9168 153.357 67.011 152.227 67.011 150.015ZM74.6943 153.547L74.4327 155.712H71.7923V139.929H74.8014V145.983C75.4674 144.436 76.7876 143.592 78.6549 143.592C81.4856 143.628 83.5789 145.578 83.5789 149.503V149.872C83.5789 153.797 81.5927 156.045 78.5836 156.045C76.5973 155.997 75.3128 155.081 74.6943 153.547ZM80.4152 149.872V149.574C80.4152 147.41 79.2377 146.197 77.5845 146.197C75.8956 146.197 74.7181 147.553 74.7181 149.61V149.872C74.7181 152.072 75.8599 153.357 77.5488 153.357C79.3567 153.357 80.4152 152.227 80.4152 149.872ZM84.8991 150.05V149.717C84.8991 145.757 87.4324 143.592 90.8816 143.592C94.4021 143.592 96.8641 145.757 96.8641 149.717V150.05C96.8641 153.939 94.4378 156.033 90.8816 156.033C87.0637 155.997 84.8991 153.951 84.8991 150.05ZM93.7361 150.015V149.717C93.7361 147.517 92.63 146.197 90.8697 146.197C89.1451 146.197 88.0033 147.41 88.0033 149.717V150.015C88.0033 152.143 89.1095 153.357 90.8697 153.357C92.6419 153.321 93.7361 152.143 93.7361 150.015ZM100.896 149.574L96.7452 143.889H100.301L102.692 147.446L105.118 143.889H108.639L104.428 149.539L108.865 155.712H105.38L102.668 151.787L100.028 155.712H96.3884L100.896 149.574Z" fill="#40403F"/>
<path d="M3.72633 141.093L-3.17199 145.494L3.72633 149.894L-3.17199 154.295L-10.0703 149.871L-3.17199 145.47L-10.0703 141.093L-3.17199 136.692L3.72633 141.093ZM-3.20767 155.71L3.69065 151.31L10.589 155.71L3.69065 160.111L-3.20767 155.71ZM3.72633 149.871L10.6247 145.47L3.72633 141.093L10.589 136.692L17.4873 141.093L10.589 145.494L17.4873 149.894L10.589 154.295L3.72633 149.871Z" fill="#40403F"/>
<path d="M325.412 140.87C324.022 140.87 322.934 141.368 321.937 142.404V141.106H319.196V153.839H322.147V146.456C322.147 144.765 323.157 143.702 324.678 143.702C324.953 143.702 325.202 143.742 325.373 143.768L327.418 141.08C326.618 140.936 325.937 140.87 325.412 140.87ZM350.851 141.106H347.455L344.308 145.263L341.161 141.106H337.765L342.564 147.518L337.765 153.839H341.24L344.295 149.813L347.35 153.839H350.851L346.013 147.531L350.851 141.106ZM288.905 138.247C287.895 139.598 287.659 140.044 286.689 140.044H272.173V157.301H277.864C279.149 157.301 280.395 156.684 281.195 155.648C282.231 154.272 282.375 153.852 283.385 153.852H297.927V136.595H292.197C290.911 136.595 289.666 137.211 288.905 138.247ZM293.416 149.394H287.345C286.02 149.394 284.814 149.944 284.014 151.02C282.978 152.396 282.768 152.816 281.798 152.816H276.644V144.542H282.716C284.04 144.542 285.247 143.925 286.047 142.889C287.082 141.539 287.371 141.132 288.302 141.132H293.403V149.394H293.416ZM315.21 145.145C316.495 144.424 317.4 143.139 317.4 141.447C317.4 138.969 315.485 136.582 312.719 136.582H304.392V153.839H312.705C315.721 153.839 317.806 151.701 317.806 149.013C317.806 147.427 317.085 146.05 315.21 145.145ZM307.329 139.283H312.469C313.754 139.283 314.515 140.49 314.515 141.565C314.515 142.876 313.374 143.768 312.299 143.768H307.329V139.283ZM312.286 151.151H307.329V146.456H312.469C313.794 146.456 314.869 147.597 314.869 148.764C314.856 150.075 313.505 151.151 312.286 151.151ZM334.814 150.18C334.329 150.941 333.385 151.387 332.349 151.387C330.723 151.387 329.359 150.285 329.359 148.594H338.171C338.315 148.082 338.342 147.833 338.342 147.387C338.342 143.519 335.942 140.87 332.336 140.87C328.795 140.87 326.291 143.388 326.291 147.492C326.291 151.492 328.69 154.088 332.401 154.088C335.011 154.088 337.292 152.816 337.948 150.193C337.974 150.18 334.814 150.18 334.814 150.18ZM332.349 143.558C333.975 143.558 335.234 144.594 335.194 146.141H329.398C329.398 144.633 330.723 143.558 332.349 143.558Z" fill="#40403F"/>
<g clip-path="url(#clip3_332_16425)">
<path d="M165.534 156.561L162.588 154.794L160.801 153.009L159.013 151.223V135.423H166.526L168.307 137.203L170.088 138.983H178.143C186.076 138.983 186.2 138.982 186.232 138.922C186.253 138.882 186.264 138.267 186.264 137.142V135.423H199.685L199.693 137.195L199.701 138.967L201.465 138.983L203.23 138.999L203.238 139.936C203.243 140.451 203.256 140.873 203.269 140.873C203.281 140.873 203.717 140.448 204.238 139.928L205.185 138.983H209.151L210.932 137.203L212.713 135.423H220.195V137.142C220.195 138.267 220.206 138.882 220.228 138.922C220.259 138.981 220.317 138.983 222.409 138.983H224.559L226.331 140.755L228.103 142.527V154.377L225.149 156.352L222.196 158.328L220.22 158.327L218.244 158.327L218.235 157.384C218.23 156.866 218.216 156.432 218.204 156.419C218.191 156.407 217.573 156.831 216.83 157.362L215.478 158.327H211.909V157.382C211.909 156.644 211.901 156.437 211.87 156.437C211.848 156.437 211.405 156.862 210.885 157.382L209.941 158.327H203.607L202.648 157.367C202.12 156.839 201.677 156.417 201.663 156.431C201.65 156.444 201.561 156.845 201.466 157.32C201.371 157.796 201.286 158.217 201.276 158.256L201.259 158.327H195.731L194.786 157.382C194.267 156.862 193.824 156.437 193.802 156.437C193.771 156.437 193.762 156.644 193.762 157.382V158.327H190.99C189.465 158.327 188.218 158.323 188.218 158.317C188.218 158.268 187.836 156.422 187.823 156.409C187.813 156.4 187.37 156.827 186.838 157.359L185.87 158.327H175.585L174.639 157.949C174.119 157.741 173.679 157.571 173.662 157.571C173.643 157.571 173.631 157.72 173.631 157.949V158.327H168.48L165.534 156.561ZM168.48 151.018V148.86L166.716 148.844L164.951 148.828V144.922L166.716 144.906L168.48 144.89V140.574L166.716 140.558L164.951 140.542L164.936 138.778L164.92 137.014H160.604L160.596 143.723L160.588 150.433L161.966 151.812L163.344 153.192L165.912 153.184L168.48 153.176V151.018ZM184.887 151.812L186.265 150.433L186.257 145.503L186.249 140.574L184.083 140.566L181.917 140.558L181.909 144.693L181.901 148.828H180.357L180.341 144.701L180.326 140.574L178.16 140.566L175.994 140.558L175.986 144.693L175.978 148.828H174.434L174.419 144.701L174.403 140.574L172.237 140.566L170.071 140.558V153.192H183.509L184.887 151.812ZM192.171 146.875V140.574L190.006 140.566L187.84 140.558V153.192L190.006 153.184L192.171 153.176V146.875ZM201.639 151.018V148.844L199.882 148.836L198.126 148.828V144.922L199.882 144.913L201.639 144.905V140.559L199.882 140.551L198.126 140.542L198.11 138.778L198.094 137.014H193.778L193.77 143.724L193.762 150.434L195.141 151.813L196.519 153.192H201.639V151.018ZM212.697 151.018V148.844H210.148C207.853 148.844 207.598 148.839 207.581 148.794C207.556 148.729 207.556 145.021 207.581 144.956C207.598 144.911 207.853 144.906 210.148 144.906H212.697V140.558H205.971L204.608 141.921L203.245 143.284V150.466L204.608 151.829L205.971 153.191H212.697V151.018ZM218.627 149.056L218.635 144.921H222.164L222.18 149.049L222.196 153.176H226.512L226.52 148.246L226.528 143.317L225.15 141.937L223.772 140.558H221.231C219.144 140.558 218.684 140.551 218.655 140.516C218.631 140.486 218.618 139.957 218.612 138.744L218.604 137.014H214.288L214.28 145.063C214.275 149.49 214.278 153.13 214.287 153.152C214.298 153.183 214.762 153.191 216.461 153.191H218.62L218.627 149.056ZM192.171 137.99V137.014H187.855L187.847 137.959C187.842 138.478 187.845 138.921 187.854 138.943C187.866 138.975 188.306 138.982 190.02 138.975L192.171 138.967V137.99Z" fill="#40403F"/>
</g>
<rect x="-0.0439453" y="0.994141" width="366" height="186" fill="url(#paint0_radial_332_16425)"/>
<defs>
<radialGradient id="paint0_radial_332_16425" cx="0" cy="0" r="1" gradientUnits="userSpaceOnUse" gradientTransform="translate(182.956 93.9941) scale(247.262 125.658)">
<stop offset="0.25" stop-color="#E0E3EC" stop-opacity="0"/>
<stop offset="1" stop-color="#E0E3EC"/>
</radialGradient>
<clipPath id="clip0_332_16425">
<rect width="60.8451" height="25.4332" fill="white" transform="translate(290.917 76.7178)"/>
</clipPath>
<clipPath id="clip1_332_16425">
<rect width="115.725" height="18.516" fill="white" transform="translate(29.1152 23.4395)"/>
</clipPath>
<clipPath id="clip2_332_16425">
<rect width="142.674" height="16.6644" fill="white" transform="translate(189.309 24.3652)"/>
</clipPath>
<clipPath id="clip3_332_16425">
<rect width="69.09" height="22.9102" fill="white" transform="translate(159.013 135.421)"/>
</clipPath>
</defs>
</svg>
