<svg width="28" height="28" viewBox="0 0 28 28" fill="none" xmlns="http://www.w3.org/2000/svg">
<path d="M18.3743 14C18.3743 14.8652 18.1177 15.7111 17.637 16.4306C17.1562 17.15 16.473 17.7108 15.6735 18.0419C14.8741 18.3731 13.9944 18.4597 13.1458 18.2909C12.2971 18.1221 11.5176 17.7054 10.9057 17.0935C10.2938 16.4817 9.87717 15.7021 9.70836 14.8535C9.53955 14.0048 9.62619 13.1251 9.95732 12.3257C10.2885 11.5263 10.8492 10.843 11.5687 10.3623C12.2881 9.88154 13.134 9.62495 13.9993 9.62495C15.1596 9.62495 16.2724 10.0859 17.0929 10.9064C17.9134 11.7268 18.3743 12.8396 18.3743 14ZM22.7493 14C22.7519 11.8473 21.9584 9.76973 20.5213 8.16698C20.4453 8.07927 20.3526 8.00757 20.2486 7.95605C20.1445 7.90453 20.0313 7.87422 19.9155 7.86688C19.7996 7.85955 19.6835 7.87534 19.5738 7.91333C19.4641 7.95132 19.3631 8.01076 19.2766 8.08818C19.1901 8.1656 19.1199 8.25945 19.07 8.36427C19.0202 8.46909 18.9916 8.58279 18.9862 8.69874C18.9807 8.81468 18.9983 8.93057 19.038 9.03963C19.0778 9.1487 19.1388 9.24877 19.2176 9.33401C20.3654 10.6174 20.9999 12.2787 20.9999 14.0005C20.9999 15.7223 20.3654 17.3836 19.2176 18.667C19.0671 18.8405 18.991 19.0662 19.0055 19.2954C19.02 19.5246 19.124 19.7389 19.2951 19.8921C19.4663 20.0453 19.6907 20.125 19.9201 20.1142C20.1495 20.1033 20.3655 20.0027 20.5213 19.834C21.9582 18.2307 22.7517 16.1529 22.7493 14ZM8.78101 9.33401C8.8598 9.24877 8.92083 9.1487 8.96056 9.03963C9.0003 8.93057 9.01793 8.81468 9.01244 8.69874C9.00695 8.58279 8.97844 8.46909 8.92858 8.36427C8.87872 8.25945 8.80849 8.1656 8.72201 8.08818C8.63552 8.01076 8.53449 7.95132 8.42481 7.91333C8.31512 7.87534 8.19898 7.85955 8.08313 7.86688C7.96729 7.87422 7.85406 7.90453 7.75004 7.95605C7.64602 8.00757 7.5533 8.07927 7.47726 8.16698C6.04095 9.77058 5.24672 11.8477 5.24672 14.0005C5.24672 16.1533 6.04095 18.2304 7.47726 19.834C7.63314 20.0027 7.84907 20.1033 8.07846 20.1142C8.30786 20.125 8.53234 20.0453 8.70345 19.8921C8.87457 19.7389 8.9786 19.5246 8.99311 19.2954C9.00762 19.0662 8.93145 18.8405 8.78101 18.667C7.6321 17.3842 6.9968 15.7226 6.9968 14.0005C6.9968 12.2784 7.6321 10.6168 8.78101 9.33401ZM26.0929 8.89651C25.4525 7.3757 24.5299 5.98993 23.3738 4.81245C23.2941 4.72726 23.1982 4.65886 23.0917 4.61127C22.9852 4.56369 22.8703 4.53788 22.7537 4.53536C22.637 4.53284 22.5211 4.55367 22.4126 4.59662C22.3042 4.63957 22.2054 4.70377 22.1221 4.78545C22.0388 4.86713 21.9727 4.96463 21.9277 5.07224C21.8826 5.17984 21.8595 5.29536 21.8598 5.41201C21.86 5.52866 21.8836 5.64408 21.9291 5.75149C21.9746 5.8589 22.0411 5.95613 22.1248 6.03745C24.2103 8.16221 25.3786 11.0205 25.3786 13.9978C25.3786 16.975 24.2103 19.8333 22.1248 21.9581C22.044 22.0401 21.9803 22.1372 21.9371 22.2439C21.8939 22.3505 21.8721 22.4647 21.873 22.5797C21.8739 22.6948 21.8975 22.8086 21.9424 22.9145C21.9873 23.0205 22.0526 23.1166 22.1346 23.1973C22.2166 23.278 22.3137 23.3418 22.4204 23.385C22.5271 23.4282 22.6412 23.4499 22.7563 23.449C22.8713 23.4481 22.9851 23.4245 23.0911 23.3797C23.197 23.3348 23.2931 23.2695 23.3738 23.1875C25.1853 21.3376 26.4098 18.9937 26.8936 16.4501C27.3774 13.9066 27.0988 11.2768 26.0929 8.89105V8.89651ZM3.51789 18.4275C2.64359 16.3607 2.40077 14.0814 2.82004 11.8768C3.2393 9.67224 4.30189 7.64116 5.87383 6.03964C6.03656 5.874 6.12683 5.6505 6.12478 5.41831C6.12273 5.18612 6.02853 4.96425 5.86289 4.80151C5.69725 4.63878 5.47376 4.54851 5.24156 4.55056C5.00937 4.55261 4.7875 4.64682 4.62476 4.81245C2.21653 7.26412 0.867188 10.5633 0.867188 14C0.867188 17.4366 2.21653 20.7358 4.62476 23.1875C4.70445 23.2726 4.80036 23.341 4.90686 23.3886C5.01337 23.4362 5.12831 23.462 5.24494 23.4645C5.36156 23.4671 5.47751 23.4462 5.58597 23.4033C5.69442 23.3603 5.7932 23.2961 5.87648 23.2145C5.95976 23.1328 6.02587 23.0353 6.07092 22.9277C6.11597 22.8201 6.13905 22.7045 6.1388 22.5879C6.13856 22.4712 6.11499 22.3558 6.06948 22.2484C6.02398 22.141 5.95746 22.0438 5.87383 21.9625C4.8727 20.9432 4.07335 19.7438 3.51789 18.4275Z" fill="#18181B"/>
</svg>
