<svg width="16" height="16" viewBox="0 0 16 16" fill="none" xmlns="http://www.w3.org/2000/svg">
<path d="M12 8.5V13C12 13.2652 11.8946 13.5196 11.7071 13.7071C11.5196 13.8946 11.2652 14 11 14H3C2.73478 14 2.48043 13.8946 2.29289 13.7071C2.10536 13.5196 2 13.2652 2 13V5C2 4.73478 2.10536 4.48043 2.29289 4.29289C2.48043 4.10536 2.73478 4 3 4H7.5C7.63261 4 7.75979 4.05268 7.85355 4.14645C7.94732 4.24022 8 4.36739 8 4.5C8 4.63261 7.94732 4.75979 7.85355 4.85355C7.75979 4.94732 7.63261 5 7.5 5H3V13H11V8.5C11 8.36739 11.0527 8.24021 11.1464 8.14645C11.2402 8.05268 11.3674 8 11.5 8C11.6326 8 11.7598 8.05268 11.8536 8.14645C11.9473 8.24021 12 8.36739 12 8.5ZM14 2.5C14 2.36739 13.9473 2.24022 13.8536 2.14645C13.7598 2.05268 13.6326 2 13.5 2H9.5C9.40105 1.99992 9.30431 2.0292 9.22201 2.08414C9.13971 2.13908 9.07557 2.21719 9.03769 2.30861C8.99981 2.40002 8.98991 2.50061 9.00924 2.59765C9.02856 2.6947 9.07624 2.78382 9.14625 2.85375L10.7931 4.5L8.14625 7.14625C8.05243 7.24007 7.99972 7.36732 7.99972 7.5C7.99972 7.63268 8.05243 7.75993 8.14625 7.85375C8.24007 7.94757 8.36732 8.00028 8.5 8.00028C8.63268 8.00028 8.75993 7.94757 8.85375 7.85375L11.5 5.20688L13.1462 6.85375C13.2162 6.92376 13.3053 6.97144 13.4023 6.99076C13.4994 7.01009 13.6 7.00019 13.6914 6.96231C13.7828 6.92444 13.8609 6.86029 13.9159 6.77799C13.9708 6.69569 14.0001 6.59895 14 6.5V2.5Z" fill="white"/>
</svg>
