<svg width="91" height="22" viewBox="0 0 91 22" fill="none" xmlns="http://www.w3.org/2000/svg">
<g clip-path="url(#clip0_2703_4268)">
<path d="M64.5754 8.57163C63.2603 8.57163 62.3217 9.02084 61.8611 9.87148L61.6135 10.3322V8.79337H59.4736V18.1465H61.7244V12.582C61.7244 11.2526 62.4469 10.4899 63.7057 10.4899C64.9061 10.4899 65.5943 11.2325 65.5943 12.5266V18.1465H67.8461V12.1252C67.8461 9.89824 66.6237 8.57163 64.5754 8.57163ZM53.6596 8.57163C51.0035 8.57163 49.3587 10.2289 49.3587 12.8965V14.2097C49.3587 16.775 51.0227 18.3683 53.7017 18.3683C55.4937 18.3683 56.7496 17.7116 57.54 16.3611L56.1446 15.5583C55.5606 16.3372 54.6278 16.8199 53.7026 16.8199C52.3464 16.8199 51.5369 15.9827 51.5369 14.5796V14.2078H57.8191V12.6566C57.8191 10.1716 56.1876 8.57163 53.6615 8.57163H53.6596ZM55.7709 12.6958H51.5292V12.4712C51.5292 10.9314 52.2852 10.0817 53.6577 10.0817C54.9795 10.0817 55.769 10.919 55.769 12.3221L55.7709 12.6958ZM90.1996 7.25363V5.46443H82.4139V7.25363H85.1436V16.3535H82.4139V18.1427H90.1996V16.3535H87.469V7.25363H90.1996ZM31.1656 5.20637C27.6885 5.20637 25.5266 7.3731 25.5266 10.8626V12.7493C25.5266 16.2378 27.6876 18.4055 31.1656 18.4055C34.6437 18.4055 36.8047 16.2378 36.8047 12.7493V10.8626C36.8037 7.36928 34.6398 5.20637 31.1656 5.20637ZM34.4783 12.8783C34.4783 15.1951 33.2712 16.5236 31.1656 16.5236C29.0601 16.5236 27.8539 15.1951 27.8539 12.8783V10.7326C27.8539 8.41584 29.062 7.08733 31.1666 7.08733C33.2712 7.08733 34.4793 8.41584 34.4793 10.7326L34.4783 12.8783ZM43.8745 8.57163C42.6931 8.57163 41.6705 9.06099 41.1372 9.88008L40.8953 10.2528V8.79337H38.7544V21.3646H41.0062V16.8113L41.2471 17.1688C41.7536 17.92 42.7428 18.3683 43.8936 18.3683C45.8348 18.3683 47.7931 17.0999 47.7931 14.2651V12.6747C47.7931 10.6323 46.586 8.57163 43.8745 8.57163ZM45.5413 14.1552C45.5413 15.6625 44.662 16.5991 43.2475 16.5991C41.9285 16.5991 41.0081 15.609 41.0081 14.1925V12.7856C41.0081 11.352 41.9362 10.3427 43.2666 10.3427C44.6706 10.3427 45.5432 11.2784 45.5432 12.7856L45.5413 14.1552ZM74.0681 5.46539L69.5254 18.1465H71.8125L72.6823 15.4283H77.9046L77.9132 15.4551L78.7734 18.1465H81.0596L76.5092 5.46443L74.0681 5.46539ZM73.2404 13.6401L75.2896 7.22878L77.3177 13.6401H73.2404ZM21.1243 9.00555C21.3708 8.26575 21.4563 7.48183 21.3752 6.70629C21.2941 5.93074 21.0483 5.18148 20.6541 4.50866C20.069 3.4918 19.1763 2.6868 18.1046 2.20951C17.0329 1.73222 15.8374 1.60725 14.6901 1.85259C14.1727 1.26903 13.5365 0.802746 12.8243 0.484949C12.1121 0.167152 11.3401 0.00517651 10.5602 0.00986456C9.38683 0.00719311 8.24291 0.377316 7.29348 1.06684C6.34405 1.75637 5.63818 2.72966 5.2777 3.84632C4.51378 4.00302 3.79213 4.32103 3.161 4.77909C2.52988 5.23714 2.00384 5.82468 1.61806 6.5024C1.02985 7.51759 0.778917 8.69323 0.901376 9.86011C1.02384 11.027 1.51337 12.1249 2.29953 12.9959C2.05403 13.735 1.96899 14.518 2.05008 15.2927C2.13117 16.0673 2.37652 16.8157 2.76976 17.488C3.35433 18.5068 4.24741 19.3136 5.32018 19.792C6.39295 20.2704 7.58995 20.3957 8.73853 20.1498C9.25552 20.7327 9.8909 21.1985 10.6022 21.5163C11.3136 21.834 12.0845 21.9964 12.8636 21.9925C14.037 21.9952 15.1809 21.6251 16.1304 20.9355C17.0798 20.246 17.7857 19.2727 18.1462 18.1561C18.9099 17.9993 19.6314 17.6813 20.2624 17.2232C20.8933 16.7651 21.4192 16.1776 21.8048 15.5C22.3946 14.4851 22.6465 13.3091 22.5241 12.1418C22.4018 10.9744 21.9116 9.87611 21.1243 9.00555ZM12.8636 20.5589C11.9 20.5597 10.9668 20.2214 10.2276 19.6031C10.2601 19.5849 10.3232 19.5534 10.3595 19.5295L14.7369 17.0025C14.8468 16.9401 14.9379 16.8495 15.0011 16.7402C15.0643 16.6308 15.0971 16.5066 15.0963 16.3803V10.2079L16.9457 11.2755C16.9557 11.2802 16.9643 11.2875 16.9707 11.2965C16.977 11.3056 16.981 11.3161 16.982 11.3271V16.4357C16.982 17.5284 16.5483 18.5764 15.7761 19.3495C15.0039 20.1226 13.9563 20.5576 12.8636 20.5589ZM4.01417 16.7798C3.53162 15.9458 3.3574 14.9688 3.52195 14.0195C3.55445 14.0396 3.6118 14.074 3.65194 14.0969L8.03031 16.6249C8.13931 16.6888 8.26336 16.7224 8.38968 16.7224C8.516 16.7224 8.64004 16.6888 8.74905 16.6249L14.0908 13.5359V15.6711C14.0918 15.682 14.09 15.6931 14.0855 15.7031C14.0809 15.7132 14.0739 15.7219 14.065 15.7284L9.63982 18.2822C8.69364 18.827 7.56999 18.9743 6.51537 18.6917C5.46074 18.4092 4.56124 17.7199 4.01417 16.775V16.7798ZM2.86725 7.22209C3.34755 6.38689 4.10649 5.74739 5.01104 5.41569V10.6189C5.0104 10.7451 5.04334 10.8693 5.10649 10.9786C5.16964 11.088 5.26072 11.1786 5.37041 11.2411L10.7132 14.3263L8.85705 15.3977C8.84801 15.4038 8.83758 15.4075 8.82672 15.4085C8.81586 15.4095 8.80493 15.4078 8.79492 15.4035L4.37068 12.8487C3.42534 12.3018 2.73567 11.4021 2.45308 10.3472C2.17049 9.29226 2.31807 8.1683 2.86343 7.22209H2.86725ZM18.064 10.7584L12.7212 7.67321L14.5687 6.60466C14.5778 6.59865 14.5882 6.59499 14.5991 6.59398C14.6099 6.59298 14.6208 6.59468 14.6308 6.59893L19.0551 9.1537C19.7327 9.54524 20.2848 10.1217 20.6467 10.8156C21.0086 11.5096 21.1653 12.2922 21.0985 13.072C21.0318 13.8518 20.7442 14.5964 20.2696 15.2187C19.795 15.8409 19.1529 16.3151 18.4186 16.5857V11.3835C18.42 11.2569 18.3876 11.1323 18.3248 11.0224C18.262 10.9125 18.1709 10.8214 18.0611 10.7584H18.064ZM19.9057 7.9867C19.8732 7.96663 19.8159 7.93222 19.7757 7.90929L15.3974 5.38128C15.2884 5.31744 15.1643 5.28379 15.038 5.28379C14.9117 5.28379 14.7876 5.31744 14.6786 5.38128L9.33589 8.46554V6.33131C9.33552 6.32032 9.33774 6.3094 9.34239 6.29943C9.34705 6.28947 9.35399 6.28074 9.36265 6.27397L13.7869 3.72016C14.4648 3.32939 15.24 3.13978 16.0217 3.17351C16.8034 3.20724 17.5594 3.46291 18.2011 3.91061C18.8428 4.35831 19.3438 4.97952 19.6453 5.70154C19.9468 6.42357 20.0365 7.21654 19.9038 7.98766L19.9057 7.9867ZM8.32755 11.7945L6.47719 10.7269C6.46768 10.7216 6.45954 10.7142 6.4534 10.7053C6.44726 10.6963 6.4433 10.686 6.44182 10.6753V5.5667C6.44123 4.78372 6.66384 4.0168 7.08357 3.35583C7.5033 2.69486 8.10275 2.16723 8.81166 1.8348C9.52056 1.50236 10.3095 1.3789 11.0861 1.47888C11.8627 1.57886 12.5947 1.89813 13.1962 2.39928C13.1637 2.41744 13.1054 2.44898 13.0643 2.47288L8.68692 4.99993C8.57724 5.06246 8.48615 5.15304 8.423 5.26238C8.35985 5.37171 8.32691 5.49587 8.32755 5.62213V11.7945ZM9.33207 9.62776L11.7119 8.25336L14.0908 9.62776V12.3746L11.711 13.749L9.33111 12.3746L9.33207 9.62776Z" fill="#18181B" fill-opacity="0.8"/>
</g>
<defs>
<clipPath id="clip0_2703_4268">
<rect width="90.6096" height="22" fill="white"/>
</clipPath>
</defs>
</svg>
