<svg width="122" height="122" viewBox="0 0 122 122" fill="none" xmlns="http://www.w3.org/2000/svg">
<path d="M35.6609 8.96747C36.3088 10.4698 37.7009 10.9379 39.0192 10.3687C40.3376 9.79949 40.9522 8.46489 40.3043 6.9626C39.6564 5.46032 38.2643 4.99217 36.946 5.56138C35.6277 6.13058 35.0131 7.46518 35.6609 8.96747ZM40.9122 6.70014C41.6897 8.50288 40.9157 10.1932 39.2531 10.911C37.5906 11.6288 35.8305 11.0327 35.0531 9.22994C34.2756 7.42719 35.0496 5.73692 36.7122 5.01909C38.3747 4.30126 40.1348 4.89739 40.9122 6.70014Z" fill="#3F3F46"/>
<path d="M45.6194 8.57608C44.0579 9.03449 42.9115 8.21488 42.5162 6.86698L41.445 3.21385L42.065 3.03184L43.1564 6.75389C43.4349 7.70355 44.2722 8.34774 45.4509 8.00169C46.6297 7.65564 46.9864 6.6609 46.7079 5.71125L45.6165 1.98919L46.2364 1.80718L47.3077 5.4603C47.7029 6.80821 47.1808 8.11768 45.6194 8.57608Z" fill="#3F3F46"/>
<path d="M49.4755 4.77686L49.94 7.36128L49.3119 7.47429L48.2107 1.34708L50.6995 0.899283C51.618 0.734007 52.6275 1.12002 52.8478 2.34546C53.0299 3.35881 52.4928 4.02311 51.783 4.313L53.8576 6.65639L53.1117 6.79059L51.0928 4.48586L49.4755 4.77686ZM49.3725 4.20341L51.2488 3.8658C51.7905 3.76833 52.3657 3.31612 52.2118 2.45989C52.0565 1.59579 51.3613 1.38029 50.8196 1.47776L48.9433 1.81537L49.3725 4.20341Z" fill="#3F3F46"/>
<path d="M56.4444 3.29606C56.3903 1.36532 57.6462 0.0525589 59.4642 0.00155944C61.2343 -0.0480979 62.2799 1.0963 62.4644 2.27283L61.8266 2.29073C61.6514 1.44928 60.8921 0.552359 59.5286 0.590609C58.0694 0.631543 57.0528 1.65813 57.0982 3.27772C57.1436 4.8973 58.2161 5.86528 59.6752 5.82435C61.0387 5.7861 61.7466 4.84802 61.8744 3.99808L62.5123 3.98018C62.3939 5.16522 61.4141 6.36643 59.6439 6.41608C57.826 6.46708 56.4985 5.2268 56.4444 3.29606Z" fill="#3F3F46"/>
<path d="M64.5025 3.24835C64.334 4.87582 65.3199 5.965 66.748 6.11307C68.1762 6.26114 69.3643 5.39735 69.5329 3.76987C69.7014 2.1424 68.7155 1.05322 67.2873 0.905153C65.8592 0.757086 64.6711 1.62087 64.5025 3.24835ZM70.1914 3.83815C69.9892 5.79112 68.4883 6.88728 66.6872 6.70055C64.8861 6.51382 63.6417 5.13304 63.844 3.18007C64.0462 1.2271 65.5471 0.130945 67.3482 0.317675C69.1493 0.504404 70.3936 1.88518 70.1914 3.83815Z" fill="#3F3F46"/>
<path d="M73.6199 7.76862L73.0142 3.6587L72.8336 2.35951L72.4362 4.11908L71.673 7.3011L71.068 7.15582L72.52 1.10222L73.2956 1.28848L73.9174 5.46794L74.1157 7.00121L74.9878 5.72498L77.4454 2.28498L78.2055 2.46751L76.7535 8.52111L76.1562 8.37769L76.9195 5.19567L77.3634 3.44727L76.6132 4.52295L74.2094 7.91018L73.6199 7.76862Z" fill="#3F3F46"/>
<path d="M80.5889 9.91425L80.5502 5.76008L80.5487 4.44838L79.9147 6.13713L78.7242 9.18498L78.1447 8.95835L80.4096 3.16001L81.1526 3.45056L81.1978 7.67582L81.1849 9.22181L82.2231 8.07678L85.1273 5.00499L85.8554 5.28973L83.5904 11.0881L83.0184 10.8643L84.2089 7.8165L84.8875 6.14518L83.9974 7.10822L81.1536 10.1351L80.5889 9.91425Z" fill="#3F3F46"/>
<path d="M86.974 12.9251C85.5425 12.151 85.3047 10.7614 85.9722 9.52557L87.7813 6.1763L88.3497 6.48368L86.5065 9.89615C86.0362 10.7668 86.1778 11.8141 87.2585 12.3985C88.3391 12.9829 89.2923 12.5276 89.7626 11.6569L91.6058 8.24447L92.1742 8.55185L90.3651 11.9011C89.6976 13.1369 88.4056 13.6993 86.974 12.9251Z" fill="#3F3F46"/>
<path d="M94.4611 10.0154L94.37 16.2951L95.4532 14.7058L97.3294 12.0254L97.8325 12.378L94.2632 17.4773L93.7405 17.111L93.8316 10.8313L92.7484 12.4206L90.8722 15.101L90.3691 14.7484L93.9384 9.64914L94.4611 10.0154Z" fill="#3F3F46"/>
<path d="M99.9699 14.038L96.0219 18.8496L95.5287 18.4444L99.4767 13.6328L99.9699 14.038Z" fill="#3F3F46"/>
<path d="M102.625 17.249L98.7667 21.3534L98.3018 20.9159L102.16 16.8115L100.679 15.417L101.083 14.9868L104.511 18.2133L104.107 18.6435L102.625 17.249Z" fill="#3F3F46"/>
<path d="M105.127 18.8469L105.627 19.4173L104.942 21.6513L104.548 22.9091L105.846 22.6841L108.149 22.2994L108.638 22.8578L104.303 23.5377L102.412 25.1941L101.992 24.7137L103.882 23.0573L105.127 18.8469Z" fill="#3F3F46"/>
<path d="M107.849 32.6091L108.995 31.0546L107.573 28.8858L105.696 29.3259L105.311 28.7387L111.804 27.2918L112.154 27.8257L108.243 33.2096L107.849 32.6091ZM110.193 29.4473L111.281 28.0075L109.527 28.433L108.185 28.742L109.37 30.5504L110.193 29.4473Z" fill="#3F3F46"/>
<path d="M109.916 36.3938L108.723 34.0817L114.252 31.2264L115.401 33.4534C115.884 34.3896 115.682 35.3204 114.746 35.8036C114.073 36.1513 113.459 35.8665 113.167 35.631C113.263 36.1474 113.133 36.8702 112.36 37.2692C111.389 37.7707 110.479 37.486 109.916 36.3938ZM109.54 34.3782L110.462 36.1655C110.759 36.74 111.351 37.0536 112.067 36.6839C112.783 36.3142 112.745 35.5615 112.511 35.1076L111.589 33.3203L109.54 34.3782ZM114.92 33.8094L114.02 32.0647L112.113 33.0494L112.988 34.7445C113.262 35.2764 113.836 35.5368 114.432 35.2293C115.02 34.9255 115.191 34.3343 114.92 33.8094Z" fill="#3F3F46"/>
<path d="M114.298 38.4482C112.766 39.0213 112.23 40.3893 112.733 41.7349C113.236 43.0806 114.537 43.7609 116.069 43.1878C117.601 42.6147 118.137 41.2467 117.634 39.9011C117.131 38.5554 115.829 37.8751 114.298 38.4482ZM116.301 43.8083C114.463 44.496 112.814 43.6388 112.18 41.9418C111.546 40.2448 112.228 38.5154 114.066 37.8277C115.904 37.14 117.553 37.9972 118.187 39.6942C118.821 41.3912 118.139 43.1206 116.301 43.8083Z" fill="#3F3F46"/>
<path d="M114.181 48.4217C113.808 46.8369 114.688 45.7357 116.055 45.4135L119.758 44.5405L119.906 45.1697L116.133 46.0593C115.17 46.2862 114.482 47.088 114.764 48.2844C115.045 49.4808 116.019 49.8909 116.982 49.6639L120.755 48.7744L120.903 49.4037L117.2 50.2767C115.833 50.5989 114.555 50.0065 114.181 48.4217Z" fill="#3F3F46"/>
<path d="M120.942 53.5531L115.357 54.2759L115.275 53.6427L120.86 52.9199L120.6 50.9014L121.185 50.8257L121.789 55.4958L121.203 55.5716L120.942 53.5531Z" fill="#3F3F46"/>
<path d="M115.779 63.2296L117.589 62.5586L117.588 59.9646L115.777 59.3028L115.777 58.6004L122 60.9528L122 61.5913L115.779 63.948L115.779 63.2296ZM119.471 61.8715L121.17 61.2644L119.471 60.6584L118.179 60.1799L118.179 62.3429L119.471 61.8715Z" fill="#3F3F46"/>
<path d="M114.887 70.5684L114.964 69.9748L118.953 69.108L120.473 68.7981L119.082 68.1107L115.446 66.2546L115.522 65.661L121.928 64.6489L121.843 65.2979L118.041 65.8992L116.525 66.121L117.946 66.8205L121.417 68.5906L121.332 69.2476L117.525 70.0736L115.972 70.3872L117.382 70.9887L120.905 72.5403L120.822 73.1814L114.887 70.5684Z" fill="#3F3F46"/>
<path d="M120.449 74.8645L119.338 78.9957L118.768 78.8422L119.713 75.3277L117.641 74.7699L116.779 77.9761L116.209 77.8226L117.071 74.6164L114.845 74.0171L113.858 77.6858L113.288 77.5323L114.441 73.2471L120.449 74.8645Z" fill="#3F3F46"/>
<path d="M117.636 82.479C117.908 81.7626 117.67 81.0835 117.066 80.8542C116.432 80.6136 115.978 80.9108 115.494 81.8964C114.858 83.1915 114.057 83.6387 113.072 83.2651C112.051 82.8772 111.651 81.7267 112.118 80.4954C112.649 79.0924 113.819 78.5719 115.133 79.156L114.913 79.7381C113.866 79.2811 113.037 79.6236 112.632 80.6907C112.287 81.6011 112.538 82.3793 113.269 82.6567C113.977 82.9257 114.45 82.6014 115.006 81.4723C115.565 80.3356 116.36 79.9034 117.248 80.2402C118.158 80.5856 118.547 81.6296 118.151 82.6743C117.692 83.8833 116.609 84.3771 115.455 83.8878L115.676 83.3058C116.576 83.6987 117.285 83.4044 117.636 82.479Z" fill="#3F3F46"/>
<path d="M113.52 85.4108C112.068 84.6594 110.694 85.18 110.035 86.4562C109.376 87.7324 109.745 89.1546 111.198 89.9059C112.651 90.6573 114.024 90.1367 114.683 88.8605C115.343 87.5843 114.973 86.1622 113.52 85.4108ZM110.894 90.4944C109.151 89.5928 108.679 87.7944 109.511 86.185C110.342 84.5755 112.081 83.9207 113.824 84.8223C115.568 85.7239 116.039 87.5223 115.208 89.1317C114.376 90.7412 112.637 91.396 110.894 90.4944Z" fill="#3F3F46"/>
<path d="M105.972 92.2448L110.012 93.2005L111.285 93.5127L109.798 92.493L107.125 90.6074L107.484 90.0986L112.569 93.6857L112.109 94.3381L107.998 93.3716L106.501 92.9893L107.364 94.2718L109.65 97.828L109.2 98.4673L104.115 94.8801L104.469 94.3779L107.142 96.2634L108.601 97.3223L107.879 96.2273L105.622 92.7405L105.972 92.2448Z" fill="#3F3F46"/>
<path d="M107.479 100.64L102.727 96.622L103.139 96.1343L107.891 100.153L107.479 100.64Z" fill="#3F3F46"/>
<path d="M104.022 99.8301C105.387 101.196 105.376 103.013 104.09 104.3C102.838 105.553 101.293 105.44 100.351 104.712L100.802 104.261C101.507 104.752 102.675 104.881 103.639 103.916C104.671 102.883 104.705 101.438 103.56 100.293C102.415 99.1473 100.971 99.1813 99.9385 100.214C98.9741 101.179 99.1039 102.348 99.5947 103.053L99.1435 103.505C98.4158 102.562 98.3028 101.016 99.5549 99.7628C100.841 98.4759 102.657 98.4644 104.022 99.8301Z" fill="#3F3F46"/>
<path d="M96.6787 110.586L96.1726 110.948L95.5008 109.829L94.8021 110.938L94.3031 110.568L95.1474 109.582L93.8861 109.258L94.0815 108.667L95.2891 109.176L95.1976 107.868L95.8198 107.874L95.7184 109.173L96.9246 108.693L97.1121 109.285L95.8447 109.583L96.6787 110.586Z" fill="#3F3F46"/>
<path d="M88.4044 112.057C87.6928 110.584 86.2819 110.176 84.9892 110.801C83.6964 111.426 83.1395 112.786 83.8511 114.259C84.5627 115.732 85.9736 116.14 87.2663 115.515C88.559 114.89 89.116 113.53 88.4044 112.057ZM83.255 114.547C82.4011 112.78 83.102 111.058 84.7323 110.269C86.3626 109.481 88.1466 110.001 89.0005 111.769C89.8544 113.537 89.1535 115.258 87.5232 116.047C85.8929 116.835 84.1089 116.315 83.255 114.547Z" fill="#3F3F46"/>
<path d="M78.47 112.865C80.0119 112.345 81.1901 113.118 81.6387 114.45L82.8545 118.057L82.2422 118.264L81.0035 114.588C80.6875 113.65 79.8252 113.04 78.6611 113.433C77.4971 113.825 77.1803 114.834 77.4963 115.771L78.7351 119.447L78.1228 119.654L76.907 116.046C76.4584 114.715 76.928 113.386 78.47 112.865Z" fill="#3F3F46"/>
<path d="M74.7625 116.814L74.2002 114.249L74.8236 114.112L76.1566 120.193L73.6867 120.735C72.7751 120.935 71.7516 120.588 71.485 119.372C71.2646 118.366 71.776 117.682 72.4743 117.365L70.3123 115.102L71.0525 114.94L73.1574 117.166L74.7625 116.814ZM74.8873 117.383L73.0251 117.792C72.4875 117.91 71.9299 118.384 72.1161 119.233C72.3041 120.091 73.007 120.28 73.5446 120.162L75.4068 119.753L74.8873 117.383Z" fill="#3F3F46"/>
<path d="M67.8644 118.579C67.9952 120.506 66.7924 121.868 64.9779 121.991C63.2111 122.111 62.1209 121.009 61.8897 119.841L62.5264 119.798C62.7349 120.631 63.5292 121.497 64.8901 121.405C66.3465 121.306 67.3215 120.24 67.2118 118.623C67.1021 117.007 65.992 116.082 64.5356 116.181C63.1747 116.274 62.5047 117.239 62.4108 118.094L61.7741 118.137C61.8453 116.948 62.7766 115.709 64.5434 115.589C66.3579 115.465 67.7336 116.652 67.8644 118.579Z" fill="#3F3F46"/>
<path d="M59.8084 118.945C59.9149 117.312 58.8884 116.261 57.4556 116.168C56.0229 116.074 54.8684 116.982 54.7619 118.615C54.6553 120.248 55.6818 121.299 57.1146 121.392C58.5473 121.486 59.7018 120.578 59.8084 118.945ZM54.1012 118.572C54.2291 116.613 55.6872 115.46 57.4941 115.578C59.301 115.696 60.5969 117.029 60.469 118.988C60.3411 120.947 58.883 122.1 57.0761 121.982C55.2692 121.864 53.9733 120.531 54.1012 118.572Z" fill="#3F3F46"/>
<path d="M50.5243 114.778L51.2897 118.861L51.5208 120.152L51.8493 118.378L52.4879 115.169L53.0981 115.291L51.8832 121.396L51.1009 121.24L50.3167 117.088L50.0588 115.564L49.2371 116.873L46.9155 120.407L46.1488 120.254L47.3637 114.148L47.9661 114.268L47.3275 117.478L46.952 119.242L47.6597 118.138L49.9297 114.659L50.5243 114.778Z" fill="#3F3F46"/>
<path d="M43.4737 112.917L43.6893 117.066L43.7466 118.377L44.3081 116.662L45.3679 113.567L45.9565 113.768L43.9404 119.658L43.1857 119.399L42.9607 115.18L42.9078 113.635L41.9193 114.823L39.1484 118.016L38.4089 117.762L40.425 111.873L41.0061 112.072L39.9463 115.168L39.3395 116.866L40.1878 115.866L42.9002 112.721L43.4737 112.917Z" fill="#3F3F46"/>
<path d="M36.9736 110.168C38.4332 110.887 38.723 112.267 38.1025 113.527L36.4206 116.942L35.8411 116.656L37.5546 113.177C37.9919 112.289 37.811 111.248 36.7091 110.705C35.6072 110.161 34.6719 110.652 34.2346 111.54L32.5211 115.019L31.9415 114.734L33.6233 111.319C34.2439 110.059 35.5139 109.448 36.9736 110.168Z" fill="#3F3F46"/>
<path d="M29.6164 113.373L29.4497 107.094L28.4326 108.727L26.6681 111.482L26.1509 111.151L29.5079 105.909L30.0452 106.253L30.2119 112.532L31.229 110.899L32.9935 108.144L33.5107 108.475L30.1537 113.717L29.6164 113.373Z" fill="#3F3F46"/>
<path d="M23.9378 109.568L27.6966 104.607L28.2051 104.993L24.4464 109.954L23.9378 109.568Z" fill="#3F3F46"/>
<path d="M21.1617 106.466L24.8559 102.213L25.3375 102.632L21.6433 106.885L23.1786 108.22L22.7914 108.666L19.2392 105.577L19.6264 105.131L21.1617 106.466Z" fill="#3F3F46"/>
<path d="M18.6016 104.971L18.0799 104.421L18.6749 102.162L19.0184 100.889L17.7303 101.166L15.4441 101.643L14.9334 101.104L19.2381 100.251L21.0606 98.5204L21.4999 98.9835L19.6774 100.714L18.6016 104.971Z" fill="#3F3F46"/>
<path d="M15.3349 91.3265L14.2527 92.9263L15.7618 95.0355L17.6195 94.5195L18.0281 95.0906L11.5992 96.8L11.2278 96.2808L14.917 90.7424L15.3349 91.3265ZM13.1213 94.5809L12.0927 96.0637L13.8271 95.5673L15.1564 95.2041L13.8981 93.4453L13.1213 94.5809Z" fill="#3F3F46"/>
<path d="M13.1165 87.6289L14.4017 89.8908L8.99291 92.9677L7.75499 90.7891C7.23458 89.8732 7.39889 88.9351 8.31423 88.4144C8.97299 88.0396 9.59772 88.2993 9.899 88.5228C9.78238 88.0107 9.88291 87.2833 10.6388 86.8533C11.5888 86.3129 12.5094 86.5604 13.1165 87.6289ZM13.5732 89.6277L12.5797 87.8792C12.2604 87.3172 11.6555 87.0278 10.9551 87.4262C10.2547 87.8246 10.3233 88.5751 10.5757 89.0192L11.5692 90.7677L13.5732 89.6277ZM8.22082 90.4139L9.19066 92.1207L11.056 91.0596L10.1138 89.4013C9.81808 88.8809 9.23386 88.644 8.65138 88.9754C8.07582 89.3028 7.92908 89.9004 8.22082 90.4139Z" fill="#3F3F46"/>
<path d="M8.65484 85.7498C10.1628 85.1169 10.6448 83.7288 10.0894 82.404C9.53406 81.0791 8.20658 80.4505 6.69864 81.0834C5.19069 81.7163 4.70864 83.1044 5.26403 84.4292C5.81942 85.7541 7.1469 86.3827 8.65484 85.7498ZM6.44254 80.4725C8.25207 79.7131 9.93337 80.5048 10.6338 82.1755C11.3342 83.8463 10.7205 85.6012 8.91094 86.3606C7.1014 87.1201 5.4201 86.3284 4.7197 84.6577C4.01929 82.9869 4.63301 81.232 6.44254 80.4725Z" fill="#3F3F46"/>
<path d="M8.37291 75.7811C8.81137 77.3491 7.97789 78.4858 6.6259 78.8643L2.96172 79.8902L2.78763 79.2676L6.52094 78.2224C7.47348 77.9557 8.12778 77.1261 7.79678 75.9424C7.46579 74.7587 6.4762 74.3893 5.52366 74.656L1.79035 75.7012L1.61625 75.0786L5.28043 74.0528C6.63242 73.6743 7.93445 74.2131 8.37291 75.7811Z" fill="#3F3F46"/>
<path d="M1.40981 70.9199L6.96241 69.9795L7.06891 70.609L1.5163 71.5494L1.85577 73.5561L1.27377 73.6547L0.488342 69.0117L1.07034 68.9132L1.40981 70.9199Z" fill="#3F3F46"/>
<path d="M6.19905 61.0483L4.41643 61.7904L4.51962 64.3823L6.35526 64.9721L6.3832 65.6739L0.0726084 63.569L0.0472086 62.931L6.17048 60.3306L6.19905 61.0483ZM2.56272 62.5512L0.88915 63.225L2.61098 63.7634L3.92124 64.1905L3.8352 62.0292L2.56272 62.5512Z" fill="#3F3F46"/>
<path d="M6.80984 53.682L6.75564 54.2782L2.80236 55.2968L1.29515 55.6645L2.7113 56.2983L6.41597 58.014L6.36177 58.6101L0 59.8663L0.0592616 59.2146L3.83559 58.4683L5.3428 58.1888L3.89559 57.5441L0.359906 55.9079L0.41989 55.2482L4.19262 54.2773L5.73234 53.9045L4.30029 53.3574L0.720534 51.9416L0.779073 51.2978L6.80984 53.682Z" fill="#3F3F46"/>
<path d="M1.07495 49.6385L2.00223 45.4623L2.57846 45.5904L1.78958 49.1433L3.88425 49.6089L4.60393 46.3677L5.18016 46.4958L4.46048 49.737L6.71089 50.2373L7.53437 46.5286L8.1106 46.6567L7.14872 50.9887L1.07495 49.6385Z" fill="#3F3F46"/>
<path d="M3.5783 41.8748C3.33357 42.6009 3.59605 43.2706 4.20828 43.4773C4.85075 43.6941 5.29329 43.3802 5.74081 42.3772C6.32818 41.0593 7.11184 40.5825 8.10955 40.9192C9.14505 41.2687 9.5875 42.4035 9.16687 43.6514C8.68759 45.0732 7.53786 45.637 6.20285 45.1022L6.40169 44.5123C7.4647 44.93 8.28078 44.5568 8.64534 43.4754C8.95635 42.5527 8.67656 41.7844 7.93584 41.5344C7.21779 41.2921 6.75749 41.6337 6.24387 42.7828C5.7277 43.9395 4.94914 44.4011 4.04969 44.0976C3.12756 43.7864 2.69987 42.7576 3.05677 41.6988C3.46976 40.4737 4.53362 39.9398 5.705 40.3857L5.50615 40.9756C4.59176 40.6165 3.89442 40.937 3.5783 41.8748Z" fill="#3F3F46"/>
<path d="M7.57821 38.7957C9.05882 39.4902 10.4111 38.9169 11.0205 37.6161C11.63 36.3153 11.2055 34.9085 9.72488 34.214C8.24427 33.5195 6.89204 34.0928 6.28258 35.3936C5.67311 36.6944 6.09761 38.1012 7.57821 38.7957ZM10.0059 33.6142C11.7826 34.4476 12.3236 36.2263 11.555 37.8668C10.7864 39.5072 9.07391 40.2289 7.29718 39.3955C5.52045 38.5621 4.97951 36.7834 5.74811 35.1429C6.51672 33.5025 8.22918 32.7808 10.0059 33.6142Z" fill="#3F3F46"/>
<path d="M14.8482 31.6713L10.7715 30.8842L9.48636 30.6251L11.0146 31.5822L13.7635 33.3551L13.4264 33.8784L8.19677 30.5055L8.62893 29.8347L12.7766 30.6296L14.2883 30.9493L13.373 29.7038L10.941 26.2456L11.3645 25.5882L16.5941 28.961L16.2614 29.4776L13.5125 27.7047L12.0102 26.7073L12.7767 27.7714L15.1766 31.1614L14.8482 31.6713Z" fill="#3F3F46"/>
<path d="M12.9761 23.3603L17.9035 27.1616L17.5138 27.6672L12.5865 23.866L12.9761 23.3603Z" fill="#3F3F46"/>
<path d="M16.4822 24.0017C15.0657 22.6895 15.0071 20.8732 16.2427 19.5378C17.4457 18.2377 18.9944 18.2909 19.9637 18.9822L19.5301 19.4507C18.8067 18.9872 17.635 18.9025 16.7083 19.904C15.7166 20.9757 15.7384 22.4208 16.9266 23.5215C18.1148 24.6222 19.5564 24.5328 20.5481 23.461C21.4748 22.4595 21.3002 21.2971 20.7827 20.6111L21.2163 20.1425C21.9796 21.0563 22.1518 22.5972 20.9487 23.8974C19.7132 25.2327 17.8987 25.314 16.4822 24.0017Z" fill="#3F3F46"/>
<path d="M26.2198 15.2562C25.7574 14.6157 25.9028 13.7131 26.5429 13.2504C27.1831 12.7877 28.0852 12.9332 28.5476 13.5737C29.01 14.2143 28.8646 15.1169 28.2244 15.5796C27.5843 16.0422 26.6822 15.8967 26.2198 15.2562Z" fill="#3F3F46"/>
</svg>
