<svg width="30" height="30" viewBox="0 0 30 30" fill="none" xmlns="http://www.w3.org/2000/svg">
<rect width="30" height="30" fill="#18181B"/>
<path d="M21.1484 7.00524V10.2757H23.7958V12.5912H21.1845C21.1763 12.7285 21.1657 12.8323 21.165 12.9359C21.1637 14.6139 21.164 16.2921 21.164 17.9701C21.164 18.0779 21.1655 18.1861 21.1757 18.2933C21.2368 18.947 21.6886 19.2355 22.2665 18.9925C22.8736 18.7364 22.8764 18.7377 23.2343 19.3314C23.5072 19.7838 23.7816 20.2355 24.0654 20.7045C23.4195 21.2182 22.7098 21.4784 21.9433 21.5922C21.821 21.6102 21.6997 21.6412 21.5781 21.6664C21.2818 21.667 20.9847 21.6673 20.6884 21.6673C20.2772 21.5358 19.8382 21.462 19.4599 21.2621C18.3205 20.6613 17.9809 19.5699 17.9706 18.3265C17.9562 16.5767 17.9667 14.8265 17.9667 13.0765V12.5834C17.6851 12.5834 17.4177 12.587 17.1503 12.5834C16.6645 12.5769 16.467 12.3697 16.4628 11.8617C16.4594 11.456 16.4618 11.0511 16.4618 10.6195C16.9408 10.5216 17.3947 10.4155 17.8525 10.3422C18.0891 10.304 18.1928 10.2023 18.2441 9.94762C18.4002 9.17566 18.5872 8.40987 18.7665 7.64293C18.8719 7.19203 19.044 7.02282 19.4716 7.00915C20.0168 6.99117 20.5628 7.00524 21.1484 7.00524ZM9.34856 10.3675C10.4838 10.2402 11.5796 10.3799 12.5849 10.9886C14.1116 11.9125 14.7714 13.3902 14.9521 15.1625C14.9774 15.4229 14.9791 15.6872 14.9921 15.9506C14.9914 16.9817 14.8463 17.9797 14.4111 18.9144C13.852 20.1152 12.9769 20.9398 11.7577 21.3392C10.6765 21.6932 9.57597 21.7245 8.48723 21.4144C6.95889 20.979 5.91148 19.9454 5.40032 18.3793C4.84603 16.6797 4.85138 14.952 5.51653 13.2855C6.22209 11.5185 7.54281 10.5705 9.34856 10.3675ZM10.2695 11.848C8.79212 11.7027 7.63805 12.4739 7.2138 13.9691C7.03049 14.6152 6.97599 15.3026 6.87884 15.8802C6.95819 16.5234 6.98782 17.0651 7.09661 17.5882C7.43878 19.2295 8.42346 20.0827 9.94329 20.1C11.5163 20.1179 12.498 19.3281 12.8847 17.6742C13.1666 16.4676 13.1533 15.2482 12.8241 14.0502C12.443 12.6628 11.6374 11.9826 10.2695 11.848Z" fill="white"/>
</svg>
