<svg width="28" height="28" viewBox="0 0 28 28" fill="none" xmlns="http://www.w3.org/2000/svg">
<path d="M21.9592 5.89422C19.8414 3.79705 16.9805 2.62195 14 2.62501H13.883C10.8865 2.65584 8.02316 3.86787 5.91518 5.99776C3.8072 8.12766 2.62484 11.0033 2.625 14C2.625 18.7031 5.53219 22.6472 10.2113 24.2999C10.739 24.4859 11.3037 24.5427 11.8579 24.4655C12.4121 24.3883 12.9398 24.1793 13.3966 23.8561C13.8534 23.5329 14.226 23.1049 14.4833 22.6079C14.7405 22.111 14.8748 21.5596 14.875 21C14.875 20.5359 15.0594 20.0908 15.3876 19.7626C15.7158 19.4344 16.1609 19.25 16.625 19.25H21.6792C22.4732 19.2538 23.2445 18.986 23.8653 18.491C24.486 17.996 24.9188 17.3036 25.0917 16.5288C25.2873 15.6676 25.3824 14.7868 25.375 13.9038C25.3639 12.4091 25.0562 10.9315 24.4699 9.55664C23.8835 8.18176 23.0302 6.93691 21.9592 5.89422ZM9.1875 18.375C8.92791 18.375 8.67415 18.298 8.45831 18.1538C8.24248 18.0096 8.07425 17.8046 7.97491 17.5648C7.87557 17.325 7.84958 17.0611 7.90022 16.8065C7.95086 16.5519 8.07587 16.318 8.25942 16.1344C8.44298 15.9509 8.67684 15.8259 8.93144 15.7752C9.18604 15.7246 9.44994 15.7506 9.68977 15.8499C9.9296 15.9493 10.1346 16.1175 10.2788 16.3333C10.423 16.5492 10.5 16.8029 10.5 17.0625C10.5 17.4106 10.3617 17.7444 10.1156 17.9906C9.86944 18.2367 9.5356 18.375 9.1875 18.375ZM9.1875 12.25C8.92791 12.25 8.67415 12.173 8.45831 12.0288C8.24248 11.8846 8.07425 11.6796 7.97491 11.4398C7.87557 11.2 7.84958 10.936 7.90022 10.6814C7.95086 10.4268 8.07587 10.193 8.25942 10.0094C8.44298 9.82587 8.67684 9.70087 8.93144 9.65023C9.18604 9.59958 9.44994 9.62557 9.68977 9.72491C9.9296 9.82425 10.1346 9.99248 10.2788 10.2083C10.423 10.4242 10.5 10.6779 10.5 10.9375C10.5 11.2856 10.3617 11.6194 10.1156 11.8656C9.86944 12.1117 9.5356 12.25 9.1875 12.25ZM14 9.62501C13.7404 9.62501 13.4867 9.54803 13.2708 9.40381C13.055 9.25959 12.8867 9.05461 12.7874 8.81478C12.6881 8.57495 12.6621 8.31105 12.7127 8.05645C12.7634 7.80185 12.8884 7.56798 13.0719 7.38443C13.2555 7.20087 13.4893 7.07587 13.7439 7.02523C13.9985 6.97458 14.2624 7.00057 14.5023 7.09991C14.7421 7.19925 14.9471 7.36748 15.0913 7.58332C15.2355 7.79916 15.3125 8.05292 15.3125 8.31251C15.3125 8.6606 15.1742 8.99444 14.9281 9.24058C14.6819 9.48673 14.3481 9.62501 14 9.62501ZM18.8125 12.25C18.5529 12.25 18.2992 12.173 18.0833 12.0288C17.8675 11.8846 17.6992 11.6796 17.5999 11.4398C17.5006 11.2 17.4746 10.936 17.5252 10.6814C17.5759 10.4268 17.7009 10.193 17.8844 10.0094C18.068 9.82587 18.3018 9.70087 18.5564 9.65023C18.811 9.59958 19.0749 9.62557 19.3148 9.72491C19.5546 9.82425 19.7596 9.99248 19.9038 10.2083C20.048 10.4242 20.125 10.6779 20.125 10.9375C20.125 11.2856 19.9867 11.6194 19.7406 11.8656C19.4944 12.1117 19.1606 12.25 18.8125 12.25Z" fill="#18181B"/>
</svg>
