<svg width="128" height="32" viewBox="0 0 128 32" fill="none" xmlns="http://www.w3.org/2000/svg">
<g clip-path="url(#clip0_7209_1425)">
<path d="M43.8397 16.4384V21.6384H41.6797V8.39844H46.8397C49.9197 8.39844 51.5597 9.95844 51.5597 12.4384C51.5597 14.9184 49.9197 16.4784 46.8397 16.4784H43.8397V16.4384ZM43.8397 10.3984V14.3984H46.7997C48.5197 14.3984 49.3197 13.7584 49.3197 12.3984C49.3197 11.0384 48.5197 10.3984 46.7997 10.3984H43.8397Z" fill="#18181B" fill-opacity="0.8"/>
<path d="M61.36 21.6394H59.36V20.5594C58.72 21.3594 57.8 21.8794 56.52 21.8794C54 21.8794 52 19.8794 52 17.1194C52 14.3594 54 12.3594 56.52 12.3594C57.8 12.3594 58.76 12.8794 59.36 13.6794V12.5994H61.36V21.6394ZM54 17.1194C54 18.7194 55.04 20.0394 56.72 20.0394C58.36 20.0394 59.44 18.7994 59.44 17.1194C59.44 15.4794 58.36 14.1994 56.72 14.1994C55.04 14.1994 54 15.5194 54 17.1194Z" fill="#18181B" fill-opacity="0.8"/>
<path d="M71.9605 15.9594V21.6794H69.9605V16.5994C69.9605 15.0794 69.1605 14.2394 67.8405 14.2394C66.5605 14.2394 65.4805 15.0794 65.4805 16.6394V21.6794H63.4805V12.5994H65.4405V13.7194C66.1605 12.6394 67.2805 12.3594 68.2405 12.3594C70.4405 12.3594 71.9605 13.8394 71.9605 15.9594Z" fill="#18181B" fill-opacity="0.8"/>
<path d="M80.5983 13.68V8H82.5983V21.64H80.5983V20.56C79.9583 21.36 79.0383 21.88 77.7583 21.88C75.2383 21.88 73.2383 19.88 73.2383 17.12C73.2383 14.36 75.2383 12.36 77.7583 12.36C79.0383 12.36 79.9983 12.88 80.5983 13.68ZM75.2383 17.12C75.2383 18.72 76.2783 20.04 77.9583 20.04C79.5983 20.04 80.6783 18.8 80.6783 17.12C80.6783 15.48 79.5983 14.2 77.9583 14.2C76.2783 14.2 75.2383 15.52 75.2383 17.12Z" fill="#18181B" fill-opacity="0.8"/>
<path d="M93.4772 21.6394H91.4772V20.5594C90.8372 21.3594 89.9172 21.8794 88.6372 21.8794C86.1172 21.8794 84.1172 19.8794 84.1172 17.1194C84.1172 14.3594 86.1172 12.3594 88.6372 12.3594C89.9172 12.3594 90.8772 12.8794 91.4772 13.6794V12.5994H93.4772V21.6394ZM86.1172 17.1194C86.1172 18.7194 87.1572 20.0394 88.8372 20.0394C90.4772 20.0394 91.5572 18.7994 91.5572 17.1194C91.5572 15.4794 90.4772 14.1994 88.8372 14.1994C87.1572 14.1994 86.1172 15.5194 86.1172 17.1194Z" fill="#18181B" fill-opacity="0.8"/>
<path d="M100.999 8.39844C105.159 8.39844 107.879 11.0384 107.879 15.0384C107.879 19.0384 105.159 21.6784 100.999 21.6784H95.7188V8.39844H100.999ZM97.8787 10.4384V19.6384H100.999C104.119 19.6384 105.639 17.7184 105.639 15.0384C105.639 12.3184 104.119 10.4384 100.999 10.4384H97.8787Z" fill="#18181B" fill-opacity="0.8"/>
<path d="M118.682 17.1194C118.682 19.8394 116.602 21.8794 113.802 21.8794C111.002 21.8794 108.922 19.8394 108.922 17.1194C108.922 14.3994 111.002 12.3594 113.802 12.3594C116.602 12.3594 118.682 14.3994 118.682 17.1194ZM110.962 17.1194C110.962 18.8394 112.202 20.0394 113.802 20.0394C115.442 20.0394 116.642 18.8394 116.642 17.1194C116.642 15.3994 115.402 14.1994 113.802 14.1994C112.202 14.1994 110.962 15.3994 110.962 17.1194Z" fill="#18181B" fill-opacity="0.8"/>
<path d="M128.003 13.8007L126.723 15.1607C126.083 14.5607 125.403 14.2407 124.563 14.2407C123.043 14.2407 121.883 15.4407 121.883 17.1607C121.883 18.8807 123.043 20.0807 124.563 20.0807C125.443 20.0807 126.203 19.6807 126.803 19.1207L128.043 20.4807C127.203 21.4407 126.003 21.9207 124.643 21.9207C121.763 21.9207 119.883 19.8807 119.883 17.1607C119.883 14.4407 121.763 12.4007 124.643 12.4007C125.963 12.3607 127.203 12.8407 128.003 13.8007Z" fill="#18181B" fill-opacity="0.8"/>
<path fill-rule="evenodd" clip-rule="evenodd" d="M0 0H32V32H0V0ZM23.4 11.8V7.08H25.52V15.96C25.52 18.88 23.44 21.08 20.48 21.08C17.3008 21.08 16.1865 18.7036 15.1548 16.5032C14.2653 14.6062 13.4371 12.84 11.4 12.84C9.64 12.84 8.48 14.2 8.48 15.96C8.48 17.72 9.6 19.04 11.32 19.08C12.24 19.08 12.96 18.72 13.64 18.08L15 19.52C14.12 20.56 12.8 21.08 11.36 21.08C10.24 21.08 9.36 20.72 8.68 20.16L8.6 20.2V24.96H6.48V16.04C6.48 13.12 8.56 10.92 11.52 10.92C14.6992 10.92 15.8135 13.2964 16.8452 15.4968C17.7347 17.3938 18.5629 19.16 20.6 19.16C22.36 19.16 23.52 17.8 23.52 16.04C23.52 14.28 22.4 12.96 20.68 12.92C19.76 12.92 19.04 13.28 18.36 13.92L17 12.48C17.88 11.44 19.2 10.92 20.64 10.92C21.76 10.92 22.64 11.28 23.32 11.84L23.4 11.8Z" fill="#18181B" fill-opacity="0.8"/>
</g>
<defs>
<clipPath id="clip0_7209_1425">
<rect width="128" height="32" fill="white"/>
</clipPath>
</defs>
</svg>
