<svg width="97" height="24" viewBox="0 0 97 24" fill="none" xmlns="http://www.w3.org/2000/svg">
<g clip-path="url(#clip0_440_307)">
<path d="M33.3778 12.3288V16.2288H31.7578V6.29883H35.6278C37.9378 6.29883 39.1678 7.46883 39.1678 9.32883C39.1678 11.1888 37.9378 12.3588 35.6278 12.3588H33.3778V12.3288ZM33.3778 7.79883V10.7988H35.5978C36.8878 10.7988 37.4878 10.3188 37.4878 9.29883C37.4878 8.27883 36.8878 7.79883 35.5978 7.79883H33.3778Z" fill="#A1A1AA"/>
<path d="M46.52 16.2295H45.02V15.4195C44.54 16.0195 43.85 16.4095 42.89 16.4095C41 16.4095 39.5 14.9095 39.5 12.8395C39.5 10.7695 41 9.26953 42.89 9.26953C43.85 9.26953 44.57 9.65953 45.02 10.2595V9.44953H46.52V16.2295ZM41 12.8395C41 14.0395 41.78 15.0295 43.04 15.0295C44.27 15.0295 45.08 14.0995 45.08 12.8395C45.08 11.6095 44.27 10.6495 43.04 10.6495C41.78 10.6495 41 11.6395 41 12.8395Z" fill="#A1A1AA"/>
<path d="M54.4694 11.9695V16.2595H52.9694V12.4495C52.9694 11.3095 52.3694 10.6795 51.3794 10.6795C50.4194 10.6795 49.6094 11.3095 49.6094 12.4795V16.2595H48.1094V9.44953H49.5794V10.2895C50.1194 9.47953 50.9594 9.26953 51.6794 9.26953C53.3294 9.26953 54.4694 10.3795 54.4694 11.9695Z" fill="#A1A1AA"/>
<path d="M60.9497 10.26V6H62.4497V16.23H60.9497V15.42C60.4697 16.02 59.7797 16.41 58.8197 16.41C56.9297 16.41 55.4297 14.91 55.4297 12.84C55.4297 10.77 56.9297 9.27 58.8197 9.27C59.7797 9.27 60.4997 9.66 60.9497 10.26ZM56.9297 12.84C56.9297 14.04 57.7097 15.03 58.9697 15.03C60.1997 15.03 61.0097 14.1 61.0097 12.84C61.0097 11.61 60.1997 10.65 58.9697 10.65C57.7097 10.65 56.9297 11.64 56.9297 12.84Z" fill="#A1A1AA"/>
<path d="M70.6098 16.2295H69.1098V15.4195C68.6298 16.0195 67.9398 16.4095 66.9798 16.4095C65.0898 16.4095 63.5898 14.9095 63.5898 12.8395C63.5898 10.7695 65.0898 9.26953 66.9798 9.26953C67.9398 9.26953 68.6598 9.65953 69.1098 10.2595V9.44953H70.6098V16.2295ZM65.0898 12.8395C65.0898 14.0395 65.8698 15.0295 67.1298 15.0295C68.3598 15.0295 69.1698 14.0995 69.1698 12.8395C69.1698 11.6095 68.3598 10.6495 67.1298 10.6495C65.8698 10.6495 65.0898 11.6395 65.0898 12.8395Z" fill="#A1A1AA"/>
<path d="M76.2491 6.29883C79.3691 6.29883 81.4091 8.27883 81.4091 11.2788C81.4091 14.2788 79.3691 16.2588 76.2491 16.2588H72.2891V6.29883H76.2491ZM73.9091 7.82883V14.7288H76.2491C78.5891 14.7288 79.7291 13.2888 79.7291 11.2788C79.7291 9.23883 78.5891 7.82883 76.2491 7.82883H73.9091Z" fill="#A1A1AA"/>
<path d="M89.5114 12.8395C89.5114 14.8795 87.9514 16.4095 85.8514 16.4095C83.7514 16.4095 82.1914 14.8795 82.1914 12.8395C82.1914 10.7995 83.7514 9.26953 85.8514 9.26953C87.9514 9.26953 89.5114 10.7995 89.5114 12.8395ZM83.7214 12.8395C83.7214 14.1295 84.6514 15.0295 85.8514 15.0295C87.0814 15.0295 87.9814 14.1295 87.9814 12.8395C87.9814 11.5495 87.0514 10.6495 85.8514 10.6495C84.6514 10.6495 83.7214 11.5495 83.7214 12.8395Z" fill="#A1A1AA"/>
<path d="M96.5002 10.3506L95.5401 11.3706C95.0601 10.9206 94.5502 10.6806 93.9202 10.6806C92.7802 10.6806 91.9102 11.5806 91.9102 12.8706C91.9102 14.1606 92.7802 15.0606 93.9202 15.0606C94.5802 15.0606 95.1502 14.7606 95.6002 14.3406L96.5302 15.3606C95.9002 16.0806 95.0002 16.4406 93.9802 16.4406C91.8202 16.4406 90.4102 14.9106 90.4102 12.8706C90.4102 10.8306 91.8202 9.30056 93.9802 9.30056C94.9702 9.27056 95.9002 9.63056 96.5002 10.3506Z" fill="#A1A1AA"/>
<path fill-rule="evenodd" clip-rule="evenodd" d="M0.5 0H24.5V24H0.5V0ZM18.05 8.85V5.31H19.64V11.97C19.64 14.16 18.08 15.81 15.86 15.81C13.4756 15.81 12.6399 14.0277 11.8661 12.3774C11.199 10.9547 10.5778 9.63 9.05 9.63C7.73 9.63 6.86 10.65 6.86 11.97C6.86 13.29 7.7 14.28 8.99 14.31C9.68 14.31 10.22 14.04 10.73 13.56L11.75 14.64C11.09 15.42 10.1 15.81 9.02 15.81C8.18 15.81 7.52 15.54 7.01 15.12L6.95 15.15V18.72H5.36V12.03C5.36 9.84 6.92 8.19 9.14 8.19C11.5244 8.19 12.3601 9.97228 13.1339 11.6226C13.801 13.0453 14.4222 14.37 15.95 14.37C17.27 14.37 18.14 13.35 18.14 12.03C18.14 10.71 17.3 9.72 16.01 9.69C15.32 9.69 14.78 9.96 14.27 10.44L13.25 9.36C13.91 8.58 14.9 8.19 15.98 8.19C16.82 8.19 17.48 8.46 17.99 8.88L18.05 8.85Z" fill="#A1A1AA"/>
</g>
<defs>
<clipPath id="clip0_440_307">
<rect width="96" height="24" fill="white" transform="translate(0.5)"/>
</clipPath>
</defs>
</svg>
