<svg width="20" height="20" viewBox="0 0 20 20" fill="none" xmlns="http://www.w3.org/2000/svg">
<path d="M13.125 11C13.125 11.6181 12.9417 12.2223 12.5983 12.7362C12.255 13.2501 11.7669 13.6506 11.1959 13.8871C10.6249 14.1236 9.99653 14.1855 9.39034 14.065C8.78415 13.9444 8.22733 13.6467 7.79029 13.2097C7.35325 12.7727 7.05562 12.2158 6.93505 11.6097C6.81447 11.0035 6.87635 10.3751 7.11288 9.80411C7.3494 9.2331 7.74994 8.74504 8.26384 8.40166C8.77775 8.05828 9.38193 7.875 10 7.875C10.8288 7.875 11.6237 8.20424 12.2097 8.79029C12.7958 9.37634 13.125 10.1712 13.125 11ZM19.375 6V16C19.375 16.1658 19.3092 16.3247 19.1919 16.4419C19.0747 16.5592 18.9158 16.625 18.75 16.625H1.25C1.08424 16.625 0.925268 16.5592 0.808058 16.4419C0.690848 16.3247 0.625 16.1658 0.625 16V6C0.625 5.83424 0.690848 5.67527 0.808058 5.55806C0.925268 5.44085 1.08424 5.375 1.25 5.375H18.75C18.9158 5.375 19.0747 5.44085 19.1919 5.55806C19.3092 5.67527 19.375 5.83424 19.375 6ZM18.125 9.62109C17.4153 9.41125 16.7694 9.02719 16.2461 8.50389C15.7228 7.98059 15.3387 7.33468 15.1289 6.625H4.87109C4.66125 7.33468 4.27719 7.98059 3.75389 8.50389C3.23059 9.02719 2.58468 9.41125 1.875 9.62109V12.3789C2.58468 12.5887 3.23059 12.9728 3.75389 13.4961C4.27719 14.0194 4.66125 14.6653 4.87109 15.375H15.1289C15.3387 14.6653 15.7228 14.0194 16.2461 13.4961C16.7694 12.9728 17.4153 12.5887 18.125 12.3789V9.62109Z" fill="white"/>
</svg>
