<svg width="253" height="150" viewBox="0 0 253 150" fill="none" xmlns="http://www.w3.org/2000/svg">
<path d="M218.145 148.543C219.918 148.543 221.269 147.958 222.196 146.789C223.123 145.62 223.808 143.625 224.251 140.804L229.511 107.431H229.39C227.979 107.431 226.67 107.713 225.46 108.277C224.291 108.801 223.183 109.648 222.135 110.816C221.087 111.945 220.08 113.436 219.112 115.29C218.185 117.104 217.258 119.321 216.331 121.941H215.727L218.084 106.826H252.123L249.765 121.941H249.16C249.039 119.321 248.797 117.104 248.435 115.29C248.072 113.436 247.548 111.925 246.863 110.756C246.177 109.587 245.331 108.741 244.323 108.217C243.316 107.693 242.107 107.431 240.696 107.431H240.394L235.134 140.804C234.69 143.625 234.731 145.62 235.255 146.789C235.819 147.958 237.008 148.543 238.822 148.543L238.761 149.147H218.084L218.145 148.543Z" fill="white"/>
<path d="M195.5 148.965C197.677 148.965 199.471 148.36 200.881 147.151C202.292 145.902 202.997 144.249 202.997 142.193C202.997 141.025 202.755 140.017 202.272 139.171C201.828 138.284 201.184 137.478 200.337 136.752C199.531 136.027 198.584 135.362 197.496 134.757C196.448 134.153 195.319 133.528 194.11 132.883C192.981 132.278 191.812 131.633 190.603 130.948C189.434 130.223 188.366 129.376 187.399 128.409C186.432 127.442 185.626 126.313 184.981 125.023C184.376 123.734 184.074 122.182 184.074 120.368C184.074 118.151 184.537 116.176 185.464 114.443C186.391 112.67 187.641 111.178 189.213 109.969C190.785 108.76 192.598 107.833 194.654 107.188C196.71 106.543 198.846 106.221 201.063 106.221C205.537 106.221 209.668 107.47 213.457 109.969L211.582 121.94H210.978C210.615 119.683 210.071 117.627 209.345 115.773C208.62 113.919 207.753 112.327 206.746 110.997C205.778 109.667 204.69 108.639 203.481 107.914C202.272 107.188 200.982 106.825 199.612 106.825C198.604 106.825 197.677 107.027 196.831 107.43C196.024 107.793 195.339 108.296 194.775 108.941C194.211 109.586 193.767 110.332 193.445 111.178C193.122 112.025 192.961 112.911 192.961 113.838C192.961 115.007 193.183 116.035 193.626 116.922C194.11 117.809 194.735 118.615 195.5 119.34C196.307 120.025 197.213 120.67 198.221 121.275C199.229 121.839 200.277 122.403 201.365 122.968C202.574 123.613 203.783 124.318 204.992 125.084C206.202 125.809 207.29 126.656 208.257 127.623C209.225 128.59 210.01 129.719 210.615 131.009C211.22 132.258 211.522 133.749 211.522 135.483C211.522 137.78 210.978 139.815 209.89 141.589C208.842 143.362 207.431 144.854 205.657 146.063C203.924 147.272 201.949 148.199 199.733 148.844C197.516 149.448 195.259 149.751 192.961 149.751C190.946 149.751 188.769 149.529 186.432 149.086C184.134 148.602 181.917 147.937 179.781 147.091L182.2 131.613H182.804C182.925 134.032 183.308 136.309 183.953 138.445C184.598 140.541 185.464 142.375 186.553 143.947C187.681 145.519 188.991 146.748 190.482 147.635C192.014 148.521 193.687 148.965 195.5 148.965Z" fill="white"/>
<path d="M165.872 115.049C166.315 112.227 166.255 110.252 165.69 109.124C165.166 107.995 163.997 107.431 162.184 107.431L162.244 106.826H182.921L182.861 107.431C181.047 107.431 179.676 107.995 178.749 109.124C177.863 110.252 177.198 112.227 176.754 115.049L172.643 140.804C172.2 143.666 172.24 145.681 172.764 146.85C173.328 147.978 174.517 148.543 176.331 148.543L176.271 149.147H155.594L155.654 148.543C157.428 148.543 158.778 147.958 159.705 146.789C160.632 145.62 161.317 143.625 161.761 140.804L165.872 115.049Z" fill="white"/>
<path d="M162.142 107.431C161.618 107.431 161.054 107.572 160.449 107.854C159.885 108.136 159.3 108.519 158.696 109.003C158.132 109.486 157.587 110.051 157.063 110.696C156.58 111.34 156.177 112.026 155.854 112.751L138.442 149.752H136.628L131.308 115.169H131.187L114.984 149.752H113.171L107.367 111.663C107.165 110.252 106.661 109.204 105.855 108.519C105.089 107.794 104.122 107.431 102.953 107.431L103.014 106.826H125.081L125.02 107.431C124.335 107.431 123.63 107.532 122.904 107.733C122.219 107.935 121.574 108.237 120.97 108.64C120.405 109.003 119.942 109.486 119.579 110.091C119.216 110.655 119.035 111.32 119.035 112.086C119.035 112.167 119.035 112.267 119.035 112.388C119.035 112.509 119.055 112.691 119.096 112.932L121.635 134.032H121.756L131.187 113.96L130.824 111.663C130.623 110.413 130.18 109.406 129.494 108.64C128.809 107.834 127.781 107.431 126.411 107.431L126.471 106.826H148.539L148.478 107.431C147.793 107.431 147.088 107.532 146.362 107.733C145.677 107.935 145.032 108.237 144.428 108.64C143.863 109.003 143.4 109.486 143.037 110.091C142.674 110.655 142.493 111.32 142.493 112.086C142.493 112.167 142.493 112.267 142.493 112.388C142.493 112.509 142.513 112.691 142.553 112.932L145.093 134.032H145.214L155.068 112.993C155.35 112.429 155.492 111.885 155.492 111.361C155.492 110.756 155.31 110.212 154.947 109.728C154.585 109.204 154.121 108.781 153.557 108.459C153.033 108.136 152.428 107.894 151.743 107.733C151.098 107.532 150.473 107.431 149.869 107.431L149.929 106.826H162.202L162.142 107.431Z" fill="white"/>
<path d="M67.7699 148.543C69.5433 148.543 70.8936 147.958 71.8206 146.789C72.7477 145.62 73.4328 143.625 73.8762 140.804L79.1361 107.431H79.0152C77.6045 107.431 76.2945 107.713 75.0854 108.277C73.9165 108.801 72.8081 109.648 71.7602 110.816C70.7122 111.945 69.7046 113.436 68.7372 115.29C67.8102 117.104 66.8832 119.321 65.9561 121.941H65.3516L67.7094 106.826H101.748L99.3897 121.941H98.7851C98.6642 119.321 98.4223 117.104 98.0596 115.29C97.6968 113.436 97.1729 111.925 96.4877 110.756C95.8025 109.587 94.9561 108.741 93.9484 108.217C92.9408 107.693 91.7316 107.431 90.3209 107.431H90.0186L84.7587 140.804C84.3154 143.625 84.3557 145.62 84.8796 146.789C85.4439 147.958 86.6329 148.543 88.4467 148.543L88.3862 149.147H67.7094L67.7699 148.543Z" fill="white"/>
<path d="M183.617 95.4322C184.625 95.4322 185.632 94.9284 186.64 93.9208C187.688 92.8728 188.494 91.6032 189.058 90.1119L202.42 53.1113H204.234L217.897 91.2002C218.905 94.0215 220.598 95.4322 222.976 95.4322V96.0368H200.908V95.4322C202.44 95.4322 203.689 95.0493 204.657 94.2835C205.664 93.5177 206.168 92.5504 206.168 91.3815C206.168 90.9785 206.108 90.5754 205.987 90.1724L203.629 82.9778H192.263L189.784 89.8701C189.663 90.2328 189.603 90.5956 189.603 90.9583C189.603 92.2078 190.207 93.2759 191.416 94.1626C192.666 95.009 194.157 95.4322 195.89 95.4322V96.0368H183.617V95.4322ZM192.505 82.3732H203.387L198.248 66.7749H198.127L192.505 82.3732Z" fill="white"/>
<path d="M171.642 95.9159C173.577 95.9159 175.109 95.4322 176.237 94.4649C177.406 93.4573 177.991 92.0063 177.991 90.1119C177.991 88.8221 177.708 87.6936 177.144 86.7262C176.62 85.7589 175.895 84.8923 174.968 84.1265C174.041 83.3607 172.972 82.6554 171.763 82.0105C170.554 81.3656 169.305 80.7207 168.015 80.0758C166.524 79.3503 165.032 78.5845 163.541 77.7784C162.05 76.932 160.699 75.9646 159.49 74.8764C158.321 73.7478 157.354 72.458 156.588 71.007C155.863 69.5157 155.5 67.7423 155.5 65.6867C155.5 63.752 155.843 62.0189 156.528 60.4873C157.213 58.9153 158.18 57.5853 159.43 56.497C160.72 55.4087 162.271 54.5825 164.085 54.0182C165.899 53.4136 167.914 53.1113 170.131 53.1113C174.726 53.1113 179.119 54.3608 183.311 56.8598V68.8305H182.706C181.981 66.5734 181.114 64.5178 180.107 62.6638C179.099 60.8097 177.991 59.2176 176.781 57.8875C175.572 56.5575 174.303 55.5297 172.972 54.8042C171.642 54.0787 170.292 53.7159 168.922 53.7159C167.229 53.7159 165.879 54.2399 164.871 55.2878C163.863 56.2955 163.36 57.7263 163.36 59.5804C163.36 60.9508 163.642 62.1398 164.206 63.1474C164.77 64.1551 165.516 65.0619 166.443 65.8681C167.41 66.6339 168.499 67.3392 169.708 67.9841C170.917 68.629 172.166 69.2739 173.456 69.9188C174.907 70.6443 176.338 71.4101 177.749 72.2162C179.2 72.982 180.489 73.909 181.618 74.9973C182.747 76.0452 183.653 77.2746 184.339 78.6853C185.064 80.0556 185.427 81.7082 185.427 83.6428C185.427 85.6178 185.044 87.4114 184.278 89.0237C183.512 90.5956 182.424 91.9458 181.013 93.0744C179.643 94.2029 177.95 95.0896 175.935 95.7345C173.96 96.3391 171.763 96.6414 169.345 96.6414C167.209 96.6414 164.932 96.4197 162.513 95.9764C160.095 95.4927 157.757 94.8277 155.5 93.9812V78.5039H156.105C156.548 80.9625 157.253 83.2599 158.221 85.3961C159.188 87.492 160.357 89.3259 161.727 90.8979C163.098 92.4698 164.629 93.6991 166.322 94.5858C168.015 95.4726 169.788 95.9159 171.642 95.9159Z" fill="white"/>
<path d="M131.739 53.1113C134.52 53.1113 137.1 53.6756 139.478 54.8042C141.896 55.8924 143.972 57.424 145.705 59.399C147.438 61.3337 148.789 63.6513 149.756 66.3517C150.764 69.0522 151.267 71.9744 151.267 75.1182C151.267 78.2217 150.784 81.1036 149.816 83.7638C148.849 86.3836 147.499 88.6609 145.766 90.5956C144.073 92.4899 142.037 93.9812 139.659 95.0695C137.322 96.1174 134.742 96.6414 131.921 96.6414C129.099 96.6414 126.5 96.0973 124.122 95.009C121.744 93.9208 119.688 92.4295 117.955 90.5351C116.222 88.6004 114.871 86.303 113.904 83.6428C112.937 80.9827 112.453 78.0807 112.453 74.9368C112.453 71.793 112.937 68.891 113.904 66.2308C114.871 63.5706 116.202 61.2732 117.894 59.3385C119.628 57.3636 121.663 55.832 124.001 54.7437C126.379 53.6555 128.958 53.1113 131.739 53.1113ZM131.679 53.7159C129.14 53.7159 127.205 55.4894 125.875 59.0363C124.585 62.5428 123.94 67.6818 123.94 74.4532C123.94 81.426 124.625 86.7665 125.996 90.4747C127.407 94.1828 129.422 96.0368 132.042 96.0368C134.581 96.0368 136.495 94.2835 137.785 90.7769C139.115 87.23 139.78 82.0709 139.78 75.2996C139.78 68.3267 139.075 62.9862 137.664 59.2781C136.294 55.57 134.299 53.7159 131.679 53.7159Z" fill="white"/>
<path d="M95.5185 60.9718H95.3975L85.6033 96.6423H83.7895L73.6325 60.9718H73.5116V88.299C73.5116 89.1455 73.5519 90.012 73.6325 90.8987C73.7131 91.7452 73.9549 92.511 74.358 93.1962C74.8014 93.8411 75.4462 94.3852 76.2927 94.8285C77.1794 95.2316 78.4087 95.4331 79.9806 95.4331V96.0377H68.0703V95.4331C69.1183 95.4331 69.9445 95.2316 70.5491 94.8285C71.194 94.3852 71.6777 93.8411 72.0001 93.1962C72.3629 92.511 72.6047 91.7452 72.7256 90.8987C72.8465 90.012 72.907 89.1455 72.907 88.299V61.395C72.907 60.5486 72.8667 59.7022 72.7861 58.8558C72.7055 58.0093 72.5039 57.2637 72.1815 56.6188C71.859 55.9336 71.3754 55.3895 70.7305 54.9864C70.0856 54.5431 69.1989 54.3214 68.0703 54.3214V53.7168H83.0036L89.5935 79.4721H89.7144L96.7276 53.7168H111.238V54.3214C109.424 54.3214 108.154 54.8857 107.429 56.0142C106.744 57.1428 106.401 59.1178 106.401 61.9391V87.6945C106.401 90.5562 106.764 92.5714 107.489 93.7403C108.215 94.8688 109.464 95.4331 111.238 95.4331V96.0377H89.0494V95.4331C90.6213 95.4331 91.8305 95.1913 92.6769 94.7076C93.5636 94.224 94.2085 93.6194 94.6116 92.8939C95.0549 92.1281 95.3169 91.2817 95.3975 90.3546C95.4781 89.4276 95.5185 88.5409 95.5185 87.6945V60.9718Z" fill="white"/>
<path d="M50.4831 61.9391C50.4831 59.1178 50.1203 57.1428 49.3948 56.0142C48.6693 54.8857 47.3997 54.3214 45.5859 54.3214V53.7168H66.2627V54.3214C64.449 54.3214 63.1793 54.8857 62.4538 56.0142C61.7283 57.1428 61.3656 59.1178 61.3656 61.9391V87.6945C61.3656 90.5562 61.7283 92.5714 62.4538 93.7403C63.1793 94.8689 64.449 95.4331 66.2627 95.4331V96.0377H45.5859V95.4331C47.3997 95.4331 48.6693 94.8689 49.3948 93.7403C50.1203 92.5714 50.4831 90.5562 50.4831 87.6945V61.9391Z" fill="white"/>
<path d="M27.4481 60.9718H27.3272L17.533 96.6423H15.7192L5.56217 60.9718H5.44126V88.299C5.44126 89.1455 5.48156 90.012 5.56217 90.8987C5.64279 91.7452 5.88462 92.511 6.28768 93.1962C6.73104 93.8411 7.37593 94.3852 8.22235 94.8285C9.10907 95.2316 10.3384 95.4331 11.9103 95.4331V96.0377H0V95.4331C1.04795 95.4331 1.87421 95.2316 2.47879 94.8285C3.12368 94.3852 3.60735 93.8411 3.9298 93.1962C4.29255 92.511 4.53438 91.7452 4.6553 90.8987C4.77621 90.012 4.83668 89.1455 4.83668 88.299V61.395C4.83668 60.5486 4.79637 59.7022 4.71576 58.8558C4.63515 58.0093 4.43362 57.2637 4.11117 56.6188C3.78873 55.9336 3.30506 55.3895 2.66017 54.9864C2.01528 54.5431 1.12856 54.3214 0 54.3214V53.7168H14.9332L21.5232 79.4721H21.6441L28.6573 53.7168H43.1673V54.3214C41.3536 54.3214 40.084 54.8857 39.3585 56.0142C38.6733 57.1428 38.3307 59.1178 38.3307 61.9391V87.6945C38.3307 90.5562 38.6934 92.5714 39.4189 93.7403C40.1444 94.8688 41.3939 95.4331 43.1673 95.4331V96.0377H20.9791V95.4331C22.551 95.4331 23.7602 95.1913 24.6066 94.7076C25.4933 94.224 26.1382 93.6194 26.5413 92.8939C26.9846 92.1281 27.2466 91.2817 27.3272 90.3546C27.4078 89.4276 27.4481 88.5409 27.4481 87.6945V60.9718Z" fill="white"/>
<path d="M252.128 1.21005C251.121 1.21005 250.093 1.67357 249.045 2.6006C247.997 3.52763 247.211 4.65619 246.687 5.98627L239.371 24.4866V32.9507C239.371 36.3767 239.734 38.7951 240.46 40.2058C241.185 41.6165 242.455 42.3218 244.269 42.3218V42.9264H223.592V42.3218C225.365 42.3218 226.615 41.6366 227.34 40.2662C228.106 38.8555 228.489 36.4573 228.489 33.0717V24.6075L219.36 4.89802C218.231 2.43938 216.538 1.21005 214.281 1.21005V0.605469H236.288V1.21005C234.595 1.21005 233.366 1.51235 232.6 2.11693C231.834 2.68121 231.451 3.40671 231.451 4.29343C231.451 4.7771 231.572 5.30108 231.814 5.86536L239.069 23.3379H239.19L245.961 6.16765C246.082 5.8452 246.143 5.52276 246.143 5.20031C246.143 4.71665 245.982 4.25313 245.659 3.80977C245.337 3.3261 244.893 2.90289 244.329 2.54014C243.805 2.13708 243.16 1.81464 242.394 1.57281C241.629 1.33097 240.802 1.21005 239.916 1.21005V0.605469H252.128V1.21005Z" fill="white"/>
<path d="M177.975 8.82782C177.975 6.00643 177.613 4.03145 176.887 2.90289C176.162 1.77433 174.892 1.21005 173.078 1.21005V0.605469H192.848V1.21005C191.478 1.21005 190.47 1.77433 189.825 2.90289C189.18 4.03145 188.858 6.00643 188.858 8.82782V20.2545H197.927V8.82782C197.927 6.00643 197.604 4.03145 196.959 2.90289C196.314 1.77433 195.307 1.21005 193.936 1.21005V0.605469H213.706V1.21005C211.892 1.21005 210.623 1.77433 209.897 2.90289C209.172 4.03145 208.809 6.00643 208.809 8.82782V34.5831C208.809 37.4448 209.172 39.4601 209.897 40.629C210.623 41.7575 211.892 42.3218 213.706 42.3218V42.9264H193.936V42.3218C195.266 42.3218 196.254 41.7575 196.899 40.629C197.584 39.4601 197.927 37.4448 197.927 34.5831V20.8591H188.858V34.5831C188.858 37.4448 189.18 39.4601 189.825 40.629C190.51 41.7575 191.518 42.3218 192.848 42.3218V42.9264H173.078V42.3218C174.892 42.3218 176.162 41.7575 176.887 40.629C177.613 39.4601 177.975 37.4448 177.975 34.5831V8.82782Z" fill="white"/>
<path d="M158.24 0.604584C157.03 0.604584 155.882 1.14871 154.794 2.23696C153.705 3.28491 152.758 4.75607 151.952 6.65043C151.146 8.5448 150.501 10.7818 150.017 13.3613C149.534 15.9409 149.292 18.7421 149.292 21.765C149.292 24.788 149.534 27.5892 150.017 30.1688C150.501 32.7483 151.146 34.9853 151.952 36.8797C152.758 38.774 153.705 40.2653 154.794 41.3536C155.882 42.4015 157.03 42.9255 158.24 42.9255C159.288 42.9255 160.275 42.5224 161.202 41.7163C162.129 40.8699 163.016 39.6809 163.862 38.1493C164.749 36.6177 165.595 34.7838 166.402 32.6476C167.208 30.4711 168.014 28.0527 168.82 25.3925H169.424V41.0513C167.933 41.8574 166.26 42.4821 164.406 42.9255C162.552 43.3286 160.718 43.5301 158.905 43.5301C155.882 43.5301 153.081 42.986 150.501 41.8977C147.921 40.8095 145.684 39.298 143.79 37.3633C141.936 35.4287 140.465 33.1514 139.377 30.5315C138.329 27.8713 137.805 24.9693 137.805 21.8255C137.805 18.6817 138.329 15.7797 139.377 13.1195C140.465 10.4593 141.936 8.16189 143.79 6.22722C145.684 4.29255 147.921 2.78109 150.501 1.69284C153.081 0.564279 155.882 0 158.905 0C160.718 0 162.552 0.221681 164.406 0.665042C166.26 1.0681 167.933 1.67269 169.424 2.4788V16.8679H168.82C168.014 14.5302 167.208 12.3738 166.402 10.3989C165.595 8.42388 164.749 6.71089 163.862 5.25989C163.016 3.80888 162.129 2.68032 161.202 1.87421C160.275 1.02779 159.288 0.604584 158.24 0.604584Z" fill="white"/>
<path d="M101.453 42.3209C102.461 42.3209 103.468 41.8171 104.476 40.8095C105.524 39.7615 106.33 38.4919 106.894 37.0006L120.256 0H122.069L135.733 38.0888C136.741 40.9102 138.434 42.3209 140.812 42.3209V42.9255H118.744V42.3209C120.276 42.3209 121.525 41.938 122.493 41.1722C123.5 40.4064 124.004 39.4391 124.004 38.2702C124.004 37.8671 123.944 37.4641 123.823 37.061L121.465 29.8665H110.099L107.62 36.7587C107.499 37.1215 107.439 37.4842 107.439 37.847C107.439 39.0965 108.043 40.1646 109.252 41.0513C110.502 41.8977 111.993 42.3209 113.726 42.3209V42.9255H101.453V42.3209ZM110.341 29.2619H121.223L116.084 13.6636H115.963L110.341 29.2619Z" fill="white"/>
<path d="M72.7721 8.82782C72.7721 6.00643 72.4094 4.03145 71.6839 2.90289C70.9584 1.77433 69.6888 1.21005 67.875 1.21005V0.605469H99.0111V15.7201H98.4065C96.4718 6.04673 92.4413 1.21005 86.3148 1.21005H83.6547V20.8591H86.9194C88.0077 20.8591 88.9952 20.6978 89.8819 20.3754C90.8089 20.0529 91.5949 19.5894 92.2398 18.9848C92.9249 18.3803 93.4489 17.6749 93.8117 16.8688C94.1744 16.0627 94.3558 15.176 94.3558 14.2086H94.9604V28.1141H94.3558C94.3558 27.1467 94.1744 26.26 93.8117 25.4539C93.4489 24.6478 92.9249 23.9424 92.2398 23.3379C91.5949 22.7333 90.8089 22.2698 89.8819 21.9473C88.9952 21.6249 88.0077 21.4636 86.9194 21.4636H83.6547V42.3218H86.9194C88.5719 42.3218 90.0633 41.9994 91.3933 41.3545C92.7234 40.7096 93.8923 39.7019 94.8999 38.3315C95.9479 36.9612 96.8548 35.2079 97.6206 33.0717C98.3864 30.9355 99.0514 28.3761 99.6157 25.3934H100.22V42.9264H67.875V42.3218C69.6888 42.3218 70.9584 41.7575 71.6839 40.629C72.4094 39.4601 72.7721 37.4448 72.7721 34.5831V8.82782Z" fill="white"/>
<path d="M48.7124 0.605469C54.597 0.605469 59.0508 1.63326 62.0737 3.68885C65.1369 5.70413 66.6685 8.6666 66.6685 12.5762C66.6685 16.4456 65.1571 19.3476 62.1341 21.2823C59.1515 23.2169 54.6776 24.1843 48.7124 24.1843H48.1078V34.5831C48.1078 37.4448 48.4705 39.4601 49.196 40.629C49.9215 41.7575 51.1912 42.3218 53.0049 42.3218V42.9264H32.3281V42.3218C34.1419 42.3218 35.4115 41.7575 36.137 40.629C36.8625 39.4601 37.2253 37.4448 37.2253 34.5831V8.82782C37.2253 6.00643 36.8625 4.03145 36.137 2.90289C35.4115 1.77433 34.1419 1.21005 32.3281 1.21005V0.605469H48.7124ZM48.531 23.5797C50.6672 23.5797 52.2996 22.6325 53.4281 20.7381C54.597 18.8035 55.1814 16.0627 55.1814 12.5158C55.1814 8.96889 54.597 6.20795 53.4281 4.23298C52.2593 2.21769 50.6269 1.21005 48.531 1.21005H48.1078V23.5797H48.531Z" fill="white"/>
</svg>
