<svg width="28" height="28" viewBox="0 0 28 28" fill="none" xmlns="http://www.w3.org/2000/svg">
<path d="M25.2 23.9738C25.2978 24.1038 25.3575 24.2585 25.3722 24.4205C25.387 24.5825 25.3563 24.7454 25.2836 24.891C25.2109 25.0365 25.099 25.1589 24.9606 25.2444C24.8222 25.3298 24.6627 25.375 24.5 25.3749H3.5C3.3375 25.3749 3.17821 25.3296 3.03999 25.2442C2.90176 25.1588 2.79005 25.0365 2.71738 24.8912C2.64471 24.7459 2.61394 24.5832 2.62854 24.4213C2.64313 24.2595 2.7025 24.1049 2.8 23.9749C3.5748 22.9361 4.60799 22.1182 5.79688 21.6025C5.14519 21.0078 4.68857 20.2298 4.48694 19.3709C4.28532 18.5119 4.3481 17.6121 4.66707 16.7895C4.98603 15.9668 5.54626 15.2599 6.27422 14.7614C7.00219 14.2629 7.86387 13.9961 8.74617 13.9961C9.62847 13.9961 10.4902 14.2629 11.2181 14.7614C11.9461 15.2599 12.5063 15.9668 12.8253 16.7895C13.1442 17.6121 13.207 18.5119 13.0054 19.3709C12.8038 20.2298 12.3471 21.0078 11.6955 21.6025C12.5532 21.9733 13.3327 22.5037 13.9923 23.1655C14.652 22.5037 15.4315 21.9733 16.2892 21.6025C15.6375 21.0078 15.1809 20.2298 14.9793 19.3709C14.7777 18.5119 14.8404 17.6121 15.1594 16.7895C15.4784 15.9668 16.0386 15.2599 16.7666 14.7614C17.4945 14.2629 18.3562 13.9961 19.2385 13.9961C20.1208 13.9961 20.9825 14.2629 21.7105 14.7614C22.4384 15.2599 22.9987 15.9668 23.3176 16.7895C23.6366 17.6121 23.6994 18.5119 23.4977 19.3709C23.2961 20.2298 22.8395 21.0078 22.1878 21.6025C23.3822 22.1155 24.4209 22.9332 25.2 23.9738ZM2.975 13.8249C3.06693 13.8938 3.17153 13.944 3.28284 13.9725C3.39415 14.001 3.50999 14.0073 3.62374 13.9911C3.7375 13.9748 3.84693 13.9363 3.94581 13.8778C4.04468 13.8193 4.13106 13.7418 4.2 13.6499C4.72977 12.9435 5.41673 12.3702 6.20647 11.9753C6.99621 11.5805 7.86704 11.3749 8.75 11.3749C9.63296 11.3749 10.5038 11.5805 11.2935 11.9753C12.0833 12.3702 12.7702 12.9435 13.3 13.6499C13.3815 13.7586 13.4872 13.8468 13.6087 13.9075C13.7302 13.9683 13.8642 13.9999 14 13.9999C14.1358 13.9999 14.2698 13.9683 14.3913 13.9075C14.5128 13.8468 14.6185 13.7586 14.7 13.6499C15.2298 12.9435 15.9167 12.3702 16.7065 11.9753C17.4962 11.5805 18.367 11.3749 19.25 11.3749C20.133 11.3749 21.0038 11.5805 21.7935 11.9753C22.5833 12.3702 23.2702 12.9435 23.8 13.6499C23.869 13.7418 23.9555 13.8192 24.0544 13.8778C24.1533 13.9363 24.2628 13.9747 24.3766 13.9909C24.4904 14.0071 24.6063 14.0008 24.7177 13.9722C24.829 13.9436 24.9336 13.8934 25.0255 13.8243C25.1175 13.7553 25.1949 13.6689 25.2534 13.5699C25.3119 13.471 25.3504 13.3615 25.3666 13.2477C25.3828 13.1339 25.3764 13.018 25.3478 12.9067C25.3193 12.7953 25.269 12.6907 25.2 12.5988C24.4252 11.5603 23.392 10.7428 22.2031 10.2275C22.8548 9.63277 23.3114 8.85485 23.5131 7.9959C23.7147 7.13695 23.6519 6.2371 23.3329 5.41448C23.014 4.59185 22.4537 3.88488 21.7258 3.38637C20.9978 2.88786 20.1361 2.62109 19.2538 2.62109C18.3715 2.62109 17.5098 2.88786 16.7819 3.38637C16.0539 3.88488 15.4937 4.59185 15.1747 5.41448C14.8558 6.2371 14.793 7.13695 14.9946 7.9959C15.1962 8.85485 15.6529 9.63277 16.3045 10.2275C15.4468 10.5983 14.6673 11.1287 14.0077 11.7905C13.348 11.1287 12.5685 10.5983 11.7108 10.2275C12.3625 9.63277 12.8191 8.85485 13.0207 7.9959C13.2223 7.13695 13.1596 6.2371 12.8406 5.41448C12.5216 4.59185 11.9614 3.88488 11.2334 3.38637C10.5055 2.88786 9.64378 2.62109 8.76149 2.62109C7.87919 2.62109 7.0175 2.88786 6.28954 3.38637C5.56157 3.88488 5.00134 4.59185 4.68238 5.41448C4.36342 6.2371 4.30063 7.13695 4.50226 7.9959C4.70389 8.85485 5.16051 9.63277 5.81219 10.2275C4.61773 10.7409 3.57903 11.559 2.8 12.5999C2.73106 12.6918 2.68089 12.7964 2.65238 12.9077C2.62386 13.019 2.61754 13.1349 2.63379 13.2486C2.65004 13.3624 2.68854 13.4718 2.74709 13.5707C2.80563 13.6696 2.88308 13.7559 2.975 13.8249Z" fill="#136DF5"/>
</svg>
