<svg width="196" height="196" viewBox="0 0 196 196" fill="none" xmlns="http://www.w3.org/2000/svg">
<path d="M183.385 91.6707C183.083 87.7303 182.509 83.8129 181.669 80.0137L180.649 80.2401C181.476 83.9639 182.037 87.8058 182.335 91.6707H176.695V92.7173H187.555V91.6707H183.385Z" fill="#F7AA92"/>
<path d="M19.9574 91.6707H14.3504C14.6522 87.8058 15.2132 83.9639 16.04 80.2401L15.0164 80.0137C14.1765 83.8097 13.6023 87.7303 13.3005 91.6707H9.09766V92.7173H19.9574V91.6707Z" fill="#F7AA92"/>
<path d="M19.9574 108.017H14.3504C14.6522 111.882 15.2132 115.724 16.04 119.448L15.0164 119.674C14.1765 115.878 13.6023 111.961 13.3005 108.017H9.09766V106.971H19.9574V108.017Z" fill="#F7AA92"/>
<path d="M176.695 108.017H182.299C181.997 111.882 181.436 115.724 180.613 119.448L181.633 119.674C182.473 115.878 183.047 111.961 183.349 108.017H187.552V106.971H176.692V108.017H176.695Z" fill="#F7AA92"/>
<path d="M98 0C43.9606 0 0 43.9638 0 98C0 152.039 43.9606 196 98 196C152.039 196 196 152.039 196 98C196 43.9638 152.039 0 98 0ZM98 193.497C45.1581 193.497 2.16538 150.507 2.16538 97.6653C2.16538 44.8234 45.1581 1.83073 98 1.83073C150.842 1.83073 193.831 44.8234 193.831 97.6653C193.835 150.511 150.842 193.497 98 193.497Z" fill="#F7AA92"/>
<path d="M170.579 18.2509H172.476C172.587 18.2509 172.669 18.2476 172.728 18.2443L174.454 21.1676H175.619L173.746 18.0934C174.087 18.0015 174.389 17.8506 174.641 17.6373C174.897 17.4274 175.094 17.1682 175.235 16.8598C175.376 16.5514 175.448 16.2102 175.448 15.8361C175.448 15.3571 175.34 14.9306 175.12 14.5631C174.9 14.1924 174.595 13.907 174.205 13.7036C173.814 13.5001 173.372 13.3984 172.873 13.3984H169.572V21.1676H170.583V18.2509H170.579ZM170.579 14.3105H172.83C173.132 14.3105 173.404 14.3761 173.647 14.5107C173.89 14.6452 174.083 14.8289 174.225 15.0618C174.366 15.2948 174.438 15.5573 174.438 15.8493C174.438 16.1511 174.369 16.4168 174.231 16.6498C174.093 16.8827 173.903 17.0632 173.664 17.1944C173.421 17.3257 173.148 17.3913 172.85 17.3913H170.583V14.3105H170.579Z" fill="#F7AA92"/>
<path d="M172.266 24.0512C175.996 24.0512 179.034 21.0164 179.034 17.286C179.034 13.5524 176 10.5176 172.266 10.5176C168.536 10.5176 165.498 13.5524 165.498 17.286C165.501 21.0164 168.536 24.0512 172.266 24.0512ZM172.266 11.492C175.458 11.492 178.06 14.0905 178.06 17.286C178.06 20.4783 175.462 23.0768 172.266 23.0768C169.074 23.0768 166.475 20.4783 166.475 17.286C166.475 14.0937 169.074 11.492 172.266 11.492Z" fill="#F7AA92"/>
<path d="M22.8215 71.0046L20.6988 70.1975L21.4632 68.183C21.4632 68.183 22.641 65.0399 18.9107 63.6226C15.6954 62.4021 14.5996 65.2958 14.5996 65.2958L12.7295 70.2237C13.5924 69.9055 14.5766 70.25 14.7111 70.3025L22.0472 73.0879C22.1817 73.1404 23.1463 73.5374 23.5794 74.3478L24.8097 71.103C23.8386 71.3884 22.8215 71.0046 22.8215 71.0046ZM20.0491 69.9514L14.7965 67.9566L15.2131 66.8674C15.2131 66.8674 16.0137 64.7775 18.1659 65.5944C20.8858 66.6246 20.5544 68.5045 20.0491 69.9514Z" fill="#F7AA92"/>
<path d="M19.9742 57.8849L26.8116 61.7432C26.9363 61.8154 27.832 62.3535 28.1371 63.2196L32.0184 56.3429L29.666 56.0082L29.9153 57.2976C29.9416 57.5437 29.9022 57.7832 29.7906 58.0096L28.5636 60.1848L24.9349 58.1342L25.7716 56.6513C25.7716 56.6513 26.2342 55.8343 27.2414 55.2996L25.181 54.1348C25.3647 55.0338 24.8792 55.9557 24.807 56.0837L23.9605 57.5798L20.4007 55.5719L21.6278 53.3966C21.7656 53.1834 21.9493 53.0292 22.1757 52.9242L23.3699 52.4255L21.9067 50.6309L18.0254 57.5109C18.9244 57.3271 19.8463 57.816 19.9742 57.8849Z" fill="#F7AA92"/>
<path d="M32.8942 51.6893C33.009 51.7779 33.803 52.4505 33.9769 53.3528L36.1291 50.6329C35.1121 50.6132 34.259 49.9374 34.259 49.9374L31.1947 47.5095C32.2052 47.6276 37.3562 48.1886 38.1108 47.9163C38.4618 47.7917 38.8293 47.4209 39.1443 47.0207C39.6069 46.4367 39.9514 45.7969 39.9514 45.7969C38.3503 46.3054 33.908 45.7247 32.6973 45.5541C33.1567 44.6354 33.5832 42.9458 31.6999 41.4563C29.7806 39.9339 27.858 42.3651 27.858 42.3651L24.8691 46.1381C25.7878 46.0987 26.6244 46.7188 26.736 46.8107L32.8942 51.6893ZM27.9761 44.0547C27.9761 44.0547 29.364 42.2995 30.6862 43.3461C32.53 44.8061 31.1652 46.581 31.1652 46.581L30.7222 47.1388L27.5299 44.6125L27.9761 44.0547Z" fill="#F7AA92"/>
<path d="M36.1092 35.8737L41.4505 41.6283C41.5489 41.7366 42.2379 42.5175 42.2674 43.4361L44.8101 41.0739C43.8062 40.9 43.068 40.106 43.068 40.106L40.7615 37.6224L42.0082 36.4642C42.0082 36.4642 42.6972 35.8245 43.8193 35.6243L42.2084 33.8887C42.1099 34.8041 41.3652 35.5325 41.2602 35.6309L40.0003 36.8022L37.2181 33.8067L39.0456 32.1072C39.2424 31.9497 39.4623 31.8513 39.7116 31.8218L41.001 31.7102L40.1512 29.5547L34.3638 34.9288C35.2791 35.0239 36.0075 35.7687 36.1092 35.8737Z" fill="#F7AA92"/>
<path d="M45.7549 27.5535L50.207 34.0201C50.289 34.1415 50.8566 35.0142 50.7517 35.9263L57.2544 31.4479L55.2891 30.1159L54.9479 31.3823C54.8626 31.6152 54.7248 31.8121 54.5247 31.9696L52.4676 33.3869L50.1053 29.9551L51.5095 28.9873C51.5095 28.9873 52.2838 28.4558 53.4223 28.4197L52.0804 26.4675C51.8507 27.3567 51.0108 27.9702 50.8894 28.0555L49.4754 29.0299L47.1591 25.6637L49.2162 24.2464C49.4327 24.1184 49.6657 24.0528 49.915 24.0594L51.2077 24.1348L50.6795 21.8809L44.1768 26.3593C45.0528 26.5922 45.6696 27.4354 45.7549 27.5535Z" fill="#F7AA92"/>
<path d="M56.6902 20.5507L60.0695 27.621C60.1417 27.7686 60.5748 28.7102 60.3156 29.6059L63.2881 28.1853C62.3169 27.5882 61.9134 26.7384 61.9134 26.7384L60.2532 23.2672C61.1161 23.7922 65.4534 26.3578 66.5197 26.3677C67.0972 26.3775 67.7041 26.1643 68.1963 25.9313C68.7868 25.6492 69.21 25.3342 69.21 25.3342C66.3524 24.701 61.6607 21.3545 61.6607 21.3545C62.0413 19.4844 62.3169 18.2901 63.2913 15.3242L60.2762 16.7481C60.7191 16.9647 61.08 17.2665 61.3655 17.6635C61.4245 17.7914 61.4344 17.9456 61.3687 18.1884C60.6929 20.7606 60.0137 22.5422 59.9678 22.6734L58.5406 19.6845C58.5406 19.6845 58.1338 18.8348 58.2781 17.7061L55.3057 19.1268C56.1521 19.4942 56.6279 20.4194 56.6902 20.5507Z" fill="#F7AA92"/>
<path d="M70.8765 13.9698C71.0307 13.7729 71.2276 13.6351 71.4638 13.5498L72.7007 13.1955L75.0761 21.4731C75.1154 21.6142 75.3746 22.6215 74.9875 23.4548L78.3209 22.4968C77.4645 21.7455 77.2054 20.8432 77.2054 20.8432L74.8366 12.5819L76.1161 12.2145C76.3622 12.162 76.6017 12.1751 76.8379 12.2604L78.0387 12.7427L78.288 10.4297L68.7275 13.1692L70.1186 15.0164L70.8765 13.9698Z" fill="#F7AA92"/>
<path d="M89.1805 20.7019C91.966 20.3771 94.0231 18.5496 93.508 14.1401C92.9995 9.78968 90.5651 8.39202 87.7796 8.71683C84.9941 9.04164 82.9403 10.9019 83.4554 15.3147C83.9705 19.7275 86.3918 21.03 89.1805 20.7019ZM85.7487 10.6526C89.4528 10.2195 90.4043 11.7352 91.3525 14.1237C91.7199 15.0489 91.8184 16.358 91.9201 17.2242C92.0447 18.274 91.8052 19.0877 90.798 19.2058C87.8354 19.5536 86.5558 17.6933 85.6995 15.5411C85.2828 14.4945 85.004 13.4971 84.9056 12.6769C84.7382 11.4104 85.0204 10.7346 85.7487 10.6526Z" fill="#F7AA92"/>
<path d="M107.013 18.5007L107.291 16.25L109.431 16.5125C109.431 16.5125 112.764 16.9095 113.253 12.9494C113.673 9.54059 110.602 9.16001 110.602 9.16001L105.372 8.51367C105.884 9.27484 105.786 10.3116 105.769 10.456L104.808 18.2448C104.788 18.3891 104.634 19.4193 103.948 20.0329L107.39 20.4594C106.881 19.5768 107.013 18.5007 107.013 18.5007ZM108.066 9.98351L109.224 10.1279C109.224 10.1279 111.442 10.4067 111.163 12.6935C110.805 15.5807 108.902 15.7054 107.377 15.561L108.066 9.98351Z" fill="#F7AA92"/>
<path d="M123.217 21.5812L122.026 22.1291C121.793 22.2144 121.55 22.2308 121.304 22.1783L118.899 21.4992L120.028 17.4867L121.665 17.946C121.665 17.946 122.57 18.2019 123.325 19.0516L123.965 16.7714C123.135 17.1651 122.124 16.9092 121.983 16.8731L120.326 16.4072L121.432 12.4735L123.837 13.1493C124.076 13.2346 124.273 13.3724 124.427 13.566L125.195 14.6093L126.589 12.7622L118.984 10.623C119.378 11.4531 119.122 12.4669 119.086 12.6047L116.96 20.1606C116.921 20.3017 116.609 21.2958 115.841 21.801L123.443 23.9369L123.217 21.5812Z" fill="#F7AA92"/>
<path d="M130.192 24.5895L131.819 21.0363C131.944 22.0468 132.623 27.1847 133.069 27.8507C133.273 28.1591 133.725 28.4314 134.185 28.6414C134.861 28.9498 135.566 29.1335 135.566 29.1335C134.69 27.6965 134.195 23.2476 134.077 22.0304C135.077 22.2568 136.819 22.2699 137.82 20.0881C138.84 17.8604 136.025 16.571 136.025 16.571L131.649 14.5664C131.905 15.449 131.501 16.407 131.442 16.5382L128.174 23.6741C128.115 23.8054 127.653 24.7371 126.816 25.121L129.969 26.5679C129.739 25.5771 130.192 24.5895 130.192 24.5895ZM133.762 16.7908L134.411 17.0894C134.411 17.0894 136.445 18.0212 135.743 19.5534C134.762 21.6925 132.715 20.787 132.715 20.787L132.065 20.4917L133.762 16.7908Z" fill="#F7AA92"/>
<path d="M141.862 30.8505L143.735 28.0256L145.156 28.9673C145.156 28.9673 145.94 29.4856 146.396 30.529L147.705 28.5539C146.793 28.6753 145.91 28.1208 145.789 28.042L144.355 27.0906L146.616 23.6817L148.696 25.063C148.896 25.2139 149.04 25.4075 149.129 25.6404L149.542 26.8675L151.439 25.5355L144.854 21.1719C144.972 22.0807 144.421 22.9665 144.342 23.0879L140.001 29.6333C139.919 29.7547 139.322 30.6077 138.433 30.8538L141.327 32.7731C141.261 31.756 141.862 30.8505 141.862 30.8505Z" fill="#F7AA92"/>
<path d="M147.708 37.3165L153.598 42.5823L154.428 40.3578L153.115 40.325C152.869 40.2988 152.646 40.2069 152.446 40.0527L150.586 38.3893L153.365 35.2823L154.634 36.4175C154.634 36.4175 155.337 37.0441 155.638 38.1432L157.217 36.3781C156.301 36.365 155.504 35.6924 155.392 35.594L154.109 34.449L156.833 31.401L158.696 33.0644C158.873 33.2449 158.988 33.4549 159.041 33.6976L159.274 34.9706L161.341 33.924L155.451 28.6582C155.438 29.5769 154.766 30.3741 154.671 30.4857L149.438 36.3388C149.336 36.4437 148.617 37.2016 147.708 37.3165Z" fill="#F7AA92"/>
<path d="M156.107 45.1349L158.188 47.6841C158.539 46.6014 159.267 46.0076 159.267 46.0076L162.246 43.5765C161.941 44.5378 160.471 49.3541 160.71 50.3941C160.835 50.9552 161.186 51.4965 161.531 51.9198C161.944 52.425 162.348 52.7629 162.348 52.7629C162.289 49.8397 164.434 44.4918 164.434 44.4918C166.344 44.4197 167.568 44.4065 170.675 44.6559L168.581 42.064C168.476 42.5463 168.266 42.9695 167.948 43.337C167.837 43.4288 167.692 43.4715 167.44 43.4649C164.782 43.4157 162.892 43.1762 162.758 43.1631L165.323 41.0732C165.323 41.0732 166.052 40.4793 167.184 40.3514L165.104 37.7988C164.943 38.7044 164.159 39.3868 164.047 39.4786L157.974 44.4295C157.85 44.5312 157.036 45.1743 156.107 45.1349Z" fill="#F7AA92"/>
<path d="M174.329 52.1309L174.969 53.2464L167.495 57.5214C167.367 57.5903 166.449 58.0857 165.55 57.9053L167.272 60.9172C167.797 59.9066 168.611 59.4408 168.611 59.4408L176.072 55.1723L176.731 56.3272C176.843 56.5536 176.885 56.7898 176.859 57.0359L176.679 58.3187L178.985 58.0103L174.044 49.375L172.584 51.1664L173.782 51.6585C174.008 51.7635 174.192 51.921 174.329 52.1309Z" fill="#F7AA92"/>
<path d="M182.912 66.8056C181.931 64.1776 179.638 62.6257 175.471 64.1809C171.308 65.7327 170.622 68.3968 171.603 71.0281C172.584 73.6561 174.848 75.221 179.011 73.6659C183.115 72.1337 183.893 69.4368 182.912 66.8056ZM175.638 72.8621C174.648 73.2328 173.798 73.1967 173.443 72.2453C172.4 69.45 173.899 67.7636 175.786 66.4184C176.705 65.7655 177.607 65.2537 178.381 64.965C179.572 64.4958 180.294 64.6074 180.547 65.2997C181.852 68.7938 180.606 70.0799 178.512 71.5694C177.702 72.1501 176.455 72.557 175.638 72.8621Z" fill="#F7AA92"/>
<path d="M61.6347 55.5098C58.2915 55.5098 55.5684 58.2329 55.5684 61.5761C55.5684 64.9325 58.2915 67.6556 61.6347 67.6556C64.9779 67.6556 67.7011 64.9325 67.7011 61.5761C67.6978 58.2329 64.9779 55.5098 61.6347 55.5098ZM61.6347 65.9331C59.2364 65.9331 57.2908 63.9876 57.2908 61.5728C57.2908 59.1745 59.2364 57.2289 61.6347 57.2289C64.033 57.2289 65.9917 59.1745 65.9917 61.5728C65.9917 63.9876 64.033 65.9331 61.6347 65.9331Z" fill="#F7AA92"/>
<path d="M35.0852 106.055C34.8293 106.055 34.6226 106.261 34.6226 106.517C34.6226 106.773 34.8293 106.98 35.0852 106.98C35.3411 106.98 35.5478 106.773 35.5478 106.517C35.5478 106.261 35.3411 106.055 35.0852 106.055Z" fill="#F7AA92"/>
<path d="M35.0852 124.939C34.8293 124.939 34.6226 125.146 34.6226 125.402C34.6226 125.658 34.8293 125.865 35.0852 125.865C35.3411 125.865 35.5478 125.658 35.5478 125.402C35.5478 125.146 35.3411 124.939 35.0852 124.939Z" fill="#F7AA92"/>
<path d="M40.686 134.336C40.686 134.592 40.8927 134.798 41.1486 134.798C41.4045 134.798 41.6112 134.592 41.6112 134.336C41.6112 134.08 41.4045 133.873 41.1486 133.873C40.8895 133.873 40.686 134.08 40.686 134.336Z" fill="#F7AA92"/>
<path d="M39.7048 115.385C39.4489 115.385 39.2422 115.591 39.2422 115.847C39.2422 116.103 39.4489 116.31 39.7048 116.31C39.9607 116.31 40.1674 116.103 40.1674 115.847C40.1674 115.595 39.9607 115.385 39.7048 115.385Z" fill="#F7AA92"/>
<path d="M45.6794 106.055C45.4235 106.055 45.2168 106.261 45.2168 106.517C45.2168 106.773 45.4235 106.98 45.6794 106.98C45.9353 106.98 46.142 106.773 46.142 106.517C46.142 106.261 45.9353 106.055 45.6794 106.055Z" fill="#F7AA92"/>
<path d="M45.6794 124.939C45.4235 124.939 45.2168 125.146 45.2168 125.402C45.2168 125.658 45.4235 125.865 45.6794 125.865C45.9353 125.865 46.142 125.658 46.142 125.402C46.142 125.146 45.9353 124.939 45.6794 124.939Z" fill="#F7AA92"/>
<path d="M45.6794 142.246C45.4235 142.246 45.2168 142.453 45.2168 142.709C45.2168 142.965 45.4235 143.171 45.6794 143.171C45.9353 143.171 46.142 142.965 46.142 142.709C46.142 142.456 45.9353 142.246 45.6794 142.246Z" fill="#F7AA92"/>
<path d="M51.7395 133.873C51.4836 133.873 51.2769 134.08 51.2769 134.336C51.2769 134.592 51.4836 134.798 51.7395 134.798C51.9954 134.798 52.2021 134.592 52.2021 134.336C52.2053 134.08 51.9954 133.873 51.7395 133.873Z" fill="#F7AA92"/>
<path d="M50.299 115.385C50.0431 115.385 49.8364 115.591 49.8364 115.847C49.8364 116.103 50.0431 116.31 50.299 116.31C50.5549 116.31 50.7616 116.103 50.7616 115.847C50.7616 115.595 50.5549 115.385 50.299 115.385Z" fill="#F7AA92"/>
<path d="M56.2736 106.055C56.0177 106.055 55.811 106.261 55.811 106.517C55.811 106.773 56.0177 106.98 56.2736 106.98C56.5295 106.98 56.7362 106.773 56.7362 106.517C56.7362 106.261 56.5295 106.055 56.2736 106.055Z" fill="#F7AA92"/>
<path d="M56.2736 124.939C56.0177 124.939 55.811 125.146 55.811 125.402C55.811 125.658 56.0177 125.865 56.2736 125.865C56.5295 125.865 56.7362 125.658 56.7362 125.402C56.7362 125.146 56.5295 124.939 56.2736 124.939Z" fill="#F7AA92"/>
<path d="M56.2736 142.246C56.0177 142.246 55.811 142.453 55.811 142.709C55.811 142.965 56.0177 143.171 56.2736 143.171C56.5295 143.171 56.7362 142.965 56.7362 142.709C56.7362 142.456 56.5295 142.246 56.2736 142.246Z" fill="#F7AA92"/>
<path d="M62.3332 133.873C62.0773 133.873 61.8706 134.08 61.8706 134.336C61.8706 134.592 62.0773 134.798 62.3332 134.798C62.5891 134.798 62.7958 134.592 62.7958 134.336C62.7958 134.08 62.5891 133.873 62.3332 133.873Z" fill="#F7AA92"/>
<path d="M60.8933 115.385C60.6374 115.385 60.4307 115.591 60.4307 115.847C60.4307 116.103 60.6374 116.31 60.8933 116.31C61.1492 116.31 61.3559 116.103 61.3559 115.847C61.3559 115.595 61.1492 115.385 60.8933 115.385Z" fill="#F7AA92"/>
<path d="M66.8679 106.055C66.612 106.055 66.4053 106.261 66.4053 106.517C66.4053 106.773 66.612 106.98 66.8679 106.98C67.1238 106.98 67.3305 106.773 67.3305 106.517C67.3305 106.261 67.1238 106.055 66.8679 106.055Z" fill="#F7AA92"/>
<path d="M66.8679 124.939C66.612 124.939 66.4053 125.146 66.4053 125.402C66.4053 125.658 66.612 125.865 66.8679 125.865C67.1238 125.865 67.3305 125.658 67.3305 125.402C67.3305 125.146 67.1238 124.939 66.8679 124.939Z" fill="#F7AA92"/>
<path d="M66.8679 142.246C66.612 142.246 66.4053 142.453 66.4053 142.709C66.4053 142.965 66.612 143.171 66.8679 143.171C67.1238 143.171 67.3305 142.965 67.3305 142.709C67.3305 142.456 67.1238 142.246 66.8679 142.246Z" fill="#F7AA92"/>
<path d="M60.6892 153.139C60.4333 153.139 60.2266 153.345 60.2266 153.601C60.2266 153.857 60.4333 154.064 60.6892 154.064C60.9451 154.064 61.1518 153.857 61.1518 153.601C61.1518 153.345 60.9418 153.139 60.6892 153.139Z" fill="#F7AA92"/>
<path d="M72.9274 133.873C72.6715 133.873 72.4648 134.08 72.4648 134.336C72.4648 134.592 72.6715 134.798 72.9274 134.798C73.1834 134.798 73.3901 134.592 73.3901 134.336C73.3901 134.08 73.1834 133.873 72.9274 133.873Z" fill="#F7AA92"/>
<path d="M71.487 115.385C71.2311 115.385 71.0244 115.591 71.0244 115.847C71.0244 116.103 71.2311 116.31 71.487 116.31C71.7429 116.31 71.9496 116.103 71.9496 115.847C71.9496 115.595 71.7429 115.385 71.487 115.385Z" fill="#F7AA92"/>
<path d="M77.4611 106.055C77.2052 106.055 76.9985 106.261 76.9985 106.517C76.9985 106.773 77.2052 106.98 77.4611 106.98C77.717 106.98 77.9237 106.773 77.9237 106.517C77.9237 106.261 77.717 106.055 77.4611 106.055Z" fill="#F7AA92"/>
<path d="M77.4611 124.939C77.2052 124.939 76.9985 125.146 76.9985 125.402C76.9985 125.658 77.2052 125.865 77.4611 125.865C77.717 125.865 77.9237 125.658 77.9237 125.402C77.9237 125.146 77.717 124.939 77.4611 124.939Z" fill="#F7AA92"/>
<path d="M77.4611 142.246C77.2052 142.246 76.9985 142.453 76.9985 142.709C76.9985 142.965 77.2052 143.171 77.4611 143.171C77.717 143.171 77.9237 142.965 77.9237 142.709C77.9237 142.456 77.717 142.246 77.4611 142.246Z" fill="#F7AA92"/>
<path d="M77.4611 161.131C77.2052 161.131 76.9985 161.338 76.9985 161.593C76.9985 161.849 77.2052 162.056 77.4611 162.056C77.717 162.056 77.9237 161.849 77.9237 161.593C77.9237 161.338 77.717 161.131 77.4611 161.131Z" fill="#F7AA92"/>
<path d="M71.28 153.139C71.0241 153.139 70.8174 153.345 70.8174 153.601C70.8174 153.857 71.0241 154.064 71.28 154.064C71.5359 154.064 71.7426 153.857 71.7426 153.601C71.7459 153.345 71.5359 153.139 71.28 153.139Z" fill="#F7AA92"/>
<path d="M83.5212 133.873C83.2653 133.873 83.0586 134.08 83.0586 134.336C83.0586 134.592 83.2653 134.798 83.5212 134.798C83.7771 134.798 83.9838 134.592 83.9838 134.336C83.9838 134.08 83.7771 133.873 83.5212 133.873Z" fill="#F7AA92"/>
<path d="M82.0808 115.385C81.8249 115.385 81.6182 115.591 81.6182 115.847C81.6182 116.103 81.8249 116.31 82.0808 116.31C82.3367 116.31 82.5434 116.103 82.5434 115.847C82.5434 115.595 82.3367 115.385 82.0808 115.385Z" fill="#F7AA92"/>
<path d="M88.0554 106.055C87.7995 106.055 87.5928 106.261 87.5928 106.517C87.5928 106.773 87.7995 106.98 88.0554 106.98C88.3113 106.98 88.518 106.773 88.518 106.517C88.518 106.261 88.3113 106.055 88.0554 106.055Z" fill="#F7AA92"/>
<path d="M88.0554 124.939C87.7995 124.939 87.5928 125.146 87.5928 125.402C87.5928 125.658 87.7995 125.865 88.0554 125.865C88.3113 125.865 88.518 125.658 88.518 125.402C88.518 125.146 88.3113 124.939 88.0554 124.939Z" fill="#F7AA92"/>
<path d="M88.0554 142.246C87.7995 142.246 87.5928 142.453 87.5928 142.709C87.5928 142.965 87.7995 143.171 88.0554 143.171C88.3113 143.171 88.518 142.965 88.518 142.709C88.518 142.456 88.3113 142.246 88.0554 142.246Z" fill="#F7AA92"/>
<path d="M88.0554 161.131C87.7995 161.131 87.5928 161.338 87.5928 161.593C87.5928 161.849 87.7995 162.056 88.0554 162.056C88.3113 162.056 88.518 161.849 88.518 161.593C88.518 161.338 88.3113 161.131 88.0554 161.131Z" fill="#F7AA92"/>
<path d="M81.8742 153.139C81.6183 153.139 81.4116 153.345 81.4116 153.601C81.4116 153.857 81.6183 154.064 81.8742 154.064C82.1301 154.064 82.3368 153.857 82.3368 153.601C82.3368 153.345 82.1301 153.139 81.8742 153.139Z" fill="#F7AA92"/>
<path d="M94.1149 133.873C93.859 133.873 93.6523 134.08 93.6523 134.336C93.6523 134.592 93.859 134.798 94.1149 134.798C94.3709 134.798 94.5776 134.592 94.5776 134.336C94.5776 134.08 94.3709 133.873 94.1149 133.873Z" fill="#F7AA92"/>
<path d="M92.675 115.385C92.4191 115.385 92.2124 115.591 92.2124 115.847C92.2124 116.103 92.4191 116.31 92.675 116.31C92.9309 116.31 93.1376 116.103 93.1376 115.847C93.1376 115.595 92.9309 115.385 92.675 115.385Z" fill="#F7AA92"/>
<path d="M92.4685 153.139C92.2126 153.139 92.0059 153.345 92.0059 153.601C92.0059 153.857 92.2126 154.064 92.4685 154.064C92.7244 154.064 92.9311 153.857 92.9311 153.601C92.9311 153.345 92.7244 153.139 92.4685 153.139Z" fill="#F7AA92"/>
<path d="M98.0001 25.1719C58.0192 25.1719 25.4893 57.6985 25.4893 97.6827C25.4893 137.664 58.0192 170.19 98.0001 170.19C137.981 170.19 170.508 137.664 170.508 97.6827C170.511 57.6985 137.981 25.1719 98.0001 25.1719ZM31.5753 106.909C31.1947 109.179 30.8141 111.521 30.8141 116.134C30.8141 117.529 30.8535 118.697 30.9093 119.74C29.5543 115.626 28.57 111.351 27.9893 106.945C28.3272 104.901 28.6553 102.706 28.7111 98.8277H32.3069C32.2544 102.706 31.9296 104.766 31.5753 106.909ZM33.4684 126.351C33.4027 125.925 33.3371 125.501 33.2682 125.091C32.8876 122.791 32.5202 120.606 32.5202 116.134C32.5202 111.663 32.8876 109.491 33.2682 107.191C33.6193 105.075 33.9736 102.86 34.0163 98.8277H37.6121C37.5695 102.706 37.2315 104.766 36.8805 106.909C36.513 109.179 36.1193 111.521 36.1193 116.134C36.1193 120.747 36.513 123.103 36.8805 125.373C37.2611 127.67 37.6285 129.845 37.6285 134.314C36.0734 131.765 34.6954 129.097 33.4684 126.351ZM42.1988 125.373C42.5794 127.673 42.9304 129.845 42.9304 134.317C42.9304 137.542 42.75 139.566 42.5072 141.305C41.3786 139.875 40.2959 138.408 39.2821 136.893C39.3116 136.108 39.3346 135.275 39.3346 134.32C39.3346 129.707 38.954 127.365 38.5734 125.094C38.1928 122.795 37.8385 120.609 37.8385 116.138C37.8385 111.666 38.1928 109.494 38.5734 107.194C38.9245 105.078 39.2919 102.863 39.3346 98.831H42.9304C42.8878 102.709 42.5499 104.769 42.1988 106.912C41.8182 109.182 41.4376 111.525 41.4376 116.138C41.4343 120.747 41.8149 123.103 42.1988 125.373ZM47.5138 143.274C47.3432 144.268 47.1792 145.305 47.0381 146.519C45.9784 145.413 44.9482 144.278 43.9639 143.107C44.3182 140.967 44.6496 138.641 44.6496 134.317C44.6496 129.704 44.269 127.362 43.8884 125.091C43.5079 122.791 43.1404 120.606 43.1404 116.134C43.1404 111.663 43.5079 109.491 43.8884 107.191C44.2395 105.075 44.5938 102.86 44.6365 98.8277H48.2323C48.1897 102.706 47.8649 104.766 47.5138 106.909C47.1332 109.179 46.7363 111.521 46.7363 116.134C46.7363 120.747 47.13 123.103 47.5138 125.373C47.8944 127.673 48.2455 129.845 48.2455 134.317C48.2487 138.802 47.8944 140.974 47.5138 143.274ZM52.819 143.274C52.4876 145.324 52.1399 147.477 52.0743 151.282C50.8899 150.269 49.7383 149.219 48.626 148.13C48.7606 146.312 48.9771 144.941 49.2068 143.556C49.5742 141.286 49.9679 138.943 49.9679 134.317C49.9679 129.704 49.5709 127.362 49.2068 125.091C48.8262 122.791 48.4587 120.606 48.4587 116.134C48.4587 111.663 48.8262 109.491 49.2068 107.191C49.5447 105.075 49.9122 102.86 49.9548 98.8277H53.5507C53.508 102.706 53.1701 104.766 52.819 106.909C52.4516 109.179 52.0579 111.521 52.0579 116.134C52.0579 120.747 52.4548 123.103 52.819 125.373C53.1996 127.673 53.5671 129.845 53.5671 134.317C53.5638 138.802 53.1996 140.974 52.819 143.274ZM58.1373 125.373C58.5179 127.673 58.869 129.845 58.869 134.317C58.869 138.802 58.5146 140.974 58.1373 143.274C57.7567 145.544 57.3762 147.887 57.3762 152.513C57.3762 153.625 57.4057 154.58 57.4451 155.459C56.195 154.576 54.9713 153.661 53.7803 152.703C53.7803 152.637 53.777 152.578 53.777 152.513C53.777 148.041 54.1281 145.856 54.5087 143.556C54.8893 141.286 55.2698 138.943 55.2698 134.317C55.2698 129.704 54.8893 127.362 54.5087 125.091C54.1281 122.791 53.777 120.606 53.777 116.134C53.777 111.663 54.1281 109.491 54.5087 107.191C54.8597 105.075 55.2141 102.86 55.2698 98.8277H58.8657C58.823 102.706 58.4851 104.766 58.1341 106.909C57.7535 109.179 57.3729 111.521 57.3729 116.134C57.3729 120.747 57.7535 123.103 58.1373 125.373ZM63.4392 143.274C63.0718 145.544 62.6781 147.887 62.6781 152.513C62.6781 155.387 62.829 157.375 63.0291 159.012C61.7365 158.271 60.4635 157.496 59.2233 156.68C59.138 155.525 59.0822 154.186 59.0822 152.513C59.0822 148.041 59.4497 145.856 59.8303 143.556C60.2108 141.286 60.5914 138.943 60.5914 134.317C60.5914 129.704 60.2108 127.362 59.8303 125.091C59.4497 122.791 59.0822 120.606 59.0822 116.134C59.0822 111.663 59.4497 109.491 59.8303 107.191C60.1846 105.075 60.5357 102.86 60.5783 98.8277H64.1742C64.1315 102.706 63.8067 104.766 63.4392 106.909C63.0718 109.179 62.6781 111.521 62.6781 116.134C62.6781 120.747 63.0718 123.103 63.4392 125.373C63.8198 127.673 64.1873 129.845 64.1873 134.317C64.1873 138.802 63.8198 140.974 63.4392 143.274ZM68.7576 161.749C68.7707 161.821 68.7805 161.893 68.7904 161.965C67.4747 161.365 66.1755 160.735 64.9025 160.056C64.6171 158.182 64.3973 156.073 64.3973 152.51C64.3973 148.038 64.7483 145.853 65.1289 143.553C65.5095 141.282 65.9032 138.94 65.9032 134.314C65.9032 129.701 65.5062 127.358 65.1289 125.088C64.7483 122.788 64.3973 120.603 64.3973 116.131C64.3973 111.659 64.7483 109.487 65.1289 107.187C65.4832 105.071 65.8474 102.857 65.8901 98.8244H69.4859C69.4433 102.702 69.1053 104.763 68.7543 106.905C68.3737 109.176 67.9931 111.518 67.9931 116.131C67.9931 120.744 68.3737 123.1 68.7543 125.37C69.1349 127.67 69.5023 129.842 69.5023 134.314C69.5023 138.799 69.1349 140.971 68.7543 143.271C68.3737 145.541 67.9931 147.883 67.9931 152.51C67.9964 157.139 68.377 159.478 68.7576 161.749ZM74.0759 125.373C74.4564 127.673 74.8075 129.845 74.8075 134.317C74.8075 138.802 74.4564 140.974 74.0759 143.274C73.6953 145.544 73.3147 147.887 73.3147 152.513C73.3147 157.139 73.6953 159.481 74.0759 161.752C74.2071 162.552 74.3318 163.373 74.4433 164.262C73.1638 163.809 71.9006 163.33 70.6539 162.805C70.585 162.352 70.5194 161.893 70.4505 161.47C70.0699 159.17 69.7188 156.985 69.7188 152.513C69.7188 148.041 70.0732 145.856 70.4505 143.556C70.8311 141.286 71.2116 138.943 71.2116 134.317C71.2116 129.704 70.8311 127.362 70.4505 125.091C70.0699 122.791 69.7188 120.606 69.7188 116.134C69.7188 111.663 70.0732 109.491 70.4505 107.191C70.8015 105.075 71.1559 102.86 71.2116 98.8277H74.8075C74.7517 102.706 74.4269 104.766 74.0759 106.909C73.6953 109.179 73.3147 111.521 73.3147 116.134C73.3147 120.747 73.6953 123.103 74.0759 125.373ZM79.3778 161.749C79.5877 163.025 79.7846 164.321 79.9257 165.961C78.6855 165.633 77.4617 165.266 76.2478 164.872C76.1034 163.586 75.9328 162.503 75.7655 161.466C75.3849 159.166 75.0175 156.981 75.0175 152.51C75.0175 148.038 75.3849 145.853 75.7655 143.553C76.133 141.282 76.5267 138.94 76.5267 134.314C76.5267 129.701 76.133 127.358 75.7655 125.088C75.3849 122.788 75.0175 120.603 75.0175 116.131C75.0175 111.659 75.3849 109.487 75.7655 107.187C76.1199 105.071 76.4709 102.857 76.5136 98.8244H80.1094C80.0668 102.702 79.7419 104.763 79.3745 106.905C79.007 109.176 78.6133 111.518 78.6133 116.131C78.6133 120.744 79.007 123.1 79.3745 125.37C79.7551 127.67 80.1225 129.842 80.1225 134.314C80.1225 138.799 79.7551 140.971 79.3745 143.271C79.007 145.541 78.6133 147.883 78.6133 152.51C78.6166 157.139 79.0103 159.478 79.3778 161.749ZM84.6961 125.373C85.0767 127.673 85.4277 129.845 85.4277 134.317C85.4277 138.802 85.0734 140.974 84.6961 143.274C84.3155 145.544 83.9349 147.887 83.9349 152.513C83.9349 157.139 84.3155 159.481 84.6961 161.752C84.9553 163.333 85.2013 164.892 85.3359 167.159C84.1088 166.936 82.8949 166.683 81.6908 166.394C81.5366 164.37 81.3036 162.877 81.074 161.47C80.6934 159.17 80.3391 156.985 80.3391 152.513C80.3391 148.041 80.6901 145.856 81.074 143.556C81.4546 141.286 81.8352 138.943 81.8352 134.317C81.8352 129.704 81.4546 127.362 81.074 125.091C80.6934 122.791 80.3391 120.606 80.3391 116.134C80.3391 111.663 80.6901 109.491 81.074 107.191C81.425 105.075 81.7925 102.86 81.8352 98.8277H85.431C85.3883 102.706 85.0504 104.766 84.6994 106.909C84.3188 109.179 83.9382 111.521 83.9382 116.134C83.9349 120.747 84.3155 123.103 84.6961 125.373ZM90.0144 161.749C90.3031 163.507 90.5689 165.233 90.6804 167.936C89.4665 167.812 88.2591 167.651 87.0649 167.464C86.9402 164.855 86.6646 163.117 86.389 161.466C86.0084 159.166 85.6574 156.981 85.6574 152.51C85.6574 148.038 86.0117 145.853 86.389 143.553C86.7696 141.282 87.1502 138.94 87.1502 134.314C87.1502 129.701 86.7696 127.358 86.389 125.088C86.0084 122.788 85.6574 120.603 85.6574 116.131C85.6574 111.659 86.0117 109.487 86.389 107.187C86.7401 105.071 87.0944 102.857 87.1371 98.8244H90.7329C90.6903 102.702 90.3654 104.763 90.0144 106.905C89.6338 109.176 89.2401 111.518 89.2401 116.131C89.2401 120.744 89.6371 123.1 90.0144 125.37C90.395 127.67 90.746 129.842 90.746 134.314C90.746 138.799 90.395 140.971 90.0144 143.271C89.6338 145.541 89.2401 147.883 89.2401 152.51C89.2368 157.139 89.6338 159.478 90.0144 161.749ZM95.3163 161.749C95.6214 163.579 95.9003 165.371 96.0053 168.261C94.7979 168.228 93.5971 168.163 92.4029 168.071C92.2848 165.115 91.9862 163.248 91.7073 161.466C91.3267 159.166 90.9593 156.981 90.9593 152.51C90.9593 148.038 91.3267 145.853 91.7073 143.553C92.0748 141.282 92.4685 138.94 92.4685 134.314C92.4685 129.701 92.0748 127.358 91.7073 125.088C91.3267 122.788 90.9593 120.603 90.9593 116.131C90.9593 111.659 91.3267 109.487 91.7073 107.187C92.0453 105.071 92.4127 102.857 92.4554 98.8244H96.0512C96.0086 102.702 95.6706 104.763 95.3163 106.905C94.9488 109.176 94.5551 111.518 94.5551 116.131C94.5551 120.744 94.9488 123.1 95.3163 125.37C95.6969 127.67 96.0643 129.842 96.0643 134.314C96.0643 138.799 95.6969 140.971 95.3163 143.271C94.9488 145.541 94.5551 147.883 94.5551 152.51C94.5551 157.139 94.9488 159.478 95.3163 161.749ZM97.1503 162.342C97.1077 162.044 97.065 161.749 97.0092 161.466C96.6287 159.166 96.2776 156.981 96.2776 152.51C96.2776 148.038 96.6287 145.853 97.0092 143.553C97.065 143.271 97.1077 142.975 97.1503 142.677V162.342ZM97.1503 125.967C97.1077 125.669 97.065 125.373 97.0092 125.091C96.6287 122.791 96.2776 120.606 96.2776 116.134C96.2776 111.663 97.1109 106.613 97.1503 106.318V125.967ZM97.1503 46.2712L71.0837 56.8226L71.7333 58.4171L97.1503 48.1184V60.7432H72.1828V62.4493H97.1503V75.6811L71.6907 64.8903L71.0148 66.4684L97.1503 77.5413V95.8913L69.7024 68.4434L68.4885 69.6574L95.9528 97.1052H76.9532L66.4019 71.0386L64.8074 71.6718L75.1061 97.1052H62.5107V72.1246H60.7916V97.1052H47.5302L58.3342 71.6292L56.7528 70.9664L45.6667 97.1052H27.379C27.379 97.0888 27.379 97.0724 27.3823 97.056L54.781 69.6574L53.5671 68.4434L27.4479 94.5527C27.7465 87.6826 29.0425 81.0716 31.1783 74.8445L52.1891 66.3404L51.5559 64.7459L31.946 72.6856C33.2978 69.1259 34.9316 65.7072 36.8181 62.4493H51.0966V60.7432H37.8221C39.1902 58.5221 40.6863 56.3895 42.2841 54.3389L51.5756 58.2727L52.2514 56.6946L43.3832 52.938C44.6365 51.4091 45.9653 49.9425 47.3399 48.5252L53.5605 54.7458L54.7744 53.5318L48.544 47.3014C50.0401 45.8316 51.592 44.4241 53.2094 43.0953L56.8808 52.1539L58.4589 51.5207L54.6104 42.0028C56.5888 40.4575 58.6459 39.0106 60.785 37.6819V51.0712H62.5042V36.6517C65.9852 34.6208 69.6467 32.8655 73.4689 31.4449L64.9714 51.5633L66.5364 52.226L75.6408 30.6936C81.7302 28.6562 88.1837 27.4193 94.88 27.1273L68.4688 53.5384L69.6828 54.7523L97.1438 27.2749V46.2712H97.1503ZM117.505 29.8045C116.248 30.6411 114.782 31.2481 112.554 31.2481C109.224 31.2481 107.574 29.8963 105.825 28.4429C105.379 28.0787 104.9 27.708 104.398 27.3471C108.906 27.7539 113.282 28.5906 117.505 29.8045ZM98.8728 27.0649C99.0795 27.0682 99.2796 27.0781 99.4863 27.0813C101.862 27.4193 103.272 28.5577 104.742 29.7684C106.56 31.2645 108.62 32.9705 112.557 32.9705C115.937 32.9705 117.928 31.7205 119.565 30.4213C120.622 30.7625 121.665 31.1201 122.699 31.5073C121.334 32.1306 120.258 32.9607 119.286 33.7579C117.538 35.2114 115.887 36.5664 112.557 36.5664C109.227 36.5664 107.577 35.2114 105.828 33.7579C104.165 32.3767 102.259 30.838 98.8728 30.5985V27.0649ZM98.8728 32.3209C101.639 32.5342 103.148 33.7744 104.742 35.0867C106.56 36.5828 108.62 38.2888 112.557 38.2888C116.508 38.2888 118.565 36.5828 120.372 35.0867C121.737 33.9548 123.053 32.8918 125.143 32.4751C130.934 34.8931 136.324 38.069 141.216 41.865C138.181 41.7502 136.583 40.4542 134.917 39.0795C133.096 37.5703 131.052 35.8774 127.102 35.8774C123.151 35.8774 121.094 37.5703 119.286 39.0795C117.538 40.5166 115.887 41.888 112.557 41.888C109.227 41.888 107.577 40.5198 105.828 39.0795C104.165 37.6983 102.259 36.1464 98.8728 35.92V32.3209ZM98.8728 37.6392C101.639 37.8492 103.148 39.0894 104.742 40.4017C106.56 41.8978 108.62 43.6039 112.557 43.6039C116.508 43.6039 118.565 41.8978 120.372 40.4017C122.121 38.9483 123.771 37.5802 127.102 37.5802C130.432 37.5802 132.082 38.9483 133.831 40.4017C135.648 41.8978 137.709 43.6039 141.646 43.6039C142.226 43.6039 142.741 43.5481 143.237 43.4759C144.224 44.3027 145.186 45.159 146.127 46.035C144.969 46.7142 143.604 47.1997 141.646 47.1997C138.319 47.1997 136.669 45.8316 134.917 44.3946C133.096 42.8854 131.052 41.1924 127.102 41.1924C123.151 41.1924 121.094 42.8854 119.286 44.3946C117.538 45.8349 115.887 47.1997 112.557 47.1997C109.227 47.1997 107.577 45.8316 105.828 44.3946C104.165 42.9969 102.259 41.4615 98.8728 41.2351V37.6392ZM98.8728 42.9411C101.639 43.1675 103.148 44.3946 104.742 45.7069C106.56 47.2161 108.62 48.9222 112.557 48.9222C116.508 48.9222 118.565 47.2129 120.372 45.7069C122.121 44.2666 123.771 42.8985 127.102 42.8985C130.432 42.8985 132.082 44.2666 133.831 45.7069C135.648 47.2161 137.709 48.9222 141.646 48.9222C144.224 48.9222 145.99 48.1906 147.413 47.2621C148.017 47.8526 148.604 48.4596 149.185 49.0698C148.913 49.2798 148.637 49.4898 148.388 49.6965C146.639 51.1499 144.976 52.518 141.646 52.518C138.319 52.518 136.669 51.1499 134.917 49.6965C133.096 48.2004 131.052 46.4943 127.102 46.4943C123.151 46.4943 121.094 48.2004 119.286 49.6965C117.538 51.1499 115.887 52.518 112.557 52.518C109.227 52.518 107.577 51.1499 105.828 49.6965C104.165 48.3152 102.259 46.7765 98.8728 46.5501V42.9411ZM98.8728 96.0915C100.254 96.2063 101.327 96.5705 102.288 97.1085H98.8728V96.0915ZM104.906 167.972C103.079 168.149 101.232 168.245 99.3682 168.281C99.0664 167.808 98.8793 167.257 98.8728 166.66V166.545C98.9023 164.81 100.313 163.415 102.045 163.415C103.807 163.415 105.234 164.839 105.234 166.601C105.234 167.093 105.11 167.556 104.906 167.972ZM101.16 157.06C101.53 157.149 101.849 157.395 102.052 157.716C102.38 157.201 103.007 156.896 103.692 157.06C104.217 157.188 104.65 157.618 104.775 158.146C105.044 159.265 104.063 160.249 102.941 159.98C102.57 159.892 102.252 159.645 102.049 159.327C101.721 159.842 101.094 160.147 100.412 159.98C99.8866 159.855 99.4535 159.422 99.3255 158.894C99.0565 157.775 100.037 156.791 101.16 157.06ZM102.045 153.625C100.31 153.625 98.899 152.231 98.8728 150.508V150.397C98.9023 148.674 100.3 147.293 102.019 147.263H102.049H102.091C103.827 147.293 105.238 148.7 105.238 150.452C105.234 152.201 103.811 153.625 102.045 153.625ZM102.088 145.557C102.075 145.557 102.062 145.544 102.045 145.544C102.045 145.544 102.032 145.557 102.016 145.557C100.297 145.531 98.899 144.147 98.8695 142.427V142.313C98.899 140.606 100.297 139.209 101.999 139.196H102.085C103.82 139.212 105.231 140.633 105.231 142.368C105.234 144.117 103.824 145.528 102.088 145.557ZM102.088 137.477H102.003C100.297 137.447 98.899 136.066 98.8728 134.36V134.248C98.9023 132.526 100.3 131.144 102.019 131.115H102.049H102.091C103.827 131.144 105.238 132.555 105.238 134.304C105.234 136.036 103.824 137.447 102.088 137.477ZM102.088 129.409C102.075 129.409 102.062 129.396 102.045 129.396C102.045 129.396 102.032 129.409 102.016 129.409C100.297 129.379 98.899 127.998 98.8695 126.276V126.164C98.899 124.458 100.297 123.06 101.999 123.047H102.085C103.82 123.064 105.231 124.484 105.231 126.22C105.234 127.969 103.824 129.379 102.088 129.409ZM102.088 121.325H102.003C100.297 121.298 98.899 119.914 98.8728 118.208V118.096C98.9023 116.361 100.313 114.966 102.045 114.966C103.807 114.966 105.234 116.39 105.234 118.152C105.234 119.888 103.824 121.295 102.088 121.325ZM101.16 108.611C101.53 108.7 101.849 108.946 102.052 109.264C102.38 108.749 103.007 108.447 103.692 108.611C104.217 108.739 104.65 109.169 104.775 109.697C105.044 110.816 104.063 111.8 102.941 111.528C102.57 111.439 102.252 111.193 102.049 110.875C101.721 111.39 101.094 111.692 100.412 111.528C99.8866 111.403 99.4535 110.97 99.3255 110.445C99.0565 109.327 100.037 108.342 101.16 108.611ZM102.045 105.173C100.31 105.173 98.899 103.779 98.8728 102.056V101.945C98.9023 100.235 100.27 98.8704 101.963 98.8277H102.147C103.853 98.8704 105.238 100.265 105.238 102C105.234 103.749 103.811 105.173 102.045 105.173ZM113.312 166.624C111.301 167.073 109.253 167.428 107.18 167.7C107.049 167.356 106.954 166.991 106.954 166.604C106.954 164.855 108.348 163.445 110.084 163.418C110.097 163.418 110.11 163.432 110.126 163.432C110.139 163.432 110.152 163.418 110.169 163.418C111.904 163.445 113.315 164.855 113.315 166.604C113.315 166.611 113.312 166.617 113.312 166.624ZM110.169 161.706C110.156 161.706 110.143 161.693 110.126 161.693C110.11 161.693 110.097 161.706 110.084 161.706C108.348 161.68 106.954 160.269 106.954 158.52C106.954 156.785 108.364 155.361 110.1 155.347H110.129H110.172C111.908 155.364 113.319 156.785 113.319 158.52C113.315 160.269 111.904 161.68 110.169 161.706ZM110.169 153.625H110.126H110.097C108.361 153.612 106.95 152.188 106.95 150.452C106.95 148.704 108.361 147.293 110.097 147.263H110.126H110.169C111.904 147.293 113.315 148.7 113.315 150.452C113.315 152.185 111.904 153.612 110.169 153.625ZM110.169 145.557C110.156 145.557 110.143 145.544 110.126 145.544C110.126 145.544 110.11 145.557 110.097 145.557C108.361 145.531 106.95 144.12 106.95 142.368C106.95 140.633 108.345 139.209 110.08 139.196H110.166C111.901 139.212 113.312 140.633 113.312 142.368C113.315 144.117 111.904 145.528 110.169 145.557ZM110.169 137.477H110.084C108.348 137.447 106.954 136.036 106.954 134.304C106.954 132.555 108.364 131.144 110.1 131.115H110.129H110.172C111.908 131.144 113.319 132.555 113.319 134.304C113.315 136.036 111.904 137.447 110.169 137.477ZM110.169 129.409C110.156 129.409 110.143 129.396 110.126 129.396C110.126 129.396 110.11 129.409 110.097 129.409C108.361 129.379 106.95 127.969 106.95 126.22C106.95 124.484 108.345 123.06 110.08 123.047H110.166C111.901 123.064 113.312 124.484 113.312 126.22C113.315 127.969 111.904 129.379 110.169 129.409ZM110.169 121.325H110.084C108.348 121.298 106.954 119.888 106.954 118.152C106.954 116.403 108.364 114.993 110.1 114.966C110.113 114.966 110.129 114.979 110.129 114.979C110.143 114.979 110.156 114.966 110.172 114.966C111.908 114.993 113.319 116.403 113.319 118.152C113.315 119.888 111.904 121.295 110.169 121.325ZM110.169 113.257C110.156 113.257 110.143 113.241 110.126 113.241C110.126 113.241 110.11 113.257 110.097 113.257C108.361 113.228 106.95 111.817 106.95 110.068C106.95 108.319 108.361 106.909 110.097 106.895H110.126H110.169C111.904 106.909 113.315 108.319 113.315 110.068C113.315 111.817 111.904 113.228 110.169 113.257ZM110.169 105.173H110.126H110.097C108.361 105.16 106.95 103.736 106.95 102C106.95 100.265 108.332 98.8671 110.041 98.8277H110.225C111.931 98.8704 113.315 100.265 113.315 102C113.315 103.736 111.904 105.16 110.169 105.173ZM115.074 166.217C115.264 164.652 116.563 163.441 118.168 163.415C118.181 163.415 118.194 163.428 118.21 163.428C118.223 163.428 118.24 163.415 118.266 163.415C119.214 163.435 120.038 163.897 120.602 164.583C118.791 165.197 116.95 165.748 115.074 166.217ZM118.266 161.706C118.24 161.706 118.223 161.693 118.21 161.693C118.197 161.693 118.184 161.706 118.168 161.706C116.432 161.68 115.034 160.269 115.034 158.52C115.034 156.785 116.445 155.361 118.181 155.347H118.207H118.25C119.985 155.364 121.396 156.785 121.396 158.52C121.399 160.269 119.989 161.68 118.266 161.706ZM118.253 153.625H118.21H118.184C116.448 153.612 115.038 152.188 115.038 150.452C115.038 148.704 116.448 147.293 118.184 147.263H118.21H118.253C119.989 147.293 121.399 148.7 121.399 150.452C121.399 152.185 119.989 153.612 118.253 153.625ZM118.253 145.557C118.24 145.557 118.223 145.544 118.21 145.544C118.21 145.544 118.197 145.557 118.184 145.557C116.448 145.531 115.038 144.12 115.038 142.368C115.038 140.62 116.465 139.183 118.21 139.183C119.972 139.183 121.399 140.623 121.399 142.368C121.399 144.117 119.989 145.528 118.253 145.557ZM117.318 132.834C117.689 132.923 118.007 133.169 118.21 133.487C118.538 132.972 119.165 132.67 119.851 132.834C120.376 132.962 120.809 133.392 120.933 133.92C121.202 135.039 120.221 136.023 119.103 135.754C118.732 135.662 118.414 135.419 118.21 135.098C117.882 135.613 117.252 135.915 116.57 135.754C116.045 135.626 115.612 135.196 115.484 134.668C115.215 133.549 116.199 132.565 117.318 132.834ZM118.21 129.409C116.462 129.409 115.038 127.985 115.038 126.22C115.038 124.484 116.435 123.06 118.171 123.047H118.269C119.989 123.064 121.399 124.484 121.399 126.22C121.399 127.982 119.972 129.409 118.21 129.409ZM118.266 121.325H118.168C116.432 121.298 115.034 119.888 115.034 118.152C115.034 116.403 116.445 114.993 118.181 114.966C118.194 114.966 118.207 114.979 118.207 114.979C118.22 114.979 118.237 114.966 118.25 114.966C119.985 114.993 121.396 116.403 121.396 118.152C121.399 119.888 119.989 121.295 118.266 121.325ZM118.253 113.257C118.24 113.257 118.223 113.241 118.21 113.241C118.21 113.241 118.197 113.257 118.184 113.257C116.448 113.228 115.038 111.817 115.038 110.068C115.038 108.319 116.448 106.909 118.184 106.895H118.21H118.253C119.989 106.909 121.399 108.319 121.399 110.068C121.399 111.817 119.989 113.228 118.253 113.257ZM118.253 105.173H118.21H118.184C116.448 105.16 115.038 103.736 115.038 102C115.038 100.265 116.419 98.8671 118.128 98.8277H118.312C120.021 98.8704 121.403 100.265 121.403 102C121.399 103.736 119.989 105.16 118.253 105.173ZM122.823 97.1052C123.952 96.472 125.277 96.0455 127.098 96.0455C128.932 96.0455 130.258 96.4688 131.386 97.1052H122.823ZM127.19 103.447C126.819 103.359 126.501 103.113 126.298 102.794C125.97 103.309 125.343 103.611 124.657 103.447C124.132 103.323 123.699 102.889 123.571 102.361C123.302 101.242 124.283 100.258 125.405 100.527C125.776 100.616 126.094 100.862 126.298 101.18C126.626 100.665 127.256 100.363 127.938 100.527C128.463 100.652 128.896 101.085 129.024 101.613C129.293 102.735 128.309 103.716 127.19 103.447ZM126.35 161.706C126.321 161.706 126.321 161.693 126.294 161.693C126.278 161.693 126.265 161.706 126.252 161.706C124.516 161.68 123.122 160.269 123.122 158.52C123.122 156.785 124.533 155.361 126.268 155.347H126.298H126.34C128.076 155.364 129.487 156.785 129.487 158.52C129.48 160.269 128.082 161.68 126.35 161.706ZM126.334 153.625H126.291H126.262C124.526 153.612 123.115 152.188 123.115 150.452C123.115 148.704 124.526 147.293 126.262 147.263H126.291H126.334C128.069 147.293 129.48 148.7 129.48 150.452C129.48 152.185 128.069 153.612 126.334 153.625ZM126.334 145.557C126.317 145.557 126.304 145.544 126.291 145.544C126.291 145.544 126.275 145.557 126.262 145.557C124.526 145.531 123.115 144.12 123.115 142.368C123.115 140.633 124.513 139.209 126.245 139.196H126.288H126.344C128.079 139.212 129.474 140.633 129.474 142.368C129.48 144.117 128.069 145.528 126.334 145.557ZM126.35 137.477H126.294H126.252C124.516 137.447 123.122 136.036 123.122 134.304C123.122 132.555 124.533 131.144 126.268 131.115H126.298H126.34C128.076 131.144 129.487 132.555 129.487 134.304C129.48 136.036 128.082 137.447 126.35 137.477ZM126.334 129.409C126.317 129.409 126.304 129.396 126.291 129.396C126.291 129.396 126.275 129.409 126.262 129.409C124.526 129.379 123.115 127.969 123.115 126.22C123.115 124.484 124.513 123.06 126.245 123.047H126.288H126.344C128.079 123.064 129.474 124.484 129.474 126.22C129.48 127.969 128.069 129.379 126.334 129.409ZM126.35 121.325H126.294H126.252C124.516 121.298 123.122 119.888 123.122 118.152C123.122 116.403 124.533 114.993 126.268 114.966C126.281 114.966 126.298 114.979 126.298 114.979C126.311 114.979 126.324 114.966 126.34 114.966C128.076 114.993 129.487 116.403 129.487 118.152C129.48 119.888 128.082 121.295 126.35 121.325ZM126.334 113.257C126.317 113.257 126.304 113.241 126.291 113.241C126.291 113.241 126.275 113.257 126.262 113.257C124.526 113.228 123.115 111.817 123.115 110.068C123.115 108.319 124.539 106.879 126.288 106.879C128.05 106.879 129.477 108.316 129.477 110.068C129.48 111.817 128.069 113.228 126.334 113.257ZM131.504 159.849C131.314 159.445 131.203 158.999 131.203 158.52C131.203 156.785 132.613 155.361 134.349 155.347H134.375H134.418C135.428 155.357 136.308 155.866 136.882 156.611C135.14 157.766 133.348 158.848 131.504 159.849ZM134.418 153.625H134.375H134.349C132.613 153.612 131.203 152.188 131.203 150.452C131.203 148.704 132.613 147.293 134.349 147.263H134.375H134.418C136.153 147.293 137.564 148.7 137.564 150.452C137.561 152.185 136.15 153.612 134.418 153.625ZM134.418 145.557C134.405 145.557 134.388 145.544 134.375 145.544C134.375 145.544 134.362 145.557 134.349 145.557C132.613 145.531 131.203 144.12 131.203 142.368C131.203 140.633 132.597 139.209 134.333 139.196H134.431C136.167 139.212 137.561 140.633 137.561 142.368C137.561 144.117 136.15 145.528 134.418 145.557ZM134.431 137.477H134.333C132.597 137.447 131.203 136.036 131.203 134.304C131.203 132.555 132.613 131.144 134.349 131.115H134.375H134.418C136.153 131.144 137.564 132.555 137.564 134.304C137.561 136.036 136.167 137.447 134.431 137.477ZM134.418 129.409C134.405 129.409 134.388 129.396 134.375 129.396C134.375 129.396 134.362 129.409 134.349 129.409C132.613 129.379 131.203 127.969 131.203 126.22C131.203 124.484 132.597 123.06 134.333 123.047H134.431C136.167 123.064 137.561 124.484 137.561 126.22C137.561 127.969 136.15 129.379 134.418 129.409ZM134.431 121.325H134.333C132.597 121.298 131.203 119.888 131.203 118.152C131.203 116.403 132.613 114.993 134.349 114.966C134.362 114.966 134.375 114.979 134.375 114.979C134.388 114.979 134.405 114.966 134.418 114.966C136.153 114.993 137.564 116.403 137.564 118.152C137.561 119.888 136.167 121.295 134.431 121.325ZM134.418 113.257C134.405 113.257 134.388 113.241 134.375 113.241C134.375 113.241 134.362 113.257 134.349 113.257C132.613 113.228 131.203 111.817 131.203 110.068C131.203 108.319 132.613 106.909 134.349 106.895H134.375H134.418C136.153 106.909 137.564 108.319 137.564 110.068C137.561 111.817 136.15 113.228 134.418 113.257ZM134.418 105.173H134.375H134.349C132.613 105.16 131.203 103.736 131.203 102C131.203 100.265 132.584 98.8671 134.29 98.8277H134.474C136.18 98.8704 137.561 100.265 137.561 102C137.561 103.736 136.15 105.16 134.418 105.173ZM141.334 153.399C140.14 152.946 139.28 151.801 139.28 150.452C139.28 148.704 140.691 147.293 142.427 147.263H142.469H142.499C144.024 147.29 145.297 148.382 145.583 149.836C144.218 151.082 142.794 152.26 141.334 153.399ZM142.499 145.557C142.482 145.557 142.469 145.544 142.469 145.544C142.456 145.544 142.443 145.557 142.427 145.557C140.691 145.531 139.28 144.12 139.28 142.368C139.28 140.633 140.678 139.209 142.413 139.196H142.512C144.247 139.212 145.642 140.633 145.642 142.368C145.645 144.117 144.234 145.528 142.499 145.557ZM142.515 137.477H142.417C140.681 137.447 139.283 136.036 139.283 134.304C139.283 132.555 140.694 131.144 142.43 131.115H142.472H142.502C144.238 131.144 145.648 132.555 145.648 134.304C145.645 136.036 144.247 137.447 142.515 137.477ZM142.499 129.409C142.482 129.409 142.469 129.396 142.469 129.396C142.456 129.396 142.443 129.409 142.427 129.409C140.691 129.379 139.28 127.969 139.28 126.22C139.28 124.471 140.704 123.031 142.469 123.031C144.218 123.031 145.642 124.468 145.642 126.22C145.645 127.969 144.234 129.379 142.499 129.409ZM141.58 116.689C141.951 116.781 142.269 117.023 142.472 117.345C142.801 116.83 143.43 116.528 144.113 116.689C144.638 116.817 145.071 117.247 145.196 117.775C145.465 118.894 144.484 119.878 143.365 119.606C142.994 119.517 142.676 119.271 142.472 118.953C142.144 119.468 141.514 119.77 140.832 119.606C140.307 119.478 139.874 119.048 139.746 118.523C139.477 117.401 140.461 116.417 141.58 116.689ZM142.472 113.257C140.711 113.257 139.283 111.83 139.283 110.068C139.283 108.319 140.694 106.909 142.43 106.895H142.472H142.502C144.238 106.909 145.648 108.319 145.648 110.068C145.645 111.83 144.218 113.257 142.472 113.257ZM142.499 105.173H142.469H142.427C140.691 105.16 139.28 103.736 139.28 102C139.28 100.265 140.665 98.8671 142.371 98.8277H142.554C144.261 98.8704 145.645 100.265 145.645 102C145.645 103.736 144.234 105.16 142.499 105.173ZM149.933 145.495C148.467 145.206 147.364 143.92 147.364 142.368C147.364 140.633 148.762 139.209 150.494 139.196H150.593C151.941 139.206 153.07 140.078 153.509 141.279C152.371 142.729 151.183 144.14 149.933 145.495ZM150.596 137.477H150.497C148.762 137.447 147.368 136.036 147.368 134.304C147.368 132.555 148.778 131.144 150.514 131.115H150.557H150.586C152.322 131.144 153.732 132.555 153.732 134.304C153.726 136.036 152.332 137.447 150.596 137.477ZM150.583 129.409C150.57 129.409 150.553 129.396 150.553 129.396C150.54 129.396 150.527 129.409 150.511 129.409C148.775 129.379 147.364 127.969 147.364 126.22C147.364 124.484 148.762 123.06 150.494 123.047H150.593C152.328 123.064 153.723 124.484 153.723 126.22C153.726 127.969 152.315 129.379 150.583 129.409ZM150.596 121.325H150.497C148.762 121.298 147.368 119.888 147.368 118.152C147.368 116.403 148.778 114.993 150.514 114.966C150.527 114.966 150.54 114.979 150.557 114.979C150.557 114.979 150.573 114.966 150.586 114.966C152.322 114.993 153.732 116.403 153.732 118.152C153.726 119.888 152.332 121.295 150.596 121.325ZM150.583 113.257C150.57 113.257 150.553 113.241 150.553 113.241C150.54 113.241 150.527 113.257 150.511 113.257C148.775 113.228 147.364 111.817 147.364 110.068C147.364 108.319 148.775 106.909 150.511 106.895H150.553H150.583C152.318 106.909 153.729 108.319 153.729 110.068C153.726 111.817 152.315 113.228 150.583 113.257ZM150.583 105.173H150.553H150.511C148.775 105.16 147.364 103.736 147.364 102C147.364 100.265 148.749 98.8671 150.452 98.8277H150.635C152.341 98.8704 153.723 100.265 153.723 102C153.726 103.736 152.315 105.16 150.583 105.173ZM151.921 97.1052C153.063 96.4556 154.376 96.0455 156.196 96.0455C158.03 96.0455 159.343 96.4556 160.485 97.1052H151.921ZM156.761 136.824C155.973 136.249 155.448 135.344 155.448 134.301C155.448 132.552 156.859 131.141 158.595 131.112H158.637H158.667C159.162 131.121 159.618 131.246 160.025 131.45C159.015 133.297 157.925 135.085 156.761 136.824ZM158.664 129.409C158.647 129.409 158.634 129.396 158.634 129.396C158.621 129.396 158.608 129.409 158.591 129.409C156.856 129.379 155.445 127.969 155.445 126.22C155.445 124.484 156.856 123.06 158.575 123.047H158.673C160.409 123.064 161.803 124.484 161.803 126.22C161.81 127.969 160.399 129.379 158.664 129.409ZM158.677 121.325H158.578C156.856 121.298 155.448 119.888 155.448 118.152C155.448 116.403 156.859 114.993 158.595 114.966C158.608 114.966 158.621 114.979 158.637 114.979C158.637 114.979 158.65 114.966 158.667 114.966C160.402 114.993 161.813 116.403 161.813 118.152C161.81 119.888 160.412 121.295 158.677 121.325ZM158.664 113.257C158.647 113.257 158.634 113.241 158.634 113.241C158.621 113.241 158.608 113.257 158.591 113.257C156.856 113.228 155.445 111.817 155.445 110.068C155.445 108.319 156.856 106.909 158.591 106.895H158.634H158.664C160.399 106.909 161.81 108.319 161.81 110.068C161.81 111.817 160.399 113.228 158.664 113.257ZM158.664 105.173H158.634H158.591C156.856 105.16 155.445 103.736 155.445 102C155.445 100.265 156.826 98.8671 158.532 98.8277H158.716C160.422 98.8704 161.803 100.265 161.803 102C161.81 103.736 160.399 105.16 158.664 105.173ZM164.786 120.639C164.034 120.058 163.532 119.176 163.532 118.152C163.532 116.469 164.842 115.114 166.485 114.986C166 116.905 165.422 118.785 164.786 120.639ZM166.889 113.237C166.84 113.241 166.797 113.257 166.744 113.257C166.731 113.257 166.718 113.241 166.718 113.241C166.705 113.241 166.692 113.257 166.676 113.257C164.94 113.228 163.529 111.817 163.529 110.068C163.529 108.319 164.94 106.909 166.676 106.895H166.718H166.744C167.187 106.895 167.594 107.02 167.975 107.191C167.702 109.235 167.338 111.252 166.889 113.237ZM168.283 104.746C167.83 105.009 167.309 105.166 166.748 105.176H166.721H166.679C164.943 105.163 163.532 103.739 163.532 102.004C163.532 100.268 164.917 98.8704 166.62 98.831H166.803C167.473 98.8474 168.086 99.0836 168.592 99.4609C168.546 101.236 168.457 103.001 168.283 104.746ZM168.621 97.1052H163.473C161.639 95.6256 159.651 94.3395 156.196 94.3395C152.755 94.3395 150.835 95.5796 148.933 97.1052H134.474C134.444 97.1052 134.418 97.0888 134.375 97.0888H134.362C132.544 95.6223 130.583 94.3395 127.098 94.3395C123.627 94.3395 121.655 95.6223 119.847 97.1052H105.274C103.538 95.7076 101.776 94.5658 98.8695 94.3821V90.7863C101.635 90.9962 103.144 92.2397 104.739 93.552C106.557 95.0481 108.617 96.7542 112.554 96.7542C116.504 96.7542 118.561 95.0481 120.369 93.552C122.118 92.0986 123.768 90.7305 127.098 90.7305C130.428 90.7305 132.079 92.0986 133.827 93.552C135.645 95.0481 137.705 96.7542 141.642 96.7542C145.593 96.7542 147.653 95.0481 149.471 93.552C151.219 92.0986 152.87 90.7305 156.2 90.7305C159.543 90.7305 161.193 92.0986 162.942 93.552C164.385 94.743 166.032 96.0258 168.611 96.5081C168.608 96.7083 168.618 96.9051 168.621 97.1052ZM168.562 94.7594C166.623 94.3099 165.337 93.306 164.025 92.2266C162.204 90.7174 160.147 89.0244 156.196 89.0244C152.246 89.0244 150.189 90.7174 148.381 92.2266C146.633 93.6636 144.969 95.035 141.639 95.035C138.312 95.035 136.662 93.6669 134.91 92.2266C133.089 90.7174 131.045 89.0244 127.095 89.0244C123.145 89.0244 121.088 90.7174 119.28 92.2266C117.531 93.6636 115.881 95.035 112.551 95.035C109.221 95.035 107.57 93.6669 105.822 92.2266C104.158 90.842 102.252 89.2935 98.8662 89.0671V85.4712C101.632 85.6812 103.141 86.9247 104.736 88.237C106.553 89.7331 108.614 91.4392 112.551 91.4392C116.501 91.4392 118.558 89.7331 120.366 88.237C122.115 86.7836 123.765 85.4319 127.095 85.4319C130.425 85.4319 132.075 86.7836 133.824 88.237C135.642 89.7331 137.702 91.4392 141.639 91.4392C145.589 91.4392 147.65 89.7331 149.467 88.237C151.216 86.7836 152.866 85.4319 156.196 85.4319C159.54 85.4319 161.19 86.7836 162.939 88.237C164.333 89.382 165.905 90.6189 168.323 91.1472C168.434 92.3414 168.513 93.5455 168.562 94.7594ZM168.122 89.3164C166.433 88.8177 165.225 87.8991 164.021 86.9083C162.2 85.4122 160.143 83.7061 156.193 83.7061C152.243 83.7061 150.186 85.4122 148.378 86.9083C146.629 88.3617 144.966 89.7134 141.636 89.7134C138.309 89.7134 136.659 88.3617 134.907 86.9083C133.086 85.4122 131.042 83.7061 127.092 83.7061C123.141 83.7061 121.084 85.4122 119.277 86.9083C117.528 88.3617 115.878 89.7134 112.548 89.7134C109.217 89.7134 107.567 88.3617 105.818 86.9083C104.155 85.527 102.249 83.9883 98.8629 83.7488V80.1529C101.629 80.3629 103.138 81.6063 104.732 82.9187C106.55 84.4148 108.61 86.1208 112.548 86.1208C116.498 86.1208 118.555 84.4148 120.363 82.9187C122.111 81.4784 123.762 80.1103 127.092 80.1103C130.422 80.1103 132.072 81.4784 133.821 82.9187C135.638 84.4148 137.699 86.1208 141.636 86.1208C145.586 86.1208 147.646 84.4148 149.464 82.9187C151.213 81.4784 152.863 80.1103 156.193 80.1103C159.536 80.1103 161.187 81.4784 162.935 82.9187C164.175 83.9423 165.583 85.0185 167.584 85.6254C167.794 86.8426 167.978 88.0763 168.122 89.3164ZM167.237 83.6766C165.996 83.1517 165.006 82.397 164.025 81.59C162.204 80.0939 160.147 78.3878 156.196 78.3878C152.246 78.3878 150.189 80.0939 148.381 81.59C146.633 83.0434 144.969 84.3951 141.639 84.3951C138.312 84.3951 136.662 83.0401 134.91 81.59C133.089 80.0939 131.045 78.3878 127.095 78.3878C123.145 78.3878 121.088 80.0939 119.28 81.59C117.531 83.0434 115.881 84.3951 112.551 84.3951C109.221 84.3951 107.57 83.0401 105.822 81.59C104.158 80.2054 102.252 78.67 98.8662 78.4305V74.8346C101.632 75.061 103.141 76.288 104.736 77.5971C106.553 79.1063 108.614 80.7993 112.551 80.7993C116.501 80.7993 118.558 79.1063 120.366 77.5971C122.115 76.1601 123.765 74.792 127.095 74.792C130.425 74.792 132.075 76.1601 133.824 77.5971C135.642 79.1063 137.702 80.7993 141.639 80.7993C145.589 80.7993 147.65 79.1063 149.467 77.5971C151.216 76.1601 152.866 74.792 156.196 74.792C159.54 74.792 161.19 76.1601 162.939 77.5971C163.217 77.8301 163.506 78.0597 163.805 78.2894C165.544 79.6116 166.797 81.4981 167.23 83.6372L167.237 83.6766ZM165.691 77.5249C165.114 77.1345 164.563 76.7178 164.025 76.2716C162.204 74.7756 160.147 73.0695 156.196 73.0695C152.246 73.0695 150.189 74.7756 148.381 76.2716C146.633 77.7251 144.969 79.0932 141.639 79.0932C138.312 79.0932 136.662 77.7251 134.91 76.2716C133.089 74.7756 131.045 73.0695 127.095 73.0695C123.145 73.0695 121.088 74.7756 119.28 76.2716C117.531 77.7251 115.881 79.0932 112.551 79.0932C109.221 79.0932 107.57 77.7251 105.822 76.2716C104.158 74.8904 102.252 73.3517 98.8662 73.1253V69.5163C101.632 69.7427 103.141 70.9697 104.736 72.2821C106.553 73.7913 108.614 75.4973 112.551 75.4973C116.501 75.4973 118.558 73.7913 120.366 72.2821C122.115 70.8418 123.765 69.4736 127.095 69.4736C130.425 69.4736 132.075 70.8418 133.824 72.2821C135.642 73.7913 137.702 75.4973 141.639 75.4973C145.589 75.4973 147.65 73.7913 149.467 72.2821C151.216 70.8418 152.866 69.4736 156.196 69.4736C159.54 69.4736 161.19 70.8418 162.939 72.2821C163.362 72.6397 163.828 72.9908 164.31 73.332C164.815 74.7099 165.268 76.1109 165.691 77.5249ZM163.073 70.202C161.452 68.9389 159.481 67.7676 156.196 67.7676C152.246 67.7676 150.189 69.4605 148.381 70.9697C146.633 72.41 144.969 73.7782 141.639 73.7782C138.312 73.7782 136.662 72.41 134.91 70.9697C133.089 69.4605 131.045 67.7676 127.095 67.7676C123.145 67.7676 121.088 69.4605 119.28 70.9697C117.531 72.41 115.881 73.7782 112.551 73.7782C109.221 73.7782 107.57 72.41 105.822 70.9697C104.158 69.5754 102.252 68.0366 98.8662 67.8102V64.2144C101.632 64.4244 103.141 65.6645 104.736 66.9802C106.553 68.4763 108.614 70.1823 112.551 70.1823C116.501 70.1823 118.558 68.4763 120.366 66.9802C122.115 65.5267 123.765 64.1586 127.095 64.1586C130.425 64.1586 132.075 65.5267 133.824 66.9802C135.642 68.4763 137.702 70.1823 141.639 70.1823C145.589 70.1823 147.65 68.4763 149.467 66.9802C151.216 65.5267 152.866 64.1586 156.196 64.1586C158.214 64.1586 159.609 64.6639 160.783 65.3758C161.6 66.9539 162.374 68.5583 163.073 70.202ZM156.987 58.8862C157.853 60.1986 158.673 61.5437 159.451 62.9184C158.523 62.6297 157.46 62.4493 156.193 62.4493C152.243 62.4493 150.186 64.1422 148.378 65.6514C146.629 67.0884 144.966 68.4566 141.636 68.4566C138.309 68.4566 136.659 67.0884 134.907 65.6514C133.086 64.1422 131.042 62.4493 127.092 62.4493C123.141 62.4493 121.084 64.1422 119.277 65.6514C117.528 67.0884 115.878 68.4566 112.548 68.4566C109.217 68.4566 107.567 67.0884 105.818 65.6514C104.155 64.2702 102.249 62.7183 98.8629 62.4919V58.8961C101.629 59.1093 103.138 60.3495 104.732 61.6586C106.55 63.1547 108.61 64.8607 112.548 64.8607C116.498 64.8607 118.555 63.1514 120.363 61.6586C122.111 60.2052 123.762 58.8534 127.092 58.8534C130.422 58.8534 132.072 60.2084 133.821 61.6586C135.638 63.1547 137.699 64.8607 141.636 64.8607C145.586 64.8607 147.646 63.1514 149.464 61.6586C151.213 60.2052 152.863 58.8534 156.193 58.8534C156.472 58.8534 156.734 58.8666 156.987 58.8862ZM155.799 57.1539C152.118 57.2688 150.12 58.8928 148.378 60.3331C146.629 61.7865 144.966 63.1383 141.636 63.1383C138.309 63.1383 136.659 61.7833 134.907 60.3331C133.086 58.837 131.042 57.131 127.092 57.131C123.141 57.131 121.084 58.837 119.277 60.3331C117.528 61.7865 115.878 63.1383 112.548 63.1383C109.217 63.1383 107.567 61.7833 105.818 60.3331C104.155 58.9519 102.249 57.4131 98.8629 57.1736V53.5778C101.629 53.7877 103.138 55.0312 104.732 56.3435C106.55 57.8396 108.61 59.5457 112.548 59.5457C116.498 59.5457 118.555 57.8396 120.363 56.3435C122.111 54.9032 123.762 53.5351 127.092 53.5351C130.422 53.5351 132.072 54.9032 133.821 56.3435C135.638 57.8396 137.699 59.5457 141.636 59.5457C145.586 59.5457 147.646 57.8396 149.464 56.3435C150.635 55.3822 151.8 54.48 153.417 53.9682C154.244 55.0049 155.038 56.068 155.799 57.1539ZM150.366 50.3264C151.026 51.0548 151.665 51.7962 152.295 52.5541C150.681 53.1841 149.464 54.1224 148.381 55.0181C146.633 56.4715 144.969 57.8265 141.639 57.8265C138.312 57.8265 136.662 56.4715 134.91 55.0181C133.089 53.522 131.045 51.8159 127.095 51.8159C123.145 51.8159 121.088 53.522 119.28 55.0181C117.531 56.4715 115.881 57.8265 112.551 57.8265C109.221 57.8265 107.57 56.4715 105.822 55.0181C104.158 53.6368 102.252 52.0981 98.8662 51.8586V48.2627C101.632 48.4891 103.141 49.7162 104.736 51.0285C106.553 52.5377 108.614 54.2307 112.551 54.2307C116.501 54.2307 118.558 52.5377 120.366 51.0285C122.115 49.5915 123.765 48.2234 127.095 48.2234C130.425 48.2234 132.075 49.5915 133.824 51.0285C135.642 52.5377 137.702 54.2307 141.639 54.2307C145.589 54.2307 147.65 52.5377 149.467 51.0285C149.763 50.7825 150.064 50.5561 150.366 50.3264Z" fill="#F7AA92"/>
<path d="M15.6657 98.4616C15.833 98.1959 15.9839 97.9662 16.1217 97.7661C16.1283 97.7595 16.1316 97.7562 16.1348 97.7497C16.7517 96.8638 17.1519 96.5489 17.8737 96.2109L15.8002 96.2142H14.9439C14.9701 96.4406 14.7798 96.877 14.4977 97.3822C14.1401 98.022 13.684 98.6814 13.2739 99.2589C13.2772 98.6388 13.287 98.4944 13.287 97.8711C13.287 97.8022 13.3002 97.0443 13.8185 96.2109H11.1118C11.6138 96.8179 11.6466 97.6381 11.6466 97.835V101.638C11.6466 101.834 11.6138 102.651 11.1118 103.262H13.8153C13.2969 102.428 13.2838 101.67 13.2838 101.601C13.2838 100.981 13.2739 100.899 13.2706 100.279C13.7464 101.195 14.9636 102.865 15.5082 103.193C15.8429 103.393 16.3284 103.452 16.7779 103.452C17.3947 103.452 17.9426 103.34 17.9426 103.34C16.9157 102.658 15.459 100.919 14.852 99.7215C15.0817 99.3704 15.3606 98.9374 15.6591 98.4682C15.6624 98.4682 15.6624 98.4649 15.6657 98.4616Z" fill="#F7AA92"/>
<path d="M180.983 98.4616C180.816 98.1959 180.665 97.9662 180.527 97.7661C180.521 97.7595 180.517 97.7562 180.514 97.7497C179.897 96.8638 179.497 96.5489 178.775 96.2109L180.849 96.2142H181.705C181.679 96.4406 181.869 96.877 182.151 97.3822C182.509 98.022 182.965 98.6814 183.375 99.2589C183.372 98.6388 183.362 98.4944 183.362 97.8711C183.362 97.8022 183.349 97.0443 182.83 96.2109H185.534C185.032 96.8179 184.999 97.6381 184.999 97.835V101.638C184.999 101.834 185.032 102.651 185.534 103.262H182.83C183.349 102.428 183.362 101.67 183.362 101.601C183.362 100.981 183.372 100.899 183.375 100.279C182.899 101.195 181.682 102.865 181.138 103.193C180.803 103.393 180.317 103.452 179.868 103.452C179.251 103.452 178.703 103.34 178.703 103.34C179.73 102.658 181.187 100.919 181.794 99.7215C181.564 99.3704 181.285 98.9374 180.987 98.4682C180.99 98.4682 180.99 98.4649 180.983 98.4616Z" fill="#F7AA92"/>
<path d="M29.311 137.432L21.8174 141.064C21.8174 141.064 20.9152 141.5 20.2853 142.537L18.7564 139.381C19.5241 139.509 20.2295 139.417 20.8693 139.105L26.6108 136.32L17.549 137.091C17.047 136.202 17.2537 135.312 17.7984 134.637L22.7427 129.112L17.7196 131.546C16.7288 132.035 16.2596 132.452 15.7806 133.252L14.5503 130.716C15.5116 130.837 15.9775 130.696 17.07 130.211L23.7236 126.982C24.7637 126.474 25.2033 126.077 25.6889 125.332L26.7519 127.524L20.3837 135.657L30.187 134.597L31.414 137.137C30.2132 136.996 29.311 137.432 29.311 137.432Z" fill="#F7AA92"/>
<path d="M28.7898 151.153C28.7898 151.153 27.9892 151.756 27.5693 152.898L25.4531 150.093C26.4308 150.162 27.3396 149.515 27.4643 149.424L34.1409 144.387C34.2787 144.282 35.1449 143.6 35.3516 142.629L37.4677 145.434C36.2571 145.523 35.4533 146.13 35.4533 146.13L28.7898 151.153Z" fill="#F7AA92"/>
<path d="M49.5444 157.876C48.7209 158.128 48.1697 158.443 47.4644 159.204L40.5056 166.721C39.7018 166.015 39.3901 165.136 39.5673 164.086L40.6893 155.057L36.6473 159.424C35.8599 160.274 35.6138 160.848 35.4235 161.688L33.4058 159.818C34.2293 159.565 34.7673 159.263 35.5547 158.414L40.5876 152.977C41.375 152.128 41.6342 151.566 41.8245 150.727L43.6159 152.383L42.1756 162.702L46.2898 158.259C47.0772 157.41 47.3364 156.849 47.5267 156.009L49.5444 157.876Z" fill="#F7AA92"/>
<path d="M60.6531 171.609C57.1983 177.505 52.0539 174.513 52.0539 174.513L48.6221 172.502C49.5506 172.183 50.1411 171.245 50.2199 171.111L54.4522 163.886C54.5309 163.752 55.0592 162.78 54.8853 161.812L58.9437 164.191C58.9437 164.191 63.4517 166.832 60.6531 171.609ZM58.3236 170.727C60.7187 166.639 57.615 164.818 57.615 164.818L56.8965 164.398L51.8505 173.01L52.2868 173.269C52.8774 173.614 55.8039 175.025 58.3236 170.727Z" fill="#F7AA92"/>
<path d="M72.0715 171.634L70.6738 175.762L72.4127 176.349C72.5603 176.398 73.6233 176.723 74.5288 176.352L73.7185 178.744C72.9639 177.796 72.0124 177.471 72.0124 177.471L70.2932 176.89L69.1351 180.316C69.1351 180.316 68.7643 181.411 69.1088 182.442L65.6016 181.254C66.448 180.759 66.8352 179.718 66.8844 179.571L69.5682 171.638C69.6174 171.49 69.9422 170.427 69.5714 169.521L77.5505 172.222L75.9593 174.111L75.1981 172.96C75.0439 172.743 74.8405 172.586 74.5912 172.481L72.0715 171.634Z" fill="#F7AA92"/>
<path d="M93.1869 181.107C92.6095 185.815 90.0143 187.187 87.0418 186.823C84.0693 186.458 81.8843 184.496 82.465 179.788C83.0424 175.08 85.6409 173.673 88.6133 174.037C91.5858 174.404 93.7545 176.468 93.1869 181.107ZM90.9592 180.55C90.5753 177.833 89.9749 176.022 86.0214 175.536C85.2439 175.438 84.7813 176.065 84.6369 177.423C84.5286 178.296 84.5713 179.405 84.7353 180.592C85.0798 183.04 85.9394 185.29 89.0989 185.681C90.1718 185.812 90.6245 185.028 90.7623 183.906C90.8771 182.981 91.1068 181.599 90.9592 180.55Z" fill="#F7AA92"/>
<path d="M112.072 180.09C112.557 184.804 110.336 186.721 107.357 187.029C104.378 187.334 101.816 185.91 101.33 181.196C100.845 176.481 103.062 174.529 106.041 174.224C109.02 173.915 111.593 175.444 112.072 180.09ZM109.778 180.041C108.801 177.478 107.81 175.848 103.853 176.255C103.072 176.33 102.764 177.045 102.925 178.4C103.013 179.276 103.302 180.346 103.728 181.468C104.608 183.774 105.946 185.779 109.112 185.454C110.188 185.343 110.454 184.476 110.336 183.354C110.241 182.432 110.156 181.035 109.778 180.041Z" fill="#F7AA92"/>
<path d="M129.145 174.515C131.331 180.995 125.694 182.911 125.694 182.911L121.921 184.184C122.292 183.275 121.97 182.212 121.921 182.065L119.244 174.128C119.195 173.981 118.807 172.94 117.961 172.442L122.423 170.939C122.42 170.939 127.374 169.266 129.145 174.515ZM126.947 175.693C125.432 171.198 122.019 172.35 122.019 172.35L121.232 172.616L124.424 182.078L124.907 181.92C125.556 181.704 128.542 180.418 126.947 175.693Z" fill="#F7AA92"/>
<path d="M142.41 161.061C142.423 161.923 142.578 162.537 143.112 163.426L148.411 172.193C147.512 172.77 146.58 172.826 145.619 172.363L137.253 168.787L140.334 173.879C140.934 174.87 141.416 175.267 142.171 175.68L139.818 177.104C139.802 176.241 139.661 175.641 139.061 174.65L135.228 168.311C134.628 167.317 134.162 166.914 133.404 166.5L135.491 165.237L145.009 169.473L141.876 164.289C141.275 163.298 140.809 162.891 140.051 162.481L142.41 161.061Z" fill="#F7AA92"/>
<path d="M159.999 159.155L162.282 160.251L156.121 165.996C156.088 165.018 155.353 164.182 155.248 164.067L149.536 157.942C149.431 157.83 148.647 157.036 147.676 156.934L153.837 151.189L154.749 153.486L153.375 153.607C153.112 153.64 152.876 153.742 152.666 153.913L150.714 155.733L153.686 158.922L155.028 157.672C155.14 157.567 155.934 156.787 156.035 155.812L157.758 157.659C156.564 157.876 155.829 158.558 155.829 158.558L154.5 159.795L157.532 163.047L159.48 161.229C159.664 161.032 159.782 160.802 159.835 160.543L159.999 159.155Z" fill="#F7AA92"/>
<path d="M170.908 144.472C172.184 145.394 172.548 147.937 170.94 150.171C169.717 151.87 168.552 152.687 166.98 152.855L166.419 149.935C167.863 150.036 169.553 149.705 170.734 148.061C171.16 147.471 171.163 147.113 170.868 146.9C170.222 146.434 167.958 147.015 165.698 147.651C163.529 148.265 161.99 148.711 160.74 147.812C159.464 146.89 158.968 144.764 160.668 142.405C161.8 140.834 162.879 140.286 163.585 140.135L165.202 142.536C163.732 142.946 161.921 143.33 160.858 144.803C160.553 145.223 160.438 145.568 160.786 145.821C161.278 146.175 163.447 145.716 165.333 145.105C167.417 144.433 169.546 143.491 170.908 144.472Z" fill="#F7AA92"/>
<path d="M178.794 129.073C180.228 129.722 181.091 132.144 179.956 134.65C179.093 136.56 178.112 137.59 176.606 138.066L175.477 135.313C176.911 135.126 178.502 134.467 179.336 132.623C179.634 131.96 179.569 131.606 179.237 131.458C178.512 131.13 176.406 132.147 174.316 133.22C172.311 134.25 170.891 134.995 169.487 134.358C168.053 133.709 167.147 131.72 168.345 129.073C169.145 127.308 170.094 126.56 170.756 126.268L172.817 128.302C171.455 128.997 169.759 129.729 169.008 131.382C168.794 131.855 168.748 132.216 169.139 132.393C169.69 132.642 171.727 131.763 173.453 130.792C175.366 129.726 177.266 128.38 178.794 129.073Z" fill="#F7AA92"/>
</svg>
