<svg width="97" height="22" viewBox="0 0 97 22" fill="none" xmlns="http://www.w3.org/2000/svg">
<g clip-path="url(#clip0_2703_4295)">
<path d="M15.1055 0.0546875H18.1748V3.28775H15.1055V0.0546875ZM68.8423 0.0546875H71.9115V3.28775H68.8423V0.0546875Z" fill="#464649"/>
<path d="M8.32358 4.44727C6.38908 4.44727 5.27028 5.31523 4.73062 5.91487C4.6665 5.39815 4.32559 4.72781 2.99563 4.72781H0.107422V7.75103H1.2911C1.49135 7.75103 1.55585 7.81496 1.55585 8.01484V21.8188H4.99875V16.6379C4.99875 16.498 4.99593 16.3673 4.99236 16.2504C5.53014 16.7443 6.55718 17.4243 8.16149 17.4243C11.5266 17.4243 13.8792 14.7568 13.8792 10.9363C13.8792 7.0553 11.6454 4.44727 8.32358 4.44727ZM7.62409 14.4255C5.77064 14.4255 4.92862 12.6508 4.92862 11.0067C4.92862 8.41686 6.34489 7.4938 7.67016 7.4938C9.29534 7.4938 10.3884 8.89503 10.3884 10.9824C10.3884 13.3627 8.99862 14.4255 7.62409 14.4255Z" fill="#464649"/>
<path d="M18.4102 13.8811V6.56674C18.4102 5.33004 17.8142 4.72852 16.5936 4.72852H13.5176V7.75173H14.7026C14.9021 7.75173 14.9662 7.81566 14.9662 8.01535V15.3054C14.9662 16.5596 15.5438 17.1433 16.7798 17.1433H19.8598V14.1468H18.6744C18.4837 14.1468 18.4102 14.0706 18.4102 13.8811Z" fill="#464649"/>
<path d="M27.403 4.44792C25.468 4.44792 24.3507 5.31588 23.8086 5.91553C23.7446 5.39881 23.4054 4.72847 22.0756 4.72847H19.1855V7.75168H20.3705C20.57 7.75168 20.6347 7.81561 20.6347 8.01549V21.8195H24.0791V16.6386C24.0791 16.4987 24.0754 16.368 24.0711 16.251C24.6066 16.745 25.637 17.4249 27.2407 17.4249C30.6062 17.4249 32.9577 14.7575 32.9577 10.937C32.9577 7.05595 30.7252 4.44792 27.4032 4.44792M26.7007 14.4261C24.8523 14.4261 24.0073 12.6515 24.0073 11.0073C24.0073 8.41751 25.4232 7.49445 26.7496 7.49445C28.3746 7.49445 29.4673 8.89568 29.4673 10.983C29.4673 13.3634 28.0794 14.4261 26.7007 14.4261ZM39.3039 4.44792C35.5951 4.44792 33.0017 7.11669 33.0017 10.937C33.0017 14.6954 35.8001 17.4249 39.6559 17.4249C42.6893 17.4249 44.5425 15.6294 44.6207 15.5534L44.7591 15.4169L43.2599 12.9279L43.0369 13.1389C43.0226 13.1496 41.6618 14.4038 39.8644 14.4038C38.1392 14.4038 36.8764 13.3508 36.5787 11.6989H44.742L44.7616 11.4733C44.7668 11.4424 44.8351 10.7098 44.8351 10.3518C44.8351 6.82091 42.6122 4.44792 39.3039 4.44792ZM36.7066 9.14482C37.0802 7.92655 38.014 7.23628 39.3039 7.23628C40.34 7.23628 41.1387 8.02452 41.2788 9.14482H36.7066ZM57.3557 13.881V1.89253C57.3557 0.656773 56.7516 0.0546875 55.5153 0.0546875H52.4383V3.07771H53.6229C53.8222 3.07771 53.888 3.14221 53.888 3.34228V5.50937C53.3799 5.05057 52.3875 4.44773 50.6794 4.44773C47.3386 4.44773 45.0073 7.11669 45.0073 10.9368C45.0073 14.818 47.2412 17.4249 50.5632 17.4249C52.4629 17.4249 53.5573 16.543 54.092 15.9291C54.1616 16.465 54.5085 17.1432 55.7969 17.1432H58.7795V14.1469H57.6195C57.4287 14.1469 57.3557 14.0706 57.3557 13.881ZM51.2164 14.4263C49.5792 14.4263 48.52 13.0561 48.52 10.937C48.52 8.87706 49.6221 7.49445 51.2634 7.49445C53.124 7.49445 53.958 9.21026 53.958 10.9144C53.958 13.5048 52.5406 14.4263 51.2164 14.4263ZM66.4581 4.56412C65.0253 4.56412 63.706 5.39129 62.9242 6.70884V6.4251C62.9242 5.30009 62.3029 4.72828 61.0843 4.72828H58.1246V7.75168H59.3083C59.5076 7.75168 59.5736 7.81524 59.5736 8.01549V17.1436H63.0158V12.1748C63.0158 11.5204 63.0992 10.8903 63.2621 10.3084C63.7799 8.59482 65.1573 7.98484 66.271 7.98484C66.6659 7.98484 66.9536 8.02677 66.9579 8.02809L67.2456 8.07134V4.6493L67.0361 4.61376C67.0256 4.61188 66.7341 4.56412 66.4581 4.56412ZM72.1454 13.881V6.56669C72.1454 5.32999 71.5527 4.72847 70.3312 4.72847H67.5481V7.75168H68.4377C68.6385 7.75168 68.7023 7.81561 68.7023 8.0153V15.3054C68.7023 16.5596 69.2801 17.1432 70.5183 17.1432H73.5955V14.1467H72.4101C72.2193 14.1467 72.1454 14.0706 72.1454 13.881Z" fill="#464649"/>
<path d="M85.0817 7.74996V4.72675H83.2446C82.1718 4.72675 81.5961 5.09868 81.2561 6.0129L79.0119 12.281C78.9316 12.5258 78.8607 12.7737 78.7994 13.0239C78.734 12.7727 78.6569 12.5091 78.5717 12.2763L76.3275 6.01065C75.9831 5.08702 75.4272 4.72656 74.3393 4.72656H72.3867V7.74996H72.8935C73.162 7.74996 73.2483 7.84097 73.3124 8.00907L76.7862 17.1415H80.657L84.1313 8.00907C84.1949 7.84097 84.2836 7.74996 84.5529 7.74996H85.0817Z" fill="#464649"/>
<path d="M96.1454 11.473C96.1484 11.4419 96.2181 10.7092 96.2181 10.3514C96.2181 6.82045 93.9943 4.44727 90.685 4.44727C86.9763 4.44727 84.3848 7.11622 84.3848 10.9363C84.3848 14.6951 87.1799 17.4244 91.0369 17.4244C94.0706 17.4244 95.925 15.6289 96.0021 15.5529L96.1422 15.4164L94.6456 12.9274L94.4181 13.1384C94.4062 13.1491 93.0385 14.4033 91.2475 14.4033C89.5213 14.4033 88.2577 13.3503 87.9593 11.6984H96.1252L96.1454 11.473ZM88.0881 9.14455C88.4647 7.92609 89.3955 7.23562 90.685 7.23562C91.7239 7.23562 92.5197 8.02405 92.6607 9.14455H88.0881Z" fill="#464649"/>
<path d="M66.4596 4.56412C65.3468 4.56412 64.3104 5.06749 63.5325 5.90518C64.1897 5.89935 64.851 5.8939 65.5123 5.8939C66.0933 5.8939 66.6695 5.89935 67.2473 5.90274V4.6493L67.0376 4.61376C67.0271 4.61188 66.7356 4.56412 66.4596 4.56412ZM81.2575 6.01462L81.1159 6.41306C82.4472 6.50464 83.7678 6.60561 85.0831 6.71862V4.72847H83.2464C82.1734 4.72847 81.5973 5.1004 81.2575 6.01462ZM8.32358 4.44792C6.38908 4.44792 5.2699 5.31588 4.73062 5.91534C4.66612 5.39881 4.32559 4.72847 2.99563 4.72847H0.107422V7.75168H1.2911C1.49135 7.75168 1.55585 7.81561 1.55585 8.0153V15.7078C3.16479 15.1489 4.78345 14.6185 6.41108 14.1166C5.39946 13.5377 4.92862 12.2367 4.92862 11.0069C4.92862 8.4177 6.34489 7.49445 7.67016 7.49445C9.29534 7.49445 10.3884 8.89568 10.3884 10.983C10.3884 11.8597 10.1981 12.555 9.89084 13.0864C11.191 12.7179 12.4957 12.3654 13.8046 12.0291C13.8475 11.6765 13.8792 11.3134 13.8792 10.937C13.8792 7.05595 11.6454 4.44792 8.32358 4.44792ZM16.595 4.72847H13.519V7.75168H14.704C14.9033 7.75168 14.9672 7.81561 14.9672 8.01549V11.7391C16.1125 11.4536 17.2607 11.1799 18.4116 10.918V6.56669C18.4116 5.33036 17.8155 4.72847 16.595 4.72847ZM15.1071 0.0546875H18.1764V3.28775H15.1071V0.0546875ZM27.4049 4.44792C25.4697 4.44792 24.3526 5.31588 23.8104 5.91534C23.746 5.39881 23.4073 4.72847 22.0771 4.72847H19.1874V7.75168H20.3721C20.5716 7.75168 20.6366 7.81561 20.6366 8.0153V10.4268C21.8116 10.1778 22.9888 9.93901 24.1679 9.71043C24.5624 8.11252 25.6803 7.49445 26.7511 7.49445C27.7204 7.49445 28.4929 7.99988 28.9639 8.84453C30.1523 8.64653 31.3482 8.45568 32.5548 8.27498C31.7707 5.9112 29.8926 4.44792 27.4049 4.44792ZM39.3054 4.44792C36.5956 4.44792 34.4876 5.87453 33.5459 8.13207C35.0092 7.92129 36.4877 7.72441 37.9792 7.54165C38.3607 7.34289 38.8049 7.23647 39.3054 7.23647C39.4951 7.23647 39.6713 7.27182 39.8421 7.3207C41.1952 7.16765 42.5607 7.02662 43.9369 6.89744C42.9909 5.36195 41.3574 4.44792 39.3054 4.44792ZM55.5168 0.0546875H52.4398V3.07771H53.6244C53.8233 3.07771 53.8895 3.14221 53.8895 3.34228V5.50937C53.3815 5.05057 52.389 4.44773 50.6809 4.44773C48.8111 4.44773 47.2581 5.28392 46.2523 6.69192C49.9481 6.38222 53.6508 6.16284 57.3573 6.03399V1.89253C57.3573 0.656773 56.7531 0.0546875 55.5168 0.0546875ZM61.0862 4.72847H58.1259V6.01255C59.6966 5.96253 61.2744 5.92681 62.8657 5.90876C62.6914 5.12823 62.0987 4.72847 61.0862 4.72847ZM68.8439 0.0546875H71.9132V3.28775H68.8439V0.0546875ZM70.3329 4.72847H67.55V5.90481C69.0701 5.91853 70.583 5.94618 72.0879 5.98735C71.9167 5.14647 71.3429 4.72847 70.3329 4.72847ZM74.3407 4.72847H72.3881V5.99657C73.7247 6.03606 75.0532 6.08494 76.3741 6.14511L76.329 6.01255C75.9845 5.08893 75.4287 4.72847 74.3407 4.72847ZM90.6861 4.44792C88.5713 4.44792 86.8233 5.31758 85.707 6.77146C87.3237 6.91342 88.9308 7.07269 90.5197 7.24794C90.7645 7.27482 91.0048 7.29964 91.2455 7.32785C92.7791 7.50122 94.296 7.69188 95.7997 7.89703C95.012 5.76604 93.1503 4.44792 90.6861 4.44792Z" fill="#464649"/>
</g>
<defs>
<clipPath id="clip0_2703_4295">
<rect width="96.3222" height="22" fill="white"/>
</clipPath>
</defs>
</svg>
