<svg width="30" height="30" viewBox="0 0 30 30" fill="none" xmlns="http://www.w3.org/2000/svg">
<rect width="30" height="30" fill="#00DCD2"/>
<path d="M20.4166 19.5066V8.12331C20.4166 7.50291 19.9136 7 19.2933 7H12.513C11.8926 7 11.3896 7.50291 11.3896 8.12331V19.5066C11.3896 20.127 11.8926 20.6299 12.513 20.6299H19.2933C19.9136 20.6299 20.4166 20.127 20.4166 19.5066Z" fill="#1F1F1F"/>
<path d="M9 11.3793C8.99969 11.217 9.04786 11.0582 9.13841 10.9235L11.5356 7.41527C11.6433 7.28724 11.7779 7.18443 11.9298 7.11411C12.0817 7.04378 12.2473 7.00766 12.4146 7.00829H12.6751C12.7331 7.00555 12.791 7.01455 12.8455 7.03474C12.8999 7.05494 12.9497 7.08591 12.9919 7.12582C13.0341 7.16572 13.0678 7.21372 13.091 7.26696C13.1141 7.32019 13.1264 7.37756 13.1268 7.43562V19.7469C13.1267 19.9433 13.0575 20.1334 12.9315 20.2841L10.4896 23.8289C10.4147 23.9354 10.3154 24.0224 10.2 24.0827C10.0845 24.1428 9.95635 24.1745 9.82621 24.1748C9.61031 24.1748 9.4033 24.0891 9.25064 23.9364C9.09799 23.7838 9.01223 23.5768 9.01223 23.3609L9 11.3793Z" fill="#1F1F1F"/>
<path d="M18.4416 8.75H13.3666C13.2407 8.75 13.1387 8.85202 13.1387 8.97794V18.6478C13.1387 18.7737 13.2407 18.8758 13.3666 18.8758H18.4416C18.5676 18.8758 18.6696 18.7737 18.6696 18.6478V8.97794C18.6696 8.85202 18.5676 8.75 18.4416 8.75Z" fill="#FF6BF5"/>
</svg>
