<svg width="16" height="16" viewBox="0 0 16 16" fill="none" xmlns="http://www.w3.org/2000/svg">
<g clip-path="url(#clip0_10006_15173)">
<path fill-rule="evenodd" clip-rule="evenodd" d="M2.90501 0L7.44192 4.14321V4.14226V0.00956025H8.32508V4.16175L12.8823 0V4.72387H14.7533V11.5376H12.8881V15.744L8.32508 11.7704V15.7896H7.44192V11.836L2.91015 15.7922V11.5376H1.03906V4.72387H2.90501V0ZM6.77612 5.58854H1.92222V10.6729H2.90905V9.06913L6.77612 5.58854ZM3.79326 9.45279V13.8628L7.44192 10.6775V6.16801L3.79326 9.45279ZM8.35049 10.6354V6.16376L12.0002 9.44874V11.5376H12.0049V13.8177L8.35049 10.6354ZM12.8881 10.6729H13.8702V5.58854H9.05244L12.8881 9.03309V10.6729ZM11.9991 4.72387V1.98893L9.00429 4.72387H11.9991ZM6.78298 4.72387H3.78817V1.98893L6.78298 4.72387Z" fill="#18181B"/>
</g>
<defs>
<clipPath id="clip0_10006_15173">
<rect width="16" height="16" fill="white"/>
</clipPath>
</defs>
</svg>
