<svg width="20" height="20" viewBox="0 0 20 20" fill="none" xmlns="http://www.w3.org/2000/svg">
<path d="M18.7148 17.7071C18.6719 17.8293 18.5921 17.9351 18.4865 18.01C18.3808 18.0849 18.2545 18.1251 18.125 18.125H1.875C1.74542 18.1251 1.61901 18.085 1.51326 18.0101C1.40752 17.9352 1.32767 17.8292 1.28476 17.707C1.24186 17.5847 1.23802 17.4521 1.27378 17.3276C1.30955 17.203 1.38314 17.0926 1.48438 17.0118C1.61172 16.9102 4.49453 14.6477 9.16328 14.3985C8.92046 13.4307 8.83369 12.4303 8.90625 11.4352C9.04141 9.7391 9.75859 7.47972 12.2617 5.77269C11.8779 5.67947 11.4848 5.63045 11.0898 5.6266H10.9594C9.475 5.67504 8.54219 6.54144 8.10781 8.2766C8.07395 8.41207 7.9957 8.5323 7.88553 8.61811C7.77537 8.70392 7.63964 8.75036 7.5 8.75004C7.44732 8.75069 7.39478 8.74439 7.34375 8.73129C7.18298 8.69107 7.04476 8.58864 6.95949 8.44653C6.87422 8.30442 6.84889 8.13426 6.88906 7.97347C7.61172 5.08676 9.47578 4.42504 10.9125 4.37972C11.4831 4.36726 12.0528 4.43164 12.6063 4.57113C12.3078 4.0766 11.8703 3.56097 11.2617 3.3016C10.4805 2.97035 9.52969 3.11488 8.425 3.73207C8.35318 3.77208 8.27419 3.79756 8.19253 3.80704C8.11087 3.81652 8.02814 3.80983 7.94906 3.78734C7.86999 3.76485 7.79611 3.72701 7.73167 3.67597C7.66722 3.62493 7.61345 3.5617 7.57344 3.48988C7.53343 3.41806 7.50795 3.33907 7.49847 3.25741C7.48898 3.17575 7.49568 3.09302 7.51817 3.01394C7.54066 2.93487 7.5785 2.861 7.62954 2.79655C7.68058 2.7321 7.74381 2.67833 7.81563 2.63832C9.27969 1.82191 10.6063 1.65863 11.7594 2.15394C12.7352 2.57269 13.3789 3.38676 13.7812 4.10707C14.2633 3.35394 14.8648 2.84379 15.5297 2.62738C16.4563 2.32504 17.4547 2.57113 18.4984 3.35941C18.6248 3.4613 18.7066 3.60839 18.7265 3.76953C18.7464 3.93067 18.7028 4.09321 18.6049 4.22276C18.507 4.3523 18.3626 4.43868 18.2021 4.4636C18.0417 4.48853 17.8779 4.45004 17.7453 4.35629C17.0492 3.83051 16.4352 3.64847 15.9219 3.81488C15.3516 3.99847 14.9164 4.59613 14.6422 5.11254C15.206 5.22603 15.7485 5.42717 16.25 5.70863C17.3914 6.36097 18.75 7.74379 18.75 10.6258C18.75 10.7916 18.6842 10.9506 18.5669 11.0678C18.4497 11.185 18.2908 11.2508 18.125 11.2508C17.9592 11.2508 17.8003 11.185 17.6831 11.0678C17.5658 10.9506 17.5 10.7916 17.5 10.6258C17.5 8.79301 16.8703 7.50082 15.625 6.79769C15.48 6.71536 15.33 6.64229 15.1758 6.57894C15.5693 7.37897 15.7073 8.28065 15.5711 9.16176C15.4729 9.81363 15.2369 10.4371 14.8789 10.9907C14.7831 11.125 14.638 11.216 14.4754 11.2439C14.3127 11.2717 14.1457 11.234 14.0106 11.1391C13.8756 11.0443 13.7836 10.8998 13.7547 10.7373C13.7258 10.5749 13.7623 10.4076 13.8563 10.2719C13.9148 10.1868 15.132 8.36722 13.6016 6.41488C11.4922 7.60316 10.3289 9.32504 10.1516 11.5391C10.0825 12.4983 10.1838 13.4621 10.4508 14.386C15.3453 14.5274 18.382 16.9118 18.5133 17.0157C18.6141 17.096 18.6876 17.2056 18.7237 17.3294C18.7597 17.4532 18.7567 17.5851 18.7148 17.7071ZM4.0625 13.125C4.49515 13.125 4.91808 12.9967 5.27781 12.7564C5.63754 12.516 5.91792 12.1744 6.08349 11.7747C6.24905 11.3749 6.29237 10.9351 6.20797 10.5108C6.12356 10.0864 5.91522 9.69667 5.6093 9.39074C5.30337 9.08481 4.91359 8.87647 4.48926 8.79207C4.06493 8.70766 3.62509 8.75098 3.22538 8.91655C2.82567 9.08212 2.48403 9.36249 2.24366 9.72223C2.0033 10.082 1.875 10.5049 1.875 10.9375C1.875 11.5177 2.10547 12.0741 2.5157 12.4843C2.92594 12.8946 3.48234 13.125 4.0625 13.125Z" fill="white"/>
</svg>
