<svg width="28" height="28" viewBox="0 0 28 28" fill="none" xmlns="http://www.w3.org/2000/svg">
<path d="M18.1322 24.5H22.75C23.2141 24.5 23.6592 24.3156 23.9874 23.9874C24.3156 23.6592 24.5 23.2141 24.5 22.75V18.632C24.4993 18.4885 24.4632 18.3474 24.3951 18.2211C24.327 18.0948 24.2288 17.9873 24.1093 17.9078C23.9898 17.8284 23.8526 17.7796 23.7098 17.7657C23.5669 17.7518 23.4229 17.7732 23.2903 17.8281C22.9802 17.9562 22.648 18.022 22.3125 18.0217C20.8655 18.0217 19.6875 16.8077 19.6875 15.3169C19.6875 13.8261 20.8655 12.612 22.3125 12.612C22.648 12.6118 22.9802 12.6776 23.2903 12.8056C23.4236 12.8608 23.5684 12.8822 23.7119 12.8678C23.8555 12.8535 23.9932 12.8039 24.1129 12.7235C24.2327 12.6431 24.3307 12.5343 24.3982 12.4068C24.4657 12.2794 24.5007 12.1372 24.5 11.993V7.875C24.5 7.41087 24.3156 6.96575 23.9874 6.63756C23.6592 6.30937 23.2141 6.125 22.75 6.125H18.7884C18.8047 5.97974 18.8128 5.83367 18.8125 5.6875C18.8125 4.64321 18.3977 3.64169 17.6592 2.90327C16.9208 2.16484 15.9193 1.75 14.875 1.75C13.8307 1.75 12.8292 2.16484 12.0908 2.90327C11.3523 3.64169 10.9375 4.64321 10.9375 5.6875C10.9372 5.83367 10.9453 5.97974 10.9616 6.125H7C6.53587 6.125 6.09075 6.30937 5.76256 6.63756C5.43437 6.96575 5.25 7.41087 5.25 7.875V11.3991C5.10474 11.3828 4.95867 11.3747 4.8125 11.375C3.76821 11.375 2.76669 11.7898 2.02827 12.5283C1.28984 13.2667 0.875 14.2682 0.875 15.3125C0.875 16.3568 1.28984 17.3583 2.02827 18.0967C2.76669 18.8352 3.76821 19.25 4.8125 19.25C4.95867 19.2503 5.10474 19.2422 5.25 19.2259V22.75C5.25 23.2141 5.43437 23.6592 5.76256 23.9874C6.09075 24.3156 6.53587 24.5 7 24.5H11.6178" fill="#136DF5"/>
</svg>
