<svg width="16" height="16" viewBox="0 0 16 16" fill="none" xmlns="http://www.w3.org/2000/svg">
<path d="M14 3.28972V6.71829C14 6.86984 13.9473 7.01519 13.8536 7.12235C13.7598 7.22951 13.6326 7.28972 13.5 7.28972H10.5C10.4011 7.28981 10.3043 7.25634 10.222 7.19356C10.1397 7.13077 10.0756 7.0415 10.0377 6.93703C9.99981 6.83256 9.98991 6.71759 10.0092 6.60668C10.0286 6.49578 10.0762 6.39392 10.1462 6.314L11.2906 5.004C10.37 3.99596 9.14556 3.43103 7.87063 3.42615H7.8425C6.53609 3.42322 5.28121 4.00827 4.34938 5.05472C4.25389 5.15659 4.12731 5.21171 3.99672 5.20829C3.86612 5.20486 3.74189 5.14317 3.65059 5.0364C3.55929 4.92963 3.50817 4.78627 3.50818 4.63698C3.50819 4.48769 3.55932 4.34433 3.65063 4.23757C4.76524 2.99299 6.25981 2.29282 7.8181 2.28522C9.37639 2.27762 10.8761 2.96319 12 4.19686L13.1475 2.88543C13.2175 2.80591 13.3065 2.75185 13.4033 2.73004C13.5002 2.70824 13.6005 2.71967 13.6916 2.7629C13.7828 2.80613 13.8607 2.87922 13.9156 2.97297C13.9705 3.06672 13.9998 3.17693 14 3.28972ZM11.6506 12.9533C10.7245 13.9871 9.48355 14.5701 8.18896 14.5795C6.89436 14.589 5.64702 14.0242 4.70938 13.004L5.85375 11.6961C5.9244 11.6163 5.97266 11.5143 5.99236 11.403C6.01205 11.2918 6.00231 11.1763 5.96435 11.0714C5.9264 10.9665 5.86196 10.8769 5.77926 10.814C5.69655 10.7511 5.59934 10.7178 5.5 10.7183H2.5C2.36739 10.7183 2.24022 10.7785 2.14645 10.8857C2.05268 10.9928 2 11.1382 2 11.2897V14.7183C1.99992 14.8314 2.0292 14.9419 2.08414 15.036C2.13908 15.13 2.21719 15.2034 2.30861 15.2466C2.40002 15.2899 2.50061 15.3012 2.59765 15.2792C2.6947 15.2571 2.78382 15.2026 2.85375 15.1226L4 13.8111C5.10762 15.0328 6.58568 15.7177 8.125 15.7226H8.15812C9.72568 15.7272 11.2317 15.0258 12.35 13.7704C12.4413 13.6637 12.4924 13.5203 12.4924 13.371C12.4925 13.2217 12.4413 13.0784 12.35 12.9716C12.2587 12.8648 12.1345 12.8031 12.0039 12.7997C11.8733 12.7963 11.7467 12.8514 11.6512 12.9533H11.6506Z" fill="black"/>
</svg>
