<svg width="107" height="32" viewBox="0 0 107 32" fill="none" xmlns="http://www.w3.org/2000/svg">
<g clip-path="url(#clip0_8148_4475)">
<path d="M30.0783 16.9841C30.0783 19.5072 29.7702 21.7226 29.2154 24.2457C28.3525 27.8764 25.8255 30.3995 22.1889 31.1995C17.3813 32.3072 12.3272 32.3072 7.58122 31.1995C4.19124 30.3995 1.41763 27.5688 0.801267 24.2457C0.30818 21.7226 0 19.1995 0 16.9841C0 14.4611 0.30818 12.2457 0.862903 9.7226C1.72581 6.15337 4.19124 3.63029 7.8894 2.76875C10.1699 2.2149 12.697 1.96875 15.2241 1.96875C17.7512 1.96875 20.0317 2.27644 22.5588 2.76875C26.1953 3.56875 28.7224 6.09183 29.5853 9.7226C29.8318 11.938 30.0783 14.4611 30.0783 16.9841Z" fill="#18181B" fill-opacity="0.8"/>
<path d="M24.346 15.3231C28.5989 15.3231 32.0505 11.8769 32.0505 7.63077C32.0505 3.38461 28.5989 0 24.346 0C20.0931 0 16.7031 3.44615 16.7031 7.69231C16.7031 11.9385 20.1547 15.3231 24.346 15.3231Z" fill="#A1A1AA"/>
<path d="M44.0703 26.3998V8.73828H49.7408C51.405 8.73828 52.5761 8.9229 53.3157 9.23059C54.2402 9.66136 54.9182 10.2767 55.4113 11.0767C55.9044 11.8767 56.2126 12.9229 56.2126 14.0306C56.2126 15.1383 55.9044 16.0614 55.4113 16.9844C54.9182 17.846 54.1786 18.4614 53.2541 18.8306V18.8921C53.439 19.0767 53.6239 19.3229 53.8704 19.7537L57.5069 26.3383H53.9321L50.4805 19.7537H47.3987V26.3383H44.0703V26.3998ZM47.2754 17.046H50.1723C51.0352 17.046 51.7132 16.7998 52.2063 16.3075C52.6993 15.8152 52.9459 15.1383 52.9459 14.2767C52.9459 13.3537 52.6993 12.6767 52.2063 12.246C51.7132 11.7537 50.8503 11.5691 49.6792 11.5691H47.2137C47.2754 11.5691 47.2754 17.046 47.2754 17.046ZM58.9246 20.0614C58.9246 18.0921 59.5409 16.4921 60.712 15.2614C61.9447 14.0306 63.4856 13.4152 65.3347 13.4152C67.1222 13.4152 68.4781 13.9691 69.4643 15.1383C70.4505 16.246 70.9436 17.7229 70.9436 19.446L70.8819 20.6767H62.1296C62.2529 21.7229 62.6227 22.5844 63.3624 23.1383C64.102 23.7537 64.9649 23.9998 65.9511 23.9998C66.5674 23.9998 67.1838 23.8767 67.8001 23.6306C68.4165 23.3844 68.848 23.1383 69.2178 22.9537L69.6492 22.5844L70.8819 24.8614C70.8203 24.9229 70.7587 24.9844 70.697 25.046C70.5738 25.1691 70.3889 25.2921 70.019 25.4767C69.7109 25.6614 69.341 25.846 68.9712 26.0306C68.6014 26.1537 68.17 26.3383 67.5536 26.4614C66.9989 26.5844 66.4442 26.646 65.8278 26.646C63.7938 26.646 62.1296 26.0306 60.8969 24.7383C59.5409 23.5075 58.9246 21.9075 58.9246 20.0614ZM62.2529 18.4614H67.8001C67.8001 17.6614 67.5536 16.9844 67.0605 16.4921C66.5674 15.9998 66.0127 15.8152 65.2731 15.8152C64.4718 15.8152 63.7938 16.0614 63.2391 16.4921C62.746 17.046 62.4378 17.6614 62.2529 18.4614ZM73.5939 31.3844V13.7229H76.4908V14.646L76.4292 15.5075H76.4908C76.4908 15.446 76.5525 15.3844 76.6141 15.3229C76.6757 15.1998 76.799 15.0767 77.0455 14.8306C77.2921 14.5844 77.5386 14.3383 77.8468 14.2152C78.155 14.0306 78.5248 13.846 78.9563 13.7229C79.4493 13.5998 80.0041 13.5383 80.5588 13.5383C82.2846 13.5383 83.6406 14.1537 84.6268 15.3844C85.6746 16.6152 86.1677 18.2152 86.1677 20.1844C86.1677 22.1537 85.6129 23.7537 84.5035 24.9844C83.4557 26.2152 82.038 26.8306 80.3739 26.8306C79.8808 26.8306 79.4493 26.769 79.0179 26.646C78.5864 26.5229 78.2783 26.3998 77.9701 26.2152C77.7235 26.0306 77.477 25.846 77.2304 25.7229C77.0455 25.5383 76.9223 25.4152 76.799 25.2921L76.6757 25.1075H76.6141C76.6141 25.4152 76.6757 25.7844 76.6757 26.2152V31.3844H73.5939ZM76.6757 20.1229C76.6757 21.1691 76.9839 22.0921 77.477 22.8921C78.0317 23.6306 78.833 23.9998 79.8192 23.9998C80.7437 23.9998 81.4833 23.6306 82.0997 22.9537C82.716 22.2152 83.0242 21.2921 83.0242 20.0614C83.0242 18.8921 82.716 17.9075 82.1613 17.1691C81.6066 16.4306 80.8053 16.0614 79.8808 16.0614C78.9563 16.0614 78.2166 16.369 77.6003 17.1075C76.9839 17.7844 76.6757 18.769 76.6757 20.1229ZM88.6331 22.4614V8.73828H91.7765V21.969C91.7765 22.646 91.8998 23.0767 92.0847 23.3229C92.2696 23.569 92.6394 23.6921 93.0709 23.6921H93.564V26.4614C93.2558 26.5229 92.9476 26.5229 92.5778 26.5229C92.0847 26.5229 91.5916 26.4614 91.2218 26.3998C90.7904 26.2767 90.4205 26.0921 89.9891 25.9075C89.5576 25.6614 89.2495 25.2306 89.0029 24.6152C88.7564 23.9998 88.6331 23.2614 88.6331 22.4614ZM94.1803 30.769L95.2281 28.4306C95.7212 28.7998 96.1527 28.9229 96.6458 28.9229C97.6319 28.9229 98.3716 28.369 98.803 27.2614L99.2961 26.1537L93.9338 13.6614H97.5087L100.159 20.9844L100.652 22.7075H100.714C100.837 22.0306 101.022 21.4767 101.145 21.046L103.611 13.6614H107.062L101.392 28.3075C100.96 29.4152 100.344 30.2767 99.5427 30.769C98.7414 31.3229 97.8169 31.569 96.8307 31.569C96.3992 31.569 95.9061 31.5075 95.4747 31.3844C95.0432 31.2614 94.7351 31.1383 94.4885 30.9537L94.1803 30.769Z" fill="#18181B" fill-opacity="0.8"/>
</g>
<defs>
<clipPath id="clip0_8148_4475">
<rect width="107" height="32" fill="white"/>
</clipPath>
</defs>
</svg>
