<svg width="28" height="28" viewBox="0 0 28 28" fill="none" xmlns="http://www.w3.org/2000/svg">
<path d="M11.1397 20.9058C10.6465 21.9842 9.00037 24.4998 4.3749 24.4998C4.14283 24.4998 3.92027 24.4077 3.75618 24.2436C3.59209 24.0795 3.4999 23.8569 3.4999 23.6248C3.4999 18.9994 6.01552 17.3533 7.09396 16.86C7.19853 16.8123 7.31146 16.7857 7.42631 16.7816C7.54117 16.7776 7.65569 16.7962 7.76335 16.8364C7.87101 16.8767 7.96969 16.9377 8.05376 17.016C8.13783 17.0944 8.20565 17.1886 8.25334 17.2931C8.30102 17.3977 8.32765 17.5106 8.33169 17.6255C8.33573 17.7403 8.31711 17.8549 8.27689 17.9625C8.23667 18.0702 8.17564 18.1688 8.09728 18.2529C8.01892 18.337 7.92478 18.4048 7.82021 18.4525C7.11693 18.773 5.5649 19.8044 5.29146 22.7083C8.19537 22.4348 9.22896 20.8828 9.54724 20.1795C9.59493 20.075 9.66274 19.9808 9.74682 19.9025C9.83089 19.8241 9.92957 19.7631 10.0372 19.7228C10.1449 19.6826 10.2594 19.664 10.3743 19.6681C10.4891 19.6721 10.6021 19.6987 10.7066 19.7464C10.8112 19.7941 10.9053 19.8619 10.9837 19.946C11.062 20.03 11.1231 20.1287 11.1633 20.2364C11.2035 20.344 11.2221 20.4586 11.2181 20.5734C11.2141 20.6883 11.1874 20.8012 11.1397 20.9058ZM24.4835 5.15578C24.4576 4.72913 24.2764 4.32673 23.9742 4.02449C23.6719 3.72225 23.2695 3.54108 22.8429 3.51515C21.4669 3.43312 17.9505 3.5589 15.0335 6.47593L9.6249 11.8889C9.54367 11.9703 9.44722 12.0348 9.34104 12.0789C9.23486 12.123 9.12103 12.1458 9.00606 12.1459C8.77387 12.1461 8.5511 12.054 8.38677 11.89C8.22244 11.726 8.13001 11.5034 8.1298 11.2712C8.1296 11.039 8.22164 10.8162 8.38568 10.6519L11.2907 7.74578C11.3515 7.6846 11.3929 7.60681 11.4096 7.52218C11.4263 7.43756 11.4177 7.34988 11.3847 7.27016C11.3517 7.19044 11.296 7.12225 11.2243 7.07415C11.1527 7.02606 11.0685 7.0002 10.9822 6.99984H8.13193C7.90141 6.99862 7.67295 7.04325 7.45983 7.13113C7.24671 7.219 7.05319 7.34837 6.89052 7.51171L3.13896 11.2655C2.90889 11.4954 2.74744 11.7849 2.67275 12.1014C2.59805 12.418 2.61306 12.7491 2.71609 13.0576C2.81911 13.3661 3.00608 13.6398 3.25601 13.848C3.50594 14.0562 3.80893 14.1906 4.13099 14.2361L8.33865 14.8234L13.1741 19.6589L13.7615 23.8687C13.8066 24.1908 13.941 24.4938 14.1493 24.7436C14.3577 24.9933 14.6317 25.1797 14.9405 25.2819C15.1204 25.3419 15.3087 25.3726 15.4983 25.3727C15.7279 25.3731 15.9553 25.3281 16.1675 25.2402C16.3796 25.1524 16.5722 25.0234 16.7343 24.8608L20.488 21.1092C20.6509 20.9462 20.7799 20.7526 20.8678 20.5396C20.9556 20.3265 21.0005 20.0982 20.9999 19.8678V17.0175C20.9998 16.931 20.974 16.8465 20.9258 16.7747C20.8777 16.7028 20.8093 16.6469 20.7294 16.6139C20.6494 16.5809 20.5615 16.5723 20.4767 16.5892C20.3919 16.6062 20.314 16.6479 20.2529 16.7091L17.3468 19.6141C17.2618 19.6991 17.1602 19.7658 17.0483 19.8098C16.9363 19.8539 16.8166 19.8744 16.6964 19.8701C16.5762 19.8658 16.4582 19.8367 16.3497 19.7848C16.2413 19.7328 16.1447 19.6591 16.066 19.5681C15.9225 19.3945 15.8495 19.1732 15.8617 18.9483C15.8738 18.7233 15.9702 18.5112 16.1316 18.3541L21.5205 12.9652C24.4397 10.047 24.5655 6.53062 24.4835 5.15359V5.15578Z" fill="#136DF5"/>
</svg>
