<svg width="28" height="28" viewBox="0 0 28 28" fill="none" xmlns="http://www.w3.org/2000/svg">
<path d="M26.809 6.63686C25.9723 5.19421 23.7629 4.86936 20.4106 5.68968C18.7663 4.42315 16.7836 3.67234 14.7128 3.53207C12.6421 3.3918 10.5762 3.86837 8.77616 4.90158C6.97612 5.93479 5.52266 7.4783 4.59937 9.33712C3.67608 11.1959 3.32439 13.2867 3.58871 15.3453C0.556839 18.4844 0.600589 20.3437 1.19231 21.3631C1.75012 22.33 2.91387 22.75 4.44512 22.75C5.50827 22.728 6.56515 22.5812 7.59403 22.3125C9.23811 23.578 11.2202 24.328 13.2902 24.468C15.3602 24.6079 17.4253 24.1315 19.2247 23.0988C21.0242 22.0662 22.4774 20.5236 23.4009 18.6657C24.3244 16.8079 24.6769 14.7181 24.4137 12.6601C25.782 11.2383 26.692 9.88749 27.0015 8.7314C27.2159 7.93077 27.1514 7.2264 26.809 6.63686ZM25.3117 8.27749C24.6434 10.7691 19.9906 14.5458 15.7392 16.9881C8.32246 21.2537 3.312 21.5294 2.70606 20.4881C2.54637 20.2136 2.63496 19.6962 2.94887 19.0662C3.25978 18.4765 3.63702 17.9243 4.07325 17.4201C4.25803 17.9547 4.48591 18.4734 4.75465 18.9711C4.79562 19.0494 4.85935 19.1135 4.93744 19.1549C5.01554 19.1963 5.10434 19.213 5.19215 19.203C5.81792 19.1258 6.43743 19.0045 7.04606 18.8398C9.36809 18.2328 12.1462 17.0373 14.8686 15.4733C17.5909 13.9092 20.0092 12.1198 21.699 10.4256C22.1437 9.98578 22.557 9.51542 22.9361 9.01796C22.9887 8.94705 23.0186 8.86189 23.0219 8.77365C23.0253 8.68541 23.0018 8.59824 22.9546 8.52358C22.6599 8.04341 22.327 7.58768 21.9593 7.16077C23.5136 6.90374 24.9529 6.92343 25.2953 7.51515C25.3959 7.68686 25.4014 7.9439 25.3117 8.27858V8.27749Z" fill="#18181B"/>
</svg>
