<svg width="28" height="28" viewBox="0 0 28 28" fill="none" xmlns="http://www.w3.org/2000/svg">
<path d="M25.375 14C25.375 11.7502 24.7079 9.551 23.458 7.68039C22.2081 5.80978 20.4315 4.35182 18.353 3.49088C16.2745 2.62993 13.9874 2.40467 11.7808 2.84357C9.57431 3.28248 7.54748 4.36584 5.95666 5.95666C4.36584 7.54749 3.28247 9.57432 2.84357 11.7809C2.40466 13.9874 2.62992 16.2745 3.49087 18.353C4.35182 20.4315 5.80978 22.2081 7.68039 23.458C9.551 24.7079 11.7502 25.375 14 25.375C17.0159 25.3718 19.9073 24.1724 22.0398 22.0398C24.1724 19.9073 25.3718 17.0159 25.375 14ZM10.7559 18.1191L7.25594 14.6191C7.17458 14.5378 7.11004 14.4413 7.06601 14.3351C7.02198 14.2289 6.99931 14.115 6.99931 14C6.99931 13.885 7.02198 13.7712 7.06601 13.6649C7.11004 13.5587 7.17458 13.4622 7.25594 13.3809L10.7559 9.88094C10.9201 9.71676 11.1428 9.62452 11.375 9.62452C11.6072 9.62452 11.8299 9.71676 11.9941 9.88094C12.1582 10.0451 12.2505 10.2678 12.2505 10.5C12.2505 10.7322 12.1582 10.9549 11.9941 11.1191L9.11203 14L11.9941 16.8809C12.1582 17.0451 12.2505 17.2678 12.2505 17.5C12.2505 17.7322 12.1582 17.9549 11.9941 18.1191C11.8299 18.2833 11.6072 18.3755 11.375 18.3755C11.1428 18.3755 10.9201 18.2833 10.7559 18.1191ZM16.0059 18.1191C15.9246 18.0378 15.86 17.9413 15.816 17.8351C15.772 17.7289 15.7493 17.615 15.7493 17.5C15.7493 17.385 15.772 17.2712 15.816 17.1649C15.86 17.0587 15.9246 16.9622 16.0059 16.8809L18.888 14L16.0059 11.1191C15.8418 10.9549 15.7495 10.7322 15.7495 10.5C15.7495 10.2678 15.8418 10.0451 16.0059 9.88094C16.1701 9.71676 16.3928 9.62452 16.625 9.62452C16.8572 9.62452 17.0799 9.71676 17.2441 9.88094L20.7441 13.3809C20.8254 13.4622 20.89 13.5587 20.934 13.6649C20.978 13.7712 21.0007 13.885 21.0007 14C21.0007 14.115 20.978 14.2289 20.934 14.3351C20.89 14.4413 20.8254 14.5378 20.7441 14.6191L17.2441 18.1191C17.1628 18.2004 17.0663 18.265 16.9601 18.309C16.8538 18.353 16.74 18.3757 16.625 18.3757C16.51 18.3757 16.3961 18.353 16.2899 18.309C16.1837 18.265 16.0872 18.2004 16.0059 18.1191Z" fill="white"/>
</svg>
