<svg width="16" height="16" viewBox="0 0 16 16" fill="none" xmlns="http://www.w3.org/2000/svg">
<path d="M13.501 8.13503C13.5035 8.04503 13.5035 7.95503 13.501 7.86503L14.4335 6.70003C14.4824 6.63886 14.5162 6.56706 14.5323 6.49042C14.5484 6.41378 14.5462 6.33443 14.526 6.25878C14.3729 5.68425 14.1442 5.13256 13.846 4.61815C13.8069 4.55085 13.7527 4.4936 13.6876 4.45096C13.6225 4.40832 13.5483 4.38146 13.471 4.37253L11.9885 4.20753C11.9268 4.14253 11.8643 4.08003 11.801 4.02003L11.626 2.53378C11.617 2.45641 11.5901 2.38222 11.5473 2.31711C11.5045 2.252 11.4472 2.19779 11.3798 2.15878C10.8654 1.86081 10.3137 1.63256 9.73913 1.48003C9.66348 1.45982 9.58413 1.45766 9.50749 1.47372C9.43085 1.48979 9.35905 1.52363 9.29788 1.57253L8.13601 2.50003C8.04601 2.50003 7.95601 2.50003 7.866 2.50003L6.701 1.5694C6.63984 1.52051 6.56804 1.48666 6.4914 1.4706C6.41475 1.45453 6.33541 1.45669 6.25976 1.4769C5.68522 1.63005 5.13354 1.85871 4.61913 2.1569C4.55183 2.19598 4.49458 2.25023 4.45194 2.31533C4.40929 2.38044 4.38244 2.45459 4.37351 2.5319L4.20851 4.0169C4.14351 4.07899 4.08101 4.14149 4.02101 4.2044L2.53476 4.37503C2.45739 4.38403 2.38319 4.41098 2.31809 4.45373C2.25298 4.49649 2.19876 4.55386 2.15976 4.62128C1.86185 5.13576 1.6334 5.68743 1.48038 6.2619C1.46025 6.33761 1.45819 6.41698 1.47437 6.49362C1.49055 6.57027 1.5245 6.64204 1.57351 6.70315L2.50101 7.86503C2.50101 7.95503 2.50101 8.04503 2.50101 8.13503L1.57038 9.30003C1.52149 9.3612 1.48764 9.43299 1.47157 9.50964C1.45551 9.58628 1.45767 9.66562 1.47788 9.74128C1.63102 10.3158 1.85968 10.8675 2.15788 11.3819C2.19696 11.4492 2.25121 11.5065 2.31631 11.5491C2.38141 11.5917 2.45557 11.6186 2.53288 11.6275L4.01538 11.7925C4.07746 11.8575 4.13996 11.92 4.20288 11.98L4.37601 13.4663C4.38501 13.5436 4.41196 13.6178 4.45471 13.6829C4.49746 13.7481 4.55484 13.8023 4.62226 13.8413C5.13673 14.1392 5.68841 14.3676 6.26288 14.5207C6.33858 14.5408 6.41796 14.5428 6.4946 14.5267C6.57124 14.5105 6.64302 14.4765 6.70413 14.4275L7.866 13.5C7.95601 13.5025 8.04601 13.5025 8.13601 13.5L9.30101 14.4325C9.36217 14.4814 9.43397 14.5153 9.51061 14.5313C9.58726 14.5474 9.6666 14.5452 9.74226 14.525C10.3169 14.3722 10.8686 14.1435 11.3829 13.845C11.4502 13.806 11.5074 13.7517 11.5501 13.6866C11.5927 13.6215 11.6196 13.5473 11.6285 13.47L11.7935 11.9875C11.8585 11.9259 11.921 11.8634 11.981 11.8L13.4673 11.625C13.5446 11.616 13.6188 11.5891 13.6839 11.5463C13.749 11.5036 13.8032 11.4462 13.8423 11.3788C14.1402 10.8643 14.3686 10.3126 14.5216 9.73815C14.5418 9.66245 14.5438 9.58308 14.5276 9.50643C14.5115 9.42979 14.4775 9.35802 14.4285 9.2969L13.501 8.13503ZM8.00101 10.5C7.50655 10.5 7.0232 10.3534 6.61208 10.0787C6.20096 9.804 5.88053 9.41355 5.69131 8.95674C5.50209 8.49992 5.45258 7.99726 5.54904 7.5123C5.6455 7.02735 5.88361 6.58189 6.23324 6.23226C6.58287 5.88263 7.02833 5.64453 7.51328 5.54807C7.99823 5.4516 8.5009 5.50111 8.95771 5.69033C9.41453 5.87955 9.80498 6.19998 10.0797 6.6111C10.3544 7.02223 10.501 7.50558 10.501 8.00003C10.501 8.66307 10.2376 9.29895 9.76877 9.7678C9.29993 10.2366 8.66405 10.5 8.00101 10.5Z" fill="#18181B"/>
</svg>
