<svg width="20" height="20" viewBox="0 0 20 20" fill="none" xmlns="http://www.w3.org/2000/svg">
<path d="M7.775 10.4883C6.81348 10.4883 6.03125 11.2705 6.03125 12.232V16.5896C6.03125 17.5511 6.81348 18.3333 7.775 18.3333C8.73652 18.3333 9.51875 17.5511 9.51875 16.5896V12.232C9.51875 11.2705 8.73652 10.4883 7.775 10.4883Z" fill="white"/>
<path d="M5.04818 10.4881H3.36003C2.42917 10.4881 1.67188 11.2454 1.67188 12.1763C1.67188 13.1071 2.4292 13.8644 3.36003 13.8644C4.29085 13.8644 5.04818 13.1071 5.04818 12.1763V10.4881Z" fill="white"/>
<path d="M1.67188 7.76817C1.67188 8.72969 2.4541 9.51192 3.41563 9.51192H7.77315C8.7347 9.51192 9.51693 8.72969 9.51693 7.76817C9.51693 6.80664 8.7347 6.02441 7.77318 6.02441H3.41563C2.4541 6.02438 1.67188 6.80664 1.67188 7.76817H1.67188Z" fill="white"/>
<path d="M7.82878 5.0477H9.51693V3.35954C9.51693 2.42868 8.7596 1.67139 7.82878 1.67139C6.89792 1.67139 6.14062 2.42871 6.14062 3.35954C6.14062 4.29037 6.89792 5.0477 7.82878 5.0477Z" fill="white"/>
<path d="M12.2359 9.51157C13.1975 9.51157 13.9797 8.72934 13.9797 7.76782V3.41026C13.9797 2.44873 13.1975 1.6665 12.2359 1.6665C11.2744 1.6665 10.4922 2.44873 10.4922 3.41026V7.76779C10.4922 8.72934 11.2744 9.51157 12.2359 9.51157Z" fill="white"/>
<path d="M14.9531 9.51138H16.6413C17.5721 9.51138 18.3294 8.75405 18.3294 7.82323C18.3294 6.89236 17.5721 6.13507 16.6413 6.13507C15.7104 6.13507 14.9531 6.8924 14.9531 7.82323V9.51138Z" fill="white"/>
<path d="M18.3372 12.2319C18.3372 11.2704 17.555 10.4882 16.5935 10.4882H12.2359C11.2744 10.4882 10.4922 11.2704 10.4922 12.2319C10.4922 13.1934 11.2744 13.9757 12.2359 13.9757H16.5935C17.555 13.9757 18.3372 13.1934 18.3372 12.2319Z" fill="white"/>
<path d="M12.1803 14.9525H10.4922V16.6407C10.4922 17.5715 11.2495 18.3288 12.1803 18.3288C13.1112 18.3288 13.8685 17.5715 13.8685 16.6407C13.8685 15.7098 13.1112 14.9525 12.1803 14.9525Z" fill="white"/>
</svg>
