<svg width="16" height="16" viewBox="0 0 16 16" fill="none" xmlns="http://www.w3.org/2000/svg">
<path d="M14 13C14 13.1326 13.9473 13.2598 13.8536 13.3536C13.7598 13.4473 13.6326 13.5 13.5 13.5H1.5C1.36739 13.5 1.24021 13.4473 1.14645 13.3536C1.05268 13.2598 1 13.1326 1 13C1 12.8674 1.05268 12.7402 1.14645 12.6464C1.24021 12.5527 1.36739 12.5 1.5 12.5H2V8.5C2 8.36739 2.05268 8.24021 2.14645 8.14645C2.24021 8.05268 2.36739 8 2.5 8H4C4.13261 8 4.25979 8.05268 4.35355 8.14645C4.44732 8.24021 4.5 8.36739 4.5 8.5V12.5H5.5V5.5C5.5 5.36739 5.55268 5.24021 5.64645 5.14645C5.74021 5.05268 5.86739 5 6 5H8C8.13261 5 8.25979 5.05268 8.35355 5.14645C8.44732 5.24021 8.5 5.36739 8.5 5.5V12.5H9.5V2.5C9.5 2.36739 9.55268 2.24021 9.64645 2.14645C9.74021 2.05268 9.86739 2 10 2H12.5C12.6326 2 12.7598 2.05268 12.8536 2.14645C12.9473 2.24021 13 2.36739 13 2.5V12.5H13.5C13.6326 12.5 13.7598 12.5527 13.8536 12.6464C13.9473 12.7402 14 12.8674 14 13Z" fill="#18181B"/>
</svg>
