<svg width="227" height="265" viewBox="0 0 227 265" fill="none" xmlns="http://www.w3.org/2000/svg">
<g clip-path="url(#clip0_33_1807)">
<path d="M171.176 150.818L28.4321 219.253V47.6493L171.176 36.5811V150.818Z" fill="url(#paint0_linear_33_1807)"/>
<path opacity="0.3" d="M52.3133 234.039L74.1165 246.623C75.7434 247.564 75.7434 249.916 74.1165 250.851L52.3133 263.435C50.6537 264.389 48.6151 264.389 46.9556 263.435L25.1523 250.851C23.5254 249.91 23.5254 247.558 25.1523 246.623L46.9556 234.039C48.6151 233.085 50.6537 233.085 52.3133 234.039Z" fill="#4E47DD"/>
<path opacity="0.3" d="M85.7532 214.431L107.556 227.015C109.183 227.956 109.183 230.308 107.556 231.243L85.7532 243.827C84.0936 244.781 82.0551 244.781 80.3955 243.827L58.5923 231.243C56.9653 230.302 56.9653 227.95 58.5923 227.015L80.3955 214.431C82.0551 213.477 84.0936 213.477 85.7532 214.431Z" fill="#4E47DD"/>
<path opacity="0.3" d="M118.624 195.313L140.428 207.897C142.054 208.838 142.054 211.19 140.428 212.125L118.624 224.709C116.965 225.663 114.926 225.663 113.267 224.709L91.4633 212.125C89.8364 211.184 89.8364 208.831 91.4633 207.897L113.267 195.313C114.926 194.359 116.965 194.359 118.624 195.313Z" fill="#4E47DD"/>
<path d="M116.031 55.9473C116.063 55.9734 116.103 55.993 116.142 56.0191L135.397 67.2115C135.358 67.1919 135.325 67.1658 135.286 67.1396L116.031 55.9473Z" fill="url(#paint1_linear_33_1807)"/>
<path d="M131.006 0.861325C130.412 0.515034 129.588 0.554237 128.68 1.08347C128.478 1.20108 128.275 1.33829 128.066 1.50164L91.4245 30.4659C88.8959 32.4718 87.8701 36.5946 89.6016 37.7903L97.5336 43.2395L70.7189 84.9381L48.014 78.4566C45.6945 77.7967 43.2182 78.7637 41.9637 80.8218L1.91815 146.709C0.585261 148.904 0.513389 151.341 1.74827 152.164L8.66756 156.751L8.74596 156.797L28.001 167.989C28.001 167.989 27.9488 167.956 27.9226 167.943L21.0033 163.357C19.7685 162.533 19.8403 160.096 21.1732 157.901L61.2319 92.0142C62.4864 89.956 64.9627 88.9825 67.2822 89.649L89.9871 96.1305L116.802 54.4318L108.87 48.9827C107.132 47.787 108.158 43.6642 110.693 41.6583L147.334 12.694C147.543 12.5307 147.746 12.3935 147.948 12.2759C148.856 11.7531 149.68 11.7074 150.274 12.0537L131.006 0.861325Z" fill="url(#paint2_linear_33_1807)"/>
<path d="M116.031 55.9473C116.063 55.9734 116.103 55.993 116.142 56.0191L135.397 67.2115C135.358 67.1919 135.325 67.1658 135.286 67.1396L116.031 55.9473Z" stroke="#4E47DD" stroke-width="0.980068" stroke-linecap="round" stroke-linejoin="round"/>
<path d="M131.006 0.861325C130.412 0.515034 129.588 0.554237 128.68 1.08347C128.478 1.20108 128.275 1.33829 128.066 1.50164L91.4245 30.4659C88.8959 32.4718 87.8701 36.5946 89.6016 37.7903L97.5336 43.2395L70.7189 84.9381L48.014 78.4566C45.6945 77.7967 43.2182 78.7637 41.9637 80.8218L1.91815 146.709C0.585261 148.904 0.513389 151.341 1.74827 152.164L8.66756 156.751L8.74596 156.797L28.001 167.989C28.001 167.989 27.9488 167.956 27.9226 167.943L21.0033 163.357C19.7685 162.533 19.8403 160.096 21.1732 157.901L61.2319 92.0142C62.4864 89.956 64.9627 88.9825 67.2822 89.649L89.9871 96.1305L116.802 54.4318L108.87 48.9827C107.132 47.787 108.158 43.6642 110.693 41.6583L147.334 12.694C147.543 12.5307 147.746 12.3935 147.948 12.2758C148.856 11.7531 149.68 11.7074 150.274 12.0537L131.006 0.861325Z" stroke="#4E47DD" stroke-width="0.980068" stroke-linecap="round" stroke-linejoin="round"/>
<path d="M147.935 12.2756C150.058 11.0472 151.711 12.4585 151.097 15.2876L140.885 62.4159C140.447 64.4152 139.095 66.1924 137.716 66.9895C136.847 67.4926 135.958 67.6102 135.292 67.1463L128.092 62.1937L90.6793 120.384L64.5376 112.909L32.5808 165.473C31.9536 166.512 31.1499 167.303 30.3528 167.767C29.4642 168.276 28.5822 168.381 27.9288 167.95L21.0095 163.363C19.7746 162.54 19.8465 160.103 21.1794 157.907L61.238 92.0204C62.4925 89.9623 64.9688 88.9888 67.2883 89.6552L89.9932 96.1367L116.808 54.4381L108.876 48.9889C107.138 47.7932 108.164 43.6704 110.699 41.6645L147.34 12.7003C147.549 12.5369 147.752 12.3997 147.954 12.2821L147.935 12.2756Z" fill="url(#paint3_linear_33_1807)"/>
<path d="M147.935 12.2756C150.058 11.0472 151.711 12.4585 151.097 15.2876L140.885 62.4159C140.447 64.4152 139.095 66.1924 137.716 66.9895C136.847 67.4926 135.958 67.6102 135.292 67.1463L128.092 62.1937L90.6793 120.384L64.5376 112.909L32.5808 165.473C31.9536 166.512 31.1499 167.303 30.3528 167.767C29.4642 168.276 28.5822 168.381 27.9288 167.95L21.0095 163.363C19.7746 162.54 19.8465 160.103 21.1794 157.907L61.238 92.0204C62.4925 89.9623 64.9688 88.9888 67.2883 89.6552L89.9932 96.1367L116.808 54.4381L108.876 48.9889C107.138 47.7932 108.164 43.6704 110.699 41.6645L147.34 12.7003C147.549 12.5369 147.752 12.3997 147.954 12.2821L147.935 12.2756Z" stroke="#4E47DD" stroke-width="0.980068" stroke-linecap="round" stroke-linejoin="round"/>
<path d="M178.089 98.3452H126.701V178.783C126.701 179.606 127.106 180.429 127.923 180.9L149.726 193.484C151.385 194.438 153.424 194.438 155.083 193.484L176.887 180.9C177.703 180.429 178.109 179.606 178.109 178.783L178.089 98.3452Z" fill="url(#paint4_linear_33_1807)"/>
<path d="M178.089 98.3452H126.701V178.783C126.701 179.606 127.106 180.429 127.923 180.9L149.726 193.484C151.385 194.438 153.424 194.438 155.083 193.484L176.887 180.9C177.703 180.429 178.109 179.606 178.109 178.783L178.089 98.3452Z" stroke="#4E47DD" stroke-width="0.980068" stroke-linecap="round" stroke-linejoin="round"/>
<path d="M155.083 83.6442L176.887 96.2282C178.513 97.1691 178.513 99.5213 176.887 100.456L155.083 113.04C153.424 113.994 151.385 113.994 149.726 113.04L127.922 100.456C126.295 99.5147 126.295 97.1626 127.922 96.2282L149.726 83.6442C151.385 82.6902 153.424 82.6902 155.083 83.6442Z" fill="url(#paint5_linear_33_1807)"/>
<path d="M155.083 83.6442L176.887 96.2282C178.513 97.1691 178.513 99.5213 176.887 100.456L155.083 113.04C153.424 113.994 151.385 113.994 149.726 113.04L127.922 100.456C126.295 99.5147 126.295 97.1626 127.922 96.2282L149.726 83.6442C151.385 82.6902 153.424 82.6902 155.083 83.6442Z" stroke="#4E47DD" stroke-width="0.980068" stroke-linecap="round" stroke-linejoin="round"/>
<path d="M143.002 102.278H91.6143V198.782C91.6143 199.606 92.0193 200.429 92.8361 200.899L114.639 213.483C116.299 214.437 118.337 214.437 119.997 213.483L141.8 200.899C142.617 200.429 143.022 199.606 143.022 198.782L143.002 102.278Z" fill="url(#paint6_linear_33_1807)"/>
<path d="M143.002 102.278H91.6143V198.782C91.6143 199.606 92.0193 200.429 92.8361 200.899L114.639 213.483C116.299 214.437 118.337 214.437 119.997 213.483L141.8 200.899C142.617 200.429 143.022 199.606 143.022 198.782L143.002 102.278Z" stroke="#4E47DD" stroke-width="0.980068" stroke-linecap="round" stroke-linejoin="round"/>
<path d="M119.997 87.5709L141.8 100.155C143.427 101.096 143.427 103.448 141.8 104.382L119.997 116.966C118.337 117.92 116.299 117.92 114.639 116.966L92.8359 104.382C91.209 103.441 91.209 101.089 92.8359 100.155L114.639 87.5709C116.299 86.617 118.337 86.617 119.997 87.5709Z" fill="url(#paint7_linear_33_1807)"/>
<path d="M119.997 87.5709L141.8 100.155C143.427 101.096 143.427 103.448 141.8 104.382L119.997 116.966C118.337 117.92 116.299 117.92 114.639 116.966L92.8359 104.382C91.209 103.441 91.209 101.089 92.8359 100.155L114.639 87.5709C116.299 86.617 118.337 86.617 119.997 87.5709Z" stroke="#4E47DD" stroke-width="0.980068" stroke-linecap="round" stroke-linejoin="round"/>
<path d="M108.759 129.675H57.3706V218.672C57.3706 219.495 57.7757 220.318 58.5924 220.788L80.3957 233.373C82.0553 234.326 84.0938 234.326 85.7534 233.373L107.557 220.788C108.373 220.318 108.778 219.495 108.778 218.672L108.759 129.675Z" fill="url(#paint8_linear_33_1807)"/>
<path d="M108.759 129.675H57.3706V218.672C57.3706 219.495 57.7757 220.318 58.5924 220.788L80.3957 233.373C82.0553 234.326 84.0938 234.326 85.7534 233.373L107.557 220.788C108.373 220.318 108.778 219.495 108.778 218.672L108.759 129.675Z" stroke="#4E47DD" stroke-width="0.980068" stroke-linecap="round" stroke-linejoin="round"/>
<path d="M85.7532 114.974L107.556 127.558C109.183 128.499 109.183 130.851 107.556 131.785L85.7532 144.369C84.0936 145.323 82.0551 145.323 80.3955 144.369L58.5923 131.785C56.9653 130.844 56.9653 128.492 58.5923 127.558L80.3955 114.974C82.0551 114.02 84.0936 114.02 85.7532 114.974Z" fill="url(#paint9_linear_33_1807)"/>
<path d="M85.7532 114.974L107.556 127.558C109.183 128.499 109.183 130.851 107.556 131.785L85.7532 144.369C84.0936 145.323 82.0551 145.323 80.3955 144.369L58.5923 131.785C56.9653 130.844 56.9653 128.492 58.5923 127.558L80.3955 114.974C82.0551 114.02 84.0936 114.02 85.7532 114.974Z" stroke="#4E47DD" stroke-width="0.980068" stroke-linecap="round" stroke-linejoin="round"/>
<path d="M74.1753 179.194H22.7871V238.841C22.7871 239.665 23.1922 240.488 24.0089 240.958L45.8122 253.542C47.4718 254.496 49.5103 254.496 51.1699 253.542L72.9731 240.958C73.7898 240.488 74.1949 239.665 74.1949 238.841L74.1753 179.194Z" fill="url(#paint10_linear_33_1807)"/>
<path d="M74.1753 179.194H22.7871V238.841C22.7871 239.665 23.1922 240.488 24.0089 240.958L45.8122 253.542C47.4718 254.496 49.5103 254.496 51.1699 253.542L72.9731 240.958C73.7898 240.488 74.1949 239.665 74.1949 238.841L74.1753 179.194Z" stroke="#4E47DD" stroke-width="0.980068" stroke-linecap="round" stroke-linejoin="round"/>
<path d="M51.1697 164.493L72.973 177.077C74.5999 178.018 74.5999 180.37 72.973 181.305L51.1697 193.889C49.5101 194.843 47.4716 194.843 45.812 193.889L24.0088 181.305C22.3818 180.364 22.3818 178.012 24.0088 177.077L45.812 164.493C47.4716 163.539 49.5101 163.539 51.1697 164.493Z" fill="url(#paint11_linear_33_1807)"/>
<path d="M51.1697 164.493L72.973 177.077C74.5999 178.018 74.5999 180.37 72.973 181.305L51.1697 193.889C49.5101 194.843 47.4716 194.843 45.812 193.889L24.0088 181.305C22.3818 180.364 22.3818 178.012 24.0088 177.077L45.812 164.493C47.4716 163.539 49.5101 163.539 51.1697 164.493Z" stroke="#4E47DD" stroke-width="0.980068" stroke-linecap="round" stroke-linejoin="round"/>
<path d="M182.499 154.713C206.621 140.783 226.249 151.968 226.327 179.691C226.406 207.414 206.909 241.187 182.786 255.111C158.663 269.041 139.043 257.848 138.964 230.126C138.886 202.403 158.376 168.636 182.499 154.706V154.713Z" fill="url(#paint12_linear_33_1807)"/>
<path d="M182.923 159.842C204.818 147.199 222.616 157.352 222.688 182.501C222.76 207.649 205.073 238.273 183.184 250.916C161.303 263.552 143.498 253.405 143.433 228.263C143.361 203.115 161.041 172.478 182.93 159.842H182.923Z" fill="#4E47DD"/>
<path d="M219.336 180.573C219.303 169.015 215.52 160.632 209.32 156.169C202.296 153.033 193.051 153.994 182.923 159.841C161.042 172.478 143.355 203.115 143.426 228.263C143.459 239.821 147.242 248.198 153.443 252.66C160.467 255.796 169.712 254.836 179.833 248.988C201.727 236.345 219.408 205.722 219.336 180.573Z" fill="url(#paint13_linear_33_1807)"/>
<path d="M195.22 140.998C187.275 136.379 176.278 137.032 164.132 144.043C140.009 157.973 120.519 191.739 120.597 219.462C120.637 233.236 125.498 242.932 133.345 247.486L151.705 258.155C143.864 253.595 138.997 243.905 138.957 230.132C138.879 202.409 158.369 168.643 182.492 154.712C194.632 147.702 205.635 147.055 213.58 151.668L195.22 140.998Z" fill="url(#paint14_linear_33_1807)"/>
<path d="M182.499 154.713C206.621 140.783 226.249 151.968 226.327 179.691C226.406 207.414 206.909 241.187 182.786 255.111C158.663 269.041 139.043 257.848 138.964 230.126C138.886 202.403 158.376 168.636 182.499 154.706V154.713Z" stroke="#4E47DD" stroke-width="0.980068" stroke-linecap="round" stroke-linejoin="round"/>
<path d="M181.492 227.447L181.512 233.412L185.595 235.784L185.576 229.819L181.492 227.447Z" fill="#4E47DD"/>
<path d="M195.213 207.747L191.136 205.375C191.874 205.807 192.24 206.721 192.247 208.12C192.247 209.662 191.626 211.295 190.365 213.033C189.104 214.771 187.124 216.411 184.445 217.96C181.727 219.528 179.682 220.024 178.323 219.43C178.192 219.371 178.068 219.312 177.951 219.24L182.028 221.612C182.145 221.684 182.27 221.743 182.4 221.801C183.759 222.396 185.804 221.899 188.522 220.331C191.201 218.783 193.181 217.143 194.442 215.405C195.703 213.667 196.33 212.027 196.324 210.491C196.324 209.093 195.951 208.178 195.213 207.754V207.747Z" fill="#4E47DD"/>
<path d="M198.657 194.542C198.526 194.464 198.389 194.392 198.245 194.327C195.978 193.268 192.672 193.602 188.346 195.32L183.648 197.189C181.224 198.162 179.571 198.521 178.67 198.267C178.532 198.227 178.402 198.175 178.284 198.11L182.361 200.482C182.479 200.547 182.603 200.606 182.747 200.638C183.648 200.893 185.301 200.534 187.725 199.56L192.423 197.692C196.749 195.973 200.055 195.64 202.322 196.699C202.466 196.764 202.603 196.836 202.734 196.914L198.657 194.542Z" fill="#4E47DD"/>
<path d="M189.712 185.774C190.718 186.356 191.339 187.467 191.574 189.081L195.651 191.452C195.416 189.838 194.795 188.728 193.789 188.146L189.712 185.774Z" fill="#4E47DD"/>
<path d="M171.175 223.023L167.098 220.651C167.333 224.474 168.594 227.048 170.901 228.387L174.978 230.759C172.678 229.42 171.41 226.845 171.175 223.023Z" fill="#4E47DD"/>
<path d="M180.12 217.855L176.037 215.483L167.092 220.652L171.175 223.023L180.12 217.855Z" fill="#4E47DD"/>
<path d="M191.652 179.495C195.54 177.92 198.578 177.777 200.78 179.051L196.703 176.679C194.501 175.398 191.463 175.549 187.575 177.123L191.652 179.495Z" fill="#4E47DD"/>
<path d="M185.426 177.038L191.633 173.451L187.556 171.08L181.349 174.667L181.362 180.573L185.445 182.938L185.426 177.038Z" fill="#4E47DD"/>
<path d="M171.43 208.95L175.507 211.321C173.56 210.211 172.593 207.754 172.58 203.938C172.574 201.632 173.083 199.214 174.122 196.686C175.161 194.151 176.644 191.7 178.578 189.316C180.506 186.937 182.792 184.82 185.439 182.939L181.361 180.567C178.722 182.442 176.428 184.559 174.501 186.944C172.567 189.329 171.084 191.779 170.045 194.314C169.006 196.836 168.496 199.26 168.503 201.566C168.516 205.376 169.483 207.839 171.43 208.95Z" fill="#4E47DD"/>
<path d="M191.633 173.451L191.652 179.495C195.599 177.894 198.67 177.77 200.878 179.116C203.086 180.455 204.361 182.827 204.7 186.238L195.658 191.458C195.396 189.642 194.638 188.472 193.41 187.963C192.175 187.46 190.346 187.904 187.928 189.302C185.739 190.563 184.093 192.014 183.015 193.614C181.937 195.228 181.401 196.692 181.407 198.018C181.407 199.514 181.858 200.397 182.76 200.645C183.661 200.9 185.315 200.54 187.739 199.567L192.436 197.698C196.762 195.98 200.068 195.646 202.335 196.705C204.615 197.77 205.759 200.259 205.772 204.14C205.785 208.08 204.563 212.007 202.113 215.901C199.663 219.802 196.219 223.271 191.796 226.303L191.816 232.203L185.609 235.79L185.589 229.825C181.198 231.837 177.755 232.21 175.272 230.922C172.789 229.635 171.43 227.002 171.188 223.03L180.133 217.868C180.29 219.919 181.048 221.233 182.414 221.814C183.773 222.409 185.818 221.912 188.536 220.344C191.254 218.776 193.194 217.156 194.455 215.418C195.716 213.68 196.344 212.04 196.337 210.504C196.331 208.969 195.886 208.008 194.985 207.649C194.096 207.29 192.449 207.558 190.065 208.472L184.923 210.406C180.597 212.138 177.467 212.445 175.52 211.334C173.573 210.223 172.606 207.767 172.593 203.951C172.593 201.644 173.096 199.227 174.135 196.698C175.174 194.163 176.657 191.713 178.591 189.328C180.519 186.95 182.806 184.833 185.452 182.951L185.432 177.045L191.639 173.458L191.633 173.451Z" fill="url(#paint15_linear_33_1807)"/>
<g opacity="0.5">
<path d="M183.139 138.058C182.296 138.077 181.433 138.149 180.564 138.241L199.022 148.897C199.898 148.806 200.767 148.734 201.61 148.721L183.132 138.051L183.139 138.058Z" fill="url(#paint16_linear_33_1807)"/>
<path d="M172.417 140.175L190.849 150.818C191.47 150.596 192.084 150.4 192.698 150.217L174.26 139.574C173.652 139.757 173.038 139.959 172.417 140.181V140.175Z" fill="url(#paint17_linear_33_1807)"/>
<path d="M165.798 143.128L184.217 153.765C184.733 153.49 185.243 153.236 185.752 152.981L167.327 142.344C166.817 142.592 166.308 142.853 165.792 143.128H165.798Z" fill="url(#paint18_linear_33_1807)"/>
<path d="M159.977 146.676L178.395 157.306C178.84 156.999 179.29 156.705 179.741 156.411L161.323 145.781C160.872 146.075 160.421 146.369 159.977 146.676Z" fill="url(#paint19_linear_33_1807)"/>
<path d="M155.063 150.374L173.469 161.004C173.874 160.671 174.279 160.357 174.684 160.037L156.272 149.407C155.867 149.727 155.462 150.047 155.057 150.374H155.063Z" fill="url(#paint20_linear_33_1807)"/>
<path d="M168.784 165.173C169.15 164.826 169.509 164.474 169.882 164.134L151.476 153.503C151.11 153.843 150.744 154.196 150.385 154.542L168.79 165.166L168.784 165.173Z" fill="url(#paint21_linear_33_1807)"/>
<path d="M146.87 158.104C146.536 158.463 146.203 158.829 145.876 159.201L164.276 169.825C164.609 169.459 164.936 169.093 165.275 168.727L146.876 158.104H146.87Z" fill="url(#paint22_linear_33_1807)"/>
<path d="M141.93 163.859C141.629 164.238 141.329 164.624 141.028 165.009L159.427 175.633C159.728 175.248 160.022 174.862 160.329 174.483L141.93 163.859Z" fill="url(#paint23_linear_33_1807)"/>
<path d="M137.428 169.995C137.154 170.394 136.886 170.792 136.618 171.197L155.011 181.815C155.279 181.41 155.547 181.011 155.821 180.613L137.428 169.995Z" fill="url(#paint24_linear_33_1807)"/>
<path d="M133.031 177.045C132.79 177.463 132.561 177.888 132.326 178.306L150.718 188.923C150.954 188.499 151.182 188.08 151.424 187.662L133.031 177.045Z" fill="url(#paint25_linear_33_1807)"/>
<path d="M125.87 240.233L144.204 250.857C143.701 250.073 143.237 249.236 142.799 248.374L124.459 237.75C124.897 238.619 125.361 239.455 125.864 240.239L125.87 240.233Z" fill="url(#paint26_linear_33_1807)"/>
<path d="M121.976 231.066L140.329 241.697C140.166 241.069 140.022 240.423 139.885 239.769L121.532 229.139C121.662 229.792 121.813 230.439 121.97 231.066H121.976Z" fill="url(#paint27_linear_33_1807)"/>
<path d="M120.787 223.722L139.147 234.359C139.101 233.784 139.055 233.209 139.023 232.615L120.663 221.978C120.689 222.572 120.741 223.147 120.787 223.722Z" fill="url(#paint28_linear_33_1807)"/>
<path d="M120.656 216.764L139.016 227.401C139.036 226.865 139.082 226.323 139.114 225.787L120.754 215.15C120.715 215.692 120.676 216.228 120.656 216.764Z" fill="url(#paint29_linear_33_1807)"/>
<path d="M121.296 209.981L139.663 220.625C139.735 220.115 139.807 219.599 139.892 219.083L121.525 208.439C121.44 208.956 121.368 209.465 121.296 209.981Z" fill="url(#paint30_linear_33_1807)"/>
<path d="M122.806 202.246L141.172 212.889C141.29 212.399 141.407 211.916 141.538 211.426L123.172 200.782C123.041 201.272 122.93 201.756 122.806 202.246Z" fill="url(#paint31_linear_33_1807)"/>
<path d="M125.491 193.379C125.328 193.843 125.158 194.307 125.001 194.771L143.367 205.415C143.524 204.951 143.694 204.487 143.857 204.023L125.491 193.379Z" fill="url(#paint32_linear_33_1807)"/>
<path d="M128.647 185.617C128.444 186.061 128.242 186.499 128.046 186.944L146.419 197.587C146.615 197.143 146.817 196.705 147.02 196.261L128.647 185.617Z" fill="url(#paint33_linear_33_1807)"/>
</g>
<path d="M195.22 140.998C187.275 136.379 176.278 137.032 164.132 144.043C140.009 157.973 120.519 191.739 120.597 219.462C120.637 233.236 125.498 242.932 133.345 247.486L151.705 258.155C143.864 253.595 138.997 243.905 138.957 230.132C138.879 202.409 158.369 168.643 182.492 154.712C194.632 147.702 205.635 147.055 213.58 151.668L195.22 140.998Z" stroke="#4E47DD" stroke-width="0.980068" stroke-linecap="round" stroke-linejoin="round"/>
</g>
<defs>
<linearGradient id="paint0_linear_33_1807" x1="86.3476" y1="100.795" x2="115.802" y2="160.161" gradientUnits="userSpaceOnUse">
<stop stop-color="white" stop-opacity="0"/>
<stop offset="0.15" stop-color="white" stop-opacity="0.06"/>
<stop offset="0.42" stop-color="white" stop-opacity="0.21"/>
<stop offset="0.79" stop-color="white" stop-opacity="0.45"/>
<stop offset="1" stop-color="white" stop-opacity="0.6"/>
</linearGradient>
<linearGradient id="paint1_linear_33_1807" x1="116.031" y1="61.5794" x2="135.397" y2="61.5794" gradientUnits="userSpaceOnUse">
<stop stop-color="#7F78FF"/>
<stop offset="1" stop-color="#A4ABF7"/>
</linearGradient>
<linearGradient id="paint2_linear_33_1807" x1="34.672" y1="124.742" x2="125.08" y2="19.842" gradientUnits="userSpaceOnUse">
<stop stop-color="#7F78FF"/>
<stop offset="1" stop-color="#A4ABF7"/>
</linearGradient>
<linearGradient id="paint3_linear_33_1807" x1="20.1209" y1="90.0211" x2="151.228" y2="90.0211" gradientUnits="userSpaceOnUse">
<stop stop-color="#A39EFF"/>
<stop offset="1" stop-color="#CFD3FF"/>
</linearGradient>
<linearGradient id="paint4_linear_33_1807" x1="168.844" y1="146.277" x2="148.079" y2="146.277" gradientUnits="userSpaceOnUse">
<stop stop-color="#A39EFF"/>
<stop offset="1" stop-color="#CFD3FF"/>
</linearGradient>
<linearGradient id="paint5_linear_33_1807" x1="126.707" y1="98.3452" x2="178.108" y2="98.3452" gradientUnits="userSpaceOnUse">
<stop stop-color="#7F78FF"/>
<stop offset="1" stop-color="#A4ABF7"/>
</linearGradient>
<linearGradient id="paint6_linear_33_1807" x1="132.418" y1="158.234" x2="111.849" y2="158.234" gradientUnits="userSpaceOnUse">
<stop stop-color="#A39EFF"/>
<stop offset="1" stop-color="#CFD3FF"/>
</linearGradient>
<linearGradient id="paint7_linear_33_1807" x1="91.6141" y1="102.278" x2="143.015" y2="102.278" gradientUnits="userSpaceOnUse">
<stop stop-color="#7F78FF"/>
<stop offset="1" stop-color="#A4ABF7"/>
</linearGradient>
<linearGradient id="paint8_linear_33_1807" x1="93.9794" y1="181.886" x2="76.5865" y2="181.886" gradientUnits="userSpaceOnUse">
<stop stop-color="#A39EFF"/>
<stop offset="1" stop-color="#CFD3FF"/>
</linearGradient>
<linearGradient id="paint9_linear_33_1807" x1="57.377" y1="129.675" x2="108.778" y2="129.675" gradientUnits="userSpaceOnUse">
<stop stop-color="#7F78FF"/>
<stop offset="1" stop-color="#A4ABF7"/>
</linearGradient>
<linearGradient id="paint10_linear_33_1807" x1="63.8977" y1="216.731" x2="37.1484" y2="216.731" gradientUnits="userSpaceOnUse">
<stop stop-color="#A39EFF"/>
<stop offset="1" stop-color="#CFD3FF"/>
</linearGradient>
<linearGradient id="paint11_linear_33_1807" x1="22.7869" y1="179.194" x2="74.1948" y2="179.194" gradientUnits="userSpaceOnUse">
<stop stop-color="#7F78FF"/>
<stop offset="1" stop-color="#A4ABF7"/>
</linearGradient>
<linearGradient id="paint12_linear_33_1807" x1="198.761" y1="217.208" x2="147.589" y2="178.149" gradientUnits="userSpaceOnUse">
<stop stop-color="#BBB8FF"/>
<stop offset="1" stop-color="#E5E7F7"/>
</linearGradient>
<linearGradient id="paint13_linear_33_1807" x1="209.267" y1="219.821" x2="153.73" y2="189.139" gradientUnits="userSpaceOnUse">
<stop stop-color="#7F78FF"/>
<stop offset="1" stop-color="#A4ABF7"/>
</linearGradient>
<linearGradient id="paint14_linear_33_1807" x1="138.794" y1="222.971" x2="185.164" y2="151.23" gradientUnits="userSpaceOnUse">
<stop stop-color="#7F78FF"/>
<stop offset="1" stop-color="#A4ABF7"/>
</linearGradient>
<linearGradient id="paint15_linear_33_1807" x1="197.219" y1="233.667" x2="177.552" y2="172.726" gradientUnits="userSpaceOnUse">
<stop stop-color="#BBB8FF"/>
<stop offset="1" stop-color="#E5E7F7"/>
</linearGradient>
<linearGradient id="paint16_linear_33_1807" x1="200.917" y1="155.026" x2="177.108" y2="127.068" gradientUnits="userSpaceOnUse">
<stop offset="0.26" stop-color="#4E47DD" stop-opacity="0.97"/>
<stop offset="1" stop-color="#4E47DD" stop-opacity="0"/>
</linearGradient>
<linearGradient id="paint17_linear_33_1807" x1="195.128" y1="159.959" x2="171.319" y2="132.001" gradientUnits="userSpaceOnUse">
<stop offset="0.26" stop-color="#4E47DD" stop-opacity="0.97"/>
<stop offset="1" stop-color="#4E47DD" stop-opacity="0"/>
</linearGradient>
<linearGradient id="paint18_linear_33_1807" x1="189.784" y1="164.506" x2="165.974" y2="136.548" gradientUnits="userSpaceOnUse">
<stop offset="0.26" stop-color="#4E47DD" stop-opacity="0.97"/>
<stop offset="1" stop-color="#4E47DD" stop-opacity="0"/>
</linearGradient>
<linearGradient id="paint19_linear_33_1807" x1="184.635" y1="168.891" x2="160.826" y2="140.933" gradientUnits="userSpaceOnUse">
<stop offset="0.26" stop-color="#4E47DD" stop-opacity="0.97"/>
<stop offset="1" stop-color="#4E47DD" stop-opacity="0"/>
</linearGradient>
<linearGradient id="paint20_linear_33_1807" x1="179.937" y1="172.889" x2="156.128" y2="144.931" gradientUnits="userSpaceOnUse">
<stop offset="0.26" stop-color="#4E47DD" stop-opacity="0.97"/>
<stop offset="1" stop-color="#4E47DD" stop-opacity="0"/>
</linearGradient>
<linearGradient id="paint21_linear_33_1807" x1="175.141" y1="176.973" x2="151.332" y2="149.015" gradientUnits="userSpaceOnUse">
<stop offset="0.26" stop-color="#4E47DD" stop-opacity="0.97"/>
<stop offset="1" stop-color="#4E47DD" stop-opacity="0"/>
</linearGradient>
<linearGradient id="paint22_linear_33_1807" x1="170.221" y1="181.168" x2="146.412" y2="153.21" gradientUnits="userSpaceOnUse">
<stop offset="0.26" stop-color="#4E47DD" stop-opacity="0.97"/>
<stop offset="1" stop-color="#4E47DD" stop-opacity="0"/>
</linearGradient>
<linearGradient id="paint23_linear_33_1807" x1="164.53" y1="186.009" x2="140.721" y2="158.051" gradientUnits="userSpaceOnUse">
<stop offset="0.26" stop-color="#4E47DD" stop-opacity="0.97"/>
<stop offset="1" stop-color="#4E47DD" stop-opacity="0"/>
</linearGradient>
<linearGradient id="paint24_linear_33_1807" x1="158.905" y1="190.805" x2="135.096" y2="162.847" gradientUnits="userSpaceOnUse">
<stop offset="0.26" stop-color="#4E47DD" stop-opacity="0.97"/>
<stop offset="1" stop-color="#4E47DD" stop-opacity="0"/>
</linearGradient>
<linearGradient id="paint25_linear_33_1807" x1="152.888" y1="195.921" x2="129.078" y2="167.963" gradientUnits="userSpaceOnUse">
<stop offset="0.26" stop-color="#4E47DD" stop-opacity="0.97"/>
<stop offset="1" stop-color="#4E47DD" stop-opacity="0"/>
</linearGradient>
<linearGradient id="paint26_linear_33_1807" x1="118.258" y1="225.414" x2="94.4493" y2="197.456" gradientUnits="userSpaceOnUse">
<stop offset="0.26" stop-color="#4E47DD" stop-opacity="0.97"/>
<stop offset="1" stop-color="#4E47DD" stop-opacity="0"/>
</linearGradient>
<linearGradient id="paint27_linear_33_1807" x1="120.669" y1="223.363" x2="96.8602" y2="195.405" gradientUnits="userSpaceOnUse">
<stop offset="0.26" stop-color="#4E47DD" stop-opacity="0.97"/>
<stop offset="1" stop-color="#4E47DD" stop-opacity="0"/>
</linearGradient>
<linearGradient id="paint28_linear_33_1807" x1="123.649" y1="220.821" x2="99.8394" y2="192.863" gradientUnits="userSpaceOnUse">
<stop offset="0.26" stop-color="#4E47DD" stop-opacity="0.97"/>
<stop offset="1" stop-color="#4E47DD" stop-opacity="0"/>
</linearGradient>
<linearGradient id="paint29_linear_33_1807" x1="127.04" y1="217.933" x2="103.231" y2="189.975" gradientUnits="userSpaceOnUse">
<stop offset="0.26" stop-color="#4E47DD" stop-opacity="0.97"/>
<stop offset="1" stop-color="#4E47DD" stop-opacity="0"/>
</linearGradient>
<linearGradient id="paint30_linear_33_1807" x1="130.783" y1="214.751" x2="106.974" y2="186.793" gradientUnits="userSpaceOnUse">
<stop offset="0.26" stop-color="#4E47DD" stop-opacity="0.97"/>
<stop offset="1" stop-color="#4E47DD" stop-opacity="0"/>
</linearGradient>
<linearGradient id="paint31_linear_33_1807" x1="135.494" y1="210.733" x2="111.685" y2="182.775" gradientUnits="userSpaceOnUse">
<stop offset="0.26" stop-color="#4E47DD" stop-opacity="0.97"/>
<stop offset="1" stop-color="#4E47DD" stop-opacity="0"/>
</linearGradient>
<linearGradient id="paint32_linear_33_1807" x1="140.473" y1="206.493" x2="116.664" y2="178.535" gradientUnits="userSpaceOnUse">
<stop offset="0.26" stop-color="#4E47DD" stop-opacity="0.97"/>
<stop offset="1" stop-color="#4E47DD" stop-opacity="0"/>
</linearGradient>
<linearGradient id="paint33_linear_33_1807" x1="146.125" y1="201.684" x2="122.316" y2="173.726" gradientUnits="userSpaceOnUse">
<stop offset="0.26" stop-color="#4E47DD" stop-opacity="0.97"/>
<stop offset="1" stop-color="#4E47DD" stop-opacity="0"/>
</linearGradient>
<clipPath id="clip0_33_1807">
<rect width="226.441" height="264.017" fill="white" transform="translate(0.375977 0.148926)"/>
</clipPath>
</defs>
</svg>
