<svg width="177" height="86" viewBox="0 0 177 86" fill="none" xmlns="http://www.w3.org/2000/svg">
<path d="M13.4305 69.3267V73.8531L10.5616 73.9594C7.69986 74.0586 5.74479 73.5627 4.69642 72.4718C4.01639 71.7776 3.67638 70.708 3.67638 69.263V55.0037H0.446266V50.6898H3.67638V44.2296H9.6691V50.6898H13.4305V55.0037H9.6691V67.2441C9.6691 68.1933 9.78952 68.7884 10.0304 69.0292C10.2712 69.2559 11.0079 69.3692 12.2404 69.3692C12.4246 69.3692 12.6159 69.3692 12.8142 69.3692C13.0267 69.3551 13.2321 69.3409 13.4305 69.3267ZM36.6363 53.4099C38.5914 55.8608 39.5689 58.758 39.5689 62.1015C39.5689 65.5016 38.5914 68.4129 36.6363 70.8355C34.6812 73.2439 31.7132 74.4482 27.7322 74.4482C23.7513 74.4482 20.7832 73.2439 18.8282 70.8355C16.8731 68.4129 15.8956 65.5016 15.8956 62.1015C15.8956 58.758 16.8731 55.8608 18.8282 53.4099C20.7832 50.959 23.7513 49.7335 27.7322 49.7335C31.7132 49.7335 34.6812 50.959 36.6363 53.4099ZM27.711 54.855C25.9401 54.855 24.573 55.4854 23.6096 56.7463C22.6604 57.993 22.1858 59.778 22.1858 62.1015C22.1858 64.4249 22.6604 66.217 23.6096 67.4779C24.573 68.7388 25.9401 69.3692 27.711 69.3692C29.4819 69.3692 30.8419 68.7388 31.7911 67.4779C32.7403 66.217 33.2149 64.4249 33.2149 62.1015C33.2149 59.778 32.7403 57.993 31.7911 56.7463C30.8419 55.4854 29.4819 54.855 27.711 54.855ZM63.2423 53.4099C65.1973 55.8608 66.1749 58.758 66.1749 62.1015C66.1749 65.5016 65.1973 68.4129 63.2423 70.8355C61.2872 73.2439 58.3192 74.4482 54.3382 74.4482C50.3572 74.4482 47.3892 73.2439 45.4341 70.8355C43.4791 68.4129 42.5015 65.5016 42.5015 62.1015C42.5015 58.758 43.4791 55.8608 45.4341 53.4099C47.3892 50.959 50.3572 49.7335 54.3382 49.7335C58.3192 49.7335 61.2872 50.959 63.2423 53.4099ZM54.3169 54.855C52.546 54.855 51.1789 55.4854 50.2155 56.7463C49.2663 57.993 48.7917 59.778 48.7917 62.1015C48.7917 64.4249 49.2663 66.217 50.2155 67.4779C51.1789 68.7388 52.546 69.3692 54.3169 69.3692C56.0878 69.3692 57.4479 68.7388 58.3971 67.4779C59.3463 66.217 59.8209 64.4249 59.8209 62.1015C59.8209 59.778 59.3463 57.993 58.3971 56.7463C57.4479 55.4854 56.0878 54.855 54.3169 54.855ZM81.1354 69.3267V73.8531L78.2665 73.9594C75.4048 74.0586 73.4497 73.5627 72.4013 72.4718C71.7213 71.7776 71.3813 70.708 71.3813 69.263V55.0037H68.1512V50.6898H71.3813V44.2296H77.374V50.6898H81.1354V55.0037H77.374V67.2441C77.374 68.1933 77.4944 68.7884 77.7353 69.0292C77.9761 69.2559 78.7128 69.3692 79.9454 69.3692C80.1295 69.3692 80.3208 69.3692 80.5191 69.3692C80.7316 69.3551 80.9371 69.3409 81.1354 69.3267ZM105.956 60.0401V73.6406H99.7723V59.5514C99.7723 58.3047 99.5598 57.2988 99.1348 56.5338C98.5823 55.4571 97.5339 54.9187 95.9897 54.9187C94.3888 54.9187 93.1704 55.4571 92.3345 56.5338C91.5129 57.5963 91.102 59.1193 91.102 61.1027V73.6406H85.0668V42.4233H91.102V53.4949C91.9804 52.149 92.9933 51.214 94.1409 50.6898C95.3026 50.1515 96.5209 49.8823 97.796 49.8823C99.2269 49.8823 100.523 50.1302 101.685 50.6261C102.861 51.1219 103.824 51.8798 104.575 52.8999C105.213 53.7641 105.602 54.6566 105.744 55.5775C105.885 56.4842 105.956 57.9717 105.956 60.0401ZM121.044 67.5629L125.826 50.4773H132.265L124.317 73.2581C122.787 77.6499 121.576 80.37 120.683 81.4184C119.791 82.4809 118.005 83.0122 115.328 83.0122C114.79 83.0122 114.357 83.0051 114.032 82.991C113.706 82.991 113.217 82.9697 112.565 82.9272V78.082L113.33 78.1245C113.925 78.1529 114.492 78.1316 115.03 78.0608C115.569 77.9899 116.022 77.827 116.39 77.572C116.745 77.3312 117.07 76.8282 117.368 76.0632C117.68 75.2982 117.807 74.8307 117.75 74.6607L109.25 50.4773H115.987L121.044 67.5629Z" fill="black"/>
<path fill-rule="evenodd" clip-rule="evenodd" d="M155.435 24.8691H164.761V33.1135L171.9 28.9916L176.563 37.0682L169.424 41.1898L176.563 45.3116L171.9 53.3882L164.761 49.2662V57.5103H155.435V49.2667L148.295 53.3888L143.632 45.3122L150.772 41.1898L143.632 37.0676L148.295 28.991L155.435 33.113V24.8691Z" fill="#6758FF"/>
<path fill-rule="evenodd" clip-rule="evenodd" d="M135.755 10.8809H141.084V15.5917L145.163 13.2363L147.828 17.8514L143.748 20.2069L147.828 22.5623L145.163 27.1775L141.084 24.8221V29.533H135.755V24.8221L131.675 27.1775L129.01 22.5623L133.09 20.2069L129.01 17.8514L131.675 13.2362L135.755 15.5917V10.8809Z" fill="#6758FF"/>
<path fill-rule="evenodd" clip-rule="evenodd" d="M154.143 0H156.808V2.35536L158.848 1.1776L160.18 3.4852L158.14 4.66298L160.18 5.84081L158.848 8.14841L156.808 6.9706V9.32605H154.143V6.97056L152.103 8.14822L150.771 5.84062L152.811 4.66298L150.771 3.48538L152.103 1.17778L154.143 2.3554V0Z" fill="#6758FF"/>
</svg>
