<svg width="16" height="16" viewBox="0 0 16 16" fill="none" xmlns="http://www.w3.org/2000/svg">
<path d="M4.64625 8.35366L9.64625 13.3537C9.71618 13.4237 9.8053 13.4713 9.90235 13.4907C9.99939 13.51 10.1 13.5001 10.1914 13.4622C10.2828 13.4243 10.3609 13.3602 10.4159 13.2779C10.4708 13.1956 10.5001 13.0989 10.5 12.9999V2.99991C10.5001 2.90096 10.4708 2.80421 10.4159 2.72191C10.3609 2.63962 10.2828 2.57547 10.1914 2.53759C10.1 2.49972 9.99939 2.48982 9.90235 2.50914C9.8053 2.52847 9.71618 2.57615 9.64625 2.64616L4.64625 7.64616C4.59976 7.69259 4.56288 7.74774 4.53772 7.80844C4.51256 7.86913 4.49961 7.9342 4.49961 7.99991C4.49961 8.06561 4.51256 8.13068 4.53772 8.19138C4.56288 8.25207 4.59976 8.30722 4.64625 8.35366Z" fill="#18181B"/>
</svg>
