<svg width="16" height="16" viewBox="0 0 16 16" fill="none" xmlns="http://www.w3.org/2000/svg">
<path d="M7.64586 4.64625L2.64586 9.64625C2.57585 9.71618 2.52817 9.8053 2.50884 9.90235C2.48952 9.99939 2.49942 10.1 2.5373 10.1914C2.57517 10.2828 2.63932 10.3609 2.72161 10.4159C2.80391 10.4708 2.90066 10.5001 2.99961 10.5L12.9996 10.5C13.0986 10.5001 13.1953 10.4708 13.2776 10.4159C13.3599 10.3609 13.424 10.2828 13.4619 10.1914C13.4998 10.1 13.5097 9.99939 13.4904 9.90235C13.471 9.8053 13.4234 9.71618 13.3534 9.64625L8.35336 4.64625C8.30692 4.59976 8.25178 4.56288 8.19108 4.53772C8.13038 4.51256 8.06531 4.49961 7.99961 4.49961C7.9339 4.49961 7.86884 4.51256 7.80814 4.53772C7.74744 4.56288 7.69229 4.59976 7.64586 4.64625Z" fill="white"/>
</svg>
