<svg width="16" height="16" viewBox="0 0 16 16" fill="none" xmlns="http://www.w3.org/2000/svg">
<path d="M7.64586 11.3537L2.64586 6.35375C2.57585 6.28382 2.52817 6.1947 2.50884 6.09765C2.48952 6.00061 2.49942 5.90002 2.5373 5.8086C2.57517 5.71719 2.63932 5.63907 2.72161 5.58414C2.80391 5.5292 2.90066 5.49992 2.99961 5.5L12.9996 5.5C13.0986 5.49992 13.1953 5.5292 13.2776 5.58414C13.3599 5.63908 13.424 5.71719 13.4619 5.8086C13.4998 5.90002 13.5097 6.00061 13.4904 6.09765C13.471 6.1947 13.4234 6.28382 13.3534 6.35375L8.35336 11.3538C8.30692 11.4002 8.25178 11.4371 8.19108 11.4623C8.13038 11.4874 8.06531 11.5004 7.99961 11.5004C7.9339 11.5004 7.86883 11.4874 7.80814 11.4623C7.74744 11.4371 7.69229 11.4002 7.64586 11.3537Z" fill="white"/>
</svg>
