<svg width="65" height="24" viewBox="0 0 65 24" fill="none" xmlns="http://www.w3.org/2000/svg">
<g clip-path="url(#clip0_440_296)">
<path d="M10.43 5.7264L5.46461 2.8632L0.5 5.7264V2.8632L5.46542 0L10.4309 2.8632V5.7264H10.43Z" fill="#A1A1AA"/>
<path d="M0.5 8.13281H3.10085V14.444C3.10085 16.0752 4.31998 16.8696 5.46542 16.8696C6.61966 16.8696 7.83 16.0536 7.83 14.4224V8.13281H10.4309V14.5944C10.4309 16.0968 9.95821 17.256 9.01223 18.0504C8.06626 18.8448 6.88402 19.2312 5.44379 19.2312C4.00358 19.2312 2.82131 18.8448 1.89695 18.0504C0.972592 17.256 0.5 16.14 0.5 14.6584V8.13281Z" fill="#A1A1AA"/>
<path d="M32.9151 15.9729C32.1277 16.6729 31.2306 17.0161 30.2077 17.0161C28.3429 17.0161 27.091 15.9545 26.95 14.3105H35.3542C35.3542 14.3105 35.4094 13.7793 35.4094 13.2809C35.4094 11.7353 34.9152 10.4473 33.9051 9.39526C32.9167 8.3433 31.6271 7.82812 30.0579 7.82812C28.403 7.82812 27.0485 8.3433 25.9736 9.39526C24.9203 10.4473 24.3828 11.8209 24.3828 13.5385V13.6241C24.3828 15.3201 24.9203 16.6721 25.9736 17.6817C27.0269 18.6905 28.4239 19.2057 30.122 19.2057C32.0965 19.2057 33.6681 18.4281 34.8471 17.0865L32.9151 15.9729ZM27.9721 10.7049C28.552 10.2537 29.2617 10.0177 30.0571 10.0177C30.8093 10.0177 31.4324 10.2537 31.9699 10.7265C32.4834 11.1569 32.7605 11.6857 32.7846 12.2937H27.0157C27.099 11.6657 27.417 11.1361 27.9721 10.7049Z" fill="#A1A1AA"/>
<path d="M59.0977 20.668C58.0412 23.156 56.9374 24.0024 55.2449 24.0024C54.9549 24.0024 54.0722 24.0024 54.0722 24.0024V21.7C54.0722 21.7 54.4383 21.7 55.0206 21.7C55.603 21.7 56.1444 21.4816 56.6603 20.292C57.1761 19.1024 57.1761 19.1024 57.1761 19.1024L52.7266 8.13281H55.3707L58.5306 16.0328L61.7763 8.13281H64.4204C64.4204 8.13281 60.1847 18.1072 59.0977 20.668Z" fill="#A1A1AA"/>
<path d="M20.5564 3.98828V9.11145C19.7041 8.34825 18.3784 7.89465 17.096 7.89465C15.5701 7.89465 14.2805 8.4315 13.2272 9.5259C12.1955 10.5995 11.6797 11.9299 11.6797 13.5403C11.6797 15.1507 12.1955 16.4811 13.2272 17.5763C14.2805 18.6499 15.5701 19.1867 17.096 19.1867C18.8567 19.1867 19.9684 18.4963 20.5564 17.9547V18.9507H23.1356V3.98828H20.5564ZM19.7826 15.9027C19.1594 16.5251 18.364 16.8475 17.4397 16.8475C16.5153 16.8475 15.7632 16.5251 15.14 15.9027C14.5384 15.2803 14.2372 14.4859 14.2372 13.5411C14.2372 12.5963 14.5384 11.8019 15.14 11.1795C15.7632 10.5571 16.5153 10.2347 17.4397 10.2347C18.364 10.2347 19.1594 10.5571 19.7826 11.1795C20.4274 11.8019 20.7502 12.5963 20.7502 13.5411C20.7502 14.4859 20.4274 15.2803 19.7826 15.9027Z" fill="#A1A1AA"/>
<path d="M48.7177 7.91602C46.7584 7.91602 45.7395 8.72804 45.0419 9.50962C44.7631 8.97839 43.9773 7.91602 42.1406 7.91602C40.5891 7.91602 39.6736 8.69924 39.2178 9.25762V8.13119H36.6602V18.9504H39.2178V12.7248C39.2178 11.2648 40.1205 10.2128 41.3244 10.2128C42.5499 10.2128 43.2588 11.136 43.2588 12.6168V18.9496H45.8164V12.724C45.8164 11.2424 46.6976 10.212 47.9655 10.212C49.1911 10.212 49.9 11.1352 49.9 12.616V18.9488H52.4792V12.2512C52.4792 9.43042 50.9612 7.91602 48.7177 7.91602Z" fill="#A1A1AA"/>
</g>
<defs>
<clipPath id="clip0_440_296">
<rect width="64" height="24" fill="white" transform="translate(0.5)"/>
</clipPath>
</defs>
</svg>
