<svg width="97" height="36" viewBox="0 0 97 36" fill="none" xmlns="http://www.w3.org/2000/svg">
<path d="M15.0501 8.5896L7.52437 4.2948L-0.00012207 8.5896V4.2948L7.52559 0L15.0513 4.2948V8.5896H15.0501Z" fill="#18181B" fill-opacity="0.8"/>
<path d="M-0.00012207 12.1992H3.9418V21.666C3.9418 24.1128 5.78954 25.3044 7.52559 25.3044C9.27499 25.3044 11.1094 24.0804 11.1094 21.6336V12.1992H15.0513V21.8916C15.0513 24.1452 14.335 25.884 12.9012 27.0756C11.4675 28.2672 9.67566 28.8468 7.49281 28.8468C5.31 28.8468 3.51811 28.2672 2.11713 27.0756C0.71615 25.884 -0.00012207 24.21 -0.00012207 21.9876V12.1992Z" fill="#18181B" fill-opacity="0.8"/>
<path d="M49.1308 23.9594C47.9375 25.0093 46.5777 25.5241 45.0274 25.5241C42.2012 25.5241 40.3037 23.9317 40.09 21.4657H52.8275C52.8275 21.4657 52.9113 20.669 52.9113 19.9213C52.9113 17.6029 52.1623 15.6709 50.6314 14.0929C49.1333 12.515 47.1787 11.7422 44.8004 11.7422C42.2923 11.7422 40.2393 12.515 38.6101 14.0929C37.0138 15.6709 36.1991 17.7314 36.1991 20.3077V20.4361C36.1991 22.9802 37.0138 25.0081 38.6101 26.5226C40.2066 28.0357 42.3238 28.8086 44.8975 28.8086C47.8901 28.8086 50.2721 27.6422 52.059 25.6298L49.1308 23.9594ZM41.6392 16.0574C42.518 15.3806 43.5937 15.0265 44.7992 15.0265C45.9392 15.0265 46.8837 15.3806 47.6983 16.0898C48.4765 16.7353 48.8965 17.5285 48.933 18.4406H40.1896C40.3159 17.4985 40.7978 16.7041 41.6392 16.0574Z" fill="#18181B" fill-opacity="0.8"/>
<path d="M88.8163 31.002C87.215 34.734 85.5421 36.0036 82.9769 36.0036C82.5374 36.0036 81.1996 36.0036 81.1996 36.0036V32.55C81.1996 32.55 81.7544 32.55 82.6369 32.55C83.5196 32.55 84.3402 32.2224 85.122 30.438C85.9039 28.6536 85.9039 28.6536 85.9039 28.6536L79.16 12.1992H83.1675L87.9568 24.0492L92.876 12.1992H96.8835C96.8835 12.1992 90.4638 27.1608 88.8163 31.002Z" fill="#18181B" fill-opacity="0.8"/>
<path d="M30.399 5.98096V13.6657C29.1072 12.5209 27.098 11.8405 25.1544 11.8405C22.8417 11.8405 20.8871 12.6458 19.2907 14.2874C17.727 15.8977 16.9452 17.8933 16.9452 20.3089C16.9452 22.7245 17.727 24.7202 19.2907 26.3629C20.8871 27.9733 22.8417 28.7785 25.1544 28.7785C27.8228 28.7785 29.5078 27.7429 30.399 26.9306V28.4246H34.308V5.98096H30.399ZM29.2262 23.8526C28.2816 24.7861 27.0761 25.2697 25.6751 25.2697C24.2742 25.2697 23.1342 24.7861 22.1897 23.8526C21.278 22.9189 20.8215 21.7273 20.8215 20.3102C20.8215 18.8929 21.278 17.7013 22.1897 16.7678C23.1342 15.8341 24.2742 15.3505 25.6751 15.3505C27.0761 15.3505 28.2816 15.8341 29.2262 16.7678C30.2035 17.7013 30.6927 18.8929 30.6927 20.3102C30.6927 21.7273 30.2035 22.9189 29.2262 23.8526Z" fill="#18181B" fill-opacity="0.8"/>
<path d="M73.0793 11.874C70.1098 11.874 68.5656 13.0921 67.5082 14.2644C67.0857 13.4676 65.8947 11.874 63.111 11.874C60.7595 11.874 59.3719 13.0489 58.6811 13.8864V12.1968H54.8047V28.4256H58.6811V19.0872C58.6811 16.8973 60.0493 15.3192 61.874 15.3192C63.7313 15.3192 64.8058 16.704 64.8058 18.9252V28.4245H68.6822V19.0861C68.6822 16.8636 70.0176 15.318 71.9394 15.318C73.7968 15.318 74.8713 16.7029 74.8713 18.9241V28.4232H78.7804V18.3769C78.7804 14.1456 76.4798 11.874 73.0793 11.874Z" fill="#18181B" fill-opacity="0.8"/>
</svg>
