<svg width="194" height="28" viewBox="0 0 194 28" fill="none" xmlns="http://www.w3.org/2000/svg">
<path d="M176.188 27.5412V0H180.248V11.6285C180.886 10.532 181.767 9.67767 182.89 9.06565C184.039 8.42812 185.303 8.10935 186.682 8.10935C188.955 8.10935 190.742 8.82339 192.045 10.2514C193.347 11.6795 193.998 13.8089 193.998 16.6395V27.5412H189.976V17.0602C189.976 13.3881 188.508 11.552 185.572 11.552C184.039 11.552 182.763 12.0875 181.741 13.1586C180.745 14.2296 180.248 15.7597 180.248 17.7488V27.5412H176.188Z" fill="white"/>
<path d="M169.104 27.5413C167.24 27.5413 165.759 27.095 164.661 26.2025C163.563 25.2845 163.014 23.6652 163.014 21.3445V11.9729H159.758V8.56849H163.014L163.511 3.74878H167.074V8.56849H172.436V11.9729H167.074V21.3445C167.074 22.3901 167.291 23.1169 167.725 23.5249C168.184 23.9074 168.963 24.0987 170.061 24.0987H172.244V27.5413H169.104Z" fill="white"/>
<path d="M152.348 27.5412V0H156.408V27.5412H152.348Z" fill="white"/>
<path d="M137.812 28C136.204 28 134.876 27.7322 133.829 27.1967C132.782 26.6612 132.003 25.9599 131.493 25.0929C130.982 24.2003 130.727 23.2313 130.727 22.1857C130.727 20.3497 131.442 18.8961 132.871 17.8251C134.301 16.754 136.344 16.2185 139 16.2185H143.979V15.8742C143.979 14.3952 143.571 13.2859 142.753 12.5463C141.962 11.8068 140.928 11.437 139.651 11.437C138.527 11.437 137.544 11.7175 136.702 12.2786C135.885 12.8141 135.387 13.6174 135.208 14.6884H131.148C131.276 13.3114 131.735 12.1383 132.527 11.1693C133.344 10.1747 134.365 9.42244 135.591 8.91242C136.842 8.37689 138.208 8.10913 139.689 8.10913C142.345 8.10913 144.4 8.81041 145.856 10.213C147.311 11.59 148.039 13.4771 148.039 15.8742V27.541H144.515L144.171 24.2896C143.634 25.3351 142.856 26.2149 141.834 26.929C140.813 27.643 139.472 28 137.812 28ZM138.617 24.7104C139.715 24.7104 140.634 24.4553 141.375 23.9453C142.141 23.4098 142.728 22.7085 143.137 21.8415C143.571 20.9744 143.839 20.0182 143.941 18.9726H139.421C137.812 18.9726 136.663 19.2531 135.974 19.8141C135.31 20.3752 134.978 21.0764 134.978 21.918C134.978 22.785 135.297 23.4736 135.936 23.9836C136.6 24.4681 137.493 24.7104 138.617 24.7104Z" fill="white"/>
<path d="M118.31 28C116.446 28 114.786 27.592 113.331 26.7759C111.901 25.9344 110.777 24.7741 109.96 23.295C109.143 21.816 108.734 20.0947 108.734 18.1311C108.734 16.142 109.13 14.3952 109.922 12.8906C110.739 11.386 111.862 10.213 113.292 9.37144C114.748 8.5299 116.433 8.10913 118.348 8.10913C120.212 8.10913 121.834 8.5299 123.213 9.37144C124.592 10.1875 125.664 11.284 126.43 12.6611C127.196 14.0381 127.579 15.5555 127.579 17.213C127.579 17.468 127.566 17.7486 127.541 18.0546C127.541 18.3351 127.528 18.6538 127.503 19.0109H112.718C112.845 20.8469 113.446 22.2495 114.518 23.2185C115.616 24.1621 116.88 24.6339 118.31 24.6339C119.459 24.6339 120.417 24.3788 121.183 23.8688C121.974 23.3333 122.562 22.6193 122.945 21.7267H127.005C126.494 23.5118 125.472 25.0036 123.94 26.2022C122.434 27.4007 120.557 28 118.31 28ZM118.31 11.437C116.957 11.437 115.756 11.845 114.71 12.6611C113.663 13.4516 113.024 14.6502 112.794 16.2567H123.519C123.442 14.7777 122.919 13.6046 121.949 12.7376C120.978 11.8705 119.765 11.437 118.31 11.437Z" fill="white"/>
<path d="M87.2461 27.5412V0H91.3061V11.6285C91.9445 10.532 92.8255 9.67767 93.949 9.06565C95.0981 8.42812 96.362 8.10935 97.7409 8.10935C100.014 8.10935 101.801 8.82339 103.103 10.2514C104.406 11.6795 105.057 13.8089 105.057 16.6395V27.5412H101.035V17.0602C101.035 13.3881 99.5667 11.552 96.6302 11.552C95.0981 11.552 93.8213 12.0875 92.7999 13.1586C91.8041 14.2296 91.3061 15.7597 91.3061 17.7488V27.5412H87.2461Z" fill="white"/>
<path d="M63.4883 28C61.8796 28 60.5518 27.7322 59.5048 27.1967C58.4579 26.6612 57.6791 25.9599 57.1684 25.0929C56.6577 24.2003 56.4023 23.2313 56.4023 22.1857C56.4023 20.3497 57.1173 18.8961 58.5473 17.8251C59.9772 16.754 62.02 16.2185 64.6756 16.2185H69.6549V15.8742C69.6549 14.3952 69.2464 13.2859 68.4293 12.5463C67.6377 11.8068 66.6035 11.437 65.3268 11.437C64.2032 11.437 63.2202 11.7175 62.3775 12.2786C61.5604 12.8141 61.0625 13.6174 60.8837 14.6884H56.8237C56.9513 13.3114 57.411 12.1383 58.2026 11.1693C59.0197 10.1747 60.0411 9.42244 61.2667 8.91242C62.5179 8.37689 63.8841 8.10913 65.3651 8.10913C68.0207 8.10913 70.0763 8.81041 71.5318 10.213C72.9872 11.59 73.715 13.4771 73.715 15.8742V27.541H70.1912L69.8465 24.2896C69.3102 25.3351 68.5314 26.2149 67.51 26.929C66.4886 27.643 65.148 28 63.4883 28ZM64.2926 24.7104C65.3906 24.7104 66.3099 24.4553 67.0504 23.9453C67.8164 23.4098 68.4037 22.7085 68.8123 21.8415C69.2464 20.9744 69.5145 20.0182 69.6166 18.9726H65.097C63.4883 18.9726 62.3392 19.2531 61.6498 19.8141C60.9859 20.3752 60.6539 21.0764 60.6539 21.918C60.6539 22.785 60.9731 23.4736 61.6115 23.9836C62.2754 24.4681 63.1691 24.7104 64.2926 24.7104Z" fill="white"/>
<path d="M42.918 27.541V8.56815H46.5567L46.9014 12.1638C47.5653 10.9143 48.4846 9.93246 49.6592 9.21843C50.8593 8.4789 52.302 8.10913 53.9873 8.10913V12.3551H52.8766C51.753 12.3551 50.7444 12.5463 49.8507 12.9288C48.9825 13.2859 48.2803 13.9106 47.7441 14.8032C47.2334 15.6702 46.978 16.8815 46.978 18.4371V27.541H42.918Z" fill="white"/>
<path d="M29.8568 28C27.9928 28 26.333 27.592 24.8775 26.7759C23.4476 25.9344 22.324 24.7741 21.5069 23.295C20.6898 21.816 20.2812 20.0947 20.2812 18.1311C20.2812 16.142 20.677 14.3952 21.4686 12.8906C22.2857 11.386 23.4093 10.213 24.8392 9.37144C26.2947 8.5299 27.98 8.10913 29.8951 8.10913C31.7592 8.10913 33.3806 8.5299 34.7595 9.37144C36.1384 10.1875 37.2109 11.284 37.9769 12.6611C38.743 14.0381 39.126 15.5555 39.126 17.213C39.126 17.468 39.1132 17.7486 39.0877 18.0546C39.0877 18.3351 39.0749 18.6538 39.0494 19.0109H24.2647C24.3924 20.8469 24.9924 22.2495 26.0649 23.2185C27.1629 24.1621 28.4269 24.6339 29.8568 24.6339C31.0059 24.6339 31.9635 24.3788 32.7295 23.8688C33.5211 23.3333 34.1084 22.6193 34.4914 21.7267H38.5515C38.0408 23.5118 37.0194 25.0036 35.4873 26.2022C33.9807 27.4007 32.1039 28 29.8568 28ZM29.8568 11.437C28.5035 11.437 27.3033 11.845 26.2564 12.6611C25.2095 13.4516 24.5711 14.6502 24.3413 16.2567H35.0659C34.9893 14.7777 34.4659 13.6046 33.4955 12.7376C32.5252 11.8705 31.3123 11.437 29.8568 11.437Z" fill="white"/>
<path d="M7.12423 27.5409L0 8.56812H4.25156L9.53728 23.6775L14.823 8.56812H19.0362L11.9503 27.5409H7.12423Z" fill="white"/>
</svg>
