<svg width="65" height="24" viewBox="0 0 65 24" fill="none" xmlns="http://www.w3.org/2000/svg">
<path d="M0 6C0 4.89543 0.895431 4 2 4H14C15.1046 4 16 4.89543 16 6V18C16 19.1046 15.1046 20 14 20H2C0.895431 20 0 19.1046 0 18V6Z" fill="#FB651E"/>
<path d="M7.43697 12.9097L4.57227 7.60571H5.88147L7.56659 10.9623C7.59252 11.0221 7.62277 11.0841 7.65733 11.1481C7.6919 11.2122 7.72214 11.2784 7.74807 11.3467C7.76535 11.3723 7.77831 11.3958 7.78696 11.4172C7.7956 11.4385 7.80424 11.4577 7.81288 11.4748C7.85609 11.5602 7.89498 11.6435 7.92954 11.7246C7.96411 11.8058 7.99436 11.8805 8.02028 11.9488C8.08941 11.8036 8.16503 11.6478 8.24712 11.4812C8.32922 11.3147 8.41348 11.1417 8.49989 10.9623L10.2109 7.60571H11.4294L8.53878 12.9738V16.3944H7.43697V12.9097Z" fill="white"/>
<path d="M22.338 13.24C22.338 17.132 24.172 19.092 24.718 19.554L23.668 20.618C23.01 20.1 20.658 17.944 20.658 13.24C20.658 8.536 23.01 6.38 23.668 5.862L24.718 6.926C24.172 7.388 22.338 9.348 22.338 13.24ZM37.5469 18H35.8809L33.7809 11.826L33.0249 9.516L32.2689 11.826L30.1689 18H28.5029L25.4089 7.08H27.1169L28.7969 13.044L29.3989 15.27L30.1409 12.974L32.1289 7.08H33.9349L35.9229 12.974L36.6789 15.27L37.2669 13.044L38.9469 7.08H40.6409L37.5469 18ZM41.546 18V16.894C41.938 16.698 44.43 15.326 46.04 13.73C47.104 12.666 47.678 11.588 47.678 10.468C47.678 9.194 46.852 8.41 45.522 8.41C44.248 8.41 43.394 9.068 43.352 10.496H41.742C41.826 8.354 43.002 6.898 45.522 6.898C47.804 6.898 49.33 8.27 49.33 10.384C49.33 12.022 48.532 13.17 47.16 14.458C45.984 15.578 44.458 16.432 44.248 16.516L49.54 16.502V18H41.546ZM54.7115 18.182C52.1915 18.182 50.9175 16.81 50.7915 14.584H52.4155C52.4715 16.054 53.3815 16.67 54.7115 16.67C56.0695 16.67 56.8255 15.942 56.8255 14.878C56.8255 13.744 56.0695 13.086 54.7395 13.086H53.1295V11.658H54.7395C55.9155 11.658 56.5455 10.958 56.5455 10.02C56.5455 9.054 55.7615 8.41 54.6555 8.41C53.4515 8.41 52.6675 8.942 52.6255 10.496H51.0155C51.0995 8.284 52.3175 6.898 54.6555 6.898C56.7555 6.898 58.1975 8.102 58.1975 9.88C58.1975 11.098 57.4415 12.064 56.4615 12.316C57.7215 12.666 58.4775 13.604 58.4775 15.032C58.4775 16.81 57.1335 18.182 54.7115 18.182ZM61.9129 13.24C61.9129 9.348 60.0789 7.388 59.5329 6.926L60.5829 5.862C61.2409 6.38 63.5929 8.536 63.5929 13.24C63.5929 17.944 61.2409 20.1 60.5829 20.618L59.5329 19.554C60.0789 19.092 61.9129 17.132 61.9129 13.24Z" fill="#3F3F46"/>
</svg>
