<svg width="56" height="56" viewBox="0 0 56 56" fill="none" xmlns="http://www.w3.org/2000/svg">
<rect width="56" height="56" rx="28" fill="#3A59E1"/>
<path d="M47.7235 17.2161C49.478 20.4174 50.4764 24.0912 50.4764 27.9991C50.4764 36.2914 45.9825 43.531 39.3002 47.427L46.1653 27.5779C47.4476 24.3713 47.8746 21.8073 47.8746 19.5274C47.8746 18.6999 47.8201 17.9319 47.7235 17.2161ZM31.0975 17.4608C32.4507 17.3896 33.67 17.2473 33.67 17.2473C34.8811 17.1039 34.7383 15.324 33.5266 15.3949C33.5266 15.3949 29.8859 15.6806 27.5356 15.6806C25.3271 15.6806 21.616 15.3949 21.616 15.3949C20.4038 15.324 20.2617 17.1756 21.4734 17.2473C21.4734 17.2473 22.6199 17.3896 23.8311 17.4608L27.3327 27.0557L22.4131 41.8077L14.2284 17.4608C15.5826 17.3896 16.8006 17.2473 16.8006 17.2473C18.0109 17.1039 17.8681 15.324 16.657 15.3949C16.657 15.3949 13.017 15.6806 10.6664 15.6806C10.2447 15.6806 9.74766 15.6703 9.21987 15.6534C13.2389 9.55182 20.1469 5.52247 27.9999 5.52247C33.8512 5.52247 39.1793 7.75976 43.178 11.4238C43.0812 11.4179 42.9867 11.4058 42.887 11.4058C40.679 11.4058 39.1124 13.329 39.1124 15.3949C39.1124 17.2473 40.1812 18.8145 41.3203 20.6666C42.1751 22.1637 43.1735 24.0867 43.1735 26.8655C43.1735 28.789 42.4335 31.0215 41.4632 34.1316L39.2206 41.6223L31.0975 17.4608ZM27.9999 50.4775C25.7935 50.4775 23.6641 50.154 21.6498 49.5617L28.3946 29.9652L35.3031 48.8934C35.3486 49.0045 35.4044 49.1069 35.4639 49.2032C33.1277 50.0257 30.6173 50.4775 27.9999 50.4775ZM5.52303 27.9991C5.52303 24.7404 6.22197 21.647 7.46934 18.8518L18.1914 48.2278C10.6926 44.585 5.52303 36.8958 5.52303 27.9991ZM27.9999 3C14.2149 3 3 14.2145 3 27.9991C3 41.7842 14.2149 53 27.9999 53C41.7846 53 53 41.7842 53 27.9991C53 14.2145 41.7846 3 27.9999 3Z" fill="white"/>
</svg>
