<svg width="28" height="28" viewBox="0 0 28 28" fill="none" xmlns="http://www.w3.org/2000/svg">
<path d="M26.2505 6.125V13.125C26.2506 13.2982 26.1994 13.4675 26.1032 13.6115C26.0071 13.7555 25.8704 13.8678 25.7104 13.934C25.5505 14.0003 25.3744 14.0177 25.2046 13.9838C25.0348 13.95 24.8788 13.8666 24.7564 13.7441L21.8755 10.862L15.4946 17.2441C15.4133 17.3254 15.3168 17.39 15.2106 17.434C15.1043 17.478 14.9905 17.5007 14.8755 17.5007C14.7605 17.5007 14.6466 17.478 14.5404 17.434C14.4342 17.39 14.3377 17.3254 14.2564 17.2441L10.5005 13.487L3.24455 20.7441C3.08036 20.9082 2.85768 21.0005 2.62549 21.0005C2.39329 21.0005 2.17061 20.9082 2.00642 20.7441C1.84224 20.5799 1.75 20.3572 1.75 20.125C1.75 19.8928 1.84224 19.6701 2.00642 19.5059L9.88142 11.6309C9.96269 11.5496 10.0592 11.485 10.1654 11.441C10.2716 11.397 10.3855 11.3743 10.5005 11.3743C10.6155 11.3743 10.7293 11.397 10.8356 11.441C10.9418 11.485 11.0383 11.5496 11.1195 11.6309L14.8755 15.388L20.6385 9.625L17.7564 6.74406C17.6339 6.62169 17.5505 6.46572 17.5167 6.29589C17.4828 6.12607 17.5002 5.95003 17.5664 5.79006C17.6327 5.63009 17.745 5.49338 17.889 5.39724C18.033 5.30111 18.2023 5.24986 18.3755 5.25H25.3755C25.6076 5.25 25.8301 5.34219 25.9942 5.50628C26.1583 5.67038 26.2505 5.89294 26.2505 6.125Z" fill="#3857E8"/>
</svg>
