<svg width="16" height="16" viewBox="0 0 16 16" fill="none" xmlns="http://www.w3.org/2000/svg">
<g clip-path="url(#clip0_6783_19263)">
<rect width="16" height="16" rx="8" fill="#71717A"/>
<path d="M13.6356 4.91887C14.1369 5.83353 14.4221 6.88318 14.4221 7.99973C14.4221 10.369 13.1381 12.4374 11.2289 13.5506L13.1904 7.8794C13.5567 6.96323 13.6787 6.23065 13.6787 5.57926C13.6787 5.34283 13.6632 5.1234 13.6356 4.91887ZM8.88528 4.98879C9.2719 4.96845 9.62028 4.92779 9.62028 4.92779C9.96631 4.88682 9.9255 4.37828 9.57931 4.39854C9.57931 4.39854 8.5391 4.48017 7.86759 4.48017C7.23659 4.48017 6.17627 4.39854 6.17627 4.39854C5.82994 4.37828 5.78935 4.90731 6.13553 4.92779C6.13553 4.92779 6.46312 4.96845 6.80915 4.98879L7.80961 7.73019L6.40401 11.9451L4.06553 4.98879C4.45245 4.96845 4.80045 4.92779 4.80045 4.92779C5.14626 4.88682 5.10544 4.37828 4.75941 4.39854C4.75941 4.39854 3.71942 4.48017 3.04783 4.48017C2.92735 4.48017 2.78532 4.47723 2.63453 4.47239C3.78283 2.72909 5.75654 1.57785 8.00024 1.57785C9.67206 1.57785 11.1944 2.21707 12.3368 3.26393C12.3092 3.26227 12.2822 3.25879 12.2537 3.25879C11.6229 3.25879 11.1752 3.80829 11.1752 4.39854C11.1752 4.92779 11.4806 5.37556 11.8061 5.90473C12.0503 6.33247 12.3356 6.8819 12.3356 7.67585C12.3356 8.22543 12.1241 8.86329 11.8469 9.75188L11.2062 11.8921L8.88528 4.98879ZM8.00024 14.4221C7.36985 14.4221 6.76146 14.3297 6.18595 14.1605L8.11302 8.56148L10.0869 13.9695C10.0999 14.0013 10.1158 14.0305 10.1328 14.0581C9.46533 14.293 8.74809 14.4221 8.00024 14.4221ZM1.57829 7.99973C1.57829 7.06867 1.77799 6.18485 2.13437 5.38621L5.19781 13.7794C3.05532 12.7386 1.57829 10.5417 1.57829 7.99973ZM8.00024 0.857139C4.06167 0.857139 0.857422 4.06128 0.857422 7.99973C0.857422 11.9383 4.06167 15.1429 8.00024 15.1429C11.9387 15.1429 15.1431 11.9383 15.1431 7.99973C15.1431 4.06128 11.9387 0.857139 8.00024 0.857139Z" fill="white"/>
</g>
<defs>
<clipPath id="clip0_6783_19263">
<rect width="16" height="16" rx="8" fill="white"/>
</clipPath>
</defs>
</svg>
