<svg width="143" height="28" viewBox="0 0 143 28" fill="none" xmlns="http://www.w3.org/2000/svg">
<g clip-path="url(#clip0_2686_4189)">
<path d="M79.73 5.54167C79.9742 5.54167 80.0352 5.83954 80.0352 6.07784C80.0963 7.03103 80.1573 7.92464 80.1573 8.87784C80.2184 9.77145 80.2184 10.6651 80.2184 11.5587C80.7678 11.1417 81.2562 10.7246 81.8667 10.5459C82.8435 10.1289 84.0034 10.1289 84.9802 10.6055C86.018 11.1417 86.6896 12.0949 87.0559 13.1076C87.3611 14.1204 87.4832 15.1927 87.4221 16.2055C87.3 17.4566 86.9948 18.6481 86.2622 19.6608C85.8349 20.2566 85.2854 20.7332 84.5528 20.9715C83.3929 21.3885 82.1719 21.2098 81.1341 20.614C80.8288 20.4353 80.5236 20.1374 80.2794 19.8991C80.1573 20.2566 80.0963 20.614 79.9742 20.9715C79.4247 20.9715 78.9363 21.031 78.3869 20.9119C78.57 20.0778 78.57 19.1842 78.6311 18.3502C78.6921 15.3119 78.6311 12.2736 78.6311 9.29486C78.57 8.10337 78.6311 6.91188 78.4479 5.77996C78.8142 5.66082 79.3026 5.54167 79.73 5.54167ZM83.7592 11.797C83.2708 11.6778 82.7824 11.6778 82.3551 11.7374C81.5004 11.8566 80.8288 12.4523 80.2794 13.048C80.2794 13.2268 80.2794 13.4651 80.2794 13.6438V18.4693C80.2794 18.6481 80.4015 18.7672 80.5236 18.8268C81.3783 19.6012 82.5993 19.9587 83.6982 19.7204C84.2476 19.6012 84.736 19.2438 84.9802 18.7672C85.4075 18.1119 85.5296 17.3374 85.5907 16.5629C85.6517 15.9672 85.7128 15.3715 85.6517 14.8353C85.6517 14.18 85.4686 13.4651 85.1023 12.8693C84.797 12.2736 84.3086 11.9161 83.7592 11.797ZM90.7798 5.95869C91.0851 5.83954 91.5124 5.83954 91.8177 6.01826C92.1229 6.19699 92.3671 6.49486 92.4892 6.79273C92.6724 7.50762 92.1229 8.28209 91.3903 8.34167C90.8409 8.40124 90.2304 8.10337 90.0472 7.50762C89.8031 6.97145 90.1693 6.19699 90.7798 5.95869ZM40.2923 7.20975C41.0859 6.67358 42.0627 6.25656 43.0395 6.25656C44.0773 6.25656 45.1152 6.31613 46.0309 6.73316C46.3972 6.91188 46.7635 7.0906 47.1298 7.3289C46.8856 7.74592 46.5804 8.04379 46.2751 8.40124C45.9088 8.22252 45.5425 7.98422 45.1152 7.8055C44.1384 7.44805 42.9785 7.38848 42.0017 7.8055C41.147 8.10337 40.4755 8.75869 40.0481 9.53316C39.8039 10.1289 39.5597 10.7246 39.4376 11.3204C39.3155 11.9161 39.3155 12.5119 39.2545 13.1076C39.2545 13.8821 39.1934 14.7161 39.2545 15.4906C39.3766 16.6225 39.8039 17.6949 40.5365 18.5289C41.208 19.3034 42.1848 19.7204 43.2227 19.8395C43.7721 19.8395 44.2605 19.8395 44.8099 19.7204C45.4204 19.6012 45.9699 19.2438 46.5804 19.0055C46.8856 19.3034 47.1908 19.7204 47.4961 20.0778C47.0687 20.3161 46.6414 20.5544 46.153 20.7332C44.932 21.2098 43.5279 21.2693 42.2459 21.0906C41.2691 20.9119 40.4144 20.4353 39.6818 19.8395C38.8271 19.1246 38.2166 18.1715 37.8503 17.1587C37.6062 16.4438 37.4841 15.7289 37.423 15.014C37.423 14.4778 37.3009 13.9417 37.423 13.3459C37.423 12.3332 37.6062 11.2608 38.0335 10.3076C38.4608 9.11613 39.1934 7.98422 40.2923 7.20975Z" fill="#FF5A00"/>
<path fill-rule="evenodd" clip-rule="evenodd" d="M28.51 28H0V0H28.51V28ZM17.8875 6.91211C16.8497 8.93764 15.8125 10.9042 14.7746 12.9297C14.5915 13.2871 14.4084 13.585 14.2253 13.8828C13.9812 13.5255 13.7977 13.1679 13.6146 12.751C12.6378 10.8446 11.7223 8.93763 10.8065 7.09082C10.7456 7.03131 10.7452 6.9718 10.6234 6.97168C10.0129 6.91211 9.40183 6.91211 8.79134 6.91211C8.66932 6.91219 8.54713 6.97168 8.42511 6.97168C8.73033 7.50779 9.03611 8.04395 9.28029 8.52051C10.5623 10.9035 11.7832 13.2274 13.0653 15.5508C13.1872 15.7295 13.187 15.9678 13.187 16.1465V21.5078H15.2022V16.0273C15.2022 15.9082 15.2016 15.8485 15.2626 15.7295C16.6667 13.1678 18.0707 10.6056 19.4138 8.04395C19.5969 7.68656 19.8411 7.38865 19.9631 6.97168C19.2307 6.85263 18.5589 6.91211 17.8875 6.91211Z" fill="#FF5A00"/>
<path d="M118.561 7.80439C119.11 7.62567 119.66 7.50652 120.27 7.38737C120.148 8.40014 120.087 9.4129 120.087 10.4852C120.942 10.4852 121.858 10.4852 122.712 10.5448C122.59 10.9618 122.407 11.3193 122.224 11.6767C121.491 11.6767 120.759 11.6767 119.965 11.6767C119.965 12.6299 119.965 13.5831 119.965 14.5363C119.965 15.2512 120.026 16.0257 119.965 16.8001C119.965 17.6342 119.965 18.5278 120.026 19.3618C120.026 19.7193 120.392 19.9576 120.698 20.0767C121.247 20.1959 121.797 20.1363 122.346 20.0172C122.468 20.315 122.529 20.6725 122.529 20.9703C122.041 21.2086 121.491 21.2682 120.942 21.3278C120.209 21.3278 119.355 21.2086 118.805 20.6725C118.378 20.2555 118.378 19.6001 118.317 19.064C118.256 17.8725 118.317 16.6214 118.256 15.4299C118.256 14.1789 118.256 12.9874 118.256 11.7363C117.767 11.7363 117.279 11.7363 116.852 11.7363C116.852 11.3193 116.852 10.9023 116.852 10.5448C117.34 10.5448 117.767 10.5448 118.256 10.5448C118.439 9.59163 118.439 8.63843 118.561 7.80439ZM53.849 10.1874C54.2763 10.1874 54.7647 10.1874 55.1921 10.3065C56.1688 10.6044 57.0235 11.3193 57.5119 12.1533C57.9393 12.9278 58.2445 13.7618 58.3056 14.6555C58.3666 15.8469 58.4277 17.0384 58.0003 18.1703C57.634 19.2427 56.9014 20.1959 55.8636 20.732C54.8258 21.2682 53.6048 21.3278 52.5059 21.0299C51.5291 20.7916 50.6744 20.1363 50.0639 19.3023C49.4535 18.4086 49.2093 17.3363 49.2093 16.2044C49.2093 15.1916 49.1482 14.1193 49.5145 13.1065C49.8197 12.1533 50.4913 11.2597 51.407 10.664C51.8344 10.4257 52.2617 10.1874 52.7501 10.1278C53.1164 10.1874 53.4827 10.1874 53.849 10.1874ZM52.9943 11.5576C52.4449 11.6767 51.8954 12.0342 51.5902 12.5108C51.1628 13.2257 51.0407 14.0597 51.0407 14.8938C50.9797 15.4895 51.0407 16.0852 51.1018 16.681C51.2239 17.3959 51.346 18.1703 51.7123 18.8257C52.0786 19.5406 52.8722 19.8384 53.6658 19.898C54.3984 19.9576 55.1921 19.7789 55.7415 19.1831C56.1688 18.7065 56.413 18.1703 56.4741 17.515C56.5962 16.7406 56.5962 15.9661 56.5351 15.2512C56.5351 14.4767 56.413 13.6427 56.1078 12.8682C55.9247 12.3916 55.5584 12.0342 55.131 11.7959C54.4595 11.4384 53.7269 11.3789 52.9943 11.5576ZM61.297 10.5448C61.7854 10.3661 62.2738 10.2469 62.8232 10.1874C63.0063 10.664 63.1284 11.1406 63.1895 11.6767C63.5558 11.498 63.8 11.2001 64.1663 11.0214C64.8989 10.4852 65.8146 10.1874 66.7303 10.1874C66.9135 10.1874 67.1577 10.2469 67.3408 10.3661C67.6461 10.5448 67.9513 10.664 68.2566 10.9023C68.5007 11.1406 68.6839 11.498 68.867 11.7959C69.2944 11.6172 69.5996 11.2597 69.9659 11.0214C70.5764 10.6044 71.309 10.2469 72.1637 10.1874C72.8963 10.1278 73.6289 10.3661 74.1783 10.8427C74.4225 11.081 74.6667 11.3193 74.7888 11.6172C74.9109 11.915 74.9719 12.2129 74.9719 12.5703C75.094 14.2384 75.033 15.9661 75.094 17.6342C75.094 18.7661 75.094 19.898 75.094 21.0299C74.5446 21.0299 73.9341 21.0299 73.3847 21.0299C73.3847 19.3618 73.3847 17.6342 73.3847 15.9661C73.3847 14.8938 73.3847 13.8214 73.3236 12.6895C73.2626 12.3321 73.0794 12.0342 72.7742 11.7959C72.4689 11.6172 72.0416 11.6172 71.6143 11.6172C70.9427 11.6767 70.3933 12.0938 69.8438 12.5108C69.5996 12.6895 69.3554 12.9278 69.1112 13.1065C69.0502 13.1661 69.0502 13.2852 69.0502 13.3448C69.0502 15.9065 69.0502 18.4086 69.0502 20.9703C68.5007 20.9703 67.8903 20.9703 67.3408 20.9703V15.0129C67.3408 14.5363 67.3408 14.0597 67.3408 13.5831C67.3408 13.1065 67.3408 12.5703 67.1577 12.1533C66.7914 11.6767 66.1198 11.5576 65.5704 11.7363C64.7157 11.915 63.9831 12.4512 63.3116 13.0469C63.1895 13.1065 63.1895 13.2257 63.1895 13.3448C63.1895 15.9065 63.1895 18.4682 63.1895 21.0299C62.7011 21.0299 62.2127 21.0299 61.7243 21.0299C61.6633 18.4086 61.7243 15.7874 61.6022 13.1661C61.6022 12.5703 61.6022 11.9746 61.4801 11.3789C61.4191 11.081 61.297 10.7831 61.297 10.5448ZM90.4173 10.4852C90.9668 10.4257 91.5162 10.3065 92.0657 10.1874C92.1267 11.6767 92.1267 13.1661 92.1267 14.5959C92.1267 16.7406 92.1267 18.8257 92.1267 20.9703C91.5773 20.9703 90.9668 20.9703 90.4173 20.9703C90.4173 17.9321 90.4173 14.8938 90.4173 11.8555C90.4173 11.4384 90.3563 10.9023 90.4173 10.4852ZM112.334 10.2469C113.494 10.4257 114.471 11.498 114.532 12.6895C114.593 14.4172 114.532 16.2044 114.532 17.9321V18.4682C114.532 18.8257 114.532 19.1831 114.654 19.481C114.715 19.8384 115.081 20.0172 115.325 20.1959C115.081 20.4938 114.898 20.9108 114.593 21.1491C114.41 21.3278 114.165 21.1491 114.043 21.0299C113.616 20.732 113.372 20.315 113.128 19.8384C112.761 20.0172 112.517 20.3746 112.09 20.5533C111.479 20.9703 110.747 21.1491 109.953 21.1491C109.281 21.1491 108.61 21.0299 107.999 20.732C107.023 20.1959 106.473 19.1235 106.534 18.0512C106.534 17.0384 107.084 16.0257 107.877 15.4299C108.854 14.715 110.136 14.4767 111.357 14.3576C111.907 14.298 112.456 14.298 113.067 14.298C113.067 13.7618 113.067 13.2257 112.944 12.6895C112.883 12.2725 112.639 11.7959 112.212 11.5576C111.723 11.3193 111.113 11.2597 110.564 11.3789C109.526 11.498 108.549 11.915 107.694 12.5108C107.45 12.2129 107.206 11.915 107.023 11.5576C106.901 11.3789 107.084 11.2597 107.206 11.2001C108.366 10.6044 109.587 10.0682 110.93 10.0682H111.479C111.785 10.1874 112.029 10.1874 112.334 10.2469ZM111.601 15.5491C111.052 15.6086 110.564 15.6086 110.014 15.7278C109.404 15.9065 108.854 16.264 108.488 16.8001C108.305 17.098 108.305 17.4555 108.305 17.8129C108.305 18.1703 108.244 18.5874 108.427 18.9448C108.549 19.3023 108.854 19.6597 109.22 19.7789C109.648 19.9576 110.136 19.9576 110.625 19.9576C111.174 19.898 111.662 19.6001 112.09 19.2427C112.456 18.9448 112.822 18.5874 112.822 18.1108C112.883 17.2767 112.883 16.3831 112.883 15.5491C112.456 15.6086 112.029 15.4895 111.601 15.5491ZM130.16 10.3065C131.137 10.5448 131.992 11.1406 132.602 11.915C133.091 12.5703 133.396 13.2852 133.518 14.0597C133.64 14.7746 133.701 15.5491 133.64 16.3235C133.64 17.5746 133.213 18.7661 132.48 19.7193C131.87 20.4938 130.893 20.9703 129.977 21.1491C128.817 21.3278 127.535 21.1491 126.497 20.4342C125.643 19.8384 125.093 18.8852 124.788 17.8725C124.605 17.3363 124.605 16.8597 124.544 16.3235C124.544 15.4299 124.544 14.5959 124.666 13.7023C124.91 12.7491 125.398 11.7959 126.131 11.081C126.68 10.5448 127.413 10.2469 128.146 10.1278C128.878 10.1278 129.55 10.1874 130.16 10.3065ZM128.329 11.5576C127.535 11.6767 126.864 12.2725 126.619 12.9874C126.314 13.7618 126.314 14.5959 126.314 15.3703C126.314 16.1448 126.314 16.9193 126.497 17.6342C126.619 18.1703 126.742 18.6469 127.108 19.064C127.413 19.481 127.962 19.7193 128.451 19.7789C128.634 19.8384 128.878 19.8384 129.061 19.8384H129.428C129.855 19.7789 130.221 19.6597 130.588 19.481C131.015 19.2427 131.32 18.8257 131.503 18.3491C131.686 17.8129 131.748 17.2172 131.809 16.681C131.809 16.0257 131.87 15.3703 131.809 14.6555C131.748 13.9406 131.686 13.2257 131.32 12.6299C131.015 12.1533 130.588 11.7959 130.038 11.5576C129.489 11.4384 128.878 11.4384 128.329 11.5576ZM136.57 10.6044C137.12 10.4852 137.608 10.3065 138.097 10.1874C138.402 10.7235 138.402 11.3193 138.463 11.8555C138.707 11.6767 138.951 11.4384 139.196 11.2001C139.928 10.4852 141.027 10.0682 142.065 10.2469V10.3661C141.821 10.8427 141.699 11.3789 141.454 11.915C141.454 12.0342 141.271 11.9746 141.21 11.9746C140.783 11.9746 140.233 11.9746 139.867 12.2129C139.44 12.4512 139.134 12.7491 138.829 13.1065C138.524 13.464 138.585 13.9406 138.585 14.3576C138.585 14.9533 138.524 15.5491 138.585 16.1448C138.585 17.7533 138.585 19.4214 138.585 21.0299C138.036 21.0299 137.425 21.0299 136.876 21.0299C136.876 19.2427 136.876 17.3959 136.876 15.6086C136.876 14.3576 136.876 13.1661 136.815 11.915C136.754 11.4384 136.631 11.0214 136.57 10.6044ZM95.4234 10.6044C95.9118 10.4257 96.4612 10.2469 96.9496 10.2469C97.1327 10.7235 97.2548 11.2597 97.3159 11.7363C97.7432 11.4384 98.1706 11.081 98.5979 10.8427C99.5136 10.3065 100.613 9.94907 101.589 10.3065C102.2 10.4852 102.749 10.8427 103.116 11.3789C103.421 11.7363 103.482 12.2725 103.543 12.6895C103.665 14.3576 103.604 15.9661 103.604 17.6342C103.604 18.7661 103.604 19.8384 103.604 20.9108C103.054 20.9108 102.444 20.9108 101.895 20.9108C101.895 19.1235 101.834 17.2767 101.834 15.4895C101.834 14.4767 101.834 13.464 101.711 12.4512C101.528 11.9746 101.101 11.5576 100.551 11.5576C100.185 11.5576 99.7578 11.5576 99.3915 11.6767C98.5979 11.9746 97.8653 12.4512 97.1938 12.9874C97.1938 15.6086 97.1938 18.2895 97.1938 20.9108C96.7054 20.9108 96.217 20.9108 95.7286 20.9108C95.7286 19.4214 95.6676 17.9321 95.6676 16.3831C95.6676 14.8342 95.6676 13.2852 95.5455 11.7363C95.6676 11.4384 95.5455 11.0214 95.4234 10.6044Z" fill="#FF5A00"/>
</g>
<defs>
<clipPath id="clip0_2686_4189">
<rect width="142.625" height="28" fill="white"/>
</clipPath>
</defs>
</svg>
