<svg width="163" height="32" viewBox="0 0 163 32" fill="none" xmlns="http://www.w3.org/2000/svg">
<g clip-path="url(#clip0_1692_14976)">
<path d="M91.1199 6.33337C91.399 6.33337 91.4687 6.6738 91.4687 6.94614C91.5385 8.0355 91.6083 9.05678 91.6083 10.1461C91.678 11.1674 91.678 12.1887 91.678 13.21C92.306 12.7334 92.8641 12.2568 93.5618 12.0525C94.6782 11.5759 96.0038 11.5759 97.1201 12.1206C98.3062 12.7334 99.0737 13.8227 99.4923 14.9802C99.8412 16.1376 99.9807 17.3632 99.9109 18.5206C99.7714 19.9504 99.4225 21.3121 98.5853 22.4695C98.0969 23.1504 97.469 23.6951 96.6317 23.9674C95.3061 24.444 93.9107 24.2398 92.7246 23.5589C92.3757 23.3547 92.0269 23.0142 91.7478 22.7419C91.6083 23.1504 91.5385 23.5589 91.3989 23.9674C90.771 23.9674 90.2128 24.0355 89.5849 23.8993C89.7942 22.9461 89.7942 21.9249 89.864 20.9717C89.9338 17.4993 89.864 14.027 89.864 10.6227C89.7942 9.26103 89.864 7.89933 89.6547 6.60571C90.0733 6.46954 90.6315 6.33337 91.1199 6.33337ZM95.7247 13.4823C95.1665 13.3461 94.6084 13.3461 94.12 13.4142C93.1432 13.5504 92.3757 14.2312 91.7478 14.9121C91.7478 15.1164 91.7478 15.3887 91.7478 15.5929V21.1078C91.7478 21.3121 91.8873 21.4483 92.0269 21.5164C93.0037 22.4015 94.3991 22.81 95.6549 22.5376C96.2829 22.4015 96.841 21.9929 97.1201 21.4483C97.6085 20.6993 97.748 19.8142 97.8178 18.9291C97.8876 18.2483 97.9574 17.5674 97.8876 16.9547C97.8876 16.2057 97.6783 15.3887 97.2596 14.7078C96.9108 14.027 96.3526 13.6185 95.7247 13.4823ZM103.748 6.80997C104.097 6.6738 104.586 6.6738 104.934 6.87806C105.283 7.08231 105.562 7.42274 105.702 7.76316C105.911 8.58018 105.283 9.46529 104.446 9.53337C103.818 9.60146 103.12 9.26103 102.911 8.58018C102.632 7.96742 103.051 7.08231 103.748 6.80997ZM46.0483 8.23976C46.9553 7.62699 48.0716 7.1504 49.1879 7.1504C50.374 7.1504 51.5601 7.21848 52.6067 7.69508C53.0253 7.89933 53.4439 8.10359 53.8625 8.37593C53.5834 8.85252 53.2346 9.19295 52.8857 9.60146C52.4671 9.3972 52.0485 9.12486 51.5601 8.92061C50.4438 8.5121 49.1181 8.44401 48.0018 8.92061C47.025 9.26103 46.2576 10.01 45.7692 10.8951C45.4901 11.5759 45.211 12.2568 45.0715 12.9376C44.9319 13.6185 44.9319 14.2993 44.8622 14.9802C44.8622 15.8653 44.7924 16.8185 44.8622 17.7036C45.0017 18.9972 45.4901 20.2227 46.3273 21.1759C47.0948 22.061 48.2111 22.5376 49.3972 22.6738C50.0252 22.6738 50.5833 22.6738 51.2113 22.5376C51.909 22.4015 52.5369 21.9929 53.2346 21.7206C53.5834 22.061 53.9323 22.5376 54.2812 22.9461C53.7928 23.2185 53.3044 23.4908 52.7462 23.6951C51.3508 24.2398 49.7461 24.3078 48.2809 24.1036C47.1646 23.8993 46.1878 23.3547 45.3506 22.6738C44.3738 21.8568 43.6761 20.7674 43.2574 19.61C42.9784 18.7929 42.8388 17.9759 42.769 17.1589C42.769 16.5461 42.6295 15.9334 42.769 15.2525C42.769 14.0951 42.9784 12.8695 43.4668 11.7802C43.9551 10.4185 44.7924 9.12486 46.0483 8.23976Z" fill="#18181B" fill-opacity="0.8"/>
<path d="M32.583 32H0V0H32.583V32ZM22.8154 7.96777C21.9782 7.83162 21.2108 7.89941 20.4434 7.89941C19.2573 10.2143 18.0709 12.4615 16.8848 14.7764C16.6755 15.1849 16.4661 15.5258 16.2568 15.8662C15.9778 15.4577 15.7689 15.0488 15.5596 14.5723C14.4433 12.3936 13.3961 10.2151 12.3496 8.10449C12.2798 8.03641 12.2802 7.96777 12.1406 7.96777C11.443 7.8997 10.7454 7.89941 10.0479 7.89941C9.90831 7.89941 9.76845 7.96777 9.62891 7.96777C9.97776 8.58054 10.3264 9.1936 10.6055 9.73828C12.0706 12.4617 13.4665 15.1171 14.9316 17.7725C15.071 17.9767 15.0713 18.249 15.0713 18.4531V24.5811H17.373V18.3164C17.373 18.1805 17.3737 18.1126 17.4434 17.9766C19.0481 15.0489 20.6526 12.121 22.1875 9.19336C22.3968 8.78487 22.6759 8.44435 22.8154 7.96777Z" fill="#18181B" fill-opacity="0.8"/>
<path d="M135.498 8.91922C136.126 8.71497 136.754 8.5788 137.451 8.44263C137.312 9.60007 137.242 10.7575 137.242 11.9831C138.219 11.9831 139.265 11.9831 140.242 12.0511C140.103 12.5277 139.893 12.9362 139.684 13.3448C138.847 13.3448 138.01 13.3448 137.103 13.3448C137.103 14.4341 137.103 15.5235 137.103 16.6128C137.103 17.4299 137.172 18.315 137.103 19.2001C137.103 20.1533 137.103 21.1745 137.172 22.1277C137.172 22.5362 137.591 22.8086 137.94 22.9448C138.568 23.0809 139.196 23.0128 139.824 22.8767C139.963 23.2171 140.033 23.6256 140.033 23.966C139.475 24.2384 138.847 24.3065 138.219 24.3745C137.382 24.3745 136.405 24.2384 135.777 23.6256C135.288 23.149 135.288 22.4001 135.219 21.7873C135.149 20.4256 135.219 18.9958 135.149 17.6341C135.149 16.2043 135.149 14.8426 135.149 13.4128C134.591 13.4128 134.033 13.4128 133.544 13.4128C133.544 12.9362 133.544 12.4596 133.544 12.0511C134.102 12.0511 134.591 12.0511 135.149 12.0511C135.358 10.9618 135.358 9.87241 135.498 8.91922ZM61.5413 11.6426C62.0297 11.6426 62.5878 11.6426 63.0762 11.7788C64.1926 12.1192 65.1693 12.9362 65.7275 13.8894C66.2159 14.7745 66.5647 15.7277 66.6345 16.749C66.7043 18.1107 66.7741 19.4724 66.2857 20.766C65.867 21.9916 65.0298 23.0809 63.8437 23.6937C62.6576 24.3065 61.2622 24.3745 60.0063 24.0341C58.89 23.7618 57.9132 23.0128 57.2155 22.0596C56.5178 21.0384 56.2387 19.8128 56.2387 18.5192C56.2387 17.3618 56.169 16.1362 56.5876 14.9788C56.9364 13.8894 57.7039 12.8682 58.7505 12.1873C59.2389 11.915 59.7273 11.6426 60.2854 11.5745C60.704 11.6426 61.1227 11.6426 61.5413 11.6426ZM60.5645 13.2086C59.9366 13.3448 59.3086 13.7533 58.9598 14.2979C58.4714 15.115 58.3318 16.0682 58.3318 17.0213C58.2621 17.7022 58.3318 18.3831 58.4016 19.0639C58.5412 19.8809 58.6807 20.766 59.0993 21.515C59.5179 22.332 60.425 22.6724 61.332 22.7405C62.1692 22.8086 63.0762 22.6043 63.7042 21.9235C64.1926 21.3788 64.4716 20.766 64.5414 20.0171C64.6809 19.132 64.6809 18.2469 64.6112 17.4299C64.6112 16.5448 64.4716 15.5916 64.1228 14.7065C63.9135 14.1618 63.4948 13.7533 63.0065 13.4809C62.239 13.0724 61.4017 13.0043 60.5645 13.2086ZM70.0533 12.0511C70.6114 11.8469 71.1696 11.7107 71.7975 11.6426C72.0068 12.1873 72.1464 12.732 72.2161 13.3448C72.6348 13.1405 72.9138 12.8001 73.3325 12.5958C74.1697 11.9831 75.2163 11.6426 76.2628 11.6426C76.4721 11.6426 76.7512 11.7107 76.9605 11.8469C77.3094 12.0511 77.6582 12.1873 78.0071 12.4596C78.2861 12.732 78.4955 13.1405 78.7048 13.4809C79.1932 13.2767 79.542 12.8682 79.9606 12.5958C80.6583 12.1192 81.4956 11.7107 82.4724 11.6426C83.3096 11.5745 84.1469 11.8469 84.7748 12.3916C85.0539 12.6639 85.3329 12.9362 85.4725 13.2767C85.612 13.6171 85.6818 13.9575 85.6818 14.366C85.8213 16.2724 85.7516 18.2469 85.8213 20.1533C85.8213 21.4469 85.8213 22.7405 85.8213 24.0341C85.1934 24.0341 84.4957 24.0341 83.8678 24.0341C83.8678 22.1277 83.8678 20.1533 83.8678 18.2469C83.8678 17.0213 83.8678 15.7958 83.798 14.5022C83.7282 14.0937 83.5189 13.7533 83.1701 13.4809C82.8212 13.2767 82.3328 13.2767 81.8444 13.2767C81.077 13.3448 80.449 13.8214 79.8211 14.2979C79.542 14.5022 79.2629 14.7745 78.9838 14.9788C78.9141 15.0469 78.9141 15.1831 78.9141 15.2511C78.9141 18.1788 78.9141 21.0384 78.9141 23.966C78.2861 23.966 77.5884 23.966 76.9605 23.966V17.1575C76.9605 16.6128 76.9605 16.0682 76.9605 15.5235C76.9605 14.9788 76.9605 14.366 76.7512 13.8894C76.3326 13.3448 75.5651 13.2086 74.9372 13.4128C73.9604 13.6171 73.1231 14.2299 72.3557 14.9107C72.2161 14.9788 72.2161 15.115 72.2161 15.2511C72.2161 18.1788 72.2161 21.1065 72.2161 24.0341C71.658 24.0341 71.0998 24.0341 70.5416 24.0341C70.4719 21.0384 70.5416 18.0426 70.4021 15.0469C70.4021 14.366 70.4021 13.6852 70.2626 13.0043C70.1928 12.6639 70.0533 12.3235 70.0533 12.0511ZM103.334 11.9831C103.962 11.915 104.59 11.7788 105.217 11.6426C105.287 13.3448 105.287 15.0469 105.287 16.6809C105.287 19.132 105.287 21.515 105.287 23.966C104.659 23.966 103.962 23.966 103.334 23.966C103.334 20.4937 103.334 17.0213 103.334 13.549C103.334 13.0724 103.264 12.4596 103.334 11.9831ZM128.381 11.7107C129.707 11.915 130.823 13.1405 130.893 14.5022C130.963 16.4767 130.893 18.5192 130.893 20.4937V21.1065C130.893 21.515 130.893 21.9235 131.032 22.2639C131.102 22.6724 131.521 22.8767 131.8 23.0809C131.521 23.4213 131.312 23.8979 130.963 24.1703C130.753 24.3745 130.474 24.1703 130.335 24.0341C129.846 23.6937 129.567 23.2171 129.288 22.6724C128.87 22.8767 128.591 23.2852 128.102 23.4894C127.404 23.966 126.567 24.1703 125.66 24.1703C124.893 24.1703 124.125 24.0341 123.428 23.6937C122.311 23.0809 121.683 21.8554 121.753 20.6299C121.753 19.4724 122.381 18.315 123.288 17.6341C124.404 16.8171 125.869 16.5448 127.265 16.4086C127.893 16.3405 128.521 16.3405 129.218 16.3405C129.218 15.7277 129.218 15.115 129.079 14.5022C129.009 14.0256 128.73 13.4809 128.242 13.2086C127.684 12.9362 126.986 12.8682 126.358 13.0043C125.172 13.1405 124.055 13.6171 123.079 14.2979C122.8 13.9575 122.521 13.6171 122.311 13.2086C122.172 13.0043 122.381 12.8682 122.521 12.8001C123.846 12.1192 125.242 11.5065 126.776 11.5065H127.404C127.753 11.6426 128.032 11.6426 128.381 11.7107ZM127.544 17.7703C126.916 17.8384 126.358 17.8384 125.73 17.9745C125.032 18.1788 124.404 18.5873 123.986 19.2001C123.776 19.5405 123.776 19.949 123.776 20.3575C123.776 20.766 123.707 21.2426 123.916 21.6511C124.055 22.0596 124.404 22.4682 124.823 22.6043C125.311 22.8086 125.869 22.8086 126.428 22.8086C127.056 22.7405 127.614 22.4001 128.102 21.9916C128.521 21.6511 128.939 21.2426 128.939 20.6979C129.009 19.7448 129.009 18.7235 129.009 17.7703C128.521 17.8384 128.032 17.7022 127.544 17.7703ZM148.754 11.7788C149.87 12.0511 150.847 12.732 151.545 13.6171C152.103 14.366 152.452 15.1831 152.591 16.0682C152.731 16.8852 152.801 17.7703 152.731 18.6554C152.731 20.0852 152.243 21.4469 151.405 22.5362C150.708 23.4213 149.591 23.966 148.545 24.1703C147.219 24.3745 145.754 24.1703 144.568 23.3533C143.591 22.6724 142.963 21.5831 142.614 20.4256C142.405 19.8128 142.405 19.2682 142.335 18.6554C142.335 17.6341 142.335 16.6809 142.475 15.6596C142.754 14.5703 143.312 13.4809 144.149 12.6639C144.777 12.0511 145.614 11.7107 146.452 11.5745C147.289 11.5745 148.056 11.6426 148.754 11.7788ZM146.661 13.2086C145.754 13.3448 144.987 14.0256 144.707 14.8426C144.359 15.7277 144.359 16.6809 144.359 17.566C144.359 18.4511 144.359 19.3362 144.568 20.1533C144.707 20.766 144.847 21.3107 145.266 21.7873C145.614 22.2639 146.242 22.5362 146.801 22.6043C147.01 22.6724 147.289 22.6724 147.498 22.6724H147.708H147.917C148.405 22.6043 148.824 22.4682 149.243 22.2639C149.731 21.9916 150.08 21.515 150.289 20.9703C150.498 20.3575 150.568 19.6767 150.638 19.0639C150.638 18.315 150.708 17.566 150.638 16.749C150.568 15.932 150.498 15.115 150.08 14.4341C149.731 13.8894 149.243 13.4809 148.615 13.2086C147.987 13.0724 147.289 13.0724 146.661 13.2086ZM156.08 12.1192C156.708 11.9831 157.266 11.7788 157.824 11.6426C158.173 12.2554 158.173 12.9362 158.243 13.549C158.522 13.3448 158.801 13.0724 159.08 12.8001C159.917 11.9831 161.173 11.5065 162.359 11.7107V11.8469C162.08 12.3916 161.941 13.0043 161.662 13.6171C161.662 13.7533 161.452 13.6852 161.383 13.6852C160.894 13.6852 160.266 13.6852 159.848 13.9575C159.359 14.2299 159.01 14.5703 158.662 14.9788C158.313 15.3873 158.382 15.932 158.382 16.4086C158.382 17.0894 158.313 17.7703 158.382 18.4511C158.382 20.2894 158.382 22.1958 158.382 24.0341C157.755 24.0341 157.057 24.0341 156.429 24.0341C156.429 21.9916 156.429 19.8809 156.429 17.8384C156.429 16.4086 156.429 15.0469 156.359 13.6171C156.289 13.0724 156.15 12.5958 156.08 12.1192ZM109.055 12.1192C109.613 11.915 110.241 11.7107 110.799 11.7107C111.008 12.2554 111.148 12.8682 111.218 13.4128C111.706 13.0724 112.195 12.6639 112.683 12.3916C113.729 11.7788 114.985 11.3703 116.102 11.7788C116.799 11.9831 117.427 12.3916 117.846 13.0043C118.195 13.4128 118.265 14.0256 118.334 14.5022C118.474 16.4086 118.404 18.2469 118.404 20.1533C118.404 21.4469 118.404 22.6724 118.404 23.8979C117.776 23.8979 117.078 23.8979 116.45 23.8979C116.45 21.8554 116.381 19.7448 116.381 17.7022C116.381 16.5448 116.381 15.3873 116.241 14.2299C116.032 13.6852 115.543 13.2086 114.916 13.2086C114.497 13.2086 114.009 13.2086 113.59 13.3448C112.683 13.6852 111.846 14.2299 111.078 14.8426C111.078 17.8384 111.078 20.9022 111.078 23.8979C110.52 23.8979 109.962 23.8979 109.404 23.8979C109.404 22.1958 109.334 20.4937 109.334 18.7235C109.334 16.9533 109.334 15.1831 109.194 13.4128C109.334 13.0724 109.194 12.5958 109.055 12.1192Z" fill="#18181B" fill-opacity="0.8"/>
</g>
<defs>
<clipPath id="clip0_1692_14976">
<rect width="163" height="32" fill="white"/>
</clipPath>
</defs>
</svg>
