<svg width="16" height="16" viewBox="0 0 16 16" fill="none" xmlns="http://www.w3.org/2000/svg">
<path d="M15.595 4.01273C15.5277 3.76137 15.3987 3.5289 15.2188 3.33448C15.0388 3.14006 14.813 2.98927 14.56 2.89455C12.1114 1.99182 8.21429 2 8 2C7.78571 2 3.88857 1.99182 1.44 2.89455C1.18697 2.98927 0.961167 3.14006 0.781211 3.33448C0.601254 3.5289 0.472304 3.76137 0.405 4.01273C0.22 4.69318 0 5.93682 0 8C0 10.0632 0.22 11.3068 0.405 11.9873C0.472203 12.2388 0.601107 12.4714 0.78107 12.6659C0.961033 12.8605 1.18689 13.0113 1.44 13.1061C3.78571 13.97 7.45714 14 7.95286 14H8.04714C8.54286 14 12.2164 13.97 14.56 13.1061C14.8131 13.0113 15.039 12.8605 15.2189 12.6659C15.3989 12.4714 15.5278 12.2388 15.595 11.9873C15.78 11.3055 16 10.0632 16 8C16 5.93682 15.78 4.69318 15.595 4.01273ZM10.3279 8.44455L7.47071 10.3536C7.38525 10.4108 7.28502 10.4445 7.18089 10.4511C7.07677 10.4578 6.97274 10.4371 6.88007 10.3913C6.78741 10.3454 6.70965 10.2763 6.65525 10.1913C6.60084 10.1063 6.57185 10.0087 6.57143 9.90909V6.09091C6.57146 5.99113 6.60016 5.89327 6.65441 5.80797C6.70867 5.72268 6.78639 5.65323 6.87913 5.60718C6.97186 5.56113 7.07605 5.54024 7.18036 5.54679C7.28467 5.55333 7.3851 5.58707 7.47071 5.64432L10.3279 7.55341C10.403 7.60372 10.4644 7.67057 10.5067 7.74831C10.5491 7.82604 10.5712 7.91238 10.5712 8C10.5712 8.08762 10.5491 8.17396 10.5067 8.25169C10.4644 8.32943 10.403 8.39628 10.3279 8.44659V8.44455Z" fill="#71717A"/>
</svg>
