<svg width="20" height="20" viewBox="0 0 20 20" fill="none" xmlns="http://www.w3.org/2000/svg">
<g clip-path="url(#clip0_3448_2703)">
<path d="M14.7555 5.07812C14.569 4.75437 14.2615 4.51796 13.9007 4.4209C13.5399 4.32383 13.1554 4.37407 12.8316 4.56055C12.5079 4.74703 12.2715 5.05448 12.1744 5.41527C12.0773 5.77605 12.1276 6.16062 12.314 6.48438L10.4187 3.20312C10.2323 2.87969 9.92492 2.64357 9.56435 2.54673C9.20379 2.44988 8.81952 2.50024 8.49608 2.68672C8.17264 2.8732 7.93652 3.18053 7.83968 3.5411C7.74283 3.90166 7.79319 4.28594 7.97967 4.60938L7.53123 3.82812C7.34475 3.50469 7.03742 3.26857 6.67685 3.17173C6.31629 3.07488 5.93202 3.12524 5.60858 3.31172C5.28514 3.4982 5.04902 3.80553 4.95218 4.1661C4.85533 4.52666 4.90569 4.91094 5.09217 5.23438L5.35311 5.68516C4.96635 5.58921 4.55991 5.60914 4.18439 5.74246C3.80887 5.87579 3.48087 6.11662 3.2412 6.43497C3.00154 6.75333 2.86081 7.13515 2.83653 7.53289C2.81226 7.93063 2.90551 8.32673 3.10467 8.67188L3.33904 9.07812C3.00681 9.12028 2.69015 9.24393 2.41726 9.43806C2.14437 9.63219 1.92371 9.89079 1.77493 10.1908C1.62615 10.4909 1.55386 10.823 1.5645 11.1578C1.57514 11.4925 1.66838 11.8194 1.83592 12.1094L4.59139 16.875C5.27921 18.0649 6.33944 18.9954 7.60852 19.5229C8.8776 20.0505 10.285 20.1458 11.6136 19.7942C12.9423 19.4426 14.1183 18.6636 14.9603 17.5773C15.8023 16.4911 16.2634 15.1579 16.2726 13.7836C16.8297 12.9151 17.1368 11.91 17.1604 10.8785C17.1839 9.84702 16.923 8.82895 16.4062 7.93594L14.7555 5.07812ZM14.8492 15.0437C14.5919 15.9997 14.0572 16.8579 13.3125 17.5102C12.5678 18.1624 11.6465 18.5794 10.6651 18.7084C9.68357 18.8375 8.68585 18.6728 7.79786 18.2353C6.90987 17.7977 6.17143 17.1069 5.67576 16.25L2.92029 11.4844C2.869 11.3954 2.83572 11.2972 2.82237 11.1954C2.80902 11.0936 2.81585 10.9902 2.84247 10.891C2.86909 10.7918 2.91499 10.6989 2.97754 10.6175C3.04009 10.536 3.11806 10.4677 3.20701 10.4164C3.38666 10.3128 3.6001 10.2848 3.80038 10.3386C3.89955 10.3652 3.9925 10.4111 4.07394 10.4737C4.15537 10.5362 4.22368 10.6142 4.27498 10.7031L5.85936 13.4375C5.94224 13.5812 6.0788 13.6861 6.23902 13.7291C6.39923 13.7721 6.56996 13.7497 6.71365 13.6668C6.85735 13.5839 6.96223 13.4473 7.00523 13.2871C7.04823 13.1269 7.02583 12.9562 6.94295 12.8125L4.18904 8.04688C4.08544 7.86682 4.05761 7.65298 4.11168 7.4524C4.16574 7.25183 4.29727 7.08094 4.47733 6.97734C4.65738 6.87374 4.87122 6.84591 5.0718 6.89998C5.27237 6.95404 5.44326 7.08557 5.54686 7.26562L8.03201 11.5625C8.11489 11.7062 8.25146 11.8111 8.41167 11.8541C8.57188 11.8971 8.74262 11.8747 8.88631 11.7918C9.03 11.7089 9.13489 11.5723 9.17789 11.4121C9.22089 11.2519 9.19849 11.0812 9.11561 10.9375L7.08436 7.42188C6.98076 7.24213 6.9528 7.02859 7.00665 6.82823C7.06049 6.62788 7.19172 6.45712 7.37147 6.35352C7.55121 6.24992 7.76475 6.22196 7.96511 6.27581C8.16546 6.32965 8.33623 6.46088 8.43983 6.64062L11.2914 11.5625C11.3743 11.7062 11.5108 11.8111 11.671 11.8541C11.8313 11.8971 12.002 11.8747 12.1457 11.7918C12.2894 11.7089 12.3943 11.5723 12.4373 11.4121C12.4803 11.2519 12.4579 11.0812 12.375 10.9375L11.3906 9.23828C11.316 9.05813 11.3115 8.8566 11.378 8.67329C11.4444 8.48999 11.577 8.33814 11.7497 8.2476C11.9223 8.15705 12.1226 8.13434 12.3112 8.18394C12.4997 8.23353 12.6629 8.35184 12.7687 8.51562L14.3484 11.25C14.6789 11.8178 14.8934 12.4457 14.9794 13.097C15.0653 13.7484 15.0211 14.4104 14.8492 15.0445V15.0437ZM12.5172 1.875V0.625C12.5172 0.45924 12.583 0.300269 12.7002 0.183058C12.8174 0.065848 12.9764 0 13.1422 0C13.3079 0 13.4669 0.065848 13.5841 0.183058C13.7013 0.300269 13.7672 0.45924 13.7672 0.625V1.875C13.7672 2.04076 13.7013 2.19973 13.5841 2.31694C13.4669 2.43415 13.3079 2.5 13.1422 2.5C12.9764 2.5 12.8174 2.43415 12.7002 2.31694C12.583 2.19973 12.5172 2.04076 12.5172 1.875ZM15.1125 2.34375L15.7375 1.32031C15.7802 1.25014 15.8363 1.18907 15.9027 1.14058C15.969 1.0921 16.0442 1.05716 16.1241 1.03776C16.2039 1.01835 16.2868 1.01486 16.368 1.02748C16.4492 1.04011 16.5271 1.0686 16.5972 1.11133C16.6674 1.15406 16.7285 1.21019 16.777 1.27653C16.8255 1.34286 16.8604 1.41809 16.8798 1.49793C16.8992 1.57777 16.9027 1.66064 16.8901 1.74183C16.8775 1.82301 16.849 1.90092 16.8062 1.97109L16.1812 2.99531C16.1253 3.08685 16.0468 3.16246 15.9532 3.21486C15.8596 3.26727 15.7541 3.2947 15.6469 3.29453C15.5358 3.29471 15.4266 3.26527 15.3307 3.20923C15.2347 3.1532 15.1555 3.07261 15.101 2.97575C15.0466 2.8789 15.0189 2.76928 15.021 2.6582C15.023 2.54711 15.0546 2.43857 15.1125 2.34375ZM18.6281 4.97344L17.4523 5.35234C17.3902 5.37229 17.3254 5.38256 17.2601 5.38281C17.1109 5.38326 16.9664 5.33029 16.8529 5.2335C16.7393 5.1367 16.6641 5.00246 16.6409 4.85505C16.6177 4.70764 16.648 4.55678 16.7263 4.42977C16.8046 4.30275 16.9258 4.20794 17.068 4.1625L18.2445 3.78359C18.4023 3.73273 18.5738 3.74662 18.7214 3.82222C18.8689 3.89782 18.9804 4.02894 19.0312 4.18672C19.0821 4.3445 19.0682 4.51603 18.9926 4.66357C18.917 4.81111 18.7859 4.92257 18.6281 4.97344Z" fill="white"/>
</g>
<defs>
<clipPath id="clip0_3448_2703">
<rect width="20" height="20" fill="white"/>
</clipPath>
</defs>
</svg>
