<svg width="16" height="16" viewBox="0 0 16 16" fill="none" xmlns="http://www.w3.org/2000/svg">
<path d="M12.5003 4V10.5C12.5004 10.5989 12.4711 10.6957 12.4161 10.778C12.3612 10.8603 12.2831 10.9244 12.1917 10.9623C12.1003 11.0002 11.9997 11.0101 11.9026 10.9908C11.8056 10.9714 11.7165 10.9238 11.6465 10.8538L8.75028 7.95687L4.35403 12.3538C4.26021 12.4476 4.13296 12.5003 4.00028 12.5003C3.8676 12.5003 3.74035 12.4476 3.64653 12.3538C3.55271 12.2599 3.5 12.1327 3.5 12C3.5 11.8673 3.55271 11.7401 3.64653 11.6462L8.0434 7.25L5.14653 4.35375C5.07652 4.28382 5.02884 4.1947 5.00951 4.09765C4.99019 4.00061 5.00009 3.90002 5.03797 3.80861C5.07584 3.71719 5.13999 3.63908 5.22229 3.58414C5.30458 3.5292 5.40133 3.49992 5.50028 3.5H12.0003C12.1329 3.5 12.2601 3.55268 12.3538 3.64645C12.4476 3.74022 12.5003 3.86739 12.5003 4Z" fill="black"/>
</svg>
