<svg width="46" height="32" viewBox="0 0 46 32" fill="none" xmlns="http://www.w3.org/2000/svg">
<rect width="46" height="32" rx="16" fill="#CACCD2"/>
<path d="M18.7105 10.7105C18.3205 10.3205 17.6905 10.3205 17.3005 10.7105L12.7105 15.3005C12.3205 15.6905 12.3205 16.3205 12.7105 16.7105L17.3005 21.3005C17.6905 21.6905 18.3205 21.6905 18.7105 21.3005C19.1005 20.9105 19.1005 20.2805 18.7105 19.8905L14.8305 16.0005L18.7105 12.1205C19.1005 11.7305 19.0905 11.0905 18.7105 10.7105Z" fill="white"/>
<path d="M27.2896 10.7098C26.8996 11.0998 26.8996 11.7298 27.2896 12.1198L31.1696 15.9998L27.2896 19.8798C26.8996 20.2698 26.8996 20.8998 27.2896 21.2898C27.6796 21.6798 28.3096 21.6798 28.6996 21.2898L33.2896 16.6998C33.6796 16.3098 33.6796 15.6798 33.2896 15.2898L28.6996 10.6998C28.3196 10.3198 27.6796 10.3198 27.2896 10.7098Z" fill="white"/>
</svg>
