<svg width="320" height="506" viewBox="0 0 320 506" fill="none" xmlns="http://www.w3.org/2000/svg">
<rect width="320" height="506" fill="url(#paint0_linear)"/>
<g filter="url(#filter0_f)">
<path fill-rule="evenodd" clip-rule="evenodd" d="M270.588 53.7393C270.588 50.8929 268.28 48.5854 265.434 48.5854H54.8413C51.9949 48.5854 49.6875 50.8929 49.6875 53.7393V237.508C49.6875 240.354 51.9949 242.662 54.8413 242.662H265.434C268.28 242.662 270.588 240.354 270.588 237.508V53.7393Z" fill="url(#paint1_linear)" fill-opacity="0.48"/>
</g>
<path fill-rule="evenodd" clip-rule="evenodd" d="M36.2764 41.9048C36.2764 39.0584 38.5838 36.751 41.4302 36.751H278.846C281.693 36.751 284 39.0584 284 41.9048V233.563C284 236.409 281.693 238.717 278.846 238.717H41.4302C38.5838 238.717 36.2764 236.409 36.2764 233.563V41.9048Z" fill="url(#paint2_linear)"/>
<path d="M139.684 128.931L138.759 126.246H133.459L132.534 128.931H130.069L134.691 116.18H137.588L142.211 128.931H139.684ZM134.229 123.998H137.989L136.109 118.462L134.229 123.998Z" fill="white"/>
<path d="M147.635 129.098C146.238 129.098 145.097 128.629 144.214 127.689C143.351 126.727 142.92 125.463 142.92 123.898C142.92 122.332 143.351 121.079 144.214 120.14C145.097 119.178 146.238 118.697 147.635 118.697C148.682 118.697 149.576 118.965 150.316 119.502C151.076 120.039 151.59 120.777 151.857 121.717L149.73 122.421C149.566 121.884 149.299 121.47 148.929 121.18C148.559 120.867 148.117 120.71 147.604 120.71C146.864 120.71 146.279 121.001 145.847 121.582C145.416 122.142 145.2 122.913 145.2 123.898C145.2 124.882 145.416 125.665 145.847 126.246C146.279 126.806 146.864 127.085 147.604 127.085C148.117 127.085 148.559 126.94 148.929 126.649C149.299 126.336 149.576 125.911 149.761 125.374L151.857 126.079C151.59 127.018 151.076 127.756 150.316 128.293C149.576 128.83 148.682 129.098 147.635 129.098Z" fill="white"/>
<path d="M157.496 129.098C156.099 129.098 154.959 128.629 154.076 127.689C153.213 126.727 152.781 125.463 152.781 123.898C152.781 122.332 153.213 121.079 154.076 120.14C154.959 119.178 156.099 118.697 157.496 118.697C158.544 118.697 159.438 118.965 160.177 119.502C160.938 120.039 161.451 120.777 161.718 121.717L159.592 122.421C159.427 121.884 159.16 121.47 158.791 121.18C158.421 120.867 157.979 120.71 157.465 120.71C156.726 120.71 156.14 121.001 155.709 121.582C155.277 122.142 155.062 122.913 155.062 123.898C155.062 124.882 155.277 125.665 155.709 126.246C156.14 126.806 156.726 127.085 157.465 127.085C157.979 127.085 158.421 126.94 158.791 126.649C159.16 126.336 159.438 125.911 159.623 125.374L161.718 126.079C161.451 127.018 160.938 127.756 160.177 128.293C159.438 128.83 158.544 129.098 157.496 129.098Z" fill="white"/>
<path d="M164.862 124.669C164.964 125.43 165.242 126.023 165.694 126.448C166.146 126.873 166.731 127.085 167.45 127.085C168.56 127.085 169.433 126.682 170.07 125.877L171.457 127.32C170.512 128.506 169.176 129.098 167.45 129.098C165.909 129.098 164.718 128.617 163.875 127.656C163.054 126.694 162.643 125.441 162.643 123.898C162.643 122.354 163.064 121.101 163.906 120.14C164.769 119.178 165.899 118.697 167.296 118.697C168.673 118.697 169.772 119.178 170.594 120.14C171.416 121.079 171.826 122.332 171.826 123.898C171.826 124.188 171.796 124.446 171.734 124.669H164.862ZM167.296 120.643C166.659 120.643 166.125 120.844 165.694 121.247C165.283 121.627 165.016 122.175 164.892 122.891H169.577C169.453 122.175 169.186 121.627 168.775 121.247C168.385 120.844 167.892 120.643 167.296 120.643Z" fill="white"/>
<path d="M179.038 118.697C180.024 118.697 180.825 119.055 181.441 119.77C182.078 120.486 182.397 121.415 182.397 122.555V128.931H180.178V123.126C180.178 122.365 180.014 121.772 179.685 121.347C179.377 120.922 178.935 120.71 178.36 120.71C177.702 120.71 177.148 120.945 176.696 121.415C176.244 121.862 176.018 122.444 176.018 123.159V128.931H173.799V118.864H175.771L175.894 120.341C176.244 119.826 176.685 119.424 177.219 119.133C177.774 118.842 178.38 118.697 179.038 118.697Z" fill="white"/>
<path d="M187.79 120.878V125.642C187.79 126.09 187.893 126.414 188.098 126.615C188.304 126.794 188.612 126.884 189.023 126.884C189.577 126.884 190.07 126.828 190.502 126.716V128.863C189.927 129.042 189.269 129.132 188.53 129.132C187.584 129.132 186.855 128.886 186.341 128.394C185.828 127.879 185.571 127.141 185.571 126.179V120.878H183.722V118.864H185.571L185.818 116.18H187.79V118.864H190.502V120.878H187.79Z" fill="white"/>
<path d="M105.405 146.649H103.803V149.012H105.405V150.354H103.803V152.931H102.718V150.354H100.45V152.931H99.3651V150.354H97.7626V149.012H99.3651V146.649H97.7626V145.307H99.3651V142.73H100.45V145.307H102.718V142.73H103.803V145.307H105.405V146.649ZM102.718 149.012V146.649H100.45V149.012H102.718Z" fill="white"/>
<path d="M113.862 143.992H108.783V147.079H112.752V148.314H108.783V152.931H107.501V142.73H113.862V143.992Z" fill="white"/>
<path d="M121.948 143.992H116.87V147.079H120.839V148.314H116.87V152.931H115.587V142.73H121.948V143.992Z" fill="white"/>
<path d="M127.865 147.777C128.408 147.991 128.827 148.314 129.123 148.743C129.418 149.155 129.566 149.656 129.566 150.246C129.566 151.087 129.254 151.767 128.629 152.286C128.021 152.805 127.208 153.065 126.189 153.065C125.17 153.065 124.348 152.805 123.723 152.286C123.115 151.767 122.811 151.087 122.811 150.246C122.811 149.656 122.959 149.155 123.255 148.743C123.551 148.314 123.97 147.991 124.512 147.777C124.052 147.562 123.699 147.258 123.452 146.864C123.206 146.452 123.082 145.978 123.082 145.441C123.082 144.582 123.362 143.893 123.921 143.374C124.479 142.856 125.235 142.596 126.189 142.596C127.142 142.596 127.898 142.856 128.457 143.374C129.016 143.893 129.295 144.582 129.295 145.441C129.295 145.978 129.172 146.452 128.925 146.864C128.679 147.258 128.325 147.562 127.865 147.777ZM126.189 143.67C125.613 143.67 125.153 143.84 124.808 144.18C124.463 144.502 124.29 144.94 124.29 145.495C124.29 146.05 124.463 146.488 124.808 146.81C125.153 147.132 125.613 147.294 126.189 147.294C126.764 147.294 127.224 147.132 127.569 146.81C127.915 146.488 128.087 146.05 128.087 145.495C128.087 144.94 127.915 144.502 127.569 144.18C127.224 143.84 126.764 143.67 126.189 143.67ZM126.189 151.991C126.846 151.991 127.372 151.83 127.767 151.508C128.161 151.168 128.358 150.721 128.358 150.166C128.358 149.611 128.161 149.173 127.767 148.85C127.372 148.528 126.846 148.367 126.189 148.367C125.531 148.367 125.005 148.528 124.611 148.85C124.216 149.173 124.019 149.611 124.019 150.166C124.019 150.721 124.216 151.168 124.611 151.508C125.005 151.83 125.531 151.991 126.189 151.991Z" fill="white"/>
<path d="M134.349 146.676C135.138 146.676 135.787 146.962 136.297 147.535C136.823 148.09 137.086 148.806 137.086 149.683C137.086 150.649 136.757 151.454 136.1 152.098C135.459 152.743 134.653 153.065 133.684 153.065C132.895 153.065 132.204 152.877 131.613 152.501C131.021 152.125 130.585 151.597 130.306 150.917L131.267 150.273C131.728 151.347 132.5 151.884 133.585 151.884C134.292 151.884 134.842 151.687 135.237 151.293C135.631 150.899 135.828 150.363 135.828 149.683C135.828 149.074 135.664 148.591 135.335 148.233C135.007 147.857 134.579 147.669 134.053 147.669C133.626 147.669 133.264 147.777 132.969 147.991L132.303 147.24L135.163 143.965H130.7V142.73H136.815V143.697L134.177 146.676H134.349Z" fill="white"/>
<path d="M143.373 147.777C143.915 147.991 144.334 148.314 144.63 148.743C144.926 149.155 145.074 149.656 145.074 150.246C145.074 151.087 144.761 151.767 144.137 152.286C143.529 152.805 142.715 153.065 141.696 153.065C140.677 153.065 139.855 152.805 139.231 152.286C138.623 151.767 138.319 151.087 138.319 150.246C138.319 149.656 138.466 149.155 138.762 148.743C139.058 148.314 139.477 147.991 140.02 147.777C139.559 147.562 139.206 147.258 138.96 146.864C138.713 146.452 138.59 145.978 138.59 145.441C138.59 144.582 138.869 143.893 139.428 143.374C139.987 142.856 140.743 142.596 141.696 142.596C142.649 142.596 143.405 142.856 143.964 143.374C144.523 143.893 144.803 144.582 144.803 145.441C144.803 145.978 144.679 146.452 144.433 146.864C144.186 147.258 143.833 147.562 143.373 147.777ZM141.696 143.67C141.121 143.67 140.661 143.84 140.315 144.18C139.97 144.502 139.798 144.94 139.798 145.495C139.798 146.05 139.97 146.488 140.315 146.81C140.661 147.132 141.121 147.294 141.696 147.294C142.271 147.294 142.732 147.132 143.077 146.81C143.422 146.488 143.594 146.05 143.594 145.495C143.594 144.94 143.422 144.502 143.077 144.18C142.732 143.84 142.271 143.67 141.696 143.67ZM141.696 151.991C142.354 151.991 142.88 151.83 143.274 151.508C143.668 151.168 143.866 150.721 143.866 150.166C143.866 149.611 143.668 149.173 143.274 148.85C142.88 148.528 142.354 148.367 141.696 148.367C141.039 148.367 140.513 148.528 140.118 148.85C139.724 149.173 139.527 149.611 139.527 150.166C139.527 150.721 139.724 151.168 140.118 151.508C140.513 151.83 141.039 151.991 141.696 151.991Z" fill="white"/>
<path d="M149.857 146.676C150.646 146.676 151.295 146.962 151.804 147.535C152.33 148.09 152.593 148.806 152.593 149.683C152.593 150.649 152.264 151.454 151.607 152.098C150.966 152.743 150.161 153.065 149.191 153.065C148.402 153.065 147.712 152.877 147.12 152.501C146.528 152.125 146.093 151.597 145.813 150.917L146.775 150.273C147.235 151.347 148.008 151.884 149.092 151.884C149.799 151.884 150.35 151.687 150.744 151.293C151.139 150.899 151.336 150.363 151.336 149.683C151.336 149.074 151.171 148.591 150.843 148.233C150.514 147.857 150.087 147.669 149.561 147.669C149.133 147.669 148.772 147.777 148.476 147.991L147.81 147.24L150.67 143.965H146.208V142.73H152.322V143.697L149.684 146.676H149.857Z" fill="white"/>
<path d="M158.017 147.696H162.208V149.038H158.017V147.696Z" fill="white"/>
<path d="M175.275 146.649H173.672V149.012H175.275V150.354H173.672V152.931H172.588V150.354H170.319V152.931H169.235V150.354H167.632V149.012H169.235V146.649H167.632V145.307H169.235V142.73H170.319V145.307H172.588V142.73H173.672V145.307H175.275V146.649ZM172.588 149.012V146.649H170.319V149.012H172.588Z" fill="white"/>
<path d="M183.731 143.992H178.652V147.079H182.622V148.314H178.652V152.931H177.37V142.73H183.731V143.992Z" fill="white"/>
<path d="M191.818 143.992H186.739V147.079H190.708V148.314H186.739V152.931H185.457V142.73H191.818V143.992Z" fill="white"/>
<path d="M196.625 146.435C197.529 146.435 198.277 146.73 198.869 147.32C199.477 147.893 199.781 148.671 199.781 149.656C199.781 150.3 199.625 150.882 199.313 151.401C199.017 151.919 198.606 152.331 198.08 152.635C197.57 152.922 197.02 153.065 196.428 153.065C195.212 153.065 194.3 152.582 193.691 151.615C193.1 150.631 192.804 149.414 192.804 147.965C192.804 146.444 193.116 145.173 193.741 144.153C194.382 143.115 195.351 142.596 196.65 142.596C197.225 142.596 197.768 142.721 198.277 142.972C198.787 143.204 199.206 143.553 199.534 144.019L198.696 144.878C198.203 144.126 197.521 143.75 196.65 143.75C195.68 143.75 194.982 144.153 194.554 144.958C194.127 145.746 193.922 146.703 193.938 147.83V147.991C194.201 147.49 194.571 147.106 195.047 146.837C195.524 146.569 196.05 146.435 196.625 146.435ZM196.428 151.911C197.02 151.911 197.529 151.714 197.957 151.32C198.384 150.908 198.598 150.38 198.598 149.736C198.598 149.074 198.4 148.546 198.006 148.153C197.611 147.759 197.11 147.562 196.502 147.562C195.894 147.562 195.376 147.759 194.949 148.153C194.538 148.546 194.332 149.056 194.332 149.683C194.332 150.345 194.521 150.882 194.899 151.293C195.294 151.705 195.803 151.911 196.428 151.911Z" fill="white"/>
<path d="M207.868 149.173V150.327H206.314V152.931H205.082V150.327H200.471V149.28L204.835 142.73H206.314V149.173H207.868ZM201.778 149.173H205.082V144.207L201.778 149.173Z" fill="white"/>
<path d="M212.552 146.435C213.456 146.435 214.204 146.73 214.795 147.32C215.403 147.893 215.708 148.671 215.708 149.656C215.708 150.3 215.551 150.882 215.239 151.401C214.943 151.919 214.532 152.331 214.006 152.635C213.497 152.922 212.946 153.065 212.355 153.065C211.138 153.065 210.226 152.582 209.618 151.615C209.026 150.631 208.73 149.414 208.73 147.965C208.73 146.444 209.043 145.173 209.667 144.153C210.308 143.115 211.278 142.596 212.576 142.596C213.152 142.596 213.694 142.721 214.204 142.972C214.713 143.204 215.132 143.553 215.461 144.019L214.623 144.878C214.13 144.126 213.448 143.75 212.576 143.75C211.607 143.75 210.908 144.153 210.481 144.958C210.054 145.746 209.848 146.703 209.864 147.83V147.991C210.127 147.49 210.497 147.106 210.974 146.837C211.451 146.569 211.977 146.435 212.552 146.435ZM212.355 151.911C212.946 151.911 213.456 151.714 213.883 151.32C214.31 150.908 214.524 150.38 214.524 149.736C214.524 149.074 214.327 148.546 213.932 148.153C213.538 147.759 213.037 147.562 212.429 147.562C211.82 147.562 211.303 147.759 210.875 148.153C210.464 148.546 210.259 149.056 210.259 149.683C210.259 150.345 210.448 150.882 210.826 151.293C211.22 151.705 211.73 151.911 212.355 151.911Z" fill="white"/>
<path d="M223.794 149.173V150.327H222.241V152.931H221.008V150.327H216.398V149.28L220.762 142.73H222.241V149.173H223.794ZM217.704 149.173H221.008V144.207L217.704 149.173Z" fill="white"/>
<path fill-rule="evenodd" clip-rule="evenodd" d="M36.2764 274.274C36.2764 271.428 38.5838 269.12 41.4302 269.12H278.846C281.693 269.12 284 271.428 284 274.274V349.171C284 352.017 281.693 354.324 278.846 354.324H41.4302C38.5838 354.324 36.2764 352.017 36.2764 349.171V274.274Z" fill="#231633"/>
<path d="M130.746 294.421C132.102 294.421 133.16 294.779 133.92 295.495C134.701 296.211 135.091 297.195 135.091 298.447C135.091 299.7 134.701 300.684 133.92 301.4C133.16 302.116 132.102 302.474 130.746 302.474H128.157V307.171H125.784V294.421H130.746ZM130.468 300.394C131.948 300.394 132.687 299.767 132.687 298.515C132.687 297.24 131.948 296.602 130.468 296.602H128.157V300.394H130.468Z" fill="white"/>
<path d="M142.21 296.971C142.395 296.971 142.652 296.993 142.98 297.038L142.949 299.32C142.497 299.253 142.046 299.219 141.594 299.219C140.874 299.219 140.289 299.432 139.837 299.857C139.405 300.282 139.19 300.875 139.19 301.635V307.171H136.971V297.105H138.943L139.066 298.682C139.416 298.145 139.857 297.732 140.392 297.441C140.926 297.128 141.532 296.971 142.21 296.971Z" fill="white"/>
<path d="M144.799 297.105H147.017V307.171H144.799V297.105ZM144.706 293.616H147.11V295.763H144.706V293.616Z" fill="white"/>
<path d="M161.101 296.938C162.067 296.938 162.847 297.295 163.443 298.011C164.039 298.705 164.337 299.633 164.337 300.796V307.171H162.118V301.367C162.118 300.584 161.974 299.991 161.687 299.588C161.399 299.163 160.978 298.951 160.423 298.951C159.766 298.951 159.231 299.186 158.821 299.655C158.41 300.103 158.204 300.684 158.204 301.4V307.171H155.985V301.367C155.985 300.584 155.841 299.991 155.554 299.588C155.266 299.163 154.845 298.951 154.29 298.951C153.633 298.951 153.099 299.186 152.688 299.655C152.277 300.103 152.071 300.684 152.071 301.4V307.171H149.853V297.105H151.825L151.948 298.515C152.277 298.022 152.698 297.642 153.212 297.374C153.746 297.083 154.342 296.938 154.999 296.938C155.657 296.938 156.232 297.105 156.725 297.441C157.218 297.776 157.588 298.246 157.834 298.85C158.163 298.246 158.605 297.776 159.16 297.441C159.735 297.105 160.382 296.938 161.101 296.938Z" fill="white"/>
<path d="M175.061 305.091V307.171C174.856 307.216 174.589 307.239 174.26 307.239C173.685 307.239 173.243 307.115 172.935 306.869C172.647 306.623 172.462 306.232 172.38 305.695C172.031 306.21 171.569 306.612 170.993 306.903C170.439 307.194 169.822 307.339 169.144 307.339C168.24 307.339 167.511 307.071 166.956 306.534C166.402 305.997 166.124 305.281 166.124 304.386C166.124 303.246 166.494 302.452 167.234 302.004C167.973 301.557 168.929 301.255 170.1 301.098C170.798 301.009 171.302 300.897 171.61 300.763C171.918 300.628 172.072 300.405 172.072 300.092C172.072 299.734 171.908 299.454 171.579 299.253C171.271 299.029 170.839 298.917 170.285 298.917C169.298 298.917 168.425 299.331 167.665 300.159L166.34 298.649C167.449 297.508 168.805 296.938 170.408 296.938C171.579 296.938 172.493 297.24 173.151 297.843C173.808 298.425 174.137 299.242 174.137 300.293V304.487C174.137 304.89 174.322 305.091 174.692 305.091H175.061ZM169.607 305.427C170.264 305.427 170.829 305.214 171.302 304.789C171.774 304.364 172.01 303.861 172.01 303.279V302.239C171.743 302.396 171.189 302.552 170.346 302.709C169.648 302.843 169.124 303 168.775 303.179C168.446 303.357 168.281 303.693 168.281 304.185C168.281 304.565 168.394 304.867 168.62 305.091C168.867 305.315 169.196 305.427 169.607 305.427Z" fill="white"/>
<path d="M182.211 296.971C182.396 296.971 182.653 296.993 182.981 297.038L182.951 299.32C182.499 299.253 182.047 299.219 181.595 299.219C180.876 299.219 180.29 299.432 179.838 299.857C179.407 300.282 179.191 300.875 179.191 301.635V307.171H176.972V297.105H178.944L179.068 298.682C179.417 298.145 179.859 297.732 180.393 297.441C180.927 297.128 181.533 296.971 182.211 296.971Z" fill="white"/>
<path d="M193.521 297.105L190.224 307.306C189.505 309.565 188.354 310.695 186.772 310.695C185.786 310.695 185.057 310.393 184.584 309.789C184.132 309.207 183.885 308.48 183.844 307.608L185.878 307.205C185.899 307.652 185.981 307.988 186.125 308.212C186.269 308.458 186.505 308.581 186.834 308.581C187.203 308.581 187.542 308.301 187.851 307.742L183.536 297.105H185.971L188.929 305.058L191.21 297.105H193.521Z" fill="white"/>
<path d="M140.968 324.89H139.365V327.252H140.968V328.594H139.365V331.171H138.281V328.594H136.012V331.171H134.928V328.594H133.325V327.252H134.928V324.89H133.325V323.548H134.928V320.971H136.012V323.548H138.281V320.971H139.365V323.548H140.968V324.89ZM138.281 327.252V324.89H136.012V327.252H138.281Z" fill="white"/>
<path d="M148.512 329.91V331.171H141.954V330.312L145.184 327.091C145.825 326.447 146.285 325.874 146.564 325.373C146.86 324.872 147.008 324.371 147.008 323.87C147.008 323.315 146.844 322.868 146.515 322.528C146.203 322.188 145.784 322.018 145.258 322.018C144.633 322.018 144.132 322.224 143.754 322.635C143.392 323.029 143.187 323.602 143.137 324.353L141.979 324.085C142.061 323.083 142.398 322.295 142.99 321.723C143.598 321.132 144.37 320.837 145.307 320.837C146.178 320.837 146.885 321.114 147.427 321.669C147.986 322.206 148.266 322.913 148.266 323.79C148.266 324.434 148.068 325.087 147.674 325.749C147.279 326.393 146.638 327.145 145.751 328.004L143.803 329.91H148.512Z" fill="white"/>
<path d="M153.172 324.917C153.961 324.917 154.61 325.203 155.119 325.776C155.645 326.331 155.908 327.047 155.908 327.923C155.908 328.89 155.58 329.695 154.922 330.339C154.281 330.984 153.476 331.306 152.506 331.306C151.717 331.306 151.027 331.118 150.435 330.742C149.843 330.366 149.408 329.838 149.128 329.158L150.09 328.514C150.55 329.588 151.323 330.125 152.407 330.125C153.114 330.125 153.665 329.928 154.059 329.534C154.454 329.14 154.651 328.603 154.651 327.923C154.651 327.315 154.487 326.832 154.158 326.474C153.829 326.098 153.402 325.91 152.876 325.91C152.448 325.91 152.087 326.018 151.791 326.232L151.125 325.481L153.985 322.206H149.523V320.971H155.637V321.937L152.999 324.917H153.172Z" fill="white"/>
<path d="M156.894 323.736V322.689H157.264C158.086 322.689 158.645 322.573 158.941 322.34C159.237 322.107 159.417 321.651 159.483 320.971H160.346V331.171H159.113V323.736H156.894Z" fill="white"/>
<path d="M166.633 324.675C167.537 324.675 168.285 324.971 168.876 325.561C169.484 326.134 169.788 326.912 169.788 327.897C169.788 328.541 169.632 329.122 169.32 329.641C169.024 330.16 168.613 330.572 168.087 330.876C167.578 331.162 167.027 331.306 166.436 331.306C165.219 331.306 164.307 330.822 163.699 329.856C163.107 328.872 162.811 327.655 162.811 326.205C162.811 324.684 163.124 323.414 163.748 322.394C164.389 321.356 165.359 320.837 166.657 320.837C167.233 320.837 167.775 320.962 168.285 321.213C168.794 321.445 169.213 321.794 169.542 322.26L168.704 323.119C168.211 322.367 167.529 321.991 166.657 321.991C165.688 321.991 164.989 322.394 164.562 323.199C164.134 323.986 163.929 324.944 163.945 326.071V326.232C164.208 325.731 164.578 325.346 165.055 325.078C165.532 324.81 166.057 324.675 166.633 324.675ZM166.436 330.151C167.027 330.151 167.537 329.955 167.964 329.561C168.391 329.149 168.605 328.621 168.605 327.977C168.605 327.315 168.408 326.787 168.013 326.393C167.619 326 167.118 325.803 166.509 325.803C165.901 325.803 165.384 326 164.956 326.393C164.545 326.787 164.34 327.297 164.34 327.923C164.34 328.586 164.529 329.122 164.907 329.534C165.301 329.946 165.811 330.151 166.436 330.151Z" fill="white"/>
<path d="M174.275 324.917C175.064 324.917 175.714 325.203 176.223 325.776C176.749 326.331 177.012 327.047 177.012 327.923C177.012 328.89 176.683 329.695 176.026 330.339C175.385 330.984 174.58 331.306 173.61 331.306C172.821 331.306 172.131 331.118 171.539 330.742C170.947 330.366 170.512 329.838 170.232 329.158L171.194 328.514C171.654 329.588 172.426 330.125 173.511 330.125C174.218 330.125 174.769 329.928 175.163 329.534C175.558 329.14 175.755 328.603 175.755 327.923C175.755 327.315 175.59 326.832 175.262 326.474C174.933 326.098 174.506 325.91 173.98 325.91C173.552 325.91 173.191 326.018 172.895 326.232L172.229 325.481L175.089 322.206H170.627V320.971H176.741V321.937L174.103 324.917H174.275Z" fill="white"/>
<path d="M181.795 324.917C182.584 324.917 183.233 325.203 183.743 325.776C184.269 326.331 184.532 327.047 184.532 327.923C184.532 328.89 184.203 329.695 183.545 330.339C182.904 330.984 182.099 331.306 181.129 331.306C180.34 331.306 179.65 331.118 179.058 330.742C178.467 330.366 178.031 329.838 177.752 329.158L178.713 328.514C179.173 329.588 179.946 330.125 181.031 330.125C181.737 330.125 182.288 329.928 182.683 329.534C183.077 329.14 183.274 328.603 183.274 327.923C183.274 327.315 183.11 326.832 182.781 326.474C182.452 326.098 182.025 325.91 181.499 325.91C181.072 325.91 180.71 326.018 180.414 326.232L179.749 325.481L182.609 322.206H178.146V320.971H184.26V321.937L181.622 324.917H181.795Z" fill="white"/>
<g filter="url(#filter1_i)">
<path fill-rule="evenodd" clip-rule="evenodd" d="M36.2764 389.199C36.2764 386.352 38.5838 384.045 41.4302 384.045H278.846C281.693 384.045 284 386.352 284 389.199V464.095C284 466.942 281.693 469.249 278.846 469.249H41.4302C38.5838 469.249 36.2764 466.942 36.2764 464.095V389.199Z" fill="#F6F9FF"/>
</g>
<path fill-rule="evenodd" clip-rule="evenodd" d="M36.2764 389.199C36.2764 386.352 38.5838 384.045 41.4302 384.045H278.846C281.693 384.045 284 386.352 284 389.199V464.095C284 466.942 281.693 469.249 278.846 469.249H41.4302C38.5838 469.249 36.2764 466.942 36.2764 464.095V389.199Z" stroke="url(#paint3_linear)" stroke-opacity="0.5" stroke-width="1.28846"/>
<path d="M118.704 422.264C117.759 422.264 116.855 422.107 115.992 421.794C115.129 421.458 114.389 421 113.773 420.418L115.098 418.472C116.105 419.523 117.338 420.049 118.796 420.049C119.515 420.049 120.07 419.926 120.46 419.68C120.871 419.411 121.077 419.042 121.077 418.573C121.077 418.17 120.902 417.868 120.553 417.667C120.224 417.465 119.587 417.219 118.642 416.929C117.718 416.638 116.958 416.358 116.362 416.09C115.786 415.799 115.283 415.396 114.852 414.882C114.441 414.367 114.235 413.707 114.235 412.902C114.235 411.739 114.646 410.833 115.468 410.184C116.29 409.513 117.41 409.178 118.827 409.178C120.471 409.178 121.929 409.692 123.203 410.721L121.909 412.634C121.005 411.828 119.937 411.426 118.704 411.426C118.067 411.426 117.553 411.549 117.163 411.795C116.773 412.041 116.577 412.365 116.577 412.768C116.577 413.171 116.773 413.495 117.163 413.741C117.574 413.987 118.242 414.244 119.166 414.513C120.543 414.915 121.601 415.385 122.34 415.922C123.101 416.459 123.481 417.275 123.481 418.371C123.481 419.602 123.059 420.564 122.217 421.257C121.375 421.928 120.204 422.264 118.704 422.264Z" fill="#222236" fill-opacity="0.3"/>
<path d="M126.932 417.834C127.035 418.595 127.312 419.188 127.764 419.613C128.216 420.038 128.802 420.25 129.521 420.25C130.63 420.25 131.503 419.848 132.14 419.042L133.527 420.485C132.582 421.671 131.247 422.264 129.521 422.264C127.98 422.264 126.788 421.783 125.946 420.821C125.124 419.859 124.713 418.606 124.713 417.063C124.713 415.519 125.134 414.267 125.977 413.305C126.84 412.343 127.97 411.862 129.367 411.862C130.743 411.862 131.842 412.343 132.664 413.305C133.486 414.244 133.897 415.497 133.897 417.063C133.897 417.354 133.866 417.611 133.804 417.834H126.932ZM129.367 413.808C128.73 413.808 128.196 414.009 127.764 414.412C127.353 414.792 127.086 415.34 126.963 416.056H131.647C131.524 415.34 131.257 414.792 130.846 414.412C130.456 414.009 129.963 413.808 129.367 413.808Z" fill="#222236" fill-opacity="0.3"/>
<path d="M139.937 422.264C138.54 422.264 137.4 421.794 136.516 420.854C135.654 419.892 135.222 418.629 135.222 417.063C135.222 415.497 135.654 414.244 136.516 413.305C137.4 412.343 138.54 411.862 139.937 411.862C140.985 411.862 141.879 412.13 142.618 412.667C143.378 413.204 143.892 413.942 144.159 414.882L142.033 415.586C141.868 415.05 141.601 414.636 141.231 414.345C140.862 414.032 140.42 413.875 139.906 413.875C139.167 413.875 138.581 414.166 138.15 414.748C137.718 415.307 137.503 416.078 137.503 417.063C137.503 418.047 137.718 418.83 138.15 419.411C138.581 419.971 139.167 420.25 139.906 420.25C140.42 420.25 140.862 420.105 141.231 419.814C141.601 419.501 141.879 419.076 142.064 418.539L144.159 419.244C143.892 420.183 143.378 420.921 142.618 421.458C141.879 421.995 140.985 422.264 139.937 422.264Z" fill="#222236" fill-opacity="0.3"/>
<path d="M149.86 422.264C148.422 422.264 147.261 421.794 146.378 420.854C145.515 419.892 145.084 418.629 145.084 417.063C145.084 415.497 145.525 414.244 146.409 413.305C147.292 412.343 148.443 411.862 149.86 411.862C151.319 411.862 152.48 412.332 153.343 413.271C154.206 414.211 154.637 415.475 154.637 417.063C154.637 418.629 154.195 419.892 153.312 420.854C152.429 421.794 151.278 422.264 149.86 422.264ZM149.86 420.25C150.641 420.25 151.247 419.971 151.679 419.411C152.131 418.83 152.357 418.047 152.357 417.063C152.357 416.078 152.131 415.307 151.679 414.748C151.247 414.166 150.641 413.875 149.86 413.875C149.08 413.875 148.463 414.166 148.011 414.748C147.58 415.307 147.364 416.078 147.364 417.063C147.364 418.047 147.58 418.83 148.011 419.411C148.463 419.971 149.08 420.25 149.86 420.25Z" fill="#222236" fill-opacity="0.3"/>
<path d="M161.879 411.862C162.865 411.862 163.667 412.22 164.283 412.936C164.92 413.651 165.238 414.58 165.238 415.721V422.096H163.019V416.291C163.019 415.53 162.855 414.938 162.526 414.513C162.218 414.088 161.776 413.875 161.201 413.875C160.544 413.875 159.989 414.11 159.537 414.58C159.085 415.027 158.859 415.609 158.859 416.325V422.096H156.64V412.03H158.613L158.736 413.506C159.085 412.992 159.527 412.589 160.061 412.298C160.616 412.007 161.222 411.862 161.879 411.862Z" fill="#222236" fill-opacity="0.3"/>
<path d="M176.24 408.674V422.096H174.268L174.145 420.586C173.795 421.123 173.354 421.537 172.819 421.827C172.285 422.118 171.7 422.264 171.063 422.264C169.851 422.264 168.885 421.794 168.166 420.854C167.447 419.892 167.087 418.629 167.087 417.063C167.087 415.519 167.457 414.267 168.197 413.305C168.936 412.343 169.892 411.862 171.063 411.862C172.316 411.862 173.302 412.343 174.021 413.305V408.674H176.24ZM171.741 420.25C172.48 420.25 173.056 419.971 173.467 419.411C173.898 418.83 174.114 418.047 174.114 417.063C174.114 416.078 173.898 415.307 173.467 414.748C173.056 414.166 172.48 413.875 171.741 413.875C171.001 413.875 170.416 414.166 169.984 414.748C169.553 415.307 169.337 416.078 169.337 417.063C169.337 418.047 169.553 418.83 169.984 419.411C170.416 419.971 171.001 420.25 171.741 420.25Z" fill="#222236" fill-opacity="0.3"/>
<path d="M187.088 420.015V422.096C186.883 422.141 186.615 422.163 186.287 422.163C185.711 422.163 185.27 422.04 184.962 421.794C184.674 421.548 184.489 421.156 184.407 420.619C184.058 421.134 183.595 421.537 183.02 421.827C182.465 422.118 181.849 422.264 181.171 422.264C180.267 422.264 179.538 421.995 178.983 421.458C178.428 420.921 178.151 420.206 178.151 419.311C178.151 418.17 178.521 417.376 179.26 416.929C180 416.481 180.955 416.179 182.126 416.023C182.825 415.933 183.328 415.821 183.636 415.687C183.945 415.553 184.099 415.329 184.099 415.016C184.099 414.658 183.934 414.378 183.606 414.177C183.297 413.953 182.866 413.842 182.311 413.842C181.325 413.842 180.452 414.255 179.692 415.083L178.367 413.573C179.476 412.432 180.832 411.862 182.435 411.862C183.606 411.862 184.52 412.164 185.177 412.768C185.835 413.349 186.163 414.166 186.163 415.217V419.411C186.163 419.814 186.348 420.015 186.718 420.015H187.088ZM181.633 420.351C182.291 420.351 182.856 420.138 183.328 419.713C183.801 419.288 184.037 418.785 184.037 418.204V417.163C183.77 417.32 183.215 417.477 182.373 417.633C181.674 417.767 181.15 417.924 180.801 418.103C180.472 418.282 180.308 418.617 180.308 419.11C180.308 419.49 180.421 419.792 180.647 420.015C180.894 420.239 181.222 420.351 181.633 420.351Z" fill="#222236" fill-opacity="0.3"/>
<path d="M194.238 411.895C194.423 411.895 194.679 411.918 195.008 411.963L194.977 414.244C194.525 414.177 194.073 414.144 193.621 414.144C192.902 414.144 192.317 414.356 191.865 414.781C191.433 415.206 191.218 415.799 191.218 416.559V422.096H188.999V412.03H190.971L191.094 413.607C191.443 413.07 191.885 412.656 192.419 412.365C192.954 412.052 193.56 411.895 194.238 411.895Z" fill="#222236" fill-opacity="0.3"/>
<path d="M205.548 412.03L202.25 422.23C201.531 424.489 200.381 425.619 198.799 425.619C197.812 425.619 197.083 425.317 196.611 424.713C196.159 424.131 195.912 423.404 195.871 422.532L197.905 422.129C197.925 422.577 198.008 422.912 198.151 423.136C198.295 423.382 198.532 423.505 198.86 423.505C199.23 423.505 199.569 423.225 199.877 422.666L195.563 412.03H197.997L200.956 419.982L203.236 412.03H205.548Z" fill="#222236" fill-opacity="0.3"/>
<path d="M139.133 439.815H137.53V442.177H139.133V443.519H137.53V446.096H136.446V443.519H134.177V446.096H133.093V443.519H131.49V442.177H133.093V439.815H131.49V438.472H133.093V435.895H134.177V438.472H136.446V435.895H137.53V438.472H139.133V439.815ZM136.446 442.177V439.815H134.177V442.177H136.446Z" fill="#222236" fill-opacity="0.3"/>
<path d="M147.589 437.157H142.51V440.244H146.48V441.479H142.51V446.096H141.228V435.895H147.589V437.157Z" fill="#222236" fill-opacity="0.3"/>
<path d="M152.397 439.6C153.301 439.6 154.048 439.895 154.64 440.486C155.248 441.058 155.552 441.837 155.552 442.821C155.552 443.465 155.396 444.047 155.084 444.566C154.788 445.085 154.377 445.496 153.851 445.801C153.342 446.087 152.791 446.23 152.199 446.23C150.983 446.23 150.071 445.747 149.463 444.78C148.871 443.796 148.575 442.579 148.575 441.13C148.575 439.609 148.888 438.338 149.512 437.318C150.153 436.28 151.123 435.761 152.421 435.761C152.997 435.761 153.539 435.887 154.048 436.137C154.558 436.37 154.977 436.719 155.306 437.184L154.468 438.043C153.975 437.291 153.292 436.916 152.421 436.916C151.452 436.916 150.753 437.318 150.326 438.123C149.898 438.911 149.693 439.868 149.709 440.996V441.157C149.972 440.656 150.342 440.271 150.819 440.002C151.295 439.734 151.821 439.6 152.397 439.6ZM152.199 445.076C152.791 445.076 153.301 444.879 153.728 444.485C154.155 444.074 154.369 443.546 154.369 442.901C154.369 442.239 154.172 441.711 153.777 441.318C153.383 440.924 152.882 440.727 152.273 440.727C151.665 440.727 151.148 440.924 150.72 441.318C150.309 441.711 150.104 442.221 150.104 442.848C150.104 443.51 150.293 444.047 150.671 444.458C151.065 444.87 151.575 445.076 152.199 445.076Z" fill="#222236" fill-opacity="0.3"/>
<path d="M163.713 437.157H158.634V440.244H162.603V441.479H158.634V446.096H157.352V435.895H163.713V437.157Z" fill="#222236" fill-opacity="0.3"/>
<path d="M167.633 435.761C168.849 435.761 169.753 436.253 170.345 437.238C170.953 438.204 171.257 439.412 171.257 440.861C171.257 442.383 170.936 443.662 170.295 444.7C169.671 445.72 168.709 446.23 167.411 446.23C166.836 446.23 166.293 446.114 165.784 445.881C165.274 445.631 164.855 445.273 164.526 444.807L165.365 443.948C165.858 444.7 166.54 445.076 167.411 445.076C168.381 445.076 169.079 444.682 169.507 443.895C169.934 443.089 170.139 442.123 170.123 440.996V440.835C169.86 441.336 169.49 441.72 169.013 441.989C168.537 442.257 168.011 442.391 167.436 442.391C166.532 442.391 165.776 442.105 165.167 441.532C164.576 440.942 164.28 440.155 164.28 439.17C164.28 438.526 164.428 437.944 164.724 437.426C165.036 436.907 165.447 436.504 165.956 436.218C166.482 435.913 167.041 435.761 167.633 435.761ZM167.559 441.264C168.167 441.264 168.677 441.067 169.087 440.674C169.515 440.28 169.728 439.77 169.728 439.143C169.728 438.481 169.531 437.944 169.137 437.533C168.759 437.121 168.257 436.916 167.633 436.916C167.041 436.916 166.532 437.121 166.104 437.533C165.677 437.927 165.463 438.446 165.463 439.09C165.463 439.752 165.661 440.28 166.055 440.674C166.449 441.067 166.951 441.264 167.559 441.264Z" fill="#222236" fill-opacity="0.3"/>
<path d="M179.837 437.157H174.758V440.244H178.727V441.479H174.758V446.096H173.476V435.895H179.837V437.157Z" fill="#222236" fill-opacity="0.3"/>
<path d="M187.923 437.157H182.844V440.244H186.814V441.479H182.844V446.096H181.562V435.895H187.923V437.157Z" fill="#222236" fill-opacity="0.3"/>
<defs>
<filter id="filter0_f" x="13.6106" y="12.5085" width="293.054" height="266.231" filterUnits="userSpaceOnUse" color-interpolation-filters="sRGB">
<feFlood flood-opacity="0" result="BackgroundImageFix"/>
<feBlend mode="normal" in="SourceGraphic" in2="BackgroundImageFix" result="shape"/>
<feGaussianBlur stdDeviation="18.0385" result="effect1_foregroundBlur"/>
</filter>
<filter id="filter1_i" x="35.6321" y="383.401" width="249.871" height="86.4927" filterUnits="userSpaceOnUse" color-interpolation-filters="sRGB">
<feFlood flood-opacity="0" result="BackgroundImageFix"/>
<feBlend mode="normal" in="SourceGraphic" in2="BackgroundImageFix" result="shape"/>
<feColorMatrix in="SourceAlpha" type="matrix" values="0 0 0 0 0 0 0 0 0 0 0 0 0 0 0 0 0 0 127 0" result="hardAlpha"/>
<feOffset dx="0.858974"/>
<feGaussianBlur stdDeviation="14.1731"/>
<feComposite in2="hardAlpha" operator="arithmetic" k2="-1" k3="1"/>
<feColorMatrix type="matrix" values="0 0 0 0 0.137255 0 0 0 0 0.0862745 0 0 0 0 0.2 0 0 0 0.06 0"/>
<feBlend mode="normal" in2="shape" result="effect1_innerShadow"/>
</filter>
<linearGradient id="paint0_linear" x1="3.48717" y1="9.13617" x2="379.721" y2="59.4536" gradientUnits="userSpaceOnUse">
<stop stop-color="white"/>
<stop offset="0.564808" stop-color="#F6F9FF"/>
</linearGradient>
<linearGradient id="paint1_linear" x1="270.588" y1="109.234" x2="46.6933" y2="118.206" gradientUnits="userSpaceOnUse">
<stop stop-color="#FF8383"/>
<stop offset="1" stop-color="#FF6464"/>
</linearGradient>
<linearGradient id="paint2_linear" x1="36.2764" y1="99.8653" x2="287.293" y2="110.704" gradientUnits="userSpaceOnUse">
<stop stop-color="#FF8383"/>
<stop offset="1" stop-color="#FF6464"/>
</linearGradient>
<linearGradient id="paint3_linear" x1="160.138" y1="384.045" x2="160.138" y2="469.249" gradientUnits="userSpaceOnUse">
<stop stop-color="#C3C5CF" stop-opacity="0.2"/>
<stop offset="1" stop-color="#C3C5CF" stop-opacity="0.08"/>
</linearGradient>
</defs>
</svg>
