<svg width="360" height="360" viewBox="0 0 360 360" fill="none" xmlns="http://www.w3.org/2000/svg">
<rect x="99" y="297" width="63" height="63" rx="6" fill="url(#paint0_linear)"/>
<path d="M139.767 327.092H121.208C119.744 327.092 118.557 328.274 118.557 329.733V338.977C118.557 340.436 119.744 341.619 121.208 341.619H139.767C141.231 341.619 142.418 340.436 142.418 338.977V329.733C142.418 328.274 141.231 327.092 139.767 327.092Z" stroke="#231633" stroke-width="2.57766" stroke-linecap="round" stroke-linejoin="round"/>
<path d="M123.861 327.092V321.809C123.861 320.058 124.56 318.378 125.803 317.14C127.046 315.902 128.732 315.206 130.49 315.206C132.248 315.206 133.933 315.902 135.177 317.14C136.42 318.378 137.118 320.058 137.118 321.809V327.092" stroke="#231633" stroke-width="2.57766" stroke-linecap="round" stroke-linejoin="round"/>
<rect y="297" width="63" height="63" rx="6" fill="url(#paint1_linear)"/>
<path d="M19.582 328.098H43.4438" stroke="#231633" stroke-width="2.57766" stroke-linecap="round" stroke-linejoin="round"/>
<path d="M19.582 320.173H43.4438" stroke="#231633" stroke-width="2.57766" stroke-linecap="round" stroke-linejoin="round"/>
<path d="M19.582 336.021H43.4438" stroke="#231633" stroke-width="2.57766" stroke-linecap="round" stroke-linejoin="round"/>
<rect y="99" width="63" height="63" rx="6" fill="url(#paint2_linear)"/>
<path d="M42.1187 122.426L27.5365 136.953L20.9082 130.35" stroke="#231633" stroke-width="2.57766" stroke-linecap="round" stroke-linejoin="round"/>
<rect x="198" y="99" width="63" height="63" rx="6" fill="url(#paint3_linear)"/>
<path d="M225.536 129.029L229.513 132.991L242.77 119.785" stroke="#231633" stroke-width="2.57766" stroke-linecap="round" stroke-linejoin="round"/>
<path d="M241.444 130.349V139.594C241.444 140.294 241.165 140.966 240.667 141.461C240.17 141.957 239.496 142.235 238.793 142.235H220.233C219.53 142.235 218.856 141.957 218.359 141.461C217.861 140.966 217.582 140.294 217.582 139.594V121.105C217.582 120.405 217.861 119.733 218.359 119.237C218.856 118.742 219.53 118.464 220.233 118.464H234.816" stroke="#231633" stroke-width="2.57766" stroke-linecap="round" stroke-linejoin="round"/>
<rect x="297" y="99" width="63" height="63" rx="6" fill="url(#paint4_linear)"/>
<path d="M320.56 126.388L328.514 134.312L336.467 126.388" stroke="#231633" stroke-width="2.57766" stroke-linecap="round" stroke-linejoin="round"/>
<rect x="99" y="99" width="63" height="63" rx="6" fill="url(#paint5_linear)"/>
<path d="M143.77 129.135V130.35C143.768 133.197 142.843 135.968 141.131 138.249C139.419 140.53 137.013 142.199 134.272 143.006C131.531 143.814 128.601 143.717 125.919 142.73C123.238 141.743 120.948 139.919 119.392 137.53C117.837 135.141 117.097 132.315 117.286 129.473C117.474 126.631 118.579 123.926 120.436 121.762C122.293 119.597 124.804 118.088 127.592 117.46C130.38 116.833 133.298 117.12 135.909 118.279" stroke="#231633" stroke-width="2.57766" stroke-linecap="round" stroke-linejoin="round"/>
<path d="M143.769 119.785L130.512 133.004L126.535 129.042" stroke="#231633" stroke-width="2.57766" stroke-linecap="round" stroke-linejoin="round"/>
<rect y="198" width="63" height="63" rx="6" fill="url(#paint6_linear)"/>
<path d="M31.5134 242.493C38.8348 242.493 44.77 236.58 44.77 229.287C44.77 221.993 38.8348 216.081 31.5134 216.081C24.192 216.081 18.2568 221.993 18.2568 229.287C18.2568 236.58 24.192 242.493 31.5134 242.493Z" stroke="#231633" stroke-width="2.57766" stroke-linecap="round" stroke-linejoin="round"/>
<path d="M31.5137 221.362V229.286L36.8163 231.927" stroke="#231633" stroke-width="2.57766" stroke-linecap="round" stroke-linejoin="round"/>
<rect x="198" y="198" width="63" height="63" rx="6" fill="url(#paint7_linear)"/>
<path d="M230.839 216.081H221.56C220.856 216.081 220.182 216.359 219.685 216.854C219.188 217.349 218.908 218.021 218.908 218.722V239.852C218.908 240.552 219.188 241.224 219.685 241.719C220.182 242.215 220.856 242.493 221.56 242.493H237.467C238.171 242.493 238.845 242.215 239.342 241.719C239.839 241.224 240.119 240.552 240.119 239.852V225.325L230.839 216.081Z" stroke="#231633" stroke-width="2.57766" stroke-linecap="round" stroke-linejoin="round"/>
<path d="M230.839 216.081V225.325H240.118" stroke="#231633" stroke-width="2.57766" stroke-linecap="round" stroke-linejoin="round"/>
<rect x="297" y="198" width="63" height="63" rx="6" fill="url(#paint8_linear)"/>
<path d="M331.164 216.08H320.559C319.855 216.08 319.181 216.358 318.684 216.854C318.187 217.349 317.907 218.021 317.907 218.721V239.851C317.907 240.552 318.187 241.224 318.684 241.719C319.181 242.214 319.855 242.493 320.559 242.493H336.466C337.17 242.493 337.844 242.214 338.341 241.719C338.838 241.224 339.118 240.552 339.118 239.851V224.004L331.164 216.08Z" stroke="#231633" stroke-width="2.57766" stroke-linecap="round" stroke-linejoin="round"/>
<path d="M331.164 216.08V224.004H339.118" stroke="#231633" stroke-width="2.57766" stroke-linecap="round" stroke-linejoin="round"/>
<path d="M324.536 233.248H332.49" stroke="#231633" stroke-width="2.57766" stroke-linecap="round" stroke-linejoin="round"/>
<rect x="198" y="297" width="63" height="63" rx="6" fill="url(#paint9_linear)"/>
<path d="M232.164 315.018H221.559C220.855 315.018 220.181 315.296 219.684 315.791C219.187 316.287 218.907 316.958 218.907 317.659V338.789C218.907 339.489 219.187 340.161 219.684 340.656C220.181 341.152 220.855 341.43 221.559 341.43H237.466C238.17 341.43 238.844 341.152 239.341 340.656C239.838 340.161 240.118 339.489 240.118 338.789V322.941L232.164 315.018Z" stroke="#231633" stroke-width="2.57766" stroke-linecap="round" stroke-linejoin="round"/>
<path d="M232.164 315.018V322.941H240.118" stroke="#231633" stroke-width="2.57766" stroke-linecap="round" stroke-linejoin="round"/>
<path d="M229.512 336.147V328.224" stroke="#231633" stroke-width="2.57766" stroke-linecap="round" stroke-linejoin="round"/>
<path d="M225.536 332.186H233.49" stroke="#231633" stroke-width="2.57766" stroke-linecap="round" stroke-linejoin="round"/>
<rect x="99" y="198" width="63" height="63" rx="6" fill="url(#paint10_linear)"/>
<path d="M142.444 233.249V238.531C142.444 239.232 142.165 239.903 141.667 240.399C141.17 240.894 140.496 241.172 139.793 241.172H121.233C120.53 241.172 119.856 240.894 119.359 240.399C118.861 239.903 118.582 239.232 118.582 238.531V233.249" stroke="#231633" stroke-width="2.57766" stroke-linecap="round" stroke-linejoin="round"/>
<path d="M123.885 226.646L130.513 233.249L137.141 226.646" stroke="#231633" stroke-width="2.57766" stroke-linecap="round" stroke-linejoin="round"/>
<path d="M130.514 233.248V217.4" stroke="#231633" stroke-width="2.57766" stroke-linecap="round" stroke-linejoin="round"/>
<rect width="63" height="63" rx="6" fill="url(#paint11_linear)"/>
<path d="M38.1413 30.0924L31.513 23.4893L24.8848 30.0924" stroke="#231633" stroke-width="2.57766" stroke-linecap="round" stroke-linejoin="round"/>
<path d="M38.1413 39.336L31.513 32.7329L24.8848 39.336" stroke="#231633" stroke-width="2.57766" stroke-linecap="round" stroke-linejoin="round"/>
<rect x="198" width="63" height="63" rx="6" fill="url(#paint12_linear)"/>
<path d="M229.513 44.619C236.835 44.619 242.77 38.7064 242.77 31.4128C242.77 24.1192 236.835 18.2065 229.513 18.2065C222.192 18.2065 216.257 24.1192 216.257 31.4128C216.257 38.7064 222.192 44.619 229.513 44.619Z" stroke="#231633" stroke-width="2.57766" stroke-linecap="round" stroke-linejoin="round"/>
<path d="M229.513 36.6949C232.441 36.6949 234.815 34.3298 234.815 31.4124C234.815 28.4949 232.441 26.1299 229.513 26.1299C226.584 26.1299 224.21 28.4949 224.21 31.4124C224.21 34.3298 226.584 36.6949 229.513 36.6949Z" stroke="#231633" stroke-width="2.57766" stroke-linecap="round" stroke-linejoin="round"/>
<path d="M241.67 26.1299H229.514" stroke="#231633" stroke-width="2.57766" stroke-linecap="round" stroke-linejoin="round"/>
<path d="M218.842 23.5684L224.927 34.0541" stroke="#231633" stroke-width="2.57766" stroke-linecap="round" stroke-linejoin="round"/>
<path d="M228.027 44.539L234.099 34.0532" stroke="#231633" stroke-width="2.57766" stroke-linecap="round" stroke-linejoin="round"/>
<rect x="297" width="63" height="63" rx="6" fill="url(#paint13_linear)"/>
<path d="M317.907 20.8472H339.118C340.576 20.8472 341.769 22.0357 341.769 23.4884V39.3359C341.769 40.7886 340.576 41.9771 339.118 41.9771H317.907C316.449 41.9771 315.256 40.7886 315.256 39.3359V23.4884C315.256 22.0357 316.449 20.8472 317.907 20.8472Z" stroke="#231633" stroke-width="2.57766" stroke-linecap="round" stroke-linejoin="round"/>
<path d="M341.769 23.4893L328.512 32.7336L315.256 23.4893" stroke="#231633" stroke-width="2.57766" stroke-linecap="round" stroke-linejoin="round"/>
<rect x="297" y="297" width="63" height="63" rx="6" fill="url(#paint14_linear)"/>
<path d="M333.815 318.022H336.466C337.17 318.022 337.844 318.3 338.341 318.796C338.838 319.291 339.118 319.963 339.118 320.663V339.152C339.118 339.852 338.838 340.524 338.341 341.02C337.844 341.515 337.17 341.793 336.466 341.793H320.559C319.855 341.793 319.181 341.515 318.684 341.02C318.187 340.524 317.907 339.852 317.907 339.152V320.663C317.907 319.963 318.187 319.291 318.684 318.796C319.181 318.3 319.855 318.022 320.559 318.022H323.21" stroke="#231633" stroke-width="2.57766" stroke-linecap="round" stroke-linejoin="round"/>
<path d="M332.49 315.382H324.536C323.803 315.382 323.21 315.973 323.21 316.702V319.344C323.21 320.073 323.803 320.664 324.536 320.664H332.49C333.222 320.664 333.815 320.073 333.815 319.344V316.702C333.815 315.973 333.222 315.382 332.49 315.382Z" stroke="#231633" stroke-width="2.57766" stroke-linecap="round" stroke-linejoin="round"/>
<rect x="99" width="63" height="63" rx="6" fill="url(#paint15_linear)"/>
<path d="M137.142 19.5262C137.49 19.1793 137.903 18.9042 138.358 18.7165C138.813 18.5287 139.301 18.4321 139.793 18.4321C140.285 18.4321 140.773 18.5287 141.228 18.7165C141.683 18.9042 142.096 19.1793 142.444 19.5262C142.792 19.873 143.069 20.2848 143.257 20.738C143.446 21.1912 143.543 21.6769 143.543 22.1674C143.543 22.6579 143.446 23.1437 143.257 23.5968C143.069 24.05 142.792 24.4618 142.444 24.8087L124.548 42.6371L117.257 44.618L119.245 37.3546L137.142 19.5262Z" stroke="#231633" stroke-width="2.57766" stroke-linecap="round" stroke-linejoin="round"/>
<defs>
<linearGradient id="paint0_linear" x1="99.6865" y1="298.138" x2="171.855" y2="313.399" gradientUnits="userSpaceOnUse">
<stop stop-color="white"/>
<stop offset="0.564808" stop-color="#F6F9FF"/>
</linearGradient>
<linearGradient id="paint1_linear" x1="0.686536" y1="298.138" x2="72.8549" y2="313.399" gradientUnits="userSpaceOnUse">
<stop stop-color="white"/>
<stop offset="0.564808" stop-color="#F6F9FF"/>
</linearGradient>
<linearGradient id="paint2_linear" x1="0.686536" y1="100.138" x2="72.8549" y2="115.399" gradientUnits="userSpaceOnUse">
<stop stop-color="white"/>
<stop offset="0.564808" stop-color="#F6F9FF"/>
</linearGradient>
<linearGradient id="paint3_linear" x1="198.687" y1="100.138" x2="270.855" y2="115.399" gradientUnits="userSpaceOnUse">
<stop stop-color="white"/>
<stop offset="0.564808" stop-color="#F6F9FF"/>
</linearGradient>
<linearGradient id="paint4_linear" x1="297.687" y1="100.138" x2="369.855" y2="115.399" gradientUnits="userSpaceOnUse">
<stop stop-color="white"/>
<stop offset="0.564808" stop-color="#F6F9FF"/>
</linearGradient>
<linearGradient id="paint5_linear" x1="99.6865" y1="100.138" x2="171.855" y2="115.399" gradientUnits="userSpaceOnUse">
<stop stop-color="white"/>
<stop offset="0.564808" stop-color="#F6F9FF"/>
</linearGradient>
<linearGradient id="paint6_linear" x1="0.686536" y1="199.138" x2="72.8549" y2="214.399" gradientUnits="userSpaceOnUse">
<stop stop-color="white"/>
<stop offset="0.564808" stop-color="#F6F9FF"/>
</linearGradient>
<linearGradient id="paint7_linear" x1="198.687" y1="199.138" x2="270.855" y2="214.399" gradientUnits="userSpaceOnUse">
<stop stop-color="white"/>
<stop offset="0.564808" stop-color="#F6F9FF"/>
</linearGradient>
<linearGradient id="paint8_linear" x1="297.687" y1="199.138" x2="369.855" y2="214.399" gradientUnits="userSpaceOnUse">
<stop stop-color="white"/>
<stop offset="0.564808" stop-color="#F6F9FF"/>
</linearGradient>
<linearGradient id="paint9_linear" x1="198.687" y1="298.138" x2="270.855" y2="313.399" gradientUnits="userSpaceOnUse">
<stop stop-color="white"/>
<stop offset="0.564808" stop-color="#F6F9FF"/>
</linearGradient>
<linearGradient id="paint10_linear" x1="99.6865" y1="199.138" x2="171.855" y2="214.399" gradientUnits="userSpaceOnUse">
<stop stop-color="white"/>
<stop offset="0.564808" stop-color="#F6F9FF"/>
</linearGradient>
<linearGradient id="paint11_linear" x1="0.686536" y1="1.13751" x2="72.8549" y2="16.3994" gradientUnits="userSpaceOnUse">
<stop stop-color="white"/>
<stop offset="0.564808" stop-color="#F6F9FF"/>
</linearGradient>
<linearGradient id="paint12_linear" x1="198.687" y1="1.13751" x2="270.855" y2="16.3994" gradientUnits="userSpaceOnUse">
<stop stop-color="white"/>
<stop offset="0.564808" stop-color="#F6F9FF"/>
</linearGradient>
<linearGradient id="paint13_linear" x1="297.687" y1="1.13751" x2="369.855" y2="16.3994" gradientUnits="userSpaceOnUse">
<stop stop-color="white"/>
<stop offset="0.564808" stop-color="#F6F9FF"/>
</linearGradient>
<linearGradient id="paint14_linear" x1="297.687" y1="298.138" x2="369.855" y2="313.399" gradientUnits="userSpaceOnUse">
<stop stop-color="white"/>
<stop offset="0.564808" stop-color="#F6F9FF"/>
</linearGradient>
<linearGradient id="paint15_linear" x1="99.6865" y1="1.13751" x2="171.855" y2="16.3994" gradientUnits="userSpaceOnUse">
<stop stop-color="white"/>
<stop offset="0.564808" stop-color="#F6F9FF"/>
</linearGradient>
</defs>
</svg>
