<svg width="28" height="28" viewBox="0 0 28 28" fill="none" xmlns="http://www.w3.org/2000/svg">
<path d="M14 2.625C11.7502 2.625 9.551 3.29213 7.68039 4.54203C5.80978 5.79193 4.35182 7.56847 3.49088 9.64698C2.62993 11.7255 2.40467 14.0126 2.84357 16.2192C3.28248 18.4257 4.36584 20.4525 5.95667 22.0433C7.54749 23.6342 9.57432 24.7175 11.7809 25.1564C13.9874 25.5953 16.2745 25.3701 18.353 24.5091C20.4315 23.6482 22.2081 22.1902 23.458 20.3196C24.7079 18.449 25.375 16.2498 25.375 14C25.3718 10.9841 24.1724 8.09271 22.0398 5.96018C19.9073 3.82764 17.0159 2.62818 14 2.625ZM18.9941 12.8691L14.6191 17.2441C14.5378 17.3254 14.4413 17.39 14.3351 17.434C14.2289 17.478 14.115 17.5007 14 17.5007C13.885 17.5007 13.7712 17.478 13.6649 17.434C13.5587 17.39 13.4622 17.3254 13.3809 17.2441L9.00594 12.8691C8.84176 12.7049 8.74952 12.4822 8.74952 12.25C8.74952 12.0178 8.84176 11.7951 9.00594 11.6309C9.17013 11.4668 9.39281 11.3745 9.625 11.3745C9.8572 11.3745 10.0799 11.4668 10.2441 11.6309L14 15.388L17.7559 11.6309C17.8372 11.5496 17.9338 11.4852 18.04 11.4412C18.1462 11.3972 18.26 11.3745 18.375 11.3745C18.49 11.3745 18.6038 11.3972 18.71 11.4412C18.8163 11.4852 18.9128 11.5496 18.9941 11.6309C19.0754 11.7122 19.1399 11.8087 19.1838 11.915C19.2278 12.0212 19.2505 12.135 19.2505 12.25C19.2505 12.365 19.2278 12.4788 19.1838 12.585C19.1399 12.6913 19.0754 12.7878 18.9941 12.8691Z" fill="#71717A"/>
</svg>
