<svg width="415" height="116" viewBox="0 0 415 116" fill="none" xmlns="http://www.w3.org/2000/svg">
<path d="M409 -1.16974e-07C412.314 -5.23708e-08 415 2.68629 415 6L415 102C415 105.314 412.314 108 409 108L10.9472 108C10.5149 108 10.0942 108.14 9.74822 108.399L1.59948 114.503C0.940175 114.996 -1.07877e-05 114.526 -1.07517e-05 113.702L-6.04392e-06 5.99999C-5.89907e-06 2.68628 2.68627 -8.03831e-06 5.99999 -7.9737e-06L409 -1.16974e-07Z" fill="white"/>
<path d="M33.4688 32.1562C32.5104 32.1562 31.5938 32.0104 30.7188 31.7188C29.8438 31.4062 29.0938 30.9792 28.4688 30.4375L29.8125 28.625C30.8333 29.6042 32.0833 30.0938 33.5625 30.0938C34.2917 30.0938 34.8542 29.9792 35.25 29.75C35.6667 29.5 35.875 29.1562 35.875 28.7188C35.875 28.3438 35.6979 28.0625 35.3438 27.875C35.0104 27.6875 34.3646 27.4583 33.4062 27.1875C32.4688 26.9167 31.6979 26.6562 31.0938 26.4062C30.5104 26.1354 30 25.7604 29.5625 25.2812C29.1458 24.8021 28.9375 24.1875 28.9375 23.4375C28.9375 22.3542 29.3542 21.5104 30.1875 20.9062C31.0208 20.2812 32.1562 19.9688 33.5938 19.9688C35.2604 19.9688 36.7396 20.4479 38.0312 21.4062L36.7188 23.1875C35.8021 22.4375 34.7188 22.0625 33.4688 22.0625C32.8229 22.0625 32.3021 22.1771 31.9062 22.4062C31.5104 22.6354 31.3125 22.9375 31.3125 23.3125C31.3125 23.6875 31.5104 23.9896 31.9062 24.2188C32.3229 24.4479 33 24.6875 33.9375 24.9375C35.3333 25.3125 36.4062 25.75 37.1562 26.25C37.9271 26.75 38.3125 27.5104 38.3125 28.5312C38.3125 29.6771 37.8854 30.5729 37.0312 31.2188C36.1771 31.8438 34.9896 32.1562 33.4688 32.1562ZM48.5312 30.0625V32C48.3229 32.0417 48.0521 32.0625 47.7188 32.0625C47.1354 32.0625 46.6875 31.9479 46.375 31.7188C46.0833 31.4896 45.8958 31.125 45.8125 30.625C45.4583 31.1042 44.9896 31.4792 44.4062 31.75C43.8438 32.0208 43.2188 32.1562 42.5312 32.1562C41.6146 32.1562 40.875 31.9062 40.3125 31.4062C39.75 30.9062 39.4688 30.2396 39.4688 29.4062C39.4688 28.3438 39.8438 27.6042 40.5938 27.1875C41.3438 26.7708 42.3125 26.4896 43.5 26.3438C44.2083 26.2604 44.7188 26.1562 45.0312 26.0312C45.3438 25.9062 45.5 25.6979 45.5 25.4062C45.5 25.0729 45.3333 24.8125 45 24.625C44.6875 24.4167 44.25 24.3125 43.6875 24.3125C42.6875 24.3125 41.8021 24.6979 41.0312 25.4688L39.6875 24.0625C40.8125 23 42.1875 22.4688 43.8125 22.4688C45 22.4688 45.9271 22.75 46.5938 23.3125C47.2604 23.8542 47.5938 24.6146 47.5938 25.5938V29.5C47.5938 29.875 47.7812 30.0625 48.1562 30.0625H48.5312ZM43 30.375C43.6667 30.375 44.2396 30.1771 44.7188 29.7812C45.1979 29.3854 45.4375 28.9167 45.4375 28.375V27.4062C45.1667 27.5521 44.6042 27.6979 43.75 27.8438C43.0417 27.9688 42.5104 28.1146 42.1562 28.2812C41.8229 28.4479 41.6562 28.7604 41.6562 29.2188C41.6562 29.5729 41.7708 29.8542 42 30.0625C42.25 30.2708 42.5833 30.375 43 30.375ZM55.7812 22.4688C56.7812 22.4688 57.5938 22.8021 58.2188 23.4688C58.8646 24.1354 59.1875 25 59.1875 26.0625V32H56.9375V26.5938C56.9375 25.8854 56.7708 25.3333 56.4375 24.9375C56.125 24.5417 55.6771 24.3438 55.0938 24.3438C54.4271 24.3438 53.8646 24.5625 53.4062 25C52.9479 25.4167 52.7188 25.9583 52.7188 26.625V32H50.4688V22.625H52.4688L52.5938 24C52.9479 23.5208 53.3958 23.1458 53.9375 22.875C54.5 22.6042 55.1146 22.4688 55.7812 22.4688ZM70.3438 19.5V32H68.3438L68.2188 30.5938C67.8646 31.0938 67.4167 31.4792 66.875 31.75C66.3333 32.0208 65.7396 32.1562 65.0938 32.1562C63.8646 32.1562 62.8854 31.7188 62.1562 30.8438C61.4271 29.9479 61.0625 28.7708 61.0625 27.3125C61.0625 25.875 61.4375 24.7083 62.1875 23.8125C62.9375 22.9167 63.9062 22.4688 65.0938 22.4688C66.3646 22.4688 67.3646 22.9167 68.0938 23.8125V19.5H70.3438ZM65.7812 30.2812C66.5312 30.2812 67.1146 30.0208 67.5312 29.5C67.9688 28.9583 68.1875 28.2292 68.1875 27.3125C68.1875 26.3958 67.9688 25.6771 67.5312 25.1562C67.1146 24.6146 66.5312 24.3438 65.7812 24.3438C65.0312 24.3438 64.4375 24.6146 64 25.1562C63.5625 25.6771 63.3438 26.3958 63.3438 27.3125C63.3438 28.2292 63.5625 28.9583 64 29.5C64.4375 30.0208 65.0312 30.2812 65.7812 30.2812ZM74.625 28.0312C74.7292 28.7396 75.0104 29.2917 75.4688 29.6875C75.9271 30.0833 76.5208 30.2812 77.25 30.2812C78.375 30.2812 79.2604 29.9062 79.9062 29.1562L81.3125 30.5C80.3542 31.6042 79 32.1562 77.25 32.1562C75.6875 32.1562 74.4792 31.7083 73.625 30.8125C72.7917 29.9167 72.375 28.75 72.375 27.3125C72.375 25.875 72.8021 24.7083 73.6562 23.8125C74.5312 22.9167 75.6771 22.4688 77.0938 22.4688C78.4896 22.4688 79.6042 22.9167 80.4375 23.8125C81.2708 24.6875 81.6875 25.8542 81.6875 27.3125C81.6875 27.5833 81.6562 27.8229 81.5938 28.0312H74.625ZM77.0938 24.2812C76.4479 24.2812 75.9062 24.4688 75.4688 24.8438C75.0521 25.1979 74.7812 25.7083 74.6562 26.375H79.4062C79.2812 25.7083 79.0104 25.1979 78.5938 24.8438C78.1979 24.4688 77.6979 24.2812 77.0938 24.2812ZM89 22.5C89.1875 22.5 89.4479 22.5208 89.7812 22.5625L89.75 24.6875C89.2917 24.625 88.8333 24.5938 88.375 24.5938C87.6458 24.5938 87.0521 24.7917 86.5938 25.1875C86.1562 25.5833 85.9375 26.1354 85.9375 26.8438V32H83.6875V22.625H85.6875L85.8125 24.0938C86.1667 23.5938 86.6146 23.2083 87.1562 22.9375C87.6979 22.6458 88.3125 22.5 89 22.5Z" fill="#3F56BA"/>
<path d="M34.7812 47.125C36.0312 47.125 37.0208 47.4479 37.75 48.0938C38.5 48.7396 38.875 49.6146 38.875 50.7188C38.875 51.8229 38.5 52.6979 37.75 53.3438C37.0208 53.9896 36.0312 54.3125 34.7812 54.3125H31.5V59H29.875V47.125H34.7812ZM34.5938 52.8438C36.3438 52.8438 37.2188 52.1354 37.2188 50.7188C37.2188 49.3021 36.3438 48.5938 34.5938 48.5938H31.5V52.8438H34.5938ZM41.625 54.8125C41.7292 55.7292 42.0521 56.4583 42.5938 57C43.1562 57.5208 43.875 57.7812 44.75 57.7812C46.0833 57.7812 47.0521 57.3542 47.6562 56.5L48.7812 57.4688C48.4062 57.9688 47.8854 58.375 47.2188 58.6875C46.5521 59 45.7396 59.1562 44.7812 59.1562C43.3021 59.1562 42.1354 58.7083 41.2812 57.8125C40.4479 56.9167 40.0312 55.75 40.0312 54.3125C40.0312 52.875 40.4583 51.7083 41.3125 50.8125C42.1667 49.9167 43.2708 49.4688 44.625 49.4688C45.9792 49.4688 47.0521 49.9167 47.8438 50.8125C48.6562 51.6875 49.0625 52.8542 49.0625 54.3125C49.0625 54.5417 49.0521 54.7083 49.0312 54.8125H41.625ZM44.625 50.8125C43.8125 50.8125 43.1458 51.0625 42.625 51.5625C42.1042 52.0417 41.7812 52.7083 41.6562 53.5625H47.4375C47.3333 52.7083 47.0312 52.0417 46.5312 51.5625C46.0312 51.0625 45.3958 50.8125 44.625 50.8125ZM56.2188 49.4688C56.3646 49.4688 56.5833 49.4896 56.875 49.5312V51.0625C56.6458 51.0417 56.2812 51.0312 55.7812 51.0312C54.9896 51.0312 54.3229 51.2812 53.7812 51.7812C53.2396 52.2812 52.9688 52.9167 52.9688 53.6875V59H51.4062V49.625H52.7188L52.8438 51.1875C53.1979 50.6458 53.6667 50.2292 54.25 49.9375C54.8542 49.625 55.5104 49.4688 56.2188 49.4688ZM62.4062 47.7188C62.0104 47.7188 61.7083 47.8229 61.5 48.0312C61.2917 48.2396 61.1875 48.5208 61.1875 48.875V49.625H63.9062V50.9688H61.1875V59H59.625V50.9688H57.6562V49.625H59.625V48.8125C59.625 48.0417 59.875 47.4375 60.375 47C60.8958 46.5625 61.6042 46.3438 62.5 46.3438C63.3958 46.3438 64.1979 46.5938 64.9062 47.0938L64.1562 48.3125C63.6771 47.9167 63.0938 47.7188 62.4062 47.7188ZM66.25 54.8125C66.3542 55.7292 66.6771 56.4583 67.2188 57C67.7812 57.5208 68.5 57.7812 69.375 57.7812C70.7083 57.7812 71.6771 57.3542 72.2812 56.5L73.4062 57.4688C73.0312 57.9688 72.5104 58.375 71.8438 58.6875C71.1771 59 70.3646 59.1562 69.4062 59.1562C67.9271 59.1562 66.7604 58.7083 65.9062 57.8125C65.0729 56.9167 64.6562 55.75 64.6562 54.3125C64.6562 52.875 65.0833 51.7083 65.9375 50.8125C66.7917 49.9167 67.8958 49.4688 69.25 49.4688C70.6042 49.4688 71.6771 49.9167 72.4688 50.8125C73.2812 51.6875 73.6875 52.8542 73.6875 54.3125C73.6875 54.5417 73.6771 54.7083 73.6562 54.8125H66.25ZM69.25 50.8125C68.4375 50.8125 67.7708 51.0625 67.25 51.5625C66.7292 52.0417 66.4062 52.7083 66.2812 53.5625H72.0625C71.9583 52.7083 71.6562 52.0417 71.1562 51.5625C70.6562 51.0625 70.0208 50.8125 69.25 50.8125ZM79.9375 59.1562C78.5833 59.1562 77.4688 58.7083 76.5938 57.8125C75.7396 56.9167 75.3125 55.75 75.3125 54.3125C75.3125 52.875 75.7396 51.7083 76.5938 50.8125C77.4688 49.9167 78.5833 49.4688 79.9375 49.4688C80.9375 49.4688 81.8021 49.7188 82.5312 50.2188C83.2812 50.7188 83.7812 51.4062 84.0312 52.2812L82.5625 52.75C82.3333 52.1458 81.9896 51.6771 81.5312 51.3438C81.0938 51.0104 80.5625 50.8438 79.9375 50.8438C79 50.8438 78.2604 51.1562 77.7188 51.7812C77.1771 52.4062 76.9062 53.25 76.9062 54.3125C76.9062 55.375 77.1771 56.2188 77.7188 56.8438C78.2604 57.4688 79 57.7812 79.9375 57.7812C80.5625 57.7812 81.1042 57.6146 81.5625 57.2812C82.0208 56.9479 82.3646 56.4792 82.5938 55.875L84.0312 56.3438C83.7604 57.2188 83.25 57.9062 82.5 58.4062C81.7708 58.9062 80.9167 59.1562 79.9375 59.1562ZM88.5 50.9688V56.3438C88.5 56.8646 88.6042 57.2188 88.8125 57.4062C89.0417 57.5938 89.4062 57.6875 89.9062 57.6875C90.4062 57.6875 90.9271 57.6146 91.4688 57.4688V58.9375C90.8854 59.0833 90.2812 59.1562 89.6562 59.1562C88.7604 59.1562 88.0833 58.9375 87.625 58.5C87.1667 58.0625 86.9375 57.4375 86.9375 56.625V50.9688H85.0938V49.625H86.9375L87.1875 47.125H88.5V49.625H91.4688V50.9688H88.5ZM94.0312 47.125H95.9062L95.5625 55.25H94.375L94.0312 47.125ZM96.0625 56.8125V59H93.875V56.8125H96.0625ZM113.281 47.125V48.625H108.938V59H107.312V48.625H102.969V47.125H113.281ZM119.969 49.4688C120.99 49.4688 121.812 49.8021 122.438 50.4688C123.083 51.1146 123.406 51.9792 123.406 53.0625V59H121.844V53.5312C121.844 52.6771 121.646 52.0208 121.25 51.5625C120.854 51.0833 120.302 50.8438 119.594 50.8438C118.781 50.8438 118.094 51.1042 117.531 51.625C116.99 52.1458 116.719 52.8021 116.719 53.5938V59H115.156V46.5H116.719V51C117.094 50.5208 117.562 50.1458 118.125 49.875C118.688 49.6042 119.302 49.4688 119.969 49.4688ZM134.094 57.625V59C134.01 59.0417 133.833 59.0625 133.562 59.0625C132.979 59.0625 132.552 58.9479 132.281 58.7188C132.031 58.4896 131.885 58.0938 131.844 57.5312C131.49 58.0312 131.01 58.4271 130.406 58.7188C129.823 59.0104 129.188 59.1562 128.5 59.1562C127.583 59.1562 126.844 58.9062 126.281 58.4062C125.719 57.8854 125.438 57.2083 125.438 56.375C125.438 55.375 125.802 54.6667 126.531 54.25C127.281 53.8125 128.26 53.5 129.469 53.3125C130.365 53.1667 130.948 53.0312 131.219 52.9062C131.51 52.7812 131.656 52.5417 131.656 52.1875C131.656 51.7708 131.458 51.4375 131.062 51.1875C130.688 50.9375 130.188 50.8125 129.562 50.8125C129.021 50.8125 128.49 50.9271 127.969 51.1562C127.469 51.3646 127.021 51.6771 126.625 52.0938L125.656 51.0938C126.74 50.0104 128.062 49.4688 129.625 49.4688C130.708 49.4688 131.562 49.7396 132.188 50.2812C132.812 50.8229 133.125 51.5729 133.125 52.5312V57C133.125 57.4167 133.333 57.625 133.75 57.625H134.094ZM128.688 57.8438C129.479 57.8438 130.167 57.6146 130.75 57.1562C131.333 56.6771 131.625 56.1146 131.625 55.4688V54.0312C131.458 54.1562 131.24 54.25 130.969 54.3125C130.698 54.375 130.271 54.4479 129.688 54.5312C128.792 54.6771 128.115 54.8646 127.656 55.0938C127.219 55.3229 127 55.7396 127 56.3438C127 56.8229 127.146 57.1979 127.438 57.4688C127.729 57.7188 128.146 57.8438 128.688 57.8438ZM141.125 49.4688C142.146 49.4688 142.969 49.8021 143.594 50.4688C144.24 51.1146 144.562 51.9792 144.562 53.0625V59H143V53.5312C143 52.6771 142.802 52.0208 142.406 51.5625C142.01 51.0833 141.458 50.8438 140.75 50.8438C139.917 50.8438 139.219 51.1042 138.656 51.625C138.115 52.125 137.844 52.7812 137.844 53.5938V59H136.281V49.625H137.594L137.719 51.1875C138.073 50.6458 138.542 50.2292 139.125 49.9375C139.729 49.625 140.396 49.4688 141.125 49.4688ZM153.906 59L150.5 54.4688L149.094 55.7812V59H147.531V46.5H149.094V53.9688L153.656 49.625H155.656L151.625 53.4062L155.844 59H153.906ZM170.688 49.625L167.094 59.5C166.802 60.3333 166.406 61 165.906 61.5C165.406 62.0208 164.812 62.2812 164.125 62.2812C163.312 62.2812 162.688 62.0312 162.25 61.5312C161.833 61.0312 161.635 60.4062 161.656 59.6562L163.062 59.4062C163.021 60.3646 163.375 60.8438 164.125 60.8438C164.417 60.8438 164.667 60.75 164.875 60.5625C165.104 60.375 165.312 60.0833 165.5 59.6875L161.094 49.625H162.812L166.25 57.8438L169.062 49.625H170.688ZM176.156 59.1562C174.74 59.1562 173.604 58.7188 172.75 57.8438C171.896 56.9688 171.469 55.7917 171.469 54.3125C171.469 52.875 171.906 51.7083 172.781 50.8125C173.656 49.9167 174.781 49.4688 176.156 49.4688C177.573 49.4688 178.708 49.9062 179.562 50.7812C180.417 51.6562 180.844 52.8333 180.844 54.3125C180.844 55.75 180.406 56.9167 179.531 57.8125C178.656 58.7083 177.531 59.1562 176.156 59.1562ZM176.156 57.7812C177.094 57.7812 177.844 57.4688 178.406 56.8438C178.969 56.1979 179.25 55.3542 179.25 54.3125C179.25 53.2708 178.969 52.4375 178.406 51.8125C177.844 51.1667 177.094 50.8438 176.156 50.8438C175.219 50.8438 174.469 51.1667 173.906 51.8125C173.344 52.4375 173.062 53.2708 173.062 54.3125C173.062 55.3542 173.344 56.1979 173.906 56.8438C174.469 57.4688 175.219 57.7812 176.156 57.7812ZM191.375 49.625V59H190.062L189.938 57.4375C189.583 57.9792 189.104 58.4062 188.5 58.7188C187.917 59.0104 187.26 59.1562 186.531 59.1562C185.51 59.1562 184.677 58.8333 184.031 58.1875C183.406 57.5208 183.094 56.6458 183.094 55.5625V49.625H184.656V55.0938C184.656 55.9479 184.854 56.6146 185.25 57.0938C185.646 57.5521 186.198 57.7812 186.906 57.7812C187.74 57.7812 188.427 57.5312 188.969 57.0312C189.531 56.5104 189.812 55.8438 189.812 55.0312V49.625H191.375ZM194.688 47.125H196.562L196.219 55.25H195.031L194.688 47.125ZM196.719 56.8125V59H194.531V56.8125H196.719ZM34.5 85.1562C32.8125 85.1562 31.4583 84.6042 30.4375 83.5C29.4375 82.3958 28.9375 80.9167 28.9375 79.0625C28.9375 77.875 29.1667 76.8229 29.625 75.9062C30.1042 74.9688 30.7604 74.25 31.5938 73.75C32.4479 73.2292 33.4167 72.9688 34.5 72.9688C35.7083 72.9688 36.7396 73.2708 37.5938 73.875C38.4479 74.4792 39.0521 75.3438 39.4062 76.4688L37.9062 77C37.6562 76.1458 37.2396 75.5 36.6562 75.0625C36.0729 74.625 35.3542 74.4062 34.5 74.4062C33.3333 74.4062 32.3854 74.8333 31.6562 75.6875C30.9479 76.5417 30.5938 77.6667 30.5938 79.0625C30.5938 80.5 30.9479 81.6354 31.6562 82.4688C32.3646 83.3021 33.3125 83.7188 34.5 83.7188C35.3542 83.7188 36.0729 83.5 36.6562 83.0625C37.2396 82.625 37.6562 81.9792 37.9062 81.125L39.4062 81.6562C39.0521 82.7396 38.4375 83.5938 37.5625 84.2188C36.7083 84.8438 35.6875 85.1562 34.5 85.1562ZM49.3125 83.625V85C49.2292 85.0417 49.0521 85.0625 48.7812 85.0625C48.1979 85.0625 47.7708 84.9479 47.5 84.7188C47.25 84.4896 47.1042 84.0938 47.0625 83.5312C46.7083 84.0312 46.2292 84.4271 45.625 84.7188C45.0417 85.0104 44.4062 85.1562 43.7188 85.1562C42.8021 85.1562 42.0625 84.9062 41.5 84.4062C40.9375 83.8854 40.6562 83.2083 40.6562 82.375C40.6562 81.375 41.0208 80.6667 41.75 80.25C42.5 79.8125 43.4792 79.5 44.6875 79.3125C45.5833 79.1667 46.1667 79.0312 46.4375 78.9062C46.7292 78.7812 46.875 78.5417 46.875 78.1875C46.875 77.7708 46.6771 77.4375 46.2812 77.1875C45.9062 76.9375 45.4062 76.8125 44.7812 76.8125C44.2396 76.8125 43.7083 76.9271 43.1875 77.1562C42.6875 77.3646 42.2396 77.6771 41.8438 78.0938L40.875 77.0938C41.9583 76.0104 43.2812 75.4688 44.8438 75.4688C45.9271 75.4688 46.7812 75.7396 47.4062 76.2812C48.0312 76.8229 48.3438 77.5729 48.3438 78.5312V83C48.3438 83.4167 48.5521 83.625 48.9688 83.625H49.3125ZM43.9062 83.8438C44.6979 83.8438 45.3854 83.6146 45.9688 83.1562C46.5521 82.6771 46.8438 82.1146 46.8438 81.4688V80.0312C46.6771 80.1562 46.4583 80.25 46.1875 80.3125C45.9167 80.375 45.4896 80.4479 44.9062 80.5312C44.0104 80.6771 43.3333 80.8646 42.875 81.0938C42.4375 81.3229 42.2188 81.7396 42.2188 82.3438C42.2188 82.8229 42.3646 83.1979 42.6562 83.4688C42.9479 83.7188 43.3646 83.8438 43.9062 83.8438ZM56.3438 75.4688C57.3646 75.4688 58.1875 75.8021 58.8125 76.4688C59.4583 77.1146 59.7812 77.9792 59.7812 79.0625V85H58.2188V79.5312C58.2188 78.6771 58.0208 78.0208 57.625 77.5625C57.2292 77.0833 56.6771 76.8438 55.9688 76.8438C55.1354 76.8438 54.4375 77.1042 53.875 77.625C53.3333 78.125 53.0625 78.7812 53.0625 79.5938V85H51.5V75.625H52.8125L52.9375 77.1875C53.2917 76.6458 53.7604 76.2292 54.3438 75.9375C54.9479 75.625 55.6146 75.4688 56.3438 75.4688ZM78.8125 75.625H80.3438L77.4062 85H75.7188L73.5 77.6562L71.2812 85H69.5938L66.6562 75.625H68.25L70.4688 83.0938L72.7188 75.625H74.3125L76.5938 83.125L78.8125 75.625ZM83 80.8125C83.1042 81.7292 83.4271 82.4583 83.9688 83C84.5312 83.5208 85.25 83.7812 86.125 83.7812C87.4583 83.7812 88.4271 83.3542 89.0312 82.5L90.1562 83.4688C89.7812 83.9688 89.2604 84.375 88.5938 84.6875C87.9271 85 87.1146 85.1562 86.1562 85.1562C84.6771 85.1562 83.5104 84.7083 82.6562 83.8125C81.8229 82.9167 81.4062 81.75 81.4062 80.3125C81.4062 78.875 81.8333 77.7083 82.6875 76.8125C83.5417 75.9167 84.6458 75.4688 86 75.4688C87.3542 75.4688 88.4271 75.9167 89.2188 76.8125C90.0312 77.6875 90.4375 78.8542 90.4375 80.3125C90.4375 80.5417 90.4271 80.7083 90.4062 80.8125H83ZM86 76.8125C85.1875 76.8125 84.5208 77.0625 84 77.5625C83.4792 78.0417 83.1562 78.7083 83.0312 79.5625H88.8125C88.7083 78.7083 88.4062 78.0417 87.9062 77.5625C87.4062 77.0625 86.7708 76.8125 86 76.8125ZM102.625 75.4688C103.646 75.4688 104.469 75.8021 105.094 76.4688C105.74 77.1146 106.062 77.9792 106.062 79.0625V85H104.5V79.5312C104.5 78.6771 104.302 78.0208 103.906 77.5625C103.51 77.0833 102.958 76.8438 102.25 76.8438C101.417 76.8438 100.719 77.1042 100.156 77.625C99.6146 78.125 99.3438 78.7812 99.3438 79.5938V85H97.7812V75.625H99.0938L99.2188 77.1875C99.5729 76.6458 100.042 76.2292 100.625 75.9375C101.229 75.625 101.896 75.4688 102.625 75.4688ZM113 85.1562C111.583 85.1562 110.448 84.7188 109.594 83.8438C108.74 82.9688 108.312 81.7917 108.312 80.3125C108.312 78.875 108.75 77.7083 109.625 76.8125C110.5 75.9167 111.625 75.4688 113 75.4688C114.417 75.4688 115.552 75.9062 116.406 76.7812C117.26 77.6562 117.688 78.8333 117.688 80.3125C117.688 81.75 117.25 82.9167 116.375 83.8125C115.5 84.7083 114.375 85.1562 113 85.1562ZM113 83.7812C113.938 83.7812 114.688 83.4688 115.25 82.8438C115.812 82.1979 116.094 81.3542 116.094 80.3125C116.094 79.2708 115.812 78.4375 115.25 77.8125C114.688 77.1667 113.938 76.8438 113 76.8438C112.062 76.8438 111.312 77.1667 110.75 77.8125C110.188 78.4375 109.906 79.2708 109.906 80.3125C109.906 81.3542 110.188 82.1979 110.75 82.8438C111.312 83.4688 112.062 83.7812 113 83.7812ZM130.906 75.625H132.438L129.5 85H127.812L125.594 77.6562L123.375 85H121.688L118.75 75.625H120.344L122.562 83.0938L124.812 75.625H126.406L128.688 83.125L130.906 75.625ZM150.562 75.4688C151.583 75.4688 152.396 75.8021 153 76.4688C153.604 77.1146 153.906 77.9792 153.906 79.0625V85H152.344V79.5312C152.344 78.6562 152.156 77.9896 151.781 77.5312C151.427 77.0729 150.906 76.8438 150.219 76.8438C149.427 76.8438 148.771 77.1042 148.25 77.625C147.729 78.125 147.469 78.7812 147.469 79.5938V85H145.906V79.5312C145.906 78.6562 145.719 77.9896 145.344 77.5312C144.99 77.0729 144.469 76.8438 143.781 76.8438C142.99 76.8438 142.333 77.1042 141.812 77.625C141.292 78.125 141.031 78.7812 141.031 79.5938V85H139.469V75.625H140.781L140.906 77.125C141.24 76.6042 141.688 76.1979 142.25 75.9062C142.812 75.6146 143.448 75.4688 144.156 75.4688C144.865 75.4688 145.469 75.6354 145.969 75.9688C146.49 76.3021 146.875 76.7604 147.125 77.3438C147.458 76.7604 147.927 76.3021 148.531 75.9688C149.135 75.6354 149.812 75.4688 150.562 75.4688ZM160.844 85.1562C159.427 85.1562 158.292 84.7188 157.438 83.8438C156.583 82.9688 156.156 81.7917 156.156 80.3125C156.156 78.875 156.594 77.7083 157.469 76.8125C158.344 75.9167 159.469 75.4688 160.844 75.4688C162.26 75.4688 163.396 75.9062 164.25 76.7812C165.104 77.6562 165.531 78.8333 165.531 80.3125C165.531 81.75 165.094 82.9167 164.219 83.8125C163.344 84.7083 162.219 85.1562 160.844 85.1562ZM160.844 83.7812C161.781 83.7812 162.531 83.4688 163.094 82.8438C163.656 82.1979 163.938 81.3542 163.938 80.3125C163.938 79.2708 163.656 78.4375 163.094 77.8125C162.531 77.1667 161.781 76.8438 160.844 76.8438C159.906 76.8438 159.156 77.1667 158.594 77.8125C158.031 78.4375 157.75 79.2708 157.75 80.3125C157.75 81.3542 158.031 82.1979 158.594 82.8438C159.156 83.4688 159.906 83.7812 160.844 83.7812ZM174.031 75.625H175.688L171.938 85H170.188L166.438 75.625H168.156L171.094 83.3438L174.031 75.625ZM178.188 80.8125C178.292 81.7292 178.615 82.4583 179.156 83C179.719 83.5208 180.438 83.7812 181.312 83.7812C182.646 83.7812 183.615 83.3542 184.219 82.5L185.344 83.4688C184.969 83.9688 184.448 84.375 183.781 84.6875C183.115 85 182.302 85.1562 181.344 85.1562C179.865 85.1562 178.698 84.7083 177.844 83.8125C177.01 82.9167 176.594 81.75 176.594 80.3125C176.594 78.875 177.021 77.7083 177.875 76.8125C178.729 75.9167 179.833 75.4688 181.188 75.4688C182.542 75.4688 183.615 75.9167 184.406 76.8125C185.219 77.6875 185.625 78.8542 185.625 80.3125C185.625 80.5417 185.615 80.7083 185.594 80.8125H178.188ZM181.188 76.8125C180.375 76.8125 179.708 77.0625 179.188 77.5625C178.667 78.0417 178.344 78.7083 178.219 79.5625H184C183.896 78.7083 183.594 78.0417 183.094 77.5625C182.594 77.0625 181.958 76.8125 181.188 76.8125ZM196.938 85.1562C195.521 85.1562 194.385 84.7188 193.531 83.8438C192.677 82.9688 192.25 81.7917 192.25 80.3125C192.25 78.875 192.688 77.7083 193.562 76.8125C194.438 75.9167 195.562 75.4688 196.938 75.4688C198.354 75.4688 199.49 75.9062 200.344 76.7812C201.198 77.6562 201.625 78.8333 201.625 80.3125C201.625 81.75 201.188 82.9167 200.312 83.8125C199.438 84.7083 198.312 85.1562 196.938 85.1562ZM196.938 83.7812C197.875 83.7812 198.625 83.4688 199.188 82.8438C199.75 82.1979 200.031 81.3542 200.031 80.3125C200.031 79.2708 199.75 78.4375 199.188 77.8125C198.625 77.1667 197.875 76.8438 196.938 76.8438C196 76.8438 195.25 77.1667 194.688 77.8125C194.125 78.4375 193.844 79.2708 193.844 80.3125C193.844 81.3542 194.125 82.1979 194.688 82.8438C195.25 83.4688 196 83.7812 196.938 83.7812ZM210.125 75.625H211.781L208.031 85H206.281L202.531 75.625H204.25L207.188 83.3438L210.125 75.625ZM214.281 80.8125C214.385 81.7292 214.708 82.4583 215.25 83C215.812 83.5208 216.531 83.7812 217.406 83.7812C218.74 83.7812 219.708 83.3542 220.312 82.5L221.438 83.4688C221.062 83.9688 220.542 84.375 219.875 84.6875C219.208 85 218.396 85.1562 217.438 85.1562C215.958 85.1562 214.792 84.7083 213.938 83.8125C213.104 82.9167 212.688 81.75 212.688 80.3125C212.688 78.875 213.115 77.7083 213.969 76.8125C214.823 75.9167 215.927 75.4688 217.281 75.4688C218.635 75.4688 219.708 75.9167 220.5 76.8125C221.312 77.6875 221.719 78.8542 221.719 80.3125C221.719 80.5417 221.708 80.7083 221.688 80.8125H214.281ZM217.281 76.8125C216.469 76.8125 215.802 77.0625 215.281 77.5625C214.76 78.0417 214.438 78.7083 214.312 79.5625H220.094C219.99 78.7083 219.688 78.0417 219.188 77.5625C218.688 77.0625 218.052 76.8125 217.281 76.8125ZM228.875 75.4688C229.021 75.4688 229.24 75.4896 229.531 75.5312V77.0625C229.302 77.0417 228.938 77.0312 228.438 77.0312C227.646 77.0312 226.979 77.2812 226.438 77.7812C225.896 78.2812 225.625 78.9167 225.625 79.6875V85H224.062V75.625H225.375L225.5 77.1875C225.854 76.6458 226.323 76.2292 226.906 75.9375C227.51 75.625 228.167 75.4688 228.875 75.4688ZM238.688 76.9688V82.3438C238.688 82.8646 238.792 83.2188 239 83.4062C239.229 83.5938 239.594 83.6875 240.094 83.6875C240.594 83.6875 241.115 83.6146 241.656 83.4688V84.9375C241.073 85.0833 240.469 85.1562 239.844 85.1562C238.948 85.1562 238.271 84.9375 237.812 84.5C237.354 84.0625 237.125 83.4375 237.125 82.625V76.9688H235.281V75.625H237.125L237.375 73.125H238.688V75.625H241.656V76.9688H238.688ZM247.469 85.1562C246.052 85.1562 244.917 84.7188 244.062 83.8438C243.208 82.9688 242.781 81.7917 242.781 80.3125C242.781 78.875 243.219 77.7083 244.094 76.8125C244.969 75.9167 246.094 75.4688 247.469 75.4688C248.885 75.4688 250.021 75.9062 250.875 76.7812C251.729 77.6562 252.156 78.8333 252.156 80.3125C252.156 81.75 251.719 82.9167 250.844 83.8125C249.969 84.7083 248.844 85.1562 247.469 85.1562ZM247.469 83.7812C248.406 83.7812 249.156 83.4688 249.719 82.8438C250.281 82.1979 250.562 81.3542 250.562 80.3125C250.562 79.2708 250.281 78.4375 249.719 77.8125C249.156 77.1667 248.406 76.8438 247.469 76.8438C246.531 76.8438 245.781 77.1667 245.219 77.8125C244.656 78.4375 244.375 79.2708 244.375 80.3125C244.375 81.3542 244.656 82.1979 245.219 82.8438C245.781 83.4688 246.531 83.7812 247.469 83.7812ZM261.844 76.9688V82.3438C261.844 82.8646 261.948 83.2188 262.156 83.4062C262.385 83.5938 262.75 83.6875 263.25 83.6875C263.75 83.6875 264.271 83.6146 264.812 83.4688V84.9375C264.229 85.0833 263.625 85.1562 263 85.1562C262.104 85.1562 261.427 84.9375 260.969 84.5C260.51 84.0625 260.281 83.4375 260.281 82.625V76.9688H258.438V75.625H260.281L260.531 73.125H261.844V75.625H264.812V76.9688H261.844ZM272 75.4688C273.021 75.4688 273.844 75.8021 274.469 76.4688C275.115 77.1146 275.438 77.9792 275.438 79.0625V85H273.875V79.5312C273.875 78.6771 273.677 78.0208 273.281 77.5625C272.885 77.0833 272.333 76.8438 271.625 76.8438C270.812 76.8438 270.125 77.1042 269.562 77.625C269.021 78.1458 268.75 78.8021 268.75 79.5938V85H267.188V72.5H268.75V77C269.125 76.5208 269.594 76.1458 270.156 75.875C270.719 75.6042 271.333 75.4688 272 75.4688ZM279.281 80.8125C279.385 81.7292 279.708 82.4583 280.25 83C280.812 83.5208 281.531 83.7812 282.406 83.7812C283.74 83.7812 284.708 83.3542 285.312 82.5L286.438 83.4688C286.062 83.9688 285.542 84.375 284.875 84.6875C284.208 85 283.396 85.1562 282.438 85.1562C280.958 85.1562 279.792 84.7083 278.938 83.8125C278.104 82.9167 277.688 81.75 277.688 80.3125C277.688 78.875 278.115 77.7083 278.969 76.8125C279.823 75.9167 280.927 75.4688 282.281 75.4688C283.635 75.4688 284.708 75.9167 285.5 76.8125C286.312 77.6875 286.719 78.8542 286.719 80.3125C286.719 80.5417 286.708 80.7083 286.688 80.8125H279.281ZM282.281 76.8125C281.469 76.8125 280.802 77.0625 280.281 77.5625C279.76 78.0417 279.438 78.7083 279.312 79.5625H285.094C284.99 78.7083 284.688 78.0417 284.188 77.5625C283.688 77.0625 283.052 76.8125 282.281 76.8125ZM298.906 75.4688C299.927 75.4688 300.75 75.8021 301.375 76.4688C302.021 77.1146 302.344 77.9792 302.344 79.0625V85H300.781V79.5312C300.781 78.6771 300.583 78.0208 300.188 77.5625C299.792 77.0833 299.24 76.8438 298.531 76.8438C297.698 76.8438 297 77.1042 296.438 77.625C295.896 78.125 295.625 78.7812 295.625 79.5938V85H294.062V75.625H295.375L295.5 77.1875C295.854 76.6458 296.323 76.2292 296.906 75.9375C297.51 75.625 298.177 75.4688 298.906 75.4688ZM306.188 80.8125C306.292 81.7292 306.615 82.4583 307.156 83C307.719 83.5208 308.438 83.7812 309.312 83.7812C310.646 83.7812 311.615 83.3542 312.219 82.5L313.344 83.4688C312.969 83.9688 312.448 84.375 311.781 84.6875C311.115 85 310.302 85.1562 309.344 85.1562C307.865 85.1562 306.698 84.7083 305.844 83.8125C305.01 82.9167 304.594 81.75 304.594 80.3125C304.594 78.875 305.021 77.7083 305.875 76.8125C306.729 75.9167 307.833 75.4688 309.188 75.4688C310.542 75.4688 311.615 75.9167 312.406 76.8125C313.219 77.6875 313.625 78.8542 313.625 80.3125C313.625 80.5417 313.615 80.7083 313.594 80.8125H306.188ZM309.188 76.8125C308.375 76.8125 307.708 77.0625 307.188 77.5625C306.667 78.0417 306.344 78.7083 306.219 79.5625H312C311.896 78.7083 311.594 78.0417 311.094 77.5625C310.594 77.0625 309.958 76.8125 309.188 76.8125ZM323.5 85H321.594L318.875 81.2812L316.094 85H314.25L317.906 80.2188L314.469 75.625H316.375L318.938 79.0938L321.531 75.625H323.344L319.906 80.1875L323.5 85ZM327.438 76.9688V82.3438C327.438 82.8646 327.542 83.2188 327.75 83.4062C327.979 83.5938 328.344 83.6875 328.844 83.6875C329.344 83.6875 329.865 83.6146 330.406 83.4688V84.9375C329.823 85.0833 329.219 85.1562 328.594 85.1562C327.698 85.1562 327.021 84.9375 326.562 84.5C326.104 84.0625 325.875 83.4375 325.875 82.625V76.9688H324.031V75.625H325.875L326.125 73.125H327.438V75.625H330.406V76.9688H327.438ZM340.062 76.9688V82.3438C340.062 82.8646 340.167 83.2188 340.375 83.4062C340.604 83.5938 340.969 83.6875 341.469 83.6875C341.969 83.6875 342.49 83.6146 343.031 83.4688V84.9375C342.448 85.0833 341.844 85.1562 341.219 85.1562C340.323 85.1562 339.646 84.9375 339.188 84.5C338.729 84.0625 338.5 83.4375 338.5 82.625V76.9688H336.656V75.625H338.5L338.75 73.125H340.062V75.625H343.031V76.9688H340.062ZM352.875 83.625V85C352.792 85.0417 352.615 85.0625 352.344 85.0625C351.76 85.0625 351.333 84.9479 351.062 84.7188C350.812 84.4896 350.667 84.0938 350.625 83.5312C350.271 84.0312 349.792 84.4271 349.188 84.7188C348.604 85.0104 347.969 85.1562 347.281 85.1562C346.365 85.1562 345.625 84.9062 345.062 84.4062C344.5 83.8854 344.219 83.2083 344.219 82.375C344.219 81.375 344.583 80.6667 345.312 80.25C346.062 79.8125 347.042 79.5 348.25 79.3125C349.146 79.1667 349.729 79.0312 350 78.9062C350.292 78.7812 350.438 78.5417 350.438 78.1875C350.438 77.7708 350.24 77.4375 349.844 77.1875C349.469 76.9375 348.969 76.8125 348.344 76.8125C347.802 76.8125 347.271 76.9271 346.75 77.1562C346.25 77.3646 345.802 77.6771 345.406 78.0938L344.438 77.0938C345.521 76.0104 346.844 75.4688 348.406 75.4688C349.49 75.4688 350.344 75.7396 350.969 76.2812C351.594 76.8229 351.906 77.5729 351.906 78.5312V83C351.906 83.4167 352.115 83.625 352.531 83.625H352.875ZM347.469 83.8438C348.26 83.8438 348.948 83.6146 349.531 83.1562C350.115 82.6771 350.406 82.1146 350.406 81.4688V80.0312C350.24 80.1562 350.021 80.25 349.75 80.3125C349.479 80.375 349.052 80.4479 348.469 80.5312C347.573 80.6771 346.896 80.8646 346.438 81.0938C346 81.3229 345.781 81.7396 345.781 82.3438C345.781 82.8229 345.927 83.1979 346.219 83.4688C346.51 83.7188 346.927 83.8438 347.469 83.8438ZM357.906 85.1562C356.323 85.1562 355.01 84.6667 353.969 83.6875L354.875 82.5938C355.667 83.3854 356.688 83.7812 357.938 83.7812C358.604 83.7812 359.125 83.6667 359.5 83.4375C359.875 83.2083 360.062 82.8958 360.062 82.5C360.062 82.1458 359.896 81.8542 359.562 81.625C359.229 81.3958 358.615 81.1771 357.719 80.9688C356.49 80.6562 355.625 80.2917 355.125 79.875C354.625 79.4583 354.375 78.8958 354.375 78.1875C354.375 77.375 354.698 76.7188 355.344 76.2188C356.01 75.7188 356.875 75.4688 357.938 75.4688C359.229 75.4688 360.375 75.8542 361.375 76.625L360.438 77.8438C359.729 77.1771 358.875 76.8438 357.875 76.8438C357.271 76.8438 356.792 76.9583 356.438 77.1875C356.083 77.3958 355.906 77.6875 355.906 78.0625C355.906 78.3958 356.073 78.6771 356.406 78.9062C356.74 79.1146 357.323 79.3229 358.156 79.5312C359.406 79.8854 360.281 80.2708 360.781 80.6875C361.302 81.1042 361.562 81.6667 361.562 82.375C361.562 83.2292 361.229 83.9062 360.562 84.4062C359.896 84.9062 359.01 85.1562 357.906 85.1562ZM370.281 85L366.875 80.4688L365.469 81.7812V85H363.906V72.5H365.469V79.9688L370.031 75.625H372.031L368 79.4062L372.219 85H370.281ZM376.188 81.5625C376.146 80.9583 376.219 80.4792 376.406 80.125C376.615 79.7708 377.042 79.3333 377.688 78.8125C378.271 78.3333 378.667 77.9271 378.875 77.5938C379.104 77.2604 379.219 76.8854 379.219 76.4688C379.219 75.8021 379.021 75.2812 378.625 74.9062C378.229 74.5312 377.688 74.3438 377 74.3438C376.229 74.3438 375.604 74.5938 375.125 75.0938C374.646 75.5729 374.375 76.2292 374.312 77.0625L372.844 76.75C372.948 75.6042 373.385 74.6875 374.156 74C374.927 73.3125 375.896 72.9688 377.062 72.9688C378.188 72.9688 379.094 73.2812 379.781 73.9062C380.469 74.5312 380.812 75.3542 380.812 76.375C380.812 77.0208 380.646 77.6042 380.312 78.125C380 78.6458 379.479 79.1771 378.75 79.7188C378.271 80.0729 377.927 80.3854 377.719 80.6562C377.531 80.9062 377.438 81.1562 377.438 81.4062V81.5625H376.188ZM377.969 82.8125V85H375.781V82.8125H377.969Z" fill="#2F343B"/>
</svg>
