<svg width="103" height="32" viewBox="0 0 103 32" fill="none" xmlns="http://www.w3.org/2000/svg">
<g clip-path="url(#clip0_1692_15106)">
<path d="M71.5475 2.45723C71.5475 2.45723 69.633 3.21852 67.4064 5.66991C65.1797 8.12131 63.8829 10.8779 64.8426 11.611C65.2113 11.8896 66.0614 11.9427 67.604 10.5495C69.0275 9.31486 70.145 7.76719 70.8684 6.02817C71.8646 3.60165 71.5475 2.48708 71.5475 2.46055M83.7334 6.86742C81.2594 5.60025 79.4512 4.04781 77.5699 3.08749C75.775 2.16698 74.6143 1.78218 73.1631 1.97624C72.9607 2.01228 72.7609 2.06216 72.5653 2.12551C72.5653 2.12551 73.3125 4.67476 70.3387 8.95724C67.3267 13.2994 64.5936 13.2696 63.8165 12.077C63.0029 10.8182 64.0539 8.25234 65.809 5.96846C67.6471 3.58009 70.875 1.59974 70.875 1.59974C70.875 1.59974 69.8455 0.971134 67.3184 2.4025C64.8526 3.79239 60.6085 7.10957 56.67 12.704C52.7314 18.2984 51.951 21.3767 51.3864 23.7999C50.8219 26.2231 51.335 28.8188 54.0249 28.8188C56.7148 28.8188 59.8464 24.7205 60.7297 23.2957C62.3719 20.642 63.4429 16.5718 61.2079 17.1308C60.1071 17.4061 59.2154 18.6235 58.6525 19.7961C58.2972 20.5493 58.0254 21.339 57.8422 22.1513C57.0613 22.4728 56.3278 22.8991 55.6621 23.4185C54.9215 23.9664 54.2293 24.5768 53.5932 25.2429C53.5932 25.2429 53.6031 23.3057 55.149 20.1709C56.6949 17.0362 59.5326 15.6049 61.1399 15.4705C62.5878 15.3544 64.4724 16.5818 62.875 21.1097C61.2777 25.6377 56.5654 31.1425 51.6156 31.2105C47.0477 31.2735 44.0589 25.4502 50.4168 15.2881C57.4537 4.06108 65.7077 0.616196 68.3877 0.233062C71.0676 -0.150072 71.9393 1.03084 71.9393 1.03084C73.5526 0.369738 75.2949 0.0827897 77.0352 0.191597C80.308 0.412189 82.8385 2.72592 86.1793 4.35134C85.3109 5.18063 84.4823 6.05139 83.7351 6.86742M98.4366 3.08749C96.1685 4.54042 93.0302 5.85734 90.0149 5.57538C89.2511 6.3632 88.4342 7.27543 87.6156 8.27058C92.8443 9.30388 97.4254 6.06798 99.8613 3.31306C100.749 2.32257 101.512 1.22688 102.133 0.0506172C101.024 1.20441 99.7826 2.22372 98.435 3.08749M91.4727 17.8025C91.5124 17.7336 91.5446 17.6608 91.5691 17.5852C91.5535 17.4656 91.4974 17.3549 91.4101 17.2716C91.3228 17.1883 91.2095 17.1374 91.0892 17.1274C90.5911 17.1042 89.9119 17.1988 88.1303 19.1692C86.6523 20.7963 85.3802 22.5989 84.3428 24.5364C83.3233 26.3973 82.9099 27.7839 83.496 28.1421C83.6864 28.2407 83.9072 28.2632 84.1137 28.2052C84.5105 28.1106 84.9605 27.7391 85.6446 26.9479C85.9651 26.5764 86.3204 26.0506 86.7455 25.4685C87.9244 23.8663 90.8866 18.8225 91.4727 17.8025ZM72.9655 19.9454C73.2627 19.1692 73.6413 17.6449 72.8542 17.0462C72.0091 16.4109 69.8538 17.902 69.8422 19.4312C69.8273 20.9969 71.3599 21.7051 71.7268 21.8047C71.936 21.8611 72.0091 21.8528 72.1104 21.6852C72.4354 21.1258 72.7212 20.5444 72.9655 19.9454ZM71.335 22.7932C70.8009 22.5468 70.3026 22.2294 69.8538 21.8494C69.4038 21.4724 69.0277 21.0151 68.7447 20.501C68.7148 20.4513 68.6849 20.4894 68.6517 20.5342C68.6185 20.579 68.4856 20.7 67.3366 22.3818C66.1876 24.0637 64.4225 27.5484 66.0199 28.1421C67.0427 28.5219 68.7447 26.7323 69.6729 25.5464C70.3052 24.7187 70.8784 23.8474 71.3881 22.9391C71.4362 22.838 71.3881 22.8147 71.3366 22.7932M89.4553 26.8186C89.0219 27.5119 88.5271 28.8421 89.9534 28.0144C91.6986 27.0077 94.1842 23.241 94.1842 23.241H95.3117C94.2858 24.8166 93.1436 26.3135 91.8945 27.7192C90.1261 29.6763 87.9692 31.4543 86.4499 31.2785C84.6749 31.0712 85.2312 28.7442 85.2312 28.7442C85.2312 28.7442 82.6923 31.4444 80.9356 31.2503C78.5628 30.9883 79.2868 28.0592 79.2868 28.0592C79.2868 28.0592 76.6035 31.3482 74.7754 31.247C71.9095 31.0811 72.6301 27.5981 73.4271 25.1451C73.8538 23.8331 74.249 22.8031 74.249 22.8031C74.249 22.8031 73.9651 22.8778 73.354 22.969C73.0352 23.0138 72.4541 23.0469 72.4541 23.0469C72.4541 23.0469 71.2602 25.15 70.3055 26.4139C69.3507 27.6777 65.2926 32.0348 62.9049 31.1624C60.6965 30.3563 61.4271 26.9795 62.7123 24.2959C64.5886 20.3832 69.8655 14.7623 72.909 15.5053C76.0639 16.27 72.9804 22.0203 72.9804 22.0203C72.9804 22.0203 72.9804 22.0418 73.0136 22.0568C73.0768 22.08 73.2411 22.0982 73.6214 22.0236C74.0154 21.9433 74.4016 21.8284 74.7754 21.6803C74.7754 21.6803 77.9468 15.0459 81.4503 10.7054C84.9539 6.36486 91.9426 -1.11039 94.6857 0.697467C95.3499 1.14197 95.051 2.67285 94.1477 4.53046C93.7409 4.66247 93.3274 4.77319 92.909 4.86218C93.5134 3.76585 93.9136 2.84202 94.0331 2.19683C94.4466 -0.0455811 89.2046 4.68471 85.4586 9.76663C83.2023 12.8303 81.1977 16.0712 79.4645 19.4578C80.1412 19.0455 80.7871 18.5849 81.3972 18.0795C83.0681 16.6956 84.656 15.2147 86.1527 13.6444C87.5939 12.1706 88.9457 10.612 90.2008 8.97714C90.5996 8.95787 90.9971 8.9169 91.3914 8.8544C90.0229 10.7097 88.5306 12.4707 86.9248 14.1254C85.4304 15.6347 83.8131 17.2585 82.4084 18.4377C81.1537 19.5035 79.8302 20.4859 78.4466 21.3784C78.4466 21.3784 75.1706 27.9779 76.9522 28.4009C77.9999 28.653 80.0689 25.4701 80.0689 25.4701C80.0689 25.4701 82.7687 21.3552 84.396 19.4992C86.616 16.9782 88.5271 15.5186 90.4366 15.4921C91.5491 15.4722 92.205 16.6531 92.205 16.6531L92.728 15.8437H95.9493C95.9493 15.8437 89.9335 26.0407 89.452 26.8086M98.435 3.08749C96.1668 4.54042 93.0286 5.85734 90.0132 5.57538C89.2494 6.3632 88.4325 7.27543 87.6139 8.27058C92.8426 9.30388 97.4238 6.06798 99.8596 3.31306C100.748 2.32266 101.512 1.22697 102.133 0.0506172C101.024 1.20441 99.7826 2.22372 98.435 3.08749ZM53.1963 8.08979H50.1328L48.401 10.8845H51.4645L53.1963 8.08979ZM38.6907 17.7677C39.9942 15.983 43.5907 9.72848 43.5907 9.72848C43.5755 9.60901 43.5198 9.49837 43.4327 9.41504C43.3457 9.33172 43.2326 9.28077 43.1125 9.27071C42.6144 9.24749 41.7841 9.41501 40.1353 11.4766C38.4865 13.5383 37.2063 15.1786 36.2731 16.8853C35.2503 18.7479 34.8037 20.0615 35.3915 20.4181C35.5822 20.5135 35.8013 20.536 36.0075 20.4811C36.3894 20.3849 36.8892 20.0018 37.5749 19.2139C37.8971 18.8457 38.2624 18.3498 38.6907 17.7677ZM22.2524 9.30886C21.4056 8.6703 19.252 10.1647 19.2404 11.6906C19.2271 13.258 21.1781 13.7373 21.4305 13.7489C21.5047 13.7551 21.5792 13.7395 21.6447 13.7041C21.6897 13.6779 21.7256 13.6385 21.7476 13.5913C21.977 13.1411 22.1832 12.6794 22.3653 12.2081C22.6625 11.4318 23.0395 9.90761 22.2524 9.30886ZM20.9755 14.7042C20.3916 14.522 19.8336 14.2656 19.3151 13.9413C18.8127 13.6141 18.4041 13.162 18.1295 12.6293C18.0997 12.5796 18.0664 12.6177 18.0366 12.6625C18.0067 12.7073 17.834 12.9229 16.6816 14.6114C15.5293 16.2998 13.8224 19.753 15.4214 20.3468C16.4409 20.7332 18.1627 18.9287 19.0976 17.7478C19.7971 16.8197 20.4435 15.8529 21.0336 14.8519C21.0718 14.7507 21.0336 14.7275 20.9772 14.7092M45.9967 15.7442H47.1191C47.1191 15.7442 41.4952 23.8713 38.3188 23.4931C36.5455 23.2858 37.0718 21.0998 37.0718 21.0998C37.0718 21.0998 34.5812 24.0122 32.2931 23.4218C30.2175 22.8894 31.5575 19.4412 31.5575 19.4412C31.3217 19.5357 26.8302 24.5927 23.6737 23.3803C20.3711 22.1065 22.0864 17.8721 22.714 16.5984C23.247 15.5252 23.8365 14.4803 23.8365 14.4803C23.8365 14.4803 23.33 14.623 23.0062 14.696C22.6825 14.7689 22.2142 14.8618 22.2142 14.8618C22.2142 14.8618 20.6517 17.3978 19.697 18.6633C18.7422 19.9288 14.6841 24.2776 12.2931 23.4118C9.90207 22.546 10.4948 19.204 11.8381 16.5503C14.0166 12.2462 19.1856 6.95698 22.2989 7.75974C25.4438 8.56083 22.8402 13.656 22.8402 13.656C22.8402 13.656 23.4662 13.7373 24.9656 12.7156C27.1241 11.2444 29.9734 7.28704 33.0585 7.75144C34.5131 7.97038 35.868 9.45481 34.0149 12.2744C33.4238 13.18 32.4326 13.9894 31.6737 13.1883C31.2005 12.6907 31.614 11.7835 32.1104 11.1632C32.3037 10.9103 32.5562 10.7088 32.8457 10.5763C33.1353 10.4438 33.453 10.3845 33.7709 10.4035C33.7709 10.4035 34.2806 9.24251 32.9838 9.2591C31.9344 9.279 29.2777 11.7221 27.7783 14.1901C26.4035 16.4557 24.3197 20.3152 26.4118 21.1562C28.3296 21.9291 31.9793 17.6018 33.6696 15.3345C35.3599 13.0672 39.2121 7.92891 42.4433 7.72325C43.5558 7.65027 44.2183 8.66367 44.2183 8.66367L44.5919 8.07321H47.8232C47.8232 8.07321 41.7376 18.2171 41.2628 18.9851C40.8892 19.5855 40.3927 20.9356 41.7609 20.1792C43.1291 19.4229 45.9967 15.7442 45.9967 15.7442ZM44.2383 31.9983C41.8591 30.3533 39.0102 29.5228 36.1187 29.6315C35.3361 29.6529 34.5695 29.8581 33.8812 30.2308C33.1928 30.6034 32.6021 31.1328 32.1569 31.7761C30.9249 29.6282 28.489 28.3096 24.7231 28.3395C18.6376 28.4092 12.6019 31.2122 7.81988 31.2089C3.23707 31.2089 -0.105388 28.3312 0.00254053 23.2211C0.203454 14.2531 7.78999 6.17744 13.4521 2.54348C16.7165 0.455313 19.4463 -0.164999 21.2312 0.0356899C22.533 0.179987 24.0988 1.68267 23.1109 3.89688C21.6596 7.13279 19.6555 6.86741 19.7302 5.31995C19.7717 4.31319 20.4425 3.67961 20.9473 3.32965C21.2678 3.10905 21.834 3.04603 22.1295 3.03939C22.4168 2.79724 22.6277 1.02587 20.3031 1.60803C17.9784 2.1902 15.1557 4.47905 12.4757 7.43631C9.7958 10.3936 5.62312 15.983 4.59199 21.8528C4.11046 24.5745 4.42595 29.5387 10.8867 29.4823C16.3662 29.4375 24.4425 25.8334 31.8647 25.908C34.7455 25.9362 37.2528 26.7124 39.2071 27.9166C41.1266 29.0975 43.428 30.8224 44.2449 32" fill="#18181B" fill-opacity="0.8"/>
</g>
<defs>
<clipPath id="clip0_1692_15106">
<rect width="103" height="32" fill="white"/>
</clipPath>
</defs>
</svg>
