<svg width="77" height="24" viewBox="0 0 77 24" fill="none" xmlns="http://www.w3.org/2000/svg">
<g clip-path="url(#clip0_7765_4634)">
<path d="M53.487 1.84292C53.487 1.84292 52.0557 2.41389 50.3912 4.25244C48.7266 6.09098 47.7571 8.15841 48.4746 8.70823C48.7502 8.91721 49.3857 8.95702 50.5389 7.91211C51.6031 6.98615 52.4385 5.82539 52.9793 4.52113C53.724 2.70124 53.487 1.86531 53.487 1.84541M62.5968 5.15056C60.7473 4.20019 59.3955 3.03586 57.9891 2.31562C56.6473 1.62523 55.7796 1.33664 54.6947 1.48218C54.5434 1.50921 54.3941 1.54662 54.2479 1.59413C54.2479 1.59413 54.8065 3.50607 52.5833 6.71793C50.3316 9.97456 48.2884 9.95217 47.7075 9.05778C47.0992 8.11363 47.885 6.18925 49.197 4.47635C50.5711 2.68507 52.9842 1.1998 52.9842 1.1998C52.9842 1.1998 52.2146 0.72835 50.3254 1.80187C48.482 2.84429 45.3093 5.33218 42.3649 9.52799C39.4206 13.7238 38.8372 16.0326 38.4151 17.85C37.9931 19.6674 38.3766 21.6141 40.3875 21.6141C42.3984 21.6141 44.7395 18.5403 45.3999 17.4718C46.6275 15.4815 47.4282 12.4289 45.7574 12.8481C44.9344 13.0546 44.2678 13.9676 43.847 14.8471C43.5814 15.412 43.3782 16.0043 43.2413 16.6135C42.6575 16.8546 42.1091 17.1743 41.6115 17.5639C41.0578 17.9748 40.5404 18.4326 40.0648 18.9322C40.0648 18.9322 40.0722 17.4793 41.2279 15.1282C42.3835 12.7772 44.5049 11.7036 45.7065 11.6029C46.7889 11.5158 48.1978 12.4363 47.0037 15.8323C45.8095 19.2282 42.2867 23.3569 38.5864 23.4079C35.1716 23.4552 32.9373 19.0877 37.6902 11.466C42.9508 3.04581 49.1213 0.462147 51.1248 0.174796C53.1282 -0.112554 53.7799 0.773132 53.7799 0.773132C54.9859 0.277304 56.2884 0.0620923 57.5894 0.143698C60.036 0.309142 61.9278 2.04444 64.4253 3.2635C63.7761 3.88547 63.1567 4.53854 62.5981 5.15056M73.5885 2.31562C71.8929 3.40531 69.5469 4.393 67.2927 4.18153C66.7217 4.7724 66.111 5.45657 65.499 6.20294C69.4079 6.97791 72.8326 4.55098 74.6536 2.48479C75.3174 1.74193 75.8877 0.920164 76.3517 0.0379629C75.5226 0.903306 74.5948 1.66779 73.5873 2.31562M68.3825 13.3519C68.4121 13.3002 68.4363 13.2456 68.4545 13.1889C68.4429 13.0992 68.401 13.0162 68.3357 12.9537C68.2704 12.8912 68.1858 12.8531 68.0958 12.8456C67.7234 12.8282 67.2157 12.8991 65.8838 14.3769C64.7789 15.5973 63.8279 16.9492 63.0524 18.4023C62.2902 19.798 61.9812 20.8379 62.4193 21.1066C62.5617 21.1805 62.7268 21.1974 62.8811 21.1539C63.1778 21.083 63.5142 20.8043 64.0256 20.211C64.2652 19.9323 64.5308 19.538 64.8486 19.1014C65.7299 17.8997 67.9444 14.1169 68.3825 13.3519ZM54.547 14.959C54.7692 14.3769 55.0522 13.2337 54.4639 12.7846C53.832 12.3082 52.2208 13.4265 52.2121 14.5734C52.201 15.7477 53.3467 16.2789 53.621 16.3535C53.7774 16.3958 53.832 16.3896 53.9078 16.2639C54.1508 15.8443 54.3644 15.4083 54.547 14.959ZM53.3281 17.0949C52.9288 16.9101 52.5563 16.672 52.2208 16.3871C51.8844 16.1043 51.6032 15.7614 51.3916 15.3758C51.3693 15.3384 51.347 15.367 51.3221 15.4006C51.2973 15.4342 51.198 15.525 50.339 16.7864C49.48 18.0477 48.1605 20.6613 49.3547 21.1066C50.1193 21.3915 51.3916 20.0492 52.0855 19.1598C52.5583 18.539 52.9868 17.8856 53.3678 17.2044C53.4038 17.1285 53.3678 17.1111 53.3293 17.0949M66.8744 20.1139C66.5504 20.6339 66.1805 21.6315 67.2467 21.0108C68.5514 20.2557 70.4096 17.4307 70.4096 17.4307H71.2524C70.4855 18.6125 69.6316 19.7351 68.6978 20.7894C67.3758 22.2572 65.7634 23.5907 64.6276 23.4589C63.3007 23.3034 63.7165 21.5581 63.7165 21.5581C63.7165 21.5581 61.8186 23.5833 60.5053 23.4377C58.7314 23.2412 59.2726 21.0444 59.2726 21.0444C59.2726 21.0444 57.2667 23.5111 55.9 23.4353C53.7576 23.3109 54.2963 20.6986 54.8921 18.8588C55.2111 17.8748 55.5065 17.1023 55.5065 17.1023C55.5065 17.1023 55.2943 17.1583 54.8375 17.2267C54.5992 17.2603 54.1647 17.2852 54.1647 17.2852C54.1647 17.2852 53.2722 18.8625 52.5585 19.8104C51.8447 20.7583 48.811 24.0261 47.026 23.3718C45.3751 22.7673 45.9212 20.2346 46.882 18.2219C48.2847 15.2874 52.2295 11.0717 54.5048 11.629C56.8633 12.2025 54.5582 16.5152 54.5582 16.5152C54.5582 16.5152 54.5582 16.5314 54.583 16.5426C54.6302 16.56 54.7531 16.5737 55.0373 16.5177C55.3319 16.4575 55.6206 16.3713 55.9 16.2602C55.9 16.2602 58.2709 11.2844 60.8901 8.02904C63.5092 4.77365 68.7338 -0.832796 70.7844 0.5231C71.281 0.856476 71.0575 2.00463 70.3823 3.39785C70.0781 3.49685 69.769 3.57989 69.4563 3.64664C69.9081 2.82439 70.2072 2.13152 70.2966 1.64762C70.6057 -0.0341858 66.6869 3.51353 63.8866 7.32497C62.1998 9.62272 60.7012 12.0534 59.4055 14.5933C59.9113 14.2841 60.3942 13.9387 60.8503 13.5596C62.0994 12.5217 63.2865 11.411 64.4054 10.2333C65.4828 9.12793 66.4934 7.95903 67.4317 6.73285C67.7298 6.71841 68.0269 6.68768 68.3217 6.6408C67.2987 8.0323 66.1831 9.35305 64.9826 10.594C63.8655 11.726 62.6564 12.9439 61.6063 13.8283C60.6683 14.6277 59.6789 15.3644 58.6446 16.0338C58.6446 16.0338 56.1955 20.9834 57.5274 21.3006C58.3106 21.4897 59.8573 19.1026 59.8573 19.1026C59.8573 19.1026 61.8757 16.0164 63.0921 14.6244C64.7517 12.7336 66.1805 11.639 67.608 11.6191C68.4396 11.6041 68.9299 12.4898 68.9299 12.4898L69.321 11.8828H71.7291C71.7291 11.8828 67.2319 19.5305 66.8719 20.1065M73.5873 2.31562C71.8917 3.40531 69.5456 4.393 67.2914 4.18153C66.7204 4.7724 66.1097 5.45657 65.4978 6.20294C69.4066 6.97791 72.8314 4.55098 74.6523 2.48479C75.3166 1.74199 75.8873 0.92023 76.3517 0.0379629C75.5226 0.903306 74.5948 1.66779 73.5873 2.31562ZM39.7681 6.06735H37.4779L36.1833 8.16339H38.4735L39.7681 6.06735ZM28.9241 13.3257C29.8986 11.9873 32.5872 7.29636 32.5872 7.29636C32.5759 7.20676 32.5342 7.12377 32.4691 7.06128C32.404 6.99879 32.3195 6.96058 32.2297 6.95303C31.8573 6.93562 31.2367 7.06125 30.0041 8.60747C28.7715 10.1537 27.8144 11.384 27.1168 12.664C26.3522 14.0609 26.0183 15.0461 26.4577 15.3136C26.6003 15.3852 26.7641 15.402 26.9182 15.3608C27.2037 15.2887 27.5773 15.0013 28.09 14.4105C28.3308 14.1343 28.6039 13.7624 28.9241 13.3257ZM16.6353 6.98164C16.0022 6.50273 14.3923 7.62352 14.3836 8.76794C14.3736 9.94347 15.8322 10.303 16.0209 10.3117C16.0764 10.3163 16.132 10.3046 16.181 10.2781C16.2146 10.2584 16.2415 10.2289 16.2579 10.1935C16.4294 9.8558 16.5835 9.50953 16.7197 9.15605C16.9419 8.57389 17.2237 7.43071 16.6353 6.98164ZM15.6807 11.0282C15.2442 10.8915 14.827 10.6992 14.4394 10.456C14.0638 10.2106 13.7584 9.87149 13.5532 9.47201C13.5308 9.43469 13.506 9.4633 13.4836 9.49689C13.4613 9.53048 13.3322 9.69219 12.4707 10.9585C11.6093 12.2249 10.3332 14.8147 11.5286 15.2601C12.2908 15.5499 13.578 14.1965 14.2768 13.3108C14.7998 12.6148 15.283 11.8897 15.7242 11.1389C15.7527 11.063 15.7242 11.0456 15.682 11.0319M34.3859 11.8081H35.225C35.225 11.8081 31.0207 17.9034 28.6461 17.6198C27.3204 17.4643 27.7139 15.8248 27.7139 15.8248C27.7139 15.8248 25.8519 18.0092 24.1414 17.5663C22.5898 17.167 23.5915 14.5809 23.5915 14.5809C23.4153 14.6518 20.0576 18.4446 17.6978 17.5352C15.2289 16.5799 16.5112 13.4041 16.9804 12.4488C17.3788 11.6439 17.8195 10.8603 17.8195 10.8603C17.8195 10.8603 17.4409 10.9672 17.1988 11.022C16.9568 11.0767 16.6067 11.1464 16.6067 11.1464C16.6067 11.1464 15.4387 13.0483 14.7249 13.9975C14.0112 14.9466 10.9775 18.2082 9.18999 17.5589C7.40252 16.9095 7.84566 14.403 8.84987 12.4127C10.4785 9.18466 14.3426 5.21773 16.6701 5.8198C19.0211 6.42062 17.0747 10.242 17.0747 10.242C17.0747 10.242 17.5427 10.303 18.6636 9.5367C20.2773 8.43332 22.4073 5.46528 24.7137 5.81358C25.801 5.97778 26.8139 7.09111 25.4287 9.20581C24.9867 9.885 24.2457 10.492 23.6784 9.89122C23.3247 9.51804 23.6337 8.8376 24.0049 8.37237C24.1493 8.18272 24.3381 8.03157 24.5546 7.93222C24.771 7.83287 25.0085 7.78837 25.2462 7.80264C25.2462 7.80264 25.6273 6.93188 24.6578 6.94432C23.8733 6.95925 21.8872 8.79158 20.7663 10.6426C19.7385 12.3418 18.1807 15.2364 19.7447 15.8671C21.1784 16.4468 23.9068 13.2013 25.1705 11.5009C26.4341 9.80041 29.3139 5.94668 31.7295 5.79243C32.5612 5.7377 33.0564 6.49775 33.0564 6.49775L33.3357 6.05491H35.7513C35.7513 6.05491 31.2019 13.6628 30.8469 14.2388C30.5676 14.6891 30.1965 15.7017 31.2193 15.1344C32.2421 14.5672 34.3859 11.8081 34.3859 11.8081ZM33.0713 23.9988C31.2927 22.7649 29.163 22.1421 27.0014 22.2237C26.4163 22.2396 25.8432 22.3936 25.3286 22.6731C24.8141 22.9525 24.3725 23.3496 24.0396 23.8321C23.1186 22.2212 21.2976 21.2322 18.4823 21.2546C13.933 21.3069 9.42087 23.4091 5.84593 23.4066C2.41995 23.4066 -0.0787852 21.2484 0.00189923 17.4158C0.152096 10.6898 5.82359 4.63308 10.0564 1.90761C12.4968 0.341484 14.5375 -0.123749 15.8719 0.0267674C16.8451 0.13499 18.0156 1.262 17.277 2.92266C16.1922 5.34959 14.6939 5.15056 14.7498 3.98996C14.7808 3.23489 15.2823 2.75971 15.6596 2.49723C15.8992 2.33179 16.3225 2.28452 16.5434 2.27954C16.7582 2.09793 16.9158 0.7694 15.178 1.20602C13.4402 1.64265 11.33 3.35929 9.32653 5.57723C7.32308 7.79518 4.20369 11.9873 3.43285 16.3896C3.07287 18.4309 3.30872 22.154 8.13861 22.1117C12.2349 22.0781 18.2726 19.375 23.8212 19.431C25.9748 19.4522 27.8492 20.0343 29.3102 20.9374C30.7451 21.8231 32.4656 23.1168 33.0763 24" fill="white"/>
</g>
<defs>
<clipPath id="clip0_7765_4634">
<rect width="77" height="24" fill="white"/>
</clipPath>
</defs>
</svg>
