<svg width="67" height="24" viewBox="0 0 67 24" fill="none" xmlns="http://www.w3.org/2000/svg">
<g clip-path="url(#clip0_440_287)">
<path d="M27.6927 5.6349C27.6927 5.6349 27.9487 5.30618 28.162 5.0505C28.546 4.6122 29.2286 3.99128 29.7832 3.58951C29.9538 3.47993 30.1245 3.33383 30.1245 3.33383C30.1245 3.33383 29.8258 3.37036 29.6552 3.40688C29.2712 3.47993 28.6739 3.80866 28.3753 4.02781C27.906 4.39305 27.3514 4.94093 27.6074 5.4888C27.65 5.52532 27.6927 5.6349 27.6927 5.6349ZM30.3804 6.25582C31.1484 6.2193 31.8736 6.03667 32.5136 5.70795C33.1535 5.37922 34.1347 4.79483 34.0494 4.06433C34.0068 3.84518 33.8361 3.66256 33.6228 3.58951C33.3242 3.47993 33.1962 3.51646 32.8122 3.58951C32.5562 3.66256 32.4282 3.69908 32.1723 3.80866C31.4043 4.17391 30.3378 4.97745 29.7832 5.59837C29.6552 5.74447 29.5272 5.9271 29.3992 6.03667C29.3139 6.10972 29.2712 6.18277 29.2712 6.18277C29.3139 6.25582 30.0818 6.25582 30.3804 6.25582ZM28.418 7.46114C28.3326 7.53419 28.2473 7.71681 28.162 7.82639C28.1193 7.89944 28.034 7.97249 27.9913 8.00901C27.778 8.11859 27.6074 8.15511 27.4367 8.00901C27.1808 7.78986 27.0101 7.49766 27.0101 7.16894V6.76717C26.9674 6.58454 26.7541 6.36539 26.6261 6.18277C26.4982 5.96362 26.3702 5.59837 26.3702 5.3427C26.3275 4.57568 26.7968 3.88171 27.3941 3.33383C27.9913 2.78596 28.8019 2.31114 29.6552 2.01894C30.4658 1.72674 31.6603 1.50759 32.5562 1.79979C32.8549 1.87284 33.2388 2.09199 33.4521 2.31114C33.4948 2.34766 33.5375 2.42071 33.5801 2.42071C33.6228 2.45724 33.7081 2.45724 33.7934 2.45724C34.0921 2.49376 34.476 2.67639 34.6467 2.82249C34.988 3.07816 35.1586 3.29731 35.244 3.66256C35.4146 4.35653 34.9453 5.12355 34.4334 5.59837C33.5375 6.40192 32.5989 6.94979 31.447 7.35157C30.9351 7.53419 30.1245 7.68029 29.5699 7.64376C29.3992 7.64376 29.1859 7.60724 29.0152 7.57071C28.9299 7.57071 28.5886 7.49766 28.546 7.46114C28.5033 7.49766 28.4606 7.46114 28.418 7.46114ZM29.4845 8.99518C29.5272 8.99518 29.5699 9.03171 29.6125 9.03171C30.0391 9.17781 30.2098 9.50653 30.2951 9.83525C30.5511 10.6753 30.6364 12.5016 30.6791 13.1955C30.7217 13.7434 30.7217 14.2548 30.7644 14.8026C30.8071 15.2409 30.8071 15.8619 30.7217 16.2636C30.6791 16.4097 30.5511 16.5923 30.3804 16.7019C30.1671 16.8115 29.7405 16.8115 29.4845 16.775C28.8873 16.6654 28.6739 16.3367 28.5886 15.8253C28.3753 14.62 28.5033 12.2459 28.5886 11.2232C28.6313 10.8945 28.7593 9.83525 28.9726 9.39696C29.0579 9.28738 29.2286 8.95866 29.4845 8.99518ZM11.0117 10.8214C11.0117 10.8214 10.1158 10.8579 9.5185 10.931C8.75058 11.004 7.30005 11.2232 6.4468 11.4789C6.19083 11.5519 5.67888 11.7345 5.63622 11.9537C5.59355 12.1728 5.7642 12.3555 5.93485 12.5381C6.06284 12.6477 6.66012 13.159 6.83077 13.2686C7.55603 13.7799 9.00655 14.5835 10.0731 14.9487C10.4571 15.0948 11.0543 15.2775 11.0543 15.2775C11.0543 15.2775 11.0117 13.7799 11.0117 12.3189C10.969 11.5884 11.0117 10.8214 11.0117 10.8214ZM27.2661 11.4058C27.3087 11.8076 27.1808 12.5746 27.1808 12.6477C27.1381 12.8668 26.9248 13.4147 26.9248 13.4512C26.7541 13.7799 26.5835 14.0356 26.4128 14.2913C26.1142 14.7296 25.4316 15.4601 25.005 15.7523C23.4691 16.8845 21.1227 17.542 19.0749 17.7246C17.7097 17.8707 16.1312 17.8342 14.638 17.615C14.126 17.542 13.4008 17.3959 13.4008 17.3959C13.4008 17.3959 13.4008 17.6516 13.3581 17.8342C13.3581 17.9072 13.2728 18.1264 13.2301 18.1994C13.1448 18.3821 12.9315 18.4916 12.7182 18.5282C12.4195 18.5647 12.0782 18.6012 11.8223 18.4916C11.353 18.309 11.1823 17.9438 11.097 17.542C11.0117 17.2133 10.969 16.5923 10.969 16.5923C10.969 16.5923 10.6277 16.4462 10.3291 16.3367C9.43318 15.9714 8.57993 15.4966 7.85466 15.0218C7.64135 14.8757 6.7881 14.2548 6.57479 14.1087C6.02018 13.6704 5.55089 13.2321 5.16693 12.6477C4.86829 12.2094 4.78297 11.8076 4.99628 11.3328C5.29492 10.6753 6.40414 10.2005 7.1294 9.9083C7.68401 9.68916 9.39051 9.21433 10.0731 9.14128C10.4144 9.10476 10.9264 9.03171 10.969 8.99518C10.969 8.99518 11.0117 8.99518 11.0117 8.95866C11.0117 8.92213 11.0543 8.30121 11.0543 8.04554C11.0543 7.82639 11.2677 6.29235 11.3103 5.96362C11.353 5.781 11.481 5.12355 11.6516 4.94093C11.7369 4.83135 11.9503 4.83135 12.0782 4.9044C12.8888 5.3427 13.1448 6.84022 13.1875 7.60724C13.2301 8.08206 13.2301 8.77603 13.2301 8.77603C13.2301 8.77603 14.1687 8.73951 14.7233 8.77603C15.2779 8.77603 15.8752 8.84908 16.4725 8.95866C17.1977 9.06823 18.6483 9.32391 19.4589 9.68915C20.1415 9.98135 20.7814 10.4927 20.9947 11.004C21.1654 11.4789 21.1654 11.8076 20.8667 12.2459C20.5254 12.7207 19.9281 13.086 19.2882 13.1225C19.1176 13.1225 18.3923 13.0494 18.179 12.9033C18.0937 12.8303 18.0937 12.7572 18.179 12.6842C18.2216 12.6477 18.5203 12.5016 18.7336 12.4285C18.8189 12.392 18.9042 12.3189 18.9896 12.2824C19.1602 12.1728 19.2882 12.0267 19.2882 11.8806C19.2455 11.6615 19.0322 11.5519 18.7763 11.4789C17.667 11.1136 15.4059 10.7849 14.2967 10.7119C13.8701 10.6753 13.2728 10.6753 13.2728 10.6753L13.4008 15.8253C13.4008 15.8253 13.9127 15.8984 14.2967 15.9714C14.51 16.008 15.4912 16.081 15.7472 16.081C17.7097 16.1175 19.8428 15.9714 21.6346 15.2409C22.4026 14.9122 23.1278 14.547 23.6824 13.9991C24.4077 13.3051 24.7917 12.3189 24.6637 11.3328C24.5357 10.237 23.6398 8.92213 22.9145 8.11859C20.9947 6.03667 17.7524 4.28348 14.8513 3.29731C11.9076 2.27461 9.00655 1.65369 5.89219 1.58064C5.0816 1.54412 3.33244 1.58064 2.43653 1.79979C2.30854 1.83632 2.18056 1.87284 2.05257 1.87284C1.96724 1.87284 1.79659 1.94589 1.75393 1.98241C1.71127 1.98241 1.71127 2.01894 1.71127 2.01894C1.71127 2.01894 1.75393 2.05546 1.79659 2.05546C1.88192 2.09199 2.26588 2.12851 2.47919 2.12851C2.64984 2.16504 2.86316 2.23809 2.90582 2.34766C2.99114 2.45724 2.99114 2.53029 2.90582 2.63986C2.69251 2.85901 1.96724 2.82249 1.62594 2.78596C1.28464 2.74944 0.85802 2.63986 0.772695 2.38419C0.68737 2.09199 0.85802 1.79979 1.02867 1.50759C1.41263 0.95972 1.92458 0.667521 2.69251 0.484897C3.75907 0.229223 5.16693 0.0465987 6.19083 0.0100739C8.4946 -0.0629758 10.713 0.265748 12.9742 0.850145C14.254 1.17887 15.9605 1.72674 17.1977 2.23809C18.0937 2.60334 19.5015 3.26078 20.2694 3.73561C20.5254 3.88171 21.9759 4.79483 22.1893 4.94093C22.6585 5.26965 23.2558 5.74447 23.7251 6.10972C24.5784 6.84022 25.6449 7.97249 26.1569 8.84908C26.2848 9.06823 26.3702 9.28738 26.5408 9.50653C26.5835 9.57958 26.8395 10.0909 26.8821 10.237C26.9248 10.3831 26.9674 10.6023 26.9674 10.6023C27.1808 10.8214 27.2661 11.2597 27.2661 11.4058ZM37.2918 11.8076H37.3771C38.1023 11.8806 38.7849 11.9902 39.3396 12.2094C39.8515 12.392 40.1075 12.6477 40.4061 13.0494C40.7901 13.7069 40.8327 14.5835 40.4914 15.2775C40.2355 15.7888 39.6382 16.1906 39.0836 16.4462C38.529 16.6654 37.9744 16.775 37.3344 16.848C36.2252 16.9576 34.988 16.775 34.0068 16.3367C33.4095 16.081 32.6842 15.6427 32.3003 15.0948C32.0443 14.6931 32.0443 14.1452 32.3856 13.7799C32.8975 13.159 34.0494 13.0494 34.86 13.0494C35.4999 13.086 36.6518 13.2321 37.2918 13.4147C37.4624 13.4512 38.1023 13.6704 38.1877 13.7799C38.273 13.853 38.3157 13.926 38.273 14.0356C38.145 14.4009 37.0784 14.5835 36.7798 14.62C35.9692 14.7296 35.5426 14.4739 34.6467 14.1452C34.4334 14.0721 34.1347 13.9991 33.8788 13.9626C33.4521 13.926 32.9829 14.0356 32.8975 14.4009C32.8549 14.5835 33.1108 14.8026 33.3242 14.8757C33.7934 15.0583 34.2201 15.1314 34.6894 15.1314C36.0972 15.1679 37.7184 14.9487 38.8703 14.2548C39.0409 14.1452 39.1689 13.9991 39.1689 13.853C39.1689 13.8165 39.1262 13.6338 39.0409 13.5973H38.9983C38.9556 13.5973 38.9129 13.5243 38.8703 13.4877C38.7849 13.4147 38.4436 13.2686 38.401 13.2686C37.6331 12.9764 36.1825 12.8668 35.4146 12.7938C34.6467 12.7207 33.4095 12.6477 33.1108 12.6111C32.8122 12.5746 32.4709 12.5381 32.2149 12.4285C31.959 12.3189 31.703 12.0998 31.6177 11.8441C31.4897 11.3693 31.6603 10.8214 31.959 10.4562C32.7269 9.50653 34.5614 9.14128 35.9266 8.99518C37.2491 8.84908 39.3822 8.84908 40.6621 9.43348C40.8754 9.50653 40.9607 9.61611 40.9181 9.79873C40.8327 10.1275 40.5341 10.3466 40.1501 10.4562C39.7662 10.5658 38.9556 10.6023 38.6143 10.6023C37.0358 10.6753 35.1586 10.6388 33.6655 10.9675C33.5375 11.004 33.3668 11.0406 33.2815 11.1136C33.0682 11.3328 33.7081 11.4058 33.8361 11.4058H33.9214L37.2918 11.8076ZM42.1553 16.775C41.5153 16.5923 41.3874 15.7158 41.3447 15.2775C41.2594 13.853 41.686 11.8441 42.2406 10.4927C42.4113 10.0909 42.6246 9.47001 43.1365 9.50653C43.4778 9.54306 43.7338 9.7622 43.9044 9.98135C44.4164 10.5658 45.0563 11.3693 45.483 11.9537C45.9522 12.5746 46.4215 13.2321 46.8908 13.7799C46.9335 13.853 47.0188 13.926 47.0615 13.9626C47.1468 14.0356 47.2321 14.0356 47.2321 13.9626C47.2321 13.926 47.2321 13.2321 47.1895 13.086C47.1468 12.8668 47.1468 12.6842 47.1041 12.465C47.0188 11.8806 46.8055 11.0771 46.6348 10.5292C46.4642 9.9083 46.2082 9.28738 46.0376 8.66646C45.9949 8.48384 45.9522 8.26469 45.9522 8.08206C45.9522 7.82639 46.1656 7.68029 46.4642 7.75334C47.1041 7.93596 47.9574 9.14128 48.2134 9.54306C48.2987 9.68916 48.64 10.3831 48.7253 10.6023C48.9813 11.2962 49.1519 11.9172 49.2372 12.6842C49.3226 13.4147 49.2373 14.4739 48.896 15.1679C48.768 15.4236 48.512 15.7888 48.256 15.9714C47.9147 16.2636 47.1895 16.4828 46.7202 16.2271C46.2082 15.9714 45.3123 14.6931 45.1843 14.4739C44.6724 13.7069 43.8191 12.2459 43.6911 12.0998C43.6485 12.0633 43.6058 12.0267 43.5631 12.0267C43.5205 12.0267 43.4778 12.0998 43.4778 12.1728C43.3925 12.6111 43.3498 14.5835 43.3498 14.6565C43.3498 14.9853 43.3072 15.8253 43.2218 16.2271C43.1365 16.4828 43.0939 16.7019 42.7952 16.8115C42.5392 16.8845 42.4113 16.848 42.1553 16.775ZM50.8158 16.6654C50.7304 16.6289 50.6451 16.5193 50.5598 16.4462C50.5598 16.4462 50.3038 16.1541 50.2611 16.0445C50.2185 15.9714 50.1758 15.8984 50.1758 15.8619C49.9625 15.387 49.9625 14.9487 50.0905 14.4739C50.2185 13.9991 50.3038 13.9991 50.5598 13.3782C50.5598 13.3416 50.6025 13.3051 50.6025 13.2686C50.6025 13.1955 50.4318 12.6111 50.4318 12.4285C50.4318 12.1363 50.6878 11.9537 51.1144 11.9172H51.1997C51.3704 11.8806 51.4984 11.5884 51.5837 11.3693C51.7117 11.0406 51.925 10.5658 51.925 10.5658C51.925 10.5658 51.3704 10.4562 51.0717 10.3831C50.7304 10.2736 50.5171 10.1275 50.3465 9.87178C50.1758 9.57958 50.3038 9.39696 50.6451 9.32391C50.7731 9.28738 51.8397 9.10476 52.181 9.06823C52.6076 9.03171 52.9915 8.95866 53.3755 8.92213C53.7168 8.88561 55.2953 8.73951 55.8073 8.73951C56.5752 8.77603 57.0872 9.03171 57.5138 9.57958C57.7697 9.87178 57.8977 10.237 57.5564 10.4197C57.0018 10.7119 55.21 10.7484 54.8687 10.7484H53.6315L53.2475 11.8076H55.2527C55.4233 11.8076 55.594 11.8076 55.7219 11.8441C56.1059 11.9172 56.2339 12.1728 56.2339 12.5016C56.2339 12.9033 56.1486 13.1225 55.7646 13.159C55.5513 13.1955 53.3328 13.1955 53.0342 13.2321C52.8636 13.2686 52.6502 13.2686 52.6502 13.2686C52.6502 13.2686 52.4796 13.6338 52.3516 13.9991C52.2236 14.3643 52.0956 14.7661 52.0956 14.7661H52.3089C52.4796 14.7661 52.6076 14.7661 52.7356 14.7296C53.4182 14.62 54.4421 14.5104 55.2527 14.4009C55.6793 14.3278 55.9353 14.3278 56.1486 14.5835C56.3619 14.8026 56.4472 14.9853 56.4899 15.2775C56.4899 15.5331 56.2766 15.7158 55.9779 15.8984C55.1247 16.4828 53.5888 17.1037 52.4796 17.2133C51.9677 17.2498 51.8397 17.2133 51.3704 17.1037C51.285 17.0672 50.9864 16.9576 50.9864 16.9576C51.0717 16.8115 50.9011 16.7019 50.8158 16.6654ZM64.8944 11.3693C64.3398 11.7711 63.5718 12.6111 63.2305 13.0494C62.7613 13.6338 62.3346 14.2913 61.908 14.8026C61.8227 14.9122 61.524 15.314 61.5667 15.3505C61.5667 15.387 61.8653 15.387 62.164 15.314C62.7613 15.2409 63.5718 14.8757 64.0411 14.547C64.7237 14.0721 65.193 13.4512 65.4063 12.7207C65.4917 12.392 65.5343 11.698 65.2783 11.3693C65.1504 11.3328 64.9797 11.2962 64.8944 11.3693ZM60.3295 17.3959C60.3295 17.3959 60.1588 17.8707 60.0309 18.1994C59.8175 18.8204 59.3056 20.464 59.1776 21.0119C59.007 21.7789 58.495 23.7877 58.495 23.8243C58.4523 23.8973 58.4523 23.8973 58.367 23.9338C58.1537 24.0434 58.0684 24.0069 57.8124 23.8973C57.4711 23.7512 57.2151 23.6051 56.9592 23.3129C56.4899 22.765 56.5752 21.7424 56.7032 21.158C57.0445 19.0395 57.3858 18.1264 58.3244 16.0445V15.9714C58.0257 15.4236 57.8551 14.8026 57.8551 14.2913C57.8551 12.6477 58.9643 11.0406 60.2015 9.72568C60.2868 9.61611 60.8841 8.99518 61.1827 9.03171C61.4387 9.03171 61.524 9.32391 61.4814 9.54306C61.3534 10.3101 60.7135 11.0771 60.2868 11.698C59.8175 12.4285 59.6896 12.7207 59.4762 13.3782C59.4336 13.4877 59.3483 13.9626 59.3483 14.0356C59.3483 14.2182 59.3909 14.4374 59.3909 14.4374C59.3909 14.4374 60.1588 13.4877 60.6708 12.9399C60.9694 12.6111 61.1401 12.4285 61.3961 12.1728C61.652 11.9537 62.5479 11.1136 62.8039 10.931C63.3585 10.4927 63.6145 10.3101 64.2118 10.0179C64.6811 9.79873 65.1077 9.7622 65.577 10.0179C66.3022 10.4197 66.6435 11.2962 66.7289 11.9902C66.8142 12.8303 66.6435 13.7799 66.1742 14.5104C65.6623 15.387 64.937 16.008 63.9985 16.5193C63.0172 17.0672 61.8653 17.4689 60.7561 17.4324C60.5001 17.3959 60.3295 17.3959 60.3295 17.3959Z" fill="#A1A1AA"/>
</g>
<defs>
<clipPath id="clip0_440_287">
<rect width="66" height="24" fill="white" transform="translate(0.75)"/>
</clipPath>
</defs>
</svg>
