<svg width="86" height="36" viewBox="0 0 86 36" fill="none" xmlns="http://www.w3.org/2000/svg">
<g clip-path="url(#clip0_1692_14953)">
<path d="M35.1072 8.45235C35.1072 8.45235 35.4407 7.95926 35.7187 7.57575C36.219 6.9183 37.1084 5.98692 37.8311 5.38426C38.0535 5.2199 38.2758 5.00075 38.2758 5.00075C38.2758 5.00075 37.8867 5.05554 37.6643 5.11033C37.164 5.2199 36.3857 5.71299 35.9966 6.04171C35.3851 6.58958 34.6624 7.41139 34.996 8.2332C35.0516 8.28799 35.1072 8.45235 35.1072 8.45235ZM38.6094 9.38373C39.61 9.32894 40.555 9.05501 41.3889 8.56192C42.2227 8.06884 43.5013 7.19224 43.3901 6.0965C43.3346 5.76777 43.1122 5.49384 42.8342 5.38426C42.4451 5.2199 42.2783 5.27469 41.778 5.38426C41.4445 5.49384 41.2777 5.54862 40.9442 5.71298C39.9435 6.26086 38.5538 7.46618 37.8311 8.39756C37.6643 8.61671 37.4976 8.89065 37.3308 9.05501C37.2196 9.16458 37.164 9.27416 37.164 9.27416C37.2196 9.38373 38.2202 9.38373 38.6094 9.38373ZM36.0522 11.1917C35.941 11.3013 35.8298 11.5752 35.7187 11.7396C35.6631 11.8492 35.5519 11.9587 35.4963 12.0135C35.2183 12.1779 34.996 12.2327 34.7736 12.0135C34.4401 11.6848 34.2177 11.2465 34.2177 10.7534V10.1508C34.1621 9.87681 33.8842 9.54809 33.7174 9.27416C33.5506 8.94543 33.3839 8.39756 33.3839 8.01405C33.3283 6.86352 33.9398 5.82256 34.718 5.00075C35.4963 4.17894 36.5525 3.46671 37.6643 3.02841C38.7205 2.59011 40.2771 2.26139 41.4445 2.69969C41.8336 2.80926 42.3339 3.13798 42.6119 3.46671C42.6675 3.52149 42.7231 3.63107 42.7786 3.63107C42.8342 3.68586 42.9454 3.68586 43.0566 3.68586C43.4457 3.74064 43.946 4.01458 44.1684 4.23373C44.6131 4.61724 44.8355 4.94596 44.9467 5.49384C45.169 6.53479 44.5575 7.68533 43.8905 8.39756C42.7231 9.60288 41.5001 10.4247 39.9991 11.0273C39.332 11.3013 38.2758 11.5204 37.5531 11.4656C37.3308 11.4656 37.0528 11.4109 36.8305 11.3561C36.7193 11.3561 36.2746 11.2465 36.219 11.1917C36.1634 11.2465 36.1078 11.1917 36.0522 11.1917ZM37.442 13.4928C37.4976 13.4928 37.5531 13.5476 37.6087 13.5476C38.1646 13.7667 38.387 14.2598 38.4982 14.7529C38.8317 16.013 38.9429 18.7523 38.9985 19.7933C39.0541 20.6151 39.0541 21.3821 39.1097 22.2039C39.1653 22.8614 39.1653 23.7928 39.0541 24.3954C38.9985 24.6146 38.8317 24.8885 38.6094 25.0529C38.3314 25.2172 37.7755 25.2172 37.442 25.1625C36.6637 24.9981 36.3857 24.505 36.2746 23.738C35.9966 21.93 36.1634 18.3688 36.2746 16.8348C36.3302 16.3417 36.4969 14.7529 36.7749 14.0954C36.8861 13.9311 37.1084 13.438 37.442 13.4928ZM13.3713 16.2321C13.3713 16.2321 12.2039 16.2869 11.4256 16.3965C10.425 16.5061 8.53492 16.8348 7.42311 17.2183C7.08956 17.3279 6.42248 17.6018 6.36689 17.9305C6.3113 18.2593 6.53366 18.5332 6.75602 18.8071C6.92279 18.9715 7.70106 19.7385 7.92342 19.9029C8.86846 20.6699 10.7585 21.8752 12.1483 22.4231C12.6486 22.6422 13.4269 22.9162 13.4269 22.9162C13.4269 22.9162 13.3713 20.6699 13.3713 18.4784C13.3157 17.3827 13.3713 16.2321 13.3713 16.2321ZM34.5513 17.1087C34.6069 17.7114 34.4401 18.8619 34.4401 18.9715C34.3845 19.3002 34.1065 20.122 34.1065 20.1768C33.8842 20.6699 33.6618 21.0534 33.4395 21.4369C33.0503 22.0944 32.1609 23.1901 31.605 23.6284C29.6037 25.3268 26.5462 26.313 23.8779 26.5869C22.099 26.8061 20.0421 26.7513 18.0965 26.4226C17.4294 26.313 16.4844 26.0938 16.4844 26.0938C16.4844 26.0938 16.4844 26.4774 16.4288 26.7513C16.4288 26.8609 16.3176 27.1896 16.262 27.2992C16.1508 27.5731 15.8729 27.7375 15.5949 27.7922C15.2058 27.847 14.7611 27.9018 14.4275 27.7375C13.816 27.4635 13.5936 26.9156 13.4825 26.313C13.3713 25.8199 13.3157 24.8885 13.3157 24.8885C13.3157 24.8885 12.871 24.6694 12.4818 24.505C11.3144 23.9571 10.2026 23.2449 9.25759 22.5327C8.97964 22.3135 7.86783 21.3821 7.58988 21.163C6.8672 20.5055 6.25571 19.8481 5.75539 18.9715C5.36626 18.3141 5.25508 17.7114 5.53303 16.9992C5.92216 16.013 7.36752 15.3008 8.31255 14.8625C9.03523 14.5337 11.2588 13.8215 12.1483 13.7119C12.593 13.6571 13.2601 13.5476 13.3157 13.4928C13.3157 13.4928 13.3713 13.4928 13.3713 13.438C13.3713 13.3832 13.4269 12.4518 13.4269 12.0683C13.4269 11.7396 13.7048 9.43852 13.7604 8.94543C13.816 8.6715 13.9828 7.68533 14.2051 7.41139C14.3163 7.24703 14.5943 7.24703 14.7611 7.3566C15.8173 8.01405 16.1508 10.2603 16.2064 11.4109C16.262 12.1231 16.262 13.1641 16.262 13.1641C16.262 13.1641 17.485 13.1093 18.2077 13.1641C18.9303 13.1641 19.7086 13.2736 20.4869 13.438C21.4319 13.6023 23.322 13.9859 24.3782 14.5337C25.2677 14.972 26.1015 15.7391 26.3795 16.5061C26.6018 17.2183 26.6018 17.7114 26.2127 18.3688C25.768 19.0811 24.9897 19.6289 24.1558 19.6837C23.9335 19.6837 22.9884 19.5742 22.7105 19.355C22.5993 19.2454 22.5993 19.1359 22.7105 19.0263C22.7661 18.9715 23.1552 18.7523 23.4332 18.6428C23.5443 18.588 23.6555 18.4784 23.7667 18.4236C23.9891 18.2593 24.1558 18.0401 24.1558 17.821C24.1003 17.4922 23.8223 17.3279 23.4888 17.2183C22.0434 16.6704 19.0971 16.1773 17.6518 16.0678C17.0958 16.013 16.3176 16.013 16.3176 16.013L16.4844 23.738C16.4844 23.738 17.1514 23.8476 17.6518 23.9571C17.9297 24.0119 19.2083 24.1215 19.5418 24.1215C22.099 24.1763 24.8785 23.9571 27.2133 22.8614C28.2139 22.3683 29.159 21.8204 29.8817 20.9986C30.8267 19.9577 31.327 18.4784 31.1602 16.9992C30.9935 15.3555 29.8261 13.3832 28.881 12.1779C26.3795 9.05501 22.1546 6.42522 18.3744 4.94596C14.5387 3.41192 10.7585 2.48054 6.70043 2.37096C5.64421 2.31618 3.365 2.37096 2.1976 2.69969C2.03083 2.75447 1.86406 2.80926 1.69729 2.80926C1.58611 2.80926 1.36374 2.91883 1.30815 2.97362C1.25256 2.97362 1.25256 3.02841 1.25256 3.02841C1.25256 3.02841 1.30815 3.0832 1.36374 3.0832C1.47493 3.13798 1.97524 3.19277 2.25319 3.19277C2.47555 3.24756 2.75351 3.35713 2.8091 3.52149C2.92028 3.68586 2.92028 3.79543 2.8091 3.95979C2.53114 4.28852 1.58611 4.23373 1.14138 4.17894C0.696658 4.12415 0.140754 3.95979 0.0295726 3.57628C-0.0816083 3.13798 0.140754 2.69969 0.363115 2.26139C0.86343 1.43958 1.53052 1.00128 2.53114 0.727345C3.92091 0.343834 5.75539 0.0698981 7.08956 0.0151109C10.0914 -0.0944636 12.9822 0.398622 15.9285 1.27522C17.5962 1.7683 19.8198 2.59011 21.4319 3.35713C22.5993 3.90501 24.4338 4.89118 25.4344 5.60341C25.768 5.82256 27.658 7.19224 27.936 7.41139C28.5475 7.90447 29.3258 8.61671 29.9373 9.16458C31.0491 10.2603 32.4388 11.9587 33.1059 13.2736C33.2727 13.6023 33.3839 13.9311 33.6062 14.2598C33.6618 14.3694 33.9954 15.1364 34.0509 15.3555C34.1065 15.5747 34.1621 15.9034 34.1621 15.9034C34.4401 16.2321 34.5513 16.8896 34.5513 17.1087ZM47.615 17.7114H47.7262C48.6712 17.821 49.5607 17.9853 50.2834 18.3141C50.9505 18.588 51.284 18.9715 51.6731 19.5742C52.1734 20.5603 52.229 21.8752 51.7843 22.9162C51.4508 23.6832 50.6725 24.2859 49.9498 24.6694C49.2271 24.9981 48.5045 25.1625 47.6706 25.272C46.2253 25.4364 44.6131 25.1625 43.3346 24.505C42.5563 24.1215 41.6113 23.4641 41.1109 22.6422C40.7774 22.0396 40.7774 21.2178 41.2221 20.6699C41.8892 19.7385 43.3901 19.5742 44.4464 19.5742C45.2802 19.6289 46.7812 19.8481 47.615 20.122C47.8374 20.1768 48.6712 20.5055 48.7824 20.6699C48.8936 20.7795 48.9492 20.8891 48.8936 21.0534C48.7268 21.6013 47.3371 21.8752 46.9479 21.93C45.8917 22.0944 45.3358 21.7109 44.1684 21.2178C43.8905 21.1082 43.5013 20.9986 43.1678 20.9438C42.6119 20.8891 42.0004 21.0534 41.8892 21.6013C41.8336 21.8752 42.1672 22.2039 42.4451 22.3135C43.0566 22.5875 43.6125 22.697 44.224 22.697C46.0585 22.7518 48.1709 22.4231 49.6719 21.3821C49.8942 21.2178 50.061 20.9986 50.061 20.7795C50.061 20.7247 50.0054 20.4508 49.8942 20.396H49.8386C49.7831 20.396 49.7275 20.2864 49.6719 20.2316C49.5607 20.122 49.116 19.9029 49.0604 19.9029C48.0597 19.4646 46.1697 19.3002 45.169 19.1906C44.1684 19.0811 42.5563 18.9715 42.1672 18.9167C41.778 18.8619 41.3333 18.8071 40.9998 18.6428C40.6662 18.4784 40.3327 18.1497 40.2215 17.7662C40.0547 17.0539 40.2771 16.2321 40.6662 15.6843C41.6668 14.2598 44.0572 13.7119 45.8361 13.4928C47.5594 13.2736 50.339 13.2736 52.0067 14.1502C52.2846 14.2598 52.3958 14.4242 52.3402 14.6981C52.229 15.1912 51.8399 15.5199 51.3396 15.6843C50.8393 15.8486 49.7831 15.9034 49.3383 15.9034C47.2815 16.013 44.8355 15.9582 42.8898 16.4513C42.7231 16.5061 42.5007 16.5609 42.3895 16.6704C42.1116 16.9992 42.9454 17.1087 43.1122 17.1087H43.2234L47.615 17.7114ZM53.9523 25.1625C53.1185 24.8885 52.9517 23.5736 52.8961 22.9162C52.7849 20.7795 53.3408 17.7662 54.0635 15.7391C54.2859 15.1364 54.5638 14.205 55.2309 14.2598C55.6756 14.3146 56.0092 14.6433 56.2315 14.972C56.8986 15.8486 57.7325 17.0539 58.2884 17.9305C58.8999 18.8619 59.5114 19.8481 60.1229 20.6699C60.1785 20.7795 60.2896 20.8891 60.3452 20.9438C60.4564 21.0534 60.5676 21.0534 60.5676 20.9438C60.5676 20.8891 60.5676 19.8481 60.512 19.6289C60.4564 19.3002 60.4564 19.0263 60.4008 18.6976C60.2896 17.821 60.0117 16.6156 59.7893 15.7938C59.567 14.8625 59.2334 13.9311 59.0111 12.9997C58.9555 12.7258 58.8999 12.397 58.8999 12.1231C58.8999 11.7396 59.1778 11.5204 59.567 11.63C60.4008 11.9039 61.5126 13.7119 61.8462 14.3146C61.9574 14.5337 62.4021 15.5747 62.5133 15.9034C62.8468 16.9444 63.0692 17.8758 63.1804 19.0263C63.2915 20.122 63.1804 21.7109 62.7356 22.7518C62.5689 23.1353 62.2353 23.6832 61.9018 23.9571C61.4571 24.3954 60.512 24.7242 59.9005 24.3406C59.2334 23.9571 58.066 22.0396 57.8993 21.7109C57.2322 20.5603 56.1204 18.3688 55.9536 18.1497C55.898 18.0949 55.8424 18.0401 55.7868 18.0401C55.7312 18.0401 55.6756 18.1497 55.6756 18.2593C55.5645 18.9167 55.5089 21.8752 55.5089 21.9848C55.5089 22.4779 55.4533 23.738 55.3421 24.3406C55.2309 24.7242 55.1753 25.0529 54.7862 25.2172C54.4527 25.3268 54.2859 25.272 53.9523 25.1625ZM65.2372 24.9981C65.126 24.9433 65.0148 24.7789 64.9037 24.6694C64.9037 24.6694 64.5701 24.2311 64.5145 24.0667C64.4589 23.9571 64.4034 23.8476 64.4034 23.7928C64.1254 23.0805 64.1254 22.4231 64.2922 21.7109C64.4589 20.9986 64.5701 20.9986 64.9037 20.0672C64.9037 20.0125 64.9593 19.9577 64.9593 19.9029C64.9593 19.7933 64.7369 18.9167 64.7369 18.6428C64.7369 18.2045 65.0704 17.9305 65.6263 17.8758H65.7375C65.9599 17.821 66.1266 17.3827 66.2378 17.0539C66.4046 16.5609 66.6826 15.8486 66.6826 15.8486C66.6826 15.8486 65.9599 15.6843 65.5707 15.5747C65.126 15.4103 64.8481 15.1912 64.6257 14.8077C64.4034 14.3694 64.5701 14.0954 65.0148 13.9859C65.1816 13.9311 66.5714 13.6571 67.0161 13.6023C67.572 13.5476 68.0723 13.438 68.5726 13.3832C69.0174 13.3284 71.0742 13.1093 71.7413 13.1093C72.7419 13.1641 73.409 13.5476 73.9649 14.3694C74.2985 14.8077 74.4652 15.3555 74.0205 15.6295C73.2978 16.0678 70.963 16.1226 70.5183 16.1226H68.9062L68.4059 17.7114H71.0186C71.241 17.7114 71.4633 17.7114 71.6301 17.7662C72.1304 17.8758 72.2972 18.2593 72.2972 18.7523C72.2972 19.355 72.186 19.6837 71.6857 19.7385C71.4078 19.7933 68.517 19.7933 68.1279 19.8481C67.9055 19.9029 67.6276 19.9029 67.6276 19.9029C67.6276 19.9029 67.4052 20.4508 67.2385 20.9986C67.0717 21.5465 66.9049 22.1492 66.9049 22.1492H67.1829C67.4052 22.1492 67.572 22.1492 67.7388 22.0944C68.6282 21.93 69.9624 21.7656 71.0186 21.6013C71.5745 21.4917 71.9081 21.4917 72.186 21.8752C72.464 22.2039 72.5751 22.4779 72.6307 22.9162C72.6307 23.2997 72.3528 23.5736 71.9637 23.8476C70.8518 24.7242 68.8506 25.6555 67.4052 25.8199C66.7382 25.8747 66.5714 25.8199 65.9599 25.6555C65.8487 25.6008 65.4596 25.4364 65.4596 25.4364C65.5707 25.2172 65.3484 25.0529 65.2372 24.9981ZM83.5821 17.0539C82.8594 17.6566 81.8588 18.9167 81.414 19.5742C80.8025 20.4508 80.2466 21.4369 79.6907 22.2039C79.5796 22.3683 79.1904 22.971 79.246 23.0258C79.246 23.0805 79.6351 23.0805 80.0243 22.971C80.8025 22.8614 81.8588 22.3135 82.4703 21.8204C83.3597 21.1082 83.9712 20.1768 84.2492 19.0811C84.3603 18.588 84.4159 17.547 84.0824 17.0539C83.9156 16.9992 83.6932 16.9444 83.5821 17.0539ZM77.6339 26.0938C77.6339 26.0938 77.4115 26.8061 77.2448 27.2992C76.9668 28.2305 76.2997 30.696 76.1329 31.5178C75.9106 32.6683 75.2435 35.6816 75.2435 35.7364C75.1879 35.846 75.1879 35.846 75.0767 35.9008C74.7988 36.0651 74.6876 36.0103 74.354 35.846C73.9093 35.6268 73.5758 35.4077 73.2422 34.9694C72.6307 34.1476 72.7419 32.6135 72.9087 31.7369C73.3534 28.5593 73.7981 27.1896 75.0211 24.0667V23.9571C74.632 23.1353 74.4096 22.2039 74.4096 21.4369C74.4096 18.9715 75.855 16.5609 77.4671 14.5885C77.5783 14.4242 78.3566 13.4928 78.7457 13.5476C79.0792 13.5476 79.1904 13.9859 79.1348 14.3146C78.9681 15.4651 78.1342 16.6156 77.5783 17.547C76.9668 18.6428 76.8 19.0811 76.5221 20.0672C76.4665 20.2316 76.3553 20.9438 76.3553 21.0534C76.3553 21.3274 76.4109 21.6561 76.4109 21.6561C76.4109 21.6561 77.4115 20.2316 78.0786 19.4098C78.4677 18.9167 78.6901 18.6428 79.0236 18.2593C79.3572 17.9305 80.5246 16.6704 80.8581 16.3965C81.5808 15.7391 81.9144 15.4651 82.6926 15.0268C83.3041 14.6981 83.86 14.6433 84.4715 15.0268C85.4165 15.6295 85.8613 16.9444 85.9725 17.9853C86.0836 19.2454 85.8613 20.6699 85.2498 21.7656C84.5827 23.0805 83.6377 24.0119 82.4147 24.7789C81.1361 25.6008 79.6351 26.2034 78.1898 26.1486C77.8562 26.0938 77.6339 26.0938 77.6339 26.0938Z" fill="#18181B" fill-opacity="0.8"/>
</g>
<defs>
<clipPath id="clip0_1692_14953">
<rect width="86" height="36" fill="white"/>
</clipPath>
</defs>
</svg>
