<svg width="77" height="85" viewBox="0 0 77 85" fill="none" xmlns="http://www.w3.org/2000/svg">
<path d="M8.96296 45.358C9.68724 54.9547 12.856 62.5597 18.4691 68.1728C24.2634 73.6049 31.8683 76.321 41.284 76.321C46.8971 76.321 52.0576 75.2346 56.7654 73.0617C61.6543 70.7078 65.5473 67.6296 68.4444 63.8272L74.4198 69.2593C71.1605 73.4239 66.5432 76.9547 60.5679 79.8519C54.5926 82.749 48.1646 84.1975 41.284 84.1975C28.428 84.1975 18.2881 80.3045 10.8642 72.5185C3.6214 64.7325 0 54.5926 0 42.0988C0 33.9506 1.72016 26.7078 5.16049 20.3704C8.60082 14.0329 13.2181 9.0535 19.0123 5.4321C24.9877 1.8107 31.6872 0 39.1111 0C50.5185 0 59.572 3.80247 66.2716 11.4074C73.1523 19.0123 76.5926 29.2428 76.5926 42.0988V45.358H8.96296ZM39.1111 7.60494C30.7819 7.60494 23.9012 10.4115 18.4691 16.0247C13.037 21.4568 9.95885 28.7901 9.23457 38.0247H67.9012C67.177 28.6091 64.2798 21.1852 59.2099 15.7531C54.1399 10.321 47.4403 7.60494 39.1111 7.60494Z" fill="#040308"/>
</svg>
