<svg width="382" height="56" viewBox="0 0 382 56" fill="none" xmlns="http://www.w3.org/2000/svg">
<path d="M361.306 54.6332C358.111 54.6332 355.259 53.8573 352.748 52.3055C350.238 50.7537 348.253 48.6314 346.792 45.9386C345.332 43.2458 344.602 40.1879 344.602 36.7648C344.602 33.3417 345.332 30.3066 346.792 27.6594C348.253 24.9666 350.238 22.8672 352.748 21.361C355.259 19.8092 358.111 19.0333 361.306 19.0333C363.862 19.0333 366.098 19.5126 368.015 20.471C369.932 21.4295 371.484 22.7759 372.671 24.5102V4.51953H381.434V53.8117H373.629L372.671 48.9509C371.575 50.4571 370.115 51.7806 368.289 52.9217C366.509 54.0627 364.181 54.6332 361.306 54.6332ZM363.155 46.9655C365.984 46.9655 368.289 46.0299 370.069 44.1586C371.895 42.2417 372.808 39.7999 372.808 36.8333C372.808 33.8666 371.895 31.4476 370.069 29.5764C368.289 27.6594 365.984 26.701 363.155 26.701C360.37 26.701 358.066 27.6366 356.24 29.5079C354.414 31.3792 353.502 33.7981 353.502 36.7648C353.502 39.7314 354.414 42.1732 356.24 44.0901C358.066 46.0071 360.37 46.9655 363.155 46.9655Z" fill="black"/>
<path d="M323.333 54.635C319.91 54.635 316.875 53.9048 314.227 52.4443C311.58 50.9838 309.504 48.9299 307.998 46.2827C306.491 43.6356 305.738 40.5776 305.738 37.1089C305.738 33.5946 306.469 30.4682 307.929 27.7297C309.435 24.9913 311.489 22.869 314.091 21.3628C316.738 19.8111 319.841 19.0352 323.401 19.0352C326.733 19.0352 329.677 19.7654 332.233 21.2259C334.789 22.6864 336.774 24.6946 338.189 27.2505C339.649 29.7608 340.38 32.5677 340.38 35.6712C340.38 36.1733 340.357 36.6982 340.311 37.2459C340.311 37.7935 340.288 38.3641 340.243 38.9574H314.433C314.615 41.6046 315.528 43.6812 317.171 45.1874C318.86 46.6935 320.891 47.4466 323.264 47.4466C325.044 47.4466 326.528 47.0586 327.714 46.2827C328.947 45.4612 329.859 44.4115 330.453 43.1335H339.353C338.714 45.2786 337.641 47.2412 336.135 49.0212C334.675 50.7556 332.849 52.1248 330.658 53.1289C328.513 54.133 326.071 54.635 323.333 54.635ZM323.401 26.1551C321.256 26.1551 319.362 26.7713 317.719 28.0036C316.076 29.1902 315.026 31.0159 314.57 33.4805H331.48C331.343 31.2441 330.521 29.4641 329.015 28.1405C327.509 26.8169 325.638 26.1551 323.401 26.1551Z" fill="black"/>
<path d="M286.955 54.635C283.943 54.635 281.296 54.1558 279.014 53.1973C276.732 52.1932 274.906 50.824 273.537 49.0897C272.168 47.3553 271.346 45.3471 271.072 43.0651H279.904C280.178 44.3887 280.908 45.5297 282.095 46.4881C283.327 47.4009 284.901 47.8574 286.818 47.8574C288.735 47.8574 290.127 47.4694 290.994 46.6935C291.907 45.9176 292.364 45.0276 292.364 44.0235C292.364 42.563 291.725 41.5817 290.447 41.0797C289.169 40.532 287.389 40.0071 285.107 39.5051C283.646 39.1856 282.163 38.7976 280.657 38.3412C279.151 37.8848 277.759 37.3143 276.481 36.6297C275.248 35.8995 274.244 34.9866 273.468 33.8913C272.693 32.7502 272.305 31.3582 272.305 29.7151C272.305 26.7028 273.491 24.1698 275.865 22.1159C278.284 20.0621 281.661 19.0352 285.997 19.0352C290.013 19.0352 293.208 19.9708 295.581 21.8421C298 23.7133 299.438 26.2921 299.894 29.5782H291.611C291.109 27.0679 289.215 25.8128 285.928 25.8128C284.285 25.8128 283.007 26.1323 282.095 26.7713C281.227 27.4103 280.794 28.209 280.794 29.1674C280.794 30.1715 281.456 30.9702 282.779 31.5636C284.103 32.1569 285.86 32.7046 288.051 33.2066C290.424 33.7543 292.592 34.3705 294.554 35.0551C296.563 35.6941 298.16 36.6753 299.347 37.9989C300.533 39.2769 301.127 41.1253 301.127 43.5443C301.172 45.6438 300.625 47.5379 299.484 49.2266C298.343 50.9153 296.7 52.2389 294.554 53.1973C292.409 54.1558 289.876 54.635 286.955 54.635Z" fill="black"/>
<path d="M247.83 53.8135V19.8567H255.635L256.456 26.2236C257.688 24.0328 259.354 22.2985 261.454 21.0205C263.599 19.6969 266.109 19.0352 268.985 19.0352V28.2774H266.52C264.603 28.2774 262.892 28.5741 261.385 29.1674C259.879 29.7608 258.693 30.7877 257.825 32.2482C257.004 33.7087 256.593 35.7397 256.593 38.3412V53.8135H247.83Z" fill="black"/>
<path d="M224.659 54.635C221.373 54.635 218.406 53.8819 215.759 52.3758C213.157 50.8696 211.081 48.793 209.529 46.1458C208.023 43.453 207.27 40.3494 207.27 36.8351C207.27 33.3207 208.045 30.24 209.597 27.5928C211.149 24.9 213.226 22.8005 215.827 21.2944C218.474 19.7882 221.441 19.0352 224.727 19.0352C227.968 19.0352 230.889 19.7882 233.49 21.2944C236.137 22.8005 238.214 24.9 239.72 27.5928C241.272 30.24 242.048 33.3207 242.048 36.8351C242.048 40.3494 241.272 43.453 239.72 46.1458C238.214 48.793 236.137 50.8696 233.49 52.3758C230.843 53.8819 227.899 54.635 224.659 54.635ZM224.659 47.0358C226.941 47.0358 228.926 46.1915 230.615 44.5028C232.304 42.7684 233.148 40.2125 233.148 36.8351C233.148 33.4577 232.304 30.9246 230.615 29.2359C228.926 27.5015 226.964 26.6344 224.727 26.6344C222.399 26.6344 220.391 27.5015 218.703 29.2359C217.059 30.9246 216.238 33.4577 216.238 36.8351C216.238 40.2125 217.059 42.7684 218.703 44.5028C220.391 46.1915 222.377 47.0358 224.659 47.0358Z" fill="black"/>
<path d="M181.369 54.6332C178.174 54.6332 175.321 53.8573 172.811 52.3055C170.301 50.7537 168.315 48.6314 166.855 45.9386C165.394 43.2458 164.664 40.1879 164.664 36.7648C164.664 33.3417 165.394 30.3066 166.855 27.6594C168.315 24.9666 170.301 22.8672 172.811 21.361C175.321 19.8092 178.174 19.0333 181.369 19.0333C183.925 19.0333 186.161 19.5126 188.078 20.471C189.995 21.4295 191.547 22.7759 192.733 24.5102V4.51953H201.496V53.8117H193.692L192.733 48.9509C191.638 50.4571 190.177 51.7806 188.352 52.9217C186.572 54.0627 184.244 54.6332 181.369 54.6332ZM183.217 46.9655C186.047 46.9655 188.352 46.0299 190.132 44.1586C191.957 42.2417 192.87 39.7999 192.87 36.8333C192.87 33.8666 191.957 31.4476 190.132 29.5764C188.352 27.6594 186.047 26.701 183.217 26.701C180.433 26.701 178.128 27.6366 176.302 29.5079C174.477 31.3792 173.564 33.7981 173.564 36.7648C173.564 39.7314 174.477 42.1732 176.302 44.0901C178.128 46.0071 180.433 46.9655 183.217 46.9655Z" fill="black"/>
<path d="M126.162 53.8135V19.8567H133.898L134.583 25.6074C135.633 23.5992 137.139 22.0018 139.101 20.8152C141.109 19.6285 143.46 19.0352 146.153 19.0352C150.352 19.0352 153.615 20.3587 155.943 23.0059C158.27 25.6531 159.434 29.5326 159.434 34.6443V53.8135H150.671V35.4659C150.671 32.5448 150.078 30.3084 148.891 28.7567C147.705 27.2049 145.856 26.429 143.346 26.429C140.881 26.429 138.85 27.2962 137.253 29.0305C135.701 30.7649 134.925 33.1838 134.925 36.2874V53.8135H126.162Z" fill="black"/>
<path d="M88.8418 53.8135V5.89062H120.129V12.9421H97.6048V26.0867H118.075V32.9328H97.6048V46.762H120.129V53.8135H88.8418Z" fill="black"/>
<mask id="mask0_1216_58976" style="mask-type:luminance" maskUnits="userSpaceOnUse" x="0" y="0" width="42" height="56">
<path d="M41.9672 0H0V56H41.9672V0Z" fill="white"/>
</mask>
<g mask="url(#mask0_1216_58976)">
<path fill-rule="evenodd" clip-rule="evenodd" d="M20.986 10.9879L10.9812 21.0006L20.986 31.0132L30.9911 21.0006L20.986 10.9879ZM-0.00976562 21.0006L20.986 42.0127L41.9817 21.0006L20.986 -0.0117188L-0.00976562 21.0006Z" fill="black"/>
<path d="M0.00390625 56.0005C0.00390625 51.7047 3.48343 48.2227 7.77556 48.2227H34.1994C38.4915 48.2227 41.9711 51.7047 41.9711 56.0005H0.00390625Z" fill="#64A4E1"/>
</g>
</svg>
