<svg width="818" height="460" viewBox="0 0 818 460" fill="none" xmlns="http://www.w3.org/2000/svg">
<g clip-path="url(#clip0_4830_1879)">
<rect width="818" height="460" fill="#D4D4D8"/>
<g clip-path="url(#clip1_4830_1879)">
<rect width="818" height="460.125" rx="4.26042" fill="#D9D9D9"/>
<path d="M43.1599 23.5591V25.7458H42.4672V20.2938H44.2346C44.4792 20.2988 44.7101 20.3375 44.9273 20.4099C45.147 20.4823 45.3392 20.5872 45.5039 20.7245C45.6687 20.8618 45.7985 21.0315 45.8934 21.2337C45.9907 21.4359 46.0394 21.6681 46.0394 21.9302C46.0394 22.1923 45.9907 22.4245 45.8934 22.6267C45.7985 22.8264 45.6687 22.9949 45.5039 23.1322C45.3392 23.2695 45.147 23.3743 44.9273 23.4467C44.7101 23.5191 44.4792 23.5566 44.2346 23.5591H43.1599ZM43.1599 22.9899H44.2346C44.3943 22.9874 44.5416 22.9624 44.6764 22.915C44.8112 22.8651 44.9285 22.7952 45.0284 22.7053C45.1283 22.6154 45.2056 22.5069 45.2606 22.3795C45.318 22.2497 45.3467 22.1024 45.3467 21.9377C45.3467 21.7729 45.318 21.6244 45.2606 21.4921C45.2056 21.3598 45.1295 21.2474 45.0321 21.1551C44.9323 21.0627 44.8137 20.9916 44.6764 20.9416C44.5416 20.8917 44.3943 20.8655 44.2346 20.863H43.1599V22.9899ZM48.7991 25.8207C48.5145 25.8207 48.2524 25.7721 48.0128 25.6747C47.7756 25.5773 47.5722 25.4413 47.4024 25.2666C47.2327 25.0918 47.1004 24.8846 47.0055 24.645C46.9106 24.4053 46.8632 24.1444 46.8632 23.8624V23.7051C46.8632 23.3781 46.9156 23.086 47.0205 22.8289C47.1253 22.5693 47.2651 22.3496 47.4399 22.1698C47.6121 21.9926 47.8081 21.8566 48.0277 21.7617C48.2499 21.6668 48.4771 21.6194 48.7092 21.6194C49.0013 21.6194 49.2559 21.6706 49.4731 21.7729C49.6928 21.8728 49.875 22.0113 50.0198 22.1886C50.1646 22.3683 50.272 22.5792 50.3419 22.8214C50.4142 23.0635 50.4504 23.3257 50.4504 23.6077V23.9185H47.5559V23.9447C47.5734 24.142 47.6121 24.3154 47.672 24.4652C47.7344 24.615 47.8193 24.7473 47.9266 24.8621C48.0365 24.9845 48.1688 25.0806 48.3236 25.1505C48.4783 25.2204 48.6493 25.2553 48.8366 25.2553C49.0837 25.2553 49.3034 25.2054 49.4956 25.1055C49.6878 25.0057 49.8476 24.8734 49.9749 24.7086L50.398 25.0381C50.2632 25.2428 50.061 25.4251 49.7914 25.5848C49.5243 25.7421 49.1935 25.8207 48.7991 25.8207ZM48.7092 22.1886C48.5695 22.1886 48.4371 22.2148 48.3123 22.2672C48.1875 22.3171 48.0752 22.3908 47.9753 22.4881C47.8755 22.588 47.7906 22.7103 47.7207 22.8551C47.6533 22.9974 47.6059 23.1621 47.5784 23.3494H49.7577V23.3157C49.7577 23.1908 49.734 23.0573 49.6866 22.915C49.6391 22.7702 49.573 22.6454 49.4881 22.5406C49.4032 22.4357 49.2959 22.3508 49.1661 22.2859C49.0388 22.221 48.8865 22.1886 48.7092 22.1886ZM54.2698 21.6194C54.3972 21.6194 54.5295 21.6281 54.6668 21.6456C54.8066 21.6631 54.9114 21.6868 54.9813 21.7168L54.8877 22.3945C54.7529 22.3646 54.6243 22.3433 54.502 22.3309C54.3822 22.3159 54.2561 22.3084 54.1238 22.3084C53.9541 22.3084 53.8005 22.3296 53.6632 22.372C53.5259 22.412 53.4061 22.4719 53.3038 22.5518C53.2114 22.6217 53.1303 22.7078 53.0604 22.8102C52.993 22.91 52.9368 23.0223 52.8919 23.1472V25.7458H52.1954V21.6943H52.8544L52.8844 22.2372L52.8881 22.3383C53.0529 22.1162 53.2501 21.9414 53.4797 21.8141C53.7119 21.6843 53.9753 21.6194 54.2698 21.6194ZM58.913 24.6712C58.913 24.5888 58.8968 24.5152 58.8643 24.4503C58.8319 24.3828 58.777 24.3217 58.6996 24.2668C58.6222 24.2119 58.5199 24.1619 58.3925 24.117C58.2652 24.0696 58.1067 24.0271 57.917 23.9897C57.6848 23.9422 57.4726 23.8848 57.2804 23.8174C57.0907 23.75 56.9284 23.6689 56.7936 23.574C56.6563 23.4817 56.5502 23.3731 56.4754 23.2483C56.4005 23.121 56.363 22.9737 56.363 22.8064C56.363 22.6417 56.4017 22.4881 56.4791 22.3458C56.5565 22.201 56.6651 22.075 56.8049 21.9676C56.9447 21.8603 57.1107 21.7754 57.3029 21.713C57.4976 21.6506 57.711 21.6194 57.9432 21.6194C58.1928 21.6194 58.4175 21.6519 58.6172 21.7168C58.8169 21.7817 58.9867 21.8715 59.1265 21.9864C59.2663 22.1012 59.3736 22.236 59.4485 22.3908C59.5259 22.543 59.5646 22.7078 59.5646 22.885H58.8718C58.8718 22.7977 58.8494 22.7128 58.8044 22.6304C58.7595 22.5455 58.6971 22.4707 58.6172 22.4057C58.5373 22.3408 58.44 22.2884 58.3251 22.2485C58.2128 22.2085 58.0855 22.1886 57.9432 22.1886C57.7959 22.1886 57.6661 22.2048 57.5538 22.2372C57.4439 22.2697 57.3528 22.3134 57.2804 22.3683C57.2055 22.4232 57.1494 22.4869 57.1119 22.5593C57.0745 22.6317 57.0558 22.7066 57.0558 22.7839C57.0558 22.8638 57.0707 22.935 57.1007 22.9974C57.1306 23.0598 57.1831 23.116 57.258 23.1659C57.3303 23.2158 57.4277 23.2607 57.55 23.3007C57.6748 23.3406 57.8321 23.3793 58.0218 23.4168C58.2715 23.4692 58.4949 23.5303 58.6921 23.6002C58.8893 23.6676 59.0553 23.7488 59.1901 23.8436C59.3249 23.941 59.4273 24.0533 59.4972 24.1806C59.5696 24.308 59.6058 24.4552 59.6058 24.6225C59.6058 24.8022 59.5646 24.9657 59.4822 25.113C59.4023 25.2603 59.29 25.3864 59.1452 25.4912C59.0004 25.5961 58.8269 25.6772 58.6247 25.7346C58.4225 25.792 58.2016 25.8207 57.9619 25.8207C57.6873 25.8207 57.4427 25.7845 57.228 25.7121C57.0133 25.6373 56.8323 25.5387 56.685 25.4163C56.5353 25.2965 56.4204 25.1567 56.3406 24.9969C56.2632 24.8372 56.2245 24.6712 56.2245 24.4989H56.9172C56.9272 24.6412 56.9646 24.761 57.0295 24.8584C57.0969 24.9558 57.1806 25.0344 57.2804 25.0943C57.3778 25.1542 57.4864 25.1967 57.6062 25.2216C57.726 25.2466 57.8446 25.2591 57.9619 25.2591C58.1467 25.2591 58.3077 25.2378 58.445 25.1954C58.5823 25.1505 58.6896 25.0893 58.767 25.0119C58.8144 24.9645 58.8506 24.9121 58.8756 24.8547C58.9005 24.7972 58.913 24.7361 58.913 24.6712ZM62.6163 25.8207C62.3318 25.8207 62.0696 25.7721 61.83 25.6747C61.5928 25.5773 61.3894 25.4413 61.2196 25.2666C61.0499 25.0918 60.9176 24.8846 60.8227 24.645C60.7279 24.4053 60.6804 24.1444 60.6804 23.8624V23.7051C60.6804 23.3781 60.7329 23.086 60.8377 22.8289C60.9426 22.5693 61.0823 22.3496 61.2571 22.1698C61.4293 21.9926 61.6253 21.8566 61.845 21.7617C62.0672 21.6668 62.2943 21.6194 62.5265 21.6194C62.8185 21.6194 63.0732 21.6706 63.2904 21.7729C63.51 21.8728 63.6923 22.0113 63.8371 22.1886C63.9818 22.3683 64.0892 22.5792 64.1591 22.8214C64.2315 23.0635 64.2677 23.3257 64.2677 23.6077V23.9185H61.3732V23.9447C61.3906 24.142 61.4293 24.3154 61.4892 24.4652C61.5517 24.615 61.6365 24.7473 61.7439 24.8621C61.8537 24.9845 61.986 25.0806 62.1408 25.1505C62.2956 25.2204 62.4666 25.2553 62.6538 25.2553C62.9009 25.2553 63.1206 25.2054 63.3128 25.1055C63.505 25.0057 63.6648 24.8734 63.7921 24.7086L64.2152 25.0381C64.0804 25.2428 63.8782 25.4251 63.6086 25.5848C63.3415 25.7421 63.0108 25.8207 62.6163 25.8207ZM62.5265 22.1886C62.3867 22.1886 62.2544 22.2148 62.1296 22.2672C62.0047 22.3171 61.8924 22.3908 61.7926 22.4881C61.6927 22.588 61.6078 22.7103 61.5379 22.8551C61.4705 22.9974 61.4231 23.1621 61.3956 23.3494H63.5749V23.3157C63.5749 23.1908 63.5512 23.0573 63.5038 22.915C63.4564 22.7702 63.3902 22.6454 63.3053 22.5406C63.2205 22.4357 63.1131 22.3508 62.9833 22.2859C62.856 22.221 62.7037 22.1886 62.5265 22.1886ZM68.102 25.7458L68.0609 25.1879C67.9261 25.3876 67.7576 25.5436 67.5553 25.656C67.3531 25.7658 67.1197 25.8207 66.8551 25.8207C66.6429 25.8207 66.4507 25.7883 66.2785 25.7234C66.1062 25.656 65.9589 25.5524 65.8366 25.4126C65.7143 25.2728 65.6194 25.0956 65.552 24.8809C65.4871 24.6637 65.4547 24.4041 65.4547 24.102V21.6943H66.1474V24.1095C66.1474 24.3292 66.1649 24.5114 66.1998 24.6562C66.2348 24.801 66.2872 24.9158 66.3571 25.0007C66.427 25.0881 66.5119 25.1492 66.6117 25.1842C66.7141 25.2191 66.8314 25.2366 66.9637 25.2366C67.1185 25.2366 67.257 25.2191 67.3794 25.1842C67.5017 25.1467 67.6078 25.0956 67.6976 25.0306C67.7725 24.9782 67.8374 24.9158 67.8924 24.8434C67.9498 24.7685 67.9972 24.6874 68.0346 24.6V21.6943H68.7311V25.7458H68.102ZM72.7303 24.6712C72.7303 24.5888 72.714 24.5152 72.6816 24.4503C72.6491 24.3828 72.5942 24.3217 72.5168 24.2668C72.4394 24.2119 72.3371 24.1619 72.2098 24.117C72.0825 24.0696 71.9239 24.0271 71.7342 23.9897C71.5021 23.9422 71.2899 23.8848 71.0977 23.8174C70.9079 23.75 70.7457 23.6689 70.6109 23.574C70.4736 23.4817 70.3675 23.3731 70.2926 23.2483C70.2177 23.121 70.1802 22.9737 70.1802 22.8064C70.1802 22.6417 70.2189 22.4881 70.2963 22.3458C70.3737 22.201 70.4823 22.075 70.6221 21.9676C70.7619 21.8603 70.9279 21.7754 71.1201 21.713C71.3148 21.6506 71.5283 21.6194 71.7604 21.6194C72.0101 21.6194 72.2347 21.6519 72.4344 21.7168C72.6341 21.7817 72.8039 21.8715 72.9437 21.9864C73.0835 22.1012 73.1908 22.236 73.2657 22.3908C73.3431 22.543 73.3818 22.7078 73.3818 22.885H72.6891C72.6891 22.7977 72.6666 22.7128 72.6217 22.6304C72.5767 22.5455 72.5143 22.4707 72.4344 22.4057C72.3546 22.3408 72.2572 22.2884 72.1424 22.2485C72.03 22.2085 71.9027 22.1886 71.7604 22.1886C71.6131 22.1886 71.4833 22.2048 71.371 22.2372C71.2612 22.2697 71.17 22.3134 71.0977 22.3683C71.0228 22.4232 70.9666 22.4869 70.9292 22.5593C70.8917 22.6317 70.873 22.7066 70.873 22.7839C70.873 22.8638 70.888 22.935 70.9179 22.9974C70.9479 23.0598 71.0003 23.116 71.0752 23.1659C71.1476 23.2158 71.2449 23.2607 71.3673 23.3007C71.4921 23.3406 71.6493 23.3793 71.8391 23.4168C72.0887 23.4692 72.3121 23.5303 72.5093 23.6002C72.7065 23.6676 72.8725 23.7488 73.0074 23.8436C73.1422 23.941 73.2445 24.0533 73.3144 24.1806C73.3868 24.308 73.423 24.4552 73.423 24.6225C73.423 24.8022 73.3818 24.9657 73.2994 25.113C73.2195 25.2603 73.1072 25.3864 72.9624 25.4912C72.8176 25.5961 72.6441 25.6772 72.4419 25.7346C72.2397 25.792 72.0188 25.8207 71.7792 25.8207C71.5046 25.8207 71.2599 25.7845 71.0452 25.7121C70.8305 25.6373 70.6496 25.5387 70.5023 25.4163C70.3525 25.2965 70.2377 25.1567 70.1578 24.9969C70.0804 24.8372 70.0417 24.6712 70.0417 24.4989H70.7344C70.7444 24.6412 70.7819 24.761 70.8468 24.8584C70.9142 24.9558 70.9978 25.0344 71.0977 25.0943C71.195 25.1542 71.3036 25.1967 71.4234 25.2216C71.5432 25.2466 71.6618 25.2591 71.7792 25.2591C71.9639 25.2591 72.1249 25.2378 72.2622 25.1954C72.3995 25.1505 72.5068 25.0893 72.5842 25.0119C72.6317 24.9645 72.6678 24.9121 72.6928 24.8547C72.7178 24.7972 72.7303 24.7361 72.7303 24.6712ZM79.1783 25.7458V20.2938H80.4402C80.6524 20.2963 80.8521 20.3188 81.0393 20.3612C81.229 20.4012 81.4038 20.4586 81.5635 20.5335C81.7857 20.6358 81.9817 20.7706 82.1514 20.9379C82.3237 21.1027 82.461 21.2936 82.5633 21.5108C82.6557 21.6955 82.7256 21.8977 82.773 22.1174C82.823 22.3371 82.8492 22.5718 82.8517 22.8214V23.2221C82.8517 23.4617 82.8279 23.6889 82.7805 23.9036C82.7356 24.1182 82.6694 24.3154 82.5821 24.4952C82.4922 24.6824 82.3786 24.8522 82.2413 25.0044C82.104 25.1567 81.9505 25.2865 81.7807 25.3939C81.601 25.5062 81.3975 25.5923 81.1704 25.6522C80.9457 25.7121 80.7023 25.7434 80.4402 25.7458H79.1783ZM79.8823 20.863V25.1804H80.4402C80.6399 25.1779 80.8209 25.153 80.9832 25.1055C81.1479 25.0581 81.2939 24.9907 81.4213 24.9033C81.5561 24.8135 81.6721 24.7036 81.7695 24.5738C81.8694 24.4415 81.948 24.2942 82.0054 24.132C82.0553 23.9997 82.0928 23.8574 82.1177 23.7051C82.1427 23.5503 82.1564 23.3893 82.1589 23.2221V22.8139C82.1564 22.6441 82.1415 22.4819 82.114 22.3271C82.089 22.1698 82.0503 22.0238 81.9979 21.889C81.9305 21.7143 81.8394 21.557 81.7246 21.4172C81.6122 21.2749 81.4737 21.1601 81.3089 21.0727C81.1916 21.0078 81.0605 20.9579 80.9158 20.9229C80.771 20.8855 80.6124 20.8655 80.4402 20.863H79.8823ZM85.6451 25.8207C85.3605 25.8207 85.0984 25.7721 84.8587 25.6747C84.6216 25.5773 84.4181 25.4413 84.2484 25.2666C84.0786 25.0918 83.9463 24.8846 83.8514 24.645C83.7566 24.4053 83.7092 24.1444 83.7092 23.8624V23.7051C83.7092 23.3781 83.7616 23.086 83.8664 22.8289C83.9713 22.5693 84.1111 22.3496 84.2858 22.1698C84.4581 21.9926 84.654 21.8566 84.8737 21.7617C85.0959 21.6668 85.323 21.6194 85.5552 21.6194C85.8473 21.6194 86.1019 21.6706 86.3191 21.7729C86.5388 21.8728 86.721 22.0113 86.8658 22.1886C87.0106 22.3683 87.1179 22.5792 87.1878 22.8214C87.2602 23.0635 87.2964 23.3257 87.2964 23.6077V23.9185H84.4019V23.9447C84.4194 24.142 84.4581 24.3154 84.518 24.4652C84.5804 24.615 84.6652 24.7473 84.7726 24.8621C84.8824 24.9845 85.0147 25.0806 85.1695 25.1505C85.3243 25.2204 85.4953 25.2553 85.6825 25.2553C85.9296 25.2553 86.1493 25.2054 86.3415 25.1055C86.5338 25.0057 86.6935 24.8734 86.8208 24.7086L87.244 25.0381C87.1092 25.2428 86.907 25.4251 86.6374 25.5848C86.3702 25.7421 86.0395 25.8207 85.6451 25.8207ZM85.5552 22.1886C85.4154 22.1886 85.2831 22.2148 85.1583 22.2672C85.0335 22.3171 84.9211 22.3908 84.8213 22.4881C84.7214 22.588 84.6365 22.7103 84.5666 22.8551C84.4992 22.9974 84.4518 23.1621 84.4244 23.3494H86.6037V23.3157C86.6037 23.1908 86.5799 23.0573 86.5325 22.915C86.4851 22.7702 86.4189 22.6454 86.3341 22.5406C86.2492 22.4357 86.1418 22.3508 86.012 22.2859C85.8847 22.221 85.7324 22.1886 85.5552 22.1886ZM89.4944 25.7458V22.2298H88.3786V21.6943H89.4944V21.4097C89.4944 21.1501 89.5319 20.9229 89.6068 20.7282C89.6841 20.531 89.7927 20.3662 89.9325 20.2339C90.0698 20.1016 90.2358 20.0018 90.4305 19.9344C90.6253 19.867 90.8424 19.8333 91.0821 19.8333C91.1819 19.8333 91.2805 19.8395 91.3779 19.852C91.4753 19.862 91.5714 19.8757 91.6662 19.8932C91.7286 19.9057 91.791 19.9194 91.8535 19.9344C91.9159 19.9469 91.9795 19.9618 92.0444 19.9793L91.962 20.5522C91.8597 20.5173 91.7399 20.4873 91.6026 20.4624C91.4678 20.4349 91.323 20.4212 91.1682 20.4212C91.0109 20.4212 90.8711 20.4411 90.7488 20.4811C90.629 20.5185 90.5291 20.5759 90.4493 20.6533C90.3644 20.7332 90.2995 20.8368 90.2546 20.9641C90.2121 21.0914 90.1909 21.24 90.1909 21.4097V21.6943H91.7524V22.2298H90.1909V25.7458H89.4944ZM94.8565 25.8207C94.572 25.8207 94.3099 25.7721 94.0702 25.6747C93.8331 25.5773 93.6296 25.4413 93.4598 25.2666C93.2901 25.0918 93.1578 24.8846 93.0629 24.645C92.9681 24.4053 92.9206 24.1444 92.9206 23.8624V23.7051C92.9206 23.3781 92.9731 23.086 93.0779 22.8289C93.1828 22.5693 93.3225 22.3496 93.4973 22.1698C93.6695 21.9926 93.8655 21.8566 94.0852 21.7617C94.3074 21.6668 94.5345 21.6194 94.7667 21.6194C95.0588 21.6194 95.3134 21.6706 95.5306 21.7729C95.7502 21.8728 95.9325 22.0113 96.0773 22.1886C96.222 22.3683 96.3294 22.5792 96.3993 22.8214C96.4717 23.0635 96.5079 23.3257 96.5079 23.6077V23.9185H93.6134V23.9447C93.6308 24.142 93.6695 24.3154 93.7295 24.4652C93.7919 24.615 93.8767 24.7473 93.9841 24.8621C94.0939 24.9845 94.2262 25.0806 94.381 25.1505C94.5358 25.2204 94.7068 25.2553 94.894 25.2553C95.1411 25.2553 95.3608 25.2054 95.553 25.1055C95.7452 25.0057 95.905 24.8734 96.0323 24.7086L96.4555 25.0381C96.3207 25.2428 96.1184 25.4251 95.8488 25.5848C95.5817 25.7421 95.251 25.8207 94.8565 25.8207ZM94.7667 22.1886C94.6269 22.1886 94.4946 22.2148 94.3698 22.2672C94.2449 22.3171 94.1326 22.3908 94.0328 22.4881C93.9329 22.588 93.848 22.7103 93.7781 22.8551C93.7107 22.9974 93.6633 23.1621 93.6358 23.3494H95.8151V23.3157C95.8151 23.1908 95.7914 23.0573 95.744 22.915C95.6966 22.7702 95.6304 22.6454 95.5455 22.5406C95.4607 22.4357 95.3533 22.3508 95.2235 22.2859C95.0962 22.221 94.9439 22.1886 94.7667 22.1886ZM97.6724 25.7458V21.6943H98.294L98.3427 22.2934C98.4026 22.2085 98.4675 22.1312 98.5374 22.0613C98.6098 21.9889 98.6859 21.9265 98.7658 21.874C98.8856 21.7941 99.0154 21.733 99.1552 21.6905C99.2975 21.6456 99.4473 21.6219 99.6046 21.6194C99.8168 21.6194 100.009 21.6494 100.181 21.7093C100.356 21.7692 100.505 21.8628 100.627 21.9901C100.749 22.1174 100.843 22.2797 100.908 22.4769C100.975 22.6716 101.009 22.9038 101.009 23.1734V25.7458H100.316V23.1884C100.316 23.0086 100.296 22.8563 100.256 22.7315C100.216 22.6067 100.158 22.5056 100.08 22.4282C100 22.3508 99.9029 22.2947 99.7881 22.2597C99.6757 22.2248 99.5459 22.2073 99.3986 22.2073C99.2713 22.2073 99.1527 22.226 99.0429 22.2635C98.9331 22.2984 98.832 22.3471 98.7396 22.4095C98.6647 22.4644 98.5948 22.5281 98.5299 22.6005C98.4675 22.6729 98.4126 22.7527 98.3652 22.8401V25.7458H97.6724ZM104.97 24.6712C104.97 24.5888 104.954 24.5152 104.922 24.4503C104.889 24.3828 104.834 24.3217 104.757 24.2668C104.68 24.2119 104.577 24.1619 104.45 24.117C104.323 24.0696 104.164 24.0271 103.974 23.9897C103.742 23.9422 103.53 23.8848 103.338 23.8174C103.148 23.75 102.986 23.6689 102.851 23.574C102.714 23.4817 102.608 23.3731 102.533 23.2483C102.458 23.121 102.42 22.9737 102.42 22.8064C102.42 22.6417 102.459 22.4881 102.537 22.3458C102.614 22.201 102.723 22.075 102.862 21.9676C103.002 21.8603 103.168 21.7754 103.36 21.713C103.555 21.6506 103.768 21.6194 104.001 21.6194C104.25 21.6194 104.475 21.6519 104.675 21.7168C104.874 21.7817 105.044 21.8715 105.184 21.9864C105.324 22.1012 105.431 22.236 105.506 22.3908C105.583 22.543 105.622 22.7078 105.622 22.885H104.929C104.929 22.7977 104.907 22.7128 104.862 22.6304C104.817 22.5455 104.755 22.4707 104.675 22.4057C104.595 22.3408 104.497 22.2884 104.383 22.2485C104.27 22.2085 104.143 22.1886 104.001 22.1886C103.853 22.1886 103.724 22.2048 103.611 22.2372C103.501 22.2697 103.41 22.3134 103.338 22.3683C103.263 22.4232 103.207 22.4869 103.169 22.5593C103.132 22.6317 103.113 22.7066 103.113 22.7839C103.113 22.8638 103.128 22.935 103.158 22.9974C103.188 23.0598 103.24 23.116 103.315 23.1659C103.388 23.2158 103.485 23.2607 103.607 23.3007C103.732 23.3406 103.89 23.3793 104.079 23.4168C104.329 23.4692 104.552 23.5303 104.75 23.6002C104.947 23.6676 105.113 23.7488 105.248 23.8436C105.382 23.941 105.485 24.0533 105.555 24.1806C105.627 24.308 105.663 24.4552 105.663 24.6225C105.663 24.8022 105.622 24.9657 105.54 25.113C105.46 25.2603 105.347 25.3864 105.203 25.4912C105.058 25.5961 104.884 25.6772 104.682 25.7346C104.48 25.792 104.259 25.8207 104.019 25.8207C103.745 25.8207 103.5 25.7845 103.285 25.7121C103.071 25.6373 102.89 25.5387 102.742 25.4163C102.593 25.2965 102.478 25.1567 102.398 24.9969C102.321 24.8372 102.282 24.6712 102.282 24.4989H102.975C102.985 24.6412 103.022 24.761 103.087 24.8584C103.154 24.9558 103.238 25.0344 103.338 25.0943C103.435 25.1542 103.544 25.1967 103.664 25.2216C103.783 25.2466 103.902 25.2591 104.019 25.2591C104.204 25.2591 104.365 25.2378 104.502 25.1954C104.64 25.1505 104.747 25.0893 104.824 25.0119C104.872 24.9645 104.908 24.9121 104.933 24.8547C104.958 24.7972 104.97 24.7361 104.97 24.6712ZM108.674 25.8207C108.389 25.8207 108.127 25.7721 107.887 25.6747C107.65 25.5773 107.447 25.4413 107.277 25.2666C107.107 25.0918 106.975 24.8846 106.88 24.645C106.785 24.4053 106.738 24.1444 106.738 23.8624V23.7051C106.738 23.3781 106.79 23.086 106.895 22.8289C107 22.5693 107.14 22.3496 107.315 22.1698C107.487 21.9926 107.683 21.8566 107.902 21.7617C108.125 21.6668 108.352 21.6194 108.584 21.6194C108.876 21.6194 109.131 21.6706 109.348 21.7729C109.567 21.8728 109.75 22.0113 109.894 22.1886C110.039 22.3683 110.147 22.5792 110.217 22.8214C110.289 23.0635 110.325 23.3257 110.325 23.6077V23.9185H107.431V23.9447C107.448 24.142 107.487 24.3154 107.547 24.4652C107.609 24.615 107.694 24.7473 107.801 24.8621C107.911 24.9845 108.043 25.0806 108.198 25.1505C108.353 25.2204 108.524 25.2553 108.711 25.2553C108.958 25.2553 109.178 25.2054 109.37 25.1055C109.562 25.0057 109.722 24.8734 109.85 24.7086L110.273 25.0381C110.138 25.2428 109.936 25.4251 109.666 25.5848C109.399 25.7421 109.068 25.8207 108.674 25.8207ZM108.584 22.1886C108.444 22.1886 108.312 22.2148 108.187 22.2672C108.062 22.3171 107.95 22.3908 107.85 22.4881C107.75 22.588 107.665 22.7103 107.595 22.8551C107.528 22.9974 107.481 23.1621 107.453 23.3494H109.632V23.3157C109.632 23.1908 109.609 23.0573 109.561 22.915C109.514 22.7702 109.448 22.6454 109.363 22.5406C109.278 22.4357 109.171 22.3508 109.041 22.2859C108.913 22.221 108.761 22.1886 108.584 22.1886ZM116.088 25.7458V20.2938H117.709C117.934 20.2963 118.154 20.3263 118.368 20.3837C118.583 20.4386 118.774 20.5248 118.941 20.6421C119.108 20.7594 119.242 20.9092 119.342 21.0914C119.442 21.2737 119.49 21.4921 119.488 21.7467C119.485 21.889 119.462 22.0188 119.417 22.1361C119.374 22.2535 119.316 22.3583 119.241 22.4507C119.163 22.5455 119.077 22.6254 118.982 22.6903C118.89 22.7552 118.778 22.8164 118.645 22.8738V22.885C118.783 22.9175 118.915 22.9762 119.042 23.061C119.17 23.1459 119.274 23.2395 119.357 23.3419C119.444 23.4542 119.512 23.5803 119.559 23.7201C119.609 23.8599 119.634 24.0109 119.634 24.1732C119.636 24.4278 119.588 24.6525 119.488 24.8472C119.388 25.0419 119.255 25.2041 119.087 25.334C118.92 25.4663 118.727 25.5674 118.507 25.6373C118.29 25.7072 118.065 25.7434 117.833 25.7458L116.088 25.7458ZM116.784 23.1958V25.158L117.852 25.158C117.996 25.1555 118.134 25.1318 118.263 25.0868C118.393 25.0394 118.508 24.9745 118.608 24.8921C118.708 24.8097 118.786 24.7086 118.844 24.5888C118.904 24.469 118.934 24.3329 118.934 24.1806C118.936 24.0259 118.91 23.8886 118.855 23.7688C118.803 23.6489 118.729 23.5466 118.634 23.4617C118.539 23.3793 118.428 23.3157 118.301 23.2707C118.174 23.2258 118.036 23.2008 117.889 23.1958L116.784 23.1958ZM116.784 22.6192H117.75C117.88 22.6167 118.008 22.5967 118.132 22.5593C118.257 22.5193 118.368 22.4619 118.466 22.387C118.563 22.3146 118.642 22.2248 118.702 22.1174C118.761 22.0101 118.791 21.8853 118.791 21.743C118.791 21.5907 118.761 21.4609 118.702 21.3535C118.644 21.2462 118.567 21.1576 118.469 21.0877C118.37 21.0203 118.255 20.9704 118.125 20.9379C117.998 20.9055 117.867 20.888 117.732 20.8855H116.784V22.6192ZM123.356 21.6194C123.483 21.6194 123.616 21.6281 123.753 21.6456C123.893 21.6631 123.998 21.6868 124.067 21.7168L123.974 22.3945C123.839 22.3646 123.71 22.3433 123.588 22.3309C123.468 22.3159 123.342 22.3084 123.21 22.3084C123.04 22.3084 122.887 22.3296 122.749 22.372C122.612 22.412 122.492 22.4719 122.39 22.5518C122.298 22.6217 122.216 22.7078 122.147 22.8102C122.079 22.91 122.023 23.0223 121.978 23.1472V25.7458H121.282V21.6943H121.941L121.971 22.2372L121.974 22.3383C122.139 22.1162 122.336 21.9414 122.566 21.8141C122.798 21.6843 123.061 21.6194 123.356 21.6194ZM127.969 25.7458C127.942 25.6934 127.919 25.6285 127.902 25.5511C127.887 25.4713 127.876 25.3889 127.868 25.304C127.798 25.3739 127.72 25.44 127.632 25.5025C127.547 25.5649 127.454 25.6198 127.351 25.6672C127.247 25.7146 127.135 25.7521 127.018 25.7796C126.901 25.807 126.776 25.8207 126.644 25.8207C126.429 25.8207 126.234 25.7895 126.06 25.7271C125.887 25.6647 125.741 25.5798 125.621 25.4725C125.499 25.3677 125.404 25.2428 125.337 25.098C125.272 24.9508 125.239 24.7922 125.239 24.6225C125.239 24.4003 125.283 24.2056 125.371 24.0384C125.46 23.8711 125.586 23.7313 125.749 23.619C125.911 23.5091 126.106 23.4268 126.333 23.3718C126.563 23.3169 126.818 23.2895 127.1 23.2895H127.857V22.9712C127.857 22.8488 127.834 22.739 127.789 22.6417C127.745 22.5443 127.681 22.4607 127.599 22.3908C127.516 22.3234 127.415 22.2709 127.295 22.2335C127.178 22.1961 127.046 22.1773 126.898 22.1773C126.761 22.1773 126.637 22.1948 126.528 22.2298C126.42 22.2647 126.329 22.3109 126.254 22.3683C126.179 22.4257 126.121 22.4944 126.078 22.5743C126.038 22.6516 126.018 22.7328 126.018 22.8176H125.322C125.324 22.6704 125.362 22.5256 125.434 22.3833C125.509 22.241 125.616 22.1124 125.756 21.9976C125.894 21.8853 126.061 21.7941 126.258 21.7242C126.458 21.6544 126.684 21.6194 126.936 21.6194C127.165 21.6194 127.379 21.6481 127.576 21.7055C127.773 21.7604 127.944 21.8441 128.089 21.9564C128.231 22.0712 128.344 22.2135 128.426 22.3833C128.508 22.553 128.55 22.7515 128.55 22.9787V24.8621C128.55 24.9969 128.562 25.1405 128.587 25.2928C128.612 25.4425 128.647 25.5736 128.692 25.6859V25.7458H127.969ZM126.745 25.2179C126.88 25.2179 127.006 25.2004 127.123 25.1655C127.24 25.1305 127.348 25.0843 127.445 25.0269C127.54 24.9695 127.622 24.9046 127.692 24.8322C127.762 24.7573 127.817 24.6799 127.857 24.6V23.78H127.213C126.973 23.78 126.763 23.8012 126.584 23.8436C126.407 23.8836 126.265 23.946 126.161 24.0309C126.086 24.0908 126.028 24.1619 125.988 24.2443C125.951 24.3267 125.932 24.4203 125.932 24.5251C125.932 24.625 125.948 24.7174 125.981 24.8022C126.016 24.8871 126.067 24.9595 126.134 25.0194C126.202 25.0818 126.287 25.1305 126.389 25.1655C126.491 25.2004 126.61 25.2179 126.745 25.2179ZM129.913 25.7458V21.6943H130.534L130.583 22.2934C130.643 22.2085 130.708 22.1312 130.778 22.0613C130.85 21.9889 130.926 21.9265 131.006 21.874C131.126 21.7941 131.256 21.733 131.395 21.6905C131.538 21.6456 131.688 21.6219 131.845 21.6194C132.057 21.6194 132.249 21.6494 132.421 21.7093C132.596 21.7692 132.745 21.8628 132.867 21.9901C132.989 22.1174 133.083 22.2797 133.148 22.4769C133.215 22.6716 133.249 22.9038 133.249 23.1734V25.7458H132.556V23.1884C132.556 23.0086 132.536 22.8563 132.496 22.7315C132.456 22.6067 132.398 22.5056 132.32 22.4282C132.24 22.3508 132.143 22.2947 132.028 22.2597C131.916 22.2248 131.786 22.2073 131.639 22.2073C131.512 22.2073 131.393 22.226 131.283 22.2635C131.173 22.2984 131.072 22.3471 130.98 22.4095C130.905 22.4644 130.835 22.5281 130.77 22.6005C130.708 22.6729 130.653 22.7527 130.605 22.8401V25.7458H129.913ZM134.387 23.6864C134.387 23.3843 134.425 23.1072 134.5 22.8551C134.577 22.6005 134.687 22.382 134.829 22.1998C134.969 22.0176 135.139 21.8753 135.338 21.7729C135.538 21.6706 135.762 21.6194 136.009 21.6194C136.251 21.6194 136.462 21.6606 136.642 21.743C136.824 21.8229 136.981 21.9402 137.113 22.095V19.9943H137.806V25.7458H137.169L137.14 25.319C137.005 25.4837 136.844 25.6086 136.656 25.6934C136.469 25.7783 136.251 25.8207 136.001 25.8207C135.757 25.8207 135.534 25.7683 135.335 25.6635C135.137 25.5586 134.969 25.4138 134.829 25.2291C134.689 25.0444 134.581 24.8272 134.503 24.5776C134.426 24.3254 134.387 24.0546 134.387 23.765V23.6864ZM135.08 23.765C135.08 23.9622 135.101 24.1494 135.144 24.3267C135.186 24.5039 135.252 24.6599 135.342 24.7947C135.43 24.9295 135.542 25.0369 135.679 25.1168C135.816 25.1942 135.981 25.2329 136.173 25.2329C136.406 25.2329 136.598 25.1804 136.75 25.0756C136.902 24.9707 137.023 24.8297 137.113 24.6525V22.7727C137.023 22.608 136.902 22.4732 136.75 22.3683C136.598 22.261 136.408 22.2073 136.181 22.2073C135.986 22.2073 135.819 22.2472 135.679 22.3271C135.542 22.407 135.43 22.5143 135.342 22.6491C135.252 22.7864 135.186 22.945 135.144 23.1247C135.101 23.3019 135.08 23.4892 135.08 23.6864V23.765ZM147.257 25.0306C147.172 25.1305 147.082 25.2216 146.988 25.304C146.893 25.3839 146.794 25.4538 146.692 25.5137C146.517 25.6185 146.329 25.6959 146.126 25.7458C145.924 25.7983 145.712 25.8232 145.49 25.8207C145.265 25.8182 145.058 25.7845 144.868 25.7196C144.681 25.6522 144.512 25.5599 144.363 25.4425C144.213 25.3277 144.082 25.1917 143.97 25.0344C143.857 24.8771 143.764 24.7061 143.689 24.5214C143.611 24.3392 143.553 24.1482 143.513 23.9485C143.475 23.7463 143.455 23.5428 143.453 23.3381V22.7053C143.455 22.5031 143.473 22.3022 143.505 22.1024C143.54 21.9002 143.593 21.7068 143.662 21.522C143.732 21.3373 143.82 21.1663 143.925 21.009C144.029 20.8493 144.155 20.7107 144.303 20.5934C144.448 20.4786 144.612 20.3875 144.797 20.3201C144.982 20.2527 145.189 20.219 145.419 20.219C145.673 20.219 145.908 20.2589 146.123 20.3388C146.337 20.4162 146.525 20.5273 146.684 20.672C146.844 20.8193 146.973 20.9966 147.07 21.2038C147.167 21.4085 147.227 21.6381 147.25 21.8928H146.564C146.537 21.7355 146.495 21.5907 146.437 21.4584C146.38 21.3236 146.305 21.2088 146.212 21.1139C146.118 21.019 146.005 20.9454 145.875 20.893C145.746 20.838 145.595 20.8106 145.422 20.8106C145.258 20.8106 145.112 20.8393 144.984 20.8967C144.857 20.9516 144.746 21.0265 144.651 21.1214C144.556 21.2162 144.478 21.3273 144.415 21.4546C144.353 21.5795 144.302 21.7118 144.262 21.8516C144.222 21.9914 144.193 22.1336 144.175 22.2784C144.158 22.4232 144.149 22.563 144.149 22.6978V23.3381C144.152 23.4754 144.163 23.6177 144.183 23.765C144.205 23.9098 144.239 24.0521 144.284 24.1919C144.329 24.3317 144.386 24.464 144.456 24.5888C144.526 24.7136 144.611 24.8235 144.711 24.9183C144.808 25.0132 144.922 25.0893 145.052 25.1467C145.181 25.2016 145.329 25.2304 145.494 25.2329C145.588 25.2353 145.687 25.2316 145.789 25.2216C145.894 25.2116 145.995 25.1917 146.093 25.1617C146.19 25.1318 146.281 25.0918 146.366 25.0419C146.451 24.9895 146.522 24.9221 146.579 24.8397L146.587 23.6152H145.479V23.0311H147.246L147.257 25.0306ZM151.005 25.7458L150.964 25.1879C150.829 25.3876 150.661 25.5436 150.459 25.656C150.257 25.7658 150.023 25.8207 149.759 25.8207C149.546 25.8207 149.354 25.7883 149.182 25.7234C149.01 25.656 148.862 25.5524 148.74 25.4126C148.618 25.2728 148.523 25.0956 148.455 24.8809C148.391 24.6637 148.358 24.4041 148.358 24.102V21.6943H149.051V24.1095C149.051 24.3292 149.068 24.5114 149.103 24.6562C149.138 24.801 149.191 24.9158 149.26 25.0007C149.33 25.0881 149.415 25.1492 149.515 25.1842C149.617 25.2191 149.735 25.2366 149.867 25.2366C150.022 25.2366 150.16 25.2191 150.283 25.1842C150.405 25.1467 150.511 25.0956 150.601 25.0306C150.676 24.9782 150.741 24.9158 150.796 24.8434C150.853 24.7685 150.901 24.6874 150.938 24.6V21.6943H151.635V25.7458H151.005ZM153.05 21.6943H155.121V25.1467H156.442V25.7458H153.05V25.1467H154.428V22.2972H153.05V21.6943ZM154.338 20.6309C154.338 20.5709 154.347 20.5148 154.364 20.4624C154.384 20.4099 154.414 20.365 154.454 20.3275C154.487 20.2951 154.528 20.2701 154.578 20.2527C154.63 20.2327 154.689 20.2227 154.754 20.2227C154.819 20.2227 154.876 20.2327 154.926 20.2527C154.976 20.2701 155.017 20.2951 155.049 20.3275C155.089 20.3625 155.119 20.4062 155.139 20.4586C155.159 20.511 155.169 20.5684 155.169 20.6309C155.169 20.7432 155.134 20.8368 155.064 20.9117C154.995 20.9866 154.891 21.024 154.754 21.024C154.614 21.024 154.509 20.9866 154.439 20.9117C154.372 20.8368 154.338 20.7432 154.338 20.6309ZM157.416 23.6864C157.416 23.3843 157.453 23.1072 157.528 22.8551C157.606 22.6005 157.716 22.382 157.858 22.1998C157.998 22.0176 158.167 21.8753 158.367 21.7729C158.567 21.6706 158.79 21.6194 159.037 21.6194C159.28 21.6194 159.49 21.6606 159.67 21.743C159.852 21.8229 160.01 21.9402 160.142 22.095V19.9943H160.835V25.7458H160.198L160.168 25.319C160.033 25.4837 159.872 25.6086 159.685 25.6934C159.498 25.7783 159.28 25.8207 159.03 25.8207C158.785 25.8207 158.563 25.7683 158.363 25.6635C158.166 25.5586 157.998 25.4138 157.858 25.2291C157.718 25.0444 157.609 24.8272 157.532 24.5776C157.455 24.3254 157.416 24.0546 157.416 23.765V23.6864ZM158.109 23.765C158.109 23.9622 158.13 24.1494 158.172 24.3267C158.215 24.5039 158.281 24.6599 158.371 24.7947C158.458 24.9295 158.571 25.0369 158.708 25.1168C158.845 25.1942 159.01 25.2329 159.202 25.2329C159.434 25.2329 159.627 25.1804 159.779 25.0756C159.931 24.9707 160.052 24.8297 160.142 24.6525V22.7727C160.052 22.608 159.931 22.4732 159.779 22.3683C159.627 22.261 159.437 22.2073 159.21 22.2073C159.015 22.2073 158.848 22.2472 158.708 22.3271C158.571 22.407 158.458 22.5143 158.371 22.6491C158.281 22.7864 158.215 22.945 158.172 23.1247C158.13 23.3019 158.109 23.4892 158.109 23.6864V23.765ZM163.943 25.8207C163.658 25.8207 163.396 25.7721 163.156 25.6747C162.919 25.5773 162.716 25.4413 162.546 25.2666C162.376 25.0918 162.244 24.8846 162.149 24.645C162.054 24.4053 162.007 24.1444 162.007 23.8624V23.7051C162.007 23.3781 162.059 23.086 162.164 22.8289C162.269 22.5693 162.409 22.3496 162.583 22.1698C162.756 21.9926 162.952 21.8566 163.171 21.7617C163.394 21.6668 163.621 21.6194 163.853 21.6194C164.145 21.6194 164.4 21.6706 164.617 21.7729C164.836 21.8728 165.019 22.0113 165.163 22.1886C165.308 22.3683 165.416 22.5792 165.485 22.8214C165.558 23.0635 165.594 23.3257 165.594 23.6077V23.9185H162.7V23.9447C162.717 24.142 162.756 24.3154 162.816 24.4652C162.878 24.615 162.963 24.7473 163.07 24.8621C163.18 24.9845 163.312 25.0806 163.467 25.1505C163.622 25.2204 163.793 25.2553 163.98 25.2553C164.227 25.2553 164.447 25.2054 164.639 25.1055C164.831 25.0057 164.991 24.8734 165.118 24.7086L165.542 25.0381C165.407 25.2428 165.205 25.4251 164.935 25.5848C164.668 25.7421 164.337 25.8207 163.943 25.8207ZM163.853 22.1886C163.713 22.1886 163.581 22.2148 163.456 22.2672C163.331 22.3171 163.219 22.3908 163.119 22.4881C163.019 22.588 162.934 22.7103 162.864 22.8551C162.797 22.9974 162.749 23.1621 162.722 23.3494H164.901V23.3157C164.901 23.1908 164.878 23.0573 164.83 22.915C164.783 22.7702 164.717 22.6454 164.632 22.5406C164.547 22.4357 164.439 22.3508 164.31 22.2859C164.182 22.221 164.03 22.1886 163.853 22.1886ZM166.867 19.9943H168.938V25.1467H170.26V25.7458H166.867V25.1467H168.245V20.5972H166.867V19.9943ZM171.473 21.6943H173.544V25.1467H174.865V25.7458H171.473V25.1467H172.851V22.2972H171.473V21.6943ZM172.761 20.6309C172.761 20.5709 172.77 20.5148 172.787 20.4624C172.807 20.4099 172.837 20.365 172.877 20.3275C172.91 20.2951 172.951 20.2701 173.001 20.2527C173.053 20.2327 173.112 20.2227 173.177 20.2227C173.242 20.2227 173.299 20.2327 173.349 20.2527C173.399 20.2701 173.44 20.2951 173.472 20.3275C173.512 20.3625 173.542 20.4062 173.562 20.4586C173.582 20.511 173.592 20.5684 173.592 20.6309C173.592 20.7432 173.557 20.8368 173.487 20.9117C173.418 20.9866 173.314 21.024 173.177 21.024C173.037 21.024 172.932 20.9866 172.862 20.9117C172.795 20.8368 172.761 20.7432 172.761 20.6309ZM175.97 25.7458V21.6943H176.592L176.64 22.2934C176.7 22.2085 176.765 22.1312 176.835 22.0613C176.907 21.9889 176.984 21.9265 177.063 21.874C177.183 21.7941 177.313 21.733 177.453 21.6905C177.595 21.6456 177.745 21.6219 177.902 21.6194C178.114 21.6194 178.307 21.6494 178.479 21.7093C178.654 21.7692 178.802 21.8628 178.924 21.9901C179.047 22.1174 179.14 22.2797 179.205 22.4769C179.273 22.6716 179.306 22.9038 179.306 23.1734V25.7458H178.614V23.1884C178.614 23.0086 178.594 22.8563 178.554 22.7315C178.514 22.6067 178.455 22.5056 178.378 22.4282C178.298 22.3508 178.201 22.2947 178.086 22.2597C177.973 22.2248 177.844 22.2073 177.696 22.2073C177.569 22.2073 177.45 22.226 177.341 22.2635C177.231 22.2984 177.13 22.3471 177.037 22.4095C176.962 22.4644 176.892 22.5281 176.828 22.6005C176.765 22.6729 176.71 22.7527 176.663 22.8401V25.7458H175.97ZM182.366 25.8207C182.081 25.8207 181.819 25.7721 181.579 25.6747C181.342 25.5773 181.139 25.4413 180.969 25.2666C180.799 25.0918 180.667 24.8846 180.572 24.645C180.477 24.4053 180.43 24.1444 180.43 23.8624V23.7051C180.43 23.3781 180.482 23.086 180.587 22.8289C180.692 22.5693 180.832 22.3496 181.006 22.1698C181.179 21.9926 181.375 21.8566 181.594 21.7617C181.816 21.6668 182.044 21.6194 182.276 21.6194C182.568 21.6194 182.823 21.6706 183.04 21.7729C183.259 21.8728 183.442 22.0113 183.586 22.1886C183.731 22.3683 183.839 22.5792 183.908 22.8214C183.981 23.0635 184.017 23.3257 184.017 23.6077V23.9185H181.122V23.9447C181.14 24.142 181.179 24.3154 181.239 24.4652C181.301 24.615 181.386 24.7473 181.493 24.8621C181.603 24.9845 181.735 25.0806 181.89 25.1505C182.045 25.2204 182.216 25.2553 182.403 25.2553C182.65 25.2553 182.87 25.2054 183.062 25.1055C183.254 25.0057 183.414 24.8734 183.541 24.7086L183.965 25.0381C183.83 25.2428 183.628 25.4251 183.358 25.5848C183.091 25.7421 182.76 25.8207 182.366 25.8207ZM182.276 22.1886C182.136 22.1886 182.004 22.2148 181.879 22.2672C181.754 22.3171 181.642 22.3908 181.542 22.4881C181.442 22.588 181.357 22.7103 181.287 22.8551C181.22 22.9974 181.172 23.1621 181.145 23.3494H183.324V23.3157C183.324 23.1908 183.301 23.0573 183.253 22.915C183.206 22.7702 183.14 22.6454 183.055 22.5406C182.97 22.4357 182.862 22.3508 182.733 22.2859C182.605 22.221 182.453 22.1886 182.276 22.1886ZM187.874 24.6712C187.874 24.5888 187.858 24.5152 187.825 24.4503C187.793 24.3828 187.738 24.3217 187.66 24.2668C187.583 24.2119 187.481 24.1619 187.353 24.117C187.226 24.0696 187.068 24.0271 186.878 23.9897C186.646 23.9422 186.433 23.8848 186.241 23.8174C186.052 23.75 185.889 23.6689 185.754 23.574C185.617 23.4817 185.511 23.3731 185.436 23.2483C185.361 23.121 185.324 22.9737 185.324 22.8064C185.324 22.6417 185.363 22.4881 185.44 22.3458C185.517 22.201 185.626 22.075 185.766 21.9676C185.905 21.8603 186.071 21.7754 186.264 21.713C186.458 21.6506 186.672 21.6194 186.904 21.6194C187.154 21.6194 187.378 21.6519 187.578 21.7168C187.778 21.7817 187.947 21.8715 188.087 21.9864C188.227 22.1012 188.334 22.236 188.409 22.3908C188.487 22.543 188.525 22.7078 188.525 22.885H187.833C187.833 22.7977 187.81 22.7128 187.765 22.6304C187.72 22.5455 187.658 22.4707 187.578 22.4057C187.498 22.3408 187.401 22.2884 187.286 22.2485C187.174 22.2085 187.046 22.1886 186.904 22.1886C186.757 22.1886 186.627 22.2048 186.515 22.2372C186.405 22.2697 186.314 22.3134 186.241 22.3683C186.166 22.4232 186.11 22.4869 186.073 22.5593C186.035 22.6317 186.017 22.7066 186.017 22.7839C186.017 22.8638 186.032 22.935 186.062 22.9974C186.091 23.0598 186.144 23.116 186.219 23.1659C186.291 23.2158 186.389 23.2607 186.511 23.3007C186.636 23.3406 186.793 23.3793 186.983 23.4168C187.232 23.4692 187.456 23.5303 187.653 23.6002C187.85 23.6676 188.016 23.7488 188.151 23.8436C188.286 23.941 188.388 24.0533 188.458 24.1806C188.53 24.308 188.567 24.4552 188.567 24.6225C188.567 24.8022 188.525 24.9657 188.443 25.113C188.363 25.2603 188.251 25.3864 188.106 25.4912C187.961 25.5961 187.788 25.6772 187.586 25.7346C187.383 25.792 187.162 25.8207 186.923 25.8207C186.648 25.8207 186.404 25.7845 186.189 25.7121C185.974 25.6373 185.793 25.5387 185.646 25.4163C185.496 25.2965 185.381 25.1567 185.301 24.9969C185.224 24.8372 185.185 24.6712 185.185 24.4989H185.878C185.888 24.6412 185.925 24.761 185.99 24.8584C186.058 24.9558 186.141 25.0344 186.241 25.0943C186.339 25.1542 186.447 25.1967 186.567 25.2216C186.687 25.2466 186.805 25.2591 186.923 25.2591C187.107 25.2591 187.268 25.2378 187.406 25.1954C187.543 25.1505 187.65 25.0893 187.728 25.0119C187.775 24.9645 187.811 24.9121 187.836 24.8547C187.861 24.7972 187.874 24.7361 187.874 24.6712Z" fill="black"/>
<path d="M744.249 25.7458H740.677V25.2478L742.463 23.2632C742.623 23.086 742.756 22.9287 742.864 22.7914C742.971 22.6541 743.057 22.5268 743.122 22.4095C743.187 22.2947 743.233 22.1861 743.261 22.0837C743.288 21.9789 743.302 21.8715 743.302 21.7617C743.302 21.6269 743.279 21.5008 743.234 21.3835C743.192 21.2637 743.13 21.1601 743.047 21.0727C742.962 20.9853 742.86 20.9167 742.74 20.8668C742.623 20.8143 742.489 20.7881 742.339 20.7881C742.157 20.7881 741.999 20.8143 741.864 20.8668C741.732 20.9192 741.622 20.9928 741.534 21.0877C741.445 21.185 741.377 21.3024 741.332 21.4397C741.29 21.577 741.269 21.7305 741.269 21.9002H740.572C740.572 21.6706 740.612 21.4546 740.692 21.2524C740.772 21.0477 740.888 20.8693 741.04 20.717C741.19 20.5647 741.373 20.4436 741.591 20.3538C741.81 20.2639 742.06 20.219 742.339 20.219C742.597 20.219 742.828 20.2577 743.032 20.335C743.239 20.4099 743.414 20.5148 743.556 20.6496C743.699 20.7844 743.807 20.9441 743.882 21.1289C743.96 21.3136 743.998 21.5146 743.998 21.7317C743.998 21.894 743.971 22.055 743.916 22.2148C743.861 22.372 743.787 22.5281 743.695 22.6828C743.6 22.8376 743.49 22.9911 743.365 23.1434C743.243 23.2932 743.113 23.443 742.976 23.5928L741.512 25.1804H744.249V25.7458ZM746.717 25.2965C746.717 25.1492 746.762 25.0232 746.852 24.9183C746.941 24.8135 747.078 24.761 747.26 24.761C747.44 24.761 747.576 24.8135 747.668 24.9183C747.763 25.0207 747.81 25.1467 747.81 25.2965C747.81 25.4438 747.763 25.5674 747.668 25.6672C747.573 25.7671 747.437 25.817 747.26 25.817C747.08 25.817 746.944 25.7671 746.852 25.6672C746.762 25.5649 746.717 25.4413 746.717 25.2965ZM753.539 23.6602C753.539 24.0072 753.499 24.3154 753.419 24.5851C753.34 24.8522 753.225 25.0768 753.075 25.2591C752.925 25.4438 752.742 25.5836 752.525 25.6784C752.307 25.7733 752.059 25.8207 751.779 25.8207C751.502 25.8207 751.254 25.7746 751.034 25.6822C750.815 25.5873 750.629 25.4463 750.476 25.2591C750.324 25.0768 750.208 24.8522 750.128 24.5851C750.048 24.3154 750.008 24.0072 750.008 23.6602V22.3833C750.008 22.0363 750.048 21.7292 750.128 21.4621C750.208 21.1925 750.324 20.9654 750.476 20.7806C750.626 20.5959 750.81 20.4561 751.027 20.3612C751.246 20.2639 751.495 20.2152 751.772 20.2152C752.051 20.2152 752.3 20.2639 752.517 20.3612C752.737 20.4561 752.923 20.5959 753.075 20.7806C753.225 20.9654 753.34 21.1925 753.419 21.4621C753.499 21.7292 753.539 22.0363 753.539 22.3833V23.6602ZM750.705 23.5216L752.828 21.8928C752.808 21.713 752.772 21.5545 752.719 21.4172C752.669 21.2774 752.601 21.1613 752.513 21.069C752.428 20.9741 752.324 20.903 752.199 20.8555C752.076 20.8081 751.934 20.7844 751.772 20.7844C751.607 20.7844 751.461 20.8106 751.334 20.863C751.209 20.9129 751.103 20.9866 751.016 21.0839C750.911 21.2063 750.832 21.3648 750.78 21.5595C750.73 21.7517 750.705 21.9751 750.705 22.2298V23.1434C750.705 23.2058 750.705 23.2682 750.705 23.3306C750.705 23.3931 750.705 23.4567 750.705 23.5216ZM752.843 23.8062V23.0348C752.843 22.9974 752.843 22.9262 752.843 22.8214C752.843 22.714 752.843 22.6254 752.843 22.5555L750.723 24.1769C750.746 24.3591 750.786 24.5201 750.843 24.6599C750.901 24.7972 750.976 24.9108 751.068 25.0007C751.153 25.0856 751.255 25.1505 751.375 25.1954C751.495 25.2378 751.63 25.2591 751.779 25.2591C751.937 25.2591 752.076 25.2353 752.199 25.1879C752.321 25.1405 752.425 25.0718 752.51 24.982C752.624 24.8596 752.708 24.6999 752.76 24.5027C752.815 24.3055 752.843 24.0733 752.843 23.8062ZM760.111 25.158H762.777V25.7458H759.418V20.2938H760.111V25.158ZM763.739 23.6826C763.739 23.3906 763.782 23.1197 763.867 22.8701C763.952 22.6179 764.074 22.3995 764.234 22.2148C764.391 22.0301 764.583 21.8853 764.81 21.7804C765.037 21.6731 765.293 21.6194 765.578 21.6194C765.865 21.6194 766.122 21.6731 766.349 21.7804C766.579 21.8853 766.774 22.0301 766.933 22.2148C767.091 22.3995 767.212 22.6179 767.297 22.8701C767.381 23.1197 767.424 23.3906 767.424 23.6826V23.765C767.424 24.0571 767.381 24.3279 767.297 24.5776C767.212 24.8272 767.091 25.0444 766.933 25.2291C766.774 25.4138 766.58 25.5586 766.353 25.6635C766.126 25.7683 765.87 25.8207 765.585 25.8207C765.298 25.8207 765.04 25.7683 764.81 25.6635C764.583 25.5586 764.391 25.4138 764.234 25.2291C764.074 25.0444 763.952 24.8272 763.867 24.5776C763.782 24.3279 763.739 24.0571 763.739 23.765V23.6826ZM764.432 23.765C764.432 23.9647 764.456 24.1557 764.503 24.3379C764.551 24.5177 764.623 24.6762 764.72 24.8135C764.815 24.9508 764.935 25.0594 765.08 25.1392C765.225 25.2191 765.393 25.2591 765.585 25.2591C765.775 25.2591 765.941 25.2191 766.083 25.1392C766.228 25.0594 766.349 24.9508 766.447 24.8135C766.541 24.6762 766.613 24.5177 766.66 24.3379C766.707 24.1557 766.731 23.9647 766.731 23.765V23.6826C766.731 23.4854 766.706 23.2969 766.656 23.1172C766.609 22.935 766.538 22.7752 766.443 22.6379C766.346 22.5006 766.224 22.392 766.08 22.3121C765.937 22.2298 765.77 22.1886 765.578 22.1886C765.386 22.1886 765.218 22.2298 765.076 22.3121C764.934 22.392 764.815 22.5006 764.72 22.6379C764.623 22.7752 764.551 22.935 764.503 23.1172C764.456 23.2969 764.432 23.4854 764.432 23.6826V23.765ZM768.412 23.6864C768.412 23.3843 768.449 23.1072 768.521 22.8551C768.596 22.6005 768.703 22.382 768.843 22.1998C768.983 22.0176 769.153 21.8753 769.352 21.7729C769.552 21.6706 769.778 21.6194 770.03 21.6194C770.192 21.6194 770.341 21.6381 770.476 21.6756C770.613 21.713 770.737 21.7679 770.846 21.8403C770.906 21.8778 770.962 21.9215 771.015 21.9714C771.07 22.0213 771.121 22.0762 771.168 22.1361L771.202 21.6943H771.831V25.6597C771.831 25.9268 771.789 26.164 771.704 26.3712C771.622 26.5784 771.505 26.7544 771.356 26.8992C771.203 27.0439 771.022 27.1538 770.813 27.2287C770.603 27.3036 770.371 27.341 770.116 27.341C770.011 27.341 769.892 27.3285 769.757 27.3036C769.622 27.2811 769.486 27.2424 769.349 27.1875C769.209 27.1351 769.074 27.0639 768.944 26.974C768.817 26.8842 768.707 26.7731 768.615 26.6408L768.974 26.2251C769.059 26.3275 769.146 26.4136 769.236 26.4835C769.326 26.5559 769.417 26.6133 769.51 26.6558C769.602 26.6982 769.694 26.7282 769.787 26.7456C769.879 26.7656 769.971 26.7756 770.064 26.7756C770.229 26.7756 770.377 26.7519 770.509 26.7044C770.642 26.657 770.755 26.5871 770.85 26.4948C770.943 26.4049 771.014 26.2925 771.064 26.1577C771.114 26.0229 771.138 25.8682 771.138 25.6934V25.3452C771.086 25.4051 771.03 25.46 770.97 25.5099C770.913 25.5599 770.85 25.6036 770.783 25.641C770.678 25.6984 770.562 25.7421 770.435 25.7721C770.307 25.8045 770.17 25.8207 770.023 25.8207C769.775 25.8207 769.552 25.7683 769.352 25.6635C769.153 25.5586 768.984 25.4138 768.847 25.2291C768.707 25.0444 768.6 24.8272 768.525 24.5776C768.45 24.3254 768.412 24.0546 768.412 23.765V23.6864ZM769.105 23.765C769.105 23.9622 769.125 24.1494 769.165 24.3267C769.208 24.5039 769.274 24.6599 769.364 24.7947C769.451 24.9295 769.563 25.0369 769.701 25.1168C769.838 25.1942 770.003 25.2329 770.195 25.2329C770.315 25.2329 770.422 25.2191 770.517 25.1917C770.614 25.1617 770.702 25.1205 770.779 25.0681C770.854 25.0157 770.921 24.9533 770.981 24.8809C771.041 24.8085 771.094 24.7286 771.138 24.6412V22.7839C771.094 22.6991 771.041 22.6217 770.981 22.5518C770.921 22.4819 770.853 22.4207 770.775 22.3683C770.698 22.3184 770.612 22.2797 770.517 22.2522C770.422 22.2223 770.317 22.2073 770.202 22.2073C770.008 22.2073 769.84 22.2472 769.701 22.3271C769.563 22.407 769.451 22.5143 769.364 22.6491C769.274 22.7864 769.208 22.945 769.165 23.1247C769.125 23.3019 769.105 23.4892 769.105 23.6864V23.765ZM772.951 23.6826C772.951 23.3906 772.993 23.1197 773.078 22.8701C773.163 22.6179 773.285 22.3995 773.445 22.2148C773.602 22.0301 773.795 21.8853 774.022 21.7804C774.249 21.6731 774.505 21.6194 774.789 21.6194C775.076 21.6194 775.334 21.6731 775.561 21.7804C775.79 21.8853 775.985 22.0301 776.145 22.2148C776.302 22.3995 776.423 22.6179 776.508 22.8701C776.593 23.1197 776.635 23.3906 776.635 23.6826V23.765C776.635 24.0571 776.593 24.3279 776.508 24.5776C776.423 24.8272 776.302 25.0444 776.145 25.2291C775.985 25.4138 775.792 25.5586 775.564 25.6635C775.337 25.7683 775.081 25.8207 774.797 25.8207C774.51 25.8207 774.251 25.7683 774.022 25.6635C773.795 25.5586 773.602 25.4138 773.445 25.2291C773.285 25.0444 773.163 24.8272 773.078 24.5776C772.993 24.3279 772.951 24.0571 772.951 23.765V23.6826ZM773.644 23.765C773.644 23.9647 773.667 24.1557 773.715 24.3379C773.762 24.5177 773.835 24.6762 773.932 24.8135C774.027 24.9508 774.147 25.0594 774.291 25.1392C774.436 25.2191 774.605 25.2591 774.797 25.2591C774.987 25.2591 775.153 25.2191 775.295 25.1392C775.44 25.0594 775.561 24.9508 775.658 24.8135C775.753 24.6762 775.824 24.5177 775.872 24.3379C775.919 24.1557 775.943 23.9647 775.943 23.765V23.6826C775.943 23.4854 775.918 23.2969 775.868 23.1172C775.82 22.935 775.749 22.7752 775.654 22.6379C775.557 22.5006 775.436 22.392 775.291 22.3121C775.149 22.2298 774.982 22.1886 774.789 22.1886C774.597 22.1886 774.43 22.2298 774.288 22.3121C774.145 22.392 774.027 22.5006 773.932 22.6379C773.835 22.7752 773.762 22.935 773.715 23.1172C773.667 23.2969 773.644 23.4854 773.644 23.6826V23.765Z" fill="black"/>
<path d="M293.357 20.2938L293.365 23.9859C293.365 24.2406 293.32 24.479 293.23 24.7011C293.14 24.9233 293.016 25.1168 292.859 25.2815C292.702 25.4488 292.515 25.5811 292.298 25.6784C292.08 25.7733 291.842 25.8207 291.582 25.8207C291.318 25.8207 291.077 25.7733 290.86 25.6784C290.642 25.5836 290.456 25.4525 290.302 25.2853C290.147 25.1205 290.026 24.9271 289.938 24.7049C289.851 24.4802 289.806 24.2406 289.804 23.9859L289.811 20.2938H290.47L290.485 23.9859C290.488 24.1482 290.513 24.3042 290.56 24.454C290.61 24.6038 290.681 24.7361 290.774 24.8509C290.863 24.9657 290.976 25.0581 291.111 25.128C291.248 25.1979 291.405 25.2329 291.582 25.2329C291.76 25.2329 291.916 25.1992 292.05 25.1318C292.185 25.0619 292.299 24.9682 292.391 24.8509C292.481 24.7361 292.55 24.6038 292.597 24.454C292.645 24.3042 292.671 24.1482 292.676 23.9859L292.687 20.2938H293.357ZM297.233 24.6712C297.233 24.5888 297.217 24.5152 297.184 24.4503C297.152 24.3828 297.097 24.3217 297.019 24.2668C296.942 24.2119 296.84 24.1619 296.712 24.117C296.585 24.0696 296.426 24.0271 296.237 23.9897C296.005 23.9422 295.792 23.8848 295.6 23.8174C295.41 23.75 295.248 23.6689 295.113 23.574C294.976 23.4817 294.87 23.3731 294.795 23.2483C294.72 23.121 294.683 22.9737 294.683 22.8064C294.683 22.6417 294.721 22.4881 294.799 22.3458C294.876 22.201 294.985 22.075 295.125 21.9676C295.264 21.8603 295.43 21.7754 295.623 21.713C295.817 21.6506 296.031 21.6194 296.263 21.6194C296.513 21.6194 296.737 21.6519 296.937 21.7168C297.137 21.7817 297.306 21.8715 297.446 21.9864C297.586 22.1012 297.693 22.236 297.768 22.3908C297.846 22.543 297.884 22.7078 297.884 22.885H297.192C297.192 22.7977 297.169 22.7128 297.124 22.6304C297.079 22.5455 297.017 22.4707 296.937 22.4057C296.857 22.3408 296.76 22.2884 296.645 22.2485C296.533 22.2085 296.405 22.1886 296.263 22.1886C296.116 22.1886 295.986 22.2048 295.874 22.2372C295.764 22.2697 295.673 22.3134 295.6 22.3683C295.525 22.4232 295.469 22.4869 295.432 22.5593C295.394 22.6317 295.376 22.7066 295.376 22.7839C295.376 22.8638 295.39 22.935 295.42 22.9974C295.45 23.0598 295.503 23.116 295.578 23.1659C295.65 23.2158 295.747 23.2607 295.87 23.3007C295.995 23.3406 296.152 23.3793 296.342 23.4168C296.591 23.4692 296.815 23.5303 297.012 23.6002C297.209 23.6676 297.375 23.7488 297.51 23.8436C297.645 23.941 297.747 24.0533 297.817 24.1806C297.889 24.308 297.926 24.4552 297.926 24.6225C297.926 24.8022 297.884 24.9657 297.802 25.113C297.722 25.2603 297.61 25.3864 297.465 25.4912C297.32 25.5961 297.147 25.6772 296.944 25.7346C296.742 25.792 296.521 25.8207 296.282 25.8207C296.007 25.8207 295.762 25.7845 295.548 25.7121C295.333 25.6373 295.152 25.5387 295.005 25.4163C294.855 25.2965 294.74 25.1567 294.66 24.9969C294.583 24.8372 294.544 24.6712 294.544 24.4989H295.237C295.247 24.6412 295.284 24.761 295.349 24.8584C295.417 24.9558 295.5 25.0344 295.6 25.0943C295.698 25.1542 295.806 25.1967 295.926 25.2216C296.046 25.2466 296.164 25.2591 296.282 25.2591C296.466 25.2591 296.627 25.2378 296.765 25.1954C296.902 25.1505 297.009 25.0893 297.087 25.0119C297.134 24.9645 297.17 24.9121 297.195 24.8547C297.22 24.7972 297.233 24.7361 297.233 24.6712ZM301.809 25.7458C301.781 25.6934 301.759 25.6285 301.741 25.5511C301.726 25.4713 301.715 25.3889 301.707 25.304C301.638 25.3739 301.559 25.44 301.472 25.5025C301.387 25.5649 301.293 25.6198 301.191 25.6672C301.086 25.7146 300.975 25.7521 300.857 25.7796C300.74 25.807 300.615 25.8207 300.483 25.8207C300.268 25.8207 300.074 25.7895 299.899 25.7271C299.727 25.6647 299.581 25.5798 299.461 25.4725C299.338 25.3677 299.244 25.2428 299.176 25.098C299.111 24.9508 299.079 24.7922 299.079 24.6225C299.079 24.4003 299.123 24.2056 299.21 24.0384C299.3 23.8711 299.426 23.7313 299.588 23.619C299.75 23.5091 299.945 23.4268 300.172 23.3718C300.402 23.3169 300.658 23.2895 300.94 23.2895H301.696V22.9712C301.696 22.8488 301.674 22.739 301.629 22.6417C301.584 22.5443 301.52 22.4607 301.438 22.3908C301.355 22.3234 301.254 22.2709 301.135 22.2335C301.017 22.1961 300.885 22.1773 300.738 22.1773C300.6 22.1773 300.477 22.1948 300.367 22.2298C300.26 22.2647 300.168 22.3109 300.094 22.3683C300.019 22.4257 299.96 22.4944 299.918 22.5743C299.878 22.6516 299.858 22.7328 299.858 22.8176H299.161C299.164 22.6704 299.201 22.5256 299.274 22.3833C299.348 22.241 299.456 22.1124 299.596 21.9976C299.733 21.8853 299.9 21.7941 300.097 21.7242C300.297 21.6544 300.523 21.6194 300.775 21.6194C301.005 21.6194 301.218 21.6481 301.415 21.7055C301.613 21.7604 301.784 21.8441 301.928 21.9564C302.071 22.0712 302.183 22.2135 302.265 22.3833C302.348 22.553 302.389 22.7515 302.389 22.9787V24.8621C302.389 24.9969 302.401 25.1405 302.426 25.2928C302.451 25.4425 302.486 25.5736 302.531 25.6859V25.7458H301.809ZM300.584 25.2179C300.719 25.2179 300.845 25.2004 300.962 25.1655C301.08 25.1305 301.187 25.0843 301.284 25.0269C301.379 24.9695 301.462 24.9046 301.531 24.8322C301.601 24.7573 301.656 24.6799 301.696 24.6V23.78H301.052C300.813 23.78 300.603 23.8012 300.423 23.8436C300.246 23.8836 300.105 23.946 300 24.0309C299.925 24.0908 299.868 24.1619 299.828 24.2443C299.79 24.3267 299.772 24.4203 299.772 24.5251C299.772 24.625 299.788 24.7174 299.82 24.8022C299.855 24.8871 299.906 24.9595 299.974 25.0194C300.041 25.0818 300.126 25.1305 300.228 25.1655C300.331 25.2004 300.449 25.2179 300.584 25.2179ZM303.625 23.6864C303.625 23.3843 303.661 23.1072 303.733 22.8551C303.808 22.6005 303.915 22.382 304.055 22.1998C304.195 22.0176 304.365 21.8753 304.565 21.7729C304.764 21.6706 304.99 21.6194 305.242 21.6194C305.405 21.6194 305.553 21.6381 305.688 21.6756C305.825 21.713 305.949 21.7679 306.059 21.8403C306.119 21.8778 306.175 21.9215 306.227 21.9714C306.282 22.0213 306.333 22.0762 306.381 22.1361L306.414 21.6943H307.043V25.6597C307.043 25.9268 307.001 26.164 306.916 26.3712C306.834 26.5784 306.718 26.7544 306.568 26.8992C306.416 27.0439 306.235 27.1538 306.025 27.2287C305.815 27.3036 305.583 27.341 305.328 27.341C305.224 27.341 305.104 27.3285 304.969 27.3036C304.834 27.2811 304.698 27.2424 304.561 27.1875C304.421 27.1351 304.286 27.0639 304.156 26.974C304.029 26.8842 303.919 26.7731 303.827 26.6408L304.186 26.2251C304.271 26.3275 304.359 26.4136 304.448 26.4835C304.538 26.5559 304.629 26.6133 304.722 26.6558C304.814 26.6982 304.907 26.7282 304.999 26.7456C305.091 26.7656 305.184 26.7756 305.276 26.7756C305.441 26.7756 305.589 26.7519 305.722 26.7044C305.854 26.657 305.967 26.5871 306.062 26.4948C306.155 26.4049 306.226 26.2925 306.276 26.1577C306.326 26.0229 306.351 25.8682 306.351 25.6934V25.3452C306.298 25.4051 306.242 25.46 306.182 25.5099C306.125 25.5599 306.062 25.6036 305.995 25.641C305.89 25.6984 305.774 25.7421 305.647 25.7721C305.519 25.8045 305.382 25.8207 305.235 25.8207C304.988 25.8207 304.764 25.7683 304.565 25.6635C304.365 25.5586 304.196 25.4138 304.059 25.2291C303.919 25.0444 303.812 24.8272 303.737 24.5776C303.662 24.3254 303.625 24.0546 303.625 23.765V23.6864ZM304.317 23.765C304.317 23.9622 304.337 24.1494 304.377 24.3267C304.42 24.5039 304.486 24.6599 304.576 24.7947C304.663 24.9295 304.775 25.0369 304.913 25.1168C305.05 25.1942 305.215 25.2329 305.407 25.2329C305.527 25.2329 305.634 25.2191 305.729 25.1917C305.826 25.1617 305.914 25.1205 305.991 25.0681C306.066 25.0157 306.133 24.9533 306.193 24.8809C306.253 24.8085 306.306 24.7286 306.351 24.6412V22.7839C306.306 22.6991 306.253 22.6217 306.193 22.5518C306.133 22.4819 306.065 22.4207 305.987 22.3683C305.91 22.3184 305.824 22.2797 305.729 22.2522C305.634 22.2223 305.529 22.2073 305.415 22.2073C305.22 22.2073 305.053 22.2472 304.913 22.3271C304.775 22.407 304.663 22.5143 304.576 22.6491C304.486 22.7864 304.42 22.945 304.377 23.1247C304.337 23.3019 304.317 23.4892 304.317 23.6864V23.765ZM310.148 25.8207C309.863 25.8207 309.601 25.7721 309.361 25.6747C309.124 25.5773 308.921 25.4413 308.751 25.2666C308.581 25.0918 308.449 24.8846 308.354 24.645C308.259 24.4053 308.212 24.1444 308.212 23.8624V23.7051C308.212 23.3781 308.264 23.086 308.369 22.8289C308.474 22.5693 308.614 22.3496 308.788 22.1698C308.961 21.9926 309.157 21.8566 309.376 21.7617C309.598 21.6668 309.826 21.6194 310.058 21.6194C310.35 21.6194 310.604 21.6706 310.822 21.7729C311.041 21.8728 311.224 22.0113 311.368 22.1886C311.513 22.3683 311.62 22.5792 311.69 22.8214C311.763 23.0635 311.799 23.3257 311.799 23.6077V23.9185H308.904V23.9447C308.922 24.142 308.961 24.3154 309.02 24.4652C309.083 24.615 309.168 24.7473 309.275 24.8621C309.385 24.9845 309.517 25.0806 309.672 25.1505C309.827 25.2204 309.998 25.2553 310.185 25.2553C310.432 25.2553 310.652 25.2054 310.844 25.1055C311.036 25.0057 311.196 24.8734 311.323 24.7086L311.746 25.0381C311.612 25.2428 311.409 25.4251 311.14 25.5848C310.873 25.7421 310.542 25.8207 310.148 25.8207ZM310.058 22.1886C309.918 22.1886 309.786 22.2148 309.661 22.2672C309.536 22.3171 309.424 22.3908 309.324 22.4881C309.224 22.588 309.139 22.7103 309.069 22.8551C309.002 22.9974 308.954 23.1621 308.927 23.3494H311.106V23.3157C311.106 23.1908 311.082 23.0573 311.035 22.915C310.988 22.7702 310.921 22.6454 310.837 22.5406C310.752 22.4357 310.644 22.3508 310.515 22.2859C310.387 22.221 310.235 22.1886 310.058 22.1886Z" fill="black"/>
<path d="M-13.6338 42.8172L828.651 42.8172" stroke="black" stroke-width="0.255625"/>
<rect y="43.0302" width="413.26" height="208.76" fill="black"/>
<rect y="251.791" width="413.26" height="208.334" fill="#F9F9F9"/>
<rect x="413" y="252" width="408" height="208" fill="#F69140"/>
<path d="M138.43 128.239C151.166 128.239 156.388 133.355 156.388 144.822V152.82C156.388 164.287 151.166 169.403 138.43 169.403H114.688L122.296 161.111H138.195C145.12 161.111 147.468 158.994 147.468 152.055V145.587C147.468 138.648 145.12 136.531 138.195 136.531H121.512C121.04 132.062 118.9 129.253 116.074 128.239H138.43V128.239Z" fill="#D9D9D9"/>
<path d="M106.203 128.309C115.199 128.309 118.844 132.485 118.844 140.365V141.896L109.848 141.967V141.659C109.848 138.131 108.378 136.542 104.381 136.542H90.7171C90.1877 136.542 89.9528 136.778 89.9528 137.248V148.95H101.03L115.773 152.953C113.808 155.647 111.339 157.065 106.203 157.065H89.9528V160.531L81.016 169.402V136.542L74.9834 128.309H106.203Z" fill="#D9D9D9"/>
<path d="M143.311 143.325C140.364 142.118 133.771 141.074 126.294 144.903H98.3331C98.0826 144.903 98.0379 145.118 98.2806 145.18L120.971 151.077L118.489 154.285L124.023 152.78L126.612 153.898C126.928 154.035 127.297 153.948 127.52 153.683L130.836 149.729L143.31 143.93C143.578 143.806 143.584 143.437 143.311 143.325H143.311ZM131.52 145.81C131.451 145.39 131.791 144.396 133.699 143.771C135.607 143.146 137.309 143.499 137.921 143.755L131.52 145.81Z" fill="#D9D9D9"/>
<path d="M123.064 155.647L119.214 157.494C119.135 157.531 119.117 157.635 119.179 157.698L119.77 158.289L110.09 169.107C109.987 169.221 110.068 169.402 110.221 169.402C110.253 169.402 110.284 169.389 110.307 169.367L120.654 159.175L121.184 159.706C121.246 159.768 121.35 159.75 121.388 159.671L123.232 155.815C123.283 155.707 123.171 155.595 123.063 155.646L123.064 155.647Z" fill="#D9D9D9"/>
<path d="M116.046 157.418L112.69 159.025C112.621 159.058 112.606 159.149 112.659 159.203L113.175 159.718L104.765 169.102C104.665 169.215 104.745 169.392 104.894 169.392L113.946 160.49L114.409 160.953C114.463 161.007 114.554 160.991 114.586 160.922L116.194 157.566C116.239 157.472 116.141 157.374 116.047 157.419L116.046 157.418Z" fill="#D9D9D9"/>
<path fill-rule="evenodd" clip-rule="evenodd" d="M183.501 130.349C185.417 130.349 186.8 130.813 187.702 131.752C188.602 132.689 188.99 134.065 188.99 135.816V137.751C188.99 139.514 188.602 140.915 187.703 141.875C186.802 142.836 185.418 143.321 183.501 143.321H175.687V148.766H175.505C175.505 148.766 175.178 148.765 174.966 148.765H172.298C172.087 148.765 171.759 148.766 171.759 148.766H171.577V130.349H171.905C171.905 130.349 172.219 130.349 172.496 130.349H183.501ZM175.831 134.316C175.744 134.316 175.717 134.337 175.711 134.343C175.706 134.348 175.687 134.371 175.687 134.448V139.405H182.735C183.556 139.405 184.073 139.234 184.388 138.919C184.703 138.604 184.855 138.106 184.855 137.364V136.383C184.855 135.627 184.703 135.124 184.387 134.806C184.072 134.488 183.556 134.316 182.735 134.316H175.831Z" fill="#D9D9D9"/>
<path fill-rule="evenodd" clip-rule="evenodd" d="M227.292 130.349C229.157 130.349 230.54 130.787 231.454 131.711C232.368 132.635 232.781 134.012 232.781 135.816V137.313C232.781 138.829 232.493 140.055 231.877 140.972C231.302 141.826 230.454 142.395 229.33 142.685L233.287 147.808L233.288 147.809C233.425 147.988 234.012 148.765 234.012 148.765C234.012 148.765 233.094 148.765 232.826 148.765H229.515C229.304 148.765 229.038 148.765 229.038 148.765C229.038 148.765 228.77 148.478 228.681 148.358L224.807 143.192H219.665V148.766L219.492 148.765C219.492 148.765 219.155 148.765 218.944 148.765H216.276C216.064 148.765 215.762 148.765 215.762 148.765L215.555 148.766V130.349H215.828C215.828 130.349 216.197 130.349 216.473 130.349H227.292ZM219.808 134.316C219.71 134.316 219.684 134.335 219.68 134.338C219.68 134.338 219.677 134.341 219.674 134.35C219.669 134.362 219.665 134.384 219.665 134.423V139.431H226.526C227.352 139.431 227.868 139.277 228.182 138.977C228.494 138.679 228.646 138.198 228.646 137.442V136.358C228.646 135.589 228.488 135.094 228.172 134.785C227.854 134.476 227.337 134.316 226.526 134.316H219.808Z" fill="#D9D9D9"/>
<path d="M201.371 134.342H209.954V130.349H201.346H194.252V137.338V141.776V148.765H201.346H209.954V144.772H201.371H198.337C198.337 144.772 198.337 142.847 198.337 141.492V141.36H209.063V137.573H198.338C198.342 136.248 198.338 134.394 198.338 134.394C198.338 134.394 200.103 134.342 201.371 134.342Z" fill="#D9D9D9"/>
<path d="M267.264 134.342H275.847V130.349H267.239H260.145V137.338V141.776V148.765H267.239H275.847V144.772H267.264H264.229C264.229 144.772 264.23 142.847 264.23 141.492V141.36H274.956V137.573H264.23C264.234 136.248 264.23 134.394 264.23 134.394C264.23 134.394 265.995 134.342 267.264 134.342Z" fill="#D9D9D9"/>
<path d="M285.364 141.389V130.349H281.254V141.776C281.254 144.268 281.731 146.032 282.885 147.166C284.038 148.299 285.827 148.765 288.348 148.765H292.457C294.979 148.765 296.767 148.299 297.92 147.166C299.074 146.032 299.551 144.268 299.551 141.776V130.349H295.417V141.389C295.417 142.755 295.234 143.574 294.787 144.062C294.345 144.544 293.599 144.746 292.334 144.746H288.472C287.206 144.746 286.454 144.544 286.005 144.061C285.552 143.574 285.364 142.754 285.364 141.389Z" fill="#D9D9D9"/>
<path d="M243.384 134.342H254.059V130.349H242.668C241.216 130.349 240.079 130.745 239.304 131.506C238.529 132.268 238.143 133.371 238.143 134.732V136.642C238.143 138.116 238.534 139.301 239.302 140.117C240.073 140.936 241.199 141.36 242.618 141.36H250.019C250.456 141.36 250.719 141.454 250.877 141.616C251.036 141.78 251.126 142.052 251.126 142.499V143.556C251.126 144.009 251.02 144.305 250.845 144.488C250.671 144.669 250.398 144.772 249.994 144.772H238.888H238.54V148.765H238.888H250.711C252.162 148.765 253.305 148.369 254.086 147.609C254.867 146.847 255.261 145.745 255.261 144.382V142.292C255.261 140.817 254.863 139.632 254.088 138.815C253.312 137.998 252.179 137.573 250.76 137.573H243.384C242.947 137.573 242.677 137.48 242.513 137.316C242.348 137.151 242.253 136.879 242.253 136.435V135.558C242.253 135.103 242.353 134.807 242.525 134.625C242.695 134.445 242.967 134.342 243.384 134.342Z" fill="#D9D9D9"/>
<path d="M309.785 134.342H320.459V130.349H309.068C307.617 130.349 306.479 130.745 305.705 131.506C304.93 132.268 304.543 133.37 304.543 134.732V136.641C304.543 138.116 304.934 139.301 305.703 140.117C306.473 140.936 307.6 141.36 309.019 141.36H316.419C316.856 141.36 317.119 141.453 317.277 141.616C317.436 141.779 317.526 142.052 317.526 142.498V143.556C317.526 144.009 317.421 144.305 317.245 144.488C317.071 144.669 316.799 144.772 316.395 144.772H305.289H304.94V148.765H305.289H317.111C318.563 148.765 319.706 148.369 320.486 147.608C321.268 146.847 321.661 145.744 321.661 144.382V142.292C321.661 140.817 321.264 139.632 320.489 138.815C319.712 137.998 318.579 137.573 317.16 137.573H309.785C309.348 137.573 309.078 137.48 308.913 137.316C308.748 137.151 308.653 136.879 308.653 136.435V135.558C308.653 135.102 308.754 134.807 308.926 134.625C309.096 134.445 309.367 134.342 309.785 134.342Z" fill="#D9D9D9"/>
<path d="M194.557 158.809H199.666V156.432H194.543H190.32V160.592V163.233V167.393H194.543H199.666V165.017H194.557H192.751C192.751 165.017 192.752 163.871 192.752 163.064V162.986H199.136V160.732H192.752C192.755 159.943 192.752 158.84 192.752 158.84C192.752 158.84 193.803 158.809 194.557 158.809Z" fill="#D9D9D9"/>
<path d="M228.28 158.809H233.389V156.432H228.265H224.043V160.592V163.233V167.393H228.265H233.389V165.017H228.28H226.474C226.474 165.017 226.475 163.871 226.475 163.064V162.986H232.858V160.732H226.475C226.477 159.943 226.475 158.84 226.475 158.84C226.475 158.84 227.525 158.809 228.28 158.809Z" fill="#D9D9D9"/>
<path d="M281.005 158.809H286.113V156.432H280.99H276.768V160.592V163.233V167.393H280.99H286.113V165.017H281.005H279.199C279.199 165.017 279.199 163.871 279.199 163.064V162.986H285.583V160.732H279.199C279.202 159.943 279.199 158.84 279.199 158.84C279.199 158.84 280.25 158.809 281.005 158.809Z" fill="#D9D9D9"/>
<path d="M262.561 158.809H268.914V156.432H262.135C261.271 156.432 260.594 156.668 260.133 157.121C259.672 157.574 259.441 158.231 259.441 159.041V160.177C259.441 161.055 259.674 161.76 260.132 162.246C260.59 162.733 261.261 162.986 262.105 162.986H266.51C266.77 162.986 266.926 163.041 267.02 163.138C267.115 163.236 267.169 163.398 267.169 163.663V164.293C267.169 164.563 267.106 164.738 267.002 164.847C266.898 164.956 266.736 165.017 266.495 165.017H259.885H259.678V167.393H259.885H266.922C267.786 167.393 268.466 167.158 268.931 166.705C269.396 166.252 269.63 165.595 269.63 164.784V163.541C269.63 162.662 269.393 161.957 268.932 161.471C268.47 160.985 267.796 160.732 266.951 160.732H262.561C262.301 160.732 262.14 160.677 262.042 160.579C261.944 160.481 261.888 160.319 261.888 160.055V159.533C261.888 159.262 261.948 159.086 262.05 158.977C262.151 158.87 262.313 158.809 262.561 158.809Z" fill="#D9D9D9"/>
<path d="M249.776 156.432V163.548L243.017 156.432H241.894H240.438V158.174V167.392H242.957V160.092L249.716 167.394H250.825H252.296V165.652V156.432H249.776Z" fill="#D9D9D9"/>
<path d="M211.023 158.898H216.905V156.432H210.951H206.715V160.606V167.392H209.249V163.184H215.886V160.84H209.249V160.773V158.898H211.023Z" fill="#D9D9D9"/>
<path fill-rule="evenodd" clip-rule="evenodd" d="M178.709 156.433C180.306 156.433 181.47 156.766 182.232 157.51C182.996 158.255 183.323 159.378 183.323 160.88V162.947C183.323 164.448 182.996 165.572 182.232 166.317C181.47 167.06 180.306 167.394 178.709 167.394H172.1C171.928 167.394 171.639 167.393 171.639 167.393H171.502V156.433H171.656C171.656 156.433 171.928 156.433 172.1 156.433H178.709ZM174.039 158.901C174.038 158.908 174.037 158.919 174.037 158.934V164.892C174.037 164.907 174.038 164.918 174.039 164.925C174.045 164.926 174.053 164.928 174.064 164.928H178.651C179.502 164.928 180.018 164.79 180.33 164.478C180.642 164.165 180.789 163.638 180.789 162.749V161.077C180.789 160.188 180.642 159.661 180.33 159.349C180.018 159.036 179.502 158.898 178.651 158.898H174.064C174.053 158.898 174.045 158.9 174.039 158.901Z" fill="#D9D9D9"/>
<path d="M550.411 128.239C563.146 128.239 568.369 133.355 568.369 144.822V152.82C568.369 164.287 563.146 169.403 550.411 169.403H526.668L534.277 161.111H550.176C557.101 161.111 559.448 158.994 559.448 152.055V145.587C559.448 138.648 557.101 136.531 550.176 136.531H533.493C533.021 132.062 530.881 129.253 528.054 128.239H550.411V128.239Z" fill="black"/>
<path d="M518.185 128.31C527.18 128.31 530.825 132.485 530.825 140.365V141.896L521.83 141.967V141.659C521.83 138.131 520.36 136.542 516.362 136.542H502.699C502.169 136.542 501.934 136.778 501.934 137.248V148.95H513.011L527.754 152.953C525.789 155.647 523.32 157.065 518.185 157.065H501.934V160.531L492.997 169.402V136.542L486.965 128.31H518.185Z" fill="black"/>
<path d="M555.292 143.325C552.345 142.118 545.753 141.074 538.275 144.903H510.315C510.064 144.903 510.019 145.118 510.262 145.18L532.952 151.077L530.47 154.285L536.004 152.781L538.593 153.898C538.91 154.035 539.279 153.948 539.501 153.683L542.818 149.729L555.292 143.93C555.559 143.806 555.565 143.437 555.293 143.325H555.292ZM543.501 145.81C543.433 145.39 543.773 144.396 545.681 143.771C547.588 143.146 549.29 143.5 549.903 143.755L543.501 145.81Z" fill="black"/>
<path d="M535.043 155.647L531.193 157.494C531.114 157.532 531.097 157.635 531.158 157.698L531.749 158.289L522.069 169.107C521.967 169.221 522.048 169.402 522.201 169.402C522.233 169.402 522.263 169.389 522.286 169.367L532.634 159.175L533.164 159.706C533.225 159.768 533.33 159.75 533.368 159.671L535.211 155.815C535.263 155.707 535.151 155.595 535.043 155.647L535.043 155.647Z" fill="black"/>
<path d="M528.029 157.419L524.672 159.025C524.604 159.058 524.589 159.149 524.642 159.203L525.157 159.718L516.748 169.103C516.648 169.215 516.727 169.392 516.877 169.392L525.929 160.49L526.391 160.953C526.445 161.007 526.536 160.991 526.569 160.922L528.176 157.566C528.221 157.472 528.123 157.375 528.029 157.419L528.029 157.419Z" fill="black"/>
<path fill-rule="evenodd" clip-rule="evenodd" d="M595.484 130.349C597.4 130.349 598.783 130.813 599.685 131.752C600.586 132.689 600.973 134.065 600.973 135.816V137.751C600.973 139.514 600.586 140.915 599.687 141.875C598.786 142.836 597.402 143.321 595.484 143.321H587.671V148.766H587.489C587.489 148.766 587.161 148.765 586.949 148.765H584.281C584.07 148.765 583.743 148.766 583.743 148.766H583.561V130.349H583.889C583.889 130.349 584.203 130.349 584.479 130.349H595.484ZM587.814 134.316C587.727 134.316 587.701 134.337 587.695 134.343C587.689 134.348 587.671 134.371 587.671 134.448V139.405H594.718C595.539 139.405 596.056 139.234 596.372 138.919C596.687 138.604 596.838 138.106 596.838 137.364V136.383C596.838 135.627 596.686 135.124 596.371 134.806C596.056 134.488 595.539 134.316 594.718 134.316H587.814Z" fill="black"/>
<path fill-rule="evenodd" clip-rule="evenodd" d="M639.277 130.349C641.141 130.349 642.524 130.787 643.438 131.711C644.352 132.635 644.765 134.012 644.765 135.816V137.312C644.765 138.829 644.478 140.055 643.861 140.972C643.287 141.826 642.438 142.394 641.315 142.685L645.272 147.808L645.272 147.809C645.409 147.987 645.996 148.765 645.996 148.765C645.996 148.765 645.079 148.765 644.81 148.765H641.5C641.289 148.765 641.022 148.765 641.022 148.765C641.022 148.765 640.755 148.478 640.666 148.358L636.791 143.192H631.649V148.766L631.476 148.765C631.476 148.765 631.139 148.765 630.928 148.765H628.26C628.049 148.765 627.746 148.765 627.746 148.765L627.539 148.766V130.349H627.813C627.813 130.349 628.181 130.349 628.458 130.349H639.277ZM631.793 134.316C631.695 134.316 631.668 134.335 631.665 134.338C631.665 134.338 631.661 134.34 631.658 134.35C631.654 134.362 631.649 134.384 631.649 134.423V139.431H638.511C639.336 139.431 639.852 139.277 640.166 138.977C640.478 138.679 640.63 138.198 640.63 137.441V136.357C640.63 135.589 640.473 135.094 640.156 134.785C639.838 134.476 639.322 134.316 638.511 134.316H631.793Z" fill="black"/>
<path d="M613.355 134.342H621.938V130.349H613.331H606.236V137.338V141.776V148.765H613.331H621.938V144.772H613.355H610.321C610.321 144.772 610.322 142.847 610.322 141.492V141.36H621.048V137.573H610.322C610.326 136.248 610.322 134.394 610.322 134.394C610.322 134.394 612.087 134.342 613.355 134.342Z" fill="black"/>
<path d="M679.248 134.342H687.831V130.349H679.223H672.129V137.338V141.776V148.765H679.223H687.831V144.772H679.248H676.214C676.214 144.772 676.214 142.847 676.214 141.492V141.36H686.94V137.573H676.215C676.219 136.248 676.215 134.393 676.215 134.393C676.215 134.393 677.98 134.342 679.248 134.342Z" fill="black"/>
<path d="M697.346 141.389V130.349H693.236V141.776C693.236 144.268 693.713 146.032 694.867 147.166C696.02 148.299 697.809 148.765 700.331 148.765H704.44C706.961 148.765 708.75 148.299 709.903 147.166C711.057 146.032 711.534 144.268 711.534 141.776V130.349H707.399V141.389C707.399 142.754 707.217 143.574 706.77 144.062C706.327 144.544 705.582 144.746 704.316 144.746H700.454C699.189 144.746 698.436 144.544 697.987 144.061C697.534 143.573 697.346 142.754 697.346 141.389Z" fill="black"/>
<path d="M655.367 134.342H666.041V130.349H654.65C653.199 130.349 652.061 130.745 651.287 131.506C650.512 132.268 650.125 133.37 650.125 134.732V136.641C650.125 138.116 650.516 139.301 651.285 140.117C652.055 140.936 653.182 141.36 654.601 141.36H662.001C662.438 141.36 662.701 141.453 662.859 141.616C663.018 141.779 663.108 142.051 663.108 142.498V143.556C663.108 144.009 663.003 144.305 662.827 144.488C662.654 144.669 662.381 144.772 661.977 144.772H650.871H650.522V148.765H650.871H662.693C664.145 148.765 665.288 148.369 666.068 147.608C666.85 146.847 667.243 145.744 667.243 144.382V142.292C667.243 140.816 666.846 139.632 666.071 138.815C665.294 137.997 664.161 137.573 662.742 137.573H655.367C654.93 137.573 654.66 137.48 654.495 137.315C654.33 137.151 654.235 136.879 654.235 136.435V135.558C654.235 135.102 654.336 134.807 654.508 134.625C654.678 134.445 654.949 134.342 655.367 134.342Z" fill="black"/>
<path d="M721.767 134.342H732.442V130.349H721.051C719.599 130.349 718.461 130.745 717.687 131.506C716.912 132.268 716.525 133.37 716.525 134.732V136.641C716.525 138.116 716.916 139.301 717.685 140.117C718.456 140.936 719.582 141.36 721.001 141.36H728.402C728.839 141.36 729.101 141.453 729.259 141.616C729.418 141.779 729.509 142.052 729.509 142.498V143.556C729.509 144.009 729.403 144.305 729.228 144.488C729.054 144.669 728.781 144.772 728.377 144.772H717.271H716.923V148.765H717.271H729.094C730.545 148.765 731.688 148.369 732.469 147.608C733.25 146.847 733.644 145.744 733.644 144.382V142.292C733.644 140.817 733.246 139.632 732.471 138.815C731.694 137.998 730.562 137.573 729.143 137.573H721.767C721.33 137.573 721.06 137.48 720.895 137.316C720.731 137.151 720.636 136.879 720.636 136.435V135.558C720.636 135.102 720.736 134.807 720.908 134.625C721.078 134.445 721.349 134.342 721.767 134.342Z" fill="black"/>
<path d="M606.538 158.809H611.646V156.432H606.523H602.301V160.592V163.233V167.393H606.523H611.646V165.017H606.538H604.732C604.732 165.017 604.732 163.871 604.732 163.064V162.986H611.116V160.732H604.733C604.735 159.943 604.733 158.84 604.733 158.84C604.733 158.84 605.783 158.809 606.538 158.809Z" fill="black"/>
<path d="M640.261 158.809H645.369V156.432H640.246H636.023V160.592V163.233V167.393H640.246H645.369V165.017H640.261H638.455C638.455 165.017 638.455 163.871 638.455 163.064V162.986H644.839V160.732H638.455C638.458 159.943 638.455 158.84 638.455 158.84C638.455 158.84 639.506 158.809 640.261 158.809Z" fill="black"/>
<path d="M692.987 158.809H698.096V156.432H692.973H688.75V160.592V163.233V167.393H692.973H698.096V165.017H692.987H691.181C691.181 165.017 691.182 163.871 691.182 163.064V162.986H697.565V160.732H691.182C691.184 159.943 691.182 158.84 691.182 158.84C691.182 158.84 692.232 158.809 692.987 158.809Z" fill="black"/>
<path d="M674.544 158.809H680.897V156.432H674.117C673.253 156.432 672.576 156.668 672.115 157.121C671.654 157.574 671.424 158.231 671.424 159.041V160.178C671.424 161.055 671.657 161.76 672.114 162.246C672.573 162.733 673.243 162.986 674.088 162.986H678.492C678.752 162.986 678.909 163.042 679.003 163.138C679.097 163.236 679.151 163.398 679.151 163.664V164.293C679.151 164.563 679.088 164.739 678.984 164.848C678.881 164.956 678.718 165.017 678.478 165.017H671.868H671.66V167.393H671.868H678.904C679.768 167.393 680.448 167.158 680.913 166.705C681.378 166.252 681.612 165.596 681.612 164.785V163.541C681.612 162.663 681.376 161.957 680.914 161.471C680.452 160.985 679.778 160.732 678.933 160.732H674.544C674.284 160.732 674.123 160.677 674.025 160.579C673.927 160.481 673.87 160.319 673.87 160.055V159.533C673.87 159.262 673.93 159.086 674.032 158.977C674.134 158.87 674.295 158.809 674.544 158.809Z" fill="black"/>
<path d="M661.759 156.432V163.548L655 156.432H653.876H652.42V158.174V167.392H654.94V160.092L661.699 167.394H662.808H664.279V165.652V156.432H661.759Z" fill="black"/>
<path d="M623.006 158.898H628.887V156.432H622.933H618.697V160.606V167.392H621.232V163.184H627.868V160.84H621.232V160.773V158.898H623.006Z" fill="black"/>
<path fill-rule="evenodd" clip-rule="evenodd" d="M590.692 156.433C592.288 156.433 593.452 156.766 594.215 157.51C594.978 158.255 595.306 159.378 595.306 160.88V162.947C595.306 164.448 594.978 165.572 594.215 166.317C593.452 167.06 592.288 167.394 590.692 167.394H584.082C583.91 167.394 583.621 167.393 583.621 167.393H583.484V156.433H583.638C583.638 156.433 583.91 156.433 584.082 156.433H590.692ZM586.021 158.901C586.02 158.908 586.019 158.919 586.019 158.934V164.892C586.019 164.907 586.02 164.918 586.021 164.925C586.027 164.926 586.035 164.928 586.047 164.928H590.633C591.484 164.928 592.001 164.79 592.312 164.478C592.624 164.165 592.771 163.638 592.771 162.749V161.077C592.771 160.188 592.624 159.661 592.312 159.349C592.001 159.036 591.484 158.898 590.633 158.898H586.047C586.035 158.898 586.027 158.9 586.021 158.901Z" fill="black"/>
<path d="M138.43 334.869C151.166 334.869 156.388 339.985 156.388 351.452V359.45C156.388 370.917 151.166 376.033 138.43 376.033H114.688L122.296 367.742H138.195C145.12 367.742 147.468 365.625 147.468 358.686V352.217C147.468 345.278 145.12 343.161 138.195 343.161H121.512C121.04 338.692 118.9 335.883 116.074 334.87H138.43V334.869Z" fill="black"/>
<path d="M106.203 334.94C115.199 334.94 118.844 339.115 118.844 346.995V348.526L109.848 348.597V348.289C109.848 344.761 108.378 343.173 104.381 343.173H90.7171C90.1877 343.173 89.9528 343.408 89.9528 343.878V355.581H101.03L115.773 359.583C113.808 362.278 111.339 363.696 106.203 363.696H89.9528V367.161L81.016 376.033V343.173L74.9834 334.94H106.203Z" fill="black"/>
<path d="M143.311 349.955C140.364 348.748 133.771 347.705 126.294 351.533H98.3331C98.0826 351.533 98.0379 351.749 98.2806 351.81L120.971 357.707L118.489 360.916L124.023 359.411L126.612 360.529C126.928 360.666 127.297 360.578 127.52 360.314L130.836 356.359L143.31 350.561C143.578 350.436 143.584 350.067 143.311 349.955H143.311ZM131.52 352.44C131.451 352.02 131.791 351.026 133.699 350.401C135.607 349.776 137.309 350.13 137.921 350.385L131.52 352.44Z" fill="black"/>
<path d="M123.064 362.278L119.214 364.124C119.135 364.162 119.117 364.266 119.179 364.328L119.77 364.92L110.09 375.738C109.987 375.852 110.068 376.033 110.221 376.033C110.253 376.033 110.284 376.02 110.307 375.998L120.654 365.806L121.184 366.337C121.246 366.399 121.35 366.381 121.388 366.302L123.232 362.446C123.283 362.338 123.171 362.226 123.063 362.277L123.064 362.278Z" fill="black"/>
<path d="M116.046 364.049L112.69 365.656C112.621 365.688 112.606 365.779 112.659 365.833L113.175 366.348L104.765 375.733C104.665 375.845 104.745 376.023 104.894 376.023L113.946 367.121L114.409 367.583C114.463 367.637 114.554 367.622 114.586 367.553L116.194 364.197C116.239 364.103 116.141 364.005 116.047 364.05L116.046 364.049Z" fill="black"/>
<path fill-rule="evenodd" clip-rule="evenodd" d="M183.501 336.979C185.417 336.979 186.8 337.444 187.702 338.382C188.602 339.319 188.99 340.695 188.99 342.446V344.381C188.99 346.145 188.602 347.546 187.703 348.505C186.802 349.467 185.418 349.951 183.501 349.951H175.687V355.396H175.505C175.505 355.396 175.178 355.395 174.966 355.395H172.298C172.087 355.395 171.759 355.396 171.759 355.396H171.577V336.979H171.905C171.905 336.979 172.219 336.979 172.496 336.979H183.501ZM175.831 340.947C175.744 340.947 175.717 340.967 175.711 340.973C175.706 340.979 175.687 341.001 175.687 341.079V346.035H182.735C183.556 346.035 184.073 345.864 184.388 345.549C184.703 345.234 184.855 344.737 184.855 343.994V343.014C184.855 342.257 184.703 341.754 184.387 341.436C184.072 341.118 183.556 340.947 182.735 340.947H175.831Z" fill="black"/>
<path fill-rule="evenodd" clip-rule="evenodd" d="M227.292 336.98C229.157 336.98 230.54 337.417 231.454 338.342C232.368 339.266 232.781 340.643 232.781 342.446V343.943C232.781 345.459 232.493 346.685 231.877 347.602C231.302 348.457 230.454 349.025 229.33 349.316L233.287 354.439L233.288 354.439C233.425 354.618 234.012 355.395 234.012 355.395C234.012 355.395 233.094 355.395 232.826 355.395H229.515C229.304 355.395 229.038 355.395 229.038 355.395C229.038 355.395 228.77 355.108 228.681 354.989L224.807 349.823H219.665V355.397L219.492 355.395C219.492 355.395 219.155 355.395 218.944 355.395H216.276C216.064 355.395 215.762 355.395 215.762 355.395L215.555 355.397V336.98H215.828C215.828 336.98 216.197 336.98 216.473 336.98H227.292ZM219.808 340.947C219.71 340.947 219.684 340.966 219.68 340.969C219.68 340.969 219.677 340.971 219.674 340.98C219.669 340.992 219.665 341.015 219.665 341.053V346.061H226.526C227.352 346.061 227.868 345.908 228.182 345.608C228.494 345.31 228.646 344.829 228.646 344.072V342.988C228.646 342.22 228.488 341.724 228.172 341.416C227.854 341.106 227.337 340.947 226.526 340.947H219.808Z" fill="black"/>
<path d="M201.371 340.973H209.954V336.98H201.346H194.252V343.969V348.406V355.395H201.346H209.954V351.403H201.371H198.337C198.337 351.403 198.337 349.478 198.337 348.123V347.991H209.063V344.204H198.338C198.342 342.878 198.338 341.024 198.338 341.024C198.338 341.024 200.103 340.973 201.371 340.973Z" fill="black"/>
<path d="M267.264 340.973H275.847V336.98H267.239H260.145V343.969V348.406V355.395H267.239H275.847V351.403H267.264H264.229C264.229 351.403 264.23 349.478 264.23 348.123V347.991H274.956V344.204H264.23C264.234 342.878 264.23 341.024 264.23 341.024C264.23 341.024 265.995 340.973 267.264 340.973Z" fill="black"/>
<path d="M285.364 348.019V336.979H281.254V348.406C281.254 350.899 281.731 352.662 282.885 353.796C284.038 354.93 285.827 355.395 288.348 355.395H292.457C294.979 355.395 296.767 354.93 297.92 353.796C299.074 352.662 299.551 350.899 299.551 348.406V336.979H295.417V348.019C295.417 349.385 295.234 350.205 294.787 350.692C294.345 351.174 293.599 351.376 292.334 351.376H288.472C287.206 351.376 286.454 351.175 286.005 350.691C285.552 350.204 285.364 349.384 285.364 348.019Z" fill="black"/>
<path d="M243.384 340.973H254.059V336.98H242.668C241.216 336.98 240.079 337.375 239.304 338.137C238.529 338.898 238.143 340.001 238.143 341.363V343.272C238.143 344.747 238.534 345.931 239.302 346.748C240.073 347.566 241.199 347.991 242.618 347.991H250.019C250.456 347.991 250.719 348.084 250.877 348.246C251.036 348.41 251.126 348.682 251.126 349.129V350.187C251.126 350.64 251.02 350.935 250.845 351.118C250.671 351.3 250.398 351.403 249.994 351.403H238.888H238.54V355.395H238.888H250.711C252.162 355.395 253.305 355 254.086 354.239C254.867 353.478 255.261 352.375 255.261 351.013V348.923C255.261 347.447 254.863 346.262 254.088 345.446C253.312 344.628 252.179 344.204 250.76 344.204H243.384C242.947 344.204 242.677 344.111 242.513 343.946C242.348 343.782 242.253 343.51 242.253 343.066V342.189C242.253 341.733 242.353 341.438 242.525 341.256C242.695 341.076 242.967 340.973 243.384 340.973Z" fill="black"/>
<path d="M309.785 340.973H320.459V336.979H309.068C307.617 336.979 306.479 337.375 305.705 338.136C304.93 338.898 304.543 340.001 304.543 341.363V343.272C304.543 344.747 304.934 345.931 305.703 346.748C306.473 347.566 307.6 347.99 309.019 347.99H316.419C316.856 347.99 317.119 348.084 317.277 348.246C317.436 348.41 317.526 348.682 317.526 349.129V350.187C317.526 350.639 317.421 350.935 317.245 351.118C317.071 351.3 316.799 351.402 316.395 351.402H305.289H304.94V355.395H305.289H317.111C318.563 355.395 319.706 354.999 320.486 354.239C321.268 353.478 321.661 352.375 321.661 351.012V348.922C321.661 347.447 321.264 346.262 320.489 345.446C319.712 344.628 318.579 344.204 317.16 344.204H309.785C309.348 344.204 309.078 344.11 308.913 343.946C308.748 343.781 308.653 343.51 308.653 343.065V342.188C308.653 341.733 308.754 341.438 308.926 341.255C309.096 341.075 309.367 340.973 309.785 340.973Z" fill="black"/>
<path d="M194.557 365.439H199.666V363.063H194.543H190.32V367.222V369.864V374.023H194.543H199.666V371.647H194.557H192.751C192.751 371.647 192.752 370.501 192.752 369.695V369.616H199.136V367.362H192.752C192.755 366.573 192.752 365.47 192.752 365.47C192.752 365.47 193.803 365.439 194.557 365.439Z" fill="black"/>
<path d="M228.28 365.439H233.389V363.063H228.265H224.043V367.222V369.864V374.023H228.265H233.389V371.647H228.28H226.474C226.474 371.647 226.475 370.501 226.475 369.695V369.616H232.858V367.362H226.475C226.477 366.573 226.475 365.47 226.475 365.47C226.475 365.47 227.525 365.439 228.28 365.439Z" fill="black"/>
<path d="M281.005 365.439H286.113V363.063H280.99H276.768V367.222V369.864V374.023H280.99H286.113V371.647H281.005H279.199C279.199 371.647 279.199 370.501 279.199 369.695V369.616H285.583V367.362H279.199C279.202 366.573 279.199 365.47 279.199 365.47C279.199 365.47 280.25 365.439 281.005 365.439Z" fill="black"/>
<path d="M262.561 365.439H268.914V363.063H262.135C261.271 363.063 260.594 363.298 260.133 363.751C259.672 364.205 259.441 364.861 259.441 365.671V366.808C259.441 367.685 259.674 368.39 260.132 368.877C260.59 369.364 261.261 369.616 262.105 369.616H266.51C266.77 369.616 266.926 369.672 267.02 369.768C267.115 369.866 267.169 370.028 267.169 370.294V370.923C267.169 371.193 267.106 371.369 267.002 371.478C266.898 371.586 266.736 371.647 266.495 371.647H259.885H259.678V374.023H259.885H266.922C267.786 374.023 268.466 373.788 268.931 373.335C269.396 372.882 269.63 372.226 269.63 371.415V370.171C269.63 369.293 269.393 368.588 268.932 368.102C268.47 367.615 267.796 367.362 266.951 367.362H262.561C262.301 367.362 262.14 367.307 262.042 367.209C261.944 367.111 261.888 366.949 261.888 366.685V366.163C261.888 365.892 261.948 365.716 262.05 365.608C262.151 365.5 262.313 365.439 262.561 365.439Z" fill="black"/>
<path d="M249.776 363.063V370.178L243.017 363.063H241.894H240.438V364.805V374.023H242.957V366.722L249.716 374.024H250.825H252.296V372.282V363.063H249.776Z" fill="black"/>
<path d="M211.023 365.528H216.905V363.063H210.951H206.715V367.236V374.023H209.249V369.814H215.886V367.47H209.249V367.403V365.528H211.023Z" fill="black"/>
<path fill-rule="evenodd" clip-rule="evenodd" d="M178.709 363.063C180.306 363.063 181.47 363.396 182.232 364.14C182.996 364.885 183.323 366.008 183.323 367.51V369.577C183.323 371.078 182.996 372.202 182.232 372.947C181.47 373.69 180.306 374.024 178.709 374.024H172.1C171.928 374.024 171.639 374.023 171.639 374.023H171.502V363.063H171.656C171.656 363.063 171.928 363.063 172.1 363.063H178.709ZM174.039 365.531C174.038 365.538 174.037 365.549 174.037 365.564V371.522C174.037 371.537 174.038 371.548 174.039 371.555C174.045 371.556 174.053 371.558 174.064 371.558H178.651C179.502 371.558 180.018 371.42 180.33 371.108C180.642 370.795 180.789 370.268 180.789 369.379V367.707C180.789 366.818 180.642 366.291 180.33 365.979C180.018 365.666 179.502 365.528 178.651 365.528H174.064C174.053 365.528 174.045 365.53 174.039 365.531Z" fill="black"/>
<path d="M550.411 334.869C563.146 334.869 568.369 339.985 568.369 351.452V359.45C568.369 370.917 563.146 376.033 550.411 376.033H526.668L534.277 367.741H550.176C557.101 367.741 559.448 365.624 559.448 358.685V352.217C559.448 345.278 557.101 343.161 550.176 343.161H533.493C533.021 338.692 530.881 335.883 528.054 334.869H550.411V334.869Z" fill="black"/>
<path d="M518.185 334.94C527.18 334.94 530.825 339.115 530.825 346.995V348.526L521.83 348.597V348.289C521.83 344.761 520.36 343.172 516.362 343.172H502.699C502.169 343.172 501.934 343.408 501.934 343.878V355.58H513.011L527.754 359.583C525.789 362.277 523.32 363.695 518.185 363.695H501.934V367.161L492.997 376.032V343.172L486.965 334.94H518.185Z" fill="black"/>
<path d="M555.292 349.955C552.345 348.748 545.753 347.704 538.275 351.533H510.315C510.064 351.533 510.019 351.748 510.262 351.81L532.952 357.707L530.47 360.915L536.004 359.411L538.593 360.528C538.91 360.665 539.279 360.578 539.501 360.313L542.818 356.359L555.292 350.56C555.559 350.436 555.565 350.067 555.293 349.955H555.292ZM543.501 352.44C543.433 352.02 543.773 351.026 545.681 350.401C547.588 349.776 549.29 350.13 549.903 350.385L543.501 352.44Z" fill="black"/>
<path d="M535.043 362.278L531.193 364.124C531.114 364.162 531.097 364.266 531.158 364.328L531.749 364.92L522.069 375.738C521.967 375.852 522.048 376.033 522.201 376.033C522.233 376.033 522.263 376.02 522.286 375.998L532.634 365.806L533.164 366.337C533.225 366.399 533.33 366.381 533.368 366.302L535.211 362.446C535.263 362.338 535.151 362.226 535.043 362.277L535.043 362.278Z" fill="black"/>
<path d="M528.029 364.049L524.672 365.655C524.604 365.688 524.589 365.779 524.642 365.833L525.157 366.348L516.748 375.733C516.648 375.845 516.727 376.022 516.877 376.022L525.929 367.12L526.391 367.583C526.445 367.637 526.536 367.621 526.569 367.552L528.176 364.196C528.221 364.102 528.123 364.005 528.029 364.049L528.029 364.049Z" fill="black"/>
<path fill-rule="evenodd" clip-rule="evenodd" d="M595.484 336.979C597.4 336.98 598.783 337.444 599.685 338.382C600.586 339.319 600.973 340.695 600.973 342.446V344.381C600.973 346.145 600.586 347.546 599.687 348.505C598.786 349.467 597.402 349.951 595.484 349.951H587.671V355.396H587.489C587.489 355.396 587.161 355.395 586.949 355.395H584.281C584.07 355.395 583.743 355.396 583.743 355.396H583.561V336.979H583.889C583.889 336.979 584.203 336.979 584.479 336.979H595.484ZM587.814 340.947C587.727 340.947 587.701 340.967 587.695 340.973C587.689 340.979 587.671 341.002 587.671 341.079V346.036H594.718C595.539 346.036 596.056 345.865 596.372 345.549C596.687 345.234 596.838 344.737 596.838 343.994V343.014C596.838 342.258 596.686 341.754 596.371 341.436C596.056 341.118 595.539 340.947 594.718 340.947H587.814Z" fill="black"/>
<path fill-rule="evenodd" clip-rule="evenodd" d="M639.277 336.979C641.141 336.979 642.524 337.417 643.438 338.341C644.352 339.265 644.765 340.642 644.765 342.446V343.943C644.765 345.459 644.478 346.685 643.861 347.602C643.287 348.456 642.438 349.025 641.315 349.315L645.272 354.438L645.272 354.439C645.409 354.618 645.996 355.395 645.996 355.395C645.996 355.395 645.079 355.395 644.81 355.395H641.5C641.289 355.395 641.022 355.395 641.022 355.395C641.022 355.395 640.755 355.108 640.666 354.988L636.791 349.822H631.649V355.396L631.476 355.395C631.476 355.395 631.139 355.395 630.928 355.395H628.26C628.049 355.395 627.746 355.395 627.746 355.395L627.539 355.396V336.979H627.813C627.813 336.979 628.181 336.979 628.458 336.979H639.277ZM631.793 340.946C631.695 340.946 631.668 340.965 631.665 340.968C631.665 340.968 631.661 340.971 631.658 340.98C631.654 340.992 631.649 341.015 631.649 341.053V346.061H638.511C639.336 346.061 639.852 345.907 640.166 345.607C640.478 345.309 640.63 344.828 640.63 344.072V342.988C640.63 342.219 640.473 341.724 640.156 341.416C639.838 341.106 639.322 340.946 638.511 340.946H631.793Z" fill="black"/>
<path d="M613.355 340.973H621.938V336.979H613.331H606.236V343.969V348.406V355.395H613.331H621.938V351.402H613.355H610.321C610.321 351.402 610.322 349.477 610.322 348.122V347.991H621.048V344.204H610.322C610.326 342.878 610.322 341.024 610.322 341.024C610.322 341.024 612.087 340.973 613.355 340.973Z" fill="black"/>
<path d="M679.248 340.973H687.831V336.979H679.223H672.129V343.968V348.406V355.395H679.223H687.831V351.402H679.248H676.214C676.214 351.402 676.214 349.477 676.214 348.122V347.99H686.94V344.204H676.215C676.219 342.878 676.215 341.024 676.215 341.024C676.215 341.024 677.98 340.973 679.248 340.973Z" fill="black"/>
<path d="M697.346 348.019V336.979H693.236V348.406C693.236 350.899 693.713 352.662 694.867 353.796C696.02 354.93 697.809 355.395 700.331 355.395H704.44C706.961 355.395 708.75 354.93 709.903 353.796C711.057 352.662 711.534 350.899 711.534 348.406V336.979H707.399V348.019C707.399 349.385 707.217 350.205 706.77 350.692C706.327 351.174 705.582 351.376 704.316 351.376H700.454C699.189 351.376 698.436 351.174 697.987 350.691C697.534 350.204 697.346 349.384 697.346 348.019Z" fill="black"/>
<path d="M655.367 340.973H666.041V336.979H654.65C653.199 336.979 652.061 337.375 651.287 338.137C650.512 338.898 650.125 340.001 650.125 341.363V343.272C650.125 344.747 650.516 345.931 651.285 346.748C652.055 347.566 653.182 347.991 654.601 347.991H662.001C662.438 347.991 662.701 348.084 662.859 348.246C663.018 348.41 663.108 348.682 663.108 349.129V350.187C663.108 350.64 663.003 350.935 662.827 351.118C662.654 351.3 662.381 351.402 661.977 351.402H650.871H650.522V355.395H650.871H662.693C664.145 355.395 665.288 355 666.068 354.239C666.85 353.478 667.243 352.375 667.243 351.012V348.922C667.243 347.447 666.846 346.262 666.071 345.446C665.294 344.628 664.161 344.204 662.742 344.204H655.367C654.93 344.204 654.66 344.11 654.495 343.946C654.33 343.782 654.235 343.51 654.235 343.065V342.188C654.235 341.733 654.336 341.438 654.508 341.255C654.678 341.076 654.949 340.973 655.367 340.973Z" fill="black"/>
<path d="M721.767 340.973H732.442V336.979H721.051C719.599 336.979 718.461 337.375 717.687 338.137C716.912 338.898 716.525 340.001 716.525 341.363V343.272C716.525 344.747 716.916 345.931 717.685 346.748C718.456 347.566 719.582 347.991 721.001 347.991H728.402C728.839 347.991 729.101 348.084 729.259 348.246C729.418 348.41 729.509 348.682 729.509 349.129V350.187C729.509 350.64 729.403 350.935 729.228 351.118C729.054 351.3 728.781 351.402 728.377 351.402H717.271H716.923V355.395H717.271H729.094C730.545 355.395 731.688 355 732.469 354.239C733.25 353.478 733.644 352.375 733.644 351.012V348.922C733.644 347.447 733.246 346.262 732.471 345.446C731.694 344.628 730.562 344.204 729.143 344.204H721.767C721.33 344.204 721.06 344.11 720.895 343.946C720.731 343.782 720.636 343.51 720.636 343.065V342.188C720.636 341.733 720.736 341.438 720.908 341.255C721.078 341.076 721.349 340.973 721.767 340.973Z" fill="black"/>
<path d="M606.538 365.439H611.646V363.062H606.523H602.301V367.222V369.863V374.023H606.523H611.646V371.647H606.538H604.732C604.732 371.647 604.732 370.501 604.732 369.695V369.616H611.116V367.362H604.733C604.735 366.573 604.733 365.47 604.733 365.47C604.733 365.47 605.783 365.439 606.538 365.439Z" fill="black"/>
<path d="M640.261 365.439H645.369V363.062H640.246H636.023V367.222V369.863V374.023H640.246H645.369V371.647H640.261H638.455C638.455 371.647 638.455 370.501 638.455 369.695V369.616H644.839V367.362H638.455C638.458 366.573 638.455 365.47 638.455 365.47C638.455 365.47 639.506 365.439 640.261 365.439Z" fill="black"/>
<path d="M692.987 365.439H698.096V363.062H692.973H688.75V367.222V369.863V374.023H692.973H698.096V371.647H692.987H691.181C691.181 371.647 691.182 370.501 691.182 369.695V369.616H697.565V367.362H691.182C691.184 366.573 691.182 365.47 691.182 365.47C691.182 365.47 692.232 365.439 692.987 365.439Z" fill="black"/>
<path d="M674.544 365.439H680.897V363.063H674.117C673.253 363.063 672.576 363.298 672.115 363.751C671.654 364.205 671.424 364.861 671.424 365.671V366.808C671.424 367.685 671.657 368.39 672.114 368.877C672.573 369.364 673.243 369.616 674.088 369.616H678.492C678.752 369.616 678.909 369.672 679.003 369.768C679.097 369.866 679.151 370.028 679.151 370.294V370.923C679.151 371.193 679.088 371.369 678.984 371.478C678.881 371.586 678.718 371.647 678.478 371.647H671.868H671.66V374.023H671.868H678.904C679.768 374.023 680.448 373.788 680.913 373.335C681.378 372.882 681.612 372.226 681.612 371.415V370.171C681.612 369.293 681.376 368.588 680.914 368.102C680.452 367.615 679.778 367.362 678.933 367.362H674.544C674.284 367.362 674.123 367.307 674.025 367.209C673.927 367.111 673.87 366.949 673.87 366.685V366.163C673.87 365.892 673.93 365.716 674.032 365.608C674.134 365.5 674.295 365.439 674.544 365.439Z" fill="black"/>
<path d="M661.759 363.063V370.178L655 363.063H653.876H652.42V364.805V374.023H654.94V366.722L661.699 374.024H662.808H664.279V372.282V363.063H661.759Z" fill="black"/>
<path d="M623.006 365.528H628.887V363.062H622.933H618.697V367.236V374.022H621.232V369.814H627.868V367.47H621.232V367.403V365.528H623.006Z" fill="black"/>
<path fill-rule="evenodd" clip-rule="evenodd" d="M590.692 363.062C592.288 363.063 593.452 363.396 594.215 364.14C594.978 364.885 595.306 366.008 595.306 367.509V369.577C595.306 371.078 594.978 372.202 594.215 372.946C593.452 373.69 592.288 374.024 590.692 374.024H584.082C583.91 374.024 583.621 374.022 583.621 374.022H583.484V363.062H583.638C583.638 363.062 583.91 363.063 584.082 363.062H590.692ZM586.021 365.531C586.02 365.538 586.019 365.549 586.019 365.564V371.522C586.019 371.537 586.02 371.548 586.021 371.555C586.027 371.556 586.035 371.558 586.047 371.558H590.633C591.484 371.558 592.001 371.42 592.312 371.108C592.624 370.795 592.771 370.268 592.771 369.379V367.707C592.771 366.818 592.624 366.291 592.312 365.978C592.001 365.666 591.484 365.528 590.633 365.528H586.047C586.035 365.528 586.027 365.53 586.021 365.531Z" fill="black"/>
</g>
</g>
<defs>
<clipPath id="clip0_4830_1879">
<rect width="818" height="460" fill="white"/>
</clipPath>
<clipPath id="clip1_4830_1879">
<rect width="818" height="460.125" rx="4.26042" fill="white"/>
</clipPath>
</defs>
</svg>
