<svg width="105" height="32" viewBox="0 0 105 32" fill="none" xmlns="http://www.w3.org/2000/svg">
<g clip-path="url(#clip0_6679_2147)">
<path d="M57.2681 14.6412C56.9398 14.7891 56.5839 14.8667 56.2236 14.8689C55.6693 14.908 55.1221 14.7288 54.6986 14.3696C54.5176 14.2163 54.3674 14.0301 54.2562 13.8208C54.1465 13.6065 54.0811 13.3723 54.0638 13.1321H60.2694C60.3407 12.5179 60.2777 11.8954 60.0849 11.3076C59.8942 10.7196 59.5776 10.1802 59.1564 9.72724C58.3446 8.94589 57.2604 8.51085 56.133 8.51455C55.0059 8.51085 53.9215 8.94589 53.1102 9.72724C52.7183 10.1097 52.4104 10.5694 52.206 11.0771C52.0057 11.5859 51.9122 12.1304 51.9312 12.6767C51.9121 13.2257 52.0056 13.7729 52.206 14.2845C52.4038 14.7975 52.705 15.2644 53.0909 15.6563C53.4808 16.0505 53.9488 16.3589 54.465 16.5618C54.9815 16.7648 55.5345 16.8582 56.0893 16.8361C57.0272 16.8336 57.9418 16.5402 58.7055 15.9966C59.3714 15.5511 59.8682 14.8949 60.1153 14.1336H57.8401C57.7014 14.3534 57.503 14.5294 57.2681 14.6412ZM54.858 10.7013C55.2115 10.4326 55.6478 10.2957 56.0921 10.3144C56.5254 10.2944 56.9542 10.4136 57.3151 10.6546C57.6688 10.9251 57.9114 11.3154 57.9965 11.7521H54.1985C54.2862 11.3347 54.52 10.9622 54.858 10.7013Z" fill="#18181B" fill-opacity="0.8"/>
<path d="M62.0777 15.6399C62.4684 16.0301 62.9364 16.3347 63.4521 16.5344C63.966 16.7359 64.5159 16.8293 65.0679 16.8088C65.9925 16.8328 66.901 16.5628 67.662 16.0378C68.355 15.5851 68.8689 14.9063 69.116 14.1172H66.8264C66.6927 14.3792 66.4738 14.5881 66.2058 14.7098C65.877 14.8605 65.52 14.9383 65.1586 14.9375C64.6071 14.9599 64.0666 14.7826 63.6361 14.4382C63.2791 14.1157 63.0597 13.6689 63.0232 13.1898H69.2287C69.2945 12.5758 69.2287 11.9549 69.0364 11.368C68.8446 10.7813 68.5307 10.2419 68.1157 9.78488C67.531 9.19553 66.7855 8.79177 65.9721 8.62433C65.1597 8.45451 64.3158 8.52799 63.5454 8.83558C62.7734 9.14239 62.1097 9.67034 61.6383 10.3528C61.1642 11.033 60.9022 11.8376 60.8851 12.6658C60.8657 13.2166 60.9591 13.7656 61.1597 14.2791C61.3697 14.7904 61.682 15.2535 62.0777 15.6399ZM63.8477 10.6766C64.1887 10.4169 64.6093 10.2831 65.0375 10.298C65.4531 10.2864 65.8615 10.4055 66.2058 10.6382C66.5733 10.8996 66.8253 11.2929 66.9093 11.7357H63.1581C63.2592 11.3162 63.5029 10.9448 63.8477 10.6849V10.6766Z" fill="#18181B" fill-opacity="0.8"/>
<path d="M72.5014 12.9843L75.7553 16.6389L78.4378 16.5483L74.5489 12.1914L77.7094 8.60537H75.0711L72.5014 11.5329V4.72302H70.229V16.6389H72.5014V12.9843Z" fill="#18181B" fill-opacity="0.8"/>
<path d="M50.016 21.2047L47.7405 26.2915L45.4677 21.2047H42.9668L46.6275 29.1504H48.8782L52.5388 21.2047H50.016Z" fill="#18181B" fill-opacity="0.8"/>
<path d="M57.2681 27.1283C56.9542 27.2963 56.6027 27.3831 56.2457 27.3807C55.6942 27.403 55.1532 27.2246 54.7234 26.8786C54.5402 26.7268 54.3889 26.5403 54.2782 26.3298C54.1678 26.1158 54.1023 25.8814 54.0858 25.6412H60.2943C60.3617 25.0237 60.2976 24.3989 60.1042 23.8084C59.9119 23.2176 59.5963 22.6743 59.178 22.2143C58.3667 21.4329 57.2825 20.9979 56.1551 21.0016C55.0279 20.9979 53.9436 21.4329 53.1322 22.2143C52.7393 22.5971 52.4296 23.0566 52.2226 23.5642C52.0147 24.0724 51.9137 24.6178 51.9258 25.1665C51.9067 25.7191 52.0002 26.2698 52.2006 26.7853C52.4048 27.2989 52.7114 27.7656 53.102 28.1571C53.493 28.5498 53.9607 28.858 54.4761 29.0626C54.9935 29.2656 55.5478 29.359 56.1031 29.3369C57.0404 29.334 57.9534 29.0406 58.7165 28.4974C59.3791 28.048 59.8743 27.3933 60.1263 26.6344H57.8401C57.7036 26.8526 57.5041 27.0247 57.2681 27.1283ZM54.8828 23.1801C55.2374 22.9199 55.6688 22.7848 56.1087 22.796C56.5248 22.7841 56.9332 22.9116 57.2681 23.1581C57.6312 23.4264 57.8754 23.8248 57.95 24.2694H54.2233C54.3029 23.8382 54.5374 23.4509 54.8828 23.1801Z" fill="#18181B" fill-opacity="0.8"/>
<path d="M66.8623 21.2351C66.4683 21.0711 66.0417 20.9988 65.6151 21.0238C65.1735 20.9935 64.7325 21.0786 64.3341 21.2707C63.9351 21.4607 63.5924 21.7509 63.3393 22.113V21.2049H61.0663V29.1616L63.2653 29.0464V25.1558C63.22 24.553 63.3979 23.9545 63.7654 23.4739C63.9201 23.2893 64.1147 23.142 64.3341 23.0432C64.5551 22.944 64.7961 22.898 65.0376 22.9087C65.2371 22.8979 65.436 22.9356 65.6178 23.0185C65.8007 23.1007 65.961 23.2259 66.0848 23.3834C66.3396 23.7946 66.4656 24.2721 66.4473 24.7552V29.0436H68.7203V24.4973C68.759 23.5824 68.4595 22.6852 67.8792 21.9759C67.6007 21.6559 67.2531 21.4027 66.8623 21.2351Z" fill="#18181B" fill-opacity="0.8"/>
<path d="M72.5042 18.9321H70.2284V21.2012H68.9977V23.1217H70.2284V26.3895C70.203 26.7858 70.2649 27.1829 70.4102 27.5528C70.5561 27.9215 70.7822 28.2533 71.0723 28.5241C71.7073 29.0511 72.5218 29.3117 73.3453 29.2511C73.8128 29.2655 74.2803 29.2119 74.7329 29.092V27.1714C74.4472 27.2681 74.1466 27.3136 73.8454 27.3059C73.663 27.3434 73.474 27.3349 73.2955 27.2811C73.117 27.2304 72.9535 27.1362 72.8203 27.0068C72.691 26.8725 72.5964 26.7086 72.5456 26.5294C72.4914 26.3514 72.4832 26.1627 72.5207 25.9806V23.1108H74.7932V21.1902H72.5207L72.5042 18.9321Z" fill="#18181B" fill-opacity="0.8"/>
<path d="M80.6665 25.1547C80.7047 25.7491 80.5455 26.3394 80.2134 26.8339C80.0791 27.0194 79.9006 27.1684 79.6939 27.2674C79.4872 27.3679 79.2584 27.4142 79.0285 27.4019C78.1216 27.4019 77.6547 26.7872 77.6547 25.517V21.2724H75.3817V25.8132C75.3358 26.735 75.6171 27.6434 76.1758 28.3786C76.4521 28.7069 76.8025 28.9646 77.1982 29.1304C77.5939 29.2964 78.0238 29.3651 78.4516 29.3307C78.8826 29.3567 79.3126 29.2696 79.6994 29.0783C80.0852 28.8866 80.4145 28.5982 80.6555 28.2414V29.1496H82.9312V21.1929H80.6555L80.6665 25.1547Z" fill="#18181B" fill-opacity="0.8"/>
<path d="M88.2846 21.1268C87.8524 21.1297 87.4313 21.2647 87.0782 21.5137C86.735 21.7551 86.4736 22.0948 86.3277 22.4877V21.2174H84.0553V29.174L86.3277 29.1521V25.3356C86.2978 24.7837 86.4592 24.2384 86.7842 23.7909C86.9317 23.6071 87.1196 23.4597 87.3335 23.3602C87.5507 23.2615 87.7877 23.2145 88.0265 23.223C88.3658 23.225 88.7029 23.2786 89.0267 23.3821V21.1268C88.7808 21.0892 88.5305 21.0892 88.2846 21.1268Z" fill="#18181B" fill-opacity="0.8"/>
<path d="M94.3414 27.128C94.0269 27.2958 93.6755 27.3826 93.319 27.3804C92.7592 27.4081 92.2082 27.2294 91.7717 26.8783C91.4141 26.5566 91.1947 26.1093 91.1588 25.6299H97.3643C97.4334 25.0127 97.3698 24.3879 97.1775 23.7972C96.9846 23.2067 96.6691 22.6635 96.2513 22.2031C95.44 21.4217 94.3558 20.9867 93.2284 20.9904C92.101 20.9878 91.0173 21.4227 90.2055 22.2031C89.6313 22.793 89.2434 23.538 89.0897 24.3459C88.9361 25.1542 89.0229 25.9898 89.3395 26.7494C89.6578 27.5079 90.1906 28.1573 90.8731 28.6178C91.5578 29.0752 92.3608 29.3231 93.1842 29.3312C94.1225 29.3283 95.0366 29.0349 95.8009 28.4916C96.4629 28.0423 96.9586 27.3875 97.2106 26.6287H94.9018C94.7691 26.8472 94.574 27.0211 94.3414 27.128ZM91.9535 23.1798C92.3088 22.9198 92.741 22.7848 93.1814 22.7957C93.5975 22.7882 94.0043 22.9152 94.3414 23.1579C94.7045 23.4261 94.9487 23.8245 95.0228 24.2691H91.2936C91.3754 23.8387 91.6097 23.4521 91.9535 23.1798Z" fill="#18181B" fill-opacity="0.8"/>
<path d="M103.914 25.3362C103.453 24.8807 102.868 24.5722 102.232 24.45L100.822 24.0658C100.209 23.9287 99.9119 23.679 99.9119 23.3388C99.9125 23.2483 99.9362 23.1595 99.981 23.0809C100.024 23.0011 100.087 22.9332 100.162 22.8833C100.382 22.7761 100.624 22.7217 100.869 22.7242C101.114 22.7 101.36 22.7707 101.555 22.9217C101.751 23.0744 101.879 23.2967 101.913 23.5418H104.188C104.172 23.184 104.078 22.834 103.914 22.5157C103.745 22.1944 103.509 21.9136 103.221 21.6925C102.562 21.2133 101.759 20.9732 100.945 21.0121C100.134 20.9847 99.3355 21.2237 98.6729 21.6925C98.4038 21.8825 98.185 22.1349 98.0352 22.4279C97.8838 22.7194 97.8064 23.0434 97.8097 23.3717C97.8014 23.9276 97.9772 24.4707 98.3098 24.9164C98.7011 25.3855 99.2361 25.7125 99.8323 25.8465L101.333 26.2114C101.605 26.2774 101.865 26.3837 102.105 26.527C102.182 26.5805 102.242 26.6534 102.281 26.7382C102.323 26.8233 102.341 26.9181 102.334 27.0126C102.334 27.4433 101.993 27.6491 101.289 27.6491C100.959 27.6666 100.632 27.5792 100.355 27.3995C100.228 27.3118 100.124 27.1964 100.05 27.062C99.9744 26.9281 99.9313 26.7789 99.923 26.6257H97.6506C97.6605 27.0096 97.7611 27.3856 97.9446 27.7232C98.1264 28.0579 98.3828 28.3462 98.6945 28.5655C99.4333 29.1005 100.33 29.3721 101.242 29.3365C102.048 29.3469 102.84 29.1177 103.515 28.678C103.806 28.4849 104.045 28.2216 104.208 27.9125C104.372 27.6035 104.455 27.2581 104.45 26.9083C104.463 26.3373 104.274 25.78 103.914 25.3362Z" fill="#18181B" fill-opacity="0.8"/>
<path d="M48.1276 17.8359C47.9565 18.0018 47.7537 18.1315 47.5312 18.2173C47.3091 18.3042 47.0715 18.3443 46.8331 18.3352C46.4461 18.3721 46.058 18.2753 45.7339 18.0609C45.4054 17.8472 45.1615 17.5261 45.0441 17.1527H42.9307C42.9488 17.5921 43.0612 18.0226 43.2605 18.4148C43.4599 18.8063 43.741 19.1506 44.085 19.4245C44.8663 19.9997 45.8189 20.2955 46.7892 20.2641C47.892 20.287 48.9632 19.8952 49.7902 19.1666C50.1881 18.781 50.4959 18.3126 50.6916 17.7947C50.8891 17.2782 50.9698 16.7245 50.928 16.1732V8.69392H48.6552V9.60482C48.4137 9.26468 48.0828 8.99786 47.6988 8.83384C47.2705 8.62887 46.7996 8.52829 46.3247 8.54026C45.824 8.53188 45.3272 8.63108 44.8682 8.83108C44.41 9.03058 43.9997 9.3252 43.6645 9.69535C42.9385 10.4698 42.544 11.4966 42.5652 12.557C42.542 13.6105 42.9372 14.6304 43.6645 15.394C43.999 15.765 44.4095 16.0597 44.8682 16.2583C45.3271 16.4591 45.8238 16.5592 46.3247 16.5518C46.799 16.5584 47.2687 16.458 47.6988 16.2583C48.0793 16.0991 48.4098 15.8403 48.6552 15.5093V16.4394C48.6685 16.6936 48.6283 16.9478 48.5371 17.1856C48.4483 17.4289 48.3087 17.6506 48.1276 17.8359ZM48.4739 13.8411C48.2951 14.1276 48.0466 14.3644 47.7516 14.5294C47.4566 14.6944 47.1246 14.7823 46.7865 14.7849C46.2419 14.7727 45.7242 14.5466 45.3455 14.1557C44.9669 13.7648 44.7578 13.2407 44.7638 12.697V12.6586C44.7601 12.3929 44.8086 12.1291 44.9067 11.8821C44.9072 11.8757 44.9072 11.8693 44.9067 11.8629C45.0501 11.4826 45.3052 11.1543 45.6387 10.9213C45.9722 10.6882 46.3684 10.5612 46.7755 10.5569C47.1216 10.5562 47.462 10.645 47.7635 10.8148C48.065 10.9845 48.3173 11.2293 48.4959 11.5254C48.567 11.6347 48.6278 11.7504 48.6772 11.8711C48.7764 12.1214 48.8223 12.3896 48.8118 12.6586C48.8227 12.9296 48.7758 13.1998 48.6745 13.4515C48.6207 13.5833 48.5535 13.7093 48.4739 13.8273V13.8411Z" fill="#18181B" fill-opacity="0.8"/>
<path fill-rule="evenodd" clip-rule="evenodd" d="M28.4702 3.71963C25.3982 3.94083 25.2245 4.11421 24.9999 7.20809C24.7814 4.11421 24.6287 3.94083 21.5327 3.71963C24.6287 3.52234 24.8023 3.34896 24.9999 0.258057C25.2245 3.27423 25.3982 3.52234 28.4702 3.71963ZM30.7553 21.6283C33.8513 21.431 34.025 21.2576 34.2226 18.1668C34.4472 21.2576 34.6178 21.431 37.6899 21.6283C34.6178 21.8495 34.4472 22.0229 34.2226 25.0899C34.025 22.0229 33.8513 21.8495 30.7553 21.6283ZM30.5511 8.61592L30.0122 8.84009C29.8623 8.61266 29.6376 8.44461 29.3768 8.36494C29.1161 8.28527 28.8356 8.29895 28.584 8.40367L25.8503 9.54254C26.3648 10.1387 26.8257 10.7788 27.2276 11.4557C26.8573 11.6826 26.5086 11.9428 26.1856 12.2329C26.4482 12.7188 26.686 13.2177 26.8982 13.7275C27.1048 14.2238 27.2875 14.7259 27.4462 15.2222C27.8774 15.1989 28.3055 15.1348 28.7247 15.0309C28.9234 15.7923 29.0556 16.5694 29.1199 17.3535L31.8506 16.2146C32.1026 16.1108 32.3102 15.922 32.4371 15.6811C32.564 15.4402 32.6023 15.1625 32.5452 14.8964L33.0872 14.6692C35.8359 13.5274 38.0179 11.3425 39.1534 8.59495C36.3965 7.46353 33.3025 7.47109 30.5511 8.61592ZM34.9975 11.1299C34.9757 11.462 34.8558 11.7804 34.653 12.0447C34.4502 12.3089 34.1736 12.5074 33.858 12.6149C33.5424 12.7225 33.202 12.7344 32.8796 12.6491C32.5573 12.5637 32.2675 12.3851 32.0468 12.1355C31.826 11.886 31.6841 11.5769 31.6391 11.247C31.5941 10.9171 31.6479 10.5813 31.7938 10.282C31.9397 9.9826 32.1711 9.733 32.4588 9.56472C32.7465 9.39644 33.0777 9.31694 33.4106 9.33631C33.633 9.34922 33.8507 9.40599 34.0511 9.50331C34.2514 9.60058 34.4305 9.73653 34.578 9.90326C34.7255 10.07 34.8386 10.2642 34.9106 10.4747C34.9826 10.6852 35.0121 10.9079 34.9975 11.1299ZM24.9734 12.9173C25.1681 13.2849 25.3447 13.6646 25.5034 14.0532C25.8313 14.8402 26.0743 15.6599 26.228 16.4984C26.7916 19.5427 26.2421 22.6878 24.6794 25.3617C23.1166 28.0357 20.6445 30.0608 17.7126 31.0689C14.7807 32.0769 11.5838 32.001 8.70322 30.8548C5.82269 29.7086 3.4499 27.5682 2.0164 24.823C0.582909 22.0779 0.18392 18.9103 0.892012 15.8962C1.6001 12.8822 3.36823 10.222 5.87485 8.39948C8.38142 6.57691 11.46 5.71308 14.5506 5.96511C17.6412 6.21708 20.5386 7.56814 22.7158 9.77255C21.9343 10.2927 21.1379 10.7799 20.3205 11.2283C18.5724 9.6621 16.3387 8.74254 13.9929 8.62359C11.6471 8.50458 9.33156 9.19341 7.43355 10.5747C5.53554 11.9561 4.17017 13.9462 3.56584 16.2122C2.96151 18.4782 3.15487 20.8826 4.11358 23.0234C5.07229 25.1641 6.73817 26.9112 8.83265 27.9726C10.9271 29.0338 13.3231 29.345 15.6198 28.8539C17.9165 28.3628 19.9747 27.0993 21.4501 25.2747C22.9254 23.45 23.7284 21.175 23.7249 18.83V18.4085C24.5887 17.9012 25.3186 17.1951 25.8537 16.3489C25.1967 16.9058 24.4625 17.3649 23.674 17.712C17.8533 20.1722 11.1253 20.8986 5.3196 18.2591C7.08694 18.7073 8.91228 18.8847 10.7331 18.7852C14.2213 18.5855 17.6176 17.5916 20.6618 15.8796C21.3894 15.4551 22.099 15.0277 22.7876 14.5584C23.4105 14.1339 24.0093 13.6855 24.6081 13.2162C24.6324 13.1953 24.6733 13.163 24.7208 13.1255C24.8023 13.0612 24.9034 12.9815 24.9734 12.9173Z" fill="#18181B" fill-opacity="0.8"/>
</g>
<defs>
<clipPath id="clip0_6679_2147">
<rect width="105" height="32" fill="white"/>
</clipPath>
</defs>
</svg>
