<svg width="16" height="16" viewBox="0 0 16 16" fill="none" xmlns="http://www.w3.org/2000/svg">
<g clip-path="url(#clip0_1379_9220)">
<path d="M15.04 8.1665C15.04 7.6465 14.9933 7.1465 14.9067 6.6665H8V9.50317H11.9467C11.7767 10.4198 11.26 11.1965 10.4833 11.7165V13.5565H12.8533C14.24 12.2798 15.04 10.3998 15.04 8.1665Z" fill="#4285F4"/>
<path d="M7.99864 15.3331C9.97864 15.3331 11.6386 14.6764 12.852 13.5564L10.482 11.7164C9.82531 12.1564 8.98531 12.4164 7.99864 12.4164C6.08864 12.4164 4.47198 11.1264 3.89531 9.39307H1.44531V11.2931C2.65198 13.6897 5.13198 15.3331 7.99864 15.3331Z" fill="#34A853"/>
<path d="M3.89406 9.3937C3.7474 8.9537 3.66406 8.4837 3.66406 8.00036C3.66406 7.51703 3.7474 7.04703 3.89406 6.60703V4.70703H1.44406C0.930729 5.72894 0.66361 6.85677 0.664063 8.00036C0.664063 9.1837 0.947396 10.3037 1.44406 11.2937L3.89406 9.3937Z" fill="#FBBC05"/>
<path d="M7.99865 3.58317C9.07531 3.58317 10.042 3.95317 10.802 4.67984L12.9053 2.5765C11.6353 1.39317 9.97531 0.666504 7.99865 0.666504C5.13198 0.666504 2.65198 2.30984 1.44531 4.7065L3.89531 6.6065C4.47198 4.87317 6.08865 3.58317 7.99865 3.58317Z" fill="#EA4335"/>
</g>
<defs>
<clipPath id="clip0_1379_9220">
<rect width="16" height="16" fill="white"/>
</clipPath>
</defs>
</svg>
