<svg width="16" height="16" viewBox="0 0 16 16" fill="none" xmlns="http://www.w3.org/2000/svg">
<path d="M14 6.32553C14.0009 6.76183 13.9209 7.194 13.7646 7.59703C13.6083 8.00007 13.3788 8.36597 13.0894 8.67357L8.30581 13.8633C8.26594 13.9066 8.21841 13.941 8.16599 13.9645C8.11357 13.9879 8.05731 14 8.00048 14C7.94365 14 7.88739 13.9879 7.83497 13.9645C7.78255 13.941 7.73502 13.9066 7.69515 13.8633L2.91161 8.67357C2.32842 8.05083 2.0005 7.20591 2 6.32469C1.9995 5.44346 2.32645 4.59812 2.90893 3.97462C3.49141 3.35112 4.28171 3.00054 5.10597 3C5.93022 2.99946 6.72092 3.34901 7.30411 3.97175L8.00048 4.66758L8.70167 3.96946C9.13688 3.50649 9.69062 3.19175 10.293 3.06497C10.8954 2.93819 11.5194 3.00506 12.0863 3.25713C12.6531 3.50921 13.1374 3.93518 13.478 4.48129C13.8186 5.0274 14.0003 5.66915 14 6.32553Z" fill="black"/>
</svg>
