<svg width="100" height="100" viewBox="0 0 100 100" fill="none" xmlns="http://www.w3.org/2000/svg">
<path d="M79.6053 62.4989C79.4564 61.2856 78.4803 60.293 77.2615 60.293C76.0427 60.293 75.0721 61.2856 74.9233 62.4989C73.9252 70.4841 67.5998 76.81 59.6141 77.8081C58.4008 77.957 57.4082 78.9276 57.4082 80.1463C57.4082 81.365 58.4008 82.3412 59.6141 82.4901C67.5994 83.4827 73.9252 89.8137 74.9233 97.7993C75.0722 99.0071 76.0428 99.9997 77.2615 99.9997C78.4802 99.9997 79.4564 99.0071 79.6053 97.7993C80.598 89.8141 86.9289 83.4826 94.9146 82.4901C96.1223 82.3412 97.115 81.3651 97.115 80.1463C97.115 78.9275 96.1223 77.9569 94.9146 77.8081C86.9293 76.8099 80.5978 70.4845 79.6053 62.4989Z" fill="url(#paint0_linear_1322_59968)"/>
<path d="M44.2943 2.93931C44.1619 1.32353 42.8605 0 41.2336 0C39.6067 0 38.3053 1.32353 38.1729 2.93931C36.7556 20.0895 23.0839 33.7611 5.93931 35.1729C4.31803 35.3052 3 36.6122 3 38.2336C3 39.8604 4.31802 41.1619 5.93931 41.2998C23.0853 42.7116 36.7554 56.3832 38.1729 73.5277C38.3052 75.149 39.6067 76.4725 41.2336 76.4725C42.8605 76.4725 44.1619 75.149 44.2943 73.5277C45.7116 56.3818 59.3833 42.7116 76.5279 41.2998C78.1491 41.1619 79.4672 39.8605 79.4672 38.2336C79.4672 36.6123 78.1491 35.3053 76.5279 35.1729C59.3819 33.7611 45.7117 20.0895 44.2943 2.93931Z" fill="url(#paint1_linear_1322_59968)"/>
<defs>
<linearGradient id="paint0_linear_1322_59968" x1="57.2557" y1="80.1464" x2="97.115" y2="80.1464" gradientUnits="userSpaceOnUse">
<stop stop-color="#A2B2FF"/>
<stop offset="1" stop-color="#86FDE8"/>
</linearGradient>
<linearGradient id="paint1_linear_1322_59968" x1="2.70623" y1="38.2363" x2="79.4672" y2="38.2363" gradientUnits="userSpaceOnUse">
<stop stop-color="#A2B2FF"/>
<stop offset="1" stop-color="#86FDE8"/>
</linearGradient>
</defs>
</svg>
