<svg width="16" height="16" viewBox="0 0 16 16" fill="none" xmlns="http://www.w3.org/2000/svg">
<g clip-path="url(#clip0_2111_3265)">
<path d="M11.6923 0H4.30769C3.1656 0.00122171 2.07063 0.455459 1.26304 1.26304C0.455459 2.07063 0.00122171 3.1656 0 4.30769V11.6923C0.00122171 12.8344 0.455459 13.9294 1.26304 14.737C2.07063 15.5445 3.1656 15.9988 4.30769 16H11.6923C12.8344 15.9988 13.9294 15.5445 14.737 14.737C15.5445 13.9294 15.9988 12.8344 16 11.6923V4.30769C15.9988 3.1656 15.5445 2.07063 14.737 1.26304C13.9294 0.455459 12.8344 0.00122171 11.6923 0ZM8 11.6923C7.26973 11.6923 6.55586 11.4758 5.94866 11.07C5.34147 10.6643 4.86822 10.0877 4.58875 9.41299C4.30929 8.7383 4.23617 7.9959 4.37864 7.27967C4.52111 6.56343 4.87277 5.90552 5.38914 5.38914C5.90552 4.87277 6.56343 4.52111 7.27967 4.37864C7.9959 4.23617 8.7383 4.30929 9.41299 4.58875C10.0877 4.86822 10.6643 5.34147 11.07 5.94866C11.4758 6.55586 11.6923 7.26973 11.6923 8C11.6913 8.97895 11.302 9.91751 10.6097 10.6097C9.91751 11.302 8.97895 11.6913 8 11.6923ZM12.6154 4.30769C12.4328 4.30769 12.2544 4.25356 12.1026 4.15213C11.9508 4.0507 11.8324 3.90653 11.7626 3.73786C11.6927 3.56919 11.6744 3.38359 11.71 3.20453C11.7457 3.02547 11.8336 2.861 11.9627 2.7319C12.0918 2.60281 12.2562 2.51489 12.4353 2.47928C12.6144 2.44366 12.8 2.46194 12.9686 2.5318C13.1373 2.60167 13.2815 2.71998 13.3829 2.87178C13.4843 3.02358 13.5385 3.20205 13.5385 3.38462C13.5385 3.62943 13.4412 3.86422 13.2681 4.03733C13.095 4.21044 12.8602 4.30769 12.6154 4.30769ZM10.4615 8C10.4615 8.48685 10.3172 8.96276 10.0467 9.36756C9.77622 9.77236 9.39178 10.0879 8.94199 10.2742C8.4922 10.4605 7.99727 10.5092 7.51978 10.4142C7.04229 10.3193 6.60368 10.0848 6.25943 9.74057C5.91518 9.39632 5.68074 8.95771 5.58576 8.48022C5.49078 8.00273 5.53953 7.5078 5.72583 7.05801C5.91214 6.60822 6.22764 6.22378 6.63244 5.95331C7.03724 5.68283 7.51315 5.53846 8 5.53846C8.65284 5.53846 9.27894 5.7978 9.74057 6.25943C10.2022 6.72106 10.4615 7.34716 10.4615 8Z" fill="#71717A"/>
</g>
<defs>
<clipPath id="clip0_2111_3265">
<rect width="16" height="16" fill="white"/>
</clipPath>
</defs>
</svg>
