<svg width="28" height="28" viewBox="0 0 28 28" fill="none" xmlns="http://www.w3.org/2000/svg">
<path d="M23.3897 13.7226L11.1397 26.8476C11.0098 26.9862 10.8385 27.0787 10.6515 27.1114C10.4644 27.144 10.2718 27.1149 10.1028 27.0284C9.93377 26.942 9.79743 26.8029 9.71436 26.6322C9.63129 26.4615 9.606 26.2684 9.64231 26.082L11.2457 18.0616L4.94247 15.6947C4.8071 15.644 4.68638 15.5607 4.59109 15.452C4.49581 15.3433 4.42893 15.2127 4.39643 15.0719C4.36393 14.9311 4.36682 14.7844 4.40485 14.6449C4.44288 14.5055 4.51485 14.3776 4.61434 14.2728L16.8643 1.1478C16.9942 1.00927 17.1655 0.916707 17.3525 0.884098C17.5396 0.851489 17.7321 0.880597 17.9012 0.967031C18.0702 1.05346 18.2066 1.19253 18.2896 1.36325C18.3727 1.53397 18.398 1.72708 18.3617 1.91343L16.7539 9.94265L23.0572 12.3062C23.1915 12.3572 23.3113 12.4405 23.4058 12.5488C23.5004 12.657 23.5668 12.7869 23.5992 12.9269C23.6317 13.0669 23.6291 13.2127 23.5918 13.3515C23.5545 13.4903 23.4836 13.6178 23.3853 13.7226H23.3897Z" fill="#18181B"/>
</svg>
