<svg width="16" height="16" viewBox="0 0 16 16" fill="none" xmlns="http://www.w3.org/2000/svg">
<path d="M13 0C14.6569 0 16 1.34315 16 3V13C16 14.6569 14.6569 16 13 16H3C1.34315 16 0 14.6569 0 13V3C0 1.34315 1.34315 0 3 0H13ZM2.58789 6.15332V13.7031H4.95801V6.15332H2.58789ZM10.9932 5.96484C10.5429 5.9483 10.0961 6.05282 9.70117 6.26758C9.3063 6.48233 8.97745 6.79951 8.75 7.18457H8.71875V6.15332H6.44531V13.7021H8.81348V9.96777C8.81348 8.98292 9.00221 8.0293 10.2354 8.0293C11.4507 8.02943 11.4668 9.15588 11.4668 10.0312V13.7031H13.834L13.835 9.56152C13.835 7.52836 13.3927 5.9649 10.9932 5.96484ZM3.50586 2.42578C3.23941 2.47831 2.99483 2.60861 2.80273 2.79883C2.61067 2.98907 2.47975 3.2313 2.42676 3.49512C2.37379 3.75902 2.40085 4.03268 2.50488 4.28125C2.6089 4.52975 2.78484 4.74217 3.01074 4.8916C3.23672 5.04105 3.50267 5.12114 3.77441 5.12109C3.95468 5.12104 4.13326 5.08588 4.2998 5.01758C4.46649 4.94918 4.61853 4.849 4.74609 4.72266C4.87352 4.59644 4.97396 4.44611 5.04297 4.28125C5.11199 4.11618 5.14749 3.93842 5.14746 3.75977C5.14733 3.49093 5.06685 3.22841 4.91602 3.00488C4.76508 2.7813 4.55071 2.60685 4.2998 2.50391C4.0488 2.40102 3.7723 2.37331 3.50586 2.42578Z" fill="white"/>
</svg>
