<svg width="388" height="266" viewBox="0 0 388 266" fill="none" xmlns="http://www.w3.org/2000/svg">
<path d="M282.441 54.481H274.671C257.299 56.0262 240.581 61.8596 226.015 71.4582L188.579 94.8285L187.1 92.7906L135.963 9.94248C133.042 5.21319 128.363 1.83858 122.955 0.561039C117.547 -0.716505 111.853 0.207662 107.126 3.13023C102.399 6.05281 99.0262 10.7344 97.7493 16.1451C96.4724 21.5558 97.3961 27.2523 100.317 31.9816L114.494 54.9904C110.32 54.711 106.133 54.711 101.96 54.9904C74.6534 55.8522 48.7511 67.3004 29.7253 86.9163C10.6995 106.532 0.0403902 132.779 -0.000128202 160.113C-0.0406466 187.446 10.5406 213.725 29.5082 233.397C48.4757 253.07 74.344 264.595 101.648 265.537C103.011 265.537 104.391 265.537 105.771 265.537C108.416 265.537 111.06 265.652 113.557 265.537C130.838 264.765 147.396 258.257 161.885 248.79L274.195 178.12C276.594 176.685 278.682 174.785 280.337 172.531C281.991 170.277 283.179 167.716 283.83 164.996C284.481 162.277 284.582 159.454 284.128 156.695C283.673 153.936 282.672 151.296 281.184 148.929C279.695 146.562 277.748 144.517 275.459 142.913C273.169 141.31 270.582 140.18 267.849 139.591C265.117 139.002 262.295 138.965 259.548 139.483C256.801 140 254.186 141.062 251.855 142.605L139.709 213.028C131.022 218.878 121.021 222.481 110.6 223.513H105.771C97.4163 223.509 89.1443 221.858 81.4279 218.653C73.7114 215.449 66.7018 210.755 60.7995 204.839C54.8972 198.923 50.2179 191.902 47.0292 184.176C43.8405 176.45 42.2048 168.171 42.2156 159.812C42.2156 159.023 42.2156 158.168 42.2156 157.429C43.0471 141.472 49.77 126.392 61.0812 115.112C72.3925 103.831 87.4866 97.1539 103.438 96.3734C112.711 96.0659 121.94 97.7893 130.478 101.423C139.016 105.057 146.657 110.513 152.867 117.41L113.951 141.931C109.238 144.893 105.893 149.607 104.653 155.036C103.413 160.465 104.379 166.165 107.34 170.881C110.3 175.597 115.012 178.944 120.438 180.184C125.865 181.425 131.562 180.458 136.276 177.496L248.586 106.826C257.335 100.998 267.382 97.4087 277.842 96.3734H282.589C299.413 96.3429 315.561 102.998 327.482 114.876C339.403 126.753 346.122 142.881 346.161 159.713C346.161 160.634 346.161 161.57 346.161 162.491C345.286 178.323 338.631 193.283 327.461 204.532C316.29 215.781 301.381 222.535 285.562 223.513C278.005 223.846 270.446 222.868 263.222 220.621C260.592 219.7 257.805 219.313 255.023 219.483C252.242 219.653 249.523 220.377 247.024 221.612C244.526 222.847 242.299 224.568 240.474 226.674C238.649 228.781 237.263 231.231 236.396 233.881C235.529 236.53 235.2 239.326 235.427 242.105C235.654 244.883 236.433 247.589 237.718 250.062C239.003 252.536 240.768 254.728 242.911 256.511C245.053 258.293 247.53 259.63 250.195 260.443L250.623 260.574C260.937 263.86 271.699 265.523 282.523 265.505H287.452C314.61 264.234 340.228 252.52 358.962 232.807C377.696 213.095 388.099 186.906 387.999 159.705C387.899 132.504 377.306 106.392 358.428 86.8176C339.55 67.2428 313.846 55.7172 286.679 54.6453C285.3 54.5138 283.87 54.481 282.441 54.481Z" fill="url(#paint0_linear)"/>
<defs>
<linearGradient id="paint0_linear" x1="-22.6903" y1="64.3683" x2="369.361" y2="265.685" gradientUnits="userSpaceOnUse">
<stop stop-color="#FFA42E"/>
<stop offset="0.2954" stop-color="#FF822E"/>
<stop offset="1" stop-color="#F46300"/>
</linearGradient>
</defs>
</svg>
