<svg width="96" height="24" viewBox="0 0 96 24" fill="none" xmlns="http://www.w3.org/2000/svg">
<g clip-path="url(#clip0_7765_4650)">
<path d="M32.8778 12.3288V16.2288H31.2578V6.29883H35.1278C37.4378 6.29883 38.6678 7.46883 38.6678 9.32883C38.6678 11.1888 37.4378 12.3588 35.1278 12.3588H32.8778V12.3288ZM32.8778 7.79883V10.7988H35.0978C36.3878 10.7988 36.9878 10.3188 36.9878 9.29883C36.9878 8.27883 36.3878 7.79883 35.0978 7.79883H32.8778Z" fill="white"/>
<path d="M46.02 16.2295H44.52V15.4195C44.04 16.0195 43.35 16.4095 42.39 16.4095C40.5 16.4095 39 14.9095 39 12.8395C39 10.7695 40.5 9.26953 42.39 9.26953C43.35 9.26953 44.07 9.65953 44.52 10.2595V9.44953H46.02V16.2295ZM40.5 12.8395C40.5 14.0395 41.28 15.0295 42.54 15.0295C43.77 15.0295 44.58 14.0995 44.58 12.8395C44.58 11.6095 43.77 10.6495 42.54 10.6495C41.28 10.6495 40.5 11.6395 40.5 12.8395Z" fill="white"/>
<path d="M53.9694 11.9695V16.2595H52.4694V12.4495C52.4694 11.3095 51.8694 10.6795 50.8794 10.6795C49.9194 10.6795 49.1094 11.3095 49.1094 12.4795V16.2595H47.6094V9.44953H49.0794V10.2895C49.6194 9.47953 50.4594 9.26953 51.1794 9.26953C52.8294 9.26953 53.9694 10.3795 53.9694 11.9695Z" fill="white"/>
<path d="M60.4497 10.26V6H61.9497V16.23H60.4497V15.42C59.9697 16.02 59.2797 16.41 58.3197 16.41C56.4297 16.41 54.9297 14.91 54.9297 12.84C54.9297 10.77 56.4297 9.27 58.3197 9.27C59.2797 9.27 59.9997 9.66 60.4497 10.26ZM56.4297 12.84C56.4297 14.04 57.2097 15.03 58.4697 15.03C59.6997 15.03 60.5097 14.1 60.5097 12.84C60.5097 11.61 59.6997 10.65 58.4697 10.65C57.2097 10.65 56.4297 11.64 56.4297 12.84Z" fill="white"/>
<path d="M70.1098 16.2295H68.6098V15.4195C68.1298 16.0195 67.4398 16.4095 66.4798 16.4095C64.5898 16.4095 63.0898 14.9095 63.0898 12.8395C63.0898 10.7695 64.5898 9.26953 66.4798 9.26953C67.4398 9.26953 68.1598 9.65953 68.6098 10.2595V9.44953H70.1098V16.2295ZM64.5898 12.8395C64.5898 14.0395 65.3698 15.0295 66.6298 15.0295C67.8598 15.0295 68.6698 14.0995 68.6698 12.8395C68.6698 11.6095 67.8598 10.6495 66.6298 10.6495C65.3698 10.6495 64.5898 11.6395 64.5898 12.8395Z" fill="white"/>
<path d="M75.7491 6.29883C78.8691 6.29883 80.9091 8.27883 80.9091 11.2788C80.9091 14.2788 78.8691 16.2588 75.7491 16.2588H71.7891V6.29883H75.7491ZM73.4091 7.82883V14.7288H75.7491C78.0891 14.7288 79.2291 13.2888 79.2291 11.2788C79.2291 9.23883 78.0891 7.82883 75.7491 7.82883H73.4091Z" fill="white"/>
<path d="M89.0114 12.8395C89.0114 14.8795 87.4514 16.4095 85.3514 16.4095C83.2514 16.4095 81.6914 14.8795 81.6914 12.8395C81.6914 10.7995 83.2514 9.26953 85.3514 9.26953C87.4514 9.26953 89.0114 10.7995 89.0114 12.8395ZM83.2214 12.8395C83.2214 14.1295 84.1514 15.0295 85.3514 15.0295C86.5814 15.0295 87.4814 14.1295 87.4814 12.8395C87.4814 11.5495 86.5514 10.6495 85.3514 10.6495C84.1514 10.6495 83.2214 11.5495 83.2214 12.8395Z" fill="white"/>
<path d="M96.0002 10.3506L95.0401 11.3706C94.5601 10.9206 94.0502 10.6806 93.4202 10.6806C92.2802 10.6806 91.4102 11.5806 91.4102 12.8706C91.4102 14.1606 92.2802 15.0606 93.4202 15.0606C94.0802 15.0606 94.6502 14.7606 95.1002 14.3406L96.0302 15.3606C95.4002 16.0806 94.5002 16.4406 93.4802 16.4406C91.3202 16.4406 89.9102 14.9106 89.9102 12.8706C89.9102 10.8306 91.3202 9.30056 93.4802 9.30056C94.4702 9.27056 95.4002 9.63056 96.0002 10.3506Z" fill="white"/>
<path fill-rule="evenodd" clip-rule="evenodd" d="M0 0H24V24H0V0ZM17.55 8.85V5.31H19.14V11.97C19.14 14.16 17.58 15.81 15.36 15.81C12.9756 15.81 12.1399 14.0277 11.3661 12.3774C10.699 10.9547 10.0778 9.63 8.55 9.63C7.23 9.63 6.36 10.65 6.36 11.97C6.36 13.29 7.2 14.28 8.49 14.31C9.18 14.31 9.72 14.04 10.23 13.56L11.25 14.64C10.59 15.42 9.6 15.81 8.52 15.81C7.68 15.81 7.02 15.54 6.51 15.12L6.45 15.15V18.72H4.86V12.03C4.86 9.84 6.42 8.19 8.64 8.19C11.0244 8.19 11.8601 9.97228 12.6339 11.6226C13.301 13.0453 13.9222 14.37 15.45 14.37C16.77 14.37 17.64 13.35 17.64 12.03C17.64 10.71 16.8 9.72 15.51 9.69C14.82 9.69 14.28 9.96 13.77 10.44L12.75 9.36C13.41 8.58 14.4 8.19 15.48 8.19C16.32 8.19 16.98 8.46 17.49 8.88L17.55 8.85Z" fill="white"/>
</g>
<defs>
<clipPath id="clip0_7765_4650">
<rect width="96" height="24" fill="white"/>
</clipPath>
</defs>
</svg>
