<svg width="28" height="28" viewBox="0 0 28 28" fill="none" xmlns="http://www.w3.org/2000/svg">
<path d="M14 2.625C11.7502 2.625 9.551 3.29213 7.68039 4.54203C5.80978 5.79193 4.35182 7.56847 3.49088 9.64698C2.62993 11.7255 2.40467 14.0126 2.84357 16.2192C3.28248 18.4257 4.36584 20.4525 5.95667 22.0433C7.54749 23.6342 9.57432 24.7175 11.7809 25.1564C13.9874 25.5953 16.2745 25.3701 18.353 24.5091C20.4315 23.6482 22.2081 22.1902 23.458 20.3196C24.7079 18.449 25.375 16.2498 25.375 14C25.3712 10.9843 24.1716 8.09323 22.0392 5.96082C19.9068 3.8284 17.0157 2.62876 14 2.625ZM12.25 17.5C12.25 17.7321 12.1578 17.9546 11.9937 18.1187C11.8296 18.2828 11.6071 18.375 11.375 18.375C11.1429 18.375 10.9204 18.2828 10.7563 18.1187C10.5922 17.9546 10.5 17.7321 10.5 17.5V10.5C10.5 10.2679 10.5922 10.0454 10.7563 9.88128C10.9204 9.71719 11.1429 9.625 11.375 9.625C11.6071 9.625 11.8296 9.71719 11.9937 9.88128C12.1578 10.0454 12.25 10.2679 12.25 10.5V17.5ZM17.5 17.5C17.5 17.7321 17.4078 17.9546 17.2437 18.1187C17.0796 18.2828 16.8571 18.375 16.625 18.375C16.3929 18.375 16.1704 18.2828 16.0063 18.1187C15.8422 17.9546 15.75 17.7321 15.75 17.5V10.5C15.75 10.2679 15.8422 10.0454 16.0063 9.88128C16.1704 9.71719 16.3929 9.625 16.625 9.625C16.8571 9.625 17.0796 9.71719 17.2437 9.88128C17.4078 10.0454 17.5 10.2679 17.5 10.5V17.5Z" fill="white"/>
</svg>
