<svg width="28" height="28" viewBox="0 0 28 28" fill="none" xmlns="http://www.w3.org/2000/svg">
<path d="M24.862 8.02567L19.9752 3.1377C19.8127 2.97516 19.6197 2.84622 19.4074 2.75825C19.195 2.67028 18.9674 2.625 18.7376 2.625C18.5077 2.625 18.2801 2.67028 18.0678 2.75825C17.8555 2.84622 17.6625 2.97516 17.5 3.1377L4.01298 16.6258C3.84977 16.7877 3.72037 16.9805 3.63231 17.1928C3.54425 17.4052 3.49927 17.633 3.50001 17.8629V22.7508C3.50001 23.215 3.68438 23.6601 4.01257 23.9883C4.34076 24.3165 4.78588 24.5008 5.25001 24.5008H10.138C10.3679 24.5016 10.5956 24.4566 10.808 24.3685C11.0204 24.2805 11.2131 24.1511 11.375 23.9879L24.862 10.5008C25.0246 10.3383 25.1535 10.1454 25.2415 9.93304C25.3295 9.72069 25.3747 9.4931 25.3747 9.26325C25.3747 9.0334 25.3295 8.80581 25.2415 8.59346C25.1535 8.38112 25.0246 8.18818 24.862 8.02567ZM5.61204 17.5008L15.4941 7.6188L17.3184 9.44427L7.43751 19.3252L5.61204 17.5008ZM5.25001 19.6129L8.38798 22.7508H5.25001V19.6129ZM10.5 22.3888L8.67454 20.5633L18.5566 10.6813L20.3809 12.5068L10.5 22.3888Z" fill="#18181B"/>
</svg>
