<svg width="28" height="28" viewBox="0 0 28 28" fill="none" xmlns="http://www.w3.org/2000/svg">
<path d="M25.2 23.9739C25.2978 24.1039 25.3575 24.2586 25.3722 24.4206C25.387 24.5826 25.3563 24.7455 25.2836 24.8911C25.2109 25.0366 25.099 25.159 24.9606 25.2445C24.8222 25.33 24.6627 25.3752 24.5 25.375H3.5C3.3375 25.375 3.17821 25.3298 3.03999 25.2443C2.90176 25.1589 2.79005 25.0367 2.71738 24.8913C2.64471 24.746 2.61394 24.5833 2.62854 24.4214C2.64313 24.2596 2.7025 24.105 2.8 23.975C3.5748 22.9362 4.60799 22.1183 5.79688 21.6027C5.14519 21.0079 4.68857 20.23 4.48694 19.371C4.28532 18.5121 4.3481 17.6122 4.66707 16.7896C4.98603 15.967 5.54626 15.26 6.27423 14.7615C7.00219 14.263 7.86387 13.9962 8.74617 13.9962C9.62847 13.9962 10.4902 14.263 11.2181 14.7615C11.9461 15.26 12.5063 15.967 12.8253 16.7896C13.1442 17.6122 13.207 18.5121 13.0054 19.371C12.8038 20.23 12.3471 21.0079 11.6955 21.6027C12.5532 21.9734 13.3327 22.5038 13.9923 23.1656C14.652 22.5038 15.4315 21.9734 16.2892 21.6027C15.6375 21.0079 15.1809 20.23 14.9793 19.371C14.7777 18.5121 14.8404 17.6122 15.1594 16.7896C15.4784 15.967 16.0386 15.26 16.7666 14.7615C17.4945 14.263 18.3562 13.9962 19.2385 13.9962C20.1208 13.9962 20.9825 14.263 21.7105 14.7615C22.4384 15.26 22.9987 15.967 23.3176 16.7896C23.6366 17.6122 23.6994 18.5121 23.4977 19.371C23.2961 20.23 22.8395 21.0079 22.1878 21.6027C23.3822 22.1156 24.4209 22.9333 25.2 23.9739ZM2.975 13.825C3.06693 13.894 3.17153 13.9441 3.28284 13.9726C3.39415 14.0012 3.50999 14.0075 3.62374 13.9912C3.7375 13.975 3.84693 13.9365 3.94581 13.8779C4.04468 13.8194 4.13106 13.7419 4.2 13.65C4.72977 12.9436 5.41673 12.3703 6.20647 11.9755C6.99621 11.5806 7.86704 11.375 8.75 11.375C9.63296 11.375 10.5038 11.5806 11.2935 11.9755C12.0833 12.3703 12.7702 12.9436 13.3 13.65C13.3815 13.7587 13.4872 13.8469 13.6087 13.9076C13.7302 13.9684 13.8642 14 14 14C14.1358 14 14.2698 13.9684 14.3913 13.9076C14.5128 13.8469 14.6185 13.7587 14.7 13.65C15.2298 12.9436 15.9167 12.3703 16.7065 11.9755C17.4962 11.5806 18.367 11.375 19.25 11.375C20.133 11.375 21.0038 11.5806 21.7935 11.9755C22.5833 12.3703 23.2702 12.9436 23.8 13.65C23.869 13.7419 23.9555 13.8194 24.0544 13.8779C24.1533 13.9364 24.2628 13.9749 24.3766 13.9911C24.4904 14.0073 24.6063 14.0009 24.7177 13.9723C24.829 13.9437 24.9336 13.8935 25.0255 13.8245C25.1175 13.7554 25.1949 13.669 25.2534 13.5701C25.3119 13.4711 25.3504 13.3616 25.3666 13.2478C25.3828 13.134 25.3764 13.0181 25.3478 12.9068C25.3193 12.7955 25.269 12.6908 25.2 12.5989C24.4252 11.5604 23.392 10.7429 22.2031 10.2277C22.8548 9.63289 23.3114 8.85497 23.5131 7.99602C23.7147 7.13707 23.6519 6.23722 23.3329 5.4146C23.014 4.59197 22.4537 3.88501 21.7258 3.38649C20.9978 2.88798 20.1361 2.62122 19.2538 2.62122C18.3715 2.62122 17.5098 2.88798 16.7819 3.38649C16.0539 3.88501 15.4937 4.59197 15.1747 5.4146C14.8558 6.23722 14.793 7.13707 14.9946 7.99602C15.1962 8.85497 15.6529 9.63289 16.3045 10.2277C15.4468 10.5984 14.6673 11.1288 14.0077 11.7906C13.348 11.1288 12.5685 10.5984 11.7108 10.2277C12.3625 9.63289 12.8191 8.85497 13.0207 7.99602C13.2223 7.13707 13.1596 6.23722 12.8406 5.4146C12.5216 4.59197 11.9614 3.88501 11.2334 3.38649C10.5055 2.88798 9.64378 2.62122 8.76149 2.62122C7.87919 2.62122 7.0175 2.88798 6.28954 3.38649C5.56157 3.88501 5.00134 4.59197 4.68238 5.4146C4.36342 6.23722 4.30063 7.13707 4.50226 7.99602C4.70389 8.85497 5.16051 9.63289 5.81219 10.2277C4.61773 10.7411 3.57903 11.5591 2.8 12.6C2.73106 12.6919 2.68089 12.7965 2.65238 12.9079C2.62386 13.0192 2.61754 13.135 2.63379 13.2488C2.65004 13.3625 2.68854 13.4719 2.74709 13.5708C2.80563 13.6697 2.88308 13.7561 2.975 13.825Z" fill="#18181B"/>
</svg>
