<svg width="409" height="101" viewBox="0 0 409 101" fill="none" xmlns="http://www.w3.org/2000/svg">
<path d="M404.867 89.946C405.107 89.7483 405.295 89.503 405.427 89.2126C405.559 88.9223 405.624 88.5994 405.624 88.249C405.624 87.7959 405.522 87.3979 405.315 87.0475C405.11 86.6996 404.822 86.4293 404.455 86.239C404.088 86.0463 403.668 85.9512 403.201 85.9512H400.095V93.2701H401.047V90.5192H402.831C402.933 90.5192 403.013 90.5167 403.066 90.5142L404.687 93.2701H405.784L404.023 90.3741C404.345 90.289 404.627 90.1463 404.867 89.946ZM403.181 89.7057H401.049V86.8047H403.166C403.451 86.8047 403.703 86.8673 403.933 86.9924C404.163 87.1176 404.343 87.2903 404.475 87.5106C404.61 87.7308 404.675 87.9786 404.675 88.2515C404.675 88.5343 404.61 88.7846 404.48 89.0024C404.35 89.2227 404.173 89.3954 403.945 89.518C403.718 89.6432 403.463 89.7057 403.181 89.7057Z" fill="#F7AA92"/>
<path d="M402.636 83.2324C399.128 83.2324 396.271 86.0909 396.271 89.6077C396.271 93.1245 399.128 95.9855 402.636 95.9855C406.144 95.9855 409 93.127 409 89.6077C409 86.0934 406.144 83.2324 402.636 83.2324ZM402.636 95.0643C399.632 95.0643 397.189 92.6164 397.189 89.6077C397.189 86.599 399.632 84.151 402.636 84.151C405.639 84.151 408.083 86.599 408.083 89.6077C408.083 92.6189 405.639 95.0643 402.636 95.0643Z" fill="#F7AA92"/>
<path d="M35.5997 15.332H0C4.07046 20.0227 4.26536 27.0763 4.27535 28.055V81.1723C4.27036 82.1585 4.07546 89.2071 0 93.8978H23.4432C19.2803 88.4086 19.2803 81.0596 19.2803 81.0596V65.6984H33.848C33.848 65.6984 56.5192 65.5883 56.5192 38.5929C56.5142 15.332 35.5997 15.332 35.5997 15.332ZM19.2753 60.9977V22.9688H27.1639C27.1639 22.9688 42.2813 23.0189 42.2813 38.5954C42.2788 58.2794 29.6177 60.7048 19.2753 60.9977Z" fill="#F7AA92"/>
<path d="M76.4145 77.8362C75.8697 76.6297 75.8872 75.9914 75.8872 75.9914L101.19 44.7208C101.19 44.7208 96.257 36.4883 83.4434 36.4883C66.9592 36.4883 59.6729 48.578 59.6729 65.2383C59.6729 86.1939 69.0956 95.738 83.331 95.738C95.9297 95.738 101.19 87.5055 102.172 86.304C98.7833 86.9373 95.1426 87.528 91.6718 87.528C85.5299 87.523 80.6373 86.9122 76.4145 77.8362ZM69.7853 50.9359C69.9952 46.528 71.0097 44.2678 74.9177 44.5005C84.4005 45.0712 90.3275 47.8396 84.6179 56.5853C82.7313 59.4763 74.5779 71.7112 74.5779 71.7112C74.5779 71.5635 69.7853 58.9331 69.7853 50.9359Z" fill="#F7AA92"/>
<path d="M142.353 35.7984C133.59 35.7984 126.691 43.0422 124.39 45.7806V35.5781L107.086 43.4727C111.096 46.8193 111.356 53.5676 111.356 53.5676L111.361 81.1211C111.361 82.6905 111.109 89.2661 107.086 94.162H128.77C124.597 87.4714 124.495 81.3865 124.495 80.8208L124.39 49.5051C127.078 48.3036 129.39 47.8381 131.364 47.8381C138.37 47.8381 141.039 53.7878 141.039 53.7878L152.103 39.961C152.098 39.966 149.69 35.7984 142.353 35.7984Z" fill="#F7AA92"/>
<path d="M188.143 43.6995L190.115 38.1026H174.342C174.272 33.5271 174.235 28.9565 174.235 24.3859C174.235 20.2158 178.066 19.7828 180.919 19.7828C187.381 19.7828 189.245 25.7075 189.245 25.7075L200.524 11.5553C199.362 9.50028 194.76 7.60547 190.227 7.60547C185.847 7.60547 181.254 8.82946 171.629 18.4687C163.323 26.7888 161.304 30.9539 161.304 35.0965C161.286 36.1002 161.291 37.0989 161.309 38.1026H157.478L155.399 43.6995H161.314L161.751 80.8948C161.751 80.8948 161.751 88.2487 157.478 94.2811H179.275C174.895 87.9183 174.235 80.8948 174.235 80.8948C174.235 80.8948 174.342 60.8178 174.342 43.6995H188.143Z" fill="#F7AA92"/>
<path d="M206.254 77.8362C205.71 76.6297 205.727 75.9914 205.727 75.9914L231.029 44.7208C231.029 44.7208 226.097 36.4883 213.283 36.4883C196.801 36.4883 189.515 48.578 189.515 65.2383C189.515 86.1939 198.938 95.738 213.171 95.738C225.769 95.738 231.029 87.5055 232.011 86.304C228.623 86.9373 224.982 87.528 221.514 87.528C215.372 87.523 210.477 86.9122 206.254 77.8362ZM199.625 50.9359C199.835 46.528 200.852 44.2678 204.757 44.5005C214.238 45.0712 220.167 47.8396 214.458 56.5853C212.569 59.4763 204.418 71.7112 204.418 71.7112C204.418 71.5635 199.625 58.9331 199.625 50.9359Z" fill="#F7AA92"/>
<path d="M311.061 81.5533V43.7022H322.125L324.204 38.1054H310.841V24.8242L292.438 43.6997H296.598C296.598 43.6997 296.7 76.0516 296.598 81.1053C296.49 86.1865 300.131 95.8182 311.718 95.8182C327.273 95.8182 331.655 86.8198 331.655 86.8198C328.627 88.0237 311.061 90.4817 311.061 81.5533Z" fill="#F7AA92"/>
<path d="M360.617 36.5723C345.842 36.5723 333.8 44.3593 333.8 66.286C333.8 88.1026 345.842 95.9997 360.617 95.9997C375.264 95.9997 387.436 88.2452 387.436 66.8617C387.431 49.9736 378.448 36.5723 360.617 36.5723ZM374.61 82.2329C374.61 86.7359 372.771 88.9386 370.01 88.8735C361.501 88.8735 354.575 85.6396 350.907 77.5472C346.964 68.8441 345.724 59.8306 345.724 50.3766C345.724 46.8173 347.019 44.7973 350.437 44.7973C358.86 44.8524 366.469 47.03 370.414 54.8045C374.825 63.4951 374.61 72.7288 374.61 82.2329Z" fill="#F7AA92"/>
<path d="M347.139 30.8379C347.909 30.918 348.486 30.983 348.866 31.0406C349.233 31.0957 349.783 31.1933 350.512 31.336C351.242 31.4811 351.789 31.5788 352.159 31.6313C352.221 31.6413 352.259 31.6038 352.271 31.5212C352.281 31.4611 352.286 31.3685 352.296 31.2509C352.301 31.1307 352.311 31.0431 352.319 30.983C352.329 30.9255 352.346 30.8404 352.374 30.7252C352.401 30.6126 352.419 30.525 352.426 30.4699C352.439 30.3848 352.389 30.3347 352.279 30.3197C351.852 30.2571 351.209 30.1695 350.352 30.0594C349.495 29.9468 348.853 29.8617 348.423 29.7991C348.371 29.7891 348.336 29.7691 348.318 29.7415C348.346 29.7115 348.373 29.6965 348.398 29.689C349.783 29.3085 350.825 29.0281 351.522 28.8479C352.034 28.7103 352.436 28.6051 352.721 28.53C352.781 28.505 352.836 28.3348 352.881 28.0244C352.914 27.8067 352.909 27.6865 352.871 27.6565C352.446 27.3962 352.091 27.1934 351.804 27.0482C350.33 26.1847 349.425 25.644 349.085 25.4213C349.05 25.3987 349.038 25.3737 349.04 25.3437C349.045 25.3161 349.078 25.3086 349.14 25.3161C349.56 25.3787 350.192 25.4838 351.029 25.6365C351.867 25.7892 352.496 25.8968 352.919 25.9544C353.028 25.9694 353.088 25.9394 353.103 25.8543C353.113 25.7942 353.118 25.7016 353.126 25.5789C353.136 25.4563 353.141 25.3612 353.153 25.3011C353.163 25.241 353.181 25.1534 353.208 25.0333C353.236 24.9131 353.253 24.823 353.263 24.7629C353.276 24.6778 353.241 24.6328 353.158 24.6178C352.799 24.5652 352.249 24.4976 351.517 24.42C350.785 24.3399 350.235 24.2749 349.87 24.2223C349.49 24.1672 348.918 24.0671 348.156 23.9294C347.396 23.7918 346.824 23.6941 346.442 23.6391C346.364 23.6266 346.317 23.6641 346.304 23.7442C346.289 23.8594 346.257 24.0296 346.209 24.2548C346.164 24.4801 346.132 24.6478 346.117 24.7604C346.107 24.8205 346.164 24.8856 346.284 24.9532C348.283 26.067 349.785 26.9256 350.795 27.5363C351.044 27.6865 351.164 27.7766 351.162 27.8067C351.157 27.8367 350.985 27.8943 350.637 27.9794C349.168 28.3523 347.489 28.8154 345.61 29.3586C345.465 29.3961 345.39 29.4336 345.385 29.4687C345.35 29.699 345.332 30.0444 345.325 30.5024C345.322 30.58 345.355 30.6251 345.417 30.6326C345.795 30.6927 346.369 30.7578 347.139 30.8379Z" fill="#F7AA92"/>
<path d="M350.122 18.9457C350.804 19.2485 351.311 19.4838 351.644 19.6515C351.988 19.8267 352.496 20.0996 353.168 20.48C353.84 20.858 354.345 21.1308 354.687 21.301C354.757 21.3361 354.809 21.3135 354.847 21.241C354.874 21.1859 354.909 21.1008 354.957 20.9856C355.002 20.8705 355.042 20.7829 355.069 20.7253C355.097 20.6728 355.142 20.5902 355.207 20.485C355.272 20.3799 355.317 20.2973 355.344 20.2422C355.389 20.1546 355.379 20.0971 355.314 20.0645C354.969 19.8918 354.447 19.6465 353.747 19.3261C353.045 19.0032 352.523 18.7554 352.176 18.5827C351.841 18.415 351.344 18.1497 350.687 17.7893C350.027 17.4263 349.53 17.1635 349.195 16.9933C349.135 16.9632 349.085 16.9858 349.047 17.0634C349.02 17.1184 348.985 17.201 348.937 17.3162C348.892 17.4288 348.857 17.5089 348.83 17.564C348.8 17.6241 348.75 17.7117 348.683 17.8243C348.618 17.9369 348.568 18.0195 348.538 18.0771C348.503 18.1472 348.525 18.1998 348.6 18.2373C348.93 18.4075 349.437 18.6428 350.122 18.9457Z" fill="#F7AA92"/>
<path d="M353.21 12.9505C353.987 13.6664 354.524 14.162 354.817 14.4473C355.084 14.7076 355.471 15.1081 355.981 15.6513C356.491 16.1944 356.876 16.5949 357.141 16.8502C357.188 16.9003 357.243 16.8903 357.301 16.8327C357.343 16.7877 357.4 16.7201 357.478 16.63C357.553 16.5374 357.613 16.4673 357.655 16.4222C357.695 16.3847 357.758 16.3246 357.848 16.247C357.938 16.1694 358.003 16.1118 358.043 16.0693C358.088 16.0217 358.073 15.9591 357.993 15.8816C357.623 15.5236 357.058 14.988 356.306 14.2796C355.551 13.5687 354.989 13.0381 354.617 12.6777C354.519 12.5825 354.479 12.52 354.504 12.4949C354.554 12.4924 354.764 12.5125 355.134 12.555C357.545 12.8454 359.354 13.0681 360.559 13.2308C360.696 13.2458 360.786 13.2333 360.829 13.1908C360.866 13.1532 360.919 13.0907 360.989 13.003C361.059 12.9179 361.111 12.8554 361.149 12.8153C361.184 12.7778 361.239 12.7277 361.319 12.6626C361.396 12.5976 361.453 12.5475 361.486 12.5099C361.546 12.4474 361.533 12.3798 361.456 12.3047C361.194 12.0494 360.796 11.6689 360.272 11.1658C359.742 10.6627 359.347 10.2847 359.085 10.0294C358.807 9.7591 358.397 9.34359 357.855 8.7804C357.316 8.21722 356.908 7.80171 356.631 7.53388C356.578 7.48132 356.526 7.48132 356.478 7.53138C356.433 7.57894 356.371 7.64902 356.291 7.74915C356.209 7.84676 356.146 7.91935 356.104 7.96691C356.061 8.01197 355.994 8.07204 355.901 8.15464C355.809 8.23474 355.741 8.29731 355.699 8.34237C355.651 8.38993 355.669 8.4525 355.749 8.5301C356.059 8.82796 356.538 9.2735 357.186 9.85922C357.835 10.4449 358.313 10.888 358.627 11.1883C358.99 11.5413 359.21 11.7741 359.294 11.8867C359.207 11.8867 359.107 11.8792 358.997 11.8717C356.388 11.5538 354.437 11.306 353.14 11.1208C353.02 11.1057 352.948 11.1082 352.928 11.1308C352.883 11.1758 352.83 11.2459 352.765 11.341C352.693 11.4512 352.638 11.5262 352.61 11.5613C352.53 11.6564 352.418 11.7841 352.266 11.9418C352.211 12.0043 352.203 12.0544 352.241 12.0844L352.293 12.127C352.7 12.4899 353.008 12.7653 353.21 12.9505Z" fill="#F7AA92"/>
<path d="M363.261 7.19333C363.408 7.53124 363.613 8.04437 363.878 8.73521C364.145 9.42355 364.348 9.93668 364.495 10.2746C364.528 10.3522 364.582 10.3722 364.66 10.3397C364.805 10.2771 365.02 10.177 365.305 10.0368C365.589 9.89913 365.804 9.79901 365.949 9.73643C366.109 9.66885 366.352 9.56873 366.679 9.44357C367.006 9.31592 367.249 9.2158 367.409 9.14822C368.248 8.78778 368.785 8.14699 369.025 7.22837C369.245 6.38234 369.17 5.5288 368.798 4.66275C368.58 4.16464 368.278 3.72911 367.888 3.35616C367.471 2.95317 367.014 2.69034 366.514 2.56269C365.817 2.38497 364.935 2.52514 363.868 2.98821C363.758 3.03577 363.595 3.10585 363.381 3.20347C363.166 3.29859 363.008 3.36867 362.903 3.41373C362.788 3.46379 362.618 3.53638 362.391 3.62899C362.164 3.7241 361.994 3.79669 361.881 3.84675C361.801 3.8818 361.774 3.93186 361.801 3.99443C361.954 4.35487 362.199 4.88802 362.534 5.59388C362.863 6.30224 363.108 6.83539 363.261 7.19333ZM363.873 4.07703C363.77 4.1296 363.993 4.03699 364.535 3.8017C365.195 3.51635 365.812 3.50634 366.394 3.77166C366.954 4.02947 367.379 4.49004 367.663 5.15335C367.956 5.83668 368.013 6.49248 367.828 7.12825C367.731 7.46867 367.573 7.739 367.354 7.94425C367.176 8.10945 366.909 8.26714 366.556 8.41983C366.057 8.63759 365.834 8.73271 365.884 8.71519C365.507 8.85786 365.295 8.86787 365.242 8.75273C365.14 8.51745 364.985 8.16702 364.772 7.70395C364.56 7.24089 364.403 6.88796 364.303 6.65518C364.2 6.41739 364.053 6.05945 363.86 5.58137C363.665 5.10329 363.521 4.74535 363.416 4.51006C363.371 4.39492 363.523 4.24974 363.873 4.07703Z" fill="#F7AA92"/>
<path d="M373.363 3.88552C373.383 4.25847 373.398 4.81916 373.405 5.56757C373.415 6.31849 373.43 6.87667 373.45 7.24962C373.453 7.32221 373.497 7.35725 373.58 7.35224C373.637 7.34974 373.725 7.33973 373.84 7.32221C373.955 7.30719 374.042 7.29468 374.1 7.29217C374.172 7.28967 374.272 7.28967 374.405 7.29718C374.539 7.30719 374.639 7.30719 374.707 7.30469C374.787 7.29968 374.824 7.24712 374.819 7.1495C374.804 6.84663 374.769 6.39608 374.722 5.79284C374.672 5.18961 374.637 4.73656 374.622 4.43369C374.617 4.32856 374.687 4.26348 374.839 4.23595C374.897 4.22593 375.142 4.21092 375.571 4.18589C375.806 4.17337 376.159 4.15835 376.631 4.15084C377.101 4.13833 377.451 4.12581 377.683 4.11079C377.75 4.10829 377.785 4.08576 377.783 4.04572C377.78 3.98314 377.773 3.89303 377.76 3.77288C377.748 3.65274 377.74 3.56012 377.735 3.49755C377.733 3.44248 377.733 3.35738 377.735 3.24474C377.738 3.1321 377.735 3.047 377.733 2.99193C377.73 2.93686 377.693 2.91183 377.623 2.91684C377.298 2.93186 376.808 2.97691 376.156 3.04199C375.504 3.10958 375.014 3.14962 374.689 3.16464C374.592 3.16965 374.537 3.05951 374.524 2.82923L374.46 1.61776C374.45 1.43253 374.477 1.3249 374.544 1.29737C374.557 1.28735 374.682 1.27734 374.914 1.26232L375.282 1.23479C375.584 1.21226 376.011 1.19724 376.568 1.19724C377.166 1.19474 377.595 1.18723 377.855 1.16971C377.925 1.1647 377.958 1.13467 377.955 1.06959C377.95 0.991994 377.92 0.826792 377.868 0.568978C377.84 0.386256 377.828 0.248588 377.825 0.158478C377.803 0.0383317 377.728 -0.0142311 377.6 0.00329021C376.666 0.113424 375.896 0.191017 375.292 0.228563C374.842 0.261103 374.355 0.288635 373.83 0.30115C373.43 0.313665 373.218 0.321177 373.193 0.32368C373.105 0.338699 373.068 0.381249 373.073 0.451335L373.078 0.516412C373.248 2.41873 373.343 3.5426 373.363 3.88552Z" fill="#F7AA92"/>
<path d="M386.703 1.50885C385.771 1.20598 384.874 1.31111 384.012 1.81673C383.178 2.30482 382.608 3.0232 382.303 3.96685C381.996 4.92301 382.033 5.83913 382.421 6.7152C382.82 7.62631 383.49 8.23455 384.432 8.53742C385.372 8.84029 386.269 8.74017 387.131 8.23705C387.958 7.74896 388.523 7.03058 388.83 6.08193C389.135 5.13577 389.095 4.21966 388.707 3.33858C388.305 2.41996 387.635 1.81172 386.703 1.50885ZM387.68 5.69645C387.476 6.32973 387.103 6.81532 386.569 7.15573C385.999 7.52368 385.404 7.60628 384.787 7.40354C384.177 7.2083 383.752 6.79279 383.508 6.16452C383.275 5.5738 383.26 4.97057 383.463 4.34481C383.665 3.71905 384.032 3.23345 384.565 2.89304C385.129 2.52509 385.716 2.43999 386.326 2.63773C386.938 2.83797 387.373 3.25097 387.623 3.87423C387.863 4.45995 387.883 5.06819 387.68 5.69645Z" fill="#F7AA92"/>
<path d="M395.497 14.103C396.446 13.9754 397.248 13.5399 397.901 12.7889C398.553 12.033 398.873 11.1745 398.86 10.2133C398.848 9.21208 398.473 8.38858 397.728 7.74279C396.989 7.09951 396.124 6.8442 395.134 6.97436C394.175 7.09701 393.37 7.53504 392.723 8.28345C392.066 9.04438 391.746 9.90042 391.759 10.8591C391.774 11.8553 392.151 12.6763 392.898 13.3246C393.64 13.9704 394.507 14.2307 395.497 14.103ZM393.64 9.08443C394.07 8.58632 394.597 8.28345 395.222 8.17832C395.884 8.06318 396.461 8.21337 396.944 8.63388C397.433 9.0594 397.671 9.60756 397.656 10.2784C397.648 10.9142 397.428 11.4824 396.996 11.978C396.561 12.4811 396.032 12.7839 395.404 12.8866C394.737 13.0017 394.16 12.844 393.668 12.4185C393.183 11.998 392.951 11.4498 392.973 10.7765C392.991 10.1432 393.21 9.57753 393.64 9.08443Z" fill="#F7AA92"/>
<path d="M397.596 18.2374C397.665 18.3775 397.778 18.5878 397.93 18.8656C398.083 19.1435 398.195 19.3512 398.265 19.4939C398.343 19.6516 398.455 19.8894 398.6 20.2098C398.745 20.5302 398.855 20.7654 398.932 20.9206C399.34 21.7391 400.007 22.2447 400.934 22.4325C401.788 22.6052 402.638 22.48 403.48 22.0645C403.965 21.8217 404.385 21.4938 404.734 21.0833C405.112 20.6453 405.352 20.1722 405.449 19.6641C405.589 18.9532 405.402 18.0822 404.882 17.0384C404.827 16.9283 404.747 16.7706 404.64 16.5628C404.532 16.3526 404.455 16.1974 404.402 16.0947C404.347 15.9846 404.267 15.8169 404.16 15.5941C404.052 15.3739 403.972 15.2062 403.915 15.0935C403.877 15.0159 403.827 14.9959 403.762 15.0234C403.413 15.1987 402.895 15.469 402.208 15.8444C401.521 16.2174 401.004 16.4902 400.654 16.6629C400.324 16.8281 399.822 17.0609 399.15 17.3638C398.478 17.6692 397.978 17.9019 397.65 18.0646C397.578 18.1047 397.561 18.1623 397.596 18.2374ZM399.215 18.7355C399.442 18.6228 399.784 18.4476 400.232 18.2098C400.684 17.972 401.021 17.7943 401.251 17.6817C401.481 17.5665 401.828 17.4013 402.296 17.1811C402.76 16.9608 403.11 16.7931 403.343 16.678C403.453 16.6229 403.605 16.7656 403.797 17.1085C403.74 17.0109 403.842 17.2286 404.107 17.7593C404.427 18.4026 404.472 19.0233 404.24 19.619C404.017 20.1922 403.58 20.6403 402.93 20.9632C402.268 21.2911 401.616 21.3837 400.974 21.2335C400.629 21.1534 400.349 21.0107 400.134 20.803C399.962 20.6328 399.789 20.375 399.615 20.032C399.372 19.5465 399.262 19.3262 399.285 19.3787C399.122 19.0083 399.1 18.793 399.215 18.7355Z" fill="#F7AA92"/>
<path d="M402.898 26.7393C402.156 26.7568 401.601 26.7793 401.234 26.8068C401.167 26.8118 401.137 26.8544 401.144 26.9395C401.149 26.9996 401.159 27.0872 401.179 27.2073C401.199 27.325 401.209 27.4126 401.214 27.4752C401.217 27.5327 401.217 27.6203 401.217 27.738C401.217 27.8556 401.217 27.9432 401.222 27.9983C401.227 28.0659 401.284 28.0959 401.394 28.0859C401.906 28.0509 402.681 27.9858 403.713 27.8957C404.74 27.8081 405.512 27.743 406.029 27.7029C406.167 27.6929 406.234 27.7054 406.239 27.7405C406.209 27.778 406.054 27.9207 405.777 28.171C403.953 29.7805 402.581 30.9794 401.659 31.7729C401.556 31.863 401.507 31.9406 401.511 32.0007C401.516 32.0557 401.526 32.1358 401.544 32.246C401.561 32.3561 401.574 32.4387 401.576 32.4913C401.581 32.5413 401.581 32.6164 401.579 32.719C401.574 32.8192 401.574 32.8968 401.579 32.9468C401.584 33.0319 401.644 33.0695 401.751 33.0595C402.116 33.0344 402.661 32.9894 403.388 32.9318C404.115 32.8742 404.66 32.8317 405.025 32.8041C405.412 32.7791 405.994 32.7491 406.774 32.719C407.551 32.689 408.133 32.6615 408.515 32.6339C408.59 32.6264 408.625 32.5914 408.62 32.5213C408.615 32.4562 408.603 32.3611 408.583 32.2335C408.565 32.1083 408.553 32.0132 408.548 31.9481C408.543 31.888 408.543 31.7979 408.545 31.6753C408.545 31.5526 408.543 31.46 408.54 31.3999C408.535 31.3324 408.478 31.3048 408.368 31.3098C407.938 31.3399 407.289 31.405 406.422 31.4976C405.554 31.5952 404.905 31.6553 404.47 31.6878C403.968 31.7228 403.645 31.7353 403.503 31.7203C403.563 31.6553 403.633 31.5852 403.715 31.5101C405.689 29.773 407.174 28.4814 408.176 27.6354C408.268 27.5553 408.313 27.5002 408.311 27.4701C408.306 27.4076 408.291 27.3225 408.263 27.2123C408.228 27.0822 408.208 26.9946 408.203 26.9495C408.183 26.8244 408.163 26.6542 408.146 26.4364C408.136 26.3513 408.106 26.3137 408.056 26.3212L407.991 26.3338C407.446 26.3988 407.034 26.4464 406.761 26.4714C405.709 26.5766 404.982 26.6441 404.58 26.6742C404.2 26.6992 403.643 26.7217 402.898 26.7393Z" fill="#F7AA92"/>
<path d="M405.851 41.4671C405.651 42.0103 405.511 42.4183 405.429 42.6936C405.406 42.7637 405.434 42.8112 405.509 42.8338C405.611 42.8638 405.884 42.9114 406.326 42.9739C406.423 42.9865 406.493 42.9189 406.541 42.7687C406.606 42.5534 406.696 42.2305 406.813 41.7975C406.931 41.3645 407.023 41.0391 407.088 40.8238C407.156 40.6011 407.265 40.2631 407.413 39.8176C407.563 39.3721 407.67 39.0391 407.74 38.8139C407.768 38.7263 407.743 38.6737 407.668 38.6537L407.6 38.6387C407.081 38.5135 406.691 38.4134 406.436 38.3433C405.426 38.0755 404.739 37.8877 404.372 37.7776C404.012 37.67 403.48 37.4848 402.773 37.2244C402.066 36.9641 401.533 36.7814 401.174 36.6738C401.081 36.6437 401.019 36.6838 400.986 36.7889C400.916 37.0242 400.816 37.3796 400.684 37.8552C400.554 38.3308 400.454 38.6887 400.381 38.9215C400.129 39.75 399.917 40.3558 399.737 40.7312C399.697 40.8188 399.672 40.8764 399.664 40.9089C399.644 40.974 399.659 41.0241 399.712 41.0616C399.922 41.1642 400.084 41.2393 400.197 41.2819C400.219 41.2969 400.289 41.3344 400.401 41.402C400.489 41.4571 400.559 41.4946 400.611 41.5072C400.696 41.5347 400.746 41.5147 400.759 41.4471L400.776 41.3745C401.014 40.3132 401.166 39.6674 401.233 39.4446L401.388 38.914C401.486 38.5936 401.581 38.4034 401.673 38.3433C401.788 38.2657 402.013 38.2782 402.345 38.3783L403.058 38.5961C403.327 38.6762 403.45 38.7138 403.43 38.7037C403.55 38.7613 403.595 38.8564 403.565 38.9841C403.535 39.1293 403.44 39.4697 403.28 39.9978C403.088 40.6286 402.958 41.0291 402.883 41.2018C402.785 41.4446 402.73 41.5822 402.72 41.6223C402.69 41.7199 402.705 41.775 402.76 41.7925C402.868 41.8225 403.023 41.8851 403.227 41.9727C403.432 42.0603 403.582 42.1179 403.687 42.1529C403.752 42.173 403.792 42.1479 403.805 42.0779C403.86 41.8025 403.915 41.5672 403.967 41.3695C404.097 40.8639 404.257 40.2907 404.447 39.6624C404.457 39.6274 404.474 39.5748 404.494 39.4997C404.514 39.4296 404.529 39.3721 404.539 39.337C404.584 39.1993 404.657 39.1318 404.767 39.1293C404.802 39.1293 404.914 39.1618 405.112 39.2219L405.829 39.4396C406.109 39.5247 406.273 39.6098 406.323 39.7025C406.373 39.7926 406.358 39.9703 406.278 40.2331C406.191 40.5084 406.051 40.9214 405.851 41.4671Z" fill="#F7AA92"/>
<path d="M399.3 48.8407C399.39 48.8106 399.8 48.6054 400.527 48.2274C400.957 48.0021 401.296 47.9746 401.544 48.1473C401.989 48.4602 402.034 48.8682 401.681 49.3738C401.559 49.5465 401.356 49.7343 401.072 49.9345C400.787 50.1347 400.647 50.2324 400.647 50.2299C400.627 50.2599 400.624 50.2899 400.637 50.3225C400.739 50.5102 400.824 50.6504 400.889 50.7405C401.004 50.9633 401.092 51.136 401.141 51.2536C401.176 51.2586 401.204 51.2561 401.226 51.2511C401.446 51.1735 401.706 51.0058 402.004 50.7505C402.273 50.5127 402.488 50.2849 402.641 50.0647C403.006 49.544 403.15 49.0159 403.083 48.4802C403.011 47.9296 402.718 47.474 402.208 47.1186C401.734 46.7882 401.239 46.6981 400.717 46.8482C400.694 46.8532 400.284 47.0435 399.49 47.4214C399.053 47.6267 398.698 47.6342 398.43 47.449C397.881 47.0635 397.903 46.4453 398.498 45.5917C398.545 45.5216 398.625 45.4265 398.733 45.2989C398.843 45.1712 398.918 45.0761 398.965 45.006C398.995 44.9659 398.988 44.9334 398.953 44.9034C398.93 44.8884 398.905 44.8783 398.873 44.8683C398.675 44.8007 398.528 44.7482 398.43 44.7106C398.203 44.608 398.033 44.5254 397.921 44.4653C397.841 44.4428 397.693 44.5755 397.486 44.8758C397.041 45.5141 396.824 46.1649 396.839 46.8257C396.854 47.5591 397.168 48.1423 397.783 48.5728C398.263 48.9107 398.768 48.9984 399.3 48.8407Z" fill="#F7AA92"/>
<path d="M395.174 53.214C395.152 53.2115 394.705 53.2741 393.835 53.3992C393.355 53.4643 393.016 53.3692 392.816 53.1089C392.403 52.5782 392.606 51.9925 393.428 51.3567C393.493 51.3042 393.598 51.2341 393.738 51.1465C393.88 51.0564 393.983 50.9863 394.045 50.9387C394.085 50.9087 394.09 50.8711 394.06 50.8361C394.045 50.8136 394.023 50.796 393.995 50.776C393.828 50.6534 393.703 50.5583 393.618 50.4957C393.43 50.3305 393.295 50.2028 393.205 50.1102C393.133 50.0626 392.958 50.1503 392.671 50.373C392.056 50.8511 391.656 51.4068 391.476 52.0426C391.274 52.7509 391.404 53.3992 391.864 53.9924C392.223 54.4555 392.681 54.6933 393.235 54.7008C393.33 54.6983 393.783 54.6232 394.59 54.473C395.069 54.3854 395.399 54.463 395.584 54.7008C395.919 55.1313 395.839 55.5343 395.354 55.9123C395.187 56.0424 394.937 56.1601 394.607 56.2677C394.277 56.3728 394.112 56.4279 394.115 56.4254C394.09 56.4454 394.078 56.4755 394.08 56.5105C394.122 56.7208 394.162 56.8785 394.197 56.9836C394.242 57.2314 394.275 57.4216 394.287 57.5468C394.317 57.5618 394.347 57.5693 394.367 57.5693C394.602 57.5593 394.9 57.4792 395.259 57.3215C395.587 57.1738 395.859 57.0186 396.069 56.8559C396.569 56.468 396.866 56.0049 396.959 55.4742C397.051 54.9261 396.906 54.4054 396.521 53.9123C396.169 53.4568 395.719 53.224 395.174 53.214Z" fill="#F7AA92"/>
<path d="M272.103 56.0479C273.443 53.9278 274.632 52.1006 275.722 50.5086C275.767 50.4636 275.794 50.421 275.824 50.376C280.737 43.3199 283.913 40.8143 289.665 38.1035L273.163 38.1185H266.339C266.544 39.9157 265.044 43.3925 262.781 47.4174C259.927 52.5286 256.316 57.76 253.05 62.3856C253.08 57.4496 253.153 56.2857 253.153 51.3371C253.153 50.7765 253.255 44.7341 257.388 38.106H235.872C239.872 42.9544 240.122 49.4799 240.122 51.0418V81.3462C240.122 82.9081 239.872 89.4211 235.872 94.282H257.388C253.255 87.6514 253.153 81.614 253.153 81.0534C253.153 76.1023 253.08 75.469 253.05 70.5205C256.846 77.8119 266.509 91.1357 270.847 93.7438C273.508 95.3483 277.363 95.8189 280.936 95.8189C285.834 95.8189 290.202 94.9353 290.202 94.9353C282.038 89.4836 270.449 75.6292 265.624 66.1001C267.463 63.2992 269.677 59.85 272.043 56.123C272.061 56.0929 272.076 56.0629 272.103 56.0479Z" fill="#F7AA92"/>
</svg>
