<svg width="79" height="44" viewBox="0 0 79 44" fill="none" xmlns="http://www.w3.org/2000/svg">
<rect x="39" y="2" width="40" height="40" rx="20" fill="#4443AA"/>
<path d="M69.0998 19.1907C69.1511 19.7457 69.3773 20.3859 69.3978 20.9347C69.401 21.0206 69.4112 21.105 69.3371 21.168L62.3028 24.4707C60.2924 25.2686 58.2898 25.2931 56.2612 24.5448C54.1624 23.7706 51.6292 22.4232 49.5762 21.4235C49.4145 21.3446 49.0369 21.2067 49.0061 21.0482C48.9588 20.8046 49.1977 19.5439 49.2963 19.2703C49.3191 19.208 49.2663 19.1662 49.3846 19.1946L56.4323 22.5446C60.0054 24.3209 63.6329 21.6955 66.8339 20.2006C67.5821 19.8514 68.3382 19.5076 69.1006 19.1891L69.0998 19.1907Z" fill="white"/>
<path d="M52.2553 14.4712C52.2601 14.5422 52.294 14.5989 52.3413 14.6494C54.034 16.4257 56.3267 19.2096 58.9056 19.3681C62.2635 19.5747 64.0249 16.462 66.182 14.4752C66.3026 14.4539 67.4616 15.7745 67.4356 15.9085C65.2982 18.0814 63.2396 21.0112 59.9085 21.2572C55.7102 21.567 53.6761 18.6664 51.0112 16.037C50.9434 15.97 50.9521 15.9101 50.9789 15.8265C51.0356 15.6539 51.9297 14.6494 52.1071 14.5288C52.1568 14.4949 52.1686 14.4476 52.2553 14.4712Z" fill="white"/>
<path d="M69.0401 24.7371L68.213 26.7137L63.8263 27.2309C62.7075 27.4509 62.0381 28.4112 62.1856 29.5449L62.3606 31.639C62.0476 31.6539 60.6024 32.1751 60.4376 31.9393L60.2295 29.1326C60.4834 25.0139 64.4736 25.1936 67.5933 24.8546C68.0727 24.8026 68.5599 24.7655 69.0409 24.7363L69.0401 24.7371Z" fill="white"/>
<path d="M57.9885 31.996C57.3168 32.0362 56.6884 31.7508 56.038 31.6412C56.0916 31.2667 56.1334 30.8678 56.1562 30.4901C56.2319 29.2097 56.407 28.0074 55.0335 27.3632C53.4275 27.0234 51.7655 26.9383 50.1351 26.7364L49.3608 24.737C49.4878 24.7401 49.6171 24.7275 49.744 24.737C51.2862 24.8592 53.366 25.0634 54.8687 25.3441C56.3234 25.6161 57.4989 26.5638 57.957 27.9845C58.3614 29.2381 57.9325 30.6927 57.9893 31.9952L57.9885 31.996Z" fill="white"/>
<path d="M63.4275 12.5829C62.7132 13.8554 62.0005 16.1379 60.7501 16.9602C59.7464 17.6209 58.0655 17.5066 57.2203 16.6259C56.2269 15.5899 55.6308 13.8799 54.978 12.6152C54.9946 12.5419 55.9162 12.2147 56.0684 12.1682C56.2206 12.1217 56.696 11.9482 56.8087 12.0192C56.9081 12.0815 57.6768 13.8255 57.8408 14.118C58.2973 14.93 59.051 16.2341 59.9892 15.0215C60.6531 14.1637 61.0504 12.9558 61.5952 12.0184C61.8057 11.8859 63.1287 12.5096 63.4275 12.5837V12.5829Z" fill="white"/>
<rect x="1" y="1" width="42" height="42" rx="21" fill="#18181B"/>
<rect x="1" y="1" width="42" height="42" rx="21" stroke="white" stroke-width="2"/>
<path d="M27.6606 21.0397C27.8394 21.5046 27.9512 21.9919 27.9937 22.4882V22.4994C27.9993 22.5653 28.0049 22.6324 28.0082 22.6994C28.0171 22.8347 28.0227 22.9688 28.0227 23.1063C28.0227 26.4369 25.3156 29.0434 21.9759 29.0434C18.6362 29.0434 15.9291 26.4369 15.9291 23.1063C15.9291 22.3194 16.0822 21.5415 16.3818 20.8139L12.5961 19.5665C12.1915 20.7323 11.9903 21.9584 12.0004 23.1923V23.2124C12.0004 25.8926 12.9996 28.3616 14.8002 30.1622C16.6355 31.9963 19.1917 33.0045 21.996 33C24.8015 32.9955 27.3644 31.9784 29.2019 30.1354C31.0059 28.3258 31.9996 25.849 31.9996 23.161V23.1431C32.0107 21.9204 31.8129 20.7055 31.4139 19.5498L27.5689 20.8161C27.6014 20.8899 27.6304 20.9637 27.6595 21.0385L27.6606 21.0397Z" fill="white"/>
<path d="M16.9431 10.8348C16.9174 10.8381 16.8928 10.8504 16.876 10.8694C16.8592 10.8884 16.8492 10.9141 16.8492 10.9398V12.86L15.4867 11.502C15.4677 11.483 15.4431 11.473 15.4174 11.4707C15.3917 11.4696 15.366 11.4774 15.3447 11.4942C15.2576 11.5635 15.1737 11.6384 15.0955 11.7166C15.0173 11.7949 14.9424 11.8776 14.872 11.9648C14.8552 11.9849 14.8474 12.0117 14.8485 12.0374C14.8496 12.0631 14.8608 12.0888 14.8798 12.1067L16.2411 13.4647L14.3153 13.4647C14.2896 13.4647 14.2639 13.4736 14.2438 13.4915C14.2237 13.5083 14.2114 13.5328 14.208 13.5586C14.1846 13.7799 14.1846 14.0023 14.208 14.2236C14.2114 14.2493 14.2237 14.2739 14.2438 14.2906C14.2639 14.3074 14.2885 14.3175 14.3153 14.3175L16.2411 14.3175L14.8798 15.6755C14.8608 15.6945 14.8496 15.719 14.8485 15.7448C14.8474 15.7705 14.8552 15.7973 14.872 15.8174C14.9424 15.9035 15.0161 15.9862 15.0955 16.0655C15.1749 16.1438 15.2576 16.2186 15.3447 16.2879C15.3649 16.3047 15.3906 16.3125 15.4174 16.3114C15.4431 16.3103 15.4688 16.2991 15.4867 16.2801L16.8492 14.9221V16.8423C16.8492 16.868 16.8581 16.8937 16.876 16.9127C16.8939 16.9317 16.9174 16.9451 16.9431 16.9474C17.1655 16.972 17.389 16.972 17.6103 16.9474C17.6361 16.944 17.6606 16.9317 17.6774 16.9127C17.6942 16.8937 17.7042 16.868 17.7042 16.8423V14.9221L19.0656 16.2801C19.0846 16.298 19.1092 16.3092 19.136 16.3103C19.1617 16.3114 19.1886 16.3036 19.2087 16.2868C19.2959 16.2175 19.3797 16.1426 19.4579 16.0644C19.5373 15.9851 19.611 15.9023 19.6815 15.8152C19.6982 15.795 19.7061 15.7693 19.7049 15.7425C19.7038 15.7168 19.6926 15.6922 19.6736 15.6732L18.3123 14.3152L20.2381 14.3152C20.2638 14.3152 20.2895 14.3052 20.3085 14.2884C20.3275 14.2716 20.3409 14.2471 20.3443 14.2213C20.3566 14.1107 20.3621 14 20.3621 13.8894C20.3621 13.7776 20.3566 13.6659 20.3443 13.5552C20.3409 13.5295 20.3286 13.506 20.3085 13.4881C20.2884 13.4703 20.2638 13.4613 20.2381 13.4613L18.3145 13.4613L19.6759 12.1033C19.6949 12.0843 19.7061 12.0598 19.7072 12.034C19.7083 12.0072 19.7005 11.9815 19.6837 11.9614C19.5451 11.7893 19.3875 11.6317 19.2143 11.4942C19.1941 11.4774 19.1673 11.4696 19.1416 11.4707C19.1159 11.4718 19.0902 11.483 19.0712 11.5009L17.7098 12.8589V10.9387C17.7098 10.913 17.7009 10.8873 17.683 10.8683C17.6662 10.8493 17.6416 10.8359 17.6159 10.8336C17.3924 10.8091 17.1677 10.8079 16.9442 10.8314L16.9431 10.8348Z" fill="white"/>
<path d="M29.6867 13.8066C29.6867 12.2005 28.3812 10.8984 26.7706 10.8984C25.16 10.8984 23.8545 12.2005 23.8545 13.8066C23.8545 15.4127 25.16 16.7148 26.7706 16.7148C28.3812 16.7148 29.6867 15.4127 29.6867 13.8066Z" fill="white"/>
</svg>
