<svg width="28" height="28" viewBox="0 0 28 28" fill="none" xmlns="http://www.w3.org/2000/svg">
<path d="M11.1388 20.9058C10.6455 21.9842 8.99939 24.4998 4.37392 24.4998C4.14186 24.4998 3.9193 24.4077 3.7552 24.2436C3.59111 24.0795 3.49892 23.8569 3.49892 23.6248C3.49892 18.9994 6.01455 17.3533 7.09298 16.86C7.19755 16.8123 7.31048 16.7857 7.42534 16.7816C7.54019 16.7776 7.65472 16.7962 7.76237 16.8364C7.87003 16.8767 7.96871 16.9377 8.05279 17.016C8.13686 17.0944 8.20467 17.1886 8.25236 17.2931C8.30005 17.3977 8.32667 17.5106 8.33071 17.6255C8.33475 17.7403 8.31613 17.8549 8.27591 17.9625C8.23569 18.0702 8.17466 18.1688 8.0963 18.2529C8.01795 18.337 7.9238 18.4048 7.81923 18.4525C7.11595 18.773 5.56392 19.8044 5.29048 22.7083C8.19439 22.4348 9.22798 20.8828 9.54627 20.1795C9.59395 20.075 9.66177 19.9808 9.74584 19.9025C9.82991 19.8241 9.92859 19.7631 10.0363 19.7228C10.1439 19.6826 10.2584 19.664 10.3733 19.6681C10.4881 19.6721 10.6011 19.6987 10.7056 19.7464C10.8102 19.7941 10.9044 19.8619 10.9827 19.946C11.0611 20.03 11.1221 20.1287 11.1623 20.2364C11.2025 20.344 11.2212 20.4586 11.2171 20.5734C11.2131 20.6883 11.1865 20.8012 11.1388 20.9058ZM24.4825 5.15578C24.4566 4.72913 24.2754 4.32673 23.9732 4.02449C23.6709 3.72225 23.2685 3.54108 22.8419 3.51515C21.466 3.43312 17.9495 3.5589 15.0325 6.47593L9.62392 11.8889C9.5427 11.9703 9.44624 12.0348 9.34006 12.0789C9.23388 12.123 9.12006 12.1458 9.00509 12.1459C8.77289 12.1461 8.55013 12.054 8.3858 11.89C8.22147 11.726 8.12903 11.5034 8.12883 11.2712C8.12862 11.039 8.22066 10.8162 8.3847 10.6519L11.2897 7.74578C11.3505 7.6846 11.3919 7.60681 11.4086 7.52218C11.4254 7.43756 11.4167 7.34988 11.3837 7.27016C11.3508 7.19044 11.295 7.12225 11.2234 7.07415C11.1518 7.02606 11.0675 7.0002 10.9813 6.99984H8.13095C7.90043 6.99862 7.67197 7.04325 7.45885 7.13113C7.24574 7.219 7.05222 7.34837 6.88955 7.51171L3.13798 11.2655C2.90791 11.4954 2.74647 11.7849 2.67177 12.1014C2.59708 12.418 2.61208 12.7491 2.71511 13.0576C2.81814 13.3661 3.00511 13.6398 3.25503 13.848C3.50496 14.0562 3.80796 14.1906 4.13002 14.2361L8.33767 14.8234L13.1731 19.6589L13.7605 23.8687C13.8057 24.1908 13.94 24.4938 14.1484 24.7436C14.3567 24.9933 14.6308 25.1797 14.9395 25.2819C15.1194 25.3419 15.3077 25.3726 15.4974 25.3727C15.727 25.3731 15.9544 25.3281 16.1665 25.2402C16.3786 25.1524 16.5712 25.0234 16.7333 24.8608L20.487 21.1092C20.6499 20.9462 20.7789 20.7526 20.8668 20.5396C20.9546 20.3265 20.9995 20.0982 20.9989 19.8678V17.0175C20.9988 16.931 20.973 16.8465 20.9248 16.7747C20.8767 16.7028 20.8083 16.6469 20.7284 16.6139C20.6484 16.5809 20.5605 16.5723 20.4757 16.5892C20.3909 16.6062 20.313 16.6479 20.2519 16.7091L17.3458 19.6141C17.2608 19.6991 17.1592 19.7658 17.0473 19.8098C16.9354 19.8539 16.8156 19.8744 16.6954 19.8701C16.5752 19.8658 16.4572 19.8367 16.3487 19.7848C16.2403 19.7328 16.1437 19.6591 16.065 19.5681C15.9215 19.3945 15.8485 19.1732 15.8607 18.9483C15.8729 18.7233 15.9692 18.5112 16.1306 18.3541L21.5195 12.9652C24.4388 10.047 24.5645 6.53062 24.4825 5.15359V5.15578Z" fill="#18181B"/>
</svg>
