<svg width="28" height="28" viewBox="0 0 28 28" fill="none" xmlns="http://www.w3.org/2000/svg">
<path d="M11.9941 16.0059C12.0754 16.0872 12.14 16.1837 12.184 16.2899C12.228 16.3962 12.2507 16.51 12.2507 16.625C12.2507 16.74 12.228 16.8538 12.184 16.9601C12.14 17.0663 12.0754 17.1628 11.9941 17.2441L9.11203 20.125L11.1191 22.1309C11.2416 22.2533 11.325 22.4093 11.3588 22.5791C11.3927 22.7489 11.3753 22.925 11.309 23.0849C11.2428 23.2449 11.1305 23.3816 10.9865 23.4778C10.8425 23.5739 10.6732 23.6251 10.5 23.625H5.25C5.01794 23.625 4.79538 23.5328 4.63128 23.3687C4.46719 23.2046 4.375 22.9821 4.375 22.75V17.5C4.37486 17.3268 4.42611 17.1575 4.52224 17.0135C4.61838 16.8695 4.75509 16.7572 4.91506 16.691C5.07503 16.6247 5.25107 16.6073 5.42089 16.6412C5.59072 16.675 5.74669 16.7584 5.86906 16.8809L7.875 18.888L10.7559 16.0059C10.8372 15.9246 10.9337 15.86 11.0399 15.816C11.1462 15.772 11.26 15.7493 11.375 15.7493C11.49 15.7493 11.6038 15.772 11.7101 15.816C11.8163 15.86 11.9128 15.9246 11.9941 16.0059ZM9.11203 7.875L11.1191 5.86906C11.2416 5.74669 11.325 5.59072 11.3588 5.42089C11.3927 5.25107 11.3753 5.07503 11.309 4.91506C11.2428 4.75509 11.1305 4.61838 10.9865 4.52224C10.8425 4.42611 10.6732 4.37486 10.5 4.375H5.25C5.01794 4.375 4.79538 4.46719 4.63128 4.63128C4.46719 4.79538 4.375 5.01794 4.375 5.25V10.5C4.37486 10.6732 4.42611 10.8425 4.52224 10.9865C4.61838 11.1305 4.75509 11.2428 4.91506 11.309C5.07503 11.3753 5.25107 11.3927 5.42089 11.3588C5.59072 11.325 5.74669 11.2416 5.86906 11.1191L7.875 9.11203L10.7559 11.9941C10.9201 12.1582 11.1428 12.2505 11.375 12.2505C11.6072 12.2505 11.8299 12.1582 11.9941 11.9941C12.1582 11.8299 12.2505 11.6072 12.2505 11.375C12.2505 11.1428 12.1582 10.9201 11.9941 10.7559L9.11203 7.875ZM22.75 4.375H17.5C17.3268 4.37486 17.1575 4.42611 17.0135 4.52224C16.8695 4.61838 16.7572 4.75509 16.691 4.91506C16.6247 5.07503 16.6073 5.25107 16.6412 5.42089C16.675 5.59072 16.7584 5.74669 16.8809 5.86906L18.888 7.875L16.0059 10.7559C15.8418 10.9201 15.7495 11.1428 15.7495 11.375C15.7495 11.6072 15.8418 11.8299 16.0059 11.9941C16.1701 12.1582 16.3928 12.2505 16.625 12.2505C16.8572 12.2505 17.0799 12.1582 17.2441 11.9941L20.125 9.11203L22.1309 11.1191C22.2533 11.2416 22.4093 11.325 22.5791 11.3588C22.7489 11.3927 22.925 11.3753 23.0849 11.309C23.2449 11.2428 23.3816 11.1305 23.4778 10.9865C23.5739 10.8425 23.6251 10.6732 23.625 10.5V5.25C23.625 5.01794 23.5328 4.79538 23.3687 4.63128C23.2046 4.46719 22.9821 4.375 22.75 4.375ZM23.0847 16.6917C22.9248 16.6254 22.7489 16.608 22.5791 16.6417C22.4093 16.6753 22.2534 16.7586 22.1309 16.8809L20.125 18.888L17.2441 16.0059C17.0799 15.8418 16.8572 15.7495 16.625 15.7495C16.3928 15.7495 16.1701 15.8418 16.0059 16.0059C15.8418 16.1701 15.7495 16.3928 15.7495 16.625C15.7495 16.8572 15.8418 17.0799 16.0059 17.2441L18.888 20.125L16.8809 22.1309C16.7584 22.2533 16.675 22.4093 16.6412 22.5791C16.6073 22.7489 16.6247 22.925 16.691 23.0849C16.7572 23.2449 16.8695 23.3816 17.0135 23.4778C17.1575 23.5739 17.3268 23.6251 17.5 23.625H22.75C22.9821 23.625 23.2046 23.5328 23.3687 23.3687C23.5328 23.2046 23.625 22.9821 23.625 22.75V17.5C23.625 17.3269 23.5736 17.1578 23.4774 17.0139C23.3813 16.87 23.2446 16.7579 23.0847 16.6917Z" fill="#18181B"/>
</svg>
