<svg width="16" height="16" viewBox="0 0 16 16" fill="none" xmlns="http://www.w3.org/2000/svg">
<path d="M7.1106 2.48926C7.15468 2.27676 7.45811 2.27676 7.5022 2.48926L8.5061 7.32617C8.52229 7.40421 8.58334 7.46525 8.66138 7.48145L13.4983 8.48535C13.7108 8.52944 13.7108 8.83286 13.4983 8.87695L8.66138 9.88086C8.58334 9.89705 8.52229 9.9581 8.5061 10.0361L7.5022 14.873C7.45811 15.0855 7.15468 15.0855 7.1106 14.873L6.10669 10.0361C6.09053 9.95826 6.03019 9.89721 5.95239 9.88086L1.1145 8.87695C0.902264 8.83274 0.902288 8.52959 1.1145 8.48535L5.95239 7.48145C6.03021 7.46511 6.09053 7.40405 6.10669 7.32617L7.1106 2.48926ZM2.60669 13.1143C2.78812 12.9952 3.00311 13.2102 2.88403 13.3916L2.55688 13.8896C2.51315 13.9563 2.51315 14.0427 2.55688 14.1094L2.88403 14.6074C3.00311 14.7889 2.78812 15.0038 2.60669 14.8848L2.10864 14.5576C2.04206 14.5139 1.95552 14.514 1.88892 14.5576L1.38989 14.8848C1.20849 15.0037 0.994471 14.7888 1.11353 14.6074L1.44067 14.1094C1.48436 14.0428 1.48439 13.9563 1.44067 13.8896L1.11353 13.3916C0.99448 13.2102 1.2085 12.9954 1.38989 13.1143L1.88892 13.4414C1.95553 13.4851 2.04205 13.4851 2.10864 13.4414L2.60669 13.1143ZM14.4192 1.52051C14.6006 1.40151 14.8155 1.61645 14.6965 1.79785L13.9973 2.8623C13.9539 2.9287 13.954 3.01463 13.9973 3.08105L14.6965 4.14551C14.8156 4.32694 14.6006 4.54193 14.4192 4.42285L13.3547 3.72461C13.2882 3.68094 13.2026 3.68096 13.136 3.72461L12.0715 4.42285C11.8901 4.54193 11.6751 4.32694 11.7942 4.14551L12.4924 3.08105C12.5361 3.01445 12.5361 2.92889 12.4924 2.8623L11.7942 1.79785C11.6751 1.61643 11.8901 1.40143 12.0715 1.52051L13.136 2.21973C13.2024 2.26308 13.2883 2.2631 13.3547 2.21973L14.4192 1.52051Z" fill="#3F3F46"/>
</svg>
