<svg width="28" height="28" viewBox="0 0 28 28" fill="none" xmlns="http://www.w3.org/2000/svg">
<path d="M4.63089 9.36902C4.54954 9.28776 4.485 9.19125 4.44097 9.08503C4.39693 8.97881 4.37427 8.86495 4.37427 8.74996C4.37427 8.63497 4.39693 8.52111 4.44097 8.41488C4.485 8.30866 4.54954 8.21216 4.63089 8.13089L8.13089 4.63089C8.25327 4.50838 8.40924 4.42494 8.57906 4.39112C8.74889 4.3573 8.92493 4.37463 9.0849 4.44091C9.24487 4.5072 9.38157 4.61945 9.47771 4.76347C9.57385 4.90749 9.62509 5.0768 9.62496 5.24996V7.87496H22.75C22.982 7.87496 23.2046 7.96714 23.3687 8.13124C23.5328 8.29533 23.625 8.51789 23.625 8.74996C23.625 8.98202 23.5328 9.20458 23.3687 9.36868C23.2046 9.53277 22.982 9.62496 22.75 9.62496H9.62496V12.25C9.62509 12.4231 9.57385 12.5924 9.47771 12.7364C9.38157 12.8805 9.24487 12.9927 9.0849 13.059C8.92493 13.1253 8.74889 13.1426 8.57906 13.1088C8.40924 13.075 8.25327 12.9915 8.13089 12.869L4.63089 9.36902ZM23.369 18.6309L19.869 15.1309C19.7466 15.0084 19.5907 14.9249 19.4209 14.8911C19.251 14.8573 19.075 14.8746 18.915 14.9409C18.755 15.0072 18.6183 15.1195 18.5222 15.2635C18.4261 15.4075 18.3748 15.5768 18.375 15.75V18.375H5.24996C5.01789 18.375 4.79533 18.4671 4.63124 18.6312C4.46714 18.7953 4.37496 19.0179 4.37496 19.25C4.37496 19.482 4.46714 19.7046 4.63124 19.8687C4.79533 20.0328 5.01789 20.125 5.24996 20.125H18.375V22.75C18.3748 22.9231 18.4261 23.0924 18.5222 23.2364C18.6183 23.3805 18.755 23.4927 18.915 23.559C19.075 23.6253 19.251 23.6426 19.4209 23.6088C19.5907 23.575 19.7466 23.4915 19.869 23.369L23.369 19.869C23.4504 19.7878 23.5149 19.6913 23.5589 19.585C23.603 19.4788 23.6256 19.3649 23.6256 19.25C23.6256 19.135 23.603 19.0211 23.5589 18.9149C23.5149 18.8087 23.4504 18.7122 23.369 18.6309Z" fill="#18181B"/>
</svg>
