<svg width="28" height="28" viewBox="0 0 28 28" fill="none" xmlns="http://www.w3.org/2000/svg">
<rect x="0.5" y="0.5" width="27" height="27" rx="11.5" fill="#FAFAFA"/>
<rect x="0.5" y="0.5" width="27" height="27" rx="11.5" stroke="white"/>
<path d="M16.5153 14.2656L12.7653 18.0156C12.7129 18.0681 12.646 18.1039 12.5732 18.1184C12.5005 18.1329 12.425 18.1254 12.3565 18.097C12.2879 18.0686 12.2293 18.0205 12.1881 17.9588C12.1469 17.8971 12.1249 17.8245 12.125 17.7503V10.2503C12.1249 10.1761 12.1469 10.1035 12.1881 10.0418C12.2293 9.98008 12.2879 9.93197 12.3565 9.90356C12.425 9.87515 12.5005 9.86773 12.5732 9.88222C12.646 9.89672 12.7129 9.93248 12.7653 9.98498L16.5153 13.735C16.5502 13.7698 16.5778 13.8112 16.5967 13.8567C16.6156 13.9022 16.6253 13.951 16.6253 14.0003C16.6253 14.0496 16.6156 14.0984 16.5967 14.1439C16.5778 14.1894 16.5502 14.2308 16.5153 14.2656Z" fill="#18181B"/>
</svg>
