<svg width="28" height="28" viewBox="0 0 28 28" fill="none" xmlns="http://www.w3.org/2000/svg">
<rect x="27.5" y="27.5" width="27" height="27" rx="11.5" transform="rotate(180 27.5 27.5)" fill="#FAFAFA"/>
<rect x="27.5" y="27.5" width="27" height="27" rx="11.5" transform="rotate(180 27.5 27.5)" stroke="white"/>
<path d="M11.4847 13.7344L15.2347 9.98439C15.2871 9.93189 15.354 9.89612 15.4268 9.88163C15.4995 9.86714 15.575 9.87456 15.6435 9.90297C15.7121 9.93138 15.7707 9.97949 15.8119 10.0412C15.8531 10.1029 15.8751 10.1755 15.875 10.2497V17.7497C15.8751 17.8239 15.8531 17.8965 15.8119 17.9582C15.7707 18.0199 15.7121 18.068 15.6435 18.0964C15.575 18.1248 15.4995 18.1323 15.4268 18.1178C15.354 18.1033 15.2871 18.0675 15.2347 18.015L11.4847 14.265C11.4498 14.2302 11.4222 14.1888 11.4033 14.1433C11.3844 14.0978 11.3747 14.049 11.3747 13.9997C11.3747 13.9504 11.3844 13.9016 11.4033 13.8561C11.4222 13.8106 11.4498 13.7692 11.4847 13.7344Z" fill="#18181B"/>
</svg>
