<svg width="151" height="80" viewBox="0 0 151 80" fill="none" xmlns="http://www.w3.org/2000/svg">
<path d="M4.63501 61.3748V51.5407H3.95251C1.37523 51.5407 0 50.3354 0 48.1377V47.5604C0 45.312 1.26318 43.9448 3.95251 43.9448H4.63501V41.4331C4.63501 38.2428 6.26492 36.6223 9.15801 36.6223H10.0545C12.7947 36.6223 14.5265 37.7262 14.5265 41.4331V43.9448H17.5316C20.2107 43.9448 21.4739 45.0993 21.4739 47.3477V47.925C21.4739 50.2848 20.1089 51.5407 17.3992 51.5407H14.3431V60.2202C14.3431 61.9521 15.0257 62.8434 16.5536 62.8434C17.1279 62.8347 17.6903 62.6804 18.1877 62.395C18.6851 62.1096 19.1009 61.7027 19.3958 61.2127C20.0857 61.5541 20.6615 62.0868 21.0538 62.7463C21.446 63.4058 21.638 64.1641 21.6064 64.9297C21.6143 65.5786 21.4924 66.2227 21.2475 66.8243C21.0027 67.4259 20.6398 67.9731 20.1802 68.4341C18.8661 69.8009 16.6046 70.6317 13.7625 70.6317C7.64019 70.672 4.63501 67.5528 4.63501 61.3748Z" fill="#FCF5FF"/>
<path d="M36.2143 43.4285C44.16 43.4285 49.6915 48.8671 49.6915 56.3516V56.8175C49.6304 58.3367 49.2127 59.2279 47.6542 59.2279H30.9986C31.0426 59.4781 31.1144 59.7226 31.2125 59.9571C31.9562 62.4182 34.2686 63.8361 37.2126 63.8361C40.1566 63.8361 42.4792 62.5296 43.4266 60.6964C43.4266 60.585 48.2144 60.6965 48.2144 64.5653C48.2144 66.2972 47.1957 67.8062 45.2704 68.9102C42.6526 70.1792 39.755 70.7714 36.8458 70.6319C27.9527 70.6319 22.3703 65.5679 22.3703 57.2429C22.3037 55.4152 22.6158 53.5934 23.2873 51.8908C23.9588 50.1882 24.9753 48.641 26.2736 47.3455C27.5719 46.0499 29.1244 45.0336 30.8345 44.3597C32.5445 43.686 34.3758 43.3689 36.2143 43.4285ZM36.0513 49.8596C34.7778 49.866 33.5552 50.3581 32.6359 51.2344C31.7167 52.1106 31.1706 53.3044 31.1107 54.5691H40.727C40.5335 51.5915 38.8425 49.8596 36.0513 49.8596Z" fill="#FCF5FF"/>
<path d="M73.9468 48.8164C73.9468 52.8675 70.6865 54.2044 70.585 54.1031C69.5938 53.2331 68.3206 52.7476 66.9994 52.7359C64.0041 52.7359 62.578 54.883 62.578 59.1266V65.2944C62.578 68.9607 60.6832 70.1662 58.1059 70.1662H57.0872C54.347 70.1662 52.5031 69.0113 52.5031 65.2944V44.8361C52.5031 44.4715 54.296 43.6917 56.3436 43.6917C57.4188 43.6216 58.4905 43.8737 59.4203 44.4153C60.35 44.9569 61.0951 45.7632 61.5593 46.7301C61.8257 47.2539 62.0145 47.8134 62.1196 48.391C62.4429 46.9697 63.2458 45.7012 64.3948 44.7965C65.5439 43.8919 66.9699 43.4055 68.4353 43.4182C71.7868 43.4283 73.9468 45.5147 73.9468 48.8164Z" fill="#FCF5FF"/>
<path d="M105.74 56.9795C105.74 65.0817 101.054 70.6319 93.8925 70.6319C92.3283 70.6852 90.7813 70.2893 89.4374 69.4921C88.0935 68.6941 87.009 67.529 86.313 66.135V75.1892C86.313 78.744 84.4695 80.0001 81.8922 80.0001H80.8736C78.1336 80.0001 76.2386 78.9061 76.2386 75.1892V44.8057C76.2386 44.4411 78.0822 43.6613 80.1399 43.6613C81.4632 43.5939 82.7673 43.9912 83.825 44.7837C84.8827 45.5762 85.6267 46.7133 85.9259 47.996C85.9554 48.2043 85.9554 48.4156 85.9259 48.624C86.545 47.043 87.6411 45.6916 89.064 44.7557C90.4868 43.8197 92.1663 43.3454 93.872 43.398C101.054 43.4283 105.74 48.6037 105.74 56.9795ZM96.1541 57.0301C96.1541 53.4752 94.1163 51.2268 91.0606 51.2268C90.0558 51.1982 89.0653 51.4657 88.2136 51.9955C87.3618 52.5253 86.6864 53.2939 86.2725 54.2044V58.5189C86.2732 59.1206 86.3995 59.7156 86.6425 60.2666C86.8861 60.8175 87.241 61.3125 87.6858 61.7205C88.1305 62.1285 88.6556 62.4407 89.2273 62.6374C89.7998 62.8342 90.4065 62.9112 91.0098 62.8637C94.106 62.8435 96.1541 60.5445 96.1541 57.0301Z" fill="#FCF5FF"/>
<path d="M108.734 65.2945V34.2121C108.734 33.8475 110.528 33.0676 112.575 33.0676C115.529 33.0676 118.84 34.5868 118.84 40.7041V65.2945C118.84 68.9102 116.945 70.1662 114.368 70.1662H113.35C110.629 70.1662 108.734 69.0114 108.734 65.2945Z" fill="#FCF5FF"/>
<path d="M127.998 31.5483C131.309 31.5483 133.417 33.3815 133.417 36.3591C133.417 39.3366 131.38 41.1192 128.049 41.1192C124.718 41.1192 122.63 39.2962 122.63 36.3591C122.63 33.422 124.677 31.5483 127.998 31.5483Z" fill="#91F58E"/>
<path fill-rule="evenodd" clip-rule="evenodd" d="M143.197 33.0775C145.978 31.5583 146.905 28.7731 148.025 26.7476C144.348 29.6441 142.148 32.5407 139.407 33.4218C141.466 34.052 143.571 34.5194 145.703 34.8195C143.086 35.7621 140.335 36.2851 137.553 36.369C139.738 37.1909 142.08 37.5147 144.408 37.3166C146.735 37.1186 148.988 36.4036 151 35.2245C149.35 33.7763 146.742 33.0674 143.197 33.0775Z" fill="#91F58E"/>
<path fill-rule="evenodd" clip-rule="evenodd" d="M133.927 40.2886C136.321 43.0232 138.572 43.7929 144.776 44.6436C142.738 41.0787 141.985 40.1975 136.433 37.939C140.1 40.3798 141.526 41.3622 142.82 42.9117C139.764 42.2839 137.818 41.899 137.105 41.6863C135.981 41.382 134.91 40.9108 133.927 40.2886Z" fill="#91F58E"/>
<path fill-rule="evenodd" clip-rule="evenodd" d="M146.589 18.848C143.533 25.9375 142.138 28.2264 138.348 31.7509C145.01 27.9732 147.659 24.1955 150.379 14.3613C144.022 16.4578 140.263 18.6151 135.017 26.9199C140.028 22.6966 142.534 22.0585 146.589 18.848Z" fill="#91F58E"/>
<path fill-rule="evenodd" clip-rule="evenodd" d="M131.604 9.64171C130.491 10.8503 129.007 15.445 127.152 23.4258C126.29 15.7623 128.382 7.95378 133.428 0C135.027 8.16308 136.667 16.0223 133.611 27.2237C131.995 23.3683 131.326 17.5077 131.604 9.64171Z" fill="#91F58E"/>
<path fill-rule="evenodd" clip-rule="evenodd" d="M116.487 17.1666C119.475 20.6506 122.402 22.9935 125.268 24.1953C124.249 18.8275 120.613 14.9385 112.31 10.4822C112.789 18.149 114.541 23.1218 119.594 27.4362C116.285 26.6294 112.885 26.2515 109.478 26.3121C112.032 29.0466 114.782 30.478 117.729 30.6063C115.988 29.5935 115.091 28.8035 115.04 28.2161C119.054 29.7555 121.397 29.2288 124.086 28.6313C118.575 22.2001 116.721 19.02 116.487 17.1666Z" fill="#91F58E"/>
<path d="M122.945 48.5021C122.945 44.9473 124.891 43.6914 127.468 43.6914H128.487C131.217 43.6914 133.01 44.7852 133.01 48.5021V65.2941C133.01 68.9099 131.166 70.1653 128.589 70.1653H127.57C124.83 70.1653 122.935 69.0111 122.935 65.2941L122.945 48.5021Z" fill="#FCF5FF"/>
</svg>
