<svg width="225" height="265" viewBox="0 0 225 265" fill="none" xmlns="http://www.w3.org/2000/svg">
<g clip-path="url(#clip0_33_1781)">
<path d="M202.207 50.8071H9.38818V172.799H202.207V50.8071Z" fill="url(#paint0_linear_33_1781)"/>
<path d="M105.794 234.805C47.7546 234.805 0.698242 207.984 0.698242 174.884C0.698242 141.784 47.7546 114.962 105.794 114.962C163.834 114.962 210.89 141.79 210.89 174.884C210.89 207.977 163.84 234.805 105.794 234.805Z" fill="#4E47DD" fill-opacity="0.3"/>
<path d="M0.698242 149.35V165.547C0.698242 198.647 47.7546 225.468 105.794 225.468C163.834 225.468 210.89 198.641 210.89 165.547V149.35H0.698242Z" fill="url(#paint1_linear_33_1781)"/>
<path d="M0.698242 149.35V165.547C0.698242 198.647 47.7546 225.468 105.794 225.468C163.834 225.468 210.89 198.641 210.89 165.547V149.35H0.698242Z" stroke="#4E47DD" stroke-width="0.980068" stroke-linecap="round" stroke-linejoin="round"/>
<path d="M105.794 209.271C47.7546 209.271 0.698242 182.443 0.698242 149.343C0.698242 116.243 47.7546 89.4214 105.794 89.4214C163.834 89.4214 210.89 116.249 210.89 149.343C210.89 182.436 163.84 209.264 105.794 209.264V209.271Z" fill="url(#paint2_linear_33_1781)"/>
<path d="M105.794 209.271C47.7546 209.271 0.698242 182.443 0.698242 149.343C0.698242 116.243 47.7546 89.4214 105.794 89.4214C163.834 89.4214 210.89 116.249 210.89 149.343C210.89 182.436 163.84 209.264 105.794 209.264V209.271Z" stroke="#4E47DD" stroke-width="0.980068" stroke-linecap="round" stroke-linejoin="round"/>
<path d="M105.794 196.55C60.0706 196.55 23.0044 175.419 23.0044 149.349C23.0044 123.28 60.0706 102.149 105.794 102.149C151.517 102.149 188.584 123.286 188.584 149.349C188.584 175.413 151.517 196.55 105.794 196.55Z" fill="url(#paint3_linear_33_1781)"/>
<path d="M105.794 185.09C140.418 185.09 168.486 169.088 168.486 149.35C168.486 129.611 140.418 113.61 105.794 113.61C71.1706 113.61 43.1025 129.611 43.1025 149.35C43.1025 169.088 71.1706 185.09 105.794 185.09Z" fill="url(#paint4_linear_33_1781)"/>
<path d="M105.794 172.799C83.076 172.799 64.6572 162.3 64.6572 149.35C64.6572 136.4 83.076 125.9 105.794 125.9C128.512 125.9 146.924 136.4 146.924 149.35C146.924 162.3 128.505 172.799 105.794 172.799Z" fill="url(#paint5_linear_33_1781)"/>
<path d="M105.794 161.202C94.3077 161.202 84.9971 155.897 84.9971 149.343C84.9971 142.79 94.3077 137.484 105.794 137.484C117.281 137.484 126.591 142.796 126.591 149.343C126.591 155.89 117.281 161.202 105.794 161.202Z" fill="url(#paint6_linear_33_1781)"/>
<path d="M105.794 153.355C101.913 153.355 98.7637 151.558 98.7637 149.343C98.7637 147.128 101.913 145.332 105.794 145.332C109.675 145.332 112.824 147.128 112.824 149.343C112.824 151.558 109.675 153.355 105.794 153.355Z" fill="#433DBE"/>
<path d="M105.794 55.5634V9.9184L121.325 1.76423C123.866 0.43134 126.911 2.27387 126.911 5.1422V36.7004C126.911 40.209 125.101 43.4759 122.128 45.3381L105.794 55.57V55.5634Z" fill="url(#paint7_linear_33_1781)"/>
<path d="M105.794 55.5634V9.9184L90.2631 1.76423C87.7215 0.43134 84.6768 2.27387 84.6768 5.1422V36.7004C84.6768 40.209 86.4866 43.4759 89.4595 45.3381L105.794 55.57V55.5634Z" fill="url(#paint8_linear_33_1781)"/>
<path d="M105.794 55.5634V9.9184L121.325 1.76423C123.866 0.43134 126.911 2.27387 126.911 5.1422V36.7004C126.911 40.209 125.101 43.4759 122.128 45.3381L105.794 55.57V55.5634Z" stroke="#4E47DD" stroke-width="0.980068" stroke-linecap="round" stroke-linejoin="round"/>
<path d="M105.794 55.5634V9.9184L90.2631 1.76423C87.7215 0.43134 84.6768 2.27387 84.6768 5.1422V36.7004C84.6768 40.209 86.4866 43.4759 89.4595 45.3381L105.794 55.57V55.5634Z" stroke="#4E47DD" stroke-width="0.980068" stroke-linecap="round" stroke-linejoin="round"/>
<path d="M108.911 150.343H102.684V18.5238C102.684 16.8055 104.076 15.4072 105.801 15.4072C107.519 15.4072 108.917 16.7989 108.917 18.5238V150.35L108.911 150.343Z" fill="#4E47DD"/>
<path d="M202.128 142.94C201.495 142.567 200.613 142.62 199.639 143.182L176.503 156.543L197.718 168.872L220.854 155.511C221.821 154.949 222.703 154.897 223.344 155.269L202.128 142.94Z" fill="url(#paint9_linear_33_1781)"/>
<path d="M162.037 260.431L174.438 206.363L153.223 194.034L140.822 248.101C140.443 249.735 140.776 251.068 141.678 251.59L162.893 263.92C161.991 263.397 161.665 262.057 162.037 260.431Z" fill="url(#paint10_linear_33_1781)"/>
<path d="M202.128 142.94C201.495 142.567 200.613 142.62 199.639 143.182L176.503 156.543L197.718 168.872L220.854 155.511C221.821 154.949 222.703 154.897 223.344 155.269L202.128 142.94Z" stroke="#4E47DD" stroke-width="0.980068" stroke-linecap="round" stroke-linejoin="round"/>
<path d="M162.037 260.431L174.438 206.363L153.223 194.034L140.822 248.101C140.443 249.735 140.776 251.068 141.678 251.59L162.893 263.92C161.991 263.397 161.665 262.057 162.037 260.431Z" stroke="#4E47DD" stroke-width="0.980068" stroke-linecap="round" stroke-linejoin="round"/>
<path d="M206.793 111.539C207.388 111.192 207.996 111.022 208.538 111.075C209.943 111.212 210.609 112.754 210.132 114.812L197.718 168.873L220.854 155.511C222.775 154.4 224.35 155.289 224.356 157.497C224.356 158.517 224.023 159.706 223.415 160.797L167.904 260.966C167.218 262.201 166.29 263.162 165.363 263.697C164.507 264.188 163.651 264.325 162.978 263.985C162.004 263.501 161.638 262.129 162.024 260.444L174.425 206.377L151.289 219.738C149.368 220.849 147.8 219.954 147.8 217.745C147.8 216.726 148.133 215.55 148.741 214.446L204.252 114.276C204.925 113.054 205.853 112.087 206.787 111.545L206.793 111.539Z" fill="url(#paint11_linear_33_1781)"/>
<path d="M206.793 111.539C207.388 111.192 207.996 111.022 208.538 111.075C209.943 111.212 210.609 112.754 210.132 114.812L197.718 168.873L220.854 155.511C222.775 154.4 224.35 155.289 224.356 157.497C224.356 158.517 224.023 159.706 223.415 160.797L167.904 260.966C167.218 262.201 166.29 263.162 165.363 263.697C164.507 264.188 163.651 264.325 162.978 263.985C162.004 263.501 161.638 262.129 162.024 260.444L174.425 206.377L151.289 219.738C149.368 220.849 147.8 219.954 147.8 217.745C147.8 216.726 148.133 215.55 148.741 214.446L204.252 114.276C204.925 113.054 205.853 112.087 206.787 111.545L206.793 111.539Z" stroke="#4E47DD" stroke-width="0.980068" stroke-linecap="round" stroke-linejoin="round"/>
<path d="M188.048 98.9675C187.839 98.8433 187.597 98.7649 187.329 98.7388C186.78 98.693 186.179 98.8629 185.585 99.2027C184.65 99.745 183.729 100.712 183.05 101.934L127.539 202.103C126.931 203.201 126.591 204.384 126.598 205.403C126.598 206.501 126.99 207.271 127.61 207.637L148.826 219.967C148.198 219.601 147.813 218.83 147.813 217.732C147.813 216.713 148.146 215.537 148.754 214.433L204.265 114.263C204.938 113.041 205.866 112.074 206.8 111.532C207.395 111.186 208.002 111.016 208.544 111.068C208.812 111.094 209.054 111.173 209.263 111.297L188.048 98.9675Z" fill="url(#paint12_linear_33_1781)"/>
<path d="M188.048 98.9675C187.839 98.8433 187.597 98.7649 187.329 98.7388C186.78 98.693 186.179 98.8629 185.585 99.2027C184.65 99.745 183.729 100.712 183.05 101.934L127.539 202.103C126.931 203.201 126.591 204.384 126.598 205.403C126.598 206.501 126.99 207.272 127.61 207.637L148.826 219.967C148.198 219.601 147.813 218.83 147.813 217.732C147.813 216.713 148.146 215.537 148.754 214.433L204.265 114.263C204.938 113.041 205.866 112.074 206.8 111.532C207.395 111.186 208.002 111.016 208.544 111.068C208.812 111.094 209.054 111.173 209.263 111.297L188.048 98.9675Z" stroke="#4E47DD" stroke-width="0.980068" stroke-linecap="round" stroke-linejoin="round"/>
</g>
<defs>
<linearGradient id="paint0_linear_33_1781" x1="105.794" y1="70.5" x2="105.794" y2="165.554" gradientUnits="userSpaceOnUse">
<stop stop-color="#8581FE" stop-opacity="0"/>
<stop offset="1" stop-color="#8581FE" stop-opacity="0.6"/>
</linearGradient>
<linearGradient id="paint1_linear_33_1781" x1="153.811" y1="187.422" x2="26.657" y2="174.57" gradientUnits="userSpaceOnUse">
<stop stop-color="#A39EFF"/>
<stop offset="1" stop-color="#CFD3FF"/>
</linearGradient>
<linearGradient id="paint2_linear_33_1781" x1="176.078" y1="166.631" x2="18.5551" y2="127.892" gradientUnits="userSpaceOnUse">
<stop stop-color="#7F78FF"/>
<stop offset="1" stop-color="#A4ABF7"/>
</linearGradient>
<linearGradient id="paint3_linear_33_1781" x1="179.645" y1="165.449" x2="40.3516" y2="135.08" gradientUnits="userSpaceOnUse">
<stop stop-color="#BBB8FF"/>
<stop offset="1" stop-color="#E5E7F7"/>
</linearGradient>
<linearGradient id="paint4_linear_33_1781" x1="160.854" y1="161.659" x2="54.7784" y2="137.942" gradientUnits="userSpaceOnUse">
<stop stop-color="#7F78FF"/>
<stop offset="1" stop-color="#A4ABF7"/>
</linearGradient>
<linearGradient id="paint5_linear_33_1781" x1="147.257" y1="155.955" x2="73.5562" y2="144.214" gradientUnits="userSpaceOnUse">
<stop stop-color="#BBB8FF"/>
<stop offset="1" stop-color="#E5E7F7"/>
</linearGradient>
<linearGradient id="paint6_linear_33_1781" x1="128.499" y1="150.872" x2="86.0229" y2="148.023" gradientUnits="userSpaceOnUse">
<stop stop-color="#7F78FF"/>
<stop offset="1" stop-color="#A4ABF7"/>
</linearGradient>
<linearGradient id="paint7_linear_33_1781" x1="118.894" y1="44.5801" x2="112.073" y2="5.90665" gradientUnits="userSpaceOnUse">
<stop stop-color="#7F78FF"/>
<stop offset="1" stop-color="#A4ABF7"/>
</linearGradient>
<linearGradient id="paint8_linear_33_1781" x1="106.134" y1="28.6704" x2="79.7241" y2="28.0039" gradientUnits="userSpaceOnUse">
<stop stop-color="#BBB8FF"/>
<stop offset="0.94" stop-color="#E5E7F7"/>
</linearGradient>
<linearGradient id="paint9_linear_33_1781" x1="195.137" y1="165.481" x2="204.428" y2="146.906" gradientUnits="userSpaceOnUse">
<stop stop-color="#A39EFF"/>
<stop offset="1" stop-color="#CFD3FF"/>
</linearGradient>
<linearGradient id="paint10_linear_33_1781" x1="163.827" y1="216.452" x2="146.702" y2="253.609" gradientUnits="userSpaceOnUse">
<stop stop-color="#A39EFF"/>
<stop offset="1" stop-color="#CFD3FF"/>
</linearGradient>
<linearGradient id="paint11_linear_33_1781" x1="163.226" y1="238.288" x2="222.86" y2="106.096" gradientUnits="userSpaceOnUse">
<stop stop-color="#7F78FF"/>
<stop offset="1" stop-color="#A4ABF7"/>
</linearGradient>
<linearGradient id="paint12_linear_33_1781" x1="139.999" y1="207.592" x2="183.925" y2="128.611" gradientUnits="userSpaceOnUse">
<stop stop-color="#A39EFF"/>
<stop offset="1" stop-color="#CFD3FF"/>
</linearGradient>
<clipPath id="clip0_33_1781">
<rect width="224.645" height="263.821" fill="white" transform="translate(0.208008 0.830078)"/>
</clipPath>
</defs>
</svg>
