<svg width="161" height="275" viewBox="0 0 161 275" fill="none" xmlns="http://www.w3.org/2000/svg">
<g clip-path="url(#clip0_33_1878)">
<path opacity="0.3" d="M84.3522 274.949C45.2279 274.949 13.5063 256.87 13.5063 234.557C13.5063 212.244 45.2279 194.165 84.3522 194.165C123.477 194.165 155.192 212.251 155.192 234.557C155.192 256.863 123.477 274.949 84.3522 274.949Z" fill="#4E47DD"/>
<path d="M155.198 104.045H13.6499V227.579H155.198V104.045Z" fill="url(#paint0_linear_33_1878)"/>
<path d="M13.5063 215.662V226.58C13.5063 248.892 45.2279 266.971 84.3522 266.971C123.477 266.971 155.192 248.886 155.192 226.58V215.662H13.5063Z" fill="url(#paint1_linear_33_1878)"/>
<path d="M13.5063 215.662V226.58C13.5063 248.892 45.2279 266.971 84.3522 266.971C123.477 266.971 155.192 248.886 155.192 226.58V215.662H13.5063Z" stroke="#4E47DD" stroke-width="0.980068" stroke-linecap="round" stroke-linejoin="round"/>
<path d="M84.3522 256.053C45.2279 256.053 13.5063 237.974 13.5063 215.661C13.5063 193.349 45.2279 175.27 84.3522 175.27C123.477 175.27 155.192 193.355 155.192 215.661C155.192 237.968 123.477 256.053 84.3522 256.053Z" fill="url(#paint2_linear_33_1878)"/>
<path opacity="0.3" d="M21.7453 196.746L116.322 251.708C128.22 248.271 138.184 242.979 145.044 236.497L48.9585 180.66C37.446 184.449 27.9851 190.036 21.7388 196.746H21.7453Z" fill="#4E47DD"/>
<path d="M84.3522 256.053C45.2279 256.053 13.5063 237.974 13.5063 215.661C13.5063 193.349 45.2279 175.27 84.3522 175.27C123.477 175.27 155.192 193.355 155.192 215.661C155.192 237.968 123.477 256.053 84.3522 256.053Z" stroke="#4E47DD" stroke-width="0.980068" stroke-linecap="round" stroke-linejoin="round"/>
<path d="M140.68 161.483L140.889 93.4859L160.092 82.3262L159.883 150.323C159.824 171.695 152.388 187.788 139.412 195.335L120.209 206.494C133.186 198.954 140.621 182.855 140.68 161.483Z" fill="url(#paint3_linear_33_1878)"/>
<path d="M140.895 93.4794L160.098 82.3197L90.1213 8.72314L70.9185 19.8829L140.895 93.4794Z" fill="url(#paint4_linear_33_1878)"/>
<path d="M70.9188 19.8831L90.1216 8.72342L19.9618 1.41211L0.752441 12.5718L70.9188 19.8831Z" fill="url(#paint5_linear_33_1878)"/>
<path d="M70.9188 19.8831L0.752449 12.5718L0.543367 80.5689C0.471496 105.097 10.1219 133.898 26.7635 158.837L70.3177 224.09L114.101 209.258C130.827 203.587 140.608 186.005 140.68 161.477L140.889 93.4797L70.9188 19.8831Z" fill="#4E47DD"/>
<path d="M79.0469 213.283L38.0931 151.611C22.3924 128.083 13.0556 100.379 13.1209 77.498L13.3039 17.7334L72.5457 23.9078L138.57 93.3555L138.367 158.367C138.308 179.647 131.036 196.857 117.42 201.477L79.0403 213.29L79.0469 213.283Z" fill="url(#paint6_linear_33_1878)"/>
<path d="M7.71078 21.1179L66.9526 27.2923L132.977 96.7399L132.774 161.751C132.715 183.032 124.868 197.89 111.245 202.502L72.8722 215.498L32.4869 154.995C16.7993 131.474 7.46249 103.764 7.52783 80.889L7.71078 21.1244M0.294929 12.8657L0.0858478 80.8628C0.0139762 105.391 9.66438 134.192 26.3059 159.131L69.8602 224.384L113.643 209.552C130.37 203.881 140.151 186.299 140.223 161.771L140.432 93.7736L70.4613 20.177L0.294929 12.8657Z" fill="url(#paint7_linear_33_1878)"/>
<path d="M0.752449 12.5718L0.543367 80.5689C0.471496 105.097 10.1219 133.898 26.7635 158.837L70.3177 224.09L114.101 209.258C130.827 203.587 140.608 186.005 140.68 161.477L140.889 93.4797L70.9188 19.8831L0.752449 12.5718Z" stroke="#4E47DD" stroke-width="0.980068" stroke-linecap="round" stroke-linejoin="round"/>
<path d="M77.1782 133.8C80.2034 135.544 82.647 139.778 82.6339 143.241L82.5098 187.096C82.4967 190.559 80.04 191.963 77.0149 190.212L22.5688 158.778C19.5567 157.04 17.1131 152.806 17.1196 149.343L17.2438 105.489C17.2569 102.026 19.7136 100.621 22.7256 102.366L77.1717 133.8H77.1782Z" fill="url(#paint8_linear_33_1878)"/>
<path d="M49.932 133.303C54.192 135.766 57.6353 141.732 57.6223 146.632C57.6157 149.357 56.5442 151.167 54.865 151.827C54.3292 152.042 53.9895 152.571 54.094 153.14L55.6033 161.124C55.7275 161.784 55.0218 162.281 54.4403 161.947L44.6331 156.283C44.1235 155.989 43.8687 155.387 44.0124 154.819L45.574 148.56C45.7504 147.847 45.587 147.109 45.1689 146.501C43.0258 143.365 41.7713 139.478 42.2679 136.289C42.8233 132.748 45.6458 131.33 49.0303 132.846C49.3374 132.983 49.638 133.133 49.932 133.31V133.303Z" fill="#514AE6"/>
<path d="M54.9304 157.583L54.1071 153.218C53.9895 152.604 54.3619 152.035 54.9369 151.794C56.5704 151.108 57.6092 149.311 57.6158 146.632C57.6288 141.732 54.1921 135.766 49.9255 133.303C49.6315 133.133 49.3309 132.976 49.0238 132.839C48.4097 132.565 47.8216 132.415 47.2532 132.33C46.9722 132.859 46.7501 133.46 46.639 134.166C46.1294 137.426 47.4557 141.418 49.6838 144.594C50.0104 145.057 50.1411 145.632 50.0039 146.188L48.1418 153.669L54.9304 157.589V157.583Z" fill="#433DBE"/>
<path d="M95.0086 123.437L40.5625 92.0029C39.0467 91.1273 37.6681 91.0489 36.6749 91.6239L18.8442 101.986C19.8374 101.412 21.216 101.49 22.7318 102.365L77.1779 133.8C80.203 135.544 82.6467 139.778 82.6336 143.241L82.5095 187.096C82.5095 188.814 81.8953 190.029 80.9152 190.598L98.7459 180.235C99.726 179.667 100.334 178.451 100.34 176.733L100.464 132.878C100.477 129.415 98.0337 125.181 95.0086 123.437Z" fill="url(#paint9_linear_33_1878)"/>
<path d="M95.0086 123.437L40.5625 92.0029C39.0467 91.1273 37.6681 91.0489 36.6749 91.6239L18.8442 101.986C19.8374 101.412 21.216 101.49 22.7318 102.365L77.1779 133.8C80.203 135.544 82.6467 139.778 82.6336 143.241L82.5095 187.096C82.5095 188.814 81.8953 190.029 80.9152 190.598L98.7459 180.235C99.726 179.667 100.334 178.451 100.34 176.733L100.464 132.878C100.477 129.415 98.0337 125.181 95.0086 123.437Z" stroke="#4E47DD" stroke-width="0.980068" stroke-linecap="round" stroke-linejoin="round"/>
<path d="M80.0527 126.835C77.6744 126.835 75.7535 125.868 75.7535 123.49V87.7497C75.7535 77.3545 70.1606 67.6649 61.157 62.4705C57.8574 60.5626 53.9176 60.5692 50.6115 62.4705C47.3119 64.3784 45.3387 67.789 45.3387 71.6047V101.17C45.3387 103.548 43.4112 104.626 41.0395 104.626C38.6677 104.626 36.7402 103.548 36.7402 101.17V71.6047C36.7402 64.6855 40.3208 58.4849 46.3122 55.022C52.3037 51.5591 59.4647 51.5591 65.4562 55.022C77.1125 61.7518 84.3519 74.2966 84.3519 87.7563V123.496C84.3519 125.874 82.4245 126.841 80.0527 126.841V126.835Z" fill="#4E47DD"/>
<path d="M120.216 206.488L139.419 195.328C152.395 187.788 159.831 171.689 159.889 150.317L160.098 82.32L90.1216 8.72342L19.9618 1.41211L0.752441 12.5718" stroke="#4E47DD" stroke-width="0.980068" stroke-linecap="round" stroke-linejoin="round"/>
<path d="M77.1782 133.8C80.2034 135.544 82.647 139.778 82.6339 143.241L82.5098 187.096C82.4967 190.559 80.04 191.963 77.0149 190.212L22.5688 158.778C19.5567 157.04 17.1131 152.806 17.1196 149.343L17.2438 105.489C17.2569 102.026 19.7136 100.621 22.7256 102.366L77.1717 133.8H77.1782Z" stroke="#4E47DD" stroke-width="0.980068" stroke-linecap="round" stroke-linejoin="round"/>
</g>
<defs>
<linearGradient id="paint0_linear_33_1878" x1="84.4239" y1="167.266" x2="84.4239" y2="222.026" gradientUnits="userSpaceOnUse">
<stop stop-color="white" stop-opacity="0"/>
<stop offset="0.15" stop-color="white" stop-opacity="0.06"/>
<stop offset="0.42" stop-color="white" stop-opacity="0.21"/>
<stop offset="0.79" stop-color="white" stop-opacity="0.45"/>
<stop offset="1" stop-color="white" stop-opacity="0.6"/>
</linearGradient>
<linearGradient id="paint1_linear_33_1878" x1="116.721" y1="241.326" x2="31.0038" y2="232.663" gradientUnits="userSpaceOnUse">
<stop stop-color="#A39EFF"/>
<stop offset="1" stop-color="#CFD3FF"/>
</linearGradient>
<linearGradient id="paint2_linear_33_1878" x1="131.729" y1="227.311" x2="25.5416" y2="201.196" gradientUnits="userSpaceOnUse">
<stop stop-color="#7F78FF"/>
<stop offset="1" stop-color="#A4ABF7"/>
</linearGradient>
<linearGradient id="paint3_linear_33_1878" x1="140.157" y1="194.851" x2="140.157" y2="84.43" gradientUnits="userSpaceOnUse">
<stop stop-color="#A39EFF"/>
<stop offset="1" stop-color="#CFD3FF"/>
</linearGradient>
<linearGradient id="paint4_linear_33_1878" x1="160.098" y1="51.1013" x2="70.9185" y2="51.1013" gradientUnits="userSpaceOnUse">
<stop stop-color="#A39EFF"/>
<stop offset="1" stop-color="#CFD3FF"/>
</linearGradient>
<linearGradient id="paint5_linear_33_1878" x1="85.3846" y1="15.8126" x2="13.3169" y2="6.4954" gradientUnits="userSpaceOnUse">
<stop stop-color="#A39EFF"/>
<stop offset="1" stop-color="#CFD3FF"/>
</linearGradient>
<linearGradient id="paint6_linear_33_1878" x1="118.576" y1="182.777" x2="23.5685" y2="-2.9591" gradientUnits="userSpaceOnUse">
<stop stop-color="#7F78FF"/>
<stop offset="1" stop-color="#A4ABF7"/>
</linearGradient>
<linearGradient id="paint7_linear_33_1878" x1="123.326" y1="186.932" x2="10.1544" y2="15.6295" gradientUnits="userSpaceOnUse">
<stop stop-color="#A39EFF"/>
<stop offset="1" stop-color="#CFD3FF"/>
</linearGradient>
<linearGradient id="paint8_linear_33_1878" x1="76.4856" y1="172.898" x2="10.5205" y2="106.933" gradientUnits="userSpaceOnUse">
<stop stop-color="#7F78FF"/>
<stop offset="1" stop-color="#A4ABF7"/>
</linearGradient>
<linearGradient id="paint9_linear_33_1878" x1="96.5179" y1="168.311" x2="40.4645" y2="89.507" gradientUnits="userSpaceOnUse">
<stop stop-color="#A39EFF"/>
<stop offset="1" stop-color="#CFD3FF"/>
</linearGradient>
<clipPath id="clip0_33_1878">
<rect width="160.535" height="274.027" fill="white" transform="translate(0.0532227 0.921875)"/>
</clipPath>
</defs>
</svg>
