<svg width="213" height="262" viewBox="0 0 213 262" fill="none" xmlns="http://www.w3.org/2000/svg">
<g clip-path="url(#clip0_33_1751)">
<path d="M197.151 194.589H16.7075V46.7881C16.7075 46.7881 27.338 107.245 106.998 107.245C186.658 107.245 197.151 46.7881 197.151 46.7881V194.589Z" fill="url(#paint0_linear_33_1751)"/>
<g opacity="0.3">
<path d="M5.08381 200.254L107.037 259.502C112.146 262.469 118.452 262.482 123.567 259.529L208.762 210.342C213.623 207.533 213.636 200.515 208.781 197.693L106.828 138.444C101.719 135.478 95.4134 135.465 90.2974 138.418L5.10341 187.611C0.242272 190.421 0.229204 197.438 5.08381 200.261V200.254Z" fill="#4E47DD"/>
</g>
<path d="M5.08381 192.413L107.037 251.662C112.146 254.628 118.452 254.641 123.567 251.688L208.762 202.501C213.623 199.692 213.636 192.675 208.781 189.852L106.828 130.604C101.719 127.637 95.4134 127.624 90.2974 130.577L5.10341 179.77C0.242272 182.58 0.229204 189.597 5.08381 192.42V192.413Z" fill="url(#paint1_linear_33_1751)"/>
<path d="M5.08381 192.413L107.037 251.662C112.146 254.628 118.452 254.641 123.567 251.688L208.762 202.501C213.623 199.692 213.636 192.675 208.781 189.852L106.828 130.604C101.719 127.637 95.4134 127.624 90.2975 130.577L5.10341 179.77C0.242272 182.58 0.229204 189.597 5.08381 192.42V192.413Z" stroke="#4E47DD" stroke-width="0.980068" stroke-linecap="round" stroke-linejoin="round"/>
<path d="M5.08381 185.331L107.037 244.579C112.146 247.545 118.452 247.558 123.567 244.605L208.762 195.419C213.623 192.609 213.636 185.592 208.781 182.769L106.828 123.521C101.719 120.555 95.4134 120.542 90.2974 123.495L5.10341 172.681C0.242272 175.491 0.229204 182.508 5.08381 185.331Z" fill="url(#paint2_linear_33_1751)"/>
<path d="M5.08381 185.331L107.037 244.579C112.146 247.545 118.452 247.558 123.567 244.605L208.762 195.419C213.623 192.609 213.636 185.592 208.781 182.769L106.828 123.521C101.719 120.555 95.4134 120.542 90.2975 123.495L5.10341 172.681C0.242272 175.491 0.229204 182.508 5.08381 185.331Z" stroke="#4E47DD" stroke-width="0.980068" stroke-linecap="round" stroke-linejoin="round"/>
<path opacity="0.3" d="M115.492 154.497L150.729 149.029L106.828 123.514C101.719 120.548 95.4135 120.535 90.2975 123.488L51.9834 145.611C55.6685 146.396 59.935 146.121 63.4371 144.684L77.7984 138.411C79.6213 137.601 81.9735 137.366 84.1623 137.725C85.848 138.013 87.5403 138.274 89.1999 138.496C90.5327 138.679 91.7415 139.065 92.6889 139.613C93.3357 139.986 93.8584 140.43 94.2243 140.927L101.405 150.616C102.032 151.407 102.875 152.1 103.888 152.681C106.828 154.38 111.147 155.131 115.492 154.497Z" fill="#6857FF"/>
<g opacity="0.5">
<path d="M104.952 156.601C115.393 162.671 115.341 172.511 104.828 178.581C94.3155 184.651 77.3211 184.651 66.8801 178.581C56.4326 172.511 56.4848 162.671 66.9977 156.601C77.5106 150.531 94.5049 150.531 104.952 156.601Z" fill="#6857FF"/>
</g>
<path d="M86.619 157.307L86.5537 169.702H73.4339L73.4077 173.72H93.473L93.5644 157.307H86.619Z" fill="#4E47DD"/>
<path d="M116.616 223.037C115.224 223.84 115.23 225.154 116.616 225.957C118.001 226.761 120.255 226.761 121.647 225.957L165.135 200.848C166.527 200.044 166.553 198.731 165.168 197.927C163.783 197.124 161.503 197.124 160.111 197.927L116.622 223.037H116.616Z" fill="url(#paint3_linear_33_1751)"/>
<path d="M106.135 217.163C104.724 217.973 104.718 219.28 106.103 220.084C107.488 220.887 109.742 220.887 111.147 220.077L174.048 183.762C175.439 182.959 175.465 181.645 174.08 180.842C172.695 180.038 170.428 180.045 169.036 180.848L106.135 217.163Z" fill="url(#paint4_linear_33_1751)"/>
<path d="M95.2499 210.839C93.8386 211.649 93.8321 212.956 95.2303 213.772C96.6285 214.589 98.8696 214.576 100.274 213.766L163.175 177.451C164.567 176.647 164.593 175.334 163.208 174.53C161.81 173.72 159.542 173.727 158.151 174.53L95.2499 210.845V210.839Z" fill="url(#paint5_linear_33_1751)"/>
<path d="M84.3712 204.514C82.9599 205.324 82.9534 206.631 84.3385 207.434C85.7237 208.238 87.9779 208.238 89.3826 207.428L152.283 171.113C153.675 170.309 153.701 168.996 152.316 168.192C150.931 167.389 148.664 167.395 147.272 168.199L84.3712 204.514Z" fill="url(#paint6_linear_33_1751)"/>
<path d="M54.7469 25.1679L52.5254 14.7791C52.4862 14.5309 52.4666 14.2891 52.4666 14.0474L52.3359 59.6859C52.3359 59.9276 52.3555 60.1759 52.3947 60.4176L54.6162 70.8064C54.6489 70.9762 54.6685 71.1461 54.6685 71.3095L54.7992 25.671C54.7992 25.5011 54.7861 25.3377 54.7469 25.1679Z" fill="url(#paint7_linear_33_1751)"/>
<path d="M54.7469 25.1679L52.5254 14.7791C52.4862 14.5309 52.4666 14.2891 52.4666 14.0474L52.3359 59.6859C52.3359 59.9276 52.3555 60.1759 52.3947 60.4176L54.6162 70.8064C54.6489 70.9762 54.6685 71.1461 54.6685 71.3095L54.7992 25.671C54.7992 25.5011 54.7861 25.3377 54.7469 25.1679Z" stroke="#4E47DD" stroke-width="0.980068" stroke-linecap="round" stroke-linejoin="round"/>
<path d="M195.106 36.6672L184.129 45.1415C183.188 45.8537 182.698 46.7292 182.698 47.6113L182.567 73.6484C182.567 72.7663 183.064 71.8973 183.998 71.1786L194.975 62.7043C196.347 61.5086 197.014 60.1431 197.02 58.7906L197.151 32.7534C197.151 34.1059 196.478 35.4715 195.106 36.6672Z" fill="url(#paint8_linear_33_1751)"/>
<path d="M195.106 36.6672L184.129 45.1415C183.188 45.8537 182.698 46.7292 182.698 47.6113L182.567 73.6484C182.567 72.7663 183.064 71.8973 183.998 71.1786L194.975 62.7043C196.347 61.5086 197.014 60.1431 197.02 58.7906L197.151 32.7534C197.151 34.1059 196.478 35.4715 195.106 36.6672Z" stroke="#4E47DD" stroke-width="0.980068" stroke-linecap="round" stroke-linejoin="round"/>
<path d="M152.551 62.4106L152.42 88.4477C152.44 81.6461 147.951 74.8379 138.98 69.6566C121.13 59.3528 92.29 59.3528 74.5573 69.6566C65.7497 74.7791 61.3394 81.4762 61.3198 88.1864L61.4505 62.1493C61.4701 55.4391 65.8804 48.7419 74.688 43.6194C92.4207 33.3157 121.261 33.3157 139.111 43.6194C148.082 48.8007 152.571 55.6089 152.551 62.4106Z" fill="url(#paint9_linear_33_1751)"/>
<path d="M30.9965 75.6935C30.4934 74.7461 30.036 73.7661 29.6505 72.7795C29.35 72.0085 28.677 71.3159 27.7361 70.7736C27.0827 70.3946 26.3052 70.0941 25.4297 69.8785L8.84693 65.7949C7.36376 65.3963 6.16154 64.9063 5.14881 64.3182C2.88158 63.0049 1.57483 61.2212 1.58136 59.3525L1.45068 85.3897C1.45068 87.2583 2.75091 89.0486 5.01813 90.3554C6.03087 90.9369 7.23308 91.4269 8.71625 91.832L25.299 95.9156C26.1745 96.1312 26.9521 96.4383 27.6054 96.8107C28.5463 97.3531 29.2193 98.0456 29.5198 98.8166C29.9053 99.8097 30.3627 100.783 30.8658 101.731C31.0618 102.123 31.1598 102.521 31.1598 102.92L31.2905 76.8827C31.2905 76.4841 31.1925 76.0856 30.9965 75.6935Z" fill="url(#paint10_linear_33_1751)"/>
<path d="M30.9965 75.6935C30.4934 74.7461 30.036 73.7661 29.6505 72.7795C29.35 72.0085 28.677 71.3159 27.7361 70.7736C27.0827 70.3946 26.3052 70.0941 25.4297 69.8785L8.84693 65.7949C7.36376 65.3963 6.16154 64.9063 5.14881 64.3182C2.88158 63.0049 1.57483 61.2212 1.58136 59.3525L1.45068 85.3897C1.45068 87.2583 2.75091 89.0486 5.01813 90.3554C6.03087 90.9369 7.23308 91.4269 8.71625 91.832L25.299 95.9156C26.1745 96.1312 26.9521 96.4383 27.6054 96.8107C28.5463 97.353 29.2193 98.0456 29.5198 98.8166C29.9053 99.8097 30.3627 100.783 30.8658 101.731C31.0618 102.123 31.1598 102.521 31.1598 102.92L31.2905 76.8827C31.2905 76.4841 31.1925 76.0856 30.9965 75.6935Z" stroke="#4E47DD" stroke-width="0.980068" stroke-linecap="round" stroke-linejoin="round"/>
<path d="M212.42 65.1938C212.42 65.7427 212.309 66.2915 212.074 66.8404L202.221 88.4149C200.764 91.7145 195.413 93.9164 189.539 93.6028L171.336 92.3352C169.056 92.1719 166.775 92.6684 165.194 93.642L161.522 95.772C160.026 96.5691 159.19 97.6994 159.19 98.869L159.144 114.707C157.563 115.942 155.296 116.87 152.571 117.268L115.498 123.018C111.16 123.658 106.834 122.9 103.894 121.201C102.882 120.62 102.039 119.921 101.411 119.137L94.2308 109.447C93.8649 108.944 93.3357 108.506 92.6953 108.134C91.7479 107.585 90.5392 107.193 89.2063 107.017C87.5402 106.794 85.8545 106.533 84.1688 106.246C81.9799 105.886 79.6343 106.121 77.8048 106.932L63.4436 113.204C58.4452 115.256 51.8853 114.949 47.6906 112.557L20.3794 96.7912C18.0338 95.4061 16.825 93.5897 16.825 91.7602L16.6943 117.797C16.6943 119.627 17.9031 121.443 20.2487 122.828L47.5599 138.594C51.7546 140.986 58.3146 141.293 63.3129 139.241L77.6742 132.969C79.4971 132.159 81.8493 131.923 84.0381 132.283C85.7238 132.57 87.416 132.832 89.0756 133.054C90.4085 133.237 91.6173 133.622 92.5647 134.171C93.2115 134.543 93.7342 134.988 94.1001 135.484L101.281 145.174C101.908 145.965 102.751 146.657 103.764 147.239C106.704 148.937 111.029 149.689 115.368 149.055L152.44 143.305C157.772 142.521 161.398 139.757 161.411 136.497L161.45 121.776L165.064 119.679C166.651 118.706 168.925 118.209 171.205 118.372L189.408 119.64C195.276 119.954 200.634 117.752 202.091 114.452L211.944 92.8383V92.8775C211.944 92.8775 211.944 92.8252 211.963 92.7991L212.055 92.6031C212.238 92.1849 212.296 91.6099 212.296 91.231L212.427 65.1938H212.42Z" fill="url(#paint11_linear_33_1751)"/>
<path d="M212.42 65.1938C212.42 65.7427 212.309 66.2915 212.074 66.8404L202.221 88.4149C200.764 91.7145 195.413 93.9164 189.539 93.6028L171.336 92.3352C169.056 92.1719 166.775 92.6684 165.194 93.642L161.522 95.772C160.026 96.5691 159.19 97.6994 159.19 98.869L159.144 114.707C157.563 115.942 155.296 116.87 152.571 117.268L115.498 123.018C111.16 123.658 106.834 122.9 103.894 121.201C102.882 120.62 102.039 119.921 101.411 119.137L94.2308 109.447C93.8649 108.944 93.3357 108.506 92.6953 108.134C91.7479 107.585 90.5392 107.193 89.2063 107.017C87.5402 106.794 85.8545 106.533 84.1688 106.246C81.9799 105.886 79.6343 106.121 77.8048 106.932L63.4436 113.204C58.4452 115.256 51.8853 114.949 47.6906 112.557L20.3794 96.7912C18.0338 95.4061 16.825 93.5897 16.825 91.7602L16.6943 117.797C16.6943 119.627 17.9031 121.443 20.2487 122.828L47.5599 138.594C51.7546 140.986 58.3146 141.293 63.3129 139.241L77.6742 132.969C79.4971 132.159 81.8493 131.923 84.0381 132.283C85.7238 132.57 87.416 132.832 89.0756 133.054C90.4085 133.237 91.6173 133.622 92.5647 134.171C93.2115 134.543 93.7342 134.988 94.1001 135.484L101.281 145.174C101.908 145.965 102.751 146.657 103.764 147.239C106.704 148.937 111.029 149.689 115.368 149.055L152.44 143.305C157.772 142.521 161.398 139.757 161.411 136.497L161.45 121.776L165.064 119.679C166.651 118.706 168.925 118.209 171.205 118.372L189.408 119.64C195.276 119.954 200.634 117.752 202.091 114.452L211.944 92.8383V92.8775C211.944 92.8775 211.944 92.8252 211.963 92.7991L212.055 92.6031C212.238 92.1849 212.296 91.6099 212.296 91.231L212.427 65.1938H212.42Z" stroke="#4E47DD" stroke-width="0.980068" stroke-linecap="round" stroke-linejoin="round"/>
<path d="M161.477 109.748C162.045 113.309 158.282 116.432 152.565 117.275L115.492 123.025C111.153 123.665 106.828 122.907 103.888 121.208C102.875 120.627 102.032 119.927 101.405 119.143L94.2244 109.454C93.8585 108.951 93.3292 108.513 92.6889 108.141C91.7415 107.592 90.5328 107.2 89.1999 107.023C87.5338 106.801 85.8481 106.54 84.1623 106.252C81.9735 105.893 79.6214 106.128 77.7984 106.938L63.4372 113.211C58.4388 115.262 51.8789 114.955 47.6842 112.564L20.373 96.7979C16.2959 94.3869 15.636 90.6627 18.8767 87.8662L29.8535 79.3919C31.1995 78.3334 31.6438 76.9678 30.9969 75.6937C30.4938 74.7464 30.0364 73.7663 29.6509 72.7797C29.3504 72.0087 28.6774 71.3161 27.7365 70.7738C27.0832 70.3949 26.3057 70.0943 25.4301 69.8787L8.84737 65.7951C7.3642 65.3965 6.16198 64.9065 5.14925 64.3184C2.20904 62.6196 0.889218 60.1237 1.93462 57.6866L11.768 36.1251C13.225 32.8256 18.5762 30.6237 24.4697 30.9242L42.6467 32.2049C44.9531 32.3552 47.253 31.8716 48.8145 30.885L52.4865 28.755C54.1919 27.8468 55.0151 26.5139 54.7472 25.1745L52.5257 14.7858C51.9377 11.238 55.7404 8.1148 61.4378 7.25887L98.5628 1.50261C102.895 0.875364 107.233 1.62675 110.18 3.32553C111.186 3.90704 112.029 4.59309 112.65 5.37714L119.804 15.0798C120.177 15.5895 120.706 16.0337 121.353 16.4062C122.287 16.9485 123.476 17.3274 124.809 17.4973C126.495 17.7325 128.187 17.9939 129.847 18.2683C132.035 18.6538 134.388 18.3924 136.184 17.5953L150.565 11.3098C155.564 9.25821 162.123 9.5653 166.318 11.9828L193.629 27.7488C197.68 30.1402 198.321 33.8579 195.106 36.6674L184.129 45.1418C182.757 46.1872 182.339 47.5658 183.012 48.8268C183.495 49.7873 183.946 50.7674 184.338 51.7605C184.652 52.5315 185.331 53.2306 186.285 53.7794C186.932 54.1519 187.697 54.4524 188.559 54.668L205.142 58.7516C206.658 59.1437 207.853 59.6337 208.853 60.2087C211.787 61.9009 213.107 64.4099 212.074 66.8405L202.221 88.415C200.764 91.7146 195.413 93.9165 189.539 93.6029L171.336 92.3353C169.056 92.172 166.776 92.6685 165.194 93.6421L161.522 95.7721C159.817 96.6803 158.968 98.0262 159.236 99.3657L161.477 109.741V109.748ZM74.8974 80.9339C92.7216 91.2246 121.588 91.2376 139.321 80.9339C157.053 70.6301 156.936 53.9101 139.111 43.6194C121.261 33.3156 92.421 33.3156 74.6883 43.6194C56.9556 53.9232 57.0471 70.6301 74.8974 80.9339Z" fill="url(#paint12_linear_33_1751)"/>
<path d="M161.477 109.748C162.045 113.309 158.282 116.432 152.565 117.275L115.492 123.025C111.153 123.665 106.828 122.907 103.888 121.208C102.875 120.627 102.032 119.927 101.405 119.143L94.2244 109.454C93.8585 108.951 93.3292 108.513 92.6889 108.141C91.7415 107.592 90.5328 107.2 89.1999 107.023C87.5338 106.801 85.8481 106.54 84.1623 106.252C81.9735 105.893 79.6214 106.128 77.7984 106.938L63.4372 113.211C58.4388 115.262 51.8789 114.955 47.6842 112.564L20.373 96.7979C16.2959 94.3869 15.636 90.6627 18.8767 87.8662L29.8535 79.3919C31.1995 78.3334 31.6438 76.9678 30.9969 75.6937C30.4938 74.7464 30.0364 73.7663 29.6509 72.7797C29.3504 72.0087 28.6774 71.3161 27.7365 70.7738C27.0832 70.3949 26.3057 70.0943 25.4301 69.8787L8.84737 65.7951C7.3642 65.3965 6.16198 64.9065 5.14925 64.3184C2.20904 62.6196 0.889218 60.1237 1.93462 57.6866L11.768 36.1251C13.225 32.8256 18.5762 30.6237 24.4697 30.9242L42.6467 32.2049C44.9531 32.3552 47.253 31.8716 48.8145 30.885L52.4865 28.755C54.1919 27.8468 55.0151 26.5139 54.7472 25.1745L52.5257 14.7858C51.9377 11.238 55.7404 8.1148 61.4378 7.25887L98.5628 1.50261C102.895 0.875364 107.233 1.62675 110.18 3.32553C111.186 3.90704 112.029 4.59309 112.65 5.37714L119.804 15.0798C120.177 15.5895 120.706 16.0337 121.353 16.4062C122.287 16.9485 123.476 17.3274 124.809 17.4973C126.495 17.7325 128.187 17.9939 129.847 18.2683C132.035 18.6538 134.388 18.3924 136.184 17.5953L150.565 11.3098C155.564 9.25821 162.123 9.5653 166.318 11.9828L193.629 27.7488C197.68 30.1402 198.321 33.8579 195.106 36.6674L184.129 45.1418C182.757 46.1872 182.339 47.5658 183.012 48.8268C183.495 49.7873 183.946 50.7674 184.338 51.7605C184.652 52.5315 185.331 53.2306 186.285 53.7794C186.932 54.1519 187.697 54.4524 188.559 54.668L205.142 58.7516C206.658 59.1437 207.853 59.6337 208.853 60.2087C211.787 61.9009 213.107 64.4099 212.074 66.8405L202.221 88.415C200.764 91.7146 195.413 93.9165 189.539 93.6029L171.336 92.3353C169.056 92.172 166.776 92.6685 165.194 93.6421L161.522 95.7721C159.817 96.6803 158.968 98.0262 159.236 99.3657L161.477 109.741V109.748ZM74.8974 80.9339C92.7216 91.2246 121.588 91.2376 139.321 80.9339C157.053 70.6301 156.936 53.9101 139.111 43.6194C121.261 33.3156 92.421 33.3156 74.6883 43.6194C56.9556 53.9232 57.0471 70.6301 74.8974 80.9339Z" fill="url(#paint13_linear_33_1751)"/>
<path d="M161.477 109.748C162.045 113.309 158.282 116.432 152.565 117.275L115.492 123.025C111.153 123.665 106.828 122.907 103.888 121.208C102.875 120.627 102.032 119.927 101.405 119.143L94.2244 109.454C93.8585 108.951 93.3292 108.513 92.6889 108.141C91.7415 107.592 90.5328 107.2 89.1999 107.023C87.5338 106.801 85.8481 106.54 84.1623 106.252C81.9735 105.893 79.6214 106.128 77.7984 106.938L63.4372 113.211C58.4388 115.262 51.8789 114.955 47.6842 112.564L20.373 96.7979C16.2959 94.3869 15.636 90.6627 18.8767 87.8662L29.8535 79.3919C31.1995 78.3334 31.6438 76.9678 30.9969 75.6938C30.4938 74.7464 30.0364 73.7663 29.651 72.7797C29.3504 72.0087 28.6774 71.3161 27.7366 70.7738C27.0832 70.3949 26.3057 70.0943 25.4301 69.8787L8.84737 65.7951C7.3642 65.3965 6.16198 64.9065 5.14925 64.3184C2.20904 62.6196 0.889218 60.1237 1.93462 57.6866L11.768 36.1251C13.225 32.8256 18.5762 30.6237 24.4697 30.9242L42.6467 32.2049C44.9531 32.3551 47.253 31.8716 48.8145 30.885L52.4865 28.755C54.1919 27.8468 55.0151 26.5139 54.7472 25.1745L52.5257 14.7858C51.9377 11.2379 55.7404 8.1148 61.4378 7.25887L98.5628 1.50261C102.895 0.875364 107.233 1.62675 110.18 3.32553C111.186 3.90704 112.029 4.59309 112.65 5.37714L119.804 15.0798C120.177 15.5895 120.706 16.0337 121.353 16.4062C122.287 16.9485 123.476 17.3274 124.809 17.4973C126.495 17.7325 128.187 17.9939 129.847 18.2683C132.035 18.6538 134.388 18.3924 136.184 17.5953L150.565 11.3098C155.564 9.25821 162.123 9.5653 166.318 11.9828L193.629 27.7488C197.68 30.1402 198.321 33.8579 195.106 36.6674L184.129 45.1418C182.757 46.1872 182.339 47.5658 183.012 48.8268C183.496 49.7873 183.946 50.7674 184.338 51.7605C184.652 52.5315 185.332 53.2306 186.285 53.7794C186.932 54.1519 187.697 54.4524 188.559 54.668L205.142 58.7516C206.658 59.1437 207.853 59.6337 208.853 60.2087C211.787 61.9009 213.107 64.4099 212.074 66.8405L202.221 88.415C200.764 91.7146 195.413 93.9165 189.539 93.6029L171.336 92.3353C169.056 92.172 166.776 92.6685 165.194 93.6421L161.522 95.7721C159.817 96.6803 158.968 98.0262 159.236 99.3657L161.477 109.741V109.748ZM74.8974 80.9339C92.7216 91.2246 121.588 91.2376 139.321 80.9339C157.053 70.6301 156.936 53.9101 139.111 43.6194C121.261 33.3156 92.421 33.3156 74.6883 43.6194C56.9556 53.9232 57.0471 70.6301 74.8974 80.9339Z" stroke="#4E47DD" stroke-width="0.980068" stroke-linecap="round" stroke-linejoin="round"/>
<path d="M85.325 57.451C83.7503 58.3592 83.5674 59.9143 85.3054 60.927L107.514 73.8312C109.252 74.844 111.944 74.7394 113.512 73.8312C113.995 73.5503 114.374 73.1975 114.583 72.7728L123.619 54.6872C124.547 52.8382 121.601 51.1198 118.399 51.6556L87.1479 56.8303C86.4161 56.9545 85.8019 57.1701 85.3184 57.451H85.325Z" fill="#433DBE"/>
</g>
<defs>
<linearGradient id="paint0_linear_33_1751" x1="106.933" y1="167.924" x2="106.933" y2="64.658" gradientUnits="userSpaceOnUse">
<stop stop-color="#8581FE" stop-opacity="0"/>
<stop offset="1" stop-color="#8581FE" stop-opacity="0.6"/>
</linearGradient>
<linearGradient id="paint1_linear_33_1751" x1="182.764" y1="201.587" x2="21.5294" y2="179.365" gradientUnits="userSpaceOnUse">
<stop stop-color="#7F78FF"/>
<stop offset="1" stop-color="#A4ABF7"/>
</linearGradient>
<linearGradient id="paint2_linear_33_1751" x1="193.564" y1="219.346" x2="44.77" y2="158.725" gradientUnits="userSpaceOnUse">
<stop stop-color="#BBB8FF"/>
<stop offset="1" stop-color="#E5E7F7"/>
</linearGradient>
<linearGradient id="paint3_linear_33_1751" x1="204.018" y1="177.66" x2="91.1599" y2="238.934" gradientUnits="userSpaceOnUse">
<stop offset="0.26" stop-color="#4E47DD" stop-opacity="0.97"/>
<stop offset="1" stop-color="#4E47DD" stop-opacity="0"/>
</linearGradient>
<linearGradient id="paint4_linear_33_1751" x1="199.026" y1="168.467" x2="86.1681" y2="229.741" gradientUnits="userSpaceOnUse">
<stop offset="0.26" stop-color="#4E47DD" stop-opacity="0.97"/>
<stop offset="1" stop-color="#4E47DD" stop-opacity="0"/>
</linearGradient>
<linearGradient id="paint5_linear_33_1751" x1="193.897" y1="159.019" x2="81.0389" y2="220.293" gradientUnits="userSpaceOnUse">
<stop offset="0.26" stop-color="#4E47DD" stop-opacity="0.97"/>
<stop offset="1" stop-color="#4E47DD" stop-opacity="0"/>
</linearGradient>
<linearGradient id="paint6_linear_33_1751" x1="188.768" y1="149.571" x2="75.9099" y2="210.845" gradientUnits="userSpaceOnUse">
<stop offset="0.26" stop-color="#4E47DD" stop-opacity="0.97"/>
<stop offset="1" stop-color="#4E47DD" stop-opacity="0"/>
</linearGradient>
<linearGradient id="paint7_linear_33_1751" x1="53.0612" y1="73.1585" x2="53.5055" y2="46.5922" gradientUnits="userSpaceOnUse">
<stop stop-color="#A39EFF"/>
<stop offset="1" stop-color="#CFD3FF"/>
</linearGradient>
<linearGradient id="paint8_linear_33_1751" x1="182.567" y1="53.2042" x2="197.151" y2="53.2042" gradientUnits="userSpaceOnUse">
<stop stop-color="#A39EFF"/>
<stop offset="1" stop-color="#CFD3FF"/>
</linearGradient>
<linearGradient id="paint9_linear_33_1751" x1="61.3198" y1="62.1689" x2="152.551" y2="62.1689" gradientUnits="userSpaceOnUse">
<stop stop-color="#A39EFF"/>
<stop offset="1" stop-color="#CFD3FF"/>
</linearGradient>
<linearGradient id="paint10_linear_33_1751" x1="27.3702" y1="80.9075" x2="1.48989" y2="81.4433" gradientUnits="userSpaceOnUse">
<stop stop-color="#A39EFF"/>
<stop offset="1" stop-color="#CFD3FF"/>
</linearGradient>
<linearGradient id="paint11_linear_33_1751" x1="197.661" y1="106.932" x2="56.8967" y2="108.173" gradientUnits="userSpaceOnUse">
<stop stop-color="#A39EFF"/>
<stop offset="1" stop-color="#CFD3FF"/>
</linearGradient>
<linearGradient id="paint12_linear_33_1751" x1="200.307" y1="72.9692" x2="48.331" y2="55.5305" gradientUnits="userSpaceOnUse">
<stop stop-color="#7F78FF"/>
<stop offset="1" stop-color="#A4ABF7"/>
</linearGradient>
<linearGradient id="paint13_linear_33_1751" x1="76.263" y1="28.546" x2="43.3523" y2="-7.58589" gradientUnits="userSpaceOnUse">
<stop stop-color="white" stop-opacity="0"/>
<stop offset="0.15" stop-color="white" stop-opacity="0.06"/>
<stop offset="0.42" stop-color="white" stop-opacity="0.21"/>
<stop offset="0.79" stop-color="white" stop-opacity="0.45"/>
<stop offset="1" stop-color="white" stop-opacity="0.6"/>
</linearGradient>
<clipPath id="clip0_33_1751">
<rect width="211.95" height="260.946" fill="white" transform="translate(0.960938 0.790039)"/>
</clipPath>
</defs>
</svg>
