<svg width="1344" height="551" viewBox="0 0 1344 551" fill="none" xmlns="http://www.w3.org/2000/svg">
<rect width="1344" height="551" rx="20" fill="white"/>
<g filter="url(#filter0_d_33_1734)">
<g clip-path="url(#clip0_33_1734)">
<rect x="86" y="80" width="1172" height="391" rx="24" fill="#6758FF"/>
<path d="M341.013 239L331.553 207.188H336.041L341.849 226.636C342.289 228.308 342.729 229.98 343.169 232.4C343.697 229.848 344.181 228.308 344.665 226.636L350.693 207.188H355.357L361.341 226.636C361.869 228.352 362.309 230.024 362.793 232.4C363.321 229.716 363.761 228.088 364.201 226.68L370.053 207.188H374.453L364.861 239H360.725L353.025 213.832L345.237 239H341.013ZM380.123 212.38C378.627 212.38 377.395 211.148 377.395 209.652C377.395 208.112 378.627 206.924 380.123 206.924C381.619 206.924 382.851 208.112 382.851 209.652C382.851 211.148 381.619 212.38 380.123 212.38ZM378.099 239V217.484H382.235V239H378.099ZM394.312 239H390.176V220.96H385.952V217.484H390.176V210.752H394.312V217.484H398.536V220.96H394.312V239ZM406.384 238.956H402.248V206.616H406.384V220.784C407.748 218.452 410.344 216.868 413.688 216.868C419.188 216.868 421.828 220.344 421.828 225.844V239H417.692V226.768C417.692 222.412 415.624 220.652 412.544 220.652C408.54 220.652 406.384 223.556 406.384 227.252V238.956ZM437.212 211.148V207.188H460.664V211.148H451.116V239H446.804V211.148H437.212ZM459.406 228.22C459.406 221.576 464.158 216.912 470.626 216.912C477.05 216.912 481.802 221.576 481.802 228.22C481.802 234.864 477.05 239.528 470.626 239.528C464.158 239.528 459.406 234.864 459.406 228.22ZM463.586 228.22C463.586 232.708 466.446 235.832 470.626 235.832C474.762 235.832 477.666 232.708 477.666 228.22C477.666 223.732 474.762 220.608 470.626 220.608C466.446 220.608 463.586 223.732 463.586 228.22ZM484.973 228.22C484.973 221.576 489.725 216.912 496.193 216.912C502.617 216.912 507.369 221.576 507.369 228.22C507.369 234.864 502.617 239.528 496.193 239.528C489.725 239.528 484.973 234.864 484.973 228.22ZM489.153 228.22C489.153 232.708 492.013 235.832 496.193 235.832C500.329 235.832 503.233 232.708 503.233 228.22C503.233 223.732 500.329 220.608 496.193 220.608C492.013 220.608 489.153 223.732 489.153 228.22ZM517.804 239H513.668V220.96H509.444V217.484H513.668V210.752H517.804V217.484H522.028V220.96H517.804V239ZM529.876 238.956H525.74V206.616H529.876V220.784C531.24 218.452 533.836 216.868 537.18 216.868C542.68 216.868 545.32 220.344 545.32 225.844V239H541.184V226.768C541.184 222.412 539.116 220.652 536.036 220.652C532.032 220.652 529.876 223.556 529.876 227.252V238.956ZM548.551 248.636V245.248H551.323C553.303 245.248 554.887 244.94 555.899 242.212L556.647 240.144L547.979 217.484H552.335L558.583 234.82L564.963 217.484H569.231L559.067 243.84C557.615 247.536 555.459 249.076 552.159 249.076C550.795 249.076 549.651 248.9 548.551 248.636ZM583.156 228.22C583.156 221.576 587.908 216.912 594.376 216.912C600.8 216.912 605.552 221.576 605.552 228.22C605.552 234.864 600.8 239.528 594.376 239.528C587.908 239.528 583.156 234.864 583.156 228.22ZM587.336 228.22C587.336 232.708 590.196 235.832 594.376 235.832C598.512 235.832 601.416 232.708 601.416 228.22C601.416 223.732 598.512 220.608 594.376 220.608C590.196 220.608 587.336 223.732 587.336 228.22ZM614.267 239H610.131V217.484H613.871L614.311 220.784C615.675 218.32 618.403 216.868 621.439 216.868C627.115 216.868 629.711 220.344 629.711 225.844V239H625.575V226.768C625.575 222.412 623.551 220.652 620.383 220.652C616.511 220.652 614.267 223.424 614.267 227.604V239ZM645.403 248.636V245.248H648.175C650.155 245.248 651.739 244.94 652.751 242.212L653.499 240.144L644.831 217.484H649.187L655.435 234.82L661.815 217.484H666.083L655.919 243.84C654.467 247.536 652.311 249.076 649.011 249.076C647.647 249.076 646.503 248.9 645.403 248.636ZM667.16 228.22C667.16 221.576 671.912 216.912 678.38 216.912C684.804 216.912 689.556 221.576 689.556 228.22C689.556 234.864 684.804 239.528 678.38 239.528C671.912 239.528 667.16 234.864 667.16 228.22ZM671.34 228.22C671.34 232.708 674.2 235.832 678.38 235.832C682.516 235.832 685.42 232.708 685.42 228.22C685.42 223.732 682.516 220.608 678.38 220.608C674.2 220.608 671.34 223.732 671.34 228.22ZM708.491 217.484H712.583V239H708.887L708.447 235.744C707.215 237.988 704.355 239.528 701.187 239.528C696.171 239.528 693.355 236.14 693.355 230.86V217.484H697.491V229.496C697.491 234.116 699.471 235.876 702.639 235.876C706.423 235.876 708.491 233.456 708.491 228.836V217.484ZM730.904 217.308V221.092H729.056C725.14 221.092 722.72 223.468 722.72 227.604V239H718.584V217.528H722.456L722.72 220.784C723.6 218.54 725.756 217.044 728.704 217.044C729.452 217.044 730.068 217.132 730.904 217.308ZM752.886 239H748.75V220.96H744.526V217.484H748.75V210.752H752.886V217.484H757.11V220.96H752.886V239ZM769.891 239.528C763.555 239.528 759.199 234.952 759.199 228.264C759.199 221.532 763.467 216.868 769.715 216.868C775.831 216.868 779.835 221.092 779.835 227.472V229.012L763.203 229.056C763.511 233.588 765.887 236.096 769.979 236.096C773.191 236.096 775.303 234.776 776.007 232.312H779.879C778.823 236.932 775.215 239.528 769.891 239.528ZM769.715 220.344C766.107 220.344 763.819 222.5 763.291 226.284H775.699C775.699 222.72 773.367 220.344 769.715 220.344ZM790.532 239.528C785.912 239.528 783.184 236.932 783.184 233.016C783.184 229.056 786.132 226.592 791.192 226.196L797.968 225.668V225.052C797.968 221.444 795.812 220.168 792.908 220.168C789.432 220.168 787.452 221.708 787.452 224.304H783.844C783.844 219.816 787.54 216.868 793.084 216.868C798.408 216.868 802.016 219.684 802.016 225.492V239H798.496L798.056 235.524C796.956 237.988 794.008 239.528 790.532 239.528ZM791.72 236.316C795.636 236.316 798.012 233.764 798.012 229.716V228.572L792.512 229.012C788.86 229.364 787.364 230.772 787.364 232.884C787.364 235.172 789.036 236.316 791.72 236.316ZM811.88 239H807.744V217.484H811.44L811.836 220.3C812.936 218.276 815.224 216.868 818.26 216.868C821.604 216.868 823.98 218.54 825.08 221.224C826.092 218.54 828.688 216.868 832.032 216.868C836.96 216.868 839.952 219.948 839.952 224.92V239H835.904V225.932C835.904 222.544 834.012 220.608 831.108 220.608C827.984 220.608 825.916 222.808 825.916 226.24V239H821.824V225.888C821.824 222.5 819.976 220.652 817.072 220.652C813.948 220.652 811.88 222.808 811.88 226.24V239ZM851.889 237.284C851.889 240.452 849.513 243.092 846.389 243.488V241.64C848.193 241.332 849.469 240.144 849.469 238.78C849.161 238.956 848.809 239.044 848.281 239.044C846.829 239.044 845.597 237.988 845.597 236.36C845.597 234.6 846.785 233.324 848.545 233.324C850.393 233.324 851.889 234.864 851.889 237.284ZM887.565 228.924L880.129 239H875.113L883.077 228.44C881.977 228.88 880.833 229.1 879.733 229.1C873.133 229.1 868.689 224.348 868.689 218.012C868.689 211.412 873.705 206.616 880.261 206.616C886.861 206.616 891.965 211.588 891.965 218.056C891.965 221.796 890.821 224.48 887.565 228.924ZM887.565 218.012C887.565 213.656 884.573 210.488 880.261 210.488C876.037 210.488 873.045 213.656 873.045 218.012C873.045 222.368 876.037 225.448 880.261 225.448C884.573 225.448 887.565 222.368 887.565 218.012ZM914.463 228.924L907.027 239H902.011L909.975 228.44C908.875 228.88 907.731 229.1 906.631 229.1C900.031 229.1 895.587 224.348 895.587 218.012C895.587 211.412 900.603 206.616 907.159 206.616C913.759 206.616 918.863 211.588 918.863 218.056C918.863 221.796 917.719 224.48 914.463 228.924ZM914.463 218.012C914.463 213.656 911.471 210.488 907.159 210.488C902.935 210.488 899.943 213.656 899.943 218.012C899.943 222.368 902.935 225.448 907.159 225.448C911.471 225.448 914.463 222.368 914.463 218.012ZM938.59 214.712C938.59 219.42 935.246 222.808 930.538 222.808C925.874 222.808 922.53 219.42 922.53 214.712C922.53 209.96 925.874 206.572 930.538 206.572C935.246 206.572 938.59 209.96 938.59 214.712ZM955.354 207.232L931.198 239H926.974L951.13 207.232H955.354ZM935.202 214.712C935.202 211.852 933.31 209.872 930.538 209.872C927.81 209.872 925.918 211.852 925.918 214.712C925.918 217.528 927.81 219.508 930.538 219.508C933.266 219.508 935.202 217.528 935.202 214.712ZM959.886 231.476C959.886 236.184 956.498 239.572 951.834 239.572C947.17 239.572 943.782 236.184 943.782 231.476C943.782 226.724 947.17 223.38 951.834 223.38C956.498 223.38 959.886 226.724 959.886 231.476ZM956.454 231.476C956.454 228.616 954.606 226.636 951.834 226.636C949.106 226.636 947.214 228.616 947.214 231.476C947.214 234.292 949.106 236.272 951.834 236.272C954.562 236.272 956.454 234.292 956.454 231.476ZM975.289 228.22C975.289 221.576 980.041 216.912 986.509 216.912C992.933 216.912 997.685 221.576 997.685 228.22C997.685 234.864 992.933 239.528 986.509 239.528C980.041 239.528 975.289 234.864 975.289 228.22ZM979.469 228.22C979.469 232.708 982.329 235.832 986.509 235.832C990.645 235.832 993.549 232.708 993.549 228.22C993.549 223.732 990.645 220.608 986.509 220.608C982.329 220.608 979.469 223.732 979.469 228.22ZM999.847 217.484H1003.01V214.052C1003.01 208.772 1005.92 206.616 1009.83 206.616C1010.63 206.616 1011.55 206.66 1012.39 206.792V210.356H1010.54C1007.85 210.356 1007.15 211.72 1007.15 214.052V217.484H1012.25V220.96H1007.15V239H1003.01V220.96H999.847V217.484ZM271.255 292.528C266.635 292.528 263.907 289.932 263.907 286.016C263.907 282.056 266.855 279.592 271.915 279.196L278.691 278.668V278.052C278.691 274.444 276.535 273.168 273.631 273.168C270.155 273.168 268.175 274.708 268.175 277.304H264.567C264.567 272.816 268.263 269.868 273.807 269.868C279.131 269.868 282.739 272.684 282.739 278.492V292H279.219L278.779 288.524C277.679 290.988 274.731 292.528 271.255 292.528ZM272.443 289.316C276.359 289.316 278.735 286.764 278.735 282.716V281.572L273.235 282.012C269.583 282.364 268.087 283.772 268.087 285.884C268.087 288.172 269.759 289.316 272.443 289.316ZM287.059 281.264C287.059 274.532 291.327 269.868 297.619 269.868C303.031 269.868 306.815 272.948 307.563 277.744H303.427C302.723 275.016 300.523 273.564 297.751 273.564C293.835 273.564 291.151 276.556 291.151 281.22C291.151 285.84 293.659 288.832 297.575 288.832C300.523 288.832 302.723 287.292 303.471 284.74H307.607C306.771 289.404 302.767 292.528 297.575 292.528C291.239 292.528 287.059 288.04 287.059 281.264ZM310.563 281.264C310.563 274.532 314.831 269.868 321.123 269.868C326.535 269.868 330.319 272.948 331.067 277.744H326.931C326.227 275.016 324.027 273.564 321.255 273.564C317.339 273.564 314.655 276.556 314.655 281.22C314.655 285.84 317.163 288.832 321.079 288.832C324.027 288.832 326.227 287.292 326.975 284.74H331.111C330.275 289.404 326.271 292.528 321.079 292.528C314.743 292.528 310.563 288.04 310.563 281.264ZM334.066 281.22C334.066 274.576 338.818 269.912 345.286 269.912C351.71 269.912 356.462 274.576 356.462 281.22C356.462 287.864 351.71 292.528 345.286 292.528C338.818 292.528 334.066 287.864 334.066 281.22ZM338.246 281.22C338.246 285.708 341.106 288.832 345.286 288.832C349.422 288.832 352.326 285.708 352.326 281.22C352.326 276.732 349.422 273.608 345.286 273.608C341.106 273.608 338.246 276.732 338.246 281.22ZM375.397 270.484H379.489V292H375.793L375.353 288.744C374.121 290.988 371.261 292.528 368.093 292.528C363.077 292.528 360.261 289.14 360.261 283.86V270.484H364.397V282.496C364.397 287.116 366.377 288.876 369.545 288.876C373.329 288.876 375.397 286.456 375.397 281.836V270.484ZM389.626 292H385.49V270.484H389.23L389.67 273.784C391.034 271.32 393.762 269.868 396.798 269.868C402.474 269.868 405.07 273.344 405.07 278.844V292H400.934V279.768C400.934 275.412 398.91 273.652 395.742 273.652C391.87 273.652 389.626 276.424 389.626 280.604V292ZM416.871 292H412.735V273.96H408.511V270.484H412.735V263.752H416.871V270.484H421.095V273.96H416.871V292ZM423.046 285.752H427.006C427.006 287.952 428.678 289.272 431.406 289.272C434.31 289.272 435.982 288.084 435.982 286.104C435.982 284.652 435.278 283.772 433.034 283.2L429.25 282.32C425.422 281.396 423.618 279.504 423.618 276.336C423.618 272.376 426.962 269.868 431.714 269.868C436.422 269.868 439.502 272.508 439.59 276.6H435.63C435.542 274.444 434.09 273.08 431.582 273.08C428.986 273.08 427.534 274.224 427.534 276.204C427.534 277.656 428.59 278.624 430.702 279.152L434.486 280.076C438.138 280.956 439.942 282.628 439.942 285.84C439.942 289.932 436.422 292.528 431.318 292.528C426.258 292.528 423.046 289.844 423.046 285.752ZM468.88 270.308V274.092H467.032C463.116 274.092 460.696 276.468 460.696 280.604V292H456.56V270.528H460.432L460.696 273.784C461.576 271.54 463.732 270.044 466.68 270.044C467.428 270.044 468.044 270.132 468.88 270.308ZM481.27 292.528C474.934 292.528 470.578 287.952 470.578 281.264C470.578 274.532 474.846 269.868 481.094 269.868C487.21 269.868 491.214 274.092 491.214 280.472V282.012L474.582 282.056C474.89 286.588 477.266 289.096 481.358 289.096C484.57 289.096 486.682 287.776 487.386 285.312H491.258C490.202 289.932 486.594 292.528 481.27 292.528ZM481.094 273.344C477.486 273.344 475.198 275.5 474.67 279.284H487.078C487.078 275.72 484.746 273.344 481.094 273.344ZM494.426 281.264C494.426 274.532 498.694 269.868 504.986 269.868C510.398 269.868 514.182 272.948 514.93 277.744H510.794C510.09 275.016 507.89 273.564 505.118 273.564C501.202 273.564 498.518 276.556 498.518 281.22C498.518 285.84 501.026 288.832 504.942 288.832C507.89 288.832 510.09 287.292 510.838 284.74H514.974C514.138 289.404 510.134 292.528 504.942 292.528C498.606 292.528 494.426 288.04 494.426 281.264ZM528.622 292.528C522.286 292.528 517.93 287.952 517.93 281.264C517.93 274.532 522.198 269.868 528.446 269.868C534.562 269.868 538.566 274.092 538.566 280.472V282.012L521.934 282.056C522.242 286.588 524.618 289.096 528.71 289.096C531.922 289.096 534.034 287.776 534.738 285.312H538.61C537.554 289.932 533.946 292.528 528.622 292.528ZM528.446 273.344C524.838 273.344 522.55 275.5 522.022 279.284H534.43C534.43 275.72 532.098 273.344 528.446 273.344ZM545.209 265.38C543.713 265.38 542.481 264.148 542.481 262.652C542.481 261.112 543.713 259.924 545.209 259.924C546.705 259.924 547.937 261.112 547.937 262.652C547.937 264.148 546.705 265.38 545.209 265.38ZM543.185 292V270.484H547.321V292H543.185ZM559.354 292L550.686 270.484H555.086L559.794 282.496C560.542 284.52 561.158 286.324 561.51 287.644C561.862 286.236 562.566 284.388 563.314 282.496L568.11 270.484H572.422L563.446 292H559.354ZM581.016 292.528C576.396 292.528 573.668 289.932 573.668 286.016C573.668 282.056 576.616 279.592 581.676 279.196L588.452 278.668V278.052C588.452 274.444 586.296 273.168 583.392 273.168C579.916 273.168 577.936 274.708 577.936 277.304H574.328C574.328 272.816 578.024 269.868 583.568 269.868C588.892 269.868 592.5 272.684 592.5 278.492V292H588.98L588.54 288.524C587.44 290.988 584.492 292.528 581.016 292.528ZM582.204 289.316C586.12 289.316 588.496 286.764 588.496 282.716V281.572L582.996 282.012C579.344 282.364 577.848 283.772 577.848 285.884C577.848 288.172 579.52 289.316 582.204 289.316ZM601.968 292H598.228V259.616H602.364V274.18C603.772 271.364 606.676 269.868 610.196 269.868C616.356 269.868 620.052 274.708 620.052 281.352C620.052 287.864 616.18 292.528 609.932 292.528C606.544 292.528 603.684 291.032 602.276 288.084L601.968 292ZM602.408 281.176C602.408 285.664 604.96 288.788 609.184 288.788C613.408 288.788 615.916 285.62 615.916 281.176C615.916 276.776 613.408 273.608 609.184 273.608C604.96 273.608 602.408 276.776 602.408 281.176ZM628.835 292H624.699V259.616H628.835V292ZM644.208 292.528C637.872 292.528 633.516 287.952 633.516 281.264C633.516 274.532 637.784 269.868 644.032 269.868C650.148 269.868 654.152 274.092 654.152 280.472V282.012L637.52 282.056C637.828 286.588 640.204 289.096 644.296 289.096C647.508 289.096 649.62 287.776 650.324 285.312H654.196C653.14 289.932 649.532 292.528 644.208 292.528ZM644.032 273.344C640.424 273.344 638.136 275.5 637.608 279.284H650.016C650.016 275.72 647.684 273.344 644.032 273.344ZM657.011 285.752H660.971C660.971 287.952 662.643 289.272 665.371 289.272C668.275 289.272 669.947 288.084 669.947 286.104C669.947 284.652 669.243 283.772 666.999 283.2L663.215 282.32C659.387 281.396 657.583 279.504 657.583 276.336C657.583 272.376 660.927 269.868 665.679 269.868C670.387 269.868 673.467 272.508 673.555 276.6H669.595C669.507 274.444 668.055 273.08 665.547 273.08C662.951 273.08 661.499 274.224 661.499 276.204C661.499 277.656 662.555 278.624 664.667 279.152L668.451 280.076C672.103 280.956 673.907 282.628 673.907 285.84C673.907 289.932 670.387 292.528 665.283 292.528C660.223 292.528 657.011 289.844 657.011 285.752ZM696.817 292.528C692.197 292.528 689.469 289.932 689.469 286.016C689.469 282.056 692.417 279.592 697.477 279.196L704.253 278.668V278.052C704.253 274.444 702.097 273.168 699.193 273.168C695.717 273.168 693.737 274.708 693.737 277.304H690.129C690.129 272.816 693.825 269.868 699.369 269.868C704.693 269.868 708.301 272.684 708.301 278.492V292H704.781L704.341 288.524C703.241 290.988 700.293 292.528 696.817 292.528ZM698.005 289.316C701.921 289.316 704.297 286.764 704.297 282.716V281.572L698.797 282.012C695.145 282.364 693.649 283.772 693.649 285.884C693.649 288.172 695.321 289.316 698.005 289.316ZM726.349 270.308V274.092H724.501C720.585 274.092 718.165 276.468 718.165 280.604V292H714.029V270.528H717.901L718.165 273.784C719.045 271.54 721.201 270.044 724.149 270.044C724.897 270.044 725.513 270.132 726.349 270.308ZM738.739 292.528C732.403 292.528 728.047 287.952 728.047 281.264C728.047 274.532 732.315 269.868 738.563 269.868C744.679 269.868 748.683 274.092 748.683 280.472V282.012L732.051 282.056C732.359 286.588 734.735 289.096 738.827 289.096C742.039 289.096 744.151 287.776 744.855 285.312H748.727C747.671 289.932 744.063 292.528 738.739 292.528ZM738.563 273.344C734.955 273.344 732.667 275.5 732.139 279.284H744.547C744.547 275.72 742.215 273.344 738.563 273.344ZM765.334 301.636V270.484H769.074L769.382 274.356C770.834 271.408 773.738 269.868 777.17 269.868C783.33 269.868 787.158 274.488 787.158 281.088C787.158 287.644 783.55 292.572 777.17 292.572C773.738 292.572 770.878 291.12 769.47 288.48V301.636H765.334ZM769.514 281.264C769.514 285.664 772.066 288.832 776.29 288.832C780.514 288.832 783.022 285.664 783.022 281.264C783.022 276.82 780.514 273.652 776.29 273.652C772.066 273.652 769.514 276.776 769.514 281.264ZM798.009 292.528C793.389 292.528 790.661 289.932 790.661 286.016C790.661 282.056 793.609 279.592 798.669 279.196L805.445 278.668V278.052C805.445 274.444 803.289 273.168 800.385 273.168C796.909 273.168 794.929 274.708 794.929 277.304H791.321C791.321 272.816 795.017 269.868 800.561 269.868C805.885 269.868 809.493 272.684 809.493 278.492V292H805.973L805.533 288.524C804.433 290.988 801.485 292.528 798.009 292.528ZM799.197 289.316C803.113 289.316 805.489 286.764 805.489 282.716V281.572L799.989 282.012C796.337 282.364 794.841 283.772 794.841 285.884C794.841 288.172 796.513 289.316 799.197 289.316ZM817.245 265.38C815.749 265.38 814.517 264.148 814.517 262.652C814.517 261.112 815.749 259.924 817.245 259.924C818.741 259.924 819.973 261.112 819.973 262.652C819.973 264.148 818.741 265.38 817.245 265.38ZM815.221 292V270.484H819.357V292H815.221ZM833.985 292.528C827.737 292.528 823.953 287.864 823.953 281.308C823.953 274.708 827.781 269.868 834.161 269.868C837.461 269.868 840.233 271.32 841.685 273.96V259.616H845.777V292H842.081L841.729 288.084C840.321 291.032 837.417 292.528 833.985 292.528ZM834.821 288.788C839.045 288.788 841.641 285.664 841.641 281.176C841.641 276.776 839.045 273.608 834.821 273.608C830.597 273.608 828.133 276.776 828.133 281.176C828.133 285.62 830.597 288.788 834.821 288.788ZM865.799 265.38C864.303 265.38 863.071 264.148 863.071 262.652C863.071 261.112 864.303 259.924 865.799 259.924C867.295 259.924 868.527 261.112 868.527 262.652C868.527 264.148 867.295 265.38 865.799 265.38ZM863.775 292V270.484H867.911V292H863.775ZM878.052 292H873.916V270.484H877.656L878.096 273.784C879.46 271.32 882.188 269.868 885.224 269.868C890.9 269.868 893.496 273.344 893.496 278.844V292H889.36V279.768C889.36 275.412 887.336 273.652 884.168 273.652C880.296 273.652 878.052 276.424 878.052 280.604V292ZM915.48 292H911.344V259.616H915.48V292ZM930.852 292.528C924.516 292.528 920.16 287.952 920.16 281.264C920.16 274.532 924.428 269.868 930.676 269.868C936.792 269.868 940.796 274.092 940.796 280.472V282.012L924.164 282.056C924.472 286.588 926.848 289.096 930.94 289.096C934.152 289.096 936.264 287.776 936.968 285.312H940.84C939.784 289.932 936.176 292.528 930.852 292.528ZM930.676 273.344C927.068 273.344 924.78 275.5 924.252 279.284H936.66C936.66 275.72 934.328 273.344 930.676 273.344ZM943.656 285.752H947.616C947.616 287.952 949.288 289.272 952.016 289.272C954.92 289.272 956.592 288.084 956.592 286.104C956.592 284.652 955.888 283.772 953.644 283.2L949.86 282.32C946.032 281.396 944.228 279.504 944.228 276.336C944.228 272.376 947.572 269.868 952.324 269.868C957.032 269.868 960.112 272.508 960.2 276.6H956.24C956.152 274.444 954.7 273.08 952.192 273.08C949.596 273.08 948.144 274.224 948.144 276.204C948.144 277.656 949.2 278.624 951.312 279.152L955.096 280.076C958.748 280.956 960.552 282.628 960.552 285.84C960.552 289.932 957.032 292.528 951.928 292.528C946.868 292.528 943.656 289.844 943.656 285.752ZM963.378 285.752H967.338C967.338 287.952 969.01 289.272 971.738 289.272C974.642 289.272 976.314 288.084 976.314 286.104C976.314 284.652 975.61 283.772 973.366 283.2L969.582 282.32C965.754 281.396 963.95 279.504 963.95 276.336C963.95 272.376 967.294 269.868 972.046 269.868C976.754 269.868 979.834 272.508 979.922 276.6H975.962C975.874 274.444 974.422 273.08 971.914 273.08C969.318 273.08 967.866 274.224 967.866 276.204C967.866 277.656 968.922 278.624 971.034 279.152L974.818 280.076C978.47 280.956 980.274 282.628 980.274 285.84C980.274 289.932 976.754 292.528 971.65 292.528C966.59 292.528 963.378 289.844 963.378 285.752ZM1002.96 292H998.828V273.96H994.604V270.484H998.828V263.752H1002.96V270.484H1007.19V273.96H1002.96V292ZM1015.04 291.956H1010.9V259.616H1015.04V273.784C1016.4 271.452 1019 269.868 1022.34 269.868C1027.84 269.868 1030.48 273.344 1030.48 278.844V292H1026.34V279.768C1026.34 275.412 1024.28 273.652 1021.2 273.652C1017.19 273.652 1015.04 276.556 1015.04 280.252V291.956ZM1042.5 292.528C1037.88 292.528 1035.15 289.932 1035.15 286.016C1035.15 282.056 1038.1 279.592 1043.16 279.196L1049.94 278.668V278.052C1049.94 274.444 1047.78 273.168 1044.88 273.168C1041.4 273.168 1039.42 274.708 1039.42 277.304H1035.81C1035.81 272.816 1039.51 269.868 1045.05 269.868C1050.38 269.868 1053.98 272.684 1053.98 278.492V292H1050.46L1050.02 288.524C1048.92 290.988 1045.98 292.528 1042.5 292.528ZM1043.69 289.316C1047.6 289.316 1049.98 286.764 1049.98 282.716V281.572L1044.48 282.012C1040.83 282.364 1039.33 283.772 1039.33 285.884C1039.33 288.172 1041 289.316 1043.69 289.316ZM1063.85 292H1059.71V270.484H1063.45L1063.89 273.784C1065.26 271.32 1067.98 269.868 1071.02 269.868C1076.7 269.868 1079.29 273.344 1079.29 278.844V292H1075.16V279.768C1075.16 275.412 1073.13 273.652 1069.96 273.652C1066.09 273.652 1063.85 276.424 1063.85 280.604V292ZM317.364 328.544H314.196V325.684L323.216 317.016H308.916V313.188H328.672V316.664L319.96 324.98C325.372 325.64 329.464 329.292 329.464 335.012C329.464 341.436 324.624 345.528 318.156 345.528C311.908 345.528 307.42 341.7 307.42 335.1H311.688C311.688 339.236 314.24 341.656 318.244 341.656C322.38 341.656 325.064 339.016 325.064 334.924C325.064 331.096 322.424 328.544 317.364 328.544ZM333.263 329.116C333.263 319.26 338.367 312.572 346.375 312.572C354.339 312.572 359.443 319.26 359.443 329.116C359.443 339.016 354.559 345.572 346.375 345.572C338.147 345.572 333.263 339.016 333.263 329.116ZM337.531 329.116C337.531 336.948 340.787 341.7 346.375 341.7C351.963 341.7 355.175 336.948 355.175 329.116C355.175 321.196 351.963 316.444 346.375 316.444C340.787 316.444 337.531 321.196 337.531 329.116ZM385.262 345.528C379.014 345.528 375.23 340.864 375.23 334.308C375.23 327.708 379.058 322.868 385.438 322.868C388.738 322.868 391.51 324.32 392.962 326.96V312.616H397.054V345H393.358L393.006 341.084C391.598 344.032 388.694 345.528 385.262 345.528ZM386.098 341.788C390.322 341.788 392.918 338.664 392.918 334.176C392.918 329.776 390.322 326.608 386.098 326.608C381.874 326.608 379.41 329.776 379.41 334.176C379.41 338.62 381.874 341.788 386.098 341.788ZM409.313 345.528C404.693 345.528 401.965 342.932 401.965 339.016C401.965 335.056 404.913 332.592 409.973 332.196L416.749 331.668V331.052C416.749 327.444 414.593 326.168 411.689 326.168C408.213 326.168 406.233 327.708 406.233 330.304H402.625C402.625 325.816 406.321 322.868 411.865 322.868C417.189 322.868 420.797 325.684 420.797 331.492V345H417.277L416.837 341.524C415.737 343.988 412.789 345.528 409.313 345.528ZM410.501 342.316C414.417 342.316 416.793 339.764 416.793 335.716V334.572L411.293 335.012C407.641 335.364 406.145 336.772 406.145 338.884C406.145 341.172 407.817 342.316 410.501 342.316ZM423.942 354.636V351.248H426.714C428.694 351.248 430.278 350.94 431.29 348.212L432.038 346.144L423.37 323.484H427.726L433.974 340.82L440.354 323.484H444.622L434.458 349.84C433.006 353.536 430.85 355.076 427.55 355.076C426.186 355.076 425.042 354.9 423.942 354.636ZM445.863 338.752H449.823C449.823 340.952 451.495 342.272 454.223 342.272C457.127 342.272 458.799 341.084 458.799 339.104C458.799 337.652 458.095 336.772 455.851 336.2L452.067 335.32C448.239 334.396 446.435 332.504 446.435 329.336C446.435 325.376 449.779 322.868 454.531 322.868C459.239 322.868 462.319 325.508 462.407 329.6H458.447C458.359 327.444 456.907 326.08 454.399 326.08C451.803 326.08 450.351 327.224 450.351 329.204C450.351 330.656 451.407 331.624 453.519 332.152L457.303 333.076C460.955 333.956 462.759 335.628 462.759 338.84C462.759 342.932 459.239 345.528 454.135 345.528C449.075 345.528 445.863 342.844 445.863 338.752ZM473.292 343.284C473.292 346.452 470.916 349.092 467.792 349.488V347.64C469.596 347.332 470.872 346.144 470.872 344.78C470.564 344.956 470.212 345.044 469.684 345.044C468.232 345.044 467 343.988 467 342.36C467 340.6 468.188 339.324 469.948 339.324C471.796 339.324 473.292 340.864 473.292 343.284ZM497.571 345.528C492.951 345.528 490.223 342.932 490.223 339.016C490.223 335.056 493.171 332.592 498.231 332.196L505.007 331.668V331.052C505.007 327.444 502.851 326.168 499.947 326.168C496.471 326.168 494.491 327.708 494.491 330.304H490.883C490.883 325.816 494.579 322.868 500.123 322.868C505.447 322.868 509.055 325.684 509.055 331.492V345H505.535L505.095 341.524C503.995 343.988 501.047 345.528 497.571 345.528ZM498.759 342.316C502.675 342.316 505.051 339.764 505.051 335.716V334.572L499.551 335.012C495.899 335.364 494.403 336.772 494.403 338.884C494.403 341.172 496.075 342.316 498.759 342.316ZM513.375 334.264C513.375 327.532 517.643 322.868 523.935 322.868C529.347 322.868 533.131 325.948 533.879 330.744H529.743C529.039 328.016 526.839 326.564 524.067 326.564C520.151 326.564 517.467 329.556 517.467 334.22C517.467 338.84 519.975 341.832 523.891 341.832C526.839 341.832 529.039 340.292 529.787 337.74H533.923C533.087 342.404 529.083 345.528 523.891 345.528C517.555 345.528 513.375 341.04 513.375 334.264ZM536.879 334.264C536.879 327.532 541.147 322.868 547.439 322.868C552.851 322.868 556.635 325.948 557.383 330.744H553.247C552.543 328.016 550.343 326.564 547.571 326.564C543.655 326.564 540.971 329.556 540.971 334.22C540.971 338.84 543.479 341.832 547.395 341.832C550.343 341.832 552.543 340.292 553.291 337.74H557.427C556.591 342.404 552.587 345.528 547.395 345.528C541.059 345.528 536.879 341.04 536.879 334.264ZM571.075 345.528C564.739 345.528 560.383 340.952 560.383 334.264C560.383 327.532 564.651 322.868 570.899 322.868C577.015 322.868 581.019 327.092 581.019 333.472V335.012L564.387 335.056C564.695 339.588 567.071 342.096 571.163 342.096C574.375 342.096 576.487 340.776 577.191 338.312H581.063C580.007 342.932 576.399 345.528 571.075 345.528ZM570.899 326.344C567.291 326.344 565.003 328.5 564.475 332.284H576.883C576.883 328.72 574.551 326.344 570.899 326.344ZM589.862 345H585.726V312.616H589.862V345ZM605.235 345.528C598.899 345.528 594.543 340.952 594.543 334.264C594.543 327.532 598.811 322.868 605.059 322.868C611.175 322.868 615.179 327.092 615.179 333.472V335.012L598.547 335.056C598.855 339.588 601.231 342.096 605.323 342.096C608.535 342.096 610.647 340.776 611.351 338.312H615.223C614.167 342.932 610.559 345.528 605.235 345.528ZM605.059 326.344C601.451 326.344 599.163 328.5 598.635 332.284H611.043C611.043 328.72 608.711 326.344 605.059 326.344ZM632.119 323.308V327.092H630.271C626.355 327.092 623.935 329.468 623.935 333.604V345H619.799V323.528H623.671L623.935 326.784C624.815 324.54 626.971 323.044 629.919 323.044C630.667 323.044 631.283 323.132 632.119 323.308ZM641.43 345.528C636.81 345.528 634.082 342.932 634.082 339.016C634.082 335.056 637.03 332.592 642.09 332.196L648.866 331.668V331.052C648.866 327.444 646.71 326.168 643.806 326.168C640.33 326.168 638.35 327.708 638.35 330.304H634.742C634.742 325.816 638.438 322.868 643.982 322.868C649.306 322.868 652.914 325.684 652.914 331.492V345H649.394L648.954 341.524C647.854 343.988 644.906 345.528 641.43 345.528ZM642.618 342.316C646.534 342.316 648.91 339.764 648.91 335.716V334.572L643.41 335.012C639.758 335.364 638.262 336.772 638.262 338.884C638.262 341.172 639.934 342.316 642.618 342.316ZM664.371 345H660.235V326.96H656.011V323.484H660.235V316.752H664.371V323.484H668.595V326.96H664.371V345ZM674.33 318.38C672.834 318.38 671.602 317.148 671.602 315.652C671.602 314.112 672.834 312.924 674.33 312.924C675.826 312.924 677.058 314.112 677.058 315.652C677.058 317.148 675.826 318.38 674.33 318.38ZM672.306 345V323.484H676.442V345H672.306ZM686.583 345H682.447V323.484H686.187L686.627 326.784C687.991 324.32 690.719 322.868 693.755 322.868C699.431 322.868 702.027 326.344 702.027 331.844V345H697.891V332.768C697.891 328.412 695.867 326.652 692.699 326.652C688.827 326.652 686.583 329.424 686.583 333.604V345ZM706.392 333.692C706.392 327.62 710.308 322.868 716.556 322.868C720.032 322.868 722.716 324.452 724.08 327.136L724.388 323.484H728.084V344.12C728.084 350.896 723.904 355.208 717.304 355.208C711.452 355.208 707.448 351.908 706.656 346.452H710.792C711.32 349.62 713.696 351.468 717.304 351.468C721.352 351.468 723.992 348.828 723.992 344.736V340.424C722.584 342.932 719.768 344.428 716.38 344.428C710.264 344.428 706.392 339.72 706.392 333.692ZM710.528 333.604C710.528 337.652 713.036 340.82 717.084 340.82C721.264 340.82 723.816 337.828 723.816 333.604C723.816 329.468 721.352 326.476 717.128 326.476C712.992 326.476 710.528 329.644 710.528 333.604ZM744.016 354.636V351.248H746.788C748.768 351.248 750.352 350.94 751.364 348.212L752.112 346.144L743.444 323.484H747.8L754.048 340.82L760.428 323.484H764.696L754.532 349.84C753.08 353.536 750.924 355.076 747.624 355.076C746.26 355.076 745.116 354.9 744.016 354.636ZM765.773 334.22C765.773 327.576 770.525 322.912 776.993 322.912C783.417 322.912 788.169 327.576 788.169 334.22C788.169 340.864 783.417 345.528 776.993 345.528C770.525 345.528 765.773 340.864 765.773 334.22ZM769.953 334.22C769.953 338.708 772.813 341.832 776.993 341.832C781.129 341.832 784.033 338.708 784.033 334.22C784.033 329.732 781.129 326.608 776.993 326.608C772.813 326.608 769.953 329.732 769.953 334.22ZM807.104 323.484H811.196V345H807.5L807.06 341.744C805.828 343.988 802.968 345.528 799.8 345.528C794.784 345.528 791.968 342.14 791.968 336.86V323.484H796.104V335.496C796.104 340.116 798.084 341.876 801.252 341.876C805.036 341.876 807.104 339.456 807.104 334.836V323.484ZM829.517 323.308V327.092H827.669C823.753 327.092 821.333 329.468 821.333 333.604V345H817.197V323.528H821.069L821.333 326.784C822.213 324.54 824.369 323.044 827.317 323.044C828.065 323.044 828.681 323.132 829.517 323.308ZM844.02 334.264C844.02 327.532 848.288 322.868 854.58 322.868C859.992 322.868 863.776 325.948 864.524 330.744H860.388C859.684 328.016 857.484 326.564 854.712 326.564C850.796 326.564 848.112 329.556 848.112 334.22C848.112 338.84 850.62 341.832 854.536 341.832C857.484 341.832 859.684 340.292 860.432 337.74H864.568C863.732 342.404 859.728 345.528 854.536 345.528C848.2 345.528 844.02 341.04 844.02 334.264ZM875.223 345.528C870.603 345.528 867.875 342.932 867.875 339.016C867.875 335.056 870.823 332.592 875.883 332.196L882.659 331.668V331.052C882.659 327.444 880.503 326.168 877.599 326.168C874.123 326.168 872.143 327.708 872.143 330.304H868.535C868.535 325.816 872.231 322.868 877.775 322.868C883.099 322.868 886.707 325.684 886.707 331.492V345H883.187L882.747 341.524C881.647 343.988 878.699 345.528 875.223 345.528ZM876.411 342.316C880.327 342.316 882.703 339.764 882.703 335.716V334.572L877.203 335.012C873.551 335.364 872.055 336.772 872.055 338.884C872.055 341.172 873.727 342.316 876.411 342.316ZM890.675 338.752H894.635C894.635 340.952 896.307 342.272 899.035 342.272C901.939 342.272 903.611 341.084 903.611 339.104C903.611 337.652 902.907 336.772 900.663 336.2L896.879 335.32C893.051 334.396 891.247 332.504 891.247 329.336C891.247 325.376 894.591 322.868 899.343 322.868C904.051 322.868 907.131 325.508 907.219 329.6H903.259C903.171 327.444 901.719 326.08 899.211 326.08C896.615 326.08 895.163 327.224 895.163 329.204C895.163 330.656 896.219 331.624 898.331 332.152L902.115 333.076C905.767 333.956 907.571 335.628 907.571 338.84C907.571 342.932 904.051 345.528 898.947 345.528C893.887 345.528 890.675 342.844 890.675 338.752ZM916.294 344.956H912.158V312.616H916.294V326.784C917.658 324.452 920.254 322.868 923.598 322.868C929.098 322.868 931.738 326.344 931.738 331.844V345H927.602V332.768C927.602 328.412 925.534 326.652 922.454 326.652C918.45 326.652 916.294 329.556 916.294 333.252V344.956ZM967.802 345H963.71V326.96H954.514V345H950.378V326.96H947.21V323.484H950.378V320.052C950.378 314.772 953.194 312.616 956.934 312.616C957.726 312.616 958.65 312.66 959.486 312.792V316.356H957.638C955.13 316.356 954.514 317.72 954.514 320.052V323.484H963.71V312.616H967.802V345ZM972.453 334.22C972.453 327.576 977.205 322.912 983.673 322.912C990.097 322.912 994.849 327.576 994.849 334.22C994.849 340.864 990.097 345.528 983.673 345.528C977.205 345.528 972.453 340.864 972.453 334.22ZM976.633 334.22C976.633 338.708 979.493 341.832 983.673 341.832C987.809 341.832 990.713 338.708 990.713 334.22C990.713 329.732 987.809 326.608 983.673 326.608C979.493 326.608 976.633 329.732 976.633 334.22ZM1003.06 345L996.019 323.484H1000.29L1003.85 334.66C1004.34 336.244 1004.78 337.872 1005.17 339.764C1005.52 337.872 1006.1 336.068 1006.58 334.66L1010.19 323.484H1014.41L1017.98 334.66C1018.33 335.716 1019.03 338.224 1019.38 339.764C1019.74 338.048 1020.13 336.552 1020.75 334.66L1024.36 323.484H1028.67L1021.32 345H1017.4L1013.66 333.472C1012.96 331.316 1012.52 329.644 1012.3 328.456C1012.08 329.512 1011.68 330.92 1010.89 333.516L1007.15 345H1003.06ZM1031.81 345.528C1030.1 345.528 1028.64 344.12 1028.64 342.448C1028.64 340.732 1030.1 339.324 1031.81 339.324C1033.48 339.324 1034.94 340.732 1034.94 342.448C1034.94 344.12 1033.48 345.528 1031.81 345.528Z" fill="#FBFBFB"/>
<circle cx="81.6328" cy="578.633" r="248.518" transform="rotate(45 81.6328 578.633)" fill="url(#paint0_linear_33_1734)" stroke="url(#paint1_linear_33_1734)" stroke-width="1.66233"/>
<g filter="url(#filter1_f_33_1734)">
<circle cx="85.9995" cy="471" r="76" fill="#FEDCFD"/>
</g>
<circle cx="1487.45" cy="360.444" r="356.956" transform="rotate(-161.963 1487.45 360.444)" fill="url(#paint2_linear_33_1734)" stroke="url(#paint3_linear_33_1734)" stroke-width="2.38766"/>
<g filter="url(#filter2_f_33_1734)">
<circle cx="1271.12" cy="299.118" r="109.162" transform="rotate(-30 1271.12 299.118)" fill="#FEDCFD"/>
</g>
<g filter="url(#filter3_f_33_1734)">
<circle cx="162.374" cy="80.374" r="83.7278" transform="rotate(-30 162.374 80.374)" fill="#FEDCFD" fill-opacity="0.8"/>
</g>
</g>
<rect x="86.5" y="80.5" width="1171" height="390" rx="23.5" stroke="#D7D4F6"/>
</g>
<defs>
<filter id="filter0_d_33_1734" x="66" y="64" width="1212" height="431" filterUnits="userSpaceOnUse" color-interpolation-filters="sRGB">
<feFlood flood-opacity="0" result="BackgroundImageFix"/>
<feColorMatrix in="SourceAlpha" type="matrix" values="0 0 0 0 0 0 0 0 0 0 0 0 0 0 0 0 0 0 127 0" result="hardAlpha"/>
<feOffset dy="4"/>
<feGaussianBlur stdDeviation="10"/>
<feComposite in2="hardAlpha" operator="out"/>
<feColorMatrix type="matrix" values="0 0 0 0 0.65098 0 0 0 0 0.615686 0 0 0 0 1 0 0 0 0.06 0"/>
<feBlend mode="normal" in2="BackgroundImageFix" result="effect1_dropShadow_33_1734"/>
<feBlend mode="normal" in="SourceGraphic" in2="effect1_dropShadow_33_1734" result="shape"/>
</filter>
<filter id="filter1_f_33_1734" x="-258" y="127" width="688" height="688" filterUnits="userSpaceOnUse" color-interpolation-filters="sRGB">
<feFlood flood-opacity="0" result="BackgroundImageFix"/>
<feBlend mode="normal" in="SourceGraphic" in2="BackgroundImageFix" result="shape"/>
<feGaussianBlur stdDeviation="134" result="effect1_foregroundBlur_33_1734"/>
</filter>
<filter id="filter2_f_33_1734" x="776.999" y="-195.001" width="988.238" height="988.238" filterUnits="userSpaceOnUse" color-interpolation-filters="sRGB">
<feFlood flood-opacity="0" result="BackgroundImageFix"/>
<feBlend mode="normal" in="SourceGraphic" in2="BackgroundImageFix" result="shape"/>
<feGaussianBlur stdDeviation="192.469" result="effect1_foregroundBlur_33_1734"/>
</filter>
<filter id="filter3_f_33_1734" x="-306.307" y="-388.307" width="937.362" height="937.361" filterUnits="userSpaceOnUse" color-interpolation-filters="sRGB">
<feFlood flood-opacity="0" result="BackgroundImageFix"/>
<feBlend mode="normal" in="SourceGraphic" in2="BackgroundImageFix" result="shape"/>
<feGaussianBlur stdDeviation="192.469" result="effect1_foregroundBlur_33_1734"/>
</filter>
<linearGradient id="paint0_linear_33_1734" x1="81.6328" y1="329.284" x2="81.6328" y2="827.981" gradientUnits="userSpaceOnUse">
<stop stop-color="#695AFF"/>
<stop offset="1" stop-color="#6758FF"/>
</linearGradient>
<linearGradient id="paint1_linear_33_1734" x1="81.6328" y1="329.284" x2="53.6111" y2="588.277" gradientUnits="userSpaceOnUse">
<stop stop-color="white" stop-opacity="0.14"/>
<stop offset="1" stop-color="#6758FF"/>
</linearGradient>
<linearGradient id="paint2_linear_33_1734" x1="1487.45" y1="2.29465" x2="1487.45" y2="718.594" gradientUnits="userSpaceOnUse">
<stop stop-color="#695AFF"/>
<stop offset="1" stop-color="#6758FF"/>
</linearGradient>
<linearGradient id="paint3_linear_33_1734" x1="1884.66" y1="412.444" x2="1830.19" y2="199.097" gradientUnits="userSpaceOnUse">
<stop stop-color="white" stop-opacity="0.14"/>
<stop offset="1" stop-color="#6758FF"/>
</linearGradient>
<clipPath id="clip0_33_1734">
<rect x="86" y="80" width="1172" height="391" rx="24" fill="white"/>
</clipPath>
</defs>
</svg>
