<svg width="28" height="28" viewBox="0 0 28 28" fill="none" xmlns="http://www.w3.org/2000/svg">
<path d="M26.25 13.125C26.25 13.3571 26.1578 13.5796 25.9937 13.7437C25.8296 13.9078 25.6071 14 25.375 14H21.875V17.5H22.75C23.2141 17.5 23.6592 17.6844 23.9874 18.0126C24.3156 18.3408 24.5 18.7859 24.5 19.25V22.75C24.5 23.2141 24.3156 23.6592 23.9874 23.9874C23.6592 24.3156 23.2141 24.5 22.75 24.5H19.25C18.7859 24.5 18.3408 24.3156 18.0126 23.9874C17.6844 23.6592 17.5 23.2141 17.5 22.75V19.25C17.5 18.7859 17.6844 18.3408 18.0126 18.0126C18.3408 17.6844 18.7859 17.5 19.25 17.5H20.125V14H7.875V17.5H8.75C9.21413 17.5 9.65925 17.6844 9.98744 18.0126C10.3156 18.3408 10.5 18.7859 10.5 19.25V22.75C10.5 23.2141 10.3156 23.6592 9.98744 23.9874C9.65925 24.3156 9.21413 24.5 8.75 24.5H5.25C4.78587 24.5 4.34075 24.3156 4.01256 23.9874C3.68437 23.6592 3.5 23.2141 3.5 22.75V19.25C3.5 18.7859 3.68437 18.3408 4.01256 18.0126C4.34075 17.6844 4.78587 17.5 5.25 17.5H6.125V14H2.625C2.39294 14 2.17038 13.9078 2.00628 13.7437C1.84219 13.5796 1.75 13.3571 1.75 13.125C1.75 12.8929 1.84219 12.6704 2.00628 12.5063C2.17038 12.3422 2.39294 12.25 2.625 12.25H13.125V9.625H12.25C11.7859 9.625 11.3408 9.44063 11.0126 9.11244C10.6844 8.78425 10.5 8.33913 10.5 7.875V4.375C10.5 3.91087 10.6844 3.46575 11.0126 3.13756C11.3408 2.80937 11.7859 2.625 12.25 2.625H15.75C16.2141 2.625 16.6592 2.80937 16.9874 3.13756C17.3156 3.46575 17.5 3.91087 17.5 4.375V7.875C17.5 8.33913 17.3156 8.78425 16.9874 9.11244C16.6592 9.44063 16.2141 9.625 15.75 9.625H14.875V12.25H25.375C25.6071 12.25 25.8296 12.3422 25.9937 12.5063C26.1578 12.6704 26.25 12.8929 26.25 13.125Z" fill="#18181B"/>
</svg>
