<svg width="16" height="16" viewBox="0 0 16 16" fill="none" xmlns="http://www.w3.org/2000/svg">
<path d="M7.64634 4.64625L2.64634 9.64625C2.57634 9.71618 2.52866 9.8053 2.50933 9.90235C2.49 9.99939 2.49991 10.1 2.53778 10.1914C2.57566 10.2828 2.63981 10.3609 2.7221 10.4159C2.8044 10.4708 2.90115 10.5001 3.00009 10.5L13.0001 10.5C13.099 10.5001 13.1958 10.4708 13.2781 10.4159C13.3604 10.3609 13.4245 10.2828 13.4624 10.1914C13.5003 10.1 13.5102 9.99939 13.4909 9.90235C13.4715 9.8053 13.4239 9.71618 13.3538 9.64625L8.35384 4.64625C8.30741 4.59976 8.25226 4.56288 8.19156 4.53772C8.13087 4.51256 8.0658 4.49961 8.00009 4.49961C7.93439 4.49961 7.86932 4.51256 7.80862 4.53772C7.74793 4.56288 7.69278 4.59976 7.64634 4.64625Z" fill="#18181B"/>
</svg>
