<svg width="16" height="16" viewBox="0 0 16 16" fill="none" xmlns="http://www.w3.org/2000/svg">
<path d="M7.64634 11.3537L2.64634 6.35375C2.57634 6.28382 2.52866 6.1947 2.50933 6.09765C2.49 6.00061 2.49991 5.90002 2.53778 5.8086C2.57566 5.71719 2.63981 5.63907 2.7221 5.58414C2.8044 5.5292 2.90115 5.49992 3.00009 5.5L13.0001 5.5C13.099 5.49992 13.1958 5.5292 13.2781 5.58414C13.3604 5.63908 13.4245 5.71719 13.4624 5.8086C13.5003 5.90002 13.5102 6.00061 13.4909 6.09765C13.4715 6.1947 13.4239 6.28382 13.3538 6.35375L8.35384 11.3538C8.30741 11.4002 8.25226 11.4371 8.19156 11.4623C8.13087 11.4874 8.0658 11.5004 8.00009 11.5004C7.93439 11.5004 7.86932 11.4874 7.80862 11.4623C7.74793 11.4371 7.69278 11.4002 7.64634 11.3537Z" fill="#18181B"/>
</svg>
