<svg width="64" height="24" viewBox="0 0 64 24" fill="none" xmlns="http://www.w3.org/2000/svg">
<g clip-path="url(#clip0_7765_4639)">
<path d="M9.93004 5.7264L4.96461 2.8632L0 5.7264V2.8632L4.96542 0L9.93086 2.8632V5.7264H9.93004Z" fill="white"/>
<path d="M0 8.13281H2.60085V14.444C2.60085 16.0752 3.81998 16.8696 4.96542 16.8696C6.11966 16.8696 7.33 16.0536 7.33 14.4224V8.13281H9.93086V14.5944C9.93086 16.0968 9.45821 17.256 8.51223 18.0504C7.56626 18.8448 6.38402 19.2312 4.94379 19.2312C3.50358 19.2312 2.32131 18.8448 1.39695 18.0504C0.472592 17.256 0 16.14 0 14.6584V8.13281Z" fill="white"/>
<path d="M32.4151 15.9729C31.6277 16.6729 30.7306 17.0161 29.7077 17.0161C27.8429 17.0161 26.591 15.9545 26.45 14.3105H34.8542C34.8542 14.3105 34.9094 13.7793 34.9094 13.2809C34.9094 11.7353 34.4152 10.4473 33.4051 9.39526C32.4167 8.3433 31.1271 7.82812 29.5579 7.82812C27.903 7.82812 26.5485 8.3433 25.4736 9.39526C24.4203 10.4473 23.8828 11.8209 23.8828 13.5385V13.6241C23.8828 15.3201 24.4203 16.6721 25.4736 17.6817C26.5269 18.6905 27.9239 19.2057 29.622 19.2057C31.5965 19.2057 33.1681 18.4281 34.3471 17.0865L32.4151 15.9729ZM27.4721 10.7049C28.052 10.2537 28.7617 10.0177 29.5571 10.0177C30.3093 10.0177 30.9324 10.2537 31.4699 10.7265C31.9834 11.1569 32.2605 11.6857 32.2846 12.2937H26.5157C26.599 11.6657 26.917 11.1361 27.4721 10.7049Z" fill="white"/>
<path d="M58.5977 20.668C57.5412 23.156 56.4374 24.0024 54.7449 24.0024C54.4549 24.0024 53.5722 24.0024 53.5722 24.0024V21.7C53.5722 21.7 53.9383 21.7 54.5206 21.7C55.103 21.7 55.6444 21.4816 56.1603 20.292C56.6761 19.1024 56.6761 19.1024 56.6761 19.1024L52.2266 8.13281H54.8707L58.0306 16.0328L61.2763 8.13281H63.9204C63.9204 8.13281 59.6847 18.1072 58.5977 20.668Z" fill="white"/>
<path d="M20.0564 3.98828V9.11145C19.2041 8.34825 17.8784 7.89465 16.596 7.89465C15.0701 7.89465 13.7805 8.4315 12.7272 9.5259C11.6955 10.5995 11.1797 11.9299 11.1797 13.5403C11.1797 15.1507 11.6955 16.4811 12.7272 17.5763C13.7805 18.6499 15.0701 19.1867 16.596 19.1867C18.3567 19.1867 19.4684 18.4963 20.0564 17.9547V18.9507H22.6356V3.98828H20.0564ZM19.2826 15.9027C18.6594 16.5251 17.864 16.8475 16.9397 16.8475C16.0153 16.8475 15.2632 16.5251 14.64 15.9027C14.0384 15.2803 13.7372 14.4859 13.7372 13.5411C13.7372 12.5963 14.0384 11.8019 14.64 11.1795C15.2632 10.5571 16.0153 10.2347 16.9397 10.2347C17.864 10.2347 18.6594 10.5571 19.2826 11.1795C19.9274 11.8019 20.2502 12.5963 20.2502 13.5411C20.2502 14.4859 19.9274 15.2803 19.2826 15.9027Z" fill="white"/>
<path d="M48.2177 7.91602C46.2584 7.91602 45.2395 8.72804 44.5419 9.50962C44.2631 8.97839 43.4773 7.91602 41.6406 7.91602C40.0891 7.91602 39.1736 8.69924 38.7178 9.25762V8.13119H36.1602V18.9504H38.7178V12.7248C38.7178 11.2648 39.6205 10.2128 40.8244 10.2128C42.0499 10.2128 42.7588 11.136 42.7588 12.6168V18.9496H45.3164V12.724C45.3164 11.2424 46.1976 10.212 47.4655 10.212C48.6911 10.212 49.4 11.1352 49.4 12.616V18.9488H51.9792V12.2512C51.9792 9.43042 50.4612 7.91602 48.2177 7.91602Z" fill="white"/>
</g>
<defs>
<clipPath id="clip0_7765_4639">
<rect width="64" height="24" fill="white"/>
</clipPath>
</defs>
</svg>
