<svg width="147" height="64" viewBox="0 0 147 64" fill="none" xmlns="http://www.w3.org/2000/svg">
<path fill-rule="evenodd" clip-rule="evenodd" d="M115.473 0C106.737 0 97.5909 4.93976 89.9378 10.6269C82.8086 15.9247 76.8286 21.9827 73.4644 25.6817C70.1003 21.9827 64.1203 15.9247 56.9911 10.6269C49.3379 4.93976 40.1918 0 31.4562 0C21.8033 0 14.0204 2.9134 8.65299 8.42153C3.28887 13.9262 0.457031 21.8993 0.457031 31.7855C0.457031 41.6718 3.28887 49.6449 8.65299 55.1495C14.0204 60.6577 21.8033 63.5711 31.4562 63.5711C40.1918 63.5711 49.3379 58.6313 56.9911 52.9442C64.1203 47.6463 70.1003 41.5884 73.4644 37.8894C76.8286 41.5884 82.8086 47.6463 89.9378 52.9442C97.5909 58.6313 106.737 63.5711 115.473 63.5711C125.126 63.5711 132.908 60.6577 138.276 55.1495C143.64 49.6449 146.472 41.6718 146.472 31.7855C146.472 21.8993 143.64 13.9262 138.276 8.42153C132.908 2.9134 125.126 0 115.473 0ZM31.4562 55.426C21.2343 55.426 15.5654 51.702 12.4008 47.011C9.18848 42.2495 8.4448 36.3282 8.4448 31.7855C8.4448 27.2429 9.18848 21.3216 12.4008 16.56C15.5654 11.8691 21.2343 8.14504 31.4562 8.14504C38.4518 8.14504 46.3231 12.573 53.2784 17.9453C59.7125 22.9151 65.19 28.5548 68.2075 31.7855C65.19 35.0163 59.7125 40.656 53.2784 45.6258C46.3231 50.9981 38.4518 55.426 31.4562 55.426ZM115.473 55.426C108.477 55.426 100.606 50.9981 93.6505 45.6258C87.2164 40.656 81.739 35.0163 78.7215 31.7855C81.739 28.5548 87.2164 22.9151 93.6505 17.9453C100.606 12.573 108.477 8.14504 115.473 8.14504C125.695 8.14504 131.363 11.8691 134.528 16.56C137.74 21.3216 138.484 27.2429 138.484 31.7855C138.484 36.3282 137.74 42.2495 134.528 47.011C131.363 51.702 125.695 55.426 115.473 55.426Z" fill="#040308"/>
</svg>
