<svg width="28" height="28" viewBox="0 0 28 28" fill="none" xmlns="http://www.w3.org/2000/svg">
<path d="M13.125 9.18744C12.4655 9.18738 11.8237 8.97444 11.295 8.58031C10.7663 8.18618 10.3789 7.63191 10.1905 6.99994L4.375 6.99994C4.14293 6.99994 3.92038 6.90776 3.75628 6.74366C3.59219 6.57957 3.5 6.35701 3.5 6.12494C3.5 5.89288 3.59219 5.67032 3.75628 5.50623C3.92038 5.34213 4.14293 5.24994 4.375 5.24994L10.1905 5.24994C10.3791 4.61817 10.7665 4.06412 11.2952 3.67019C11.8239 3.27626 12.4657 3.06348 13.125 3.06348C13.7843 3.06348 14.4261 3.27626 14.9548 3.67019C15.4835 4.06412 15.8709 4.61817 16.0595 5.24994L23.625 5.24994C23.8571 5.24994 24.0796 5.34213 24.2437 5.50623C24.4078 5.67032 24.5 5.89288 24.5 6.12494C24.5 6.35701 24.4078 6.57957 24.2437 6.74366C24.0796 6.90776 23.8571 6.99994 23.625 6.99994L16.0595 6.99994C15.8711 7.63191 15.4837 8.18618 14.955 8.58031C14.4263 8.97444 13.7845 9.18738 13.125 9.18744ZM21.3095 14.8749L23.625 14.8749C23.8571 14.8749 24.0796 14.7828 24.2437 14.6187C24.4078 14.4546 24.5 14.232 24.5 13.9999C24.5 13.7679 24.4078 13.5453 24.2437 13.3812C24.0796 13.2171 23.8571 13.1249 23.625 13.1249L21.3095 13.1249C21.1209 12.4932 20.7335 11.9391 20.2048 11.5452C19.6761 11.1513 19.0343 10.9385 18.375 10.9385C17.7157 10.9385 17.0739 11.1513 16.5452 11.5452C16.0165 11.9391 15.6291 12.4932 15.4405 13.1249L4.375 13.1249C4.14293 13.1249 3.92038 13.2171 3.75628 13.3812C3.59219 13.5453 3.5 13.7679 3.5 13.9999C3.5 14.232 3.59219 14.4546 3.75628 14.6187C3.92038 14.7828 4.14293 14.8749 4.375 14.8749L15.4405 14.8749C15.6291 15.5067 16.0165 16.0608 16.5452 16.4547C17.0739 16.8486 17.7157 17.0614 18.375 17.0614C19.0343 17.0614 19.6761 16.8486 20.2048 16.4547C20.7335 16.0608 21.1209 15.5067 21.3095 14.8749ZM12.5595 22.7499L23.625 22.7499C23.8571 22.7499 24.0796 22.6578 24.2437 22.4937C24.4078 22.3296 24.5 22.107 24.5 21.8749C24.5 21.6429 24.4078 21.4203 24.2437 21.2562C24.0796 21.0921 23.8571 20.9999 23.625 20.9999L12.5595 20.9999C12.3709 20.3682 11.9835 19.8141 11.4548 19.4202C10.9261 19.0263 10.2843 18.8135 9.625 18.8135C8.96567 18.8135 8.32395 19.0263 7.79524 19.4202C7.26653 19.8141 6.87907 20.3682 6.69047 20.9999L4.375 20.9999C4.14293 20.9999 3.92038 21.0921 3.75628 21.2562C3.59219 21.4203 3.5 21.6429 3.5 21.8749C3.5 22.107 3.59219 22.3296 3.75628 22.4937C3.92037 22.6578 4.14293 22.7499 4.375 22.7499L6.69047 22.7499C6.87907 23.3817 7.26653 23.9358 7.79524 24.3297C8.32395 24.7236 8.96567 24.9364 9.625 24.9364C10.2843 24.9364 10.9261 24.7236 11.4548 24.3297C11.9835 23.9358 12.3709 23.3817 12.5595 22.7499Z" fill="#18181B"/>
</svg>
