<svg width="144" height="24" viewBox="0 0 144 24" fill="none" xmlns="http://www.w3.org/2000/svg">
<g clip-path="url(#clip0_1742_15440)">
<path fill-rule="evenodd" clip-rule="evenodd" d="M38.4968 0L26.198 24H14.6697L19.7967 14.0444H19.5596C15.3513 19.5556 9.00926 23.1704 0 24V14.1926C0 14.1926 5.77897 13.8667 9.15744 10.2815H0V0H10.2836V8.47407H10.5207L14.729 0H22.5232V8.41481H22.7602L27.0871 0H38.4968Z" fill="#146EF5"/>
<path d="M105.445 21.363H108.765V2.34082H105.445V21.363Z" fill="#18181B"/>
<path fill-rule="evenodd" clip-rule="evenodd" d="M87.1874 21.1556C87.8986 21.4519 88.6395 21.6001 89.3804 21.6001C90.6251 21.6001 91.7216 21.3038 92.67 20.7112C93.6479 20.1186 94.3888 19.289 94.9223 18.2223C95.4557 17.1556 95.7224 15.9704 95.7224 14.6075C95.7224 13.2445 95.4557 12.0593 94.8926 10.9927C94.3296 9.926 93.5887 9.126 92.6107 8.53341C91.6327 7.94082 90.5066 7.64452 89.2619 7.67415C88.4617 7.67415 87.7208 7.8223 86.9799 8.14823C86.239 8.44452 85.6463 8.88897 85.1721 9.45193C85.1425 9.48156 85.1129 9.54082 85.0536 9.57045V2.34082H81.7344V21.3334H85.0239V19.5556C85.1128 19.6742 85.2018 19.763 85.2907 19.8519C85.8241 20.4149 86.4465 20.8593 87.1874 21.1556ZM90.5658 18.0742C90.0324 18.4001 89.41 18.5779 88.6988 18.5779C88.0171 18.5779 87.3652 18.4001 86.8021 18.0742C86.239 17.7186 85.7648 17.2445 85.4388 16.6519C85.1128 16.0593 84.935 15.3779 84.935 14.6075C84.935 13.8371 85.0832 13.1556 85.4092 12.563C85.7352 11.9704 86.2094 11.4964 86.7724 11.1408C87.3355 10.8149 87.9875 10.6371 88.6691 10.6371C89.3508 10.6371 89.9731 10.7853 90.5362 11.1112C91.0993 11.4371 91.5142 11.9112 91.8105 12.5038C92.1069 13.0964 92.2551 13.7779 92.2551 14.5779C92.2551 15.3482 92.1069 16.0297 91.8105 16.6519C91.5438 17.2742 91.1289 17.7482 90.5658 18.0742Z" fill="#18181B"/>
<path d="M43.2969 3.49609H47.0902L50.4687 15.8516L54.0843 3.49609H57.2257L61.1376 15.6146L64.3975 3.49609H67.8649L62.7379 21.3628H59.478L55.5068 9.51091L51.8616 21.3628H48.572L43.2969 3.49609Z" fill="#18181B"/>
<path fill-rule="evenodd" clip-rule="evenodd" d="M73.4387 21.6593C72.1051 21.6593 70.9196 21.363 69.8824 20.8001C68.8155 20.2075 68.0153 19.3778 67.393 18.3112C66.8003 17.2445 66.5039 16.0297 66.5039 14.6964C66.5039 13.363 66.8003 12.1778 67.4226 11.1112C68.045 10.0445 68.8748 9.21488 69.912 8.62229C70.9789 8.02969 72.1347 7.7334 73.4387 7.7334C74.8908 7.7334 76.1652 8.05932 77.2617 8.71118C78.3582 9.36303 79.188 10.2815 79.7214 11.4667C80.2845 12.6519 80.4623 14.0149 80.3142 15.526H69.912C69.9417 16.1482 70.0898 16.6815 70.3566 17.1853C70.6529 17.7482 71.0974 18.163 71.6309 18.4593C72.194 18.7556 72.7867 18.9334 73.4683 18.9334C73.9721 18.9334 74.4759 18.8445 74.9205 18.6667C75.365 18.489 75.7503 18.2519 76.0466 17.9556C76.3726 17.6593 76.5801 17.3038 76.7282 16.9482H80.1956C79.9882 17.8667 79.5733 18.6964 78.9213 19.4371C78.2989 20.1482 77.4988 20.7112 76.5504 21.126C75.6317 21.4815 74.5945 21.689 73.4387 21.6593ZM70.3862 12.1482C70.1787 12.4741 70.0602 12.8593 69.9713 13.2445H76.8764C76.8171 12.7408 76.669 12.2964 76.4319 11.9112C76.1355 11.4371 75.7503 11.0519 75.2464 10.8149C74.7426 10.5482 74.1796 10.4001 73.5572 10.4001C72.8756 10.4001 72.2829 10.5482 71.7198 10.8741C71.1567 11.1704 70.7122 11.5853 70.3862 12.1482Z" fill="#18181B"/>
<path d="M98.1845 7.97012C98.1845 6.87382 98.4216 5.92567 98.9254 5.09604C99.4292 4.23678 100.111 3.58493 101 3.11086C101.889 2.63678 102.956 2.39975 104.141 2.37012V5.33308C103.578 5.33308 103.104 5.4516 102.719 5.68864C102.334 5.89604 102.037 6.22197 101.83 6.63678C101.622 7.02197 101.533 7.46641 101.504 7.97012H104.082V10.7849H101.504V21.3627H98.1845V10.7849H96.0508V7.97012H98.1845Z" fill="#18181B"/>
<path fill-rule="evenodd" clip-rule="evenodd" d="M117.182 21.6297C115.818 21.6297 114.633 21.3334 113.566 20.7408C112.499 20.1482 111.669 19.3186 111.077 18.2519C110.484 17.1853 110.188 16.0001 110.188 14.6371C110.188 13.2742 110.484 12.089 111.077 11.0223C111.669 9.95564 112.529 9.12601 113.566 8.53342C114.633 7.94083 115.848 7.64453 117.182 7.64453C118.545 7.64453 119.76 7.94083 120.827 8.53342C121.894 9.12601 122.753 9.95564 123.346 11.0223C123.938 12.089 124.235 13.3038 124.264 14.6371C124.264 15.9705 123.938 17.1853 123.346 18.2519C122.753 19.3186 121.923 20.1186 120.856 20.7408C119.76 21.3334 118.545 21.6297 117.182 21.6297ZM117.182 18.6075C117.893 18.6075 118.515 18.4593 119.078 18.1334C119.641 17.8075 120.056 17.3334 120.353 16.7408C120.649 16.1482 120.797 15.4668 120.797 14.6964C120.797 13.926 120.649 13.2445 120.353 12.6223C120.056 12.0297 119.641 11.5556 119.078 11.2297C118.515 10.9038 117.893 10.726 117.182 10.726C116.47 10.726 115.848 10.9038 115.314 11.2297C114.781 11.5556 114.366 12.0001 114.04 12.6223C113.744 13.2149 113.596 13.8964 113.596 14.6964C113.596 15.4668 113.744 16.1482 114.04 16.7408C114.337 17.3334 114.781 17.8075 115.314 18.1334C115.848 18.4297 116.47 18.6075 117.182 18.6075Z" fill="#18181B"/>
<path d="M127.818 7.9707H124.113L128.114 21.3337H131.344L133.982 12.8003L136.827 21.3337H139.998L143.999 7.9707H140.65L138.398 16.2966L135.879 7.9707H132.648L130.159 16.4744L127.818 7.9707Z" fill="#18181B"/>
</g>
<defs>
<clipPath id="clip0_1742_15440">
<rect width="144" height="24" fill="white"/>
</clipPath>
</defs>
</svg>
