<svg width="24" height="30" viewBox="0 0 24 30" fill="none" xmlns="http://www.w3.org/2000/svg">
<path d="M2.00036 14.1924C1.9903 12.9585 2.19144 11.7321 2.59606 10.5664L6.3822 11.8135C6.08264 12.5411 5.92907 13.3196 5.92907 14.1064C5.92915 17.4369 8.63634 20.0428 11.9759 20.043C15.3157 20.043 18.0227 17.437 18.0228 14.1064C18.0228 13.969 18.0181 13.8344 18.0091 13.6992C18.0058 13.6322 18.0001 13.5649 17.9945 13.499V13.4883C17.952 12.9922 17.8402 12.5048 17.6615 12.04L17.6595 12.039C17.6305 11.9643 17.6021 11.8901 17.5697 11.8164L21.4144 10.5498C21.8135 11.7055 22.0115 12.9208 22.0004 14.1435V14.1611C22.0003 16.8491 21.0065 19.3262 19.2025 21.1357C17.365 22.9787 14.8019 23.9955 11.9965 24C9.19206 24.0045 6.63549 22.9962 4.80016 21.1621C2.99968 19.3616 2.00046 16.8928 2.00036 14.2129V14.1924ZM13.8597 4.8076C13.8597 3.20151 15.1651 1.8994 16.7758 1.8994C18.3864 1.89945 19.6918 3.20154 19.6918 4.8076C19.6918 6.41366 18.3864 7.71575 16.7758 7.7158C15.1651 7.7158 13.8597 6.41369 13.8597 4.8076ZM4.21325 5.2285C4.18978 5.00721 4.18978 4.78476 4.21325 4.56346C4.2166 4.53779 4.22834 4.51284 4.24841 4.49608C4.26853 4.4782 4.29496 4.46971 4.32067 4.46971L6.24645 4.46971L4.88513 3.11131C4.86612 3.09343 4.85499 3.06768 4.85388 3.04198C4.85283 3.01636 4.86061 2.98976 4.87731 2.96971C4.9477 2.88258 5.02274 2.79986 5.10095 2.72166C5.17915 2.64348 5.26284 2.56826 5.34997 2.49901C5.37112 2.48237 5.39665 2.4745 5.42223 2.47557C5.44789 2.4778 5.47258 2.4879 5.49157 2.50682L6.85388 3.86522L6.85388 1.94432C6.85398 1.91875 6.86454 1.89291 6.88122 1.87401C6.89798 1.85515 6.92301 1.84317 6.9486 1.83983L6.94958 1.83592C7.173 1.81249 7.39803 1.81428 7.62145 1.83885C7.6469 1.84121 7.6712 1.85425 7.68786 1.87303C7.70568 1.89197 7.71514 1.91772 7.7152 1.94334L7.7152 3.86424L9.07653 2.50584C9.09552 2.48802 9.12118 2.47669 9.14684 2.47557C9.17243 2.47449 9.19905 2.48238 9.21911 2.49901C9.39227 2.63641 9.55029 2.79379 9.68884 2.9658C9.7056 2.98592 9.71339 3.01222 9.71227 3.03905C9.71113 3.06471 9.7 3.08941 9.68102 3.10838L8.3197 4.4658L10.2435 4.4658C10.2691 4.46588 10.2938 4.47534 10.3138 4.49315C10.3338 4.51101 10.3456 4.53491 10.349 4.56053C10.3613 4.67105 10.3675 4.78288 10.3675 4.89452C10.3675 5.00508 10.3613 5.11598 10.349 5.22655C10.3456 5.25199 10.3326 5.27628 10.3138 5.29295C10.2949 5.30965 10.2691 5.32021 10.2435 5.3203L8.31774 5.3203L9.67907 6.67772C9.698 6.69665 9.70913 6.72145 9.71032 6.74705C9.71144 6.77388 9.70365 6.80018 9.68688 6.8203C9.61649 6.90744 9.54257 6.99 9.46325 7.06932C9.38505 7.14752 9.30136 7.22271 9.21423 7.29198C9.19411 7.30874 9.16669 7.31653 9.14098 7.31541C9.11424 7.31427 9.08964 7.30296 9.07067 7.28514L7.70934 5.92674V7.84666C7.70934 7.87237 7.69877 7.89895 7.682 7.91795C7.66529 7.93665 7.64103 7.94877 7.61559 7.95213C7.39444 7.97671 7.17088 7.97667 6.9486 7.95213C6.92302 7.94991 6.89907 7.9368 6.88122 7.91795C6.86334 7.89895 6.85388 7.87237 6.85388 7.84666V5.92674L5.49157 7.28514C5.47369 7.30404 5.44787 7.31528 5.42223 7.31639C5.39557 7.31746 5.37001 7.30956 5.34997 7.29295C5.26285 7.22371 5.18025 7.14847 5.10095 7.0703C5.02164 6.991 4.94769 6.90825 4.87731 6.82225C4.86063 6.80223 4.85285 6.77558 4.85388 6.74998C4.85499 6.72428 4.86612 6.69965 4.88513 6.68065L6.24645 5.32225L4.32067 5.32225C4.29385 5.32225 4.26853 5.31265 4.24841 5.29588C4.22833 5.27914 4.21662 5.25416 4.21325 5.2285Z" fill="white"/>
</svg>
