<svg width="17" height="16" viewBox="0 0 17 16" fill="none" xmlns="http://www.w3.org/2000/svg">
<rect x="0.5" width="16" height="16" rx="8" fill="#18181B"/>
<path d="M14.1353 4.9186C14.6366 5.83325 14.9219 6.88291 14.9219 7.99946C14.9219 10.3687 13.6379 12.4371 11.7287 13.5503L13.6901 7.87912C14.0565 6.96295 14.1785 6.23038 14.1785 5.57899C14.1785 5.34255 14.1629 5.12313 14.1353 4.9186ZM9.38504 4.98851C9.77166 4.96818 10.12 4.92751 10.12 4.92751C10.4661 4.88655 10.4253 4.37801 10.0791 4.39827C10.0791 4.39827 9.03885 4.4799 8.36734 4.4799C7.73635 4.4799 6.67603 4.39827 6.67603 4.39827C6.32969 4.37801 6.2891 4.90703 6.63529 4.92751C6.63529 4.92751 6.96288 4.96818 7.30891 4.98851L8.30937 7.72992L6.90377 11.9448L4.56528 4.98851C4.95221 4.96818 5.30021 4.92751 5.30021 4.92751C5.64601 4.88655 5.6052 4.37801 5.25916 4.39827C5.25916 4.39827 4.21917 4.4799 3.54759 4.4799C3.42711 4.4799 3.28508 4.47695 3.13428 4.47211C4.28259 2.72881 6.2563 1.57757 8.5 1.57757C10.1718 1.57757 11.6941 2.2168 12.8366 3.26365C12.8089 3.26199 12.782 3.25851 12.7535 3.25851C12.1226 3.25851 11.675 3.80802 11.675 4.39827C11.675 4.92751 11.9804 5.37528 12.3058 5.90446C12.5501 6.33219 12.8353 6.88162 12.8353 7.67557C12.8353 8.22515 12.6239 8.86302 12.3467 9.7516L11.7059 11.8918L9.38504 4.98851ZM8.5 14.4219C7.86961 14.4219 7.26122 14.3294 6.6857 14.1602L8.61277 8.56121L10.5866 13.9693C10.5996 14.001 10.6156 14.0303 10.6326 14.0578C9.96508 14.2928 9.24785 14.4219 8.5 14.4219ZM2.07804 7.99946C2.07804 7.06839 2.27774 6.18458 2.63413 5.38594L5.69756 13.7791C3.55507 12.7383 2.07804 10.5414 2.07804 7.99946ZM8.5 0.856864C4.56143 0.856864 1.35718 4.061 1.35718 7.99946C1.35718 11.9381 4.56143 15.1426 8.5 15.1426C12.4385 15.1426 15.6429 11.9381 15.6429 7.99946C15.6429 4.061 12.4385 0.856864 8.5 0.856864Z" fill="white"/>
</svg>
