<svg width="122" height="24" viewBox="0 0 122 24" fill="none" xmlns="http://www.w3.org/2000/svg">
<g clip-path="url(#clip0_7765_4628)">
<path d="M68.2002 4.75C68.4091 4.75 68.4613 5.00532 68.4613 5.20957C68.5135 6.0266 68.5658 6.79255 68.5658 7.60957C68.618 8.37553 68.618 9.14149 68.618 9.90745C69.088 9.55 69.5057 9.19255 70.0279 9.03936C70.8635 8.68192 71.8557 8.68191 72.6912 9.09043C73.5789 9.55 74.1534 10.367 74.4667 11.2351C74.7278 12.1032 74.8322 13.0223 74.78 13.8904C74.6756 14.9628 74.4145 15.984 73.7878 16.8521C73.4223 17.3628 72.9523 17.7713 72.3257 17.9755C71.3335 18.333 70.289 18.1798 69.4013 17.6692C69.1402 17.516 68.8791 17.2606 68.6702 17.0564C68.5658 17.3628 68.5135 17.6692 68.4091 17.9755C67.9391 17.9755 67.5213 18.0266 67.0514 17.9245C67.208 17.2096 67.208 16.4436 67.2602 15.7287C67.3125 13.1245 67.2602 10.5202 67.2602 7.96702C67.208 6.94574 67.2602 5.92447 67.1036 4.95426C67.4169 4.85213 67.8347 4.75 68.2002 4.75ZM71.6468 10.1117C71.229 10.0096 70.8112 10.0096 70.4457 10.0606C69.7146 10.1628 69.1402 10.6734 68.6702 11.184C68.6702 11.3372 68.6702 11.5415 68.6702 11.6947V15.8309C68.6702 15.984 68.7746 16.0862 68.8791 16.1372C69.6102 16.8011 70.6546 17.1074 71.5946 16.9032C72.0646 16.8011 72.4823 16.4947 72.6912 16.0862C73.0567 15.5245 73.1612 14.8606 73.2134 14.1968C73.2656 13.6862 73.3178 13.1755 73.2656 12.716C73.2656 12.1543 73.109 11.5415 72.7956 11.0309C72.5345 10.5202 72.1168 10.2138 71.6468 10.1117ZM77.6522 5.10745C77.9133 5.00532 78.2788 5.00532 78.5399 5.15851C78.801 5.3117 79.0099 5.56702 79.1143 5.82234C79.271 6.43511 78.801 7.09894 78.1744 7.15C77.7044 7.20106 77.1822 6.94574 77.0255 6.43511C76.8166 5.97553 77.13 5.3117 77.6522 5.10745ZM34.4656 6.17979C35.1445 5.72021 35.98 5.36277 36.8156 5.36277C37.7033 5.36277 38.5911 5.41383 39.3744 5.77128C39.6877 5.92447 40.001 6.07766 40.3144 6.28192C40.1055 6.63936 39.8444 6.89468 39.5833 7.20106C39.2699 7.04787 38.9566 6.84362 38.5911 6.69043C37.7555 6.38404 36.7633 6.33298 35.9278 6.69043C35.1967 6.94574 34.6223 7.50745 34.2568 8.17128C34.0479 8.68192 33.839 9.19255 33.7345 9.70319C33.6301 10.2138 33.6301 10.7245 33.5779 11.2351C33.5779 11.8989 33.5257 12.6138 33.5779 13.2777C33.6823 14.2479 34.0479 15.167 34.6745 15.8819C35.2489 16.5457 36.0845 16.9032 36.9722 17.0053C37.4422 17.0053 37.86 17.0053 38.33 16.9032C38.8522 16.8011 39.3222 16.4947 39.8444 16.2904C40.1055 16.5457 40.3666 16.9032 40.6277 17.2096C40.2621 17.4138 39.8966 17.6181 39.4788 17.7713C38.4344 18.1798 37.2333 18.2309 36.1367 18.0777C35.3012 17.9245 34.5701 17.516 33.9434 17.0053C33.2123 16.3926 32.6901 15.5755 32.3768 14.7074C32.1679 14.0947 32.0635 13.4819 32.0113 12.8692C32.0113 12.4096 31.9068 11.95 32.0113 11.4394C32.0113 10.5713 32.1679 9.65213 32.5335 8.83511C32.899 7.81383 33.5257 6.84362 34.4656 6.17979Z" fill="white"/>
<path d="M24.3867 24H0V0H24.3867V24ZM15.3008 5.9248C14.4131 7.66089 13.5254 9.34595 12.6377 11.082C12.481 11.3884 12.3246 11.6441 12.168 11.8994C11.9591 11.593 11.8022 11.2862 11.6455 10.9287C10.8101 9.2948 10.0264 7.66097 9.24316 6.07812C9.1911 6.02712 9.1912 5.9756 9.08691 5.97559C8.5648 5.92453 8.04262 5.9248 7.52051 5.9248C7.41611 5.9248 7.31143 5.97555 7.20703 5.97559C7.46813 6.43516 7.72959 6.8952 7.93848 7.30371C9.03506 9.34616 10.0792 11.3377 11.1758 13.3291C11.2802 13.4823 11.2803 13.6867 11.2803 13.8398V18.4355H13.0029V13.7373C13.0029 13.6354 13.0035 13.5844 13.0557 13.4824C14.2567 11.2868 15.4577 9.09112 16.6064 6.89551C16.7631 6.58912 16.9717 6.33303 17.0762 5.97559C16.4497 5.87357 15.8751 5.9248 15.3008 5.9248Z" fill="white"/>
<path d="M101.416 6.68948C101.886 6.53629 102.356 6.43416 102.878 6.33203C102.774 7.20012 102.721 8.0682 102.721 8.98735C103.452 8.98735 104.236 8.98735 104.967 9.03841C104.862 9.39586 104.706 9.70224 104.549 10.0086C103.922 10.0086 103.296 10.0086 102.617 10.0086C102.617 10.8256 102.617 11.6427 102.617 12.4597C102.617 13.0725 102.669 13.7363 102.617 14.4001C102.617 15.115 102.617 15.881 102.669 16.5959C102.669 16.9022 102.982 17.1065 103.244 17.2086C103.714 17.3108 104.184 17.2597 104.654 17.1576C104.758 17.4129 104.81 17.7193 104.81 17.9746C104.392 18.1788 103.922 18.2299 103.452 18.281C102.826 18.281 102.095 18.1788 101.625 17.7193C101.259 17.3618 101.259 16.8001 101.207 16.3405C101.155 15.3193 101.207 14.2469 101.155 13.2256C101.155 12.1533 101.155 11.132 101.155 10.0597C100.737 10.0597 100.319 10.0597 99.9536 10.0597C99.9536 9.70224 99.9536 9.3448 99.9536 9.03841C100.371 9.03841 100.737 9.03841 101.155 9.03841C101.311 8.22139 101.311 7.40437 101.416 6.68948ZM46.0619 8.73203C46.4274 8.73203 46.8452 8.73203 47.2107 8.83416C48.0463 9.08948 48.7774 9.70224 49.1951 10.4171C49.5607 11.081 49.8218 11.7959 49.874 12.5618C49.9262 13.5831 49.9784 14.6044 49.6129 15.5746C49.2996 16.4937 48.6729 17.3108 47.7852 17.7703C46.8974 18.2299 45.853 18.281 44.913 18.0256C44.0775 17.8214 43.3464 17.2597 42.8242 16.5448C42.302 15.7788 42.0931 14.8597 42.0931 13.8895C42.0931 13.0214 42.0409 12.1022 42.3542 11.2342C42.6153 10.4171 43.1897 9.65118 43.9731 9.14054C44.3386 8.93629 44.7041 8.73203 45.1219 8.68097C45.4352 8.73203 45.7486 8.73203 46.0619 8.73203ZM45.3308 9.9065C44.8608 10.0086 44.3908 10.315 44.1297 10.7235C43.7642 11.3363 43.6597 12.0512 43.6597 12.7661C43.6075 13.2767 43.6597 13.7874 43.7119 14.298C43.8164 14.9108 43.9208 15.5746 44.2342 16.1363C44.5475 16.7491 45.2264 17.0044 45.9052 17.0554C46.5319 17.1065 47.2107 16.9533 47.6807 16.4427C48.0463 16.0342 48.2552 15.5746 48.3074 15.0129C48.4118 14.3491 48.4118 13.6852 48.3596 13.0725C48.3596 12.4086 48.2552 11.6937 47.994 11.0299C47.8374 10.6214 47.5241 10.315 47.1585 10.1108C46.5841 9.80437 45.9574 9.75331 45.3308 9.9065ZM52.4328 9.03841C52.8506 8.88522 53.2683 8.7831 53.7383 8.73203C53.895 9.14054 53.9994 9.54905 54.0517 10.0086C54.365 9.85544 54.5739 9.60012 54.8872 9.44693C55.5138 8.98735 56.2971 8.73203 57.0805 8.73203C57.2371 8.73203 57.446 8.7831 57.6027 8.88522C57.8638 9.03841 58.1249 9.14054 58.386 9.3448C58.5949 9.54905 58.7515 9.85544 58.9082 10.1108C59.2737 9.95756 59.5348 9.65118 59.8481 9.44693C60.3704 9.08948 60.997 8.7831 61.7281 8.73203C62.3547 8.68097 62.9814 8.88522 63.4514 9.29373C63.6603 9.49799 63.8691 9.70224 63.9736 9.95756C64.078 10.2129 64.1302 10.4682 64.1302 10.7746C64.2347 12.2044 64.1825 13.6852 64.2347 15.115C64.2347 16.0852 64.2347 17.0554 64.2347 18.0256C63.7647 18.0256 63.2425 18.0256 62.7725 18.0256C62.7725 16.5959 62.7725 15.115 62.7725 13.6852C62.7725 12.7661 62.7725 11.8469 62.7203 10.8767C62.6681 10.5703 62.5114 10.315 62.2503 10.1108C61.9892 9.95756 61.6237 9.95756 61.2581 9.95756C60.6837 10.0086 60.2137 10.3661 59.7437 10.7235C59.5348 10.8767 59.3259 11.081 59.1171 11.2342C59.0648 11.2852 59.0648 11.3874 59.0648 11.4384C59.0648 13.6342 59.0648 15.7788 59.0648 17.9746C58.5949 17.9746 58.0726 17.9746 57.6027 17.9746V12.8682C57.6027 12.4597 57.6027 12.0512 57.6027 11.6427C57.6027 11.2342 57.6027 10.7746 57.446 10.4171C57.1327 10.0086 56.5582 9.9065 56.0883 10.0597C55.3572 10.2129 54.7305 10.6725 54.1561 11.1831C54.0516 11.2342 54.0517 11.3363 54.0517 11.4384C54.0517 13.6342 54.0517 15.8299 54.0517 18.0256C53.6339 18.0256 53.2161 18.0256 52.7984 18.0256C52.7461 15.7788 52.7984 13.532 52.6939 11.2852C52.6939 10.7746 52.6939 10.2639 52.5895 9.75331C52.5372 9.49799 52.4328 9.24267 52.4328 9.03841ZM77.3421 8.98735C77.8121 8.93629 78.2821 8.83416 78.752 8.73203C78.8043 10.0086 78.8043 11.2852 78.8043 12.5108C78.8043 14.3491 78.8043 16.1363 78.8043 17.9746C78.3343 17.9746 77.8121 17.9746 77.3421 17.9746C77.3421 15.3703 77.3421 12.7661 77.3421 10.1618C77.3421 9.80437 77.2899 9.3448 77.3421 8.98735ZM96.0893 8.7831C97.0815 8.93629 97.917 9.85544 97.9693 10.8767C98.0215 12.3576 97.9693 13.8895 97.9693 15.3703V15.8299C97.9693 16.1363 97.9693 16.4427 98.0737 16.698C98.1259 17.0044 98.4392 17.1576 98.6481 17.3108C98.4392 17.5661 98.2826 17.9235 98.0215 18.1278C97.8648 18.281 97.6559 18.1278 97.5515 18.0256C97.186 17.7703 96.9771 17.4129 96.7682 17.0044C96.4549 17.1576 96.246 17.4639 95.8804 17.6171C95.3582 17.9746 94.7316 18.1278 94.0527 18.1278C93.4783 18.1278 92.9039 18.0256 92.3816 17.7703C91.5461 17.3108 91.0761 16.3916 91.1284 15.4725C91.1284 14.6044 91.5983 13.7363 92.2772 13.2256C93.1127 12.6129 94.2094 12.4086 95.2538 12.3065C95.7238 12.2554 96.1938 12.2554 96.716 12.2554C96.716 11.7959 96.716 11.3363 96.6115 10.8767C96.5593 10.5193 96.3504 10.1108 95.9849 9.9065C95.5671 9.70224 95.0449 9.65118 94.5749 9.75331C93.6872 9.85544 92.8516 10.2129 92.1205 10.7235C91.9117 10.4682 91.7028 10.2129 91.5461 9.9065C91.4417 9.75331 91.5983 9.65118 91.7028 9.60012C92.695 9.08948 93.7394 8.6299 94.8882 8.6299H95.3582C95.6193 8.73203 95.8282 8.73203 96.0893 8.7831ZM95.4627 13.3278C94.9927 13.3788 94.5749 13.3788 94.1049 13.481C93.5827 13.6342 93.1127 13.9405 92.7994 14.4001C92.6427 14.6554 92.6427 14.9618 92.6427 15.2682C92.6427 15.5746 92.5905 15.932 92.7472 16.2384C92.8516 16.5448 93.1127 16.8512 93.4261 16.9533C93.7916 17.1065 94.2094 17.1065 94.6271 17.1065C95.0971 17.0554 95.5149 16.8001 95.8804 16.4937C96.1938 16.2384 96.5071 15.932 96.5071 15.5235C96.5593 14.8086 96.5593 14.0427 96.5593 13.3278C96.1938 13.3788 95.8282 13.2767 95.4627 13.3278ZM111.338 8.83416C112.173 9.03841 112.904 9.54905 113.427 10.2129C113.844 10.7746 114.105 11.3874 114.21 12.0512C114.314 12.6639 114.367 13.3278 114.314 13.9916C114.314 15.0639 113.949 16.0852 113.322 16.9022C112.8 17.5661 111.964 17.9746 111.181 18.1278C110.189 18.281 109.092 18.1278 108.205 17.515C107.473 17.0044 107.003 16.1874 106.742 15.3193C106.586 14.8597 106.586 14.4512 106.533 13.9916C106.533 13.2256 106.533 12.5108 106.638 11.7448C106.847 10.9278 107.265 10.1108 107.891 9.49799C108.361 9.03841 108.988 8.7831 109.614 8.68097C110.241 8.68097 110.816 8.73203 111.338 8.83416ZM109.771 9.9065C109.092 10.0086 108.518 10.5193 108.309 11.132C108.048 11.7959 108.048 12.5108 108.048 13.1746C108.048 13.8384 108.048 14.5022 108.205 15.115C108.309 15.5746 108.413 15.9831 108.727 16.3405C108.988 16.698 109.458 16.9022 109.876 16.9533C110.032 17.0044 110.241 17.0044 110.398 17.0044H110.554H110.711C111.077 16.9533 111.39 16.8512 111.703 16.698C112.069 16.4937 112.33 16.1363 112.487 15.7278C112.643 15.2682 112.696 14.7576 112.748 14.298C112.748 13.7363 112.8 13.1746 112.748 12.5618C112.696 11.9491 112.643 11.3363 112.33 10.8256C112.069 10.4171 111.703 10.1108 111.233 9.9065C110.763 9.80437 110.241 9.80437 109.771 9.9065ZM116.821 9.08948C117.291 8.98735 117.709 8.83416 118.126 8.73203C118.388 9.19161 118.388 9.70224 118.44 10.1618C118.649 10.0086 118.858 9.80437 119.066 9.60012C119.693 8.98735 120.633 8.6299 121.521 8.7831V8.88522C121.312 9.29373 121.207 9.75331 120.999 10.2129C120.999 10.315 120.842 10.2639 120.79 10.2639C120.424 10.2639 119.954 10.2639 119.641 10.4682C119.275 10.6725 119.014 10.9278 118.753 11.2342C118.492 11.5405 118.544 11.9491 118.544 12.3065C118.544 12.8171 118.492 13.3278 118.544 13.8384C118.544 15.2171 118.544 16.6469 118.544 18.0256C118.074 18.0256 117.552 18.0256 117.082 18.0256C117.082 16.4937 117.082 14.9108 117.082 13.3788C117.082 12.3065 117.082 11.2852 117.03 10.2129C116.978 9.80437 116.873 9.44692 116.821 9.08948ZM81.6242 9.08948C82.042 8.93629 82.5119 8.7831 82.9297 8.7831C83.0864 9.19161 83.1908 9.65118 83.243 10.0597C83.6086 9.80437 83.9741 9.49799 84.3397 9.29373C85.123 8.83416 86.0629 8.52778 86.8985 8.83416C87.4207 8.98735 87.8907 9.29373 88.204 9.75331C88.4651 10.0597 88.5173 10.5193 88.5695 10.8767C88.674 12.3065 88.6218 13.6852 88.6218 15.115C88.6218 16.0852 88.6218 17.0044 88.6218 17.9235C88.1518 17.9235 87.6296 17.9235 87.1596 17.9235C87.1596 16.3916 87.1074 14.8086 87.1074 13.2767C87.1074 12.4086 87.1074 11.5405 87.0029 10.6725C86.8463 10.2639 86.4807 9.9065 86.0107 9.9065C85.6974 9.9065 85.3319 9.9065 85.0185 10.0086C84.3397 10.2639 83.713 10.6725 83.1386 11.132C83.1386 13.3788 83.1386 15.6767 83.1386 17.9235C82.7208 17.9235 82.3031 17.9235 81.8853 17.9235C81.8853 16.6469 81.8331 15.3703 81.8331 14.0427C81.8331 12.715 81.8331 11.3874 81.7286 10.0597C81.8331 9.80437 81.7286 9.44692 81.6242 9.08948Z" fill="white"/>
</g>
<defs>
<clipPath id="clip0_7765_4628">
<rect width="122" height="24" fill="white"/>
</clipPath>
</defs>
</svg>
