<svg width="59" height="24" viewBox="0 0 59 24" fill="none" xmlns="http://www.w3.org/2000/svg">
<path d="M0 10C0 6.68629 2.68629 4 6 4H10C13.3137 4 16 6.68629 16 10V14C16 17.3137 13.3137 20 10 20H6C2.68629 20 0 17.3137 0 14V10Z" fill="#FB651E"/>
<path d="M7.43697 12.9097L4.57227 7.60571H5.88147L7.56659 10.9623C7.59252 11.0221 7.62277 11.0841 7.65733 11.1481C7.6919 11.2122 7.72214 11.2784 7.74807 11.3467C7.76535 11.3723 7.77831 11.3958 7.78696 11.4172C7.7956 11.4385 7.80424 11.4577 7.81288 11.4748C7.85609 11.5602 7.89498 11.6435 7.92954 11.7246C7.96411 11.8058 7.99436 11.8805 8.02028 11.9488C8.08941 11.8036 8.16503 11.6478 8.24712 11.4812C8.32922 11.3147 8.41348 11.1417 8.49989 10.9623L10.2109 7.60571H11.4294L8.53878 12.9738V16.3944H7.43697V12.9097Z" fill="white"/>
<path d="M22.338 13.24C22.338 17.132 24.172 19.092 24.718 19.554L23.668 20.618C23.01 20.1 20.658 17.944 20.658 13.24C20.658 8.536 23.01 6.38 23.668 5.862L24.718 6.926C24.172 7.388 22.338 9.348 22.338 13.24ZM29.8189 8.354C28.4889 8.354 27.8589 9.138 27.8589 9.936C27.8589 10.832 28.4469 11.434 30.2249 11.574C32.7589 11.784 34.0609 12.75 34.0609 14.808C34.0609 16.768 32.4089 18.182 29.9029 18.182C27.2429 18.182 25.5629 16.74 25.7449 13.912H27.3689C27.2709 15.704 28.0969 16.726 29.9449 16.726C31.5129 16.726 32.3389 15.914 32.3389 14.948C32.3389 13.884 31.7089 13.296 29.7209 13.128C27.4949 12.932 26.1369 12.078 26.1369 10.062C26.1369 8.354 27.5649 6.898 29.8609 6.898C32.5629 6.898 33.7249 8.648 33.6269 10.72H32.0029C32.0589 9.362 31.4429 8.354 29.8189 8.354ZM35.298 18V16.894C35.69 16.698 38.182 15.326 39.792 13.73C40.856 12.666 41.43 11.588 41.43 10.468C41.43 9.194 40.604 8.41 39.274 8.41C38 8.41 37.146 9.068 37.104 10.496H35.494C35.578 8.354 36.754 6.898 39.274 6.898C41.556 6.898 43.082 8.27 43.082 10.384C43.082 12.022 42.284 13.17 40.912 14.458C39.736 15.578 38.21 16.432 38 16.516L43.292 16.502V18H35.298ZM51.9774 16.502V18H44.7254V16.502H47.6094V9.306C47.6094 9.306 46.4334 10.51 44.5854 10.93V9.404C46.6154 8.858 48.0434 6.898 48.0434 6.898H49.2614V16.502H51.9774ZM55.6649 13.24C55.6649 9.348 53.8309 7.388 53.2849 6.926L54.3349 5.862C54.9929 6.38 57.3449 8.536 57.3449 13.24C57.3449 17.944 54.9929 20.1 54.3349 20.618L53.2849 19.554C53.8309 19.092 55.6649 17.132 55.6649 13.24Z" fill="#3F3F46"/>
</svg>
