<svg width="123" height="24" viewBox="0 0 123 24" fill="none" xmlns="http://www.w3.org/2000/svg">
<g clip-path="url(#clip0_440_278)">
<path d="M68.9502 4.75C69.1591 4.75 69.2113 5.00532 69.2113 5.20957C69.2635 6.0266 69.3158 6.79255 69.3158 7.60957C69.368 8.37553 69.368 9.14149 69.368 9.90745C69.838 9.55 70.2557 9.19255 70.7779 9.03936C71.6135 8.68192 72.6057 8.68191 73.4412 9.09043C74.3289 9.55 74.9034 10.367 75.2167 11.2351C75.4778 12.1032 75.5822 13.0223 75.53 13.8904C75.4256 14.9628 75.1645 15.984 74.5378 16.8521C74.1723 17.3628 73.7023 17.7713 73.0757 17.9755C72.0835 18.333 71.039 18.1798 70.1513 17.6692C69.8902 17.516 69.6291 17.2606 69.4202 17.0564C69.3158 17.3628 69.2635 17.6692 69.1591 17.9755C68.6891 17.9755 68.2713 18.0266 67.8014 17.9245C67.958 17.2096 67.958 16.4436 68.0102 15.7287C68.0625 13.1245 68.0102 10.5202 68.0102 7.96702C67.958 6.94575 68.0102 5.92447 67.8536 4.95426C68.1669 4.85213 68.5847 4.75 68.9502 4.75ZM72.3968 10.1117C71.979 10.0096 71.5612 10.0096 71.1957 10.0606C70.4646 10.1628 69.8902 10.6734 69.4202 11.184C69.4202 11.3372 69.4202 11.5415 69.4202 11.6947V15.8309C69.4202 15.984 69.5246 16.0862 69.6291 16.1372C70.3602 16.8011 71.4046 17.1074 72.3446 16.9032C72.8146 16.8011 73.2323 16.4947 73.4412 16.0862C73.8067 15.5245 73.9112 14.8606 73.9634 14.1968C74.0156 13.6862 74.0678 13.1755 74.0156 12.716C74.0156 12.1543 73.859 11.5415 73.5456 11.0309C73.2845 10.5202 72.8668 10.2138 72.3968 10.1117ZM78.4022 5.10745C78.6633 5.00532 79.0288 5.00532 79.2899 5.15851C79.551 5.3117 79.7599 5.56702 79.8643 5.82234C80.021 6.43511 79.551 7.09894 78.9244 7.15C78.4544 7.20106 77.9322 6.94575 77.7755 6.43511C77.5666 5.97553 77.88 5.3117 78.4022 5.10745ZM35.2156 6.17979C35.8945 5.72021 36.73 5.36277 37.5656 5.36277C38.4533 5.36277 39.3411 5.41383 40.1244 5.77128C40.4377 5.92447 40.751 6.07766 41.0644 6.28192C40.8555 6.63936 40.5944 6.89468 40.3333 7.20106C40.0199 7.04787 39.7066 6.84362 39.3411 6.69043C38.5055 6.38404 37.5133 6.33298 36.6778 6.69043C35.9467 6.94575 35.3723 7.50745 35.0068 8.17128C34.7979 8.68192 34.589 9.19255 34.4845 9.70319C34.3801 10.2138 34.3801 10.7245 34.3279 11.2351C34.3279 11.8989 34.2757 12.6138 34.3279 13.2777C34.4323 14.2479 34.7979 15.167 35.4245 15.8819C35.9989 16.5457 36.8345 16.9032 37.7222 17.0053C38.1922 17.0053 38.61 17.0053 39.08 16.9032C39.6022 16.8011 40.0722 16.4947 40.5944 16.2904C40.8555 16.5457 41.1166 16.9032 41.3777 17.2096C41.0121 17.4138 40.6466 17.6181 40.2288 17.7713C39.1844 18.1798 37.9833 18.2309 36.8867 18.0777C36.0512 17.9245 35.3201 17.516 34.6934 17.0053C33.9623 16.3926 33.4401 15.5755 33.1268 14.7074C32.9179 14.0947 32.8135 13.4819 32.7613 12.8692C32.7613 12.4096 32.6568 11.95 32.7613 11.4394C32.7613 10.5713 32.9179 9.65213 33.2835 8.83511C33.649 7.81383 34.2757 6.84362 35.2156 6.17979Z" fill="#A1A1AA"/>
<path d="M25.1367 24H0.75V0H25.1367V24ZM16.0508 5.9248C15.1631 7.66089 14.2754 9.34595 13.3877 11.082C13.231 11.3884 13.0746 11.6441 12.918 11.8994C12.7091 11.593 12.5522 11.2862 12.3955 10.9287C11.5601 9.2948 10.7764 7.66097 9.99316 6.07812C9.9411 6.02712 9.9412 5.9756 9.83691 5.97559C9.3148 5.92453 8.79262 5.9248 8.27051 5.9248C8.16611 5.9248 8.06143 5.97555 7.95703 5.97559C8.21813 6.43516 8.47959 6.8952 8.68848 7.30371C9.78506 9.34616 10.8292 11.3377 11.9258 13.3291C12.0302 13.4823 12.0303 13.6867 12.0303 13.8398V18.4355H13.7529V13.7373C13.7529 13.6354 13.7535 13.5844 13.8057 13.4824C15.0067 11.2868 16.2077 9.09112 17.3564 6.89551C17.5131 6.58912 17.7217 6.33303 17.8262 5.97559C17.1997 5.87357 16.6251 5.9248 16.0508 5.9248Z" fill="#A1A1AA"/>
<path d="M102.166 6.68948C102.636 6.53629 103.106 6.43416 103.628 6.33203C103.524 7.20012 103.471 8.0682 103.471 8.98735C104.202 8.98735 104.986 8.98735 105.717 9.03841C105.612 9.39586 105.456 9.70224 105.299 10.0086C104.672 10.0086 104.046 10.0086 103.367 10.0086C103.367 10.8256 103.367 11.6427 103.367 12.4597C103.367 13.0725 103.419 13.7363 103.367 14.4001C103.367 15.115 103.367 15.881 103.419 16.5959C103.419 16.9022 103.732 17.1065 103.994 17.2086C104.464 17.3108 104.934 17.2597 105.404 17.1576C105.508 17.4129 105.56 17.7193 105.56 17.9746C105.142 18.1788 104.672 18.2299 104.202 18.281C103.576 18.281 102.845 18.1788 102.375 17.7193C102.009 17.3618 102.009 16.8001 101.957 16.3405C101.905 15.3193 101.957 14.2469 101.905 13.2256C101.905 12.1533 101.905 11.132 101.905 10.0597C101.487 10.0597 101.069 10.0597 100.704 10.0597C100.704 9.70224 100.704 9.3448 100.704 9.03841C101.121 9.03841 101.487 9.03841 101.905 9.03841C102.061 8.22139 102.061 7.40437 102.166 6.68948ZM46.8119 8.73203C47.1774 8.73203 47.5952 8.73203 47.9607 8.83416C48.7963 9.08948 49.5274 9.70224 49.9451 10.4171C50.3107 11.081 50.5718 11.7959 50.624 12.5618C50.6762 13.5831 50.7284 14.6044 50.3629 15.5746C50.0496 16.4937 49.4229 17.3108 48.5352 17.7703C47.6474 18.2299 46.603 18.281 45.663 18.0256C44.8275 17.8214 44.0964 17.2597 43.5742 16.5448C43.052 15.7788 42.8431 14.8597 42.8431 13.8895C42.8431 13.0214 42.7909 12.1022 43.1042 11.2342C43.3653 10.4171 43.9397 9.65118 44.7231 9.14054C45.0886 8.93629 45.4541 8.73203 45.8719 8.68097C46.1852 8.73203 46.4986 8.73203 46.8119 8.73203ZM46.0808 9.9065C45.6108 10.0086 45.1408 10.315 44.8797 10.7235C44.5142 11.3363 44.4097 12.0512 44.4097 12.7661C44.3575 13.2767 44.4097 13.7874 44.4619 14.298C44.5664 14.9108 44.6708 15.5746 44.9842 16.1363C45.2975 16.7491 45.9764 17.0044 46.6552 17.0554C47.2819 17.1065 47.9607 16.9533 48.4307 16.4427C48.7963 16.0342 49.0052 15.5746 49.0574 15.0129C49.1618 14.3491 49.1618 13.6852 49.1096 13.0725C49.1096 12.4086 49.0052 11.6937 48.744 11.0299C48.5874 10.6214 48.2741 10.315 47.9085 10.1108C47.3341 9.80437 46.7074 9.75331 46.0808 9.9065ZM53.1828 9.03841C53.6006 8.88522 54.0183 8.7831 54.4883 8.73203C54.645 9.14054 54.7494 9.54905 54.8017 10.0086C55.115 9.85544 55.3239 9.60012 55.6372 9.44693C56.2638 8.98735 57.0471 8.73203 57.8305 8.73203C57.9871 8.73203 58.196 8.7831 58.3527 8.88522C58.6138 9.03841 58.8749 9.14054 59.136 9.3448C59.3449 9.54905 59.5015 9.85544 59.6582 10.1108C60.0237 9.95756 60.2848 9.65118 60.5981 9.44693C61.1204 9.08948 61.747 8.7831 62.4781 8.73203C63.1047 8.68097 63.7314 8.88522 64.2014 9.29373C64.4103 9.49799 64.6191 9.70224 64.7236 9.95756C64.828 10.2129 64.8802 10.4682 64.8802 10.7746C64.9847 12.2044 64.9325 13.6852 64.9847 15.115C64.9847 16.0852 64.9847 17.0554 64.9847 18.0256C64.5147 18.0256 63.9925 18.0256 63.5225 18.0256C63.5225 16.5959 63.5225 15.115 63.5225 13.6852C63.5225 12.7661 63.5225 11.8469 63.4703 10.8767C63.4181 10.5703 63.2614 10.315 63.0003 10.1108C62.7392 9.95756 62.3737 9.95756 62.0081 9.95756C61.4337 10.0086 60.9637 10.3661 60.4937 10.7235C60.2848 10.8767 60.0759 11.081 59.8671 11.2342C59.8148 11.2852 59.8148 11.3874 59.8148 11.4384C59.8148 13.6342 59.8148 15.7788 59.8148 17.9746C59.3449 17.9746 58.8226 17.9746 58.3527 17.9746V12.8682C58.3527 12.4597 58.3527 12.0512 58.3527 11.6427C58.3527 11.2342 58.3527 10.7746 58.196 10.4171C57.8827 10.0086 57.3082 9.9065 56.8383 10.0597C56.1072 10.2129 55.4805 10.6725 54.9061 11.1831C54.8016 11.2342 54.8017 11.3363 54.8017 11.4384C54.8017 13.6342 54.8017 15.8299 54.8017 18.0256C54.3839 18.0256 53.9661 18.0256 53.5484 18.0256C53.4961 15.7788 53.5484 13.532 53.4439 11.2852C53.4439 10.7746 53.4439 10.2639 53.3395 9.75331C53.2872 9.49799 53.1828 9.24267 53.1828 9.03841ZM78.0921 8.98735C78.5621 8.93629 79.0321 8.83416 79.502 8.73203C79.5543 10.0086 79.5543 11.2852 79.5543 12.5108C79.5543 14.3491 79.5543 16.1363 79.5543 17.9746C79.0843 17.9746 78.5621 17.9746 78.0921 17.9746C78.0921 15.3703 78.0921 12.7661 78.0921 10.1618C78.0921 9.80437 78.0399 9.3448 78.0921 8.98735ZM96.8393 8.7831C97.8315 8.93629 98.667 9.85544 98.7193 10.8767C98.7715 12.3576 98.7193 13.8895 98.7193 15.3703V15.8299C98.7193 16.1363 98.7193 16.4427 98.8237 16.698C98.8759 17.0044 99.1892 17.1576 99.3981 17.3108C99.1892 17.5661 99.0326 17.9235 98.7715 18.1278C98.6148 18.281 98.4059 18.1278 98.3015 18.0256C97.936 17.7703 97.7271 17.4129 97.5182 17.0044C97.2049 17.1576 96.996 17.4639 96.6304 17.6171C96.1082 17.9746 95.4816 18.1278 94.8027 18.1278C94.2283 18.1278 93.6539 18.0256 93.1316 17.7703C92.2961 17.3108 91.8261 16.3916 91.8784 15.4725C91.8784 14.6044 92.3483 13.7363 93.0272 13.2256C93.8627 12.6129 94.9594 12.4086 96.0038 12.3065C96.4738 12.2554 96.9438 12.2554 97.466 12.2554C97.466 11.7959 97.466 11.3363 97.3615 10.8767C97.3093 10.5193 97.1004 10.1108 96.7349 9.9065C96.3171 9.70224 95.7949 9.65118 95.3249 9.75331C94.4372 9.85544 93.6016 10.2129 92.8705 10.7235C92.6617 10.4682 92.4528 10.2129 92.2961 9.9065C92.1917 9.75331 92.3483 9.65118 92.4528 9.60012C93.445 9.08948 94.4894 8.6299 95.6382 8.6299H96.1082C96.3693 8.73203 96.5782 8.73203 96.8393 8.7831ZM96.2127 13.3278C95.7427 13.3788 95.3249 13.3788 94.8549 13.481C94.3327 13.6342 93.8627 13.9405 93.5494 14.4001C93.3928 14.6554 93.3927 14.9618 93.3927 15.2682C93.3927 15.5746 93.3405 15.932 93.4972 16.2384C93.6016 16.5448 93.8627 16.8512 94.1761 16.9533C94.5416 17.1065 94.9594 17.1065 95.3771 17.1065C95.8471 17.0554 96.2649 16.8001 96.6304 16.4937C96.9438 16.2384 97.2571 15.932 97.2571 15.5235C97.3093 14.8086 97.3093 14.0427 97.3093 13.3278C96.9438 13.3788 96.5782 13.2767 96.2127 13.3278ZM112.088 8.83416C112.923 9.03841 113.654 9.54905 114.177 10.2129C114.594 10.7746 114.855 11.3874 114.96 12.0512C115.064 12.6639 115.117 13.3278 115.064 13.9916C115.064 15.0639 114.699 16.0852 114.072 16.9022C113.55 17.5661 112.714 17.9746 111.931 18.1278C110.939 18.281 109.842 18.1278 108.955 17.515C108.223 17.0044 107.753 16.1874 107.492 15.3193C107.336 14.8597 107.336 14.4512 107.283 13.9916C107.283 13.2256 107.283 12.5108 107.388 11.7448C107.597 10.9278 108.015 10.1108 108.641 9.49799C109.111 9.03841 109.738 8.7831 110.364 8.68097C110.991 8.68097 111.566 8.73203 112.088 8.83416ZM110.521 9.9065C109.842 10.0086 109.268 10.5193 109.059 11.132C108.798 11.7959 108.798 12.5108 108.798 13.1746C108.798 13.8384 108.798 14.5022 108.955 15.115C109.059 15.5746 109.163 15.9831 109.477 16.3405C109.738 16.698 110.208 16.9022 110.626 16.9533C110.782 17.0044 110.991 17.0044 111.148 17.0044H111.304H111.461C111.827 16.9533 112.14 16.8512 112.453 16.698C112.819 16.4937 113.08 16.1363 113.237 15.7278C113.393 15.2682 113.446 14.7576 113.498 14.298C113.498 13.7363 113.55 13.1746 113.498 12.5618C113.446 11.9491 113.393 11.3363 113.08 10.8256C112.819 10.4171 112.453 10.1108 111.983 9.9065C111.513 9.80437 110.991 9.80437 110.521 9.9065ZM117.571 9.08948C118.041 8.98735 118.459 8.83416 118.876 8.73203C119.138 9.19161 119.138 9.70224 119.19 10.1618C119.399 10.0086 119.608 9.80437 119.816 9.60012C120.443 8.98735 121.383 8.6299 122.271 8.7831V8.88522C122.062 9.29373 121.957 9.75331 121.749 10.2129C121.749 10.315 121.592 10.2639 121.54 10.2639C121.174 10.2639 120.704 10.2639 120.391 10.4682C120.025 10.6725 119.764 10.9278 119.503 11.2342C119.242 11.5405 119.294 11.9491 119.294 12.3065C119.294 12.8171 119.242 13.3278 119.294 13.8384C119.294 15.2171 119.294 16.6469 119.294 18.0256C118.824 18.0256 118.302 18.0256 117.832 18.0256C117.832 16.4937 117.832 14.9108 117.832 13.3788C117.832 12.3065 117.832 11.2852 117.78 10.2129C117.728 9.80437 117.623 9.44692 117.571 9.08948ZM82.3742 9.08948C82.792 8.93629 83.2619 8.7831 83.6797 8.7831C83.8364 9.19161 83.9408 9.65118 83.993 10.0597C84.3586 9.80437 84.7241 9.49799 85.0897 9.29373C85.873 8.83416 86.8129 8.52778 87.6485 8.83416C88.1707 8.98735 88.6407 9.29373 88.954 9.75331C89.2151 10.0597 89.2673 10.5193 89.3195 10.8767C89.424 12.3065 89.3718 13.6852 89.3718 15.115C89.3718 16.0852 89.3718 17.0044 89.3718 17.9235C88.9018 17.9235 88.3796 17.9235 87.9096 17.9235C87.9096 16.3916 87.8574 14.8086 87.8574 13.2767C87.8574 12.4086 87.8574 11.5405 87.7529 10.6725C87.5963 10.2639 87.2307 9.9065 86.7607 9.9065C86.4474 9.9065 86.0819 9.9065 85.7685 10.0086C85.0897 10.2639 84.463 10.6725 83.8886 11.132C83.8886 13.3788 83.8886 15.6767 83.8886 17.9235C83.4708 17.9235 83.0531 17.9235 82.6353 17.9235C82.6353 16.6469 82.5831 15.3703 82.5831 14.0427C82.5831 12.715 82.5831 11.3874 82.4786 10.0597C82.5831 9.80437 82.4786 9.44692 82.3742 9.08948Z" fill="#A1A1AA"/>
</g>
<defs>
<clipPath id="clip0_440_278">
<rect width="122" height="24" fill="white" transform="translate(0.75)"/>
</clipPath>
</defs>
</svg>
